<?xml version="1.0" encoding="UTF-8" standalone="no" ?>
<!DOCTYPE svg PUBLIC "-//W3C//DTD SVG 1.1//EN" "http://www.w3.org/Graphics/SVG/1.1/DTD/svg11.dtd">
<svg xmlns="http://www.w3.org/2000/svg" xmlns:xlink="http://www.w3.org/1999/xlink" version="1.1" width="1080" height="1080" viewBox="0 0 1080 1080" xml:space="preserve">
<desc>Created with Fabric.js 5.2.4</desc>
<defs>
</defs>
<g transform="matrix(1 0 0 1 540 540)" id="954af981-7928-4114-8ce5-3b3794cd22ca"  >
<rect style="stroke: none; stroke-width: 1; stroke-dasharray: none; stroke-linecap: butt; stroke-dashoffset: 0; stroke-linejoin: miter; stroke-miterlimit: 4; fill: rgb(255,255,255); fill-rule: nonzero; opacity: 1; visibility: hidden;" vector-effect="non-scaling-stroke"  x="-540" y="-540" rx="0" ry="0" width="1080" height="1080" />
</g>
<g transform="matrix(1 0 0 1 540 540)" id="539748dd-0e3f-4505-a830-a53d19b7f1c4"  >
</g>
<g transform="matrix(45 0 0 45 540 540)"  >
<g style=""   >
		<g transform="matrix(1 0 0 1 -0.25 -0.51)"  >
<path style="stroke: rgb(255,255,255); stroke-width: 2; stroke-dasharray: none; stroke-linecap: round; stroke-dashoffset: 0; stroke-linejoin: round; stroke-miterlimit: 4; fill: none; fill-rule: nonzero; opacity: 1;" vector-effect="non-scaling-stroke"  transform=" translate(-11.75, -11.49)" d="M 9 19 C 4 20.5 4 16.5 2 16 M 16 22 L 16 18.13 C 16.075883140477035 17.165397290334987 15.733491141040112 16.214713121685655 15.06 15.52 C 18.2 15.17 21.5 13.98 21.5 8.52 C 21.499743359984052 7.123827010719634 20.962692080871463 5.7811988129381575 20 4.769999999999999 C 20.45585587085802 3.5485065455880322 20.423624002006044 2.1983493725664056 19.909999999999997 1 C 19.91 1 18.73 0.65 16 2.48 C 13.708009069536889 1.85882174314556 11.291990930463104 1.858821743145557 8.999999999999993 2.48 C 6.27 0.65 5.09 1 5.09 1 C 4.576375997993954 2.1983493725664065 4.54414412914198 3.548506545588033 5.000000000000002 4.7700000000000005 C 4.0301271132727905 5.78869968156323 3.492522652091507 7.1434629237400635 3.5 8.55 C 3.5 13.969999999999999 6.8 15.16 9.940000000000001 15.549999999999999 C 9.274619582359335 16.237563554861623 8.932871378188963 17.17555330673349 9 18.13 L 9 22" stroke-linecap="round" />
</g>
		<g transform="matrix(1 0 0 1 -0.25 -0.51)"  >
<path style="stroke: rgb(255,255,255); stroke-width: 2; stroke-dasharray: none; stroke-linecap: round; stroke-dashoffset: 0; stroke-linejoin: round; stroke-miterlimit: 4; fill: none; fill-rule: nonzero; opacity: 1;" vector-effect="non-scaling-stroke"  transform=" translate(-11.75, -11.49)" d="M 9 19 C 4 20.5 4 16.5 2 16 M 16 22 L 16 18.13 C 16.075883140477035 17.165397290334987 15.733491141040112 16.214713121685655 15.06 15.52 C 18.2 15.17 21.5 13.98 21.5 8.52 C 21.499743359984052 7.123827010719634 20.962692080871463 5.7811988129381575 20 4.769999999999999 C 20.45585587085802 3.5485065455880322 20.423624002006044 2.1983493725664056 19.909999999999997 1 C 19.91 1 18.73 0.65 16 2.48 C 13.708009069536889 1.85882174314556 11.291990930463104 1.858821743145557 8.999999999999993 2.48 C 6.27 0.65 5.09 1 5.09 1 C 4.576375997993954 2.1983493725664065 4.54414412914198 3.548506545588033 5.000000000000002 4.7700000000000005 C 4.0301271132727905 5.78869968156323 3.492522652091507 7.1434629237400635 3.5 8.55 C 3.5 13.969999999999999 6.8 15.16 9.940000000000001 15.549999999999999 C 9.274619582359335 16.237563554861623 8.932871378188963 17.17555330673349 9 18.13 L 9 22" stroke-linecap="round" />
</g>
</g>
</g>
<g transform="matrix(45 0 0 45 540 540)"  >
<g style=""   >
		<g transform="matrix(1 0 0 1 -0.25 -0.51)"  >
<path style="stroke: rgb(255,255,255); stroke-width: 2; stroke-dasharray: none; stroke-linecap: round; stroke-dashoffset: 0; stroke-linejoin: round; stroke-miterlimit: 4; fill: none; fill-rule: nonzero; opacity: 1;" vector-effect="non-scaling-stroke"  transform=" translate(-11.75, -11.49)" d="M 9 19 C 4 20.5 4 16.5 2 16 M 16 22 L 16 18.13 C 16.075883140477035 17.165397290334987 15.733491141040112 16.214713121685655 15.06 15.52 C 18.2 15.17 21.5 13.98 21.5 8.52 C 21.499743359984052 7.123827010719634 20.962692080871463 5.7811988129381575 20 4.769999999999999 C 20.45585587085802 3.5485065455880322 20.423624002006044 2.1983493725664056 19.909999999999997 1 C 19.91 1 18.73 0.65 16 2.48 C 13.708009069536889 1.85882174314556 11.291990930463104 1.858821743145557 8.999999999999993 2.48 C 6.27 0.65 5.09 1 5.09 1 C 4.576375997993954 2.1983493725664065 4.54414412914198 3.548506545588033 5.000000000000002 4.7700000000000005 C 4.0301271132727905 5.78869968156323 3.492522652091507 7.1434629237400635 3.5 8.55 C 3.5 13.969999999999999 6.8 15.16 9.940000000000001 15.549999999999999 C 9.274619582359335 16.237563554861623 8.932871378188963 17.17555330673349 9 18.13 L 9 22" stroke-linecap="round" />
</g>
		<g transform="matrix(1 0 0 1 -0.25 -0.51)"  >
<path style="stroke: rgb(255,255,255); stroke-width: 2; stroke-dasharray: none; stroke-linecap: round; stroke-dashoffset: 0; stroke-linejoin: round; stroke-miterlimit: 4; fill: none; fill-rule: nonzero; opacity: 1;" vector-effect="non-scaling-stroke"  transform=" translate(-11.75, -11.49)" d="M 9 19 C 4 20.5 4 16.5 2 16 M 16 22 L 16 18.13 C 16.075883140477035 17.165397290334987 15.733491141040112 16.214713121685655 15.06 15.52 C 18.2 15.17 21.5 13.98 21.5 8.52 C 21.499743359984052 7.123827010719634 20.962692080871463 5.7811988129381575 20 4.769999999999999 C 20.45585587085802 3.5485065455880322 20.423624002006044 2.1983493725664056 19.909999999999997 1 C 19.91 1 18.73 0.65 16 2.48 C 13.708009069536889 1.85882174314556 11.291990930463104 1.858821743145557 8.999999999999993 2.48 C 6.27 0.65 5.09 1 5.09 1 C 4.576375997993954 2.1983493725664065 4.54414412914198 3.548506545588033 5.000000000000002 4.7700000000000005 C 4.0301271132727905 5.78869968156323 3.492522652091507 7.1434629237400635 3.5 8.55 C 3.5 13.969999999999999 6.8 15.16 9.940000000000001 15.549999999999999 C 9.274619582359335 16.237563554861623 8.932871378188963 17.17555330673349 9 18.13 L 9 22" stroke-linecap="round" />
</g>
</g>
</g>
<g transform="matrix(NaN NaN NaN NaN 0 0)"  >
<g style=""   >
</g>
</g>
</svg>