<svg xmlns="http://www.w3.org/2000/svg" viewBox="0 0 25.396 24.168" xmlns:v="https://vecta.io/nano"><style><![CDATA[.L{fill:#0f181b}.M{fill:#eac3a7}.N{fill:#316956}.O{fill:#184137}.P{fill:#bcbec0}.Q{fill:#be1e2d}]]></style><path d="M25.374 8.99c-.127-.172-.212-.376-.368-.525-.15-.101-.259-.254-.403-.361-.167-.119-.343-.229-.525-.324-.476-.186-.982-.312-1.475-.45.04-.196-.047-.417-.434-.549-.052-.711.267-.261.586-.943.408-.831.276-1.646.177-2.524-.031-.247.139-.409.249-.629-.01.2-.159.63-.068.771.149.147.442.271.577.039.203-.473.314-1.159.129-1.651a1.82 1.82 0 0 0-1.185-.999c-.243-.042-.494-.043-.741-.054-.339.008-.761-.087-1.005.216a.54.54 0 0 0-.123.506c-.057.485.113.961-.008 1.443-.007.063-.07.14.02.188.049.026.111.047.164.043.119-.01.142-.002.166.111-.007.322.007.664-.056.979-.052.092-.044.177.009.257.075.119-.077.231.038.352.184.258-.027.559-.006.842-.007.443.553.383.532.768.026.268-.082.248-.279.353-.39.155-.819-.071-1.194-.188-.61-.121-.64-.543-.707-1.063-.128-.583-.109-1.18-.1-1.773.005-.099.114-.174.143-.261a2.22 2.22 0 0 0 .058-.501c.001-.145-.047-.248-.171-.312-.115-.057-.043-.171-.05-.263-.012-.114.03-.214.072-.313.087-.159.29-.216.362-.392.137-.112.421.133.538-.061.102-.207-.164-.438-.388-.353-.133.043-.179-.241-.375-.256-.107-.06-.159-.232-.316-.191-.129.029-.253.031-.38-.012-.218-.096-.329.179-.512.247-.055.032-.074.097-.151.099l.025-.17c-.03-.225-.318-.109-.293.065 0 .073-.029.095-.093.085l-.469-.084c-.217-.045-.398-.171-.583-.28-.612-.369-.957-.108-.904.563-.01.494.441.933.896.595.219-.153.428-.315.712-.338.17-.006.398-.126.543.007.232.504.663.377.547.868-.008.025-.093.023-.136.045-.036.018-.074.049-.092.084-.06.242.009.507.01.756.002.029.027.07.052.082.057.026.064.064.062.118l.086 2.818c.071.368.304 1.066.587 1.31.291.243.527.589.547.975.038.447.015.903-.056 1.345l-.34 1.393c-.134.403-.254.824-.162 1.249.013.229.308.014.273.272-.007.416.055.836.057 1.255.012.315-.014.63.029.945.117 1.512-.012 3.032.069 4.543-.002.479-.075.951-.08 1.432-.02.354.037.709-.001 1.062-.004.055-.005.115.064.119l.601.018c.005.085-.004.164.018.233.027.12-.13.129-.199.161a1.28 1.28 0 0 0-.309.227c-.107.115-.197.25-.275.387-.086.152-.008.306.043.452.039.114.148.142.254.146.587-.038.316.091.848-.211.011.048.06.113.037.159.139.014.255.09.375-.022.156-.132-.03-.634-.031-.836-.015-.137-.042-.262-.17-.341-.015-.009-.03-.03-.03-.045l-.001-.292c.221-.062.469-.014.697-.01.058.004.064-.016.063-.06a1.45 1.45 0 0 1 .03-.405l-.028-.398.032-1.02c.092-.641.026-1.282.014-1.924-.003-.173-.035-.349-.01-.517.08-.52.064-1.043.043-1.566l-.044-.569c.036-.201.032-.405.029-.61v-.936c.026-.194-.084-.439.115-.569a3.46 3.46 0 0 1 .002.837c.025.336-.005.672-.016 1.008l.063 1.957c.013.456-.02.912-.032 1.367-.04.212-.01.414.032.622l-.04 2.114a2.13 2.13 0 0 0-.019.591c.482.188.613-.183.591.326.057.294-.248.328-.389.504-.075.097-.198.162-.209.301-.022.261-.103.619.259.661.119.064.567-.065.594-.197.032.02.036.042.016.068.098.058.169.147.297.146.126-.01.306-.09.331-.206s.016-.243.003-.363c-.027-.189-.064-.382-.116-.566-.036-.09-.102-.168-.095-.276.008-.116.002-.233.002-.347l.651.037c.102-.001.087-.115.092-.187-.035-.3.024-.592.003-.889l-.01-1.42c.064-.363.098-.736.082-1.1.059-.229.03-.464.04-.696.021-.368-.037-.746-.008-1.112.029-.133.021-.265.008-.395l-.178-1.344c-.023-.156.028-.281.142-.384-.001.156.124.273.232.134.121-.36.111-.748.031-1.115-.026-.145-.074-.523.121-.554.212.031.327-.14.358-.327.033-.124.073-.256.006-.37-.112-.177.041-.292.116-.434.06-.204.218-.356.308-.541.117-.192.178-.418.254-.631.121-.669.355-1.372.228-2.049zm-5.295-7.504l.052.018-.057.106c.078.05.085-.01.125-.067.136.178-.307.202-.119-.058zM16.277.781l.2.068-.008.028-.2-.062.009-.034zm.087.134c.248.042.387.307.382.55.02.242-.216.618-.473.401-.182-.201-.169-.488-.137-.736.009-.117.095-.237.227-.216zm.448.89c-.092.174-.327.341-.518.241-.194-.111-.275-.296-.291-.509.008-.213-.07-.488.12-.641-.034.093-.097.186-.104.286.02.219.052.436.131.642.044.139.214.22.348.165.244-.1.325-.382.32-.622-.032-.167-.146-.294-.228-.444.272.176.561.498.266.825-.016.018-.034.036-.044.058zm.049.062c.314-.256.167-.502.057-.816.28.129.599.285.917.252.136-.021.076.187.115.278-.383.012-.764.042-1.089.286zm5.326 5.045c.233.026.33.343.29.545-.039.301-.263.437-.51.557a5.17 5.17 0 0 0-.131-.608c-.065-.172.41.112.351-.495zm.858-4.614l-.209.047c-.038-.177.108-.079.209-.047zm-.287-.966c.171.186.205.41.188.615l-.188-.614zm1.013 1.652l.024.008-.127.459-.039-.011.142-.455zm-.161-.46l-.083-.957c.082.084.126.56.083.957zm-.101.184l.025.005-.065.37-.032-.006.071-.368zm-.061-.396l.032.002c-.024.157-.005.32-.068.471l-.022-.003.058-.47zm-.146 1.171a.48.48 0 0 1 0-.471v.471zm-.092-.519l.054-.304.024.005c.023.103-.005.195-.078.299zm.035-.899c.011-.209-.005-.442-.049-.646.098.125.131.562.049.646zm-.208.107c.067-.07.099.061.148.122-.062-.048-.136-.055-.148-.122zm.101-.143c-.007-.264-.035-.523-.191-.75.193.058.299.51.191.75zm-.219-.771l-.171-.101c.076-.009.145-.004.171.101zm-.209.925l-.049-.431a.57.57 0 0 1 .049.431zm-.064-.725c-.061-.052-.114-.115-.166-.178.003-.006.006-.012.01-.018.09.033.117.118.157.196zm-.309-.169l.17.102-.017.032-.177-.087.024-.047zm-.235-.1l.012-.043.326.089-.005.022c-.107-.039-.238.028-.333-.068zm.433-.151c-.266-.064-.538-.064-.809-.082.273-.015.549-.039.809.082zm-.745.232l.495.035.002.026-.973-.03v-.034c.158-.056.316-.017.476.002zm.333.225h-.354c.063-.077.185-.079.354 0zm-.739.004c-.234.053-.351.051-.39 0h.39zm-.374-.137l.283-.018.002.031h-.283zm.382-.183c-.134.021-.268.06-.403.022.133-.069.268-.047.403-.022zm-.261 3.561c.014-.127.171-.09.261-.094h0c.07.015.496-.057.367.096-.175.053-.349.131-.535.101-.059-.005-.097-.043-.093-.103zm.329-.374c.142.054.305.062.418.172-.113.046-.214.085-.314-.003-.011-.01-.037-.004-.056-.005-.559.06-.435-.263-.047-.164zm.038 1.739c-.517-.159-.27-.783-.223-1.162.164-.065.596-.043.587-.279.107-.113.075-.14-.014-.232s-.212-.082-.323-.108c-.132-.043-.259-.059-.394.001.03-.27.037-.535.047-.805-.011-.163.042-.458-.207-.429-.145.006-.162-.02-.14-.167l.047-.436c-.038-.298-.024-.607.003-.906l.851-.013c.187.004.477-.077.61.086.311.321-.138 1.128.464.905l.039.146.169-.063c-.024.074-.297.423-.106.346-.086.141-.159.269-.166.435-.022.162-.259.081-.173-.159l-.027-.013c-.198.207.138.502.318.252.09.791.177 1.625-.214 2.352-.108.164-.305.266-.456.389-.153.113-.153.263-.132.436.019.152.008.311-.007.465-.008.088-.149.124-.226.079-.105-.062-.11-.165-.115-.263-.025-.241.046-.51-.056-.737-.031-.053-.096-.098-.156-.117zm.192 2.092c.052.1.08.213.119.321l-.003-.002c.1.238.182.478.24.726.083.292.187.579.232.881-.061.281-.552.635-.777.822-.199-.141-.283-.377-.442-.557-.091-.143-.232-.283-.207-.465.028-.394.258-.715.394-1.076l.166-.444c.051-.18.338-.478.067-.594-.168-.08-.028-.312.09-.367.046-.031.122-.123.14-.019l.051.323c.055.215-.228.194-.068.452zm-1.192 8.715c-.149-.024-.685.019-.749-.069l.016-.028.735.069-.002.028zm.661.127c-.179.074-1.221.018-1.4-.07.18-.005.358.005.536.015.292.015.58-.04.864.055zm-.187-1.03c-.383-.019-.779.041-1.154-.028l.005-.038.591-.002c.182.02.877-.14.93.033-.112.061-.248.016-.37.035zm.353.11l-.001.031-.872-.032c.292-.03.583-.049.873.001zm.012-.528l.004.034c-.143.053-.311.028-.462.034-.379-.016-.772-.034-1.129-.152l.011-.034 1.576.117zm-1.103-.179l.005-.026c.373.002.746-.019 1.116.057l-.001.026-1.12-.057zm-.064.249l-.005.037-.345-.068.005-.027.346.057zm-.411.089l1.108.061c-.331.077-.685.038-1.024.065-.128.012-.101-.026-.084-.127zm-.003.452c.061-.057.216-.054.301 0h-.301zm.021.132c.434-.085.866-.059 1.293.027-.433.007-.864.032-1.293-.027zm1.071.127l-1.07.015c-.004-.005-.004-.051 0-.055l1.07.04zm-.114-.279l.622.047c-.079.055-.468.024-.622-.047zm.584-.841l-.472-.027h-.646l-.36.015c-.111.002-.112 0-.073-.112l1.592.072.006.029c-.016.008-.032.024-.047.023zM19.763 14.1l-.017-.105 1.125-.039c.164-.012.324-.06.483.01-.524.108-1.06.04-1.591.134zm1.577-.009v.119l-1.234-.044 1.234-.074zm-1.546.182c.403-.048.806-.03 1.21-.002l.287.015c.053.001.079.017.063.089-.497-.047-.996-.034-1.496-.023-.049.009-.085-.006-.117-.044.017-.013.035-.035.053-.037zm1.56.251c-.533-.017-1.068.057-1.599-.076.293-.026.591-.01.885-.01.097.017.733-.002.714.085zm-.193.372c.065.004.136-.046.195.007l-.004.029-.191-.036zm.19.264c-.047.039-.099.027-.154.022l-.715-.018c-.242-.02-.492 0-.726-.07l.006-.031c.261.028.525.023.787.037.261.005.524.062.785.029l.017.031zm-1.525-.442l1.38.017c.059.005.121-.019.155.045-.212.082-1.425.033-1.535-.062zm.287.149c-.088-.018-.412.059-.358-.085l.358.085zm-.303.085l.665.015c.261.004.547-.02.788.087l-.003.025-1.512-.059-.007-.037c.023-.011.045-.032.068-.032zm-.062-.366c.008-.057.032-.07.093-.058.507.09 1.015.021 1.527.085-.114.051-1.48.025-1.619-.027zm1.616-.72c-.517.018-1.037 0-1.551.059-.097.024-.102-.133-.003-.116.52-.02 1.037-.024 1.554.042v.016zm-1.549-.142c-.025 0-.05-.026-.075-.04.025-.014.05-.039.075-.04l.728-.023.017.074c-.243.037-.498.016-.745.028zm1.026-1.47l.023.004c-.017.152.043.403-.039.523-.085-.101-.044-.321.014-.435.013-.023.002-.061.002-.092zm.088.711h-1.164c.043-.029.07-.062.099-.064.353-.002.732-.073 1.065.064zm.226-1.443c-.01-.091.013-.104.18-.088 0 .092.061.241-.003.318-.059-.002-.127-.012-.165-.065q.018-.06.157-.055c-.011-.049-.104-.11-.169-.11zm-.033-.17c-.049-.07-.028-.248.069-.548l.189.186c.059.066.179.101.178.204l-.046 1.156c-.118-.236-.334-.378-.516-.108l-.023-.011.079-.594c.435.692.585-.468.07-.286zm.166 1.234c-.068.087-.178-.043-.234-.086-.037-.035-.013-.065.002-.109.048-.14.041-.143.117-.174.131-.053.223.01.222.155.01.094-.059.149-.106.214zm-.314-.187c-.006.142.221.357.335.228.073-.092.093-.19.204-.255v.435l-.564-.044v-.357l.026-.007zm.003.649l.001.021c-.395.031-.806.104-1.202.016.021-.012.042-.035.063-.035l1.139-.002zm-.591.473c.007 0 .014.009.03.02-.195.044-.394.008-.592.02-.06 0-.082-.026-.079-.091l.641.051zm-.009-.257c-.18-.021-.447.042-.601-.036.098-.061.213-.005.32-.016.297-.01.601-.077.892.018.093.036.197.046.295.069l-.003.028-.903-.063zm.641-.123c.227.011.452.027.673.079-.229.011-.458.029-.673-.079zm1.156.219c-.149.068-.797.104-1.076.053l1.076-.053zm-.535-.216l.007-.042.633.068-.005.042-.635-.068zm1.239.256c-.09.074-.534.103-.626.039l.626-.039zm.163.143v.022h-.257v-.022h.258zm-.659-.275c.152 0 .663-.13.695 0h-.695zm.625-.305l-.172-.016v-.026h.173l-.002.042zm-.019.083c-.673.043-1.342-.012-2.01-.096.668.068 1.351-.044 2.01.096zm-1.349-.233h-.021v-.405l.029-.002c.038.136-.019.272-.008.408zm-.032-5.896l.054.295-.446.238c-.041-.26.194-.398.393-.533zM19.72 1.362l-.004.031h-.216v-.029c.075.007.146-.027.22-.002zm-.208-.151l.128.054.001.021c-.055.03-.101.008-.145-.028-.004-.003.01-.031.016-.048zm.291.292v.138l-.634-.04c-.064-.003-.071-.05-.073-.097-.002-.068.042-.039.078-.037.21.014.421.002.63.035zm-.517-.138h-.123l.085-.101.038.101zm-1.203-.288l.004.03-.097.053c-.002-.088-.002-.104.093-.083zm.196.847c-.216-.154-.253-.439-.306-.681l.132-.072c-.069.24.145.361.195.552.074-.031.053-.075.032-.111-.075-.132-.087-.363.103-.405-.04.266-.031.466.169.671l.039-.02c-.02-.079-.028-.163-.062-.236-.083-.179-.044-.348.026-.516.043-.101.13-.09.224-.079-.115.174-.135.38-.047.567.037.063.117.296.209.189.005-.01-.005-.033-.015-.042a.5.5 0 0 1-.147-.554c.05-.128.231-.181.339-.102.023.016.055.019.095.032-.21.125-.24.093-.268.345-.048.1.021.257.171.256s.303.02.457.031c-.008.113-.097.156-.16.211-.229.183-.227.442-.238.718l-.541-.088c-.042-.017-.048-.09-.035-.127.072-.244-.213-.408-.371-.54zm.131 1.304c-.114-.763.349-.49.839-.406.274.045.124.329.128.516-.005.18-.196.12-.341.161l-.493-.082c-.096-.019-.13-.093-.132-.188zm.948 9.518c-.108-.08-.048-.246-.04-.366l.236-1.557c.025-.365.165-.704.218-1.06-.013-.434.01-.879-.087-1.304-.084-.324-.323-.579-.498-.856l-.512-1.041c-.092-.259-.142-.545-.11-.819-.044-.722-.014-1.432-.015-2.156.102.023.733.094.724.193-.06.477-.089.956-.077 1.438.194 1.373.276 1.335 1.542 1.739.769.129.145.134.284.886l.04.012.181-.232.031.015c-.016.179.085.272.233.329l-.577 1.279c-.033.009-.099.004-.059.106.016.041-.038.11-.06.167l-.134.334c-.05.106.038.165.07.242l.288.494c.089.152-.239.852-.16.97.051-.014.082-.036.084-.093l.02.005-.032.118c-.123-.013-.074.013-.099.092-.013.105-.079.179.047.243l-.002.047-.084.005c-.05.094.019.164.058.239l-.029.019-.02-.082c-.076.061-.035.19-.058.277l-.027.274c0 .074-.017.106-.097.099l-.514-.031c-.255-.008-.522.08-.766-.023zm1.942 4.936l.006.031c-.02.01-.04.031-.059.03-.349-.028-.705-.016-1.05-.083a4.49 4.49 0 0 1 1.104.023zm-1.573-.142v-.025c.285.018.57-.018.855.025h-.855zm.003-.105l-.015-.025c.027-.03.057-.061.101-.061.359-.017.718-.066 1.072.019.131.036.291.019.405.094l-1.563-.027zm1.544.732l-.001.041c-.428.045-.856.058-1.282-.033l1.283-.008zm-1.593-.185l.888.067c-.143.058-.821.01-.888-.067zm1.213.004l-.593-.041c-.18-.031-.513.036-.629-.119l1.223.144zm.315 1.601l-.005.042c-.516-.01-1.021-.114-1.529-.184l.003-.032 1.531.174zm-1.517-.499h.886v.037l-.886.036c-.001-.04-.005-.055 0-.073zm.03.186c.495.083 1.009.032 1.494.202-.497-.067-1.007-.049-1.494-.202zm1.205.411c-.245-.032-1.224.056-1.281-.138l.019-.024 1.262.162zm.247 1.696c-.152.01-.301-.034-.453-.044-.328-.035-.663-.016-.981-.112v-.02c.223-.006.451.005.669.052.216.052.433.042.65.049.043.001.084.032.126.05l-.011.026zm0 .434v.066c-1.782.058-1.852-.107 0-.066zm.014-.822c-.468-.008-.93 0-1.383-.105.454-.034.967-.04 1.383.105zm-.003-.43l-1.436-.054c-.103.012-.113.002-.106-.118l1.466.085c.066.005.079.02.076.087zm-1.053-.249c-.165-.017-.351.064-.494-.047.259-.072 1.408.025 1.57.127l-1.075-.08zm1.038.501c-.176.02-.35-.037-.526-.04l-.706-.018c-.11-.005-.201.019-.308-.03.183-.079 1.318-.018 1.541.088zm-.069.297l-.001.025c-.424-.025-1.065.051-1.423-.175.478.087.942.137 1.424.15zm-1.362.241l.607.077c-.15.053-.325.02-.485.038-.101.003-.101.001-.122-.114zm.027.334l.011-.029 1.268.037v.022c-.365-.003-.73.001-1.095.016-.068.003-.136.015-.183-.046zm.962 1.34c.03.152.092.394.041.531a.38.38 0 0 1-.152.009c-.024-.002-.044-.032-.07-.038s-.066-.004-.071.008c-.047.1-.154.105-.234.143a1.08 1.08 0 0 1-.655.065c-.099-.019-.156-.227-.097-.312l.088-.125q.11.136.062.214.037.043.212.024c-.005-.045.018-.123-.024-.153-.102-.003-.121-.107-.19-.143.039-.1.059-.212.205-.184.057.09.174.17.075.316.157.015.23-.079.154-.177-.049-.075-.249-.203-.101-.271.038-.015.087-.041.113.025.091.29.45.221.644.069zm-.47-.631c.085.005.221-.062.271.034.054.172 0 .247-.073.396-.128-.043-.211-.228-.199-.43zm.399-.315c-.171-.003-.799.108-.863-.06l.016-.027c.465.063.933-.004 1.398.028l.002.037a1.84 1.84 0 0 1-.552.022zm.567-1.911c-.533.004-1.052-.131-1.581-.14l-.005-.031 1.586.094v.077zm-.002-.281c-.276-.004-.54-.056-.812-.026l-.666-.048c-.04.005-.059-.034-.085-.057.32-.019.645.04.965.055l.538.002c.057 0 .072.025.059.075zm.018-.538l-.918-.111c.305-.026.611-.028.918.03v.081zm-.047-.334l-.497-.029c-.345-.003-.704-.047-1.03-.157l.013-.036c.366.045.729.067 1.097.061.143.007.285.029.427.05.021.003.037.039.055.06-.022.018-.045.052-.066.051zm-1.497-.509c.49.038.998-.021 1.47.147-.249-.024-.491-.089-.741-.05h-.644c-.092 0-.104-.015-.084-.097zm-.005-.113c.054-.045.2.035.273.041l-.006.028c-.075-.025-.221-.007-.267-.069zm1.485.401c.01.002.02.012.024.033-.487-.051-.976-.021-1.459-.109.481-.017.962-.039 1.435.076zm.094-.213l-.311-.074c.101-.007.34-.112.311.074zm-.047-.211l-.498.007c-.347-.007-.726.012-1.042-.142l.01-.034c.36.04.713.151 1.079.089h.496l.019.027c-.022.018-.043.052-.065.053zm.065-.456c-.521-.069-1.063-.064-1.565-.229.346.014.68.088 1.025.078.165.002.33.028.494.05.025.003.044.046.066.071l-.02.03zm-.549-.683c-.179-.033-.949-.016-1.006-.14.538.068 1.048.09 1.598.075-.098.157-.426.044-.592.066zm.62-.376l-1.582-.137c-.011-.053-.001-.085.054-.081l.7.046.752.009c.08.015.086.084.076.163zm-1.037-.268l.447-.001c.198.011.418-.071.603.002-.127.068-.781.066-1.05 0zm.727-2.954c.377-.068.756-.099 1.138-.047-.379.022-.757.085-1.138.047zm.799.043c.366.008.727-.112 1.09-.015l.009.025c-.035.012-.07.039-.103.035-.252-.027-.503-.053-.756.001-.084.006-.194.053-.255-.025l.015-.023zm1.59 2.037l-.195-.026c.182-.078.197-.076.195.026zm-.168-.294c.041-.043.058-.08.124-.103.001.11-.004.134-.122.129l-.002-.026zm-1.414.992c.033-.067.508-.066.873.032-.286.061-.588-.02-.873-.032zm.473.128h-.432l.002-.033c.145.005.292-.031.43.033zm.531-2.649c-.022.027-.046.045-.07.045a76.11 76.11 0 0 1-.868-.005c-.006 0-.012-.016-.029-.04h.967zm-.741-.087l.314-.03.003.035-.314.023-.003-.027zm.729.357l-.955-.096.032-.029.779.004c.109.001.109 0 .143.12zm-.415 1.429c-.129.007-.475.099-.543.013.077-.084.413-.003.543-.013zm-.098-1.089c-.281.015-.365-.001-.373-.079l.375.055-.002.025zm.477.129v.037h-.838l-.01-.092.849.055zm.289.152a.96.96 0 0 1-.467.045c-.21-.032-.419-.058-.631-.033-.015.002-.032-.01-.067-.022.161-.046 1.088-.038 1.165.01zm-1.127.337l.001-.03c.104.004.207.016.31.035-.105.007-.207.002-.311-.004zm.245.087c-.154.063-.272.053-.278-.03l.278.03zM21.963 15c-.018-.068.009-.089.065-.083l.451.05.578.065-.002.033L21.963 15zm1.065.209c-.191.124-.428.025-.638.02l-.002-.02h.64zm-.405.153c.149.02.408-.088.493.066l-.009.027-.701-.097c.072-.019.145-.003.216.003zm.212-.426l.273-.04.004.027c-.085.077-.182.03-.277.012zm.254.834a5.99 5.99 0 0 0-1.2.023v-.044c.4.01.8-.125 1.2.021zm.058.214l-.001.037-.812-.033.002-.041.811.036zm-.756-.162h.239q-.048.038-.239 0zm.122.348c-.109.064-.214.01-.321.005l-.332-.001.001-.034.652.03zm.933.386l-.001.025a8.04 8.04 0 0 0-.851-.027c.164-.092.625-.008.852.002zm-.28-.211c.122-.008.242-.006.357.032l-.003.024-.353-.056zm.108-.097c.073-.029.15-.041.227-.054.026.108-.159.047-.227.054zm.091-.162c-.215.081-.43.067-.643 0h.643zm-1.379-.625c.403-.095.781.068 1.169.068-.389.012-.774-.057-1.169-.068zm.789-.918c.093-.044.416-.027.446.035l-.446-.035zm-.665-.199c.378.054.738.073 1.125.06-.125.087-.901.046-1.125-.06zm1.121-.078c-.335.09-.695.026-1.034-.026-.095-.016-.194-.001-.275-.063l.017-.036 1.292.125zm-.088-.114l.086-.205c.035.075.035.134.008.205h-.095zm-.129-.001l-.125-.077.098-.093.049.147-.023.023zm-1.169 2.521h1.71c-.014.097-.08.069-.119.075-.117.017-.237 0-.354-.01a5.98 5.98 0 0 0-.829.028c-.139-.012-.276-.046-.413-.07l.005-.023zm.711 1.094c.199-.052.822-.007.968.072l-.968-.072zm.457.282l-.973-.064c-.019-.002-.037-.019-.072-.038.366-.017.705.036 1.044.102zm-1.087-.592l.003-.044a7.86 7.86 0 0 1 1.63.068c-.542.089-1.09.011-1.633-.024zm.752 2.72c-.223.005-.449.046-.665-.046.225-.032.444.02.665.046zm-.7-.52l.319.059-.009.028c-.194.012-.244-.001-.31-.087zm.016-.092c-.009-.122.255-.04.332-.049.257.041.544-.014.771.13-.368-.017-.74.043-1.103-.081zm.017-.447c.417.099.842.109 1.267.119-.386.05-1.185.029-1.267-.119zm.796.033l-.745-.099.004-.028c.257-.034.512-.05.749.084l-.007.043zm-.782-.244c.031-.066.25-.074.467-.025l-.467.025zm.016-.312l.001-.024h.323v.024h-.324zm.378-.12c.33-.01.659-.035 1.009.009a.49.49 0 0 1-.314.058l-.694-.067zm.972-.074l-1.414-.042-.007-.023c.472-.067.95-.001 1.423.038l-.002.027zm-.461 1.918c-.128.087-.745.068-.962-.018l.962.018zm-.282.3l-.592-.049.001-.029c.199.002.395.035.594.055l-.003.023zm.347.376c-.27.041-.519.034-.762-.051.201-.016.61-.095.762.051zm-.432-.216l-.601.057-.012-.087.613.031zm-.671-3.829c.632-.043 1.348-.013 1.429.04-.476.123-.952 0-1.429-.04zm1.663.154c-.01.017-.017.042-.025.042-.157.003-.314.015-.469-.007l.001-.035h.493zm-.405-.273h.399c.085.155-.307 0-.399 0zm-1.274.235l.003-.034c.288.048.582.034.867.108v.021l-.87-.095zm.091 4.534a1.96 1.96 0 0 1 .387.023c-.257.058-.343.055-.387-.023zm.439 1.39l-.028-.101.333.125-.004.016-.197.01.057-.05h-.162zm.145-.204c-.158-.033-.165-.155-.181-.276-.08-.21.14-.106.256-.107.075.004.131.114.121.191-.029.101-.055.235-.196.192zm-.197-1.279a3.18 3.18 0 0 1 .726.006v.021c-.242.006-.484-.003-.725-.027zm.245-.142c-.206-.003-.426.063-.625.015.021-.01.042-.026.063-.027.187-.001.378-.038.562.001zm.31 2.08l.013-.043.012.275c-.079.005-.119.015-.189.003l-.023.04c.03-.147-.043-.169-.159-.147-.097.204-.36.189-.551.241-.062.01-.127-.004-.191-.011-.006 0-.008-.026-.016-.037s-.024-.02-.037-.03l-.04.006c.034-.139-.007-.316.161-.371.07.093.1.149.082.279.455-.097-.165-.23.061-.46.054.035.093.048.127.079-.017.072.069.108.065.165-.007.106.067.065.108.065.078.001.081-.092.049-.145-.123-.027-.137-.151-.229-.243.059 0 .102-.013.129.002.19.095.392.106.582.002l.043.329zm.075-1.609c.008-.018.02-.023.032-.028-.213.042-.418-.047-.63-.018l.002-.04.801.033.006.028-.212.025zm-.549-.216v-.02c.268.032.545-.006.809.031-.122.092-.637.007-.809-.011zm.703-.45c-.204.001-.408-.006-.612.002-.182.008-.359-.013-.537-.048-.069-.014-.062-.05-.069-.115.391.095.766.076 1.162.053.067-.007.129-.02.179.038-.025.052-.066.075-.123.07zm-.486-.678h.631c-.099.059-.367.06-.631 0zm.613-.61c-.072.066-.134-.011-.201-.022h-.028c.01-.002.019-.001.028 0h.343c-.075.11-.069.035-.142.022zm.16-.335l-.462-.072.004-.026.465.054-.006.044zm.032-.145l-.391-.021v-.013h.392l-.001.034zm-.038-.358a1.13 1.13 0 0 0-.276-.022c-.213.012-.405-.078-.61-.12l.004-.029.955.103c.004.06-.003.084-.073.068zm-1.083-.849c-.114-.01-.248.04-.356.005-.021-.014-.017-.068-.024-.102.529.085 1.063.032 1.598.085l.005.093c-.403-.071-.816-.049-1.223-.081zm.994-.487c.134-.063.204-.056.232.027l-.232-.027zm.608-4.333c-.118.269-.075.55-.025.829l.024.416c0 .031-.046.063-.075.101-.062-.123.037-.249-.071-.36l-.099.298c.015-.155.035-.306-.03-.453-.005.289-.129.538-.228.795.059-.321.11-.64.091-.998-.11.069-.051.258-.082.378a3.63 3.63 0 0 1-.133.656c-.02.063-.077.074-.155.084.102-.362.184-.71.173-1.085.006-.25-.186-.27-.237-.027l-.142-.104c.036-.107.078-.215.167-.309.119-.126.222-.268.327-.408.036-.047.072-.048.118-.031.079.051.437.101.377.217zm-.665-.575c-.036-.151-.079-.284-.061-.446.017-.288-.035-.587 0-.879l-.014-1.793a4.29 4.29 0 0 0-.006-.76l.022-.018c.278.158.531.36.783.557.14.144.387.245.299.483-.027.202-.108.385-.145.584-.07.217-.23.406-.277.636-.122.337-.202.676-.289 1.024-.192-.026-.265.462-.311.614zm.005.448c-.023-.142-.168-.318-.007-.389.116.215.182.174.007.389zm.949-.051c-.018.042-.062.053-.117.032-.23-.124-.734-.114-.636-.496.042-.145.028-.413.254-.361.243.078.572.111.676.38l-.177.445zm1.05-3.521a1.93 1.93 0 0 1-.067.383c-.017.063.025.149-.06.191.04.052.006.103-.003.154-.018.127-.054.246-.137.345-.11-.123-.067.133-.261.099-.001.117.084.089.175.104-.047.126-.152.265-.166.411-.053.164-.15.307-.227.46-.05.149-.097.298-.176.435-.027.054-.012.123-.086.139l.047.013c-.021.042-.064.052-.089.009-.042-.072-.122-.058-.177-.098-.029-.022-.06-.04-.095-.062l-.015.037c-.061-.061-.118-.083-.204-.073.04-.405.248-.776.392-1.156.064-.166.037-.346.124-.506.046-.066.052-.161.077-.243.19-.595.084-.719-.422-1.056-.142-.08-.241-.21-.376-.288-.108-.108-.401-.367-.449-.08-.025.198-.04.393.001.59a6.76 6.76 0 0 1 .032.928l-.045 1.422c.005.193-.017.388.038.58a1.26 1.26 0 0 1 .036.338c-.011.139-.453.078-.571.119-.184.027-.366.018-.549-.001-.094-.029-.297.036-.328-.082-.015-.37.082-.733.045-1.105 0-.018-.022-.035-.034-.053l-.022.005-.013.084c-.01-.074-.003-.147.004-.221l.071.095.027-.002c.002-.041.009-.082.004-.123-.007-.054.055-.118-.021-.163.066-.058.024-.149.031-.226.005-.278.328-.393.476-.596.29-.321.248-.363.093-.741l-.481-1.394c-.027-.115-.145-.227-.077-.346.051.063.068.219.173.194.293-.167.57-.392.617-.768.401.139.812.199 1.173.421l.697.406c.14.095.257.223.395.32.124.082.19.207.258.332.146.233.201.5.169.77z" class="L"/><path d="M20.079 1.486l.052.018-.057.106c.078.05.085-.01.125-.067.136.178-.307.202-.119-.058z" class="O"/><path d="M19.72 1.362l-.004.031h-.216v-.029c.075.007.146-.027.22-.002z" class="M"/><path d="M16.477.849l-.008.028-.2-.062.009-.034.2.068z" class="L"/><path d="M16.273 1.867c-.182-.201-.169-.488-.137-.736.009-.117.095-.237.227-.216.248.042.387.307.382.55.02.242-.216.618-.473.401z" fill="#58906b"/><path d="M16.856 1.748c-.016.018-.034.036-.044.058-.092.174-.327.341-.518.241-.194-.111-.275-.296-.291-.509.008-.213-.07-.488.12-.641-.034.093-.097.186-.104.286.02.219.052.436.131.642.044.139.214.22.348.165.244-.1.325-.382.32-.622-.032-.167-.146-.294-.228-.444.272.176.561.498.266.825z" class="O"/><path d="M17.949 1.581c-.383.012-.764.042-1.089.286.314-.256.167-.502.057-.816.28.129.599.285.917.252.136-.021.076.187.115.278zm1.853-.078v.138l-.634-.04c-.064-.003-.071-.05-.073-.097-.002-.068.042-.039.078-.037.21.014.421.002.63.035z" class="N"/><path d="M18.087 1.107l-.097.053c-.002-.088-.002-.104.093-.083l.004.03zm1.553.179c-.055.03-.101.008-.145-.028-.004-.003.01-.031.016-.048l.128.054.001.021z" class="P"/><path d="M21.759 4.741c-.175.053-.349.131-.535.101-.059-.005-.097-.043-.093-.103.014-.127.171-.09.261-.094h0c.07.015.496-.057.367.096zm.118-.204c-.113.046-.214.085-.314-.003-.011-.01-.037-.004-.056-.005-.559.06-.435-.263-.047-.164.142.054.305.062.418.172z" class="Q"/><path d="M23.938 13.372c-.118.269-.075.55-.025.829l.024.416c0 .031-.046.063-.075.101-.062-.123.037-.249-.071-.36l-.099.298c.015-.155.035-.306-.03-.453-.005.289-.129.538-.228.795.059-.321.11-.64.091-.998-.11.069-.051.258-.082.378a3.63 3.63 0 0 1-.133.656c-.02.063-.077.074-.155.084.102-.362.184-.71.173-1.085.006-.25-.186-.27-.237-.027l-.142-.104c.036-.107.078-.215.167-.309.119-.126.222-.268.327-.408.036-.047.072-.048.118-.031.079.051.437.101.377.217zM19.624 1.75c-.008.113-.097.156-.16.211-.229.183-.227.442-.238.718l-.541-.088c-.042-.017-.048-.09-.035-.127.072-.244-.213-.408-.371-.54-.216-.154-.253-.439-.306-.681l.132-.072c-.069.24.145.361.195.552.074-.031.053-.075.032-.111-.075-.132-.087-.363.103-.405-.04.266-.031.466.169.671l.039-.02c-.02-.079-.028-.163-.062-.236-.083-.179-.044-.348.026-.516.043-.101.13-.09.224-.079a.57.57 0 0 0-.047.567c.037.063.117.296.209.189.005-.01-.005-.033-.015-.042a.5.5 0 0 1-.147-.554c.05-.128.231-.181.339-.102.023.016.055.019.095.032-.21.125-.24.093-.268.345-.048.1.021.257.171.256s.303.02.457.031zm2.917 1.499l.027.013c-.086.24.151.321.173.159.007-.165.08-.293.166-.435-.192.077.082-.273.106-.346l-.169.063-.039-.146c-.602.224-.153-.583-.464-.905-.133-.163-.422-.082-.61-.086l-.851.013c-.026.299-.041.608-.003.906a3.98 3.98 0 0 1-.047.436c-.022.144-.006.173.14.167.249-.029.196.266.207.429l-.047.805c.135-.06.262-.044.394-.001.111.025.235.019.323.108s.121.12.014.232c.009.236-.423.214-.587.279-.047.379-.294 1.004.223 1.162.06.019.125.065.156.117.102.226.031.496.056.737.005.097.01.201.115.263.076.045.217.009.226-.079a2.26 2.26 0 0 0 .007-.465c-.021-.172-.021-.323.132-.436.151-.123.348-.225.456-.389.39-.726.303-1.561.214-2.352-.179.251-.516-.045-.318-.252zm.154-.342c-.03-.033-.062-.064-.079-.106.102-.055.145.024.079.106zm-.543 1.948c-.081.297-.204.673-.515.785.034-.154.276-.213.342-.513.102-.298.202-.623.069-.931-.033-.069-.048-.149-.063-.225-.048-.163-.185-.273-.266-.419l.019-.021c.357.313.586.858.414 1.323zm.069-2.259c-.245.23-.598.094-.89.059-.128-.027-.199-.137-.25-.253-.023-.059-.07-.12-.067-.186.049-.313.286-.405.587-.383.164-.023.33.05.493.121.265.116.332.429.126.642z" class="M"/><path d="M4.121 3.123c-.137-.018-.166-.011-.402.092-.042-.095.059-.104.107-.159-.05-.075-.177-.039-.165-.151.007-.065.053-.09.108-.053.109.067.152.2.299.134.017-.005.037-.001.065-.001l-.011.137zm3.462-.76l-.11.255c-.02-.109.045-.251.11-.255zm-3.03.534l.015.018-.081.149h-.065c-.03-.113.052-.124.131-.167zm-.112.293v.224c-.013-.073-.018-.147-.024-.221l.024-.002zm-.198-.436l.042.004c.002.075.043.157-.032.209-.091-.06-.035-.133-.01-.213zM2.754 7.212c.404.56.582 1.172.623 1.862.007.193-.06.39-.031.584.071.276-.343.131-.467.07-.09-.073-.013-.217-.03-.317.006-.504-.027-1.006-.132-1.5-.038-.163-.105-.321-.145-.484.032-.083.119-.137.182-.216zm-.249 2.05l-.052-.899c-.014-.205-.041-.408-.13-.598-.087-.169-.117-.374-.1-.557.224.247.306.099.345.365.253.666.221 1.357.217 2.061l-.23-.188c-.073-.05-.046-.121-.05-.184zm-.221-2.608c.002-.01.049-.024.057-.017.138.147.338.252.312.487.01.069-.02.128-.105.163-.187.077-.316-.256-.429-.367-.02-.092.157-.137.165-.266zm.507-2.588c.034.164-.001.209-.15.207-.191.007-.373-.001-.513-.15.225.004.446.032.663-.057zm-.731-.082c.109-.1.555-.098.687-.001-.099.105-.575.107-.687.001zM2.639.191l.211.134C2.751.336 2.693.301 2.627.21l.012-.019zm.154.281C2.744.514 2.65.487 2.6.415l.193.057zm-.02.192L2.289.549c.22-.049.383-.017.484.115zM2.245.319c.104-.047.204-.02.303.022l-.006.03-.298-.022.002-.03zm.173.115V.45l-.404.02-.001-.036h.405zM1.662.275c.167-.021.343-.057.509-.014l.001.032C1.899.241 1.66.375 1.4.44c.052-.138.164-.147.262-.165zm-.029.298L1.321.77c.001-.121.114-.19.312-.197zM1.296.571l-.199.223c-.03-.075.076-.202.199-.223zm-.104.272l-.143.941c-.084-.411 0-.762.143-.941zM1.165 2.33l-.032.001-.03-.679.039-.002c-.003.227.077.45.023.679zm-.071.07H1.07l-.019-.425c.025.141.034.283.043.425zm-.117-.559l.007.445-.007-.445zm-.476.597l-.021-.187.027-.004.032.185-.038.006zm.079-.395c-.079-.289-.05-.746.052-.886-.081.289-.032.58-.052.886zm.107.301H.663v-.384h.024v.384zm.185-.468c-.01 0-.019 0-.029 0a1.18 1.18 0 0 1 .029-.484v.485zM.79 1.473C.763 1.358.83.994.925.896l-.135.576zm.156.928l-.03.004-.042-.345.025-.003.047.344zm.709 3.232L1.321 5.3C.644 4.578.733 3.441.94 2.552c.191-.028.32.1.333-.202l-.058-1.169c-.014-.274.177-.434.427-.507.424-.127.855-.032 1.258.112.029.012.058.051.065.083.066.296.148.593.112.9L3 2.488a1.54 1.54 0 0 0 .058.509c.023.097-.054.112-.1.146-.04.029-.077-.004-.107-.041-.104-.117-.218-.153-.174.055-.186.058-.158-.082-.108-.209-.101.019-.139.064-.112.161.034.118.049.138.238.121l.083.646c-.279-.044-.55-.096-.807.047a.16.16 0 0 0 .002.259c.248.155.507.212.796.151.271 1.577-.542 1.112-.576 1.698.021.215-.005.432-.047.644-.015.077-.077.097-.155.074-.109-.025-.248-.078-.234-.208.008-.087-.015-.177-.012-.265.006-.218.093-.469-.09-.641zm-.074 1.049c.012-.006.054.018.06.035.139.403.385-.077.499.675-.092.124-.268.227-.369.038-.054-.08-.128-.145-.192-.217-.132-.136-.171-.416.001-.531zM.317 10.436c.019-.166.031-.336.075-.496.094-.404.112-.817.196-1.222.038-.229.11-.449.122-.686-.002-.307.209-.559.341-.826.039-.098.119-.154.191-.221.083-.099.14.311.34.442.122.13.258.23.443.256.065.009.104.063.129.13.265.462.223.909.219 1.42-.313-.236-.305-.699-.504-1.01-.079-.102-.192-.193-.309-.248-.194-.077-.519.053-.529.291-.063.216-.1.242-.044.476.105 1.019.237 1.107.99 1.754.067.083.373.16.338.266l-.083 1.075.05.557-1.622-.03c-.078-.025-.391.054-.369-.067.064-.621-.071-1.243.029-1.862zm1.695 4.234l.127.716c.016.221.11.452.033.668-.072-.539-.224-1.061-.342-1.589l-.251-1.825.197.018c-.016.683.121 1.344.236 2.013zm-.465 2.393c.043-.52-.05-1.033-.086-1.552-.05-.597-.242-1.186-.454-1.743-.172-.373-.152-.756-.157-1.149.129-.041.158-.015.167.109l.069.672.408 1.983c.053.319.005.65.112.959.091 1.129.059 2.268-.03 3.397l-.031-2.674zm.037 5.223c.146-.002.16.012.16.164 0 .061.009.122 0 .181-.017.181-.256.176-.306.048-.005-.154-.113-.434.146-.394zm.03-1.671c.018.198.097.393.03.596l-.03-.596zm.083 2.469c-.115.04-.275.059-.339-.07l.339.07zm-.127-.139l.219-.077c-.067.056-.13.13-.219.077zm.188-.86l-.021.004c-.06-.302.012-.622-.011-.93l-.063-1.411c-.02-1.085.119-2.175-.005-3.256l-.247-2.008c-.138-.594-.352-1.179-.36-1.796-.004-.057.012-.091.079-.065.052.008.126-.012.119.067-.006.604.107 1.197.264 1.778l.261 1.432c.087.655.04 1.318.019 1.976l-.036 4.209zm-.683-1.157c-.067-.453-.054-.918-.043-1.376L.95 17.074c.009-.227-.038-.454-.03-.68-.005-.397.115-.803.024-1.195-.091-.323-.169-.652-.341-.944-.24-.503-.339-.554-.329-1.159.008-.157.03-.313.049-.47.007-.056.056-.062.125-.025l.043.714c.106.582.362 1.13.49 1.709.098.686.011 1.385.096 2.073.058.854.081 1.709.025 2.563.026.423-.004.846-.026 1.268zm.115 1.24c-.095-1.333-.002-2.674-.01-4.009l-.098-2.286c-.002-.659-.124-1.296-.377-1.907-.148-.377-.232-.768-.175-1.177-.008-.114-.049-.224.119-.187.035.391.006.79.13 1.169.215.668.442 1.34.468 2.047.077.615.034 1.235.037 1.849.047.497-.005.993.013 1.49l.038 2.308c-.007.226.05.458.009.681l-.155.022zm.796.714l.049.07-.094.096.044-.166zm-.038.372c.021-.018.01-.071.015-.128l.159-.147c.142.075.241.245.063.323-.05.017-.079.045-.057.084.125.125.154-.014.202-.122l.025-.001.041.372-.601.111c-.058-.112-.065-.239-.177-.299-.142-.049-.099.158-.105.239-.012.166-.2-.023-.348.1-.063-.264-.001-.522.02-.793.147.246.353.279.595.186.044.071.124.112.167.074zm.091-3.49l-.01-1.849c.047-.453.137-.901.061-1.356l-.302-1.895c-.121-.469-.254-.933-.306-1.417l-.049-.534c0-.069.108-.112.115-.015l.233 1.721.373 1.776c.095.646-.044 1.302-.06 1.953l-.035 1.613zm.067 2.236l-.04.002.058-1.569.073-3.022.041 2.216c-.037.79-.169 1.582-.132 2.372zm.171.095c-.02-.353.014-.702.068-1.049-.038.348.005.703-.068 1.05zm.181.09l-.102-.024.07-1.885.067-1.074c-.001-.125.035-.249.073-.373l-.108 3.355zm.025-6.728l.025.358a2.42 2.42 0 0 1-.06-.356l.035-.002zm-.063-.654c.003.018-.009.039-.026.058-.132-.536-.171-1.085-.263-1.628l-.022.003.363 2.658c.067.992.153 1.989.01 2.979l-.04-1.044c.015-.677.013-1.357-.07-2.03-.127-1.052-.42-2.084-.46-3.143.116-.006.319-.135.331.048.025.403.161.811.06 1.212-.015.291.087.595.117.887zm-.059-2.448l-.006-.538c.007-.352.025-.699.121-1.041.158.062.27.136.225.318a2.57 2.57 0 0 0-.038.743 3.65 3.65 0 0 0 .007.505c.003.056.001.096-.078.072-.048-.014-.105.004-.156-.005-.029-.005-.075-.034-.076-.053zm1.214 9.794H3.48l.045-4.208c-.067-.649.022-1.315-.086-1.959l.021.775-.027.002-.123-1.405.03-.004.082.564c-.002-.476-.135-.934-.207-1.401l.019.261c-.189-.71-.283-1.437-.416-2.163.098-.002.09.061.097.102l.083.559.021-.003-.077-.631c.112-.02.115-.01.125.085l.072.48.321 1.99c.087.922.1 1.846.119 2.771l.05 1.314c.059.953.049 1.921-.056 2.87zm-.236.781c.094.005.151.001.233-.029-.031.083-.16.108-.233.029zm.202.154c-.119.179-.365-.027-.388-.188.092.142.201.242.388.188zm-.156-.355c-.037.005-.088-.001-.1-.04-.042-.458-.131-.433.295-.405-.015.169.078.512-.195.444zm.013-1.49l.039-1.018c.013.651.031 1.284-.067 1.937-.099-.217.027-.665.028-.919zm-.321-8.746c-.094-.023-.322.006-.37-.079l-.02-.617c.009-.301.065-.575.085-.879l.616.232c.071.014.107.02.113.107.046.379.084.753.01 1.132-.017.194-.299.101-.434.104zm-.119 9.608h-.04l.147-4.277c-.002-.357-.062-.71-.095-1.064l-.01-.564c.003-.201-.039-.395-.014-.595.193.799.167 1.618.154 2.433.047.805.072 1.62-.029 2.423-.079.542-.082 1.097-.114 1.644zm.075-.058l.02-.84c.086-.775.161-1.551.129-2.331l-.047-1.148c-.015-.481.062-.967-.032-1.443l-.395-2.54-.025.003.104.882c-.096-.232-.114-.483-.169-.726-.084-.19-.088-.396-.115-.599-.001-.145-.126-.61-.057-.691.025.015.068.026.071.044l.158 1.029.028-.004c-.073-.322-.099-.652-.147-.979-.005-.036-.02-.08.039-.09.051-.009.067.021.072.064.065.659.224 1.301.33 1.954.112.804.134 1.616.215 2.422.06 1.18.055 2.362-.048 3.537-.005.51.013 1.024-.059 1.529-.052.003-.077-.016-.075-.074zm.832.826c.005.009.032.04.026.05-.05.079-.05.198-.171.227-.01.003-.023.055-.015.062.041.031.117.102.135.014-.024-.105.068-.155.105-.231.001-.003.045.009.062.023.011.01.006.037.015.052.128.232-.102.214-.09.36.099.093.119-.056.154-.128l.02.006.027.243-.546.121c-.168-.002-.25-.271-.349.025-.093-.046-.201-.049-.292.069-.067-.275-.041-.533.09-.792l.217.237c.261.198.467-.15.612-.338zm-.025-.769l-.02.002c-.077-.831-.008-1.67.036-2.503.026.836.076 1.669-.015 2.502zm.038-2.69l-.021.002c-.053-.584-.009-1.17-.015-1.755l-.062-1.547c.112 1.089.171 2.206.099 3.3zm-.254-5.3c.004.273.089.526.122.793l.15 1.624.126 1.134c.064.959.003 1.922-.027 2.882l.018 1.428c.003.07.038.141-.085.176l.002-2.988-.002-1.731c-.111-1.471-.308-2.968-.599-4.4.015.441.158.863.204 1.301-.123-.55-.27-1.096-.309-1.66l.042-.008.057.312.007-.335c.03.025.062.04.068.061l.15.551c.05.284.039.577.078.861zM7.637 2.877l-.03-.002c.064-.209.008-.611.33-.57.081.004.105.07.134.122.145.254.295 1.236-.25.918-.169-.108-.219-.273-.183-.468zm.127.553l.01-.018c.586.324.501-.475.429-.816-.014-.122-.062-.253-.187-.329.27.007.243.397.291.593.05.361-.093.903-.543.57zm-.118-1.285c-.362.151-.654.441-1.024.578-.135.054-.279.083-.423.124-.03-.447-.45-.355-.753-.345-.479-.095-.491-.002-.791.318-.057.044-.192.007-.211-.056-.023-.078-.084-.107-.151-.104-.146-.001-.11.144-.189.202-.095-.041-.214.036-.3-.07-.039-.048-.175-.039-.199.011-.077.14.077.247.027.387-.026.081.052.149.135.126.099-.01.351-.179.371-.022-.001.289.184.524.319.764.062.085.144.157.217.233.081.084.21.128.221.269.003.038-.003.08.01.114.047.104-.193.028-.199.212l-.002.58c.002.119.071.183.186.191.069.004.087.047.092.1l.049.651-.014 1.232-.161 1.165c-.067.189-.146.705-.29.804-.291.191-.612.237-.948.196-.067-.889-.241-1.803-.764-2.547-.21-.244-.136-.652-.48-.81-.061-.031-.117-.074-.102-.16l.054-.401c.069-.202.443-.205.505-.536.05-.259.061-.518-.008-.778-.016-.062-.033-.136.003-.212.105-.169.025-.363.002-.548s-.037-.363-.042-.546c.045-.131.395.061.336-.303-.144-.467.022-.955.019-1.425-.025-.219-.083-.433-.132-.649-.012-.053-.05-.1.039-.12.143-.105-.034-.5-.135-.549-.235-.094-.478-.178-.73-.214C1.749-.014 1.275.136.98.47.827.633.662.796.552.992.378 1.315.4 1.689.418 2.044c-.02.562-.09.463.455.492-.224.786-.199 1.652.105 2.414.156.445.682.6.697.987l-.018.369c-.028.16-.183.259-.262.394-.04.061-.065.124-.133.168-.268.177-.457.468-.589.754C.418 8.343.309 9.105.16 9.854c-.07.397-.144.8-.133 1.204.035.35.088.698.045 1.051-.007.11-.017.222-.04.33-.012.055-.002.083.043.106s.052.062.043.111c-.067.293-.044.597-.008.892.036.166.096.344.217.469l.297.562c.073.155.141.314.145.493l.06.798c-.051.524.026 1.045.02 1.571l.099 4.752c-.094.243.135.127.269.127.107.003.078.164.088.233-.001.053.01.13-.019.154-.267.216-.294.838-.208 1.144.004.012-.006.03-.012.044a.3.3 0 0 0 .085.208c.588.05.383.023.445-.473l.268.376c.202-.039.246.169.539-.01.025-.013.059-.035.063-.057.064-.312.02-.839-.269-1.027-.354-.183-.337-.241-.323-.618.251-.062.49.092.722-.014-.08-.414.055-.818.039-1.236l.067-4.081c.001-.416-.018-.828-.098-1.236l-.101-.95c-.01-.282-.171-.621-.047-.884.099.199.09.41.15.619.088.33.108.667.131 1.006.088.682.109 1.368.051 2.052.038.275.026.549.014.826l.015 1.032c-.024.424-.022.847.033 1.268-.037.483-.006.977-.09 1.455-.039.154.215.072.301.091.061.432.069.439-.16.809-.118.204-.388 1.093.045 1.052.367-.049.467.059.474-.383.183.151.374.321.625.218.135-.048.199-.14.196-.285-.013-.181.008-.378-.056-.549-.101-.156-.17-.406-.387-.423-.023 0-.065-.018-.066-.031l-.018-.335c0-.014.023-.041.037-.041.569-.001.383.029.39-.534-.084-.522-.016-1.042.015-1.565l-.03-1.905c.013-.349-.067-.693-.019-1.042-.006-.566-.114-1.134-.211-1.691-.049-.393-.04-.792-.07-1.187-.03-.303-.102-.602-.146-.903l-.099-.707c-.007-.057.009-.093.08-.082.061.009.09-.031.083-.089a7.03 7.03 0 0 1-.05-1.384c.407-.111.827-.089 1.177-.343l.433-.334c.213-.241.41-.521.51-.831.062-.248.152-.492.227-.735.027-.182.037-.368.053-.552.022-.264.042-.527.002-.79.023-.626-.061-1.244-.147-1.863-.003-.021.009-.062.022-.064.111-.027.088-.118.089-.189.001-.142 0-.286-.018-.428.008-.306-.227-.168-.29-.366-.032-.692.798-.884.543-1.641.262.015.524.123.76.252.37.217 1.106.639 1.279.005.135-.477-.002-1.395-.684-1.159zm-1.8 6.086c.007.303-.032.604-.067.904-.051.483-.185 1.037-.59 1.347-.155.088-.258.278-.454.279-.465.183-.51.154-.988.066-.202-.027-.411-.011-.612-.04-.438-.119-.819-.384-1.208-.607-.183-.098-.253-.309-.387-.459-.219-.32-.277-.713-.417-1.068-.042-.166.009-.331.068-.484.145-.197.51-.124.585.118.19.573.363 1.244.965 1.51.125.106.278.116.433.134.32.098.646.049.972.018.333-.047.614-.286.795-.561.239-.454.338-.981.386-1.488-.002-.304-.037-.609-.061-.912a2.31 2.31 0 0 0-.113-.56c-.06-.244-.063-.471-.104-.731l.7-.002c.082-.004.115.014.115.107.062.49.017.987.014 1.483.032.316-.018.631-.032.946zm.027-3.289c.002.131.002.263-.014.393-.017.139-.033.145-.177.142-.196-.034-.404.032-.595-.003-.164-.082-.407-.596-.082-.607.179.03.81-.097.868.074zm-.187-.188c-.119 0-.226-.002-.332.001-.103-.008-.282.075-.303-.082.045-.421-.302-.224-.593-.78-.143-.252-.276-.517-.255-.814.01-.07.095-.064.153-.092-.008.15-.055.545.086.626.059.001.097-.038.096-.106.005-.192-.052-.453.13-.579.015.264-.056.571.104.804l.032-.007c-.047-.335-.177-1.231.368-1.173-.384.258-.322.856-.093 1.197.103-.076.019-.133-.011-.171-.194-.299-.157-.973.292-.99l.361-.016c.129.047.152.248.306.077l.055.106c-.187.068-.392-.023-.58-.055-.135-.037-.288.097-.336.204-.062.14.001.264.025.394.043.233.241.291.419.368.069.03.17-.019.202-.094.084-.129.076-.382.21-.441.015.163-.034.36.218.396-.192.478-.649.605-.553 1.227zm-.391-1.679l.617-.002c-.082.162-.097.618-.343.492-.158-.064-.289-.157-.331-.336-.015-.057-.015-.142.056-.154zm.979.231c.027.106-.082.216-.154.107-.018-.113-.046-.236.064-.312.058.06.112.114.089.205h0zm1.052.062c-.323-.134-.635-.361-.987-.395-.373.025-.736.107-1.109.012.093-.122.186-.103.315-.09l.376.056c.105.05.193-.025.29-.035.308-.032.559-.212.837-.323.107-.043.199-.12.298-.182l.016.022c-.137.371-.023.72.237 1.002-.114.043-.19-.027-.275-.068z" class="L"/><path d="M6.274 3.305c.027.106-.082.216-.154.107-.018-.113-.046-.236.064-.312.058.06.112.114.089.205h0z" class="P"/><path d="M2.641 4.273c-.191.007-.373-.001-.513-.15.225.004.446.032.663-.057.034.164-.001.209-.15.207zm.106-.29c-.099.105-.575.107-.687.001.109-.1.555-.098.687-.001z" class="Q"/><path d="M4.569 2.915l-.081.149h-.065c-.03-.113.052-.124.131-.167l.015.018z" class="L"/><path d="M4.255 2.967c-.091-.06-.035-.133-.01-.213l.042.004c.002.075.043.157-.032.209z" class="P"/><path d="M4.133 2.986l-.011.137c-.137-.018-.166-.011-.402.092-.042-.095.059-.104.107-.159-.05-.075-.177-.039-.165-.151.007-.065.053-.09.108-.053.109.067.152.2.299.134.017-.005.037-.001.065-.001z" class="N"/><path d="M7.583 2.363l-.11.255c-.02-.109.045-.251.11-.255zm.181 1.067l.01-.018c.586.324.501-.475.429-.816-.014-.122-.062-.253-.187-.329.27.007.243.397.291.593.05.361-.093.903-.543.57z" class="O"/><path d="M8.07 2.427c-.029-.053-.053-.119-.134-.122-.322-.041-.266.361-.33.57l.03.002c-.035.195.014.36.183.468.545.319.395-.663.25-.917zm-.319.535l-.029-.012.06-.151.04.015-.072.148zm.148.136l-.04-.004.033-.323.045.003-.039.324zm.17.202c-.058-.008-.092-.01-.056-.066.067-.226.061-.636-.129-.806l.015-.026c.03.019.075.031.086.058.138.266.117.55.083.84z" fill="#58906b"/><path d="M7.601 3.435c-.114.043-.19-.027-.275-.068-.323-.134-.635-.361-.987-.395-.373.025-.736.107-1.109.012.093-.122.186-.103.315-.09l.376.056c.105.05.193-.025.29-.035.308-.032.559-.212.837-.323.107-.043.199-.12.298-.182l.016.022c-.137.371-.023.72.237 1.002z" class="N"/><path d="M2.394 23.636l-.601.111c-.058-.112-.065-.239-.177-.299-.142-.049-.099.158-.105.239-.012.166-.2-.023-.348.1-.063-.264-.001-.522.02-.793.147.246.353.279.595.186.044.071.124.112.167.074.021-.018.01-.071.015-.128l.159-.147c.142.075.241.245.063.323-.05.017-.079.045-.057.084.125.125.154-.014.202-.122l.025-.001.041.372zm1.738-.089l-.546.121c-.168-.002-.25-.271-.349.025-.093-.046-.201-.049-.292.069-.067-.275-.041-.533.09-.792l.217.237c.261.198.467-.15.612-.338.005.009.032.04.026.05-.05.079-.05.198-.171.227-.01.003-.023.055-.015.062.041.031.117.102.135.014-.024-.105.068-.155.105-.231.001-.003.045.009.062.023.011.01.006.037.015.052.128.232-.102.214-.09.36.099.093.119-.056.154-.128l.02.006.027.243z" fill="#dd5633"/><path d="M6.239 3.526c-.251-.036-.203-.233-.218-.396-.134.059-.127.312-.21.441-.032.075-.134.124-.202.094-.178-.078-.376-.136-.419-.368-.024-.13-.088-.254-.025-.394.048-.107.201-.241.336-.204.188.032.393.123.58.055l-.055-.106c-.154.172-.177-.03-.306-.077l-.361.016c-.448.017-.486.691-.292.99.03.038.114.095.011.171-.229-.341-.291-.94.093-1.197-.545-.058-.415.838-.368 1.173l-.032.007c-.16-.232-.089-.539-.104-.804-.181.125-.125.386-.13.579.001.068-.036.107-.096.106-.141-.081-.095-.476-.086-.626-.058.029-.142.023-.153.092-.021.297.112.562.255.814.291.556.639.359.593.78.021.157.199.074.303.082l.332-.001c-.096-.622.361-.748.553-1.227zm-.068.058c-.103.029-.159-.062-.181-.167l.181.167zM3.076 1.768c.036-.306-.046-.604-.112-.9C2.957.837 2.928.798 2.9.786 2.496.642 2.066.547 1.642.674c-.249.072-.441.233-.427.507-.019.391.02.784.058 1.169-.012.302-.142.174-.333.202-.207.89-.297 2.027.381 2.749l.334.332c.183.173.096.424.09.641-.003.088.02.178.012.265-.015.13.125.183.234.208.077.023.139.003.155-.074.042-.213.068-.429.047-.644.034-.586.847-.122.576-1.698a1.03 1.03 0 0 1-.796-.151.16.16 0 0 1-.002-.259c.258-.143.528-.091.807-.047l-.083-.646c-.189.018-.204-.003-.238-.121-.028-.096.01-.142.112-.161-.05.128-.078.268.108.209-.044-.208.07-.172.174-.055.03.038.067.07.107.041.047-.034.123-.048.1-.146-.039-.167-.075-.335-.058-.509l.077-.719zm-1.045-.626c-.169.018-.335.02-.477.121.147-.127.27-.157.477-.121zM1.675 4.02c.052.259.156.502.359.679-.249-.051-.332-.374-.434-.582-.137-.361.124-.672.469-.755l.01.025c-.256.1-.479.338-.404.634zm1.044-2.283c-.047.054-.075.136-.132.168-.241.123-.53.097-.793.101-.134-.003-.209-.101-.266-.212-.158-.209-.088-.199-.045-.411h.024l-.013.135c.166-.115.284-.256.487-.274.264-.052.43.139.648.216-.113-.23-.322-.293-.554-.316l.006-.028a.74.74 0 0 1 .658.416c.05.087.039.139-.02.206z" class="M"/><path d="M16.717 6.807c-.025.017-.054.027-.07.035l-.011-.345c-.003-.126.077-.339.014-.443-.099-.058-.062-.182-.139-.257-.115-.094-.094-.261-.167-.378-.064-.098-.144-.186-.221-.275-.432-.43-1.281-.112-1.63.288-.166.273-.102.641.068.898.015.144-.13.186.012.397.227.431.552.331.651.891-.089-.009-.249-.131-.267-.018-.066.372-.05.77-.216 1.116-.162.265-.257.57-.453.813l-.033-.004c-.152-.806-.269-1.642-.661-2.373-.254-.314-.539-.623-.94-.737-.232-.08-.447-.207-.677-.291-.057-.02-.067-.04-.066-.089.002-.205-.024-.431.072-.617.61-.667.779-1.5.98-2.353.027.227.252.196.303.026.191-.493.176-1.026.134-1.544a1.36 1.36 0 0 0-.492-1.01c-.239-.181-.535-.259-.834-.238-.15.003-.293.102-.451.038-.49.071-1.057.106-1.418.491-.235.255-.112.642-.156.955-.02.24.025.471.062.704.043.185.059.546.338.434l.047.707.107.53c.053.364.296.773.568 1.019.209.21.104.625.13.903-.203.022-.391.112-.468.312-.007.018-.033.035-.052.038-.395.053-.799.132-1.156.318a1.12 1.12 0 0 1-.239.151c-.376.221-.78.395-1.105.694-.697.479-.34 1.431-.221 2.112.067.463.31.876.365 1.343.12.561.046.51.579.323.069.228.213.436.243.671-.057.646-.316 1.248-.39 1.89-.073.419.005.849-.021 1.273-.033.265.015.534.017.8-.017.319.048.638.087.951l.409-.037c.021-.001.061.021.063.035.032.199.01.396-.012.594.017.54-.057 1.075-.065 1.616l.095 1.973c.002.036.002.089-.02.107-.269.243-.154.623-.159.938.152.472-.118 1.553.5 1.679.381.053.779.159 1.158.05a7.92 7.92 0 0 0 .642-.185c.093-.046.085-.175.064-.266-.072-.296-.419-.36-.671-.405-.234-.075-.701.069-.733-.278.019-.266.006-.531.061-.795.124-.518-.207-.598-.11-1.118l.118-1.249c.082-.395.061-.798.079-1.2-.044-.457.062-.908.118-1.359-.02-.151.87.052 1.01.04.143.014.047-.128.148-.161.095.012.34-.053.377.054.033.249.029.503.034.754l.021 3.05c.008.18.046.359.07.538.003.021.01.045.002.062-.044.099-.07.2-.081.311-.023.231-.083.457-.047.694a2.87 2.87 0 0 0 .247 1.105c.095.219.262.319.482.359.277.028.533.152.811.127.64.036 1.726-.371.61-.832-.159-.033-.325-.03-.489-.039-.651 0-.508-.675-.55-1.123.015-.193-.01-.401-.204-.496-.023-.012-.05-.042-.051-.065-.062-.699.016-1.401-.072-2.099-.044-.414-.009-.836-.005-1.253 0-.336.011-.67.081-1.001.014-.064.032-.087.097-.084l.642.017c.102.002.111-.015.108-.113-.012-.854.064-1.707.164-2.554.035-.383.157-.754.114-1.142-.064-.483-.065-.976-.035-1.461-.015-.251-.111-.5-.124-.749.001-.168-.077-.308-.106-.466.105.1.125.249.209.363a1.87 1.87 0 0 0 .219.267c.178.153.431-.001.506-.195a1.59 1.59 0 0 1 .377-.528c.216-.194.408-.419.499-.702s.204-.563.261-.859c.075-.273.151-.545.289-.796.118-.164-.022-.258-.176-.298.196-.381.538-.473.9-.636.216-.065.131-.515-.098-.341zm-2.268-1.159c.055-.321.443-.428.69-.577.612-.206 1.069.011 1.258.637-.366.03-.093.534-.334.763-.127.147-.259.329-.46.369-.077.009-.171-.032-.246-.06-.176-.025-.276-.139-.348-.289l.238.072c-.068-.136-.301-.067-.455-.393-.127-.253-.112-.268-.063-.538-.163.152-.022.529.078.689l-.215-.021c-.127-.176-.177-.409-.141-.651zm.198.854c.173-.02.201.121.127.248-.109.031-.145-.162-.127-.248zm-2.721-.269c.294.051.707.256.507.611l-.168.338c-.043.062-.078.258-.181.172-.613-.626-.268-.295-.187-.755l.029-.367zm-.555.397l.37.074c-.097.184-.276.152-.37-.074zm.422-.218c-.004.039-.044.092-.08.108-.319.128-.333-.103-.298-.351-.012-.291.018-.554-.072-.841.201.114.396.081.603.05-.193.314-.095.687-.153 1.035zm1.221-3.669c-.003-.137.012-.273.027-.421.067.154-.032.272-.027.421zm.329-.78c.069.162.008.313-.003.469l-.028-.002.031-.467zm-.033.784l.032.008-.13.372-.03-.01.128-.37zM13.034.734l.142.206-.022.014-.141-.207.02-.014zM12.641.46l-.397-.085c.143-.022.278-.002.397.085zM11.7.384c-.02.097-.078.075-.127.077l-.39.018-.002-.02.52-.075zm-.07.172c-.015.012-.03.036-.045.036-.226-.028-.457.024-.681.057L10.9.616c.144-.014.653-.18.73-.061zm-.616.274l-.01-.033.501-.133.012.043-.503.123zm.154.09L10.927 1c.072-.093.148-.114.234-.107l.008.026zm-.916.983l-.022-.003c-.015-.197-.017-.391.107-.569l-.085.573zm-.106-.319c-.05-.174.069-.565.203-.646-.146.192-.163.422-.203.646zm.025-.568c.066-.201.226-.302.413-.374-.148.115-.308.215-.413.374zm.209 1.147c-.034-.199-.033-.397.073-.583l-.073.583zm-.017-.978c.048-.135.112-.254.26-.319l-.073-.009c-.025-.051.185-.149.326-.141l-.209.102.009.018.34-.117c-.205.177-.485.24-.654.467zm.345.087l-.154.14c.012-.104.072-.133.137-.158l.017.018zm.066 2.834c-.201-.508-.225-1.067-.234-1.608-.02-.594-.124-1.203.574-1.437.544-.173 1.228-.16 1.681.227.19.23.173.548.226.824-.124.867-.164 1.766-.612 2.542-.156.269-.3.64-.659.652-.162.013-.331-.027-.44-.143-.258-.299-.388-.694-.535-1.057zm.438 2.1c-.093.308.043.533.27.75l-.376.416c-.122-.18-.158-.405-.162-.614.015-.146.049-.592.269-.552zm-2.165 5.122c.104.006.188-.012.281.061.131.104.288.175.438.253.158.082.299.178.362.365-.93-.192-.735.252-1.081-.679zm.619-.142c-.144-.382-.289-.763-.368-1.166l-.279-1.508c-.084-.569.682-.639 1.054-.859.079-.011.345-.168.335-.008l-.048.505-.118 1.059c-.089.492-.223.975-.348 1.46-.077.261-.147.528-.272.772-.059.083-.201-.079-.271-.107l.006-.023c.079-.03.371.016.309-.125zm.896.98l-.025.343-.983-.104c-.101-.015-.241.043-.252-.1-.017-.129-.033-.314.153-.297.204-.002.406-.001.606.061.163.055.336.038.501.098zm.45 11.138c.177.036.422-.04.425.215-.176.288-.577.176-.863.215l-.815.014c-.423-.039-.328-.803-.385-1.126l.068.019c.01-.064.036-.126.007-.189l-.065.018c-.046-.23.158-.354.006-.355V22c.024.008.047.009.055.02.1.184.368.02.412.198.005.022.073.03.129.03-.069-.154-.16-.118.099-.193-.06.288-.144.416-.062.718.015.081.053.158-.018.238-.046.052-.071.045-.107.001a.2.2 0 0 0-.09-.088c-.074.097.058.199.154.174q-.042.21.051.371c.131-.114-.107-.185.08-.467.18.266.64.265.922.3zM9.564 21.83c.174.118.341.027.515-.02-.039.152-.232.253-.364.176-.058-.041-.101-.103-.151-.155zm.544-2.4l-.079 1.321c0 .271.007.544-.035.813-.023.127-.171.28-.301.179-.344-.195-.242-2.689-.158-3.129.164-.528.129-1.081.141-1.627.001-.046.027-.054.072-.045l.412.07-.052 2.419zm1.194-5.644c-.062.415-.047.831-.02 1.249l.025 1.768c-.405.021-.774-.057-1.173-.047-.313.016-.624.048-.937-.002-.097-.008-.103-.083-.11-.151-.065-.656-.022-1.315-.017-1.976.011-.443.038-.888.101-1.327.056-.234.165-.453.245-.682.146.017.294.047.442.047.218-.008.435-.067.656-.062.096-.003.12-.026.127-.122l.027-.34c-.073-.181-.37-.027-.47-.179-.225-.451-.488-.18-.276-.716.418-.921.471-1.95.53-2.946.007-.231.085-.465.035-.695-.122-.265-.831.224-1.059.267-.186.084-.388.183-.508.353-.002.538.115 1.069.164 1.603.05.408.243.78.309 1.184-.034.136-.515.073-.692.214-.226-.635-.419-1.258-.493-1.924-.052-.256-.231-1.151-.018-1.312.179-.2.386-.367.61-.514.594-.429 1.243-.827 1.979-.926.044.127.167 1.124.348.954l.447-.436-.022 1.426c-.01.469.07.936.03 1.404.02.524.11 1.061.029 1.584-.091.4-.029.808-.115 1.207l-.195 1.098zm.831 6.542l.159-1.43a12 12 0 0 0 .065-1.053c-.031-.281-.039-.564-.028-.848.029-.073.137-.038.197-.025.071.069-.007.266.004.367l-.005 1.15.131 1.989c.054.408.088.816.036 1.226-.008.09-.145.137-.226.092-.089-.05-.134-.135-.173-.223-.081-.184-.085-.382-.102-.578l-.059-.664zm.801 1.874c.055.197-.007.207-.138.331-.04.092.091.198.125.283l-.026.006c-.113.092.009.125.081.187-.083.078-.159.003-.234.004-.065-.02-.088-.045-.16-.008.026.049.05.078.11.089-.091.167-.192.329-.148.533.14-.012.143-.16.239-.201.031.156.075.197.215.184l-.137-.151.242.105c-.002-.111-.098-.113-.137-.164-.049-.063-.102-.102-.16-.093l-.159.156-.034-.024.14-.303c.081.044.152.046.226-.046.068.173.043.373.259.191-.057-.015-.102-.014-.131-.052l-.094-.503-.027.001-.022.11c0-.197-.101-.146.043-.254.067.259.105.57.431.61.139.011.276.064.413.104.182.064.386.095.549.201.246.241-.518.25-.642.269l.052-.161c-.12.077-.164-.002-.26-.01.004.083.084.101.146.166-.206.043-.403.006-.61.003-.149-.01-.305-.012-.445-.057-.088-.027-.157-.122-.229-.193-.084-.083-.08-.196-.089-.303l.002.003c-.078-.352-.077-.71-.055-1.069.272.183.523.193.665.056zm-.082-.492c.096.297-.264.421-.456.255-.064-.067-.184-.149-.167-.251.295.256.343.324.623-.004zm2.467-11.938c-.232.423-.537.808-.815 1.202-.058.055-.176.153-.244.054l-.282-.323c-.262-.342-.404-.771-.505-1.185-.043-.232-.098-.457-.183-.676-.085-.163-.1-.47-.24-.574-.007.032-.026.067-.019.095.072.352.244.671.309 1.022l.266 1.655c.06.438.164.882.128 1.326l.058 1.198c-.012.222-.065.443-.087.664l-.105 2.54c-.533.02-1.064-.059-1.594.02-.118.032-.258-.006-.386-.027-.019-.003-.032-.087-.036-.135-.008-.532-.123-1.062-.085-1.593-.014-.553.105-1.097.154-1.647.073-.368.057-.738.048-1.11l.078-1.133c-.029-.183-.038-.354-.013-.541l.083.004-.077-.07c-.054-.634-.152-1.301-.128-1.945.001-.048.023-.097.018-.144-.018-.143.063-.274.028-.425-.032-.137-.002-.286-.01-.43-.01-.195-.056-.351-.045-.554l.194.184c.083.067.273.412.386.284.136-.24.279-.48.358-.746.048-.121.011-.204-.03-.319.242.104.447.254.616.455.213.209.341.475.512.711.016.022.012.057.023.084.146.329.208.688.339 1.022.101.303.101.616.189.921.29-.032.383-.303.505-.518.16-.293.372-.567.409-.909.033-.088-.031-.284.076-.318.189.01.376.029.548.114-.015.621-.233 1.192-.442 1.769zm1.364-2.745c.012.122-.082.125-.151.144a3.95 3.95 0 0 0-.321.114c-.186.075-.38.276-.416.466-.115-.043-.439-.067-.49-.156-.059-.323-.28-.546-.516-.757.159-.19.072-.226-.04-.406.197.04.274.292.41.423.223.33.622.031.869-.135.089-.064.153-.16.173-.281.029-.143.106-.269.103-.42.045.043.105.074.134.12-.013.096.05.185.001.29-.039.241-.212.364-.387.515-.065.062-.171.08-.207.169l.018.022c.625-.269.575-.399.707-1.028.051.041.025.108.02.163-.023.239-.057.495-.214.686-.059.095-.246.171-.211.296.108-.005.245-.214.331-.278.008.028.018.049.027.07.117-.038.188-.161.312-.183.042.113-.136.082-.152.168z" class="L"/><g fill="#fff"><path d="M10.562 12.165l-.025.343-.983-.104c-.101-.015-.241.043-.252-.1-.017-.129-.033-.314.153-.297.204-.002.406-.001.606.061.163.055.336.038.501.098zm1.87-5.321l-.168.338c-.043.062-.078.258-.181.172-.613-.626-.268-.295-.187-.755l.029-.367c.294.051.707.256.507.611z"/><path d="M11.482 6.955l-.376.416c-.122-.18-.158-.405-.162-.614.015-.146.049-.592.269-.552-.093.308.043.533.27.75z"/><path d="M11.612 11.481c-.091.4-.029.808-.115 1.207l-.195 1.098c-.062.415-.047.831-.02 1.249l.025 1.768c-.405.021-.774-.057-1.173-.047-.313.016-.624.048-.937-.002-.097-.008-.103-.083-.11-.151-.065-.656-.022-1.315-.017-1.976.011-.443.038-.888.101-1.327.056-.234.165-.453.245-.682.146.017.294.047.442.047.218-.008.435-.067.656-.062.096-.003.12-.026.127-.122l.027-.34c-.073-.181-.37-.027-.47-.179-.225-.451-.488-.18-.276-.716.418-.921.471-1.95.53-2.946.007-.231.085-.465.035-.695-.122-.265-.831.224-1.059.267-.186.084-.388.183-.508.353-.002.538.115 1.069.164 1.603.05.408.243.78.309 1.184-.034.136-.515.073-.692.214-.226-.635-.419-1.258-.493-1.924-.052-.256-.231-1.151-.018-1.312.179-.2.386-.367.61-.514.594-.429 1.243-.827 1.979-.926.044.127.167 1.124.348.954l.447-.436-.022 1.426c-.01.469.07.936.03 1.404.02.524.11 1.061.029 1.584z"/><path d="M15.76 8.004c-.015.621-.233 1.192-.442 1.769-.232.423-.537.808-.815 1.202-.058.055-.176.153-.244.054l-.282-.323c-.262-.342-.404-.771-.505-1.185-.043-.232-.098-.457-.183-.676-.085-.163-.1-.47-.24-.574-.007.032-.026.067-.019.095.072.352.244.671.309 1.023l.266 1.655c.06.438.164.882.128 1.326l.058 1.198c-.012.222-.065.443-.087.664l-.105 2.54c-.533.02-1.064-.059-1.594.02-.118.032-.258-.006-.386-.027-.019-.003-.032-.087-.036-.135-.008-.532-.123-1.062-.085-1.593-.014-.553.105-1.097.154-1.647.073-.368.057-.738.048-1.11l.078-1.133c-.029-.183-.038-.354-.013-.541l.083.004-.077-.07c-.054-.634-.152-1.301-.128-1.945.001-.048.023-.097.018-.144-.018-.143.063-.274.028-.425-.032-.137-.002-.286-.01-.43-.01-.195-.056-.351-.045-.554l.194.184c.083.067.273.412.386.284.136-.24.279-.48.358-.746.048-.121.011-.204-.03-.319.242.104.447.254.616.455.213.209.341.475.512.711.016.022.012.057.023.084.146.329.208.688.339 1.022.101.303.101.616.189.921.29-.032.383-.303.505-.518.16-.293.372-.567.409-.909.033-.088-.031-.284.076-.318.189.01.376.029.548.114z"/></g><path d="M14.774 6.75c-.109.031-.145-.162-.127-.248.173-.02.201.121.127.248z" fill="#d1d3d4"/><path d="M15.139 5.071c-.248.149-.635.256-.69.577-.036.242.015.474.141.651l.215.021c-.1-.159-.241-.537-.078-.689-.049.27-.064.285.063.538.154.326.388.258.455.393l-.238-.072c.073.149.173.264.348.289.076.027.169.069.246.06.201-.04.333-.221.46-.369.241-.229-.032-.732.334-.763-.188-.626-.646-.843-1.258-.637zm-.41.553c-.006-.176.154-.248.285-.326l-.285.326z" fill="#dd5633"/><path d="M10.107 19.431l-.079 1.321c0 .271.007.544-.035.813-.023.127-.171.28-.301.179-.344-.195-.242-2.689-.158-3.129.164-.528.129-1.081.141-1.627.001-.046.027-.054.072-.045l.412.07-.052 2.419zm2.586 2.272c-.008.09-.145.137-.226.092-.089-.05-.134-.135-.173-.223-.081-.184-.085-.382-.102-.578l-.059-.664.159-1.43a12 12 0 0 0 .065-1.053 5.71 5.71 0 0 1-.028-.848c.029-.073.137-.038.197-.025.071.069-.007.266.004.367l-.005 1.15.131 1.989c.054.408.088.816.036 1.226z" class="N"/><g class="M"><path d="M11.946 5.377c-.193.314-.095.687-.153 1.035-.004.039-.044.092-.08.108-.319.128-.333-.103-.298-.351-.012-.291.018-.554-.072-.841.201.114.396.081.603.05zm-1.818 6.628c-.93-.192-.735.252-1.081-.679.104.006.188-.012.281.061.131.104.288.175.438.253.158.082.299.178.362.365zm6.706-5.146c-.124.022-.195.145-.312.183l-.027-.063c-.087.057-.223.266-.331.271-.035-.125.152-.201.211-.296.158-.191.192-.447.214-.686.005-.054.031-.122-.02-.163-.132.629-.082.758-.707 1.028l-.018-.022c.037-.089.143-.106.207-.169.175-.151.348-.275.387-.515.049-.105-.014-.194-.001-.29-.03-.046-.089-.077-.134-.12.003.152-.074.278-.103.42-.02.122-.084.217-.173.281-.246.166-.646.466-.869.135-.135-.13-.213-.383-.41-.423.112.179.199.216.04.406.236.212.457.435.516.757.051.089.375.113.49.156.036-.19.23-.391.416-.466l.321-.114c.069-.02.164-.023.151-.144.016-.086.194-.055.152-.168zm-1.589.176a.58.58 0 0 0 .393.109c.02-.002.044.023.078.042-.142.111-.492.034-.471-.152z"/><path d="M12.794 1.287c-.453-.387-1.136-.4-1.681-.227-.698.233-.594.843-.574 1.437.01.541.034 1.1.234 1.608.148.363.277.758.535 1.057.109.116.278.155.44.143.359-.013.503-.383.659-.652.447-.776.488-1.674.612-2.542-.053-.276-.035-.594-.226-.824zm-2.101.403c.272-.028.547-.054.778.141.241.179.063.774.08 1.063.033.275-.04.55-.067.823-.033.145.166.155.194.033a.73.73 0 0 0 .017-.259c-.079-.427.035-.851.104-1.272.049-.233.228-.455.48-.47.146.005.517.007.525.184-.067.132-.36-.137-.538-.08-.171.012-.344.09-.383.268-.064.214-.115.434-.125.658-.001.189-.023.378.009.564.075.13.203.176.097.359-.043.049-.123.033-.142.114-.01.042-.181.107-.216.084s-.076-.057-.084-.093c-.027-.117-.19-.052-.174-.264.002-.078.013-.152.088-.197.16-.02.137-.149.147-.253.014-.369.12-.756.026-1.118-.146-.318-.551-.089-.814-.149-.025-.003-.068-.044-.065-.054.012-.032.039-.081.064-.083zm.022.624c-.196-.221-.181-.35.13-.365.21.007.364.098.497.223a.16.16 0 0 1 .006.154c-.162.264-.461.228-.632-.012zm.326 2.009c.016-.053.105-.239.167-.235-.164.439-.106.566.222.907-.288-.035-.451-.413-.39-.672zm.584.49c-.23.015-.557-.299-.296-.51.064-.045.131-.106.22-.046.045.03.088.045.147.014.095-.037.249.073.292.167.017.043.04.085-.011.13-.098.14-.166.253-.353.246zm.554-.22c.008.152-.077.261-.185.386.024-.155.149-.249.137-.395-.011-.133-.002-.267-.002-.383.079.107.043.253.05.392zm.251-2.015c-.223.018-.348-.114-.444-.286-.009-.016.001-.055.016-.072.43-.508 1.297.301.428.358z"/></g><g class="L"><path d="M18.994 5.307l.122.589c.008.07.076.145.011.202-.13-.141-.122-.589-.154-.791l.021-.001zm1.286 2.557c-.154-.103-.221-.286-.342-.434.032-.058.056.015.08.033a.96.96 0 0 1 .279.38l-.017.021zm-.098-.767l.462.109c-.08.059-.304.045-.395-.026-.029-.023-.097-.034-.068-.083zm.142 2.402l.043.397c.003.036.017.092-.056.07-.007-.161-.085-.328-.01-.48l.023.014zm-.011 1.363c.017.122-.097.191-.132.296h-.107l.211-.313.028.017zm-1.487-5.919c.002-.082-.142-.435.021-.395v.391l-.021.004z"/><path d="M18.703 5.729c.015.017.041.034.042.052a.74.74 0 0 0 .099.328c.007.013-.003.035-.005.053-.08-.011-.125-.327-.168-.413l.032-.02zm1.852 5.799c-.105-.106-.079-.202.009-.293.069.051-.009.208-.009.293zm.108-3.651c.088-.01.245.053.262.101-.13.021-.196-.003-.262-.101zm-.441 4.068l.245.12c-.073.065-.196.01-.245-.12zm-.183-3.773c-.107.036-.188-.011-.239-.156l.239.156zm-1.252-2.777c-.042-.057-.081-.307.023-.279.038.031-.002.231-.023.279z"/><path d="M19.235 6.342l.188.157c-.045.012-.219-.058-.224-.095-.002-.019.023-.042.036-.062zm.105.331c.011.106.147.116.114.232-.085-.029-.109-.113-.157-.174-.003-.003.019-.025.044-.058zm.821 1.651l.176.13c-.117.031-.207-.015-.2-.128l.024-.001zm-.14 4.256c0-.103-.065-.21.024-.307.032.104-.033.204-.024.307zm-.171-1.723l.136.128a.1.1 0 0 1-.143-.017c-.017-.019.003-.07.007-.111zm.067-.41c-.063-.072-.032-.144.08-.179l-.08.179zm-.913-6.643c.065.078.014.145.016.21-.098.062-.027-.155-.016-.21z"/><path d="M20.755 8.67l.03.15-.018.017c-.1-.025-.055-.095-.05-.169l.038.003zm-1.414-1.349l.091.198c-.11-.009-.123-.081-.091-.198zm1.972.589c-.009.056-.018.222-.099.123.019-.047.043-.092.065-.138l.034.015zm-.236.628c-.04-.125.024-.155.104-.176l-.104.176zm-.301-.211l.163-.051.01.029c-.042.049-.095.071-.163.057l-.01-.034zm-.235 2.113l.072.099c-.02.053-.07.027-.093-.007-.01-.022-.002-.053-.002-.079l.023-.013zm-.986 1.563l.039.122-.017.019c-.084-.029-.074-.066-.059-.14l.037-.001zm1.167-4.405l.038.115c-.092.043-.098-.072-.062-.13l.024.014zm-.553 1.306l-.063.149c-.059-.059-.04-.111.063-.149zm-.306 2.811c-.066-.069-.061-.092-.027-.164l.027.008v.156zm.956-4.594l.034.119-.042.013-.037-.118.045-.015z"/><path d="M20.518 8.109l.128.056-.102.057-.027-.112zm-1.501-1.496l-.043-.158.035-.01.043.159-.035.01zm3.924 1.111c.078-.069.295.005.503.14l-.026.058-.476-.199zm1.427 1.509c.112.063.268.098.328.219-.121.012-.285-.091-.352-.189l.025-.03zm-2.016 2.597c.186-.036.178.182.297.186.003 0 .02.052.011.061-.018.019-.066.04-.072.034l-.236-.28zm1.482-3.587c-.08.105-.223.034-.335.038-.154-.128.263-.05.316-.057l.019.019zm-1.267 3.219l-.007-.051c.035-.043.214-.012.162.065-.051.034-.102.07-.157.096-.027.01-.105-.009-.092-.054.025-.018.053-.032.093-.055z"/><path d="M22.717 8.162a.54.54 0 0 1-.364.102c.027-.035.04-.067.062-.075.098-.028.198-.079.301-.057l.001.031zm1.505 3.566c-.001.022.006.054-.005.063s-.062.02-.067.012c-.046-.04-.085-.319.025-.219l.058.139zm.003-2.818c-.119.001-.265-.112-.262-.203l.242.127c.015.009.013.046.02.076zm.816 1.129c.014.123-.055.196-.171.188.014-.113.081-.189.171-.188zm-3.004 1.426c.056-.066.091-.133.178-.149.027.098-.103.283-.178.149zm.64-.668c.075.047.174.068.197.163-.091.04-.147-.05-.216-.094-.042-.032-.01-.049.019-.069zm1.897-1.075c.086.011.18-.028.266.046-.091.086-.204.052-.28-.022l.014-.025zm-.795-1.025c-.066.079-.243.153-.265.046.061-.078.171-.036.265-.046z"/><path d="M22.741 8.43l.189.112c.071.15-.202.036-.189-.112zm1.582-.167c-.062.074-.188.075-.255 0 .085-.059.167-.041.255 0zm-1.72-.571l.237.129c-.11.042-.24-.028-.237-.129zm-.085 2.006c.002-.07-.023-.146.048-.191.098.053.053.208-.048.191zm-.041-.794c.043.028.081.05.114.079.005.004-.023.059-.026.058-.068-.014-.227-.083-.089-.137zm.047 1.98c-.008-.081-.054-.153.031-.202.015.018.046.042.042.053-.017.05.017.128-.073.148zm2.315-2.097l.085.054c-.052.05-.079.123-.192.093l.107-.147zm-.286 1.981c-.069-.046-.141-.063-.119-.158.08.015.155.053.119.158zm-2.388 1.294c-.058-.022-.165.005-.174-.076-.001-.009.019-.029.024-.027l.161.062-.012.042zm.047-3.411l.146-.147a.11.11 0 0 1-.146.147zm.172 3.991c-.088.042-.108-.151-.083-.221l.083.221zm.487-2.464h-.162c.032-.104.12-.092.162 0zm-.637-1.888c-.056-.006-.131.05-.169-.051.071-.004.134-.02.169.051z"/><path d="M24.697 8.572c.015.093-.049.073-.1.074-.013-.074.001-.085.1-.074zm-2.602-6.618c-.163-.071-.329-.144-.493-.121-.302-.022-.539.07-.587.383-.003.066.044.127.067.186.052.117.122.227.25.253.291.035.644.17.89-.059.206-.213.139-.526-.126-.642zm.147.283c-.058.096-.12.164-.23.177l-.015-.094c-.024.021-.049.033-.058.052-.074.15-.247.079-.369.054-.1-.025-.123-.108-.11-.233.017-.202.286-.112.422-.112a.93.93 0 0 1 .36.156zm-.227-.253c-.317-.036-.619-.006-.908.141.078-.345.673-.272.908-.141zm-.597.11l-.036.287c-.316-.167-.23-.164.036-.287zm.075.525c-.129-.03-.352-.074-.337-.239.342.209.725.296 1.084.074-.122.267-.507.244-.747.165zm.659 2.236c-.081.297-.204.673-.515.785.034-.154.276-.213.342-.513.102-.298.202-.623.069-.931-.033-.069-.048-.149-.063-.225-.048-.163-.185-.273-.266-.419l.019-.021c.357.313.586.858.414 1.323zm.543-1.948c-.03-.033-.062-.064-.079-.106.102-.055.145.024.079.106zm-.889 5.607c-.003.517.176.997.354 1.474l-.064.034c.054.023.078.053.025.099-.035-.023-.053-.04-.04-.096-.063-.242-.181-.496-.238-.746-.042-.166-.06-.339-.086-.509-.01-.067-.016-.136-.013-.203.001-.017.042-.033.064-.049z"/><path d="M21.616 9.484c.014.021.036.041.04.064l.14.813c-.063.02-.085-.002-.092-.078l-.121-.789.033-.011z"/><path d="M21.752 9.292c.059.147.077.31.12.463.021.041.011.085.01.129-.023-.017-.058-.028-.068-.051-.085-.177-.184-.345-.098-.543l.037.002zm.16 1.152c-.01-.096.021-.137.135-.143l-.112.159-.023-.016zm-.39.202c-.076.026-.11 0-.144-.099.063-.018.072-.012.144.099z"/><path d="M21.703 9.074c-.066-.014-.067-.086 0-.184v.184zm-.023 1.537l.011-.103.057.008-.017.101-.051-.006zm.229-.494v-.123l.042.02c-.011.033.056.084-.042.103zm-.213-1.409l-.025.103-.028.002c-.006-.052-.042-.107.033-.122l.02.017zm-2.668-5.607c-.028-.181.263-.121.248.017-.002.077-.055.121-.148.121s-.101-.018-.1-.137zm5.226 9.851c-.003.283-.415-.024-.231-.165.041-.032.167.003.188.046s.034.095.043.119zm-3.039-.558c-.043.002-.061.108-.112.032-.017-.025-.008-.1.012-.111.076-.043.057.062.099.079zM2.738 1.531a.74.74 0 0 0-.658-.416l-.006.028c.232.023.441.087.555.316-.217-.077-.384-.268-.648-.216-.203.018-.321.159-.487.274l.013-.135h-.024c-.043.212-.113.203.045.411.057.11.131.208.266.211.263-.004.552.022.793-.101.058-.032.084-.114.132-.168.059-.066.07-.118.02-.206zM1.8 1.395l.012.08c.07-.18.271-.12.42-.112.123.008.149.114.164.197-.02.348-.684.272-.582-.087-.067.07-.038.185.016.256l-.019.02c-.273-.159-.313-.181-.012-.354zm.056.579c-.175.012-.271-.142-.332-.284l.017-.016a1.26 1.26 0 0 0 1.089.123c-.108.213-.564.147-.774.178zm.489-.201c.097-.087.113-.191.091-.319l.266.169c-.079.107-.204.157-.358.15zm-.311 2.926c-.249-.051-.332-.374-.434-.582-.137-.361.124-.672.469-.755l.01.025c-.256.1-.479.338-.404.634.052.259.156.502.359.679z"/><path d="M2.031 1.142c-.169.018-.335.02-.477.121.147-.127.27-.157.477-.121zm-.634 6.444c-.045.063-.127.067-.177.116a1.36 1.36 0 0 0-.278.446c-.098.242-.067.495-.119.744-.002.153.079.313.051.462-.208-.202-.059-.659-.059-.924.011-.27.18-.486.305-.714.056-.097.185-.163.276-.13zm4.774-4.002c-.103.029-.159-.062-.181-.167l.181.167zM2.685 8.419c.013.084-.05.094-.112.091-.25-.04.096-.409.112-.091zm-.073-.327c-.177.019-.152-.118-.103-.223.037.012.087.013.106.038.03.052.04.13-.003.185zm.077.917c-.132-.041-.171-.11-.13-.212.007-.018.047-.043.057-.038.119.046.082.146.074.25zM2.557 7.6c-.064.043-.103.088-.146.093-.163-.006-.062-.375.146-.093z"/><path d="M2.621 9.253c.162-.024.159.224.028.188-.037-.015-.062-.077-.074-.122-.005-.02.036-.052.047-.066zm2.551-3.921c-.153.022-.237-.197-.155-.31.202-.202.507.331.155.31zm-.044-.149c.022-.031.042-.052.051-.077-.007-.038-.08-.048-.105-.017-.033.04.015.142.078.131l-.025-.038zM8.068 3.3c-.058-.008-.092-.01-.056-.066.067-.226.061-.636-.129-.806l.015-.026c.03.019.075.031.086.058.138.266.117.55.083.84z"/><path d="M7.937 2.775l-.039.324-.04-.004.033-.323.045.003zm-.115.039l-.072.148-.029-.012.06-.151.04.015zm-5.396 8.73c.066-.223.169-.065.187.077-.062.067-.187.076-.187-.077zm.175.638c-.025.031-.045.078-.076.089-.06-.011-.17-.135-.096-.202.062-.046.18.016.172.113zm.064-1.06c-.043.04-.066.079-.096.086-.049.011-.108-.06-.096-.121.008-.041.046-.075.071-.112l.121.147zm10.72 1.562l-.665-.068c-.208-.048-.19-.289-.179-.458-.014-.262.776-.072.939-.053.179.003.194.186.2.324.021.165-.197.218-.295.255zm-.039-.186c.08-.007.203-.007.249-.073.03-.072-.019-.205-.069-.219-.241-.067-.486-.109-.735-.082-.129.005-.133.016-.133.146-.006.048 0 .129.044.15.214.039.431.034.645.078z"/><path d="M12.395 12.863c-.038-.215-.076-.429-.034-.65.035-.172-.033-.35.114-.494-.044.214-.104.423-.111.642-.007.167.059.334.066.502l-.035.001zm-1.697-.369c.072-.24-.042-.482.005-.717.091.228.037.462.018.696-.001.008-.015.014-.023.021h.001z"/><path d="M10.698 12.493a1.9 1.9 0 0 1-.065.488l-.025-.005.09-.482zm1.58-10.744c-.252.015-.431.237-.48.47-.069.421-.183.844-.104 1.272.013.084.001.175-.017.259-.028.123-.227.112-.194-.033.027-.273.1-.548.067-.823-.018-.289.161-.884-.08-1.063-.232-.196-.506-.169-.778-.141-.025.002-.052.051-.064.083-.003.01.04.051.065.054.263.061.669-.169.814.149.094.363-.012.749-.026 1.118-.01.104.013.233-.147.253-.075.045-.086.119-.088.197-.016.212.147.146.174.264.008.036.05.07.084.093s.205-.042.216-.084c.019-.081.1-.065.142-.114.107-.184-.021-.229-.097-.359-.033-.187-.01-.376.002-.563a2.29 2.29 0 0 1 .114-.659c.039-.178.211-.256.383-.268.178-.058.472.212.538.08-.009-.177-.38-.179-.525-.184zm-.865 1.921l-.041.007c-.085-.11-.099-.242.07-.291l-.029.284zm.355-.247c.133.15.122.24-.027.279l.027-.279z"/></g><g class="M"><path d="M11.442 3.386l-.029.284-.041.007c-.085-.11-.099-.242.07-.291z"/><path d="M11.741 3.702l.027-.279c.133.15.122.24-.027.279z"/></g><path d="M12.002 2.219c-.015.017-.025.056-.016.072.097.172.222.304.444.286.868-.057.002-.866-.428-.358zm.54.011c.027.216-.265.178-.265.018-.002-.168.273-.214.265-.018zm-.44.047c-.033-.083.096-.109.144-.152l.026.011c-.076.107-.031.191.056.286-.112-.026-.171-.084-.225-.145zm.241.167c.184-.014.216-.075.274-.253.043-.009.093.038.14.162-.131.102-.263.177-.413.092z" class="L"/><g fill="#567591"><path d="M12.327 2.421c-.112-.026-.171-.084-.225-.145-.033-.083.096-.109.144-.152l.026.011c-.076.107-.031.191.056.286z"/><path d="M12.756 2.351c-.131.102-.263.177-.413.092.184-.014.216-.075.274-.253.043-.009.093.038.14.162zm-.48-.103c-.002-.168.273-.214.265-.018.027.216-.265.178-.265.018z"/></g><path d="M11.988 4.437c-.043-.093-.198-.204-.292-.167-.059.03-.102.016-.147-.014-.089-.059-.156.002-.22.046-.261.21.066.524.296.51.186.008.254-.106.353-.246.051-.045.028-.087.011-.13zm-.298.276c-.124-.03-.415.022-.384-.184l.558.073c-.042.085-.094.12-.174.11zm-.387-.292c.053-.139.192-.179.297-.058.122.054.223-.125.315.141-.217-.041-.411-.024-.612-.084z" class="L"/><g class="Q"><path d="M11.865 4.602c-.042.085-.094.12-.174.11-.124-.03-.415.022-.384-.184l.558.073z"/><path d="M11.915 4.504c-.217-.041-.411-.024-.612-.084.053-.139.192-.179.297-.058.122.054.223-.125.315.141z"/></g><path d="M11.341 2.171c-.133-.125-.287-.216-.497-.223-.311.016-.325.145-.13.365.172.239.471.276.632.012a.16.16 0 0 0-.006-.154zm-.222-.012c-.019.174-.249.144-.248-.025-.001-.189.257-.116.248.025zm-.431-.138c.042-.024.096-.026.146-.03.005-.001.028.053.02.062-.062.072-.032.141.002.22-.127-.011-.257-.138-.168-.252zm.158.334h.384c-.159.13-.206.137-.384 0zm.287-.053a.78.78 0 0 0 .043-.194c.187.093.134.159-.043.194z" class="L"/><path d="M11.23 2.355c-.159.13-.206.137-.384 0h.384zm-.375-.081c-.127-.011-.257-.138-.168-.252.042-.024.096-.026.146-.03.005-.001.028.053.02.062-.062.072-.032.141.002.22zm.264-.115c-.019.174-.249.144-.248-.025-.001-.189.257-.116.248.025zm.014.144a.78.78 0 0 0 .043-.194c.187.093.134.159-.043.194z" fill="#567591"/><g class="L"><path d="M11.43 4.994c-.288-.035-.451-.413-.39-.672.016-.053.105-.239.167-.235-.164.439-.106.566.222.907zm.749-.402c.008.152-.077.261-.185.386.024-.155.149-.249.137-.395-.011-.133-.002-.267-.002-.383.079.107.043.253.05.392zm3.879.97c.082.022.08.106.083.156.025.239.016.494-.155.684l-.025-.014c.018-.042.027-.093.057-.125.15-.207.048-.47.043-.703l-.002.002zm-1.33.064l.002-.002v.005l-.002-.003z"/><path d="M15.015 5.299l-.285.326c-.006-.176.154-.248.285-.326zm1.045.261l-.265-.29c.122.03.271.198.264.292z"/><path d="M15.775 6.011l.054-.297.023.004c.021.104-.023.2-.046.298l-.031-.005zM9.741 23.125c-.012.131-.137.276-.028.375.078.073.123-.012.209-.017l.016.023c-.225.217-.078.125-.298.089-.021-.046-.008-.132-.03-.184-.033-.095.005-.179.043-.261.008-.017.054-.016.089-.025z"/><path d="M10.415 23.566c-.102.088-.245.076-.372.099-.014.002-.031-.032-.047-.049.106-.053.297-.097.415-.083l.005.033z"/><path d="M10.198 23.304c.101-.159.194-.036.258.066l-.258-.066zm.416.169l.239.082.008.027c-.022.011-.047.033-.067.029-.169-.027-.185-.04-.18-.138zm-.861-.912c.084.232.087.268.025.293-.081-.215-.084-.251-.025-.293z"/><path d="M9.637 22.796l-.116.217c-.002.003-.031-.009-.031-.014-.004-.096.006-.245.147-.203zm-.181-.17c.07-.04.121.012.181.044-.083.063-.12.046-.193-.019l.012-.025z"/><path d="M9.832 22.313l-.01.192c-.067.07-.113-.144.01-.192zm-.007.244l.085.007c.004.071.034.127-.003.186-.077-.023-.052-.119-.082-.193zm1.315.925l-.135.082c-.003.001-.022-.029-.034-.044l.113-.081c.005-.003.025.019.056.043zm-.353-.129c.061.1-.079.135-.109.071-.003-.084.073-.038.109-.071z"/><path d="M9.549 22.473l.049-.102.026-.001.03.103h-.105zm1.686.924c-.009.054.044.125-.066.12.005-.048-.024-.103.066-.12z"/><path d="M9.6 22.234c.064-.086.093.036.158.001-.057.058-.098.054-.158-.001zm.537 1.12l.045.099-.018.021c-.065-.033-.085-.051-.054-.124l.027.004zm2.658-.605c-.093.066-.166.155-.289.115-.075.004-.042-.056-.05-.086-.018-.067-.026-.137-.038-.205l.021-.01.061.075.073-.02v-.079c-.072-.045-.341-.052-.208-.172l.224.083.155-.085.024.027c-.062.039-.018.13-.109.169-.034.015-.03.114-.044.175.08.022.137-.072.182.013zm1.106.705c.018.089.124.102.181.162l-.015.033c-.122-.003-.181-.13-.316-.104-.036.008-.117-.003-.106-.096-.055.047-.157.024-.138-.056a.41.41 0 0 1 .261-.028l-.069.081.205.011-.003-.002z"/><path d="M13.296 23.276l.196.184c-.003.081-.116.064-.175.074s-.072-.024-.061-.079l.06-.006-.04-.17zm-.973-.061c-.011-.071.021-.203.114-.138-.005.029-.04.062-.029.089l-.009.119-.029.002-.047-.073zm1.581.242l-.055-.072c.05-.055.101-.013.157.006-.017.061-.046.069-.105.063zm-.906.204c.079-.079.085-.058.154-.002-.06.042-.083.051-.154.002zm2.717-16.474c-.142.111-.492.034-.471-.152a.58.58 0 0 0 .393.109c.02-.002.044.023.078.042zm6.156-4.913c-.054.052-.089.112-.123.112-.047 0-.094-.046-.138-.076s-.02-.093-.017-.138a.4.4 0 0 1 .278.102zM2.064 1.445c.054-.02.096-.051.127-.043.123.044.06.167-.013.219-.101.064-.249-.026-.25-.146.022-.104.067-.073.137-.03z"/></g></svg>