<svg id="Layer_11" xmlns="http://www.w3.org/2000/svg" viewBox="0 0 25.396 24.168"><defs><style>.cls-1{fill:#eac3a7}.cls-2{fill:#fff}.cls-3{fill:#bcbec0}.cls-4{fill:#be1e2d}.cls-6{fill:#dd5633}.cls-7{fill:#184137}.cls-8{fill:#0f181b}.cls-9{fill:#58906b}.cls-10{fill:#316956}.cls-11{fill:#567591}</style></defs><path class="cls-8" d="M25.374 8.99c-.127-.172-.212-.375-.368-.525-.15-.1-.26-.254-.403-.36a4.554 4.554 0 0 0-.524-.324c-.476-.186-.982-.311-1.475-.45.04-.195-.047-.416-.434-.548-.051-.71.267-.26.586-.943.408-.832.277-1.646.177-2.525-.03-.247.139-.409.25-.628-.01.2-.159.63-.068.77.149.148.442.271.576.04.204-.474.314-1.16.13-1.651a1.82 1.82 0 0 0-1.186-1c-.243-.042-.493-.043-.741-.054-.34.009-.761-.087-1.005.216a.54.54 0 0 0-.123.506c-.057.485.113.961-.008 1.443-.007.063-.07.14.02.188a.32.32 0 0 0 .164.043c.119-.01.142-.002.166.11-.007.323.008.664-.056.98a.228.228 0 0 0 .01.257c.074.118-.077.231.037.352.184.258-.028.559-.006.842-.007.443.553.383.532.768.026.268-.081.248-.28.353-.389.156-.818-.07-1.193-.188-.61-.12-.64-.543-.707-1.063-.128-.583-.109-1.18-.1-1.773.005-.1.114-.173.142-.26a2.22 2.22 0 0 0 .058-.501c.001-.145-.047-.249-.17-.312-.115-.057-.044-.171-.05-.263-.013-.114.03-.215.072-.314.087-.159.29-.216.362-.391.137-.112.42.133.537-.061.102-.208-.164-.439-.388-.353-.133.043-.179-.241-.376-.256-.107-.06-.158-.232-.315-.19a.676.676 0 0 1-.38-.013c-.218-.096-.33.179-.512.246-.054.032-.074.098-.15.1.01-.065.02-.117.025-.17-.03-.225-.318-.109-.293.064 0 .074-.03.096-.094.085-.156-.027-.313-.052-.468-.084-.217-.045-.398-.17-.584-.28-.611-.37-.956-.108-.904.563-.01.493.442.932.896.595.219-.154.428-.315.712-.338.17-.006.398-.126.543.006.232.505.663.377.547.869-.008.025-.093.023-.137.045a.214.214 0 0 0-.092.083c-.06.243.01.507.01.756.003.03.027.07.052.082.057.026.065.065.062.118-.017.938-.023 1.885.087 2.818.07.368.304 1.066.587 1.31.291.243.527.59.547.975.038.447.015.903-.056 1.346-.115.463-.22.931-.34 1.392-.134.403-.255.825-.163 1.25.013.229.309.013.273.271-.007.417.055.837.057 1.255.011.315-.014.63.029.945.117 1.512-.013 3.032.069 4.544-.003.478-.075.95-.08 1.432-.02.354.036.709-.001 1.062-.004.054-.006.115.064.119.197.01.406-.006.601.018.005.085-.004.164.018.233.027.12-.13.13-.2.161a1.28 1.28 0 0 0-.308.226c-.107.116-.198.25-.275.388-.086.152-.008.306.042.451.04.115.148.142.254.146.587-.038.317.09.849-.211.01.048.06.113.037.16.139.014.255.09.374-.022.156-.133-.03-.635-.03-.836-.016-.137-.042-.262-.17-.341-.015-.01-.03-.03-.031-.045-.003-.095-.001-.19-.001-.293.22-.061.469-.014.697-.01.058.004.064-.016.063-.06-.008-.137 0-.274.03-.406-.005-.132-.03-.265-.028-.398.003-.34.039-.68.032-1.02.093-.641.026-1.282.014-1.924-.003-.173-.034-.349-.01-.517.08-.52.065-1.043.043-1.565-.008-.19-.045-.38-.044-.57.036-.2.032-.404.029-.609v-.935c.026-.194-.084-.44.115-.57.041.298.03.55.002.838.026.336-.005.671-.015 1.008.027.652.015 1.304.063 1.957.012.456-.02.911-.033 1.367-.04.211-.01.414.033.622a73.202 73.202 0 0 0-.04 2.114 2.13 2.13 0 0 0-.02.591c.482.188.613-.183.592.326.056.294-.248.329-.39.504-.074.097-.197.162-.208.302-.021.261-.103.618.259.66.12.065.567-.065.593-.197.032.02.036.042.017.068.097.059.169.148.296.146.127-.01.307-.09.331-.206.025-.116.017-.242.004-.362a4.528 4.528 0 0 0-.116-.566c-.036-.09-.102-.168-.095-.277.008-.116.001-.233.001-.347.216.016.435.023.651.037.103-.002.088-.115.092-.188-.035-.3.024-.591.003-.889.012-.471-.028-.954-.01-1.42.063-.364.098-.736.081-1.1.06-.23.03-.465.04-.697.02-.368-.037-.745-.008-1.112.029-.133.021-.265.008-.396-.05-.448-.118-.896-.178-1.343a.406.406 0 0 1 .142-.384c0 .156.124.273.232.134.12-.36.11-.749.031-1.116-.026-.144-.073-.523.121-.553.212.03.327-.14.359-.327.032-.125.073-.256.006-.37-.113-.177.04-.292.116-.434.06-.204.218-.356.308-.542.117-.191.178-.417.254-.63.121-.669.356-1.372.228-2.05Zm-5.295-7.504.051.018-.057.106c.079.05.085-.01.125-.067.136.178-.307.203-.12-.057ZM16.277.781l.2.068-.008.028c-.067-.02-.134-.04-.2-.062l.008-.034Zm.087.135c.249.042.387.306.382.55.02.242-.216.617-.473.4-.181-.2-.168-.487-.136-.735.009-.117.095-.237.227-.215Zm.448.89c-.092.173-.327.34-.518.24-.194-.11-.275-.296-.29-.51.007-.212-.07-.487.12-.64-.034.093-.097.186-.104.286.02.22.053.436.13.642.045.14.214.22.348.165.245-.1.325-.382.32-.622-.031-.167-.146-.293-.228-.444.272.176.561.499.266.825-.016.018-.034.036-.044.057Zm.049.061c.314-.256.167-.503.056-.816.28.13.6.285.917.252.136-.02.076.187.115.278-.383.012-.763.042-1.088.286Zm5.326 5.045c.233.026.33.343.29.545-.039.3-.263.437-.51.557a5.17 5.17 0 0 0-.13-.607c-.066-.172.41.112.35-.495Zm.858-4.614-.208.048c-.038-.178.108-.08.208-.048Zm-.287-.966c.172.186.206.41.189.615l-.188-.615Zm1.014 1.652.024.008-.127.46-.039-.012.142-.456Zm-.16-.46-.084-.957c.082.084.126.56.083.957Zm-.102.184.026.004-.065.37a.7.7 0 0 0-.032-.006l.072-.368Zm-.06-.396.031.003c-.024.156-.004.32-.068.47l-.022-.003.059-.47Zm-.147 1.171a.481.481 0 0 1 0-.471v.471Zm-.092-.519.054-.304.024.006c.022.102-.005.194-.078.298Zm.034-.899a2.564 2.564 0 0 0-.048-.645c.097.125.13.561.048.645Zm-.208.107c.067-.07.099.061.148.122-.062-.048-.135-.056-.148-.122Zm.101-.143c-.007-.264-.034-.523-.19-.75.192.057.298.51.19.75Zm-.218-.77a28.94 28.94 0 0 1-.171-.101c.076-.009.145-.004.17.1Zm-.21.924-.049-.431a.572.572 0 0 1 .05.431Zm-.064-.725-.009.01-.158-.188a.219.219 0 0 1 .01-.017c.09.033.116.117.157.195Zm-.31-.169.171.102-.017.032-.177-.087.024-.047Zm-.234-.1.012-.043.326.09-.006.02c-.107-.038-.238.029-.332-.067Zm.433-.152c-.266-.063-.538-.064-.81-.082.274-.015.55-.039.81.082Zm-.745.232c.164.02.33.024.495.035l.002.026-.973-.03v-.034c.158-.056.316-.017.476.003Zm.333.225h-.354c.063-.077.185-.08.354 0Zm-.74.004c-.233.053-.35.051-.39 0h.39Zm-.373-.138.283-.018.001.031h-.282l-.002-.013Zm.381-.183c-.134.021-.267.06-.403.022.133-.068.268-.046.403-.022Zm-.26 3.562c.013-.127.17-.09.26-.094.07.015.496-.057.367.096-.174.053-.348.13-.535.1-.059-.004-.097-.042-.093-.102Zm.328-.374c.142.054.305.062.418.172-.113.046-.214.085-.314-.003-.012-.01-.037-.005-.057-.005-.558.06-.435-.264-.047-.164Zm.038 1.739c-.516-.159-.27-.783-.223-1.162.164-.065.596-.043.587-.279.107-.113.076-.14-.014-.232-.088-.089-.212-.083-.323-.108a.52.52 0 0 0-.394 0c.03-.269.036-.535.047-.804-.01-.163.042-.458-.207-.429-.145.006-.162-.02-.14-.167a3.83 3.83 0 0 0 .048-.436 4.257 4.257 0 0 1 .002-.906c.295.002.562 0 .851-.014.187.004.477-.077.61.086.31.322-.139 1.128.464.905l.039.146.169-.063c-.024.073-.297.423-.106.346-.086.141-.16.27-.166.435-.022.162-.259.08-.173-.16l-.027-.013c-.198.208.138.503.318.252.09.791.176 1.626-.214 2.352-.108.164-.304.266-.456.389-.153.113-.153.263-.132.435.019.153.007.31-.007.465-.008.088-.15.124-.225.079-.105-.062-.11-.165-.115-.263-.025-.24.046-.51-.056-.737a.296.296 0 0 0-.157-.117Zm.192 2.091c.053.1.08.213.119.321l-.003-.002.002.003c.098.235.18.474.238.723.083.292.187.58.232.881-.061.282-.552.635-.778.822-.199-.14-.282-.376-.442-.557-.09-.142-.231-.282-.207-.465.028-.394.258-.715.394-1.076.06-.146.106-.297.166-.444.05-.18.338-.478.067-.594-.169-.08-.029-.312.09-.368.046-.03.122-.123.14-.018.018.107.03.216.05.323.055.215-.227.194-.068.451Zm-1.191 8.715c-.15-.024-.685.019-.749-.069l.016-.028.735.069-.002.028Zm.66.127c-.178.075-1.22.019-1.4-.07.18-.005.358.005.537.015.292.015.58-.04.864.055Zm-.186-1.03c-.383-.018-.78.041-1.155-.028l.005-.038c.197 0 .394.007.59-.001.183.02.877-.14.93.032-.111.06-.248.016-.37.036Zm.353.11-.001.032-.872-.032c.292-.03.583-.049.873 0Zm.011-.527.005.034c-.143.052-.311.028-.463.034-.38-.016-.772-.034-1.129-.152a.877.877 0 0 0 .011-.034c.527.028 1.053.06 1.576.118Zm-1.103-.18.005-.025c.373.001.747-.02 1.116.057v.026l-1.12-.058Zm-.064.25a.947.947 0 0 0-.005.037l-.345-.068a.507.507 0 0 1 .005-.027l.345.058Zm-.411.088 1.108.061c-.331.078-.685.039-1.024.066-.128.012-.101-.026-.084-.127Zm-.004.452c.062-.056.217-.053.302 0h-.302Zm.022.132a3.294 3.294 0 0 1 1.292.027c-.433.007-.864.032-1.292-.027Zm1.07.128v.015h-1.07a.138.138 0 0 1 0-.055l1.07.04Zm-.114-.279.622.047c-.08.055-.468.024-.622-.047Zm.584-.84c-.158-.008-.315-.023-.473-.027-.215-.005-.43-.003-.645 0-.12.001-.24.012-.36.015-.111.003-.112 0-.073-.112l1.591.072.006.029c-.016.008-.032.023-.047.023ZM19.763 14.1l-.017-.106c.376-.015.75-.022 1.125-.038.163-.012.323-.06.482.01-.523.108-1.06.04-1.59.134Zm1.576-.01v.12l-1.234-.045v-.01l1.234-.064Zm-1.546.183c.404-.048.807-.03 1.21-.002.096.005.191.013.287.015.053.002.08.018.063.09-.497-.047-.996-.034-1.496-.022-.05.009-.085-.006-.117-.045.018-.013.035-.035.053-.036Zm1.56.25c-.533-.016-1.068.057-1.599-.075.293-.026.59-.01.885-.01.097.017.733-.002.714.085Zm-.193.373c.065.004.136-.046.195.007l-.004.029-.19-.036Zm.19.263c-.046.04-.099.027-.154.022-.238-.006-.477-.009-.715-.018-.242-.02-.492 0-.726-.07.002-.01.005-.02.006-.031.262.028.525.023.787.037.261.004.524.062.785.029l.018.03Zm-1.524-.442c.463 0 .917.012 1.38.017.058.005.12-.019.154.046-.212.081-1.425.032-1.534-.062Zm.287.149c-.088-.017-.412.06-.359-.085l.359.085Zm-.303.085c.221.003.443.01.665.015.26.004.547-.02.789.087l-.003.025-1.512-.058-.007-.038c.022-.011.045-.032.068-.031Zm-.062-.366c.008-.057.032-.07.093-.059.506.09 1.015.022 1.526.085-.114.051-1.48.025-1.62-.026Zm1.616-.72c-.517.018-1.037 0-1.55.059-.098.023-.102-.133-.004-.117.52-.02 1.037-.024 1.554.042v.016Zm-1.55-.142c-.024 0-.05-.025-.074-.04.025-.013.05-.038.075-.039.245-.005.482.009.728-.023l.017.075c-.243.037-.498.015-.745.027Zm1.027-1.47.023.004c-.018.152.043.403-.04.523-.085-.1-.043-.32.015-.435.013-.023.002-.061.002-.092Zm.087.711h-1.163c.043-.028.07-.062.098-.063.353-.002.732-.073 1.065.063Zm.226-1.443c-.01-.091.013-.104.18-.088 0 .092.061.24-.003.318-.059-.002-.126-.013-.165-.065q.018-.06.157-.055c-.01-.049-.104-.11-.17-.11Zm-.033-.17c-.049-.07-.028-.249.07-.548.065.065.124.128.188.186.06.066.179.101.178.204-.028.386-.018.77-.046 1.157-.118-.236-.334-.379-.516-.109l-.023-.01.08-.594c.434.692.584-.468.07-.286Zm.166 1.234c-.069.087-.178-.043-.235-.086-.037-.035-.013-.065.002-.109.048-.14.04-.143.117-.173.13-.053.222.01.222.154.01.094-.06.149-.106.214Zm-.315-.187c-.005.142.222.357.336.228.072-.092.093-.19.203-.255v.435l-.564-.044v-.357l.026-.007Zm.004.65v.02c-.394.032-.806.105-1.202.016.021-.012.042-.035.063-.035.38-.004.76-.001 1.139-.002Zm-.591.472c.007 0 .013.009.03.02-.195.045-.394.008-.592.02-.06.001-.083-.025-.08-.09.221.016.432.033.642.05Zm-.01-.257c-.18-.02-.446.042-.6-.036.098-.061.212-.005.32-.016.297-.01.6-.078.891.017.093.036.197.047.295.07 0 .01-.002.018-.003.028-.301-.022-.6-.061-.902-.063Zm.642-.123c.226.011.452.028.673.08-.23.01-.459.028-.673-.08Zm1.156.219c-.15.068-.797.104-1.077.053l1.077-.053Zm-.535-.217.007-.041.633.067-.005.042-.635-.068Zm1.24.256c-.09.073-.535.103-.627.039l.626-.04Zm.162.143v.022h-.257v-.022h.257Zm-.659-.275c.152 0 .663-.13.695 0h-.695Zm.625-.305-.171-.016v-.026h.173l-.002.042Zm-.019.083c-.673.043-1.342-.012-2.01-.095.668.068 1.352-.045 2.01.095Zm-1.349-.232h-.02v-.405l.028-.003c.037.136-.019.272-.008.408Zm-.031-5.896.053.295-.446.238c-.041-.26.194-.397.393-.533ZM19.72 1.362l-.005.031H19.5v-.029c.075.007.147-.027.22-.002Zm-.209-.15c.044.016.087.032.128.053l.002.021c-.055.03-.102.008-.146-.027-.004-.003.01-.032.016-.048Zm.291.291v.138a24.88 24.88 0 0 0-.634-.04c-.065-.002-.071-.049-.073-.096-.002-.069.042-.039.078-.037.21.014.42.003.63.035Zm-.516-.137h-.123l.085-.102.038.102Zm-1.203-.289.004.03a11.65 11.65 0 0 0-.097.053c-.002-.088-.002-.104.093-.083Zm.196.847c-.216-.154-.254-.439-.307-.681l.133-.072c-.069.24.145.361.195.552.074-.03.053-.074.031-.11-.075-.133-.087-.364.103-.406-.04.267-.03.467.17.671a3.53 3.53 0 0 1 .038-.02c-.02-.079-.028-.163-.062-.236-.083-.179-.044-.347.026-.516.043-.1.13-.09.225-.078a.568.568 0 0 0-.048.567c.037.062.117.295.209.189.004-.01-.005-.033-.016-.042a.498.498 0 0 1-.147-.554c.05-.128.23-.18.34-.102.022.016.054.019.095.032-.21.125-.24.093-.268.345-.048.1.02.257.17.257.152 0 .304.02.458.03-.007.114-.096.156-.16.211-.23.183-.227.442-.238.718-.188-.03-.365-.057-.541-.088-.042-.017-.048-.09-.035-.127.072-.244-.213-.408-.371-.54Zm.131 1.304c-.115-.763.35-.49.839-.407.274.045.124.33.128.516-.005.18-.196.12-.342.161-.147-.023-.32-.048-.493-.082-.096-.02-.13-.093-.132-.188Zm.947 9.517c-.108-.08-.048-.246-.039-.366.087-.516.158-1.04.236-1.557.025-.365.165-.705.218-1.06-.013-.435.01-.88-.087-1.305-.084-.324-.323-.578-.498-.856-.182-.34-.35-.69-.513-1.04a1.843 1.843 0 0 1-.11-.82c-.044-.722-.013-1.432-.015-2.156.102.023.733.094.725.193-.06.477-.089.956-.077 1.438.195 1.372.276 1.335 1.543 1.738.769.13.145.134.284.886.013.005.026.008.04.012l.18-.231.032.015c-.016.179.085.271.233.328-.19.424-.38.845-.577 1.28-.033.008-.099.003-.059.106.017.04-.037.11-.06.166-.044.112-.082.227-.133.335-.05.105.038.165.07.242.101.16.2.325.288.494.09.151-.24.852-.16.97.051-.014.082-.036.084-.093l.02.005-.033.118c-.123-.013-.074.013-.1.092-.013.105-.079.179.047.243l-.002.047-.084.005c-.05.094.019.163.058.24l-.029.018-.02-.082c-.076.061-.034.19-.058.278-.01.09-.027.182-.027.273 0 .074-.018.106-.097.099-.171-.015-.343-.032-.514-.031-.255-.009-.522.08-.766-.024Zm1.943 4.936.006.03c-.02.011-.04.032-.06.03-.349-.027-.704-.015-1.05-.082.37-.04.736-.03 1.104.022Zm-1.573-.142v-.025c.285.018.57-.019.855.025h-.855Zm.003-.104a1.426 1.426 0 0 0-.015-.026c.028-.03.058-.06.101-.06.36-.017.718-.067 1.073.019.131.035.291.019.405.093l-1.564-.026Zm1.545.731-.001.041c-.429.046-.857.058-1.282-.033.427.018.855-.011 1.283-.008Zm-1.593-.185.887.067c-.143.059-.82.01-.887-.067Zm1.213.004c-.197-.013-.395-.028-.593-.04-.18-.031-.513.035-.628-.12l1.223.144-.002.016Zm.315 1.601a1.469 1.469 0 0 1-.005.042c-.515-.01-1.02-.115-1.53-.184l.004-.032c.51.064 1.02.122 1.531.174Zm-1.517-.499h.886v.037l-.886.036c0-.04-.005-.055 0-.073Zm.03.186c.495.083 1.01.032 1.494.202-.498-.067-1.007-.05-1.494-.202Zm1.205.41-.003.02c-.242-.051-1.22.037-1.278-.157l.019-.024 1.262.162Zm.247 1.696c-.152.01-.3-.034-.452-.044-.328-.035-.663-.016-.981-.113v-.02c.223-.006.451.005.669.052.215.052.432.042.65.049.042.001.083.033.125.05l-.01.026Zm0 .434v.066c-1.781.058-1.851-.107 0-.066Zm.014-.821c-.467-.008-.93 0-1.382-.106.454-.033.966-.04 1.382.106Zm-.002-.43c-.479-.034-.958-.015-1.437-.055-.103.012-.113.002-.105-.118.487.04.978.027 1.465.085.067.005.08.02.077.087Zm-1.054-.25c-.165-.017-.35.064-.494-.046.259-.073 1.409.024 1.57.127-.368-.018-.713-.05-1.076-.08Zm1.039.5c-.176.021-.35-.036-.527-.04-.235-.011-.47-.012-.706-.017-.11-.006-.201.018-.309-.03.184-.08 1.318-.018 1.542.088Zm-.07.298v.025c-.424-.025-1.066.05-1.424-.175.478.087.942.137 1.425.15Zm-1.362.24.607.078c-.15.053-.325.02-.485.037-.1.003-.1.001-.122-.114Zm.027.334.011-.028 1.268.036v.022c-.366-.004-.73.001-1.095.016-.068.002-.136.015-.184-.046Zm.963 1.34c.03.153.092.395.041.532a.38.38 0 0 1-.152.01c-.024-.003-.044-.033-.07-.04-.022-.005-.065-.003-.07.008-.047.1-.154.105-.235.144a1.08 1.08 0 0 1-.655.064c-.1-.019-.156-.226-.097-.312l.089-.125q.11.136.061.214.037.043.212.024c-.005-.045.019-.123-.024-.153-.101-.003-.12-.107-.19-.143.04-.1.06-.212.205-.184.057.09.175.17.075.316.158.015.23-.08.154-.177-.05-.074-.25-.203-.1-.271.037-.016.086-.041.112.025.091.29.45.22.644.069Zm-.47-.63c.085.004.22-.062.271.034.054.172 0 .246-.073.396-.128-.043-.21-.228-.199-.43Zm.398-.315c-.17-.003-.799.108-.863-.06l.016-.027c.465.063.933-.004 1.398.028l.002.037a1.839 1.839 0 0 1-.553.022Zm.567-1.911c-.533.003-1.052-.131-1.581-.14l-.005-.031c.527.028 1.047.083 1.586.093v.078Zm-.002-.282c-.275-.004-.54-.056-.812-.026-.222-.014-.444-.032-.666-.048-.04.005-.059-.034-.085-.057.32-.019.645.04.965.055.18.005.36.002.539.001.057 0 .072.026.06.075Zm.018-.537-.918-.111c.305-.026.611-.028.918.03v.08Zm-.047-.334c-.166-.006-.33-.02-.497-.028a3.327 3.327 0 0 1-1.03-.157 1.32 1.32 0 0 1 .014-.037c.365.045.73.067 1.097.061.143.007.285.029.427.05.02.004.037.04.055.06-.022.018-.045.052-.066.051Zm-1.497-.508c.49.037.998-.021 1.47.147l-.004.015c-.246-.04-.488-.104-.738-.065-.215.002-.43 0-.645 0-.091 0-.103-.015-.083-.097Zm-.006-.114c.054-.045.2.036.273.041l-.006.028c-.075-.025-.221-.007-.267-.069Zm1.485.4c.01.003.02.013.024.034-.486-.051-.976-.02-1.458-.109l-.001-.015c.482-.002.963-.024 1.435.09Zm.094-.212-.31-.074.003-.012c.098.006.336-.1.307.086Zm-.047-.21c-.165.006-.331.006-.498.007-.347-.008-.725.011-1.041-.142l.01-.035c.36.04.713.152 1.08.09.165-.002.33 0 .496 0l.018.026c-.021.019-.042.053-.065.054Zm.065-.457c-.52-.069-1.063-.064-1.565-.228l.004-.02c.342.034.676.108 1.021.097.165.002.33.028.494.05.025.004.044.047.066.071l-.02.03Zm-.548-.683c-.18-.033-.95-.016-1.007-.14.538.068 1.049.09 1.599.074-.098.158-.427.045-.592.066Zm.62-.376c-.534-.03-1.047-.124-1.582-.137-.011-.054-.001-.085.054-.082.233.016.466.038.7.047.25.008.501.003.752.008.08.015.086.084.076.164Zm-1.037-.269c.15 0 .298.004.447-.001.199.011.419-.071.604.002-.127.068-.781.065-1.05 0Zm.727-2.954c.377-.067.756-.099 1.138-.047-.38.022-.757.085-1.138.047Zm.798.043c.367.008.727-.112 1.09-.014l.01.025c-.035.013-.071.039-.104.035-.251-.026-.502-.053-.755.001-.084.007-.194.053-.255-.024a.715.715 0 0 0 .014-.023Zm1.59 2.038-.195-.026c.183-.078.197-.076.196.026Zm-.168-.294c.042-.043.058-.08.124-.103.001.11-.003.135-.122.13 0-.01 0-.018-.002-.027Zm-1.413.992c.033-.067.507-.066.873.032-.286.06-.589-.02-.873-.032Zm.472.128h-.432l.002-.034c.145.005.292-.03.43.034Zm.531-2.65.003.017c-.024.01-.049.029-.073.029-.289 0-.578-.002-.868-.005-.005 0-.011-.016-.028-.04h.966Zm-.74-.086.313-.03.003.035-.314.022-.003-.027Zm.729.357c-.32-.045-.636-.062-.955-.096l.032-.029c.26 0 .52 0 .78.004.108.001.108 0 .143.12Zm-.415 1.428-.003.013c-.126-.006-.473.087-.54 0 .076-.083.412-.003.543-.013Zm-.099-1.088c-.281.015-.365-.001-.373-.08l.375.055c0 .009 0 .016-.002.025Zm.478.128v.037h-.839a10.79 10.79 0 0 0-.01-.092l.849.055Zm.289.153a.961.961 0 0 1-.467.045 2.343 2.343 0 0 0-.631-.034c-.016.002-.033-.01-.067-.021.16-.046 1.088-.038 1.165.01Zm-1.127.337v-.03c.105.004.208.016.31.034v.013l-.31-.017Zm.245.087c-.154.063-.272.053-.278-.03l.278.03ZM21.963 15c-.019-.068.009-.09.065-.084l.451.05c.193.024.387.032.578.065l-.002.033L21.963 15Zm1.065.208c-.191.125-.428.026-.638.02l-.002-.02h.64Zm-.405.154c.149.02.408-.088.493.065l-.01.028-.7-.097v-.012c.073-.007.145.009.217.016Zm.211-.427.273-.04.004.028c-.085.077-.182.03-.277.012Zm.254.835a5.99 5.99 0 0 0-1.2.022v-.044c.4.01.8-.125 1.2.022Zm.058.214-.002.037-.812-.032.002-.042.811.037Zm-.757-.163h.239q-.048.038-.239 0Zm.123.349c-.11.064-.214.01-.321.004-.11-.005-.222 0-.332 0v-.035l.652.03Zm.933.385-.001.025a8.038 8.038 0 0 0-.851-.027c.164-.091.625-.008.852.002Zm-.28-.21a.934.934 0 0 1 .357.031l-.004.024-.353-.056Zm.108-.098-.004-.015.231-.038c.026.108-.158.047-.227.053Zm.09-.161a.955.955 0 0 1-.642 0h.643Zm-1.378-.625c.402-.095.78.068 1.169.068-.39.012-.774-.058-1.17-.068Zm.789-.918c.093-.045.416-.027.446.034l-.446-.034Zm-.665-.2c.378.054.738.073 1.125.06-.125.087-.901.046-1.125-.06Zm1.121-.078c-.336.09-.695.026-1.034-.025-.094-.017-.194-.001-.275-.064l.017-.036c.435.025.857.082 1.292.125Zm-.088-.114.086-.205.017.005c.019.07.019.129-.008.2h-.095Zm-.129-.001-.125-.077.098-.093.05.147-.023.023Zm-1.169 2.521h1.71c-.014.097-.08.07-.12.075-.116.017-.236 0-.353-.01a5.98 5.98 0 0 0-.829.028c-.139-.012-.276-.046-.413-.07l.005-.023Zm.71 1.094c.2-.052.823-.007.969.071l-.968-.071Zm.457.282c-.324-.021-.649-.03-.972-.064-.02-.001-.037-.019-.072-.038.365-.017.705.036 1.044.102Zm-1.087-.592c0-.015.002-.03.003-.044a7.86 7.86 0 0 1 1.63.068c-.542.088-1.09.01-1.633-.024Zm.752 2.72c-.223.005-.449.046-.664-.046.225-.031.444.02.664.046Zm-.7-.52c.114.02.217.04.32.059l-.01.028c-.194.012-.244 0-.31-.087Zm.016-.092c-.008-.122.255-.04.332-.049.257.041.544-.014.772.13-.369-.016-.74.044-1.104-.08Zm.018-.446c.417.1.842.109 1.267.119-.385.05-1.185.029-1.267-.12Zm.796.033-.745-.1.004-.027c.257-.034.512-.05.748.084l-.007.043Zm-.782-.245c.032-.066.25-.074.468-.024l-.468.024Zm.017-.312.001-.024h.323v.024h-.324Zm.378-.12c.33-.01.66-.035 1.009.009a.488.488 0 0 1-.315.058c-.23-.027-.462-.045-.694-.067Zm.972-.074-1.414-.041a.51.51 0 0 1-.007-.024c.472-.066.95 0 1.423.039l-.002.026Zm-.461 1.918c-.128.087-.745.068-.962-.018.32.01.641.004.962.018Zm-.282.3-.592-.049v-.028c.2.001.396.035.595.055l-.003.023Zm.347.376c-.27.041-.519.034-.762-.05.202-.017.61-.096.762.05Zm-.432-.216.001.009-.602.048-.012-.088.613.031Zm-.67-3.829c.631-.042 1.348-.013 1.428.04-.476.124-.951 0-1.429-.04Zm1.662.154c-.01.017-.017.042-.025.042-.156.003-.313.015-.469-.006l.001-.036h.493Zm-.405-.272h.398c.085.155-.306 0-.398 0Zm-1.274.235a.87.87 0 0 0 .003-.035c.289.049.582.035.867.108v.021l-.87-.094Zm.091 4.533a1.96 1.96 0 0 1 .387.023c-.258.058-.344.056-.387-.023Zm.439 1.39a6.853 6.853 0 0 0-.028-.101l.333.125-.004.016-.197.01.057-.05h-.161Zm.144-.205c-.158-.033-.165-.155-.181-.276-.08-.21.14-.105.256-.107.075.005.13.114.12.191-.028.1-.054.235-.195.192Zm-.196-1.278-.001-.01a3.85 3.85 0 0 1 .726.016v.02a5.846 5.846 0 0 1-.725-.026Zm.245-.142c-.207-.003-.426.063-.625.015.02-.01.041-.026.063-.027.187 0 .378-.038.562.001v.01Zm.31 2.08.012-.042h.013v.274c-.08.005-.119.015-.19.003l-.022.04c.03-.148-.044-.17-.16-.148-.096.204-.36.19-.55.242-.062.01-.128-.004-.191-.011-.006 0-.008-.026-.016-.037-.01-.012-.024-.02-.037-.03-.013.003-.027.005-.04.006.035-.138-.006-.316.162-.37.07.092.1.148.082.278.455-.097-.165-.23.061-.46.054.035.093.049.127.08-.017.071.069.108.066.164-.007.106.067.066.107.065.078.001.081-.092.05-.145-.123-.027-.137-.15-.229-.242.06 0 .102-.014.13.002.19.094.391.106.581.002l.043.329Zm.074-1.609-.004-.012.036-.016c-.213.042-.418-.047-.63-.018l.002-.04.801.033.006.029-.211.024Zm-.549-.216v-.02c.268.032.545-.007.81.03-.123.093-.638.008-.81-.01Zm.703-.45c-.204 0-.408-.006-.611.002a2.253 2.253 0 0 1-.537-.049c-.069-.014-.062-.05-.069-.115.392.095.766.076 1.162.053.067-.006.129-.02.178.039-.025.052-.065.075-.123.07Zm-.486-.679h.631c-.1.06-.367.06-.631 0Zm.613-.61c-.073.067-.135-.01-.201-.02h-.029a.093.093 0 0 1 .029 0h.342c-.075.109-.068.034-.141.02Zm.16-.334-.462-.073.003-.025.465.053-.006.045Zm.032-.145-.39-.022v-.013h.391v.035Zm-.037-.359a1.132 1.132 0 0 0-.276-.021c-.213.012-.406-.079-.61-.12 0-.01.002-.02.004-.03l.955.103c.003.06-.003.084-.073.068Zm-1.084-.849c-.113-.01-.248.04-.356.005-.021-.013-.017-.068-.024-.102.53.085 1.063.031 1.598.085l.006.093c-.403-.071-.816-.049-1.224-.08Zm.995-.486c.134-.063.204-.056.231.026l-.231-.026Zm.608-4.334c-.118.269-.075.55-.026.829.015.138.024.278.024.416 0 .032-.045.063-.075.102-.062-.124.037-.25-.071-.36l-.1.298c-.003 0-.005-.002-.008-.003.023-.152.043-.303-.022-.45-.005.288-.128.538-.228.794.06-.32.11-.64.091-.997-.11.068-.05.257-.081.378a3.63 3.63 0 0 1-.133.656c-.02.063-.078.074-.155.084.102-.362.184-.71.173-1.085.006-.25-.186-.27-.237-.027l-.142-.105a.776.776 0 0 1 .168-.308c.12-.127.222-.269.326-.408.036-.047.073-.048.119-.03.08.05.436.1.377.216Zm-.666-.575c-.035-.15-.078-.283-.06-.446.017-.289-.035-.587 0-.88-.015-.597.044-1.197-.015-1.793a4.29 4.29 0 0 0-.005-.76 1.11 1.11 0 0 1 .021-.018c.278.158.531.36.783.557.14.144.387.245.299.483-.027.202-.108.385-.145.584-.07.217-.23.406-.277.635-.122.338-.203.677-.29 1.025-.192-.026-.265.461-.31.613Zm.005.449c-.022-.142-.167-.318-.007-.39.117.216.183.174.007.39Zm.95-.051c-.019.041-.062.053-.117.031-.23-.124-.734-.114-.636-.495.042-.145.028-.414.254-.361.243.078.572.11.676.38-.056.142-.112.295-.177.445Zm1.05-3.52a1.93 1.93 0 0 1-.067.382c-.017.063.025.149-.06.19.04.052.006.104-.003.154a.664.664 0 0 1-.138.346c-.11-.123-.067.133-.261.099-.001.117.084.09.175.104-.047.125-.153.265-.166.41-.054.165-.15.308-.227.46-.05.15-.097.299-.176.436-.028.054-.013.123-.086.14l.047.012c-.021.042-.064.052-.089.01-.042-.073-.122-.059-.177-.099-.029-.021-.06-.04-.095-.062l-.016.037a.222.222 0 0 0-.203-.073c.04-.406.248-.777.392-1.157.064-.166.036-.346.123-.505.046-.067.053-.161.077-.244h.004a.049.049 0 0 1 .004.007c.181-.602.076-.726-.43-1.063-.142-.08-.242-.21-.377-.288-.107-.108-.4-.367-.449-.08-.025.198-.04.393.001.59.035.309.04.618.033.928-.02.473-.021.948-.046 1.421.005.193-.016.388.038.58.03.108.035.225.036.339-.011.139-.453.077-.57.118a2.144 2.144 0 0 1-.55-.001c-.093-.029-.296.036-.328-.082-.015-.37.082-.733.045-1.105 0-.018-.022-.035-.034-.053l-.021.006a4.883 4.883 0 0 0-.013.084l-.017-.001.02-.22.071.094.027-.002c.001-.04.008-.082.004-.123-.007-.054.054-.117-.021-.162.066-.059.023-.15.03-.226.005-.278.329-.393.476-.596.29-.321.249-.363.093-.74-.144-.47-.33-.927-.481-1.395-.028-.114-.145-.227-.077-.346.05.063.068.22.173.194.293-.167.57-.393.617-.768.402.139.813.2 1.173.421.227.144.468.266.697.406.14.095.257.223.395.32.124.082.19.208.258.332.146.234.2.5.169.77Z"/><path class="cls-7" d="m20.079 1.486.051.018-.057.106c.079.05.085-.01.125-.067.136.178-.307.203-.12-.057Z"/><path class="cls-1" d="m19.72 1.362-.005.03H19.5v-.028c.075.007.147-.027.22-.002Z"/><path class="cls-8" d="m16.477.849-.008.028c-.067-.02-.134-.04-.2-.062l.008-.034.2.068Z"/><path class="cls-9" d="M16.273 1.867c-.182-.201-.168-.488-.136-.736.008-.117.095-.237.227-.215.248.042.387.306.382.55.02.242-.216.617-.473.4Z"/><path class="cls-7" d="M16.856 1.748c-.016.018-.034.036-.044.057-.092.174-.327.341-.518.241-.194-.11-.275-.296-.29-.51.007-.212-.07-.487.12-.64-.034.094-.097.186-.104.286.02.22.053.436.13.642.045.14.214.22.348.166.245-.1.325-.383.32-.622-.031-.168-.146-.294-.228-.445.272.176.561.499.266.825Z"/><path class="cls-10" d="M17.95 1.58c-.384.013-.764.043-1.09.287.315-.256.168-.503.057-.816.28.13.6.285.917.252.136-.021.076.187.115.278ZM19.802 1.503v.138a24.88 24.88 0 0 0-.634-.04c-.065-.003-.071-.05-.073-.097-.002-.068.042-.038.078-.036.21.014.42.002.63.035Z"/><path class="cls-3" d="M18.087 1.107a11.65 11.65 0 0 0-.098.053c-.001-.088-.001-.104.094-.083 0 .01.003.02.004.03ZM19.64 1.286c-.054.03-.1.008-.145-.028-.004-.003.01-.031.016-.047.044.016.087.032.128.054l.001.02Z"/><path class="cls-4" d="M21.759 4.74c-.175.054-.35.131-.536.101-.059-.005-.097-.042-.093-.102.015-.127.171-.09.261-.094.07.015.496-.057.368.096ZM21.877 4.537c-.113.045-.214.085-.314-.004-.012-.01-.037-.004-.057-.004-.558.06-.435-.264-.047-.164.142.054.305.062.418.172Z"/><path class="cls-1" d="M23.938 13.372c-.119.269-.075.55-.026.829.014.138.024.278.024.416 0 .031-.046.063-.075.101-.062-.123.036-.249-.071-.36l-.1.299-.009-.003c.024-.152.044-.303-.02-.45-.006.288-.13.538-.229.794.06-.32.11-.64.091-.997-.11.068-.05.257-.081.378a3.63 3.63 0 0 1-.134.656c-.02.063-.077.074-.155.084.103-.362.185-.71.174-1.085.006-.25-.186-.27-.238-.028l-.141-.104a.776.776 0 0 1 .167-.309c.12-.126.223-.268.327-.407.036-.047.072-.048.118-.031.08.051.437.101.377.217ZM19.624 1.75c-.007.114-.097.156-.16.211-.23.183-.227.442-.238.718-.188-.03-.365-.057-.541-.088-.042-.017-.048-.09-.035-.127.072-.244-.213-.408-.371-.54-.216-.154-.254-.44-.307-.682l.133-.071c-.07.24.145.36.194.552.075-.03.054-.075.032-.11-.075-.133-.087-.364.103-.406-.04.266-.031.466.169.671a3.53 3.53 0 0 1 .039-.02c-.02-.079-.028-.163-.062-.236-.083-.18-.044-.347.026-.516.043-.101.13-.09.224-.079a.568.568 0 0 0-.047.567c.037.063.117.296.209.19.004-.01-.005-.033-.016-.042a.498.498 0 0 1-.147-.554c.05-.128.23-.181.34-.102.022.016.054.019.094.032-.21.125-.24.093-.268.345-.048.1.022.257.171.256.152 0 .304.02.458.031ZM22.541 3.25l.027.012c-.086.24.151.322.173.16.007-.166.08-.294.166-.435-.191.076.082-.273.106-.347l-.17.064-.038-.146c-.603.223-.153-.584-.465-.905-.132-.163-.422-.082-.609-.086-.289.013-.556.016-.85.013-.027.3-.042.609-.003.907a3.852 3.852 0 0 1-.047.436c-.023.147-.006.173.14.167.248-.03.195.266.206.429-.01.27-.017.535-.048.804a.52.52 0 0 1 .395 0c.111.025.235.019.323.107.09.092.121.12.014.233.01.236-.423.213-.587.278-.046.38-.293 1.004.223 1.163.06.019.126.065.157.117.102.227.03.496.056.737.004.097.01.2.115.263.076.045.217.008.225-.08.014-.154.026-.312.007-.464-.02-.172-.02-.323.132-.436.151-.123.348-.225.456-.388.39-.727.304-1.561.214-2.352-.18.25-.516-.045-.318-.252Zm.154-.343c-.03-.033-.062-.064-.079-.106.102-.055.145.023.08.106Zm-.543 1.948c-.081.297-.204.673-.515.785.034-.154.276-.213.342-.512.101-.298.202-.623.069-.931-.033-.07-.048-.149-.063-.225-.049-.163-.185-.273-.267-.419l.02-.021c.357.312.586.858.414 1.323Zm.069-2.26c-.245.23-.598.095-.89.06-.128-.027-.198-.136-.25-.253-.023-.06-.07-.12-.067-.186.05-.313.286-.405.588-.383.164-.023.33.05.493.12a.387.387 0 0 1 .126.643Z"/><path class="cls-8" d="M4.121 3.123c-.137-.018-.166-.011-.402.092-.042-.095.059-.104.107-.159-.05-.075-.178-.038-.165-.15.007-.066.052-.09.107-.053.11.067.152.2.3.133.016-.005.036 0 .064 0l-.01.137Zm3.462-.76-.11.255c-.02-.11.045-.251.11-.255Zm-3.03.534.016.018-.081.149h-.066c-.03-.113.052-.124.132-.167Zm-.11.293v.224l-.008.001-.017-.223.024-.002Zm-.199-.436.042.004c.002.074.044.157-.031.209-.091-.06-.036-.133-.01-.213Zm-1.49 4.458c.404.56.581 1.172.622 1.862.007.193-.06.39-.03.584.07.276-.343.131-.467.07-.09-.073-.013-.217-.03-.317a6.768 6.768 0 0 0-.132-1.5c-.038-.163-.105-.32-.145-.484.032-.083.119-.137.181-.215Zm-.25 2.05c-.019-.3-.03-.6-.051-.9a1.644 1.644 0 0 0-.13-.597 1.042 1.042 0 0 1-.1-.557c.223.247.305.1.344.365.254.666.222 1.357.217 2.06-.084-.07-.153-.134-.23-.187-.072-.05-.045-.121-.05-.184Zm-.22-2.608c.002-.01.049-.024.057-.017.138.148.338.252.312.487.01.069-.02.128-.105.163-.187.077-.316-.256-.43-.367-.02-.092.158-.137.166-.266Zm.507-2.588c.034.163-.001.21-.15.207-.19.006-.373-.002-.513-.15.225.003.446.032.663-.057Zm-.731-.082c.109-.1.554-.099.687-.001-.1.105-.575.107-.687 0ZM2.639.19l.21.134c-.098.01-.156-.024-.222-.115L2.639.19Zm.154.28C2.744.515 2.65.488 2.6.416l.193.057Zm-.02.193L2.29.55c.22-.049.383-.016.484.115ZM2.245.32c.104-.047.204-.02.303.022l-.006.03-.299-.022.002-.03Zm.173.115V.45l-.404.02V.434h.405ZM1.662.275c.167-.021.343-.057.51-.014v.032C1.9.24 1.66.375 1.4.44c.052-.138.164-.147.262-.165Zm-.029.298L1.321.77c.001-.12.114-.19.312-.197ZM1.296.57l-.2.222c-.03-.074.077-.202.2-.222Zm-.104.272-.143.94c-.084-.41 0-.761.143-.94ZM1.165 2.33l-.032.001-.03-.679.04-.001c-.004.227.076.45.022.679Zm-.07.07H1.07l-.019-.424.016-.001.028.425Zm-.118-.56h.007v.446l-.007.002v-.447Zm-.476.597-.02-.186.027-.005.031.186a1.24 1.24 0 0 0-.038.005Zm.08-.395c-.08-.289-.05-.746.052-.886-.081.29-.033.58-.052.886Zm.107.301H.663v-.384h.025v.384Zm.185-.468H.844C.82 1.714.83 1.555.873 1.39v.484ZM.79 1.472C.763 1.358.83.994.925.896l-.135.576Zm.156.928-.03.004-.042-.345.025-.003.047.344Zm.709 3.232c-.113-.11-.22-.223-.334-.332C.644 4.578.733 3.441.94 2.552c.19-.029.32.1.332-.202-.038-.385-.077-.779-.058-1.169-.014-.274.177-.434.427-.507.424-.127.854-.032 1.258.112.029.012.057.051.065.083.066.296.148.593.111.9-.023.24-.058.478-.076.719a1.54 1.54 0 0 0 .058.508c.023.098-.054.112-.1.146-.04.029-.077-.004-.108-.041-.104-.117-.218-.153-.174.055-.186.058-.158-.082-.108-.21-.101.02-.14.065-.111.161.034.118.048.138.238.121l.083.646c-.28-.044-.55-.097-.808.046-.095.06-.08.216.002.26.249.155.508.212.796.15.27 1.576-.542 1.112-.576 1.698.021.215-.006.432-.047.644-.016.077-.078.097-.155.074-.108-.025-.248-.077-.233-.207.007-.088-.015-.177-.012-.265.005-.218.093-.47-.09-.642Zm-.074 1.05c.012-.007.055.017.06.034.14.403.386-.077.5.675-.092.124-.269.227-.37.038-.053-.08-.127-.144-.191-.217-.132-.136-.172-.416.001-.53ZM.317 10.435c.019-.166.03-.336.074-.496.094-.404.112-.817.196-1.222.038-.23.11-.449.122-.686-.001-.307.21-.56.341-.826.04-.098.12-.154.191-.22.083-.1.14.311.34.442.121.13.258.23.443.256.065.01.103.064.129.13.265.463.222.91.218 1.42-.313-.236-.305-.699-.504-1.01a.877.877 0 0 0-.309-.247c-.194-.077-.518.053-.528.29-.063.217-.1.243-.045.477.106 1.018.237 1.107.99 1.753.067.083.373.16.338.266-.03.357-.057.717-.083 1.075.008.187.043.364.05.557-.55-.006-1.076-.005-1.623-.03-.078-.025-.391.054-.37-.067.065-.62-.07-1.243.03-1.862Zm1.695 4.234c.042.239.088.477.127.716.016.221.11.452.033.668-.072-.539-.224-1.061-.342-1.59-.092-.61-.212-1.208-.251-1.825l.197.018c-.016.684.12 1.345.236 2.013Zm-.466 2.393c.043-.52-.05-1.033-.086-1.552-.05-.598-.241-1.186-.453-1.743-.172-.373-.153-.756-.157-1.15.13-.04.158-.015.167.109.017.225.025.453.07.672.167.655.321 1.31.408 1.983.053.319.004.65.112.959.091 1.13.059 2.269-.03 3.397-.035-.892.03-1.786-.03-2.675Zm.037 5.223c.146-.002.16.012.16.164 0 .061.009.123 0 .182-.017.18-.257.175-.306.048-.005-.154-.113-.434.146-.394Zm.03-1.67c.017.197.096.392.03.595l-.03-.596Zm.083 2.468c-.115.04-.275.06-.34-.07l.34.07Zm-.127-.139.219-.077c-.068.056-.13.13-.22.077Zm.187-.86-.02.005c-.061-.302.011-.622-.012-.93-.01-.47-.056-.94-.063-1.41-.02-1.086.118-2.176-.005-3.257-.088-.668-.137-1.342-.247-2.008-.138-.594-.352-1.18-.36-1.796-.004-.057.012-.091.08-.065.052.007.125-.013.119.067-.006.604.106 1.197.264 1.778.099.475.185.952.262 1.431.086.655.04 1.318.018 1.976-.053 1.402.024 2.808-.036 4.21Zm-.682-1.156-.008.001c-.06-.455-.047-.92-.036-1.378-.024-.826-.06-1.652-.08-2.478.009-.227-.038-.454-.03-.68-.005-.397.114-.803.023-1.195-.09-.323-.168-.652-.341-.944-.24-.503-.339-.554-.329-1.158.008-.157.03-.314.049-.47.006-.056.056-.062.124-.025.014.242.018.479.043.714.106.582.362 1.13.49 1.708.098.686.01 1.385.096 2.073.058.854.08 1.708.025 2.563.026.424-.005.846-.026 1.269Zm.115 1.24c-.096-1.334-.003-2.674-.01-4.01-.03-.762-.11-1.523-.099-2.286a4.988 4.988 0 0 0-.376-1.907c-.149-.377-.232-.768-.175-1.177-.008-.114-.049-.224.119-.187.035.391.006.79.13 1.17.215.667.442 1.339.469 2.046.077.614.034 1.235.036 1.849.047.497-.004.993.013 1.49-.017.77.04 1.538.038 2.309-.006.225.05.458.01.68l-.155.022Zm.796.713.049.07-.094.097.045-.166Zm-.038.373c.02-.018.01-.072.015-.128l.16-.147c.142.075.24.245.062.323-.05.017-.079.045-.056.085.125.125.154-.014.201-.123h.025l.04.371-.6.11c-.058-.112-.065-.238-.177-.298-.142-.05-.1.158-.106.24-.011.166-.2-.023-.347.1-.063-.264-.001-.522.02-.793.148.246.353.278.596.186.043.07.124.112.167.074Zm.09-3.49a20.573 20.573 0 0 1-.01-1.849c.047-.453.138-.9.061-1.356a20.668 20.668 0 0 0-.302-1.895c-.12-.47-.254-.934-.306-1.417-.024-.177-.036-.356-.049-.534 0-.069.108-.112.115-.014.061.575.134 1.15.233 1.72.127.59.291 1.178.373 1.777.095.646-.044 1.301-.06 1.952-.003.538-.05 1.074-.035 1.613l-.02.003ZM2.106 22l-.04.002c-.006-.523.027-1.047.057-1.569.014-1.007-.039-2.018.073-3.021a.096.096 0 0 0 .011-.005c.02.74.032 1.48.03 2.22-.036.79-.168 1.582-.131 2.373Zm.17.095c-.02-.353.014-.702.069-1.05-.038.349.004.704-.069 1.05Zm.181.09-.102-.023c.047-.626.038-1.26.07-1.885.034-.357.07-.714.067-1.074 0-.125.035-.25.073-.373-.078 1.116-.138 2.238-.108 3.355Zm.025-6.728.025.358-.018.002-.042-.357.035-.003Zm-.063-.654c.003.018-.01.04-.026.058-.132-.536-.17-1.085-.263-1.628l-.022.004c.083.893.27 1.765.362 2.658.068.992.153 1.99.01 2.979H2.47c.012-.35-.015-.697-.03-1.045.015-.677.013-1.357-.07-2.03-.128-1.051-.42-2.083-.46-3.143.115-.007.319-.135.33.048.026.403.161.81.061 1.212-.015.29.087.595.117.887Zm-.059-2.448c-.006-.18-.005-.36-.005-.539.006-.351.025-.699.12-1.04.158.062.27.136.226.317a2.572 2.572 0 0 0-.038.743 3.65 3.65 0 0 0 .007.505c.003.056.001.096-.078.072-.049-.014-.105.004-.156-.005-.029-.005-.075-.034-.076-.053Zm1.215 9.794H3.48c.034-1.402.002-2.807.045-4.208-.067-.65.022-1.315-.086-1.959l-.01.002.031.773-.027.002-.123-1.406.03-.003c.03.188.05.377.083.564-.002-.476-.135-.934-.207-1.401l.019.261c-.19-.71-.283-1.437-.416-2.163.098-.002.09.061.096.102.031.186.056.372.084.559a.385.385 0 0 0 .021-.003l-.077-.631c.111-.02.114-.01.125.085.018.16.046.32.072.48.102.664.255 1.32.321 1.99.088.922.1 1.846.12 2.771.035.438.058.875.049 1.315.059.952.049 1.92-.056 2.87Zm-.236.78c.094.005.15.002.233-.028-.031.083-.16.108-.233.029Zm.202.154c-.119.179-.365-.026-.388-.188.092.142.201.242.388.188Zm-.156-.354c-.037.004-.088-.001-.1-.04-.043-.458-.131-.432.295-.405-.015.17.078.512-.195.445Zm.013-1.49c.028-.338-.003-.681.039-1.018l.01-.001c.003.653.021 1.285-.077 1.938-.098-.217.028-.665.028-.919Zm-.32-8.746c-.094-.023-.323.006-.37-.079-.008-.206-.006-.412-.02-.617.01-.301.065-.575.085-.88.208.076.404.176.616.232.07.014.107.02.113.107.046.379.084.753.01 1.132-.017.194-.3.102-.434.105Zm-.12 9.607h-.04c.012-1.428.19-2.848.148-4.277-.003-.357-.062-.71-.095-1.064-.012-.187-.004-.376-.01-.565.003-.2-.039-.395-.014-.595.193.8.167 1.619.154 2.434.047.805.072 1.62-.03 2.423-.079.542-.081 1.097-.113 1.644Zm.075-.057c.008-.28.001-.561.02-.84.087-.776.162-1.551.13-2.331 0-.384-.028-.766-.048-1.149-.015-.48.062-.967-.032-1.443-.111-.85-.31-1.688-.395-2.54l-.024.003.103.882-.015.004c-.08-.236-.098-.487-.153-.73-.084-.19-.088-.395-.115-.599 0-.144-.125-.61-.057-.69.025.014.068.025.071.043.05.344.09.688.158 1.03l.029-.005c-.074-.322-.1-.652-.147-.979-.004-.036-.02-.08.04-.09.05-.008.066.021.072.064.065.66.224 1.302.33 1.955.112.804.133 1.615.215 2.422.06 1.18.055 2.361-.048 3.537-.005.51.013 1.024-.059 1.53-.051.002-.076-.016-.075-.074Zm.832.826c.005.009.032.04.026.05-.05.08-.05.198-.171.226-.01.003-.023.055-.015.062.04.032.117.103.135.014-.023-.104.069-.155.106-.23a.137.137 0 0 1 .061.022c.011.01.006.036.015.052.128.232-.101.214-.09.36.099.093.119-.056.154-.128a.312.312 0 0 0 .02.006l.027.243c-.184.043-.364.091-.545.121-.168-.002-.25-.271-.35.025-.093-.046-.2-.05-.292.07a1.106 1.106 0 0 1 .09-.793c.077.081.141.158.217.237.262.198.467-.15.612-.337Zm-.025-.77-.02.002c-.077-.831-.009-1.67.035-2.503.026.836.076 1.67-.015 2.501Zm.037-2.69-.02.003c-.053-.585-.01-1.17-.016-1.756-.034-.505-.085-1.048-.062-1.547.112 1.089.17 2.206.099 3.3Zm-.253-5.3c.003.273.089.526.121.793.051.542.144 1.08.15 1.624.03.38.083.756.126 1.134.063.96.003 1.923-.027 2.882-.004.476-.005.953.018 1.429.003.07.038.14-.085.176.015-1 .02-1.99.002-2.989.024-.577.042-1.154-.002-1.731a35.712 35.712 0 0 0-.6-4.4c.016.44.158.863.204 1.3-.123-.55-.27-1.096-.309-1.66l.042-.008.057.312h.007v-.335c.03.026.061.04.068.061.053.183.105.366.15.551.05.284.038.577.078.861ZM7.636 2.877l-.03-.002c.064-.21.008-.611.33-.57.081.004.105.07.134.122.145.255.294 1.236-.25.918-.17-.108-.219-.273-.184-.468Zm.128.553.01-.019c.586.325.5-.475.428-.816-.014-.122-.061-.252-.187-.328.27.007.243.397.291.592.05.361-.093.903-.542.57Zm-.118-1.285c-.362.15-.654.441-1.024.578-.135.054-.279.083-.422.124-.03-.448-.45-.355-.753-.345-.48-.095-.491-.002-.79.319-.058.043-.193.007-.212-.056-.023-.078-.084-.107-.15-.104-.146-.001-.111.144-.19.202-.094-.041-.214.036-.299-.07-.039-.047-.175-.039-.199.011-.077.14.077.247.027.387-.025.081.052.15.135.126.099-.01.35-.18.37-.022 0 .288.185.524.319.764.062.085.144.156.217.233.081.084.21.128.221.269.004.038-.003.08.01.114.047.104-.193.028-.199.211-.01.193-.005.387-.002.58.002.119.071.183.186.19.069.005.087.048.092.1.018.218.04.435.05.652.002.41.012.823-.015 1.232-.052.388-.097.78-.16 1.165-.067.189-.146.706-.29.805-.292.19-.613.237-.95.196-.067-.89-.24-1.803-.763-2.547-.21-.244-.136-.652-.48-.81-.061-.031-.117-.074-.102-.16.018-.133.026-.27.054-.401.069-.202.443-.205.505-.536.05-.259.061-.518-.008-.778-.016-.062-.032-.136.003-.212.105-.17.025-.364.002-.548a4.335 4.335 0 0 1-.042-.546c.046-.13.395.06.337-.303-.144-.467.022-.955.019-1.426-.025-.218-.083-.433-.132-.648-.013-.053-.05-.1.038-.12.143-.105-.034-.5-.135-.55a3.196 3.196 0 0 0-.73-.213C1.75-.014 1.274.136.98.47.827.633.662.796.552.992.378 1.315.4 1.689.418 2.044c-.02.562-.09.463.455.491A3.784 3.784 0 0 0 .98 4.95c.155.445.681.6.696.987 0 .123-.005.247-.018.37-.028.16-.183.258-.262.393-.04.061-.065.124-.133.168-.268.177-.457.468-.59.754C.418 8.343.31 9.105.16 9.854c-.07.396-.144.8-.133 1.203.034.35.088.698.044 1.051-.007.11-.017.222-.04.33-.011.055-.002.083.043.106.048.024.052.061.043.11-.067.294-.044.597-.007.893.036.166.096.344.217.469.102.185.206.37.297.562.073.155.142.314.145.493.012.266.06.532.06.798-.05.525.027 1.045.02 1.571.02 1.584.1 3.168.099 4.752-.094.243.135.127.269.128.107.002.078.163.088.232 0 .053.01.13-.018.155-.267.215-.295.837-.209 1.144.005.012-.005.03-.012.045-.016.036.049.197.086.208.587.05.383.023.444-.473l.268.376c.201-.039.246.168.539-.01.025-.013.06-.035.063-.057.064-.312.02-.84-.269-1.027-.354-.183-.336-.242-.322-.618.25-.062.49.092.721-.014-.08-.414.056-.817.039-1.236.037-1.36.111-2.719.067-4.08 0-.417-.018-.828-.098-1.237-.02-.318-.06-.635-.101-.95-.01-.282-.171-.622-.048-.885.1.2.09.41.15.62.088.329.108.666.131 1.005.088.682.11 1.368.051 2.052.039.275.027.55.014.826-.007.344.014.688.015 1.032-.024.424-.022.847.033 1.268-.037.483-.006.977-.09 1.455-.04.154.215.072.301.09.061.433.07.44-.16.81-.118.204-.387 1.093.045 1.052.367-.05.468.06.474-.383.183.152.374.32.624.218.136-.048.199-.14.196-.285-.012-.18.008-.378-.056-.55-.101-.155-.17-.405-.387-.422-.022 0-.064-.018-.066-.031a4.52 4.52 0 0 1-.017-.336c0-.014.023-.04.036-.041.569 0 .384.029.39-.534-.083-.522-.015-1.042.015-1.565-.014-.634 0-1.272-.03-1.906.013-.349-.067-.692-.018-1.042-.006-.566-.114-1.134-.211-1.69-.05-.394-.04-.792-.07-1.187-.03-.303-.102-.602-.147-.903-.035-.235-.067-.472-.099-.707-.007-.057.01-.093.08-.082.061.01.09-.03.083-.09a7.03 7.03 0 0 1-.05-1.383c.407-.11.828-.09 1.178-.343.14-.115.3-.21.432-.334.213-.241.41-.52.51-.83.062-.249.152-.493.227-.736.027-.182.037-.368.053-.552.022-.264.042-.527.002-.79.022-.626-.062-1.244-.147-1.863-.003-.021.009-.061.021-.064.11-.027.088-.119.089-.19.001-.142 0-.286-.018-.427.008-.307-.228-.168-.29-.367-.032-.692.797-.883.543-1.641.262.014.524.123.76.252.37.217 1.106.64 1.278.005.135-.477-.002-1.395-.684-1.159Zm-1.8 6.086c.007.303-.032.603-.067.904-.052.483-.186 1.037-.59 1.347-.155.088-.258.278-.454.279-.465.183-.51.154-.988.066-.202-.027-.411-.011-.613-.04-.438-.119-.818-.384-1.208-.607-.183-.098-.253-.309-.386-.459-.22-.32-.277-.713-.417-1.068-.043-.167.009-.33.068-.484.145-.197.51-.124.585.118.19.574.362 1.244.965 1.51.125.106.278.116.434.134.32.098.646.048.971.018.334-.048.614-.286.795-.562.239-.453.338-.98.386-1.487-.002-.305-.038-.609-.061-.913a2.311 2.311 0 0 0-.114-.56c-.06-.243-.062-.471-.103-.73.247-.004.46.005.7-.003.082-.004.115.015.115.108.063.49.017.987.014 1.482.033.316-.018.631-.032.947Zm.028-3.29c.002.131.001.264-.015.394-.017.14-.033.145-.177.142-.196-.034-.403.032-.595-.003-.164-.082-.406-.595-.081-.607.179.03.81-.097.868.074Zm-.188-.188c-.119 0-.225-.002-.332.001-.103-.008-.282.075-.303-.082.046-.42-.301-.224-.593-.78-.143-.251-.276-.516-.255-.814.01-.07.095-.063.153-.092-.008.15-.055.545.086.626.06.001.097-.038.096-.106.005-.192-.052-.454.13-.579.015.264-.056.571.104.804l.032-.007c-.047-.335-.177-1.231.368-1.173-.384.257-.323.856-.094 1.197.104-.076.02-.133-.01-.17-.195-.3-.157-.974.291-.99.12-.01.24-.014.36-.016.13.047.153.248.306.076l.056.106c-.187.068-.392-.023-.58-.056-.135-.037-.289.097-.336.205-.063.14 0 .264.025.394.043.232.241.29.419.368.068.03.17-.019.202-.094.084-.13.076-.382.21-.441.015.162-.033.36.218.396-.192.478-.649.605-.553 1.227Zm-.391-1.679c.201-.004.403-.002.617-.002-.082.161-.097.617-.343.492-.158-.064-.289-.157-.33-.336-.016-.057-.016-.143.056-.154Zm.98.231c.026.106-.083.216-.155.107-.017-.113-.045-.236.065-.312.058.06.111.114.089.205Zm1.051.062c-.323-.134-.634-.362-.986-.395-.373.024-.736.106-1.109.011.093-.122.186-.103.315-.089.125.017.254.029.376.056.105.05.193-.025.29-.034.308-.032.56-.212.837-.324.107-.042.2-.12.299-.182l.016.023c-.137.371-.023.72.237 1.002-.114.043-.19-.027-.275-.068Z"/><path class="cls-3" d="M6.274 3.305c.027.106-.082.216-.154.107-.017-.113-.045-.236.064-.312.059.06.112.114.09.205Z"/><path class="cls-4" d="M2.641 4.273c-.19.007-.373-.001-.513-.15.225.004.446.032.663-.057.034.164-.001.21-.15.207ZM2.747 3.983c-.1.105-.575.107-.687 0 .109-.1.554-.097.687 0Z"/><path class="cls-8" d="m4.57 2.915-.082.149h-.065c-.03-.113.052-.124.13-.167l.016.018Z"/><path class="cls-3" d="M4.255 2.967c-.09-.06-.035-.133-.01-.213l.042.004c.001.074.043.157-.032.209Z"/><path class="cls-10" d="m4.133 2.986-.012.137c-.137-.018-.165-.011-.402.092-.042-.095.059-.104.107-.159-.05-.075-.178-.038-.165-.15.007-.066.052-.09.108-.053.108.067.152.2.299.133.016-.005.036 0 .064 0Z"/><path class="cls-7" d="m7.583 2.363-.11.255c-.02-.11.045-.251.11-.255ZM7.764 3.43l.01-.019c.586.325.5-.475.428-.816-.014-.122-.061-.252-.187-.329.27.008.243.398.291.593.05.361-.093.903-.542.57Z"/><path class="cls-9" d="M8.07 2.427c-.029-.053-.053-.118-.134-.122-.322-.041-.266.36-.33.57l.03.002c-.035.195.015.36.184.468.545.318.395-.663.25-.918Zm-.32.535-.028-.012.06-.15.04.014-.071.148Zm.148.136-.04-.004.034-.323.045.003-.039.324Zm.17.202c-.058-.008-.091-.01-.055-.066.067-.226.06-.635-.13-.806l.016-.026c.03.019.076.031.087.058.137.266.117.55.082.84Z"/><path class="cls-10" d="M7.601 3.435c-.113.043-.19-.027-.275-.068-.323-.134-.634-.362-.986-.395-.373.024-.736.106-1.109.011.093-.122.186-.103.315-.09.125.018.254.03.376.057.105.05.193-.025.29-.035.308-.031.56-.211.837-.323.107-.043.2-.12.299-.182l.016.023c-.137.37-.023.72.237 1.002Z"/><path class="cls-6" d="m2.394 23.636-.6.11c-.059-.112-.066-.239-.178-.298-.142-.05-.099.158-.105.24-.012.165-.2-.024-.347.1-.063-.265-.002-.522.02-.793.147.245.353.278.595.186.044.07.124.111.168.073.02-.018.01-.07.015-.127l.16-.147c.142.075.24.245.062.323-.05.017-.08.045-.056.085.125.125.154-.015.201-.123l.025-.001.04.372ZM4.132 23.547c-.185.043-.364.09-.546.12-.167-.001-.25-.27-.349.026-.093-.046-.2-.05-.292.07a1.106 1.106 0 0 1 .09-.793c.077.081.14.158.217.237.261.198.467-.15.612-.338.005.01.032.04.026.05-.05.08-.05.198-.171.227-.01.003-.023.055-.015.062.04.031.116.103.135.014-.024-.105.068-.155.105-.231a.137.137 0 0 1 .062.022c.011.01.006.037.015.053.128.231-.102.214-.09.36.098.093.119-.056.154-.128a.312.312 0 0 0 .02.006l.027.243Z"/><path class="cls-1" d="M6.239 3.526c-.251-.036-.203-.233-.218-.396-.134.06-.126.312-.21.441-.032.076-.134.124-.202.094-.178-.077-.376-.135-.419-.368-.024-.13-.088-.254-.025-.394.047-.107.2-.241.336-.204.188.032.393.123.58.055l-.056-.106c-.153.172-.176-.03-.306-.076a5.49 5.49 0 0 0-.36.016c-.448.017-.486.69-.292.99.03.038.115.095.011.17-.229-.341-.29-.94.094-1.197-.545-.058-.415.838-.368 1.173l-.032.007c-.16-.232-.089-.54-.104-.803-.182.125-.125.386-.13.578.001.068-.036.108-.096.106-.141-.08-.094-.475-.086-.626-.058.029-.142.023-.153.093-.02.297.112.562.255.814.291.556.639.358.593.78.021.156.2.073.303.081.107-.002.213 0 .332 0-.096-.622.362-.749.553-1.227Zm-.068.058c-.103.03-.16-.061-.18-.166l.18.166ZM3.076 1.768c.036-.306-.046-.603-.111-.9-.008-.03-.037-.07-.065-.082C2.496.642 2.066.547 1.642.674c-.25.073-.441.233-.427.507-.019.39.02.784.058 1.169-.013.301-.142.173-.333.201-.207.89-.297 2.027.38 2.749.114.109.222.223.335.332.183.173.095.424.09.642-.003.088.02.177.012.265-.015.13.125.183.233.208.077.022.14.002.155-.075.041-.212.068-.429.047-.644.034-.586.846-.122.576-1.698a1.033 1.033 0 0 1-.796-.15c-.083-.044-.097-.2-.002-.26.258-.142.529-.09.807-.046l-.082-.646c-.19.018-.204-.003-.238-.12-.028-.097.01-.142.111-.161-.05.127-.078.267.108.209-.044-.208.07-.172.174-.055.03.038.068.07.107.041.047-.033.124-.048.1-.145A1.543 1.543 0 0 1 3 2.487c.018-.24.053-.479.076-.719Zm-1.045-.626c-.169.017-.335.02-.477.12.148-.127.27-.156.477-.12ZM1.675 4.02c.052.26.155.502.359.679l-.004.016c-.245-.067-.328-.39-.43-.598-.138-.362.123-.672.468-.755l.01.024c-.255.1-.479.338-.403.634Zm1.044-2.283c-.048.053-.075.136-.132.167-.242.124-.53.097-.793.102-.135-.004-.209-.101-.266-.212-.158-.208-.088-.2-.045-.411h.023l-.013.134c.166-.114.285-.256.487-.274.264-.052.431.14.648.216-.113-.23-.322-.293-.554-.317l.006-.027c.29.01.525.158.658.416.05.087.04.14-.02.206Z"/><path class="cls-8" d="M16.717 6.807c-.025.017-.054.027-.07.035-.004-.121-.02-.23-.012-.344-.003-.127.077-.34.014-.444-.1-.058-.062-.182-.14-.257-.115-.094-.093-.26-.166-.379-.064-.098-.144-.186-.22-.274-.433-.43-1.282-.112-1.631.287-.166.273-.103.642.068.899.015.144-.13.186.013.397.227.43.552.33.65.89-.09-.008-.25-.13-.267-.017-.066.373-.049.77-.215 1.116-.162.266-.257.57-.453.813l-.033-.004c-.152-.806-.269-1.643-.66-2.373-.255-.314-.54-.623-.94-.738-.233-.079-.448-.206-.677-.29-.057-.02-.067-.041-.066-.09.002-.205-.024-.43.072-.617.61-.668.78-1.5.98-2.354.028.227.253.196.303.026.191-.493.177-1.026.135-1.544a1.358 1.358 0 0 0-.493-1.01 1.223 1.223 0 0 0-.834-.237c-.15.002-.293.102-.451.037-.49.071-1.058.106-1.419.492-.235.254-.112.642-.156.955-.02.24.025.471.063.704.043.185.058.546.337.434.019.22.02.48.047.707.03.178.084.352.106.53.054.365.296.774.568 1.02.21.21.104.625.13.903-.203.022-.39.112-.468.312-.006.018-.032.035-.052.039-.395.053-.799.132-1.155.318a1.12 1.12 0 0 1-.239.15c-.376.222-.78.395-1.105.694-.697.48-.34 1.432-.22 2.112.066.463.31.877.364 1.343.12.561.046.51.579.324.07.228.213.436.243.67-.057.646-.317 1.248-.39 1.89-.073.42.005.85-.021 1.274-.033.264.015.533.016.8-.016.318.049.638.087.951.145-.014.277-.028.41-.037.02 0 .06.021.062.036.032.198.01.396-.011.593.017.54-.058 1.076-.066 1.616.008.658.04 1.318.095 1.973.002.036.002.09-.02.107-.269.243-.153.623-.159.938.152.473-.118 1.554.5 1.68.381.053.78.158 1.158.05.217-.05.43-.117.642-.185.092-.047.084-.176.063-.266-.072-.296-.419-.36-.67-.405-.235-.075-.702.07-.734-.278.02-.266.006-.53.061-.794.124-.519-.206-.598-.11-1.118.038-.417.065-.835.118-1.25.081-.395.06-.798.078-1.2-.043-.456.062-.907.118-1.359-.02-.151.87.053 1.01.04.143.015.047-.127.148-.16.095.012.34-.053.377.054.034.249.029.503.034.754a64.88 64.88 0 0 0 .021 3.05c.008.18.046.359.07.538.003.02.01.045.003.062-.044.1-.07.2-.08.311-.024.231-.084.458-.048.695.013.383.086.752.247 1.104.095.22.262.32.482.36.277.028.533.151.81.127.641.036 1.726-.372.61-.833-.158-.032-.324-.03-.488-.039-.65 0-.508-.674-.55-1.123.015-.193-.01-.401-.204-.496-.023-.013-.05-.042-.052-.065-.062-.699.017-1.4-.071-2.099-.044-.414-.009-.836-.005-1.253 0-.336.011-.67.081-1 .014-.065.032-.088.097-.085.214.009.428.013.642.018.102.001.111-.016.108-.114-.012-.854.064-1.707.165-2.553.035-.383.156-.755.114-1.142a7.584 7.584 0 0 1-.035-1.461c-.015-.251-.112-.5-.124-.75 0-.167-.077-.307-.106-.465.105.1.125.25.21.363.063.096.138.184.218.267.178.153.431-.001.506-.195.09-.202.216-.378.377-.529.216-.194.409-.419.499-.702.093-.284.204-.563.26-.859.076-.273.152-.545.29-.795.118-.165-.022-.259-.176-.299.196-.38.538-.472.9-.636.216-.065.132-.515-.098-.34Zm-2.268-1.159c.055-.321.443-.428.69-.577.612-.206 1.07.011 1.258.637-.366.03-.093.534-.334.763-.128.147-.26.328-.46.368-.078.01-.171-.032-.247-.06-.176-.024-.276-.14-.349-.288l.238.072c-.067-.136-.3-.068-.455-.394-.127-.253-.112-.268-.063-.538-.163.152-.021.53.078.69l-.215-.022a.886.886 0 0 1-.141-.65Zm.198.854c.172-.02.2.121.127.248-.109.03-.145-.163-.127-.248Zm-2.721-.269c.294.05.706.256.506.611-.05.115-.111.226-.168.338-.042.062-.077.259-.18.173-.614-.627-.27-.296-.187-.755.005-.119.018-.237.029-.367Zm-.555.397.37.074c-.097.183-.276.152-.37-.074Zm.422-.218a.156.156 0 0 1-.08.107c-.319.128-.333-.103-.298-.35-.012-.292.018-.555-.072-.842.202.114.396.081.603.05-.193.314-.095.687-.153 1.035Zm1.22-3.67-.016-.001.044-.42c.067.154-.032.272-.027.421Zm.33-.78c.07.162.007.314-.004.47l-.027-.002.03-.467Zm-.033.784.032.008-.13.372-.03-.01.128-.37ZM13.034.734l.142.206a.446.446 0 0 1-.021.014l-.141-.206.02-.014ZM12.641.46l-.397-.085a.513.513 0 0 1 .397.085ZM11.7.384c-.02.097-.079.075-.128.077l-.39.018-.002-.02c.17-.025.339-.05.52-.075Zm-.07.172c-.015.012-.03.035-.045.035-.227-.028-.457.024-.682.058 0-.01-.002-.022-.004-.033.144-.013.653-.18.73-.06Zm-.616.273-.01-.032.501-.134.012.044-.503.122Zm.153.09L10.927 1a.246.246 0 0 1 .234-.107l.007.026Zm-.916.983L10.23 1.9c-.015-.197-.017-.39.107-.57l-.085.573Zm-.106-.319c-.05-.174.07-.565.203-.646-.146.192-.163.422-.203.646Zm.025-.568c.066-.201.227-.302.413-.375-.148.115-.308.216-.413.375Zm.209 1.147c-.034-.199-.033-.397.073-.584l-.073.584Zm-.017-.979c.048-.134.113-.253.26-.319l-.072-.01c-.025-.05.185-.148.326-.14-.084.044-.131.068-.21.101l.01.018.34-.116c-.205.177-.485.24-.654.466Zm.345.088-.154.14c.013-.104.072-.133.137-.158a.93.93 0 0 1 .017.018Zm.066 2.833c-.2-.508-.225-1.067-.235-1.608-.02-.593-.124-1.203.574-1.436.545-.173 1.228-.16 1.68.226.191.23.174.548.226.825-.123.867-.164 1.765-.611 2.541-.156.27-.3.64-.66.652-.16.013-.33-.026-.439-.142-.258-.3-.387-.695-.535-1.057Zm.438 2.1c-.093.308.043.534.27.751l-.376.416c-.122-.18-.158-.405-.163-.614.016-.145.05-.592.27-.552Zm-2.165 5.123c.104.005.188-.012.28.06.132.104.29.175.44.253.157.083.298.178.36.365-.93-.192-.734.252-1.08-.678Zm.62-.142c-.145-.382-.29-.763-.368-1.166a16.8 16.8 0 0 1-.28-1.508c-.084-.57.682-.64 1.054-.86.08-.01.346-.168.335-.008-.017.169-.031.337-.048.505-.038.353-.077.707-.118 1.06-.088.492-.222.975-.347 1.459-.077.261-.147.528-.272.772-.059.083-.2-.08-.271-.107l.006-.022c.078-.03.371.016.308-.125Zm.895.98-.025.343c-.33-.032-.653-.07-.983-.104-.1-.015-.24.043-.252-.1-.016-.13-.033-.315.153-.298.204-.002.406 0 .606.061.163.056.336.038.5.098Zm.45 11.138c.177.036.421-.04.425.214-.176.289-.577.176-.864.216-.27.007-.544.03-.815.014-.423-.039-.328-.803-.384-1.126l.067.02c.01-.065.036-.127.007-.19l-.065.019c-.046-.23.158-.354.006-.355V22c.024.009.047.01.054.02.1.185.368.02.412.198.005.022.073.03.128.03-.068-.153-.16-.117.1-.192-.06.288-.145.415-.063.718.015.08.053.158-.018.238-.046.051-.071.045-.107 0a.2.2 0 0 0-.09-.087c-.074.097.058.199.153.174q-.041.21.051.37c.131-.114-.106-.184.08-.466.18.265.64.264.922.3ZM9.563 21.83c.173.118.34.028.515-.02-.039.152-.233.253-.364.175-.058-.04-.101-.102-.151-.155Zm.543-2.4c-.018.44-.06.881-.079 1.322 0 .271.007.544-.035.813-.023.127-.17.28-.301.178-.344-.194-.242-2.688-.158-3.129.163-.528.129-1.081.14-1.627.002-.046.028-.054.073-.045.132.026.265.045.412.07-.034.803-.084 1.612-.052 2.418Zm1.195-5.644c-.062.416-.047.831-.02 1.249-.002.594-.018 1.171.024 1.767-.405.021-.773-.057-1.173-.047-.313.016-.624.048-.937-.002-.097-.008-.103-.083-.11-.151-.065-.656-.022-1.315-.017-1.976.011-.443.038-.887.101-1.327.056-.234.165-.452.245-.682.146.017.294.047.442.047.218-.008.435-.068.656-.062.096-.004.12-.026.127-.122.009-.113.027-.227.027-.34-.073-.181-.37-.028-.47-.179-.225-.451-.487-.18-.276-.716.418-.92.472-1.95.53-2.946.008-.231.086-.466.036-.695-.121-.265-.831.224-1.058.267-.186.083-.389.183-.508.352-.002.538.115 1.07.164 1.604.05.407.244.78.309 1.184-.034.136-.515.073-.692.214-.226-.635-.42-1.258-.493-1.924-.052-.256-.232-1.15-.018-1.312.179-.2.387-.367.61-.514.595-.429 1.244-.827 1.98-.926.044.127.167 1.124.347.954.157-.14.285-.3.447-.436-.002.476-.017.951-.022 1.427-.01.468.07.936.03 1.403.02.525.11 1.061.029 1.584-.091.4-.029.808-.115 1.207-.058.368-.162.727-.195 1.098Zm.83 6.542c.034-.476.127-.952.16-1.43.04-.35.056-.701.065-1.053a5.824 5.824 0 0 1-.028-.848c.029-.073.137-.038.197-.025.07.069-.007.266.004.367-.01.383-.007.766-.004 1.15.021.666.15 1.323.13 1.988h.007c.048.409.081.816.03 1.226-.009.09-.145.137-.227.091-.089-.05-.134-.135-.172-.223-.082-.184-.085-.382-.102-.578-.019-.222-.06-.443-.06-.664Zm.801 1.875c.056.197-.006.207-.137.33-.04.093.09.198.125.283l-.026.007c-.113.091.008.124.08.186-.082.078-.158.004-.233.004-.066-.02-.088-.045-.16-.007.026.05.05.077.11.088-.09.167-.192.33-.148.534.14-.012.142-.16.24-.201.03.156.074.196.214.183l-.137-.15.241.104c-.001-.11-.098-.113-.137-.164-.049-.063-.102-.102-.16-.093-.06.06-.11.107-.16.156l-.033-.024c.045-.099.09-.198.14-.303.08.044.151.046.226-.046.068.173.043.373.258.191-.057-.015-.102-.013-.13-.052a7.89 7.89 0 0 1-.094-.504l-.027.002-.023.11h-.016c.016-.197-.085-.146.059-.254.067.259.105.57.43.61.14.01.277.063.413.103.183.065.386.095.55.202.245.24-.519.25-.643.27l.052-.162c-.12.077-.163-.002-.26-.01.004.082.084.1.146.166-.206.042-.403.006-.61.003-.149-.01-.304-.012-.445-.057-.088-.027-.157-.122-.229-.192-.084-.083-.08-.196-.089-.303l.003.002c-.078-.352-.077-.71-.055-1.069.273.184.523.194.665.057Zm-.082-.492c.096.297-.264.421-.456.255-.064-.066-.184-.149-.167-.25.294.256.343.323.623-.005Zm2.467-11.938c-.232.422-.538.807-.815 1.202-.058.054-.176.153-.245.053a5.59 5.59 0 0 0-.282-.323c-.262-.342-.404-.771-.505-1.185a3.678 3.678 0 0 0-.183-.676c-.085-.164-.1-.47-.24-.574-.007.031-.026.066-.019.094.072.352.245.67.31 1.023.095.55.176 1.104.266 1.655.06.438.163.882.128 1.325.032.4.015.8.058 1.198-.012.222-.065.442-.087.664-.046.85-.105 1.686-.105 2.54-.532.02-1.064-.06-1.594.02-.117.033-.257-.006-.385-.027-.02-.003-.032-.087-.036-.135-.007-.531-.123-1.061-.085-1.593-.014-.553.105-1.097.153-1.647.074-.368.057-.738.049-1.11.044-.376.067-.754.078-1.133a1.824 1.824 0 0 1-.013-.54l.083.003-.077-.07c-.054-.634-.152-1.301-.128-1.945 0-.048.023-.097.018-.144-.018-.143.062-.274.028-.425-.032-.137-.002-.286-.01-.43-.01-.194-.056-.35-.046-.553.077.071.14.125.194.184.084.068.273.412.386.284.136-.24.279-.48.358-.745.048-.121.011-.205-.03-.32.243.105.447.255.616.456.214.209.341.475.513.71.016.023.012.057.023.084.146.329.208.688.34 1.022.1.303.1.616.188.92.29-.032.383-.303.505-.518.16-.293.372-.567.409-.91.033-.088-.032-.284.076-.317.188.01.376.029.548.113-.015.622-.233 1.192-.442 1.77Zm1.364-2.746c.012.122-.083.125-.151.145-.11.032-.215.072-.32.114-.187.075-.381.276-.417.465-.115-.043-.439-.067-.49-.155-.059-.323-.28-.546-.516-.758.159-.19.072-.226-.04-.406.196.04.274.293.41.423.223.33.622.03.868-.135a.424.424 0 0 0 .173-.282c.03-.142.106-.268.103-.42.046.043.105.074.134.12-.013.096.05.185.001.29-.039.241-.212.365-.387.516-.064.062-.17.08-.207.168l.018.022c.625-.27.575-.4.707-1.028.051.04.025.108.02.163-.022.238-.056.494-.214.686-.059.095-.246.17-.21.296.107-.006.244-.214.33-.278 0-.007.002-.01 0 0a.02.02 0 0 0 0 .007c.007.021.018.042.027.062.117-.038.188-.16.312-.183.042.113-.136.082-.152.168Z"/><path class="cls-2" d="m10.562 12.165-.025.343c-.331-.032-.653-.07-.983-.104-.1-.015-.24.043-.252-.1-.017-.13-.033-.315.153-.298.204-.002.406 0 .606.061.163.056.336.038.5.098ZM12.432 6.844c-.05.115-.111.226-.167.338-.043.062-.078.259-.182.173-.613-.626-.268-.296-.186-.755.005-.119.018-.237.029-.367.294.05.706.256.506.611ZM11.482 6.955l-.376.416c-.122-.18-.158-.405-.163-.614.016-.145.049-.592.27-.552-.094.308.042.533.269.75Z"/><path class="cls-2" d="M11.612 11.481c-.091.4-.029.808-.115 1.207-.058.368-.162.727-.195 1.098-.062.416-.047.831-.02 1.249-.002.594-.019 1.171.024 1.767-.405.021-.773-.057-1.173-.047-.313.016-.624.048-.937-.002-.097-.008-.103-.083-.11-.151-.065-.656-.022-1.315-.017-1.976.01-.443.038-.887.1-1.327.057-.234.166-.452.246-.682.146.017.294.047.442.047.218-.008.435-.068.656-.062.096-.004.119-.026.127-.122.009-.113.027-.227.027-.34-.073-.181-.37-.028-.47-.179-.225-.451-.487-.18-.276-.716.418-.92.472-1.95.53-2.946.008-.231.086-.466.036-.695-.121-.265-.831.224-1.058.267-.186.083-.389.183-.508.352-.002.538.115 1.07.164 1.604.05.407.244.78.309 1.184-.034.136-.515.073-.692.214-.226-.635-.42-1.258-.493-1.924-.052-.256-.232-1.15-.018-1.312.179-.2.387-.367.61-.514.595-.429 1.244-.827 1.98-.926.044.127.167 1.124.347.954.157-.14.285-.3.447-.436-.002.476-.017.951-.022 1.427-.01.468.07.936.03 1.403.02.525.11 1.061.029 1.584Z"/><path class="cls-2" d="M15.76 8.004c-.015.62-.233 1.192-.442 1.769-.232.422-.538.807-.815 1.202-.058.054-.176.153-.245.054a5.59 5.59 0 0 0-.282-.324c-.262-.342-.404-.77-.505-1.185a3.678 3.678 0 0 0-.183-.676c-.085-.163-.1-.47-.24-.574-.007.031-.026.066-.019.094.072.352.245.67.31 1.023.095.55.176 1.104.266 1.655.06.438.163.882.128 1.325.032.4.014.801.058 1.198-.012.222-.065.443-.087.664-.046.85-.105 1.686-.105 2.54-.532.02-1.064-.06-1.594.02-.118.033-.257-.005-.385-.027-.02-.003-.032-.087-.036-.135-.008-.531-.123-1.061-.085-1.593-.014-.553.105-1.097.153-1.647.074-.368.057-.737.049-1.11.044-.375.067-.754.078-1.132a1.824 1.824 0 0 1-.013-.541l.083.004c-.031-.029-.048-.045-.077-.07-.054-.635-.152-1.302-.128-1.946 0-.048.023-.097.017-.144-.017-.143.063-.274.029-.424-.032-.137-.002-.287-.01-.43-.01-.195-.056-.351-.046-.554.077.071.139.125.194.184.084.068.273.412.386.285.136-.24.279-.48.358-.746.048-.121.011-.204-.03-.319.243.104.447.254.616.455.213.209.341.475.513.71.016.023.012.057.023.084.145.329.208.688.34 1.022.1.303.1.616.188.92.29-.032.383-.303.505-.518.16-.293.372-.566.408-.91.034-.087-.03-.283.077-.317.188.01.376.029.548.114Z"/><path d="M14.774 6.75c-.109.031-.145-.163-.127-.248.173-.02.2.121.127.248Z" style="fill:#d1d3d4"/><path class="cls-6" d="M15.14 5.07c-.248.15-.636.257-.691.578a.887.887 0 0 0 .141.65l.215.022c-.1-.16-.241-.537-.078-.689-.049.27-.064.285.063.538.154.326.388.258.455.393l-.238-.072c.073.15.173.265.349.29.076.027.17.068.246.06.202-.04.333-.222.46-.37.242-.229-.031-.732.335-.762-.188-.626-.646-.843-1.258-.637Zm-.41.554v.005l-.003-.003.002-.002c-.005-.176.154-.248.286-.326l-.286.326Z"/><path class="cls-10" d="M10.107 19.43c-.018.44-.06.881-.08 1.322 0 .271.008.544-.034.813-.023.127-.17.28-.301.178-.344-.194-.242-2.688-.158-3.129.163-.528.129-1.081.14-1.627.002-.046.028-.054.073-.045.132.026.265.045.412.07-.034.803-.084 1.612-.052 2.418ZM12.693 21.703c-.009.09-.145.137-.226.091-.09-.05-.135-.135-.173-.223-.082-.184-.085-.382-.102-.578-.019-.221-.06-.443-.06-.664.034-.477.127-.952.16-1.43.04-.35.055-.702.065-1.054a5.824 5.824 0 0 1-.028-.848c.029-.073.137-.038.197-.025.07.069-.007.266.004.367-.01.383-.007.767-.004 1.15.021.666.149 1.323.13 1.988l.007.001c.048.408.081.816.03 1.225Z"/><path class="cls-1" d="M11.946 5.377c-.193.314-.095.687-.153 1.035a.156.156 0 0 1-.08.107c-.319.128-.333-.103-.298-.35-.012-.292.018-.555-.072-.842.202.114.397.081.603.05ZM10.128 12.005c-.93-.192-.735.252-1.081-.678.104.006.188-.012.28.06.132.104.29.175.439.254.158.082.299.177.362.364ZM16.834 6.86c-.124.022-.195.144-.313.182-.009-.02-.02-.04-.026-.062l-.001-.007c-.086.064-.222.272-.33.278-.036-.125.151-.201.21-.296.158-.191.192-.447.215-.686.005-.055.03-.122-.02-.163-.132.629-.083.759-.708 1.028l-.018-.022c.037-.088.143-.106.208-.168.175-.151.347-.275.387-.516.049-.104-.015-.194-.001-.29-.03-.046-.089-.077-.134-.12.003.152-.074.278-.104.42a.423.423 0 0 1-.172.282c-.247.166-.646.466-.87.135-.134-.13-.212-.383-.409-.423.113.18.2.216.04.406.236.212.457.435.516.758.051.088.375.112.49.155.036-.19.23-.39.416-.465.107-.042.211-.082.321-.114.069-.02.164-.023.151-.145.016-.086.194-.055.152-.168Zm-1.59.176a.584.584 0 0 0 .394.11c.02-.003.044.022.077.041-.142.111-.492.034-.47-.151ZM12.794 1.287c-.453-.388-1.136-.4-1.68-.227-.699.233-.595.843-.575 1.436.01.541.034 1.1.235 1.609.148.362.277.757.535 1.057.11.116.278.155.44.142.359-.012.503-.383.659-.652.447-.776.488-1.674.612-2.541-.053-.277-.036-.594-.226-.824Zm-2.102.403c.272-.028.547-.054.778.141.241.18.063.774.08 1.063.034.276-.04.55-.067.823-.033.145.166.156.194.033a.73.73 0 0 0 .017-.26c-.08-.427.035-.85.104-1.271.05-.233.228-.455.48-.47.145.005.516.007.525.184-.067.132-.36-.137-.538-.08-.171.012-.344.09-.383.268a2.747 2.747 0 0 0-.125.658h.01c-.011.189-.033.378-.001.564.075.13.203.176.097.36-.043.049-.123.032-.142.114-.01.042-.182.106-.216.084-.035-.022-.076-.057-.084-.093-.028-.117-.19-.051-.175-.263.003-.079.013-.152.089-.197.16-.02.137-.15.147-.254.014-.368.12-.755.026-1.118-.146-.318-.551-.089-.814-.15-.025-.002-.069-.043-.065-.053.011-.033.038-.08.063-.083Zm.022.624c-.195-.221-.18-.35.13-.366.21.007.364.098.497.223.028.026.03.121.006.154-.162.265-.461.228-.633-.012Zm.327 2.008c.016-.053.105-.24.167-.235-.164.44-.106.566.222.907-.287-.035-.45-.413-.39-.672Zm.583.49c-.23.015-.557-.3-.296-.51.064-.044.131-.105.22-.046.046.03.089.045.148.014.094-.037.25.074.292.167.017.043.04.084-.01.13-.1.14-.167.252-.353.245Zm.555-.22c.008.151-.077.261-.185.386.024-.155.149-.249.137-.395-.011-.132-.002-.267-.002-.383.08.107.042.253.05.392Zm.251-2.016c-.223.018-.348-.114-.444-.285-.01-.016.001-.055.016-.072.43-.508 1.296.3.428.357Z"/><path class="cls-8" d="M18.994 5.307c.034.198.074.394.122.59.007.069.076.144.01.202-.13-.142-.122-.59-.153-.79l.02-.002ZM20.28 7.864c-.155-.102-.221-.285-.343-.433.032-.058.056.014.08.033.13.099.212.234.279.38l-.017.02ZM20.182 7.096l.462.11c-.08.06-.304.045-.394-.026-.03-.023-.097-.034-.068-.083ZM20.324 9.499c.014.132.03.264.043.397.003.036.016.091-.056.07-.007-.162-.085-.329-.01-.48l.023.013ZM20.313 10.862c.017.122-.097.191-.132.296h-.107l.211-.313.028.017ZM18.826 4.943c.002-.082-.142-.435.021-.395v.39l-.02.005ZM18.703 5.73c.014.017.04.033.042.051.008.118.039.227.098.328.008.013-.002.036-.004.053-.08-.01-.125-.327-.168-.412l.032-.02ZM20.555 11.528c-.104-.106-.078-.202.01-.293.068.051-.01.208-.01.293ZM20.663 7.877c.089-.01.245.052.263.1-.13.021-.196-.003-.263-.1ZM20.222 11.945l.244.12c-.072.065-.195.01-.244-.12ZM20.039 8.172c-.107.036-.188-.01-.24-.156l.24.156ZM18.787 5.395c-.043-.057-.081-.307.022-.28.038.032-.002.232-.023.28ZM19.235 6.342l.188.157c-.045.012-.22-.057-.224-.095-.002-.019.023-.042.036-.062ZM19.34 6.673c.01.106.147.116.114.231-.085-.029-.109-.113-.158-.174-.002-.003.02-.025.044-.057ZM20.16 8.324l.177.13c-.117.032-.207-.015-.2-.128l.024-.001ZM20.021 12.58c0-.103-.065-.21.024-.308.032.104-.033.204-.024.307ZM19.85 10.857l.136.129c-.052.038-.107.025-.143-.017-.017-.02.003-.07.007-.112ZM19.917 10.447c-.063-.072-.032-.143.08-.179l-.08.18ZM19.004 3.804c.065.078.014.145.016.21-.098.062-.027-.156-.016-.21ZM20.755 8.67l.03.15-.018.016c-.1-.025-.055-.095-.05-.169l.038.003ZM19.34 7.32l.092.2c-.11-.01-.123-.082-.091-.2ZM21.313 7.91c-.009.056-.018.222-.099.123.02-.047.043-.092.065-.138l.034.015ZM21.077 8.538c-.04-.125.024-.156.104-.176-.03.053-.062.105-.104.176ZM20.776 8.327l.162-.05.01.028a.158.158 0 0 1-.162.057l-.01-.035ZM20.541 10.44c.025.033.05.065.072.1-.02.052-.07.026-.093-.007-.01-.022-.002-.053-.002-.08l.023-.013ZM19.555 12.003l.039.122a2.905 2.905 0 0 1-.017.02c-.084-.03-.074-.066-.06-.141h.038ZM20.722 7.598l.037.115c-.092.042-.098-.073-.061-.13l.024.015ZM20.169 8.904l-.063.15c-.06-.06-.04-.111.063-.15ZM19.863 11.715c-.066-.069-.062-.092-.027-.164l.027.008v.156ZM20.819 7.12l.033.12-.042.013-.037-.118.046-.014ZM20.518 8.109l.129.056-.102.056-.027-.112ZM19.017 6.613a92.882 92.882 0 0 1-.043-.158l.035-.01.043.158-.035.01ZM22.94 7.724c.079-.069.295.005.503.14l-.026.058-.476-.198ZM24.367 9.233c.113.063.268.098.328.22-.12.011-.284-.092-.352-.19l.025-.03ZM22.352 11.83c.186-.036.177.183.296.186.003 0 .02.052.012.06-.018.02-.066.041-.072.034-.08-.086-.152-.178-.236-.28ZM23.834 8.243c-.08.104-.223.034-.335.038-.155-.128.263-.05.316-.057l.02.019ZM22.567 11.462l-.008-.05c.035-.043.214-.013.163.064-.051.034-.102.07-.157.095-.027.01-.106-.009-.092-.053.025-.019.053-.033.093-.056ZM22.716 8.162a.54.54 0 0 1-.363.102c.027-.035.04-.068.062-.076.097-.028.197-.079.3-.057l.002.031ZM24.222 11.728c-.001.022.006.054-.005.064-.016.013-.063.02-.067.012-.047-.04-.085-.32.024-.22.022.046.04.093.059.14l-.011.004ZM24.225 8.91c-.119 0-.265-.113-.262-.204.085.043.165.082.242.127.015.009.013.046.02.076ZM25.041 10.039c.014.123-.054.196-.171.188.014-.113.081-.19.171-.188ZM22.037 11.465c.056-.066.09-.133.178-.149.027.098-.103.283-.178.149ZM22.677 10.797c.075.047.175.068.197.163-.09.04-.147-.05-.216-.094-.041-.032-.01-.049.02-.07ZM24.574 9.722c.086.01.18-.028.266.046-.09.086-.204.052-.28-.021l.014-.025ZM23.78 8.697c-.067.08-.244.153-.266.046.06-.078.172-.036.265-.046ZM22.741 8.43c.072.042.132.075.19.112.07.15-.203.036-.19-.112ZM24.323 8.263c-.062.074-.189.075-.256 0 .086-.06.168-.042.256 0ZM22.603 7.692l.237.129c-.11.042-.24-.028-.237-.13ZM22.518 9.698c.002-.07-.023-.146.048-.19.097.053.052.207-.048.19ZM22.477 8.903c.043.029.082.05.115.08.005.004-.023.058-.026.057-.068-.014-.227-.082-.089-.136ZM22.524 10.883c-.008-.08-.054-.153.031-.201.015.018.046.042.042.053-.017.05.018.128-.073.148ZM24.839 8.787l.085.054c-.052.05-.079.123-.192.093l.107-.147ZM24.553 10.768c-.069-.047-.14-.064-.119-.158.08.015.155.053.119.158ZM22.165 12.062c-.058-.021-.165.006-.174-.076 0-.009.02-.029.025-.027.054.018.107.04.16.061l-.01.043ZM22.212 8.651l.145-.147c.017.108-.032.16-.145.147ZM22.384 12.642c-.088.043-.108-.15-.083-.22l.083.22ZM22.87 10.178h-.16c.03-.104.119-.093.16 0ZM22.234 8.29c-.056-.006-.13.05-.17-.051.072-.005.134-.02.17.05ZM24.697 8.572c.015.093-.05.073-.1.074-.013-.074.001-.085.1-.074ZM22.095 1.954c-.163-.07-.329-.144-.493-.121-.302-.022-.539.07-.587.383-.003.066.043.126.066.186.052.117.122.226.25.253.292.035.645.17.89-.06a.387.387 0 0 0-.126-.641Zm.147.283c-.058.096-.12.164-.23.177l-.015-.094c-.024.021-.049.033-.057.052-.074.15-.248.08-.37.054-.1-.026-.123-.109-.11-.233.017-.202.286-.112.422-.112.134.019.244.084.36.156Zm-.227-.253c-.316-.037-.62-.007-.907.14.078-.345.673-.272.907-.14Zm-.597.11-.036.287c-.317-.167-.23-.164.036-.287Zm.074.525c-.128-.03-.351-.074-.336-.24.342.21.725.296 1.083.075-.122.267-.507.244-.747.165ZM22.152 4.855c-.081.297-.204.673-.515.785.034-.154.276-.213.342-.512.101-.298.202-.623.069-.931-.033-.07-.048-.149-.063-.225-.049-.163-.185-.273-.266-.419l.019-.021c.357.312.586.858.414 1.323ZM22.695 2.907c-.03-.033-.062-.064-.079-.106.102-.055.145.023.08.106ZM21.806 8.514c-.003.516.175.997.354 1.473l-.064.034c.054.023.078.053.025.1-.035-.024-.053-.041-.04-.097-.064-.243-.181-.496-.238-.747-.043-.166-.06-.339-.086-.51a1.093 1.093 0 0 1-.013-.202c0-.017.041-.033.064-.05l-.002-.002ZM21.616 9.484c.014.022.036.041.04.065.052.271.097.538.14.813-.063.02-.084-.003-.092-.078-.037-.263-.091-.524-.12-.789l.032-.01ZM21.752 9.291c.059.148.077.31.12.463.02.041.01.086.01.13-.023-.017-.058-.029-.068-.051-.085-.177-.185-.345-.099-.543l.037.001ZM21.912 10.444c-.01-.097.021-.138.135-.143l-.111.158-.024-.016ZM21.522 10.646c-.076.026-.11 0-.143-.099.063-.017.071-.012.143.1ZM21.703 9.074c-.067-.014-.067-.086 0-.184v.184ZM21.68 10.611l.011-.102.057.007-.017.102-.05-.007ZM21.909 10.117v-.123c.015.007.043.018.042.02-.011.033.056.084-.042.103ZM21.696 8.708l-.025.104-.029.002c-.005-.053-.042-.107.033-.123l.02.017ZM19.028 3.101c-.028-.18.263-.12.248.017-.002.077-.055.12-.147.12-.088 0-.101-.017-.1-.137ZM24.254 12.952c-.003.282-.415-.024-.23-.166.04-.032.166.004.187.047.022.045.035.095.043.119ZM21.215 12.394c-.044.002-.062.108-.112.032-.017-.025-.008-.1.012-.11.076-.044.057.06.1.078ZM2.738 1.531a.743.743 0 0 0-.658-.416l-.006.027c.232.024.441.087.554.317-.217-.077-.383-.268-.647-.216-.203.018-.322.16-.488.274.005-.052.01-.093.013-.135h-.023c-.043.213-.113.204.045.412.057.11.132.208.266.212.263-.005.551.022.793-.102.057-.031.084-.114.132-.167.059-.067.07-.119.02-.206ZM1.8 1.395l.011.08c.07-.18.27-.12.42-.112.123.008.15.114.165.197-.02.348-.684.272-.582-.088l-.003.003c-.064.067-.035.182.019.253l-.019.02c-.273-.158-.313-.18-.012-.353Zm.056.579c-.176.012-.272-.142-.332-.285l.017-.016c.342.21.706.245 1.09.123-.109.213-.565.147-.775.178Zm.488-.201c.097-.087.113-.19.092-.319l.266.169c-.08.106-.204.157-.358.15ZM2.034 4.699l-.004.016c-.245-.068-.328-.39-.43-.598-.138-.362.123-.672.469-.756l.01.025c-.256.1-.48.338-.404.634.052.26.155.502.359.679Z"/><path class="cls-8" d="M2.031 1.142c-.169.017-.335.02-.477.12.148-.127.27-.156.477-.12ZM1.397 7.586c-.044.063-.127.067-.177.116-.121.13-.212.277-.278.446-.098.242-.067.495-.119.744-.001.153.08.313.051.462-.208-.202-.059-.659-.058-.924.01-.27.18-.486.305-.714.056-.097.185-.163.276-.13ZM6.171 3.584c-.103.03-.16-.061-.18-.166l.18.166ZM2.685 8.42c.013.083-.05.093-.112.09-.25-.039.096-.408.112-.09ZM2.612 8.091c-.177.02-.152-.118-.103-.222.037.011.087.013.106.038.03.052.04.13-.003.185ZM2.69 9.01c-.132-.041-.171-.111-.13-.213.006-.018.046-.043.056-.038.118.046.082.145.073.25ZM2.557 7.6c-.065.043-.103.088-.146.093-.163-.006-.062-.375.146-.093ZM2.62 9.253c.162-.024.16.224.028.188-.036-.015-.062-.077-.074-.122-.005-.02.036-.052.047-.066ZM5.172 5.332c-.153.022-.237-.197-.154-.31.201-.202.507.33.154.31Zm-.044-.149c.022-.03.042-.052.052-.076-.008-.039-.08-.049-.105-.017-.033.04.015.142.078.13l-.025-.037ZM8.068 3.3c-.058-.008-.091-.01-.055-.065.067-.227.06-.636-.13-.806l.016-.027c.03.019.076.032.087.058.137.267.117.55.082.84Z"/><path class="cls-8" d="m7.937 2.775-.039.323-.04-.004.034-.323.045.004ZM7.822 2.814l-.071.148-.03-.012.06-.15.041.014ZM2.426 11.544c.066-.223.169-.065.187.077-.062.067-.186.075-.187-.077ZM2.601 12.182c-.025.032-.044.078-.076.09-.06-.012-.17-.136-.096-.203.062-.046.18.016.172.113ZM2.665 11.122c-.043.04-.066.08-.096.086-.048.012-.108-.06-.096-.12.009-.041.047-.076.071-.113l.121.147ZM13.384 12.684c-.245-.024-.455-.04-.664-.068-.208-.048-.19-.289-.179-.458-.014-.262.776-.072.939-.053.179.003.194.186.2.324.02.165-.198.218-.296.255Zm-.038-.186.002-.012c.078.005.201.005.247-.061.03-.072-.02-.205-.07-.22a1.956 1.956 0 0 0-.735-.082c-.129.005-.133.016-.133.147-.006.048 0 .129.044.15.214.04.431.034.645.078ZM12.395 12.863c-.038-.215-.077-.43-.034-.65.035-.173-.033-.35.114-.494-.044.214-.103.422-.11.642-.007.166.058.333.065.501l-.035.001ZM10.698 12.494c.072-.24-.041-.482.005-.717.091.227.037.461.018.696-.001.007-.015.013-.023.02Z"/><path class="cls-8" d="M10.698 12.493a1.9 1.9 0 0 1-.065.488l-.025-.005.09-.482ZM12.277 1.749c-.251.015-.43.237-.48.47-.068.42-.182.844-.103 1.272a.727.727 0 0 1-.017.259c-.028.123-.227.112-.194-.033.028-.273.1-.548.067-.823-.017-.289.161-.883-.08-1.063-.231-.196-.506-.17-.778-.141-.025.002-.052.05-.064.083-.003.01.04.05.065.054.263.06.669-.17.815.15.094.362-.013.748-.027 1.117-.01.105.013.233-.147.254-.075.045-.085.118-.088.197-.016.212.147.146.175.263.007.036.05.07.084.093.034.022.205-.042.215-.085.02-.08.1-.064.142-.114.107-.183-.02-.229-.096-.359-.033-.186-.01-.375.001-.563l-.01-.001c.01-.224.06-.444.125-.658.039-.178.211-.256.383-.268.178-.057.471.212.538.08-.009-.177-.38-.18-.526-.184Zm-.865 1.921-.04.007c-.086-.109-.1-.242.07-.29l-.03.283Zm.356-.247c.133.15.122.24-.027.279l.027-.279Z"/><path class="cls-1" d="m11.442 3.386-.03.284-.04.007c-.086-.11-.1-.242.07-.29ZM11.74 3.702l.028-.279c.133.15.122.24-.027.279Z"/><path class="cls-8" d="M12.002 2.219c-.015.017-.026.056-.016.072.096.171.221.303.444.285.868-.056.002-.866-.428-.357Zm.539.01c.027.216-.265.179-.265.019-.002-.168.273-.215.265-.018Zm-.44.047c-.033-.083.096-.109.144-.152l.026.011c-.076.107-.031.191.056.286a.403.403 0 0 1-.226-.145Zm.241.167c.185-.015.216-.076.274-.254.043-.01.093.038.14.162-.13.102-.263.177-.414.092Z"/><path class="cls-11" d="M12.327 2.421a.403.403 0 0 1-.225-.145c-.034-.083.095-.109.143-.152l.026.011c-.076.107-.031.191.056.286ZM12.756 2.351c-.13.102-.263.177-.413.092.184-.014.215-.076.273-.254.043-.009.093.038.14.162Z"/><path class="cls-11" d="M12.276 2.248c-.002-.168.273-.215.265-.019.027.216-.265.179-.265.019Z"/><path class="cls-8" d="M11.988 4.437c-.043-.094-.198-.204-.292-.167-.06.03-.102.017-.147-.014-.09-.06-.157.002-.22.046-.262.21.066.525.295.51.186.007.255-.106.353-.246.051-.045.028-.086.01-.13Zm-.298.275c-.124-.03-.415.022-.384-.183l.559.073c-.042.085-.095.12-.175.11Zm-.387-.291c.053-.139.192-.179.297-.058.122.054.223-.126.315.141-.217-.04-.41-.024-.612-.084Z"/><path class="cls-4" d="M11.865 4.602c-.042.085-.095.12-.175.11-.124-.03-.415.022-.384-.183l.559.073ZM11.915 4.504c-.217-.04-.41-.023-.612-.083.053-.14.192-.18.297-.058.122.054.223-.126.315.141Z"/><path class="cls-8" d="M11.34 2.171a.737.737 0 0 0-.496-.223c-.31.016-.325.145-.13.366.172.239.471.276.633.011.025-.033.022-.128-.006-.154Zm-.221-.012c-.02.174-.25.144-.248-.025-.001-.19.256-.116.248.025Zm-.431-.138c.041-.023.096-.026.145-.03.006 0 .029.053.02.062-.062.072-.03.141.002.22-.127-.01-.257-.138-.167-.252Zm.158.334h.384c-.16.13-.206.137-.384 0Zm.287-.052a.78.78 0 0 0 .043-.194c.186.093.134.16-.043.194Z"/><path class="cls-11" d="M11.23 2.355c-.16.13-.206.137-.384 0h.384ZM10.855 2.274c-.127-.011-.257-.139-.167-.253.041-.023.096-.025.145-.03.006 0 .029.053.02.062-.062.072-.03.141.002.22ZM11.119 2.16c-.02.174-.25.143-.248-.026-.001-.19.256-.116.248.025ZM11.133 2.303a.78.78 0 0 0 .043-.194c.186.093.134.16-.043.194Z"/><path class="cls-8" d="M11.43 4.994c-.287-.035-.45-.413-.39-.672.017-.053.106-.24.168-.235-.164.44-.106.566.222.907ZM12.179 4.592c.008.151-.077.261-.185.386.024-.155.149-.249.137-.395-.011-.132-.002-.267-.002-.383.08.107.042.253.05.392ZM16.058 5.562c.082.022.08.106.083.156.025.24.016.494-.156.684a3.186 3.186 0 0 1-.025-.014c.018-.042.027-.093.057-.125.15-.206.048-.47.043-.703l-.002.002ZM14.727 5.626l.003-.002v.005l-.003-.003zM15.015 5.298l-.285.326c-.006-.176.153-.248.285-.326Z"/><path class="cls-8" d="m16.06 5.56-.266-.29c.122.03.272.199.264.292l.002-.002ZM15.775 6.01l.053-.296.023.003c.021.105-.023.2-.045.299l-.031-.005ZM9.741 23.125c-.012.13-.137.276-.028.375.078.073.123-.012.209-.017l.016.023c-.224.217-.078.125-.298.089-.02-.046-.007-.132-.03-.184-.033-.096.005-.18.042-.261.008-.017.055-.016.09-.025ZM10.415 23.566c-.102.088-.245.076-.372.099-.014.001-.031-.032-.047-.05a.894.894 0 0 1 .414-.083l.005.034ZM10.198 23.304c.1-.159.194-.035.257.066-.09-.02-.164-.04-.257-.066ZM10.614 23.473l.24.082.007.027c-.022.01-.047.033-.067.03-.169-.028-.185-.04-.18-.139ZM9.753 22.561c.084.232.087.268.025.293-.08-.215-.084-.25-.025-.293ZM9.637 22.796c-.042.074-.072.147-.116.218-.002.002-.031-.01-.03-.015-.005-.096.005-.245.146-.203ZM9.456 22.626c.07-.04.12.012.18.044-.082.063-.12.045-.192-.019l.012-.025ZM9.832 22.313l-.01.192c-.067.07-.114-.144.01-.192ZM9.825 22.557l.084.006c.004.071.034.127-.003.187-.076-.024-.051-.119-.081-.193ZM11.14 23.482c-.054.034-.093.06-.136.082-.002.002-.022-.029-.033-.044.037-.028.074-.057.113-.082.005-.002.025.02.056.044ZM10.787 23.353c.06.1-.079.135-.11.071-.002-.084.074-.038.11-.071ZM9.549 22.473c.021-.045.035-.074.05-.102l.025-.001.03.102H9.55ZM11.235 23.397c-.009.054.045.125-.066.12.005-.049-.024-.103.066-.12ZM9.6 22.233c.064-.085.093.036.158.001-.056.058-.097.055-.158 0ZM10.137 23.354l.045.1-.019.02c-.064-.033-.084-.05-.054-.124l.028.004ZM12.794 22.75c-.092.065-.165.154-.289.114-.075.004-.042-.056-.05-.086-.018-.067-.026-.136-.038-.205l.02-.01.061.076.073-.02v-.08c-.071-.045-.34-.052-.208-.172l.224.083.155-.085.023.027c-.062.04-.018.13-.108.17-.034.014-.03.113-.044.174.08.022.137-.072.181.013ZM13.901 23.454c.018.089.124.102.18.162l-.014.034c-.122-.004-.182-.13-.316-.104-.036.008-.117-.003-.106-.096-.055.047-.157.024-.138-.057.034-.035.218-.05.261-.028l-.069.081.205.01-.003-.002ZM13.296 23.276c.066.06.133.12.196.184-.003.08-.116.064-.175.074-.056.005-.072-.024-.06-.079a21.7 21.7 0 0 0 .06-.006l-.04-.17.019-.003ZM12.323 23.215c-.011-.07.02-.203.114-.138-.005.03-.04.063-.029.09l-.009.119-.029.002c-.013-.021-.042-.061-.047-.073Z"/><path class="cls-8" d="m13.904 23.457-.055-.072c.05-.055.101-.013.157.006-.017.061-.046.07-.105.063l.003.003ZM12.998 23.661c.079-.08.086-.058.154-.002-.06.042-.083.05-.154.002ZM15.715 7.187c-.142.111-.492.034-.47-.151a.584.584 0 0 0 .393.11c.02-.003.044.022.077.041ZM21.871 2.274c-.054.051-.089.112-.123.112-.047 0-.094-.046-.138-.076-.042-.033-.02-.093-.017-.138a.4.4 0 0 1 .278.102ZM2.064 1.445c.054-.02.096-.051.127-.043.123.044.06.168-.013.219-.1.064-.25-.026-.25-.146.022-.104.067-.074.136-.03Z"/></svg>