<svg id="Layer_16" xmlns="http://www.w3.org/2000/svg" viewBox="0 0 9.545 26.177"><defs><style>.cls-1{fill:#eac3a7}.cls-2{fill:#fff}.cls-3{fill:#be1e2d}.cls-4{fill:#d1d3d4}.cls-5{fill:#d5773b}.cls-6{fill:#dd5633}.cls-7{fill:#0f181b}.cls-8{fill:#58906b}.cls-9{fill:#316956}.cls-10{fill:#567591}</style></defs><g id="LYgzxF"><path class="cls-7" d="M3.19 4.15v.003-.002Zm0-.004v.007-.012.005Zm0 0v.007-.012.005Zm0 0v.007-.012.005Zm0 0v.007-.012.005Zm0 0v.007-.012.005Zm0 0v.007-.012.005Zm0 0v.007-.012.005Zm0 0v.007-.012.005Zm0 0v.007-.012.005Zm0 0v.007-.012.005Zm0 0v.007-.012.005Zm6.147 1.853c-.167-.206-.533.062-.746.1l-.015-.026c.467-.322.809-.988.548-1.535-.12-.13-.244-.238-.246-.435-.106-.136-.14-.319-.288-.43-.025-.018-.035-.07-.036-.108C8.564 2.159 8.54.598 6.7.7c.007-.206.026-.424-.193-.475-.291-.079-.241.3-.256.483-.027.198-.606.136-.824.465-.536.764-.362 1.95-.288 2.839.02.183-.17.307-.236.465-.284.447.14 1.035.51 1.18.159.062.398-.032.54.249.254.498.928.246.97.993-.088.13-.252.2-.274.387-.052.245.205.393.386.221.202.996.072 2.062-.209 3.026-.199.347-.409.732-.729.979-.213.134-.898.496-1.11.343-.074-.718-.027-1.464-.362-2.124-.197-.689-.915-1.174-.87-1.919-.086-.133-.18-.251-.352-.276-.023-.004-.058-.033-.06-.052-.133-.697.647-.664.597-1.449a.782.782 0 0 0-.322-.559c-.17-.146-.118-.423-.269-.597-.05-.156-.402-.331-.223-.485.41-.27.168-.413-.083-.681-.163-.204-.593-.443-.637-.679.026-.557-1-.335-1.313-.175-.395.19-.41.61-.58.961-.228.304-.37.661-.317 1.047.007.406.73 1.326 1.121.888.028-.102.102-.065.145-.063.04.002.097.053.11.094.157.76.923.6 1.034 1.3.008.176.104.605-.052.714-.228.063-.233.322-.345.49-.109.195-.225.387-.332.584-.171.447-.089.963-.126 1.435-.115.899-.093 1.801-.061 2.704.156.825.08 1.667.155 2.501.085.984.224 1.967.243 2.954-.09.796-.075 1.608-.326 2.377-.297.819-.408 1.682-.807 2.466.397.048.787-.025 1.165.026.073.34.038.696.153 1.02a.193.193 0 0 1-.034.192c-.152.326-.47.672-.367 1.05.073.101.119.572.297.415.113-.105.193-.492.378-.271.498.183 1.044.196 1.57.21-.066-.316-.526-.482-.717-.75-.203-.275-.712-.45-.725-.818.027-.122.05-.25.044-.373.04-.167-.204-.696.06-.686.598.018 1.178-.097 1.777-.044-.08.32.05.642-.013.95-.154.16-.215 1.85.186 1.48.377-.71.407.07 1.809-.037.295-.048-.459-.665-.565-.745-.233-.175-.509-.258-.769-.374-.495-.245.047-.895-.105-1.346l1.386.042c-.657-.676-.775-1.612-1.004-2.482-.169-.816-.466-1.609-.453-2.453-.167-1.765-.042-3.526.091-5.285.854-.062 1.644-.437 2.19-1.099.348-.309.61-.695.723-1.153.191-.69.13-1.403.09-2.108-.055-.393-.168-.796-.106-1.195.033-.197.028-.359-.14-.497-.253-.443.578-.477.842-.574.188-.057.371-.13.555-.202.102-.039.092-.135.064-.206Zm-.411-1.576c.062.053.072.122.026.197-.132-.012-.168-.194-.026-.197Zm-.129-.114c-.134-.052-.07-.16-.089-.277.143.079.07.191.089.277ZM5.143 2.6v-.07l.002-.053a2.08 2.08 0 0 1 .008-.137c0-.01 0-.02.002-.03l.004-.05c.002-.02.003-.04.006-.059a3.184 3.184 0 0 1 .026-.189l.001-.007a2.302 2.302 0 0 1 .07-.282l.007-.024.018-.05.017-.042c.017-.042.035-.082.056-.12l.021-.039a1.076 1.076 0 0 1 .083-.122v-.001a.656.656 0 0 1 .058-.066l.007-.008.032-.031.033-.03a.787.787 0 0 1 .152-.103l.021-.011.023-.011c.02-.01.04-.018.06-.026l.033-.012a.59.59 0 0 1 .032-.01l.018-.006.019-.005a.56.56 0 0 1 .037-.01L6.014.99 6.05.983l.022-.004h.004l.022-.004A.709.709 0 0 1 6.14.97l.026-.002.04-.003c.425-.02-.002-.34.164-.558l.01-.01.005-.004a.122.122 0 0 1 .024-.02.024.024 0 0 1 .006-.004.097.097 0 0 1 .033-.013h.005a.068.068 0 0 1 .045.01c.008.003.015.008.02.015l.01.01a.122.122 0 0 1 .017.025l.007.014a.204.204 0 0 1 .017.05l.003.015.001.008a.314.314 0 0 1-.007.126.17.17 0 0 1-.023.049l-.006.007a.206.206 0 0 0-.027.044.046.046 0 0 0-.003.023v.004s0 .002.002.003c.003.01.01.02.02.026a.172.172 0 0 0 .053.02c.04-.002.078-.001.116 0h.059a2.89 2.89 0 0 1 .27.025 2.051 2.051 0 0 1 .383.097l.076.03.034.016.033.016a.774.774 0 0 1 .112.064l.023.014a1.284 1.284 0 0 1 .475.566 1.801 1.801 0 0 1 .106.287 1.929 1.929 0 0 1 .043.171l.022.114.01.059.011.081.007.052c.004.036.008.071.01.107a7.488 7.488 0 0 1 .02.361c.003.032.003.063.003.095.002.146 0 .297-.005.448-.076-.052-.133-.038-.213-.023.13.177.3.375.139.604a.623.623 0 0 0-.107-.163.746.746 0 0 0-.042-.045c-.01-.01-.018-.02-.028-.028l-.01-.01-.037-.035-.094-.087a.723.723 0 0 1-.065-.066.503.503 0 0 1-.062-.073c-.057.068-.128.068-.217.018-.14-.08-.297-.013-.445-.036l.13.035.031.008c.11.03.214.062.308.098l.047.019.064.029.02.009a.207.207 0 0 1 .02.01l.018.01.013.007a.341.341 0 0 1 .043.025.469.469 0 0 1 .056.039l.018.013.007.006a.333.333 0 0 1 .033.029.476.476 0 0 1 .053.056l.015.02a.416.416 0 0 1 .046.077l.001.002.005.011.001.002a.114.114 0 0 1 .006.014l.002.005a.152.152 0 0 1 .008.022.282.282 0 0 1 .027.125l.004.034a.76.76 0 0 1-.012.194v.005l-.008.038a.855.855 0 0 1-.01.044l-.006.027-.01.04c-.01.037-.023.077-.038.12a.386.386 0 0 1-.095.127.705.705 0 0 1-.15.104l-.046.025a1.18 1.18 0 0 1-.12.053l-.04.016-.05.018a7.386 7.386 0 0 1-.05.017c-.028.01-.055.018-.082.026l-.082.024c-.027.007-.053.015-.08.021a4.436 4.436 0 0 1-.076.02l-.072.019a8.99 8.99 0 0 0-.127.033 2.59 2.59 0 0 1-.404.024h-.03c-.021 0-.042 0-.063-.002a2.572 2.572 0 0 1-.394-.047l-.051-.011-.05-.013-.046-.013a.373.373 0 0 1-.028-.009l-.036-.011-.036-.013a.793.793 0 0 1-.133-.06.961.961 0 0 1-.136-.088.76.76 0 0 1-.093-.093.156.156 0 0 1-.014-.018l-.013-.017a.478.478 0 0 1-.043-.076l-.009-.02a.528.528 0 0 1-.04-.18.677.677 0 0 1 .046-.123s0-.002.002-.003a.307.307 0 0 1 .016-.031l.008-.014a.846.846 0 0 1 .13-.164c.046-.047.1-.09.155-.13.01-.008.022-.016.034-.023l.034-.024c.097-.063.2-.122.301-.18a5.075 5.075 0 0 0 .222-.14 1.139 1.139 0 0 0 .11-.085 1.409 1.409 0 0 1 .169.275.583.583 0 0 1 .019.047l.01.025.005.016a.608.608 0 0 1 .024.087.815.815 0 0 1 .016.086.874.874 0 0 1 .007.065l.002.032a.437.437 0 0 1 .002.053c.002.091-.006.182-.016.275a45.953 45.953 0 0 0-.071-.216c-.182.074.02.345.163.322l-.02-.078c.167-.023.173-.033.146-.199l-.087-.528v.3l-.3-.753.018-.014a6.87 6.87 0 0 0 .086.129l.068.105.019.03.018.03c.028.047.054.095.079.145l.002.006.013.025-.023-.077-.07-.243.464-.053h-.005l-.02-.001-.069-.001c-.116-.002-.2 0-.268-.005l-.023-.002h-.001a.386.386 0 0 0-.023-.003l-.021-.004h-.001l-.02-.005-.02-.005a.283.283 0 0 1-.036-.014c-.093-.043-.172-.138-.337-.348l.038-.003.038-.004.127-.01.087-.008c.007 0 .014 0 .021-.002.044-.004.089-.009.132-.015a1.52 1.52 0 0 0 .212-.043l.04-.012a.645.645 0 0 0 .086-.033l.017-.008a.477.477 0 0 0 .09-.055l.028-.024.013-.013a.364.364 0 0 0 .102-.173l.006-.02.004-.021v-.007a.415.415 0 0 0 .008-.062v-.066l-.003-.017v-.01a.366.366 0 0 1-.003-.034l-.002-.024-.003-.038v-.002l-.002-.018a.128.128 0 0 0-.003-.019v-.003l-.005-.026-.005-.026a.324.324 0 0 0-.015-.046.127.127 0 0 0-.02-.03.089.089 0 0 0-.01-.012l-.006-.004a.024.024 0 0 0-.006-.004.013.013 0 0 0-.006-.002.03.03 0 0 0-.009-.003.096.096 0 0 0-.053.006l-.018.005a1.683 1.683 0 0 0-.215.089l-.021.011a.695.695 0 0 0-.17.124l-.01.01-.003.003-.012.014a.018.018 0 0 0-.005.005.622.622 0 0 0-.033.042l-.012.019-.016.028-.015.029a.86.86 0 0 0-.051.141l-.026.081-.01.026a.51.51 0 0 1-.032.068.402.402 0 0 1-.022.031l-.012.016-.003.003-.011.011a.185.185 0 0 1-.016.015.18.18 0 0 1-.028.022.404.404 0 0 1-.05.03.301.301 0 0 1-.061-.003.359.359 0 0 1-.037-.008l-.023-.007-.022-.01a.4.4 0 0 1-.122-.096.798.798 0 0 1-.131-.221 1.266 1.266 0 0 1-.023-.054l-.01-.028a1.104 1.104 0 0 1-.02-.055c-.021-.063-.04-.124-.056-.177a.219.219 0 0 1-.02-.107l.005-.017a.124.124 0 0 1 .013-.025.11.11 0 0 1 .042-.036.293.293 0 0 1 .056-.022l.03-.008.026-.005.02-.003.064-.008.02-.003h.008l.057-.006c.039-.003.079-.007.118-.012l.026-.004a.847.847 0 0 0 .124-.026l.019-.005a.401.401 0 0 0 .134-.074.27.27 0 0 0 .051-.07.212.212 0 0 0 .014-.039.3.3 0 0 0 .011-.066l.001-.011a.53.53 0 0 0-.011-.12c-.08-.226-.227-.118-.385-.094a.813.813 0 0 0-.06-.043l-.017-.01a.282.282 0 0 0-.067-.029.049.049 0 0 0-.01 0 .058.058 0 0 0-.03.002l-.009.004a.101.101 0 0 0-.018.01l-.008.007-.009.007-.018.014a.175.175 0 0 1-.035.02c-.038.016-.091.019-.186-.018-.146.086-.266.008-.404.023-.304.075-.074.566.156.584a.183.183 0 0 1 .037.007l.01.004.013.005a.194.194 0 0 1 .019.01l.018.015.017.017.006.008a.427.427 0 0 1 .063.135.546.546 0 0 1 .02.08l.01.044.007.035a8.43 8.43 0 0 1 .028.135 2.323 2.323 0 0 0 .046.185l.004.012.013.04.016.044.015.04a1.204 1.204 0 0 0 .065.134l.004.005.018.031c0 .002.002.003.003.005a.904.904 0 0 0 .138.172.7.7 0 0 0 .089.079c.01.009.022.017.033.025l.035.024.067.041a.128.128 0 0 1-.037.04l-.015.01a.172.172 0 0 1-.02.01l-.003.002a.248.248 0 0 1-.042.014.508.508 0 0 1-.036.01l-.021.003-.021.005-.025.005-.025.005a.505.505 0 0 0-.1.03l-.015.008-.002.002a.12.12 0 0 0-.011.007l-.015.01a2.432 2.432 0 0 0-.22.12l-.027.016a1.322 1.322 0 0 0-.312.257 1.05 1.05 0 0 0-.12.155l-.027.045a1.2 1.2 0 0 0-.074.146c-.204-.218.245-.378.26-.594l-.043-.023-.29.314c-.02-.39-.096-.953-.09-1.493Zm2.014.073c0-.005 0-.01.002-.016a.054.054 0 0 1 .005-.012l.008-.012c.005-.008.01-.016.017-.024l.009-.015a.1.1 0 0 0 .012-.034c0-.01 0-.02-.002-.03-.083.006-.104.095-.157.152l-.071-.094-.019.18-.087-.117c-.051.096.048.225-.137.26-.089-.26.148-.485.361-.588.197-.1.265-.062.279.164.038.339-.311.522-.607.515.156-.116.23-.299.442-.235-.041-.042-.055-.071-.055-.094Zm-.999-1.03.007-.01a.248.248 0 0 1 .032-.037c.002 0 .004-.002.006-.004a.067.067 0 0 1 .007-.005l.009-.004.006-.003h.003a.058.058 0 0 1 .032-.001l.008.002a.101.101 0 0 1 .022.011c.007.005.014.01.021.017l.012.01a.343.343 0 0 1 .023.025l.024.03a1.5 1.5 0 0 1 .054.075c.048-.053.155-.072.224-.099a.255.255 0 0 1 .008.019l.008.018.007.016.01.028c0 .005.002.01.003.014l.003.016.003.014a.195.195 0 0 1 0 .058h-.001a.147.147 0 0 1-.074.1.206.206 0 0 1-.04.02.36.36 0 0 1-.022.008c-.006.003-.012.004-.019.006a.515.515 0 0 1-.077.016 1.044 1.044 0 0 1-.153.012c-.026 0-.052.002-.077.003l-.074.002-.045.003c-.014 0-.028.002-.04.003-.12.007-.238.019-.357.02a.299.299 0 0 1-.068-.022.299.299 0 0 1-.07-.044.227.227 0 0 1-.046-.055.091.091 0 0 1-.006-.014.193.193 0 0 1-.01-.032l-.003-.01a.134.134 0 0 1 0-.049.137.137 0 0 1 .008-.025l.005-.01a.116.116 0 0 1 .023-.037.183.183 0 0 1 .047-.044.374.374 0 0 1 .097-.044l.106.14a.331.331 0 0 1 .013-.017c.008-.012.015-.023.023-.032l.02-.027.01-.012.01-.01a.1.1 0 0 1 .01-.01.025.025 0 0 1 .004-.004l.004-.005.014-.01.004-.003.004-.003.008-.004a.063.063 0 0 1 .046-.004l.009.003.006.003a.113.113 0 0 1 .01.004l.009.006a.495.495 0 0 1 .077.067l.012.012.014.013a1.448 1.448 0 0 1 .057-.103Zm-.568 3.51a.739.739 0 0 1-.094-.032c-.015-.006-.03-.012-.045-.02a.937.937 0 0 1-.323-.238c-.006-.01-.013-.017-.018-.026l-.011-.016a.37.37 0 0 1-.043-.09c0-.002 0-.004-.002-.007a.29.29 0 0 1-.01-.104.264.264 0 0 1 .018-.077l.001-.002a.235.235 0 0 1 .014-.03l.008-.015a.248.248 0 0 1 .032-.045l.012-.015.007-.007.007-.008a.51.51 0 0 1 .015-.015l.006-.006.031-.028a1.069 1.069 0 0 0 .042.128l.021.05a.697.697 0 0 0 .033.068 1.209 1.209 0 0 0 .024.046l.027.045.001.002a1.28 1.28 0 0 0 .142.18c.02.02.038.04.058.056l.026.023.037.03c.005.003.01.008.015.01a.87.87 0 0 0 .129.084 1.243 1.243 0 0 0 .238.105l.049.016a1.556 1.556 0 0 0 .286.06 2.01 2.01 0 0 0 .19.016l.044.002a2.961 2.961 0 0 0 .122 0l.045-.002.062-.003a2.521 2.521 0 0 0 .292-.033l.051-.009a2.297 2.297 0 0 0 .081-.015l.039-.009a2.068 2.068 0 0 0 .132-.03l.107-.03a3.281 3.281 0 0 0 .395-.144l.029-.013a1.42 1.42 0 0 0 .112-.054 1.6 1.6 0 0 0 .118-.063c-.298.586-.998.494-1.547.55-.366.015-.686-.134-1.005-.284Zm2.05.505c-.146.24-.493.408-.856.105.21.038.715-.068.855-.105Zm-1.219.36c-.068.17-.367-.024-.308-.167.202-.013.33.111.308.167Zm-3.05-.882c.005.005.009.01.012.017a.05.05 0 0 1 .005.01l.004.01.004.015.001.01.002.012a.172.172 0 0 1-.02.091.069.069 0 0 1-.015.017c-.192.084-.374.259-.59.254l-.008-.024a1.548 1.548 0 0 0 .062-.047l.032-.024.123-.097.064-.05.01-.008a3.448 3.448 0 0 1 .16-.115 1.236 1.236 0 0 1 .144-.08.046.046 0 0 1 .01.009Zm-.571.27c.114-.183.238-.353.498-.406a1.359 1.359 0 0 1-.498.406Zm-.214 1.232-.013-.013a1.172 1.172 0 0 0-.193-.145 4.757 4.757 0 0 0-.075-.047l-.035-.02a3.407 3.407 0 0 0-.05-.032l-.048-.029-.016-.01-.03-.018-.015-.01a1.012 1.012 0 0 1-.087-.064.244.244 0 0 1-.063-.076.059.059 0 0 1 .008-.06.081.081 0 0 1 .01-.012.168.168 0 0 1 .017-.015c.08-.062.095-.13.077-.198a.287.287 0 0 0-.019-.05l-.008-.016a.716.716 0 0 0-.065-.095v-.001a.735.735 0 0 0-.025-.03l-.013-.015c-.089.042-.042.09-.026.158 0 .03-.005.053-.012.07a.079.079 0 0 1-.007.015c-.05.08-.183-.05-.188-.159-.044-.164-.114-.238-.273-.26-.174-.009-.443-.287-.19-.374.003.199.249.267.388.191.073-.066.053-.127 0-.18a1.007 1.007 0 0 0-.165-.112l-.022-.013-.02-.011a.595.595 0 0 1-.026-.016c-.206-.12-.348.018-.437.206a.49.49 0 0 1-.053-.107.791.791 0 0 1-.036-.132c-.023-.133-.002-.266.116-.299a.232.232 0 0 1 .043-.007c.136.028.198.235.355.152a.138.138 0 0 0 .043-.03l.01-.01a.08.08 0 0 0 .011-.025c.011-.035-.001-.078-.026-.125a.89.89 0 0 0-.123-.167l-.098-.113a1.878 1.878 0 0 1-.03-.035c-.01-.01-.02-.022-.028-.033-.008-.01-.017-.021-.024-.032a.463.463 0 0 1-.02-.029.204.204 0 0 1-.02-.038c-.058-.095-.054-.198-.023-.3a.727.727 0 0 1 .054-.135l.032-.067c.033-.065.068-.129.093-.187.213-.253.623-.19.904-.325.081-.045.146-.008.183.052.21.362.564.587.85.88a.17.17 0 0 1 .012.045l.001.01v.015l-.002.011-.004.013-.002.004-.001.004-.001.002-.007.012a.146.146 0 0 1-.013.016l-.008.009-.009.008-.01.009a.687.687 0 0 1-.054.039l-.012.008a.75.75 0 0 0-.022.015l-.012.009a.256.256 0 0 0-.021.016.168.168 0 0 0-.02.019l-.01.01a.125.125 0 0 0-.012.015c-.054.078-.039.197.203.44l.06.058.021.02a.573.573 0 0 0-.079.041 1.637 1.637 0 0 0-.122.08 1.167 1.167 0 0 0-.216.173.88.88 0 0 0-.046.043c-.203.2-.303.412.079.421l.03-.003.032-.007a.39.39 0 0 0 .094-.038l.032-.017.031-.018.032-.018.048-.027c.073-.041.146-.075.215-.07l.03.005.014.004.029.013a.772.772 0 0 1 .183.185l.024.038a.865.865 0 0 1 .08.165.766.766 0 0 1 .022.448.668.668 0 0 1-.107.215c-.052.087-.119.161-.185.233l-.098.105c-.14.158-.247.322-.164.591.045.163.097.427-.121.49-.223.08-.278.071-.298-.203-.023-.303-.027-.604-.107-.903.002-.071-.039-.138-.101-.2ZM2.555 7.9a.224.224 0 0 1 .07.038.224.224 0 0 1 .037.034l.012.015.012.014.022.03.021.03.029.042.012.018a.371.371 0 0 0 .019.023v.001a.299.299 0 0 0 .047.047c.035.029.077.05.134.056.283.033.556-.214.572-.499l.018.013.014.012.013.014.01.013a.086.086 0 0 1 .013.031l.001.005v.033a.158.158 0 0 1-.004.013l-.004.013-.006.014-.012.024a.624.624 0 0 0-.006.011l-.016.029-.007.014a.13.13 0 0 0-.007.02l-.002.01v.021a.058.058 0 0 0 .01.022l.004.005c.01.01.023.019.043.028a.32.32 0 0 1 .064.049.14.14 0 0 1 .03.054.087.087 0 0 1 .001.03l-.001.005a.046.046 0 0 1-.004.01.04.04 0 0 1-.005.01.082.082 0 0 1-.023.023c-.047.035-.14.038-.239-.025a.181.181 0 0 0-.085-.032h-.009a.032.032 0 0 0-.009.003l-.007.004a.028.028 0 0 0-.006.005.022.022 0 0 0-.004.004.059.059 0 0 0-.008.012.134.134 0 0 0-.01.037c-.002.004-.002.009-.003.014l-.001.01a.23.23 0 0 0-.002.018c-.002.03-.003.063-.008.095a.313.313 0 0 1-.017.079l-.066-.067a.878.878 0 0 0-.082-.07.243.243 0 0 0-.023-.015l-.012-.006a.282.282 0 0 0-.064-.026.234.234 0 0 0-.035-.01c-.01.1-.083.157-.145.225-.097-.07-.101-.174-.107-.284-.008-.07-.037-.116-.116-.085-.215.05-.142-.164-.054-.261Zm-.347 15.77a1.147 1.147 0 0 1-.013-.082c-.004-.035-.005-.067-.004-.097l.002-.023c0-.006.001-.012.003-.017l.003-.018.002-.01.005-.013a.15.15 0 0 1 .01-.023.14.14 0 0 1 .05-.057.07.07 0 0 1 .011-.006l.012-.006a.114.114 0 0 1 .028-.008.191.191 0 0 1 .03-.004h.018c.02 0 .042.002.066.006l.018.003a.844.844 0 0 1 .086.024l.005.03a5.886 5.886 0 0 0 .025.136l.011.063.008.04.02.13a3.223 3.223 0 0 1 .014.125c0 .016.002.03.003.045l.002.045.001.035V24.084l-.003.042-.004.032a.692.692 0 0 1-.005.03v.002l-.006.03-.007.03a.364.364 0 0 1-.036.085l-.006.01a.338.338 0 0 1-.024.033l-.033.03c-.026.016-.019.084-.033.16-.18-.286-.207-.573-.259-.897Zm.42 1.017c.013.18-.278.174-.253 0h.253Zm.05.189c.082-.083.174-.056.266.018a.68.68 0 0 1 .04.034l.02.018a1.708 1.708 0 0 1 .126.14l.03.034c.027.033.053.065.08.094l.025.029c.034.037.067.07.098.093l.013.009.012.008c.181.165.383.277.555.459-.361.139-1.078-.06-1.425-.223a.248.248 0 0 0-.054-.029c-.173-.065-.217.233-.355.354-.312-.465-.095-.821.145-1.18.082.162.26.261.424.142Zm2.472-.229c.498.126.91.377 1.233.825.011.019.125.042.11.095a4.595 4.595 0 0 1-.434.008l-.04-.001-.022-.001a2.763 2.763 0 0 1-.07-.005l-.04-.003a2.422 2.422 0 0 1-.153-.018l-.043-.006a2.312 2.312 0 0 1-.157-.033c-.006 0-.012-.003-.018-.004a2.856 2.856 0 0 1-.143-.044.416.416 0 0 1-.03-.012 1.001 1.001 0 0 1-.059-.024l-.012-.005a.254.254 0 0 1-.018-.008l-.029-.014a1.91 1.91 0 0 1-.154-.087.588.588 0 0 0-.068-.036l-.013-.005-.014-.004c-.003-.002-.006-.002-.01-.003a.09.09 0 0 0-.072.019.288.288 0 0 0-.022.019l-.008.007-.008.009-.008.01-.017.02-.019.025a1.2 1.2 0 0 0-.023.036l-.016.023-.012.02-.013.021a6.74 6.74 0 0 0-.11.186c-.167-.316-.084-.62-.11-.936.34.216.449.165.623-.074Zm-.196.078c-.196.093-.423-.065-.363-.301.132.2.166.228.358.067.031.108.16.17.005.234Zm.03-.876c-.078.205-.083.45-.212.63-.267-.346-.129-.793-.151-1.205.134.02.346-.087.405.065.037.173.005.342-.042.51Zm.092-3.626c.292.957.577 1.89 1 2.803-.68.074-1.366.002-2.05.055-.914.087-1.821.034-2.738.066.334-.904.595-1.82.815-2.759l.017-.125.015-.124v-.006a6.29 6.29 0 0 0 .024-.246 16.228 16.228 0 0 0 .042-.739l.015-.4a33.713 33.713 0 0 1 .018-.38 9.707 9.707 0 0 1 .034-.464l-.004-.137a9.562 9.562 0 0 0-.035-.548 19.718 19.718 0 0 0-.052-.564l-.019-.188a49.34 49.34 0 0 1-.032-.341l-.01-.107a2.157 2.157 0 0 0-.004-.056l-.009-.11a7.617 7.617 0 0 1-.01-.137c-.067-1.117-.039-2.233-.075-3.35-.037-.962-.201-1.928-.015-2.885a.694.694 0 0 0 .014-.063l.005-.029a3.698 3.698 0 0 0 .034-.212l.01-.072.005-.037c.007-.049.015-.097.025-.146l.013-.06c.006-.028.012-.054.02-.081l.01-.035a.992.992 0 0 1 .064-.16l.013-.024a.059.059 0 0 1 .005-.01l.013-.02a.198.198 0 0 1 .016-.025.243.243 0 0 1 .02-.026l.015-.018.011-.013a.486.486 0 0 1 .15-.11c.051.012.113.014.125.107a.29.29 0 0 0 .09.169l.016.015a.296.296 0 0 0 .077.047.286.286 0 0 0 .254-.01.263.263 0 0 0 .084-.083c.126.085.286.04.314-.113a.088.088 0 0 1 .011-.014l.01-.01a.053.053 0 0 1 .007-.004l.009-.006a.08.08 0 0 1 .012-.006l.006-.002.01-.003.004-.001.015-.003a.058.058 0 0 1 .012-.001c.077-.007.173.025.24.018.688.978.883 2.183.979 3.355a.604.604 0 0 1-.032-.015c-.002 0-.003 0-.005-.002a1.069 1.069 0 0 1-.299-.246 2.816 2.816 0 0 1-.128-.155c-.015-.018-.03-.038-.044-.058l-.047-.064-.095-.135-.054-.08a8.485 8.485 0 0 0-.095-.136l-.037-.052a2.067 2.067 0 0 0-.064-.085l-.019-.023-.018-.023a2.215 2.215 0 0 1-.168-.306c-.048-.104-.093-.212-.141-.318l-.037-.08a2.699 2.699 0 0 0-.068-.137l-.003-.005-.017-.03-.02-.035a1.236 1.236 0 0 0-.166-.225.468.468 0 0 0-.66.077c-.36.462-.066 1.047.118 1.513l.08.106c.088.117.18.234.274.349l.062.074.061.072.052.059a9.635 9.635 0 0 0 .223.239l.065.064.066.063a5.103 5.103 0 0 0 .273.236 3.47 3.47 0 0 0 .277.196 2.812 2.812 0 0 0 .58.28l.028.01.051.016.023.006.078.022c-.119.65-.025 1.301-.038 1.956-.065.96-.08 1.924-.037 2.886.11.801.21 1.614.337 2.413Zm2.937-10.2c-.02.448-.26.854-.413 1.268-.387.819-1.225 1.38-2.098 1.56-.89.161-1.667-.51-2.208-1.142-.352-.323-1.275-1.646-.584-1.96.293-.101.327-.016.463.232.268.547.418 1.179.906 1.59.562.556.779.542 1.51.34.957-.266 1.67-1.237 1.701-2.219.005-.298.044-.596.038-.894-.007-.35-.045-.7-.127-1.044-.014-.059.016-.134.044-.194.102-.179.301.248.482.028.19-.195.336 1.813.286 2.435ZM7.83 7.388v.025c-.155.018-.14-.2-.25-.236l-.052.288a1.92 1.92 0 0 0-.048.003.516.516 0 0 0-.011-.065.936.936 0 0 0-.02-.083c-.006-.018-.011-.036-.018-.053l-.01-.024-.01-.023a.191.191 0 0 0-.03-.05l-.01-.01a.138.138 0 0 0-.02-.015.048.048 0 0 0-.021-.005l-.01.001a.037.037 0 0 0-.011.004.106.106 0 0 0-.032.025.203.203 0 0 0-.029.04l-.007.013a.483.483 0 0 0-.033.072c-.03-.02-.06-.047-.087-.065-.02-.014-.038-.022-.05-.018-.033.006-.06.03-.085.06-.032.039-.057.087-.08.125l-.002.002c-.02.03-.038.056-.057.061a.027.027 0 0 1-.014 0 .021.021 0 0 1-.01-.004.066.066 0 0 1-.018-.018.111.111 0 0 1-.013-.02l-.01-.039-.008-.038a.372.372 0 0 1 0-.116l.003-.015a.217.217 0 0 1 .006-.017l.007-.015a.096.096 0 0 1 .007-.014.1.1 0 0 1 .01-.014.205.205 0 0 1 .07-.06l.003-.002a.325.325 0 0 1 .024-.01l.013-.006a.09.09 0 0 1 .015-.005.526.526 0 0 1 .167-.026h.023c.208-.004.457.046.6.05a.143.143 0 0 1 .057.031.07.07 0 0 1 .01.012l.011.014a.056.056 0 0 1 .006.011l.007.014c.025.063.019.147.017.215Zm.383-.991c-.834.201-.04.62-1.167.53-.042-.34-.137-.63-.478-.771-.148-.184-.086-.39-.487-.355l-.006-.02c.454-.24.787.452 1.34.206.224-.088.401-.302.587-.454.409-.278.47-.791.607-1.223.058.045.166.085.154.17-.083.232-.153.472-.264.69-.122.242-.259.483-.488.647-.147.134-.383.2-.467.387.69-.303 1.127-.815 1.323-1.537l.117.04c-.118.356-.209.725-.49.999-.13.158-.371.242-.423.45.741-.334.773-.798 1.018-1.479.098.508-.154 1.08-.615 1.33-.222.096-.102.295.128.228.11-.039.21-.11.326-.132.068.271-.55.17-.715.294Zm.817-.316-.001-.03c.077-.003.168-.065.215.025-.06.068-.14.014-.214.005ZM3.19 4.146v.007-.012.005Zm0 0v.007-.012.005Zm0 0v.007-.012.005Zm0 0v.007-.012.005Zm0 0v.007-.012.005Zm0 0v.007-.012.005Zm0 0v.007-.012.005Zm0 0v.007-.012.005Zm0 0v.007-.012.005Zm0 0v.007-.012.005Zm0 .005v.002-.002Z"/><path class="cls-4" d="M6.421 6.017c-.068.17-.367-.024-.308-.167.202-.013.33.111.308.167Z"/><path class="cls-1" d="M8.928 6.103c.068.271-.55.17-.715.294-.834.201-.04.62-1.167.53-.042-.34-.137-.63-.477-.771-.15-.184-.087-.39-.488-.355l-.006-.02c.454-.24.787.452 1.34.206.224-.088.401-.302.587-.454.41-.278.47-.791.607-1.223.058.044.166.084.154.17-.083.232-.153.472-.264.69-.122.241-.258.483-.488.647-.147.134-.383.2-.467.387.69-.303 1.127-.815 1.323-1.537l.117.04c-.118.356-.209.725-.49.999-.13.158-.371.242-.423.45.741-.334.773-.798 1.018-1.479.099.508-.154 1.08-.615 1.329-.222.097-.102.296.128.229.11-.039.21-.11.326-.132Z"/><path class="cls-6" d="M8.013 10.023c-.02.448-.26.854-.413 1.268-.387.819-1.225 1.38-2.098 1.56-.89.161-1.667-.51-2.208-1.142-.352-.323-1.274-1.646-.584-1.96.293-.101.327-.016.463.232.268.547.418 1.179.906 1.59.562.556.779.542 1.51.34.957-.266 1.67-1.237 1.701-2.219.005-.298.044-.596.038-.894-.007-.35-.045-.7-.127-1.044-.014-.059.016-.134.044-.194.102-.179.301.248.482.028.19-.195.336 1.813.286 2.435Z"/><path class="cls-2" d="M3.216 9.28Zm-.458-.054Zm.148-.524Zm-.703-.116Z"/><path class="cls-5" d="M5.076 20.223c-.127-.8-.226-1.613-.336-2.414a25.877 25.877 0 0 1 .037-2.886c.012-.654-.081-1.306.038-1.956a1.622 1.622 0 0 1-.078-.022l-.023-.006-.051-.016a2.007 2.007 0 0 1-.271-.106 1.685 1.685 0 0 1-.1-.049 2.812 2.812 0 0 1-.37-.223 3.955 3.955 0 0 1-.549-.47 5.392 5.392 0 0 1-.222-.24l-.052-.06a3.407 3.407 0 0 1-.061-.07l-.062-.075a10.543 10.543 0 0 1-.355-.455c-.184-.466-.477-1.05-.117-1.513a.468.468 0 0 1 .66-.077 1.15 1.15 0 0 1 .166.225l.02.035.017.03c0 .002.002.003.003.005a1.52 1.52 0 0 1 .068.137l.037.08c.048.106.093.214.141.319l.02.043a2.215 2.215 0 0 0 .148.262l.018.023.019.024c.021.026.042.055.063.084l.037.052a7.187 7.187 0 0 1 .15.216l.095.135.047.064.044.058c.014.02.03.038.044.057a3.012 3.012 0 0 0 .108.124 1.069 1.069 0 0 0 .275.22l.005.002c.01.006.02.01.032.015-.096-1.172-.291-2.377-.979-3.355-.067.007-.163-.025-.24-.018l-.012.001a.198.198 0 0 0-.019.004l-.01.003-.006.002a.09.09 0 0 0-.022.012.11.11 0 0 0-.028.028c-.027.152-.187.198-.313.113a.262.262 0 0 1-.084.083l-.014.008a.471.471 0 0 1-.043.017.182.182 0 0 1-.045.01.29.29 0 0 1-.172-.034l-.015-.009a.275.275 0 0 1-.042-.03l-.017-.014a.334.334 0 0 1-.05-.063.29.29 0 0 1-.039-.106c-.012-.093-.074-.095-.126-.107a.488.488 0 0 0-.149.11l-.011.013-.015.018a.201.201 0 0 0-.036.052l-.013.02a3.114 3.114 0 0 0-.112.31l-.013.06c-.01.048-.018.097-.025.145l-.005.037-.01.072-.014.096-.02.117-.005.028-.007.032a.694.694 0 0 1-.007.031c-.186.957-.023 1.923.015 2.884.036 1.118.008 2.234.075 3.35l.01.137.009.111.004.057.01.106.032.342.019.187.002.017a50.577 50.577 0 0 1 .05.547 14.785 14.785 0 0 1 .035.548l.004.137a8.904 8.904 0 0 0-.034.465 20.28 20.28 0 0 0-.008.156l-.01.223-.015.4a20.25 20.25 0 0 1-.01.233c-.004.085-.008.17-.014.254a8.555 8.555 0 0 1-.042.499v.005l-.015.125-.017.124a23.18 23.18 0 0 1-.815 2.759c.917-.032 1.824.022 2.737-.066.684-.053 1.37.02 2.052-.055-.424-.913-.71-1.845-1-2.803Zm-2.3-8.338a.663.663 0 0 1-.07-.095.946.946 0 0 1-.033-.052l-.014-.022-.023-.039a2.092 2.092 0 0 1-.023-.04l-.02-.04a4.085 4.085 0 0 1-.058-.116l-.026-.054-.02-.046a1.617 1.617 0 0 1-.016-.037c0-.002-.002-.004-.003-.005a4.872 4.872 0 0 1-.047-.113l-.016-.04-.02-.051-.012-.031a5.94 5.94 0 0 1-.036-.098 1.9 1.9 0 0 1-.164-.616 1.981 1.981 0 0 1-.01-.156v-.002a2.49 2.49 0 0 1 .048-.533.679.679 0 0 1 .081-.223.719.719 0 0 1 .028-.046l.015-.023.032-.043c.102-.127.241-.228.389-.29.142-.036.42.015.55.147a.267.267 0 0 1 .045.06.228.228 0 0 1 .026.088 1.324 1.324 0 0 0-.163-.09.946.946 0 0 0-.148-.053.553.553 0 0 0-.31 0 .482.482 0 0 0-.212.134.63.63 0 0 0-.072.088 1.2 1.2 0 0 0-.175.445 1.875 1.875 0 0 0-.038.326c.082.63.361 1.251.724 1.774-.065.024-.137-.023-.209-.108Zm.222.266c.117-.062.145.032.206.08-.106.055-.14-.023-.206-.08Zm.267.138.13.14c-.142.009-.169-.017-.13-.14Z"/><path class="cls-2" d="M7.261.878ZM7.024.83Zm-.13-.015ZM6.53.785c.013.01.032.015.053.02a3.718 3.718 0 0 1 0-.001.144.144 0 0 1-.053-.019Zm-.772 1.404Z"/><path class="cls-10" d="M8.39 3.408c.006-.151.008-.302.006-.448 0-.032 0-.063-.002-.095a4.335 4.335 0 0 0-.015-.3l-.005-.061a4.356 4.356 0 0 0-.04-.299 3.202 3.202 0 0 0-.075-.319.81.81 0 0 0-.03-.092 3.087 3.087 0 0 0-.066-.16 1.602 1.602 0 0 0-.227-.353 1.117 1.117 0 0 0-.064-.066l-.022-.02a1.174 1.174 0 0 0-.162-.128l-.022-.015-.023-.014a.774.774 0 0 0-.09-.05L7.522.974 7.487.958a1.18 1.18 0 0 0-.12-.047L7.323.896A2.056 2.056 0 0 0 7.027.83h-.003a2.928 2.928 0 0 0-.266-.023l-.06-.002h-.115a.171.171 0 0 1-.053-.02.048.048 0 0 1-.02-.025L6.507.755V.752a.047.047 0 0 1 .003-.024l.003-.009a.127.127 0 0 1 .024-.035l.005-.006a.17.17 0 0 0 .024-.049.27.27 0 0 0 .007-.126L6.572.495A.219.219 0 0 0 6.52.38a.075.075 0 0 0-.024-.019.06.06 0 0 0-.02-.007.058.058 0 0 0-.02 0h-.007a.098.098 0 0 0-.038.016l-.006.005a.139.139 0 0 0-.019.016l-.004.005-.01.01c-.167.218.26.538-.164.558l-.04.003L6.14.97a.626.626 0 0 0-.042.005L6.076.98h-.004a.553.553 0 0 0-.06.01L5.99.996l-.037.01-.018.005-.018.005a.619.619 0 0 0-.065.023.924.924 0 0 0-.06.025l-.023.012-.022.01a.766.766 0 0 0-.151.104l-.033.03-.032.03-.007.008a.371.371 0 0 0-.018.02l-.012.013a1.182 1.182 0 0 0-.205.357l-.018.05-.008.025a1.075 1.075 0 0 0-.059.227 2.302 2.302 0 0 0-.011.062l-.01.06-.002.013a1.191 1.191 0 0 0-.008.055l-.007.06-.006.06-.004.05-.002.03a1.744 1.744 0 0 0-.007.137l-.002.053v.07c-.007.54.069 1.102.09 1.492l.29-.314.043.024c-.015.215-.465.375-.26.593a1.18 1.18 0 0 1 .193-.314 1.05 1.05 0 0 1 .08-.086 1.014 1.014 0 0 1 .113-.1 1.275 1.275 0 0 1 .173-.12 2.533 2.533 0 0 1 .22-.118l.015-.01a.052.052 0 0 1 .011-.008l.003-.002a.188.188 0 0 1 .04-.018.518.518 0 0 1 .074-.02l.025-.005.025-.005.021-.004a.508.508 0 0 0 .099-.027l.003-.002a.164.164 0 0 0 .02-.01l.015-.01a.128.128 0 0 0 .037-.04.97.97 0 0 1-.066-.041.541.541 0 0 1-.069-.05.871.871 0 0 1-.142-.135l-.022-.027a.851.851 0 0 1-.066-.094l-.018-.03a1.07 1.07 0 0 1-.068-.139l-.016-.04-.016-.045a1.514 1.514 0 0 1-.027-.089l-.011-.043a2.006 2.006 0 0 1-.015-.063l-.01-.042a2.617 2.617 0 0 1-.027-.135l-.008-.035a.998.998 0 0 0-.01-.044c-.002-.014-.006-.028-.01-.042-.002-.013-.006-.026-.01-.038v-.001a.427.427 0 0 0-.063-.134l-.006-.008c-.006-.006-.01-.011-.017-.016l-.018-.015a.207.207 0 0 0-.051-.022.195.195 0 0 0-.028-.005c-.23-.018-.46-.509-.156-.584.139-.015.259.064.404-.023.095.037.148.035.186.019a.13.13 0 0 0 .035-.02l.018-.015.009-.007c.002-.002.005-.005.008-.006a.068.068 0 0 1 .019-.011.023.023 0 0 1 .009-.003c.008-.004.018-.005.028-.004.004 0 .007 0 .01.002.007 0 .013.002.02.005.006.001.011.004.018.007l.03.015.017.01a.813.813 0 0 1 .06.045c.158-.025.305-.133.385.094a.524.524 0 0 1 .011.119v.011a.282.282 0 0 1-.011.067l-.006.018a.212.212 0 0 1-.028.053.225.225 0 0 1-.055.056.278.278 0 0 1-.066.038.324.324 0 0 1-.045.017l-.018.005a.812.812 0 0 1-.124.026L6.41 2.1c-.039.005-.079.009-.118.012l-.057.006h-.008l-.02.003a1.395 1.395 0 0 0-.064.008c-.007 0-.013.002-.02.003l-.026.005-.03.008a.106.106 0 0 0-.013.004.258.258 0 0 0-.051.023.11.11 0 0 0-.047.056.079.079 0 0 0-.004.018.217.217 0 0 0 .019.106c.016.053.035.114.057.178.006.018.012.036.02.055l.01.027.022.055a1.242 1.242 0 0 0 .066.13.766.766 0 0 0 .083.11.4.4 0 0 0 .104.077l.022.01L6.38 3a.195.195 0 0 0 .06.01.268.268 0 0 0 .038 0 .371.371 0 0 0 .06-.038l.017-.014.016-.015.011-.01c0-.002.002-.003.003-.004l.012-.016a.376.376 0 0 0 .064-.125c.01-.026.018-.053.026-.08a.853.853 0 0 1 .051-.141v-.001l.015-.028a.322.322 0 0 1 .029-.047.405.405 0 0 1 .033-.042c0-.003.002-.004.004-.006l.012-.014.003-.002a.085.085 0 0 1 .01-.01.695.695 0 0 1 .17-.124l.021-.012a.59.59 0 0 1 .07-.033 1.737 1.737 0 0 1 .145-.055l.018-.007c.018-.006.033-.008.046-.006h.007l.004.002c.002 0 .004 0 .006.002l.005.002.006.004a.025.025 0 0 1 .006.005.058.058 0 0 1 .011.01.133.133 0 0 1 .023.042.297.297 0 0 1 .011.035l.006.025.004.027v.004a.128.128 0 0 1 .003.018l.002.018v.002l.003.038a.546.546 0 0 1 .005.058v.01l.003.018v.065a2.79 2.79 0 0 1-.007.062v.006l-.001.001a.255.255 0 0 1-.004.02l-.006.022a.304.304 0 0 1-.022.06.364.364 0 0 1-.08.112c-.004.005-.008.01-.013.013l-.029.024a.365.365 0 0 1-.07.045.477.477 0 0 1-.02.01l-.016.008a.634.634 0 0 1-.126.046c-.067.019-.138.033-.211.043l-.132.015-.022.002-.087.007-.127.01-.038.004-.038.004c.165.21.244.304.337.347a.283.283 0 0 0 .056.02l.02.004h.001a.883.883 0 0 0 .02.004h.002l.022.003.025.002c.067.005.151.003.268.005a2.042 2.042 0 0 1 .093.002l-.004-.003c.148.023.306-.045.445.035.09.05.16.05.217-.018a.514.514 0 0 0 .047.057l.015.016a.723.723 0 0 0 .065.066l.094.088.038.035.01.01c.01.008.018.018.027.027a.715.715 0 0 1 .085.1.765.765 0 0 1 .064.108c.162-.228-.008-.427-.138-.603.08-.016.137-.029.212.023Zm-2.253.038-.105.143-.104-.06c.094-.132.127-.145.21-.083Zm.547-.15c0-.007 0-.015-.002-.023h.404v.024h-.402Zm1.247.02c-.166-.051-.312-.027-.507-.046.06-.164.135-.062.26-.04.04-.06.094-.097.19-.028.034.01.063.012.089.012.047 0 .082-.007.117.015a.133.133 0 0 1 .017.014c.02.02.04.054.064.108-.085.043-.155.001-.23-.036Z"/><path class="cls-2" d="M3.188 4.115Zm-.177 1.493ZM2.36 3.453Zm-.306 2.385Zm.057.474Zm-.717-1.754Zm-.042-.056Zm-.455.544Z"/><path class="cls-1" d="M3.744 5.861a.868.868 0 0 0-.079-.165l-.025-.038a.853.853 0 0 0-.154-.166.195.195 0 0 0-.057-.032l-.015-.004a.18.18 0 0 0-.03-.005c-.069-.005-.141.029-.215.07-.016.008-.031.017-.047.027l-.032.018-.031.018-.032.017a.646.646 0 0 1-.094.038l-.032.007a.247.247 0 0 1-.03.003c-.383-.01-.282-.221-.08-.421a.925.925 0 0 1 .08-.073l.048-.041c.027-.023.054-.043.08-.063H3l.053-.04a2.14 2.14 0 0 1 .076-.05l.047-.03a.637.637 0 0 1 .079-.04 2.572 2.572 0 0 1-.08-.078c-.243-.243-.258-.362-.204-.44a.116.116 0 0 1 .022-.026.332.332 0 0 1 .053-.043.75.75 0 0 1 .022-.015l.012-.009a.599.599 0 0 0 .054-.038l.01-.01.009-.007.008-.01a.16.16 0 0 0 .013-.015l.006-.012.002-.002v-.004h.001l.002-.004.002-.005v-.004l.001-.003.002-.012V4.15l.001-.01V4.13l-.001-.004c0-.003 0-.006-.002-.01a.17.17 0 0 0-.01-.03c-.286-.294-.64-.52-.85-.881-.037-.06-.102-.097-.183-.052-.28.134-.692.072-.904.325-.025.058-.06.122-.093.187l-.033.067a1.284 1.284 0 0 0-.053.135c-.03.102-.035.205.023.3a.435.435 0 0 0 .04.067l.024.032.028.033.03.035.098.112a2.656 2.656 0 0 1 .089.113.48.48 0 0 1 .034.054c.025.048.037.09.026.126a.08.08 0 0 1-.012.025c-.003.003-.006.008-.01.01a.138.138 0 0 1-.042.03c-.157.083-.22-.124-.355-.153a.224.224 0 0 0-.043.008c-.118.033-.14.166-.117.299a.797.797 0 0 0 .053.171.501.501 0 0 0 .037.068c.089-.188.23-.326.437-.206l.026.016.02.01.021.013a1.007 1.007 0 0 1 .156.104l.01.008c.053.054.073.115 0 .181-.14.076-.385.008-.388-.19-.253.086.016.364.19.374.159.021.23.095.272.26.005.107.139.238.189.158a.079.079 0 0 0 .007-.016.196.196 0 0 0 .011-.07c-.015-.067-.062-.115.027-.157l.013.015.025.03.035.047a.529.529 0 0 1 .03.049l.008.016a.282.282 0 0 1 .019.05c.018.068.003.136-.077.198a.168.168 0 0 0-.018.015.077.077 0 0 0-.01.012.063.063 0 0 0-.007.06.183.183 0 0 0 .043.059l.02.017c.024.02.054.041.087.064l.015.01.03.018.016.01.048.03.05.03.034.02.076.047.026.018c.062.04.12.083.167.128.004.004.009.008.012.013.063.062.103.129.102.2.08.299.084.6.107.903.02.274.075.283.297.203.219-.063.167-.327.122-.49-.083-.27.023-.433.164-.591l.097-.105c.066-.072.133-.146.186-.233a.633.633 0 0 0 .119-.266.765.765 0 0 0-.035-.397ZM2.407 3.968a.378.378 0 0 1-.024.08.5.5 0 0 1-.118.18c-.211.217-.602.301-.864.129a.643.643 0 0 1-.102-.075c-.115-.112-.074-.24-.036-.421.012-.2.142-.297.305-.376.26-.16.603-.24.762-.071.01.012.02.024.03.039.05.077.07.192.048.353a.45.45 0 0 1-.001.162Z"/><path class="cls-2" d="m7.21 3.467-.46.054.463-.054H7.21Zm-1.626.723Z"/><path class="cls-5" d="M8.186 4.168a.802.802 0 0 0-.003-.033c0-.005 0-.01-.002-.014a.398.398 0 0 0-.005-.034L8.17 4.06a.235.235 0 0 0-.011-.04l-.004-.01-.008-.022a.124.124 0 0 0-.009-.02l-.005-.012v-.001a.491.491 0 0 0-.047-.077l-.015-.02a.378.378 0 0 0-.053-.057c-.002-.002-.004-.005-.007-.006a.351.351 0 0 0-.05-.042.01.01 0 0 0-.005-.003l-.02-.015a.396.396 0 0 0-.057-.036.303.303 0 0 0-.018-.01l-.013-.007-.019-.01a.233.233 0 0 0-.02-.01l-.019-.01a1.464 1.464 0 0 0-.065-.028l-.046-.019a3.288 3.288 0 0 0-.308-.098L7.34 3.5l-.13-.035.003.003H7.21h.005l-.464.054.07.242.023.079-.003-.004.087.528c.027.166.02.175-.147.199l.021.078c-.144.023-.345-.248-.163-.322l.071.216c.01-.093.018-.184.016-.275v-.021c0-.01 0-.021-.002-.032 0-.011 0-.022-.002-.033a.874.874 0 0 0-.023-.15.876.876 0 0 0-.024-.087l-.006-.016a.28.28 0 0 0-.009-.025l-.008-.02a1.12 1.12 0 0 0-.082-.163 1.426 1.426 0 0 0-.097-.14 1.24 1.24 0 0 1-.15.113 1.152 1.152 0 0 1-.1.063 4.8 4.8 0 0 1-.083.05c-.1.058-.204.116-.3.18l-.035.023-.034.024a1.238 1.238 0 0 0-.186.162.846.846 0 0 0-.099.132l-.008.014a.279.279 0 0 0-.018.035.573.573 0 0 0-.046.123.569.569 0 0 0 .04.18l.01.02a.573.573 0 0 0 .042.075l.013.017a.506.506 0 0 0 .014.018l.021.025a.41.41 0 0 0 .047.046.58.58 0 0 0 .061.049l.038.026a1.012 1.012 0 0 0 .149.076l.046.019.036.013.036.011c.009.004.018.006.028.009l.045.013.05.013.052.01c.065.014.13.025.197.032l.039.004c.053.006.105.01.157.012l.064.002h.03c.15.002.292-.008.404-.025l.127-.032.072-.019a6.89 6.89 0 0 1 .076-.02l.08-.021.082-.024.081-.026.051-.017.05-.019a1.21 1.21 0 0 0 .04-.015l.058-.024a2 2 0 0 0 .109-.054c.022-.012.044-.026.065-.039a.705.705 0 0 0 .085-.066l.024-.023a.38.38 0 0 0 .07-.104c.014-.042.027-.081.038-.12l.01-.04.007-.026a1.005 1.005 0 0 0 .016-.082v-.005l.004-.019a.288.288 0 0 0 .003-.027.235.235 0 0 0 .003-.025.827.827 0 0 0 .003-.123Zm-1.665.408c-.173-.118-.135-.323.088-.433-.082.15-.162.279-.088.433Z"/><path class="cls-9" d="M3.943 25.811c-.361.14-1.078-.06-1.424-.222a.218.218 0 0 0-.054-.029c-.174-.065-.217.233-.356.353-.312-.464-.095-.82.146-1.18.08.163.26.262.423.143.082-.083.174-.056.266.017l.04.035.02.018a1.708 1.708 0 0 1 .126.14l.03.034c.027.033.053.065.08.094l.025.029c.034.037.067.07.098.093l.013.009.013.008c.18.164.382.277.554.458ZM6.493 25.567a4.595 4.595 0 0 1-.434.008l-.04-.001-.022-.001a2.763 2.763 0 0 1-.07-.005l-.04-.003a2.422 2.422 0 0 1-.153-.018l-.043-.006a2.312 2.312 0 0 1-.157-.033l-.018-.004a2.856 2.856 0 0 1-.143-.044.416.416 0 0 1-.03-.012 1.001 1.001 0 0 1-.059-.024l-.012-.005a.254.254 0 0 1-.018-.008l-.029-.014a1.91 1.91 0 0 1-.154-.087.588.588 0 0 0-.068-.036l-.013-.005a.106.106 0 0 0-.014-.005l-.01-.002a.09.09 0 0 0-.072.019.149.149 0 0 0-.03.026.166.166 0 0 0-.016.018l-.017.021-.019.025a1.2 1.2 0 0 0-.023.036l-.016.023-.012.02-.013.021a6.74 6.74 0 0 0-.11.186c-.167-.316-.084-.62-.11-.936.34.216.449.165.623-.074.497.126.91.377 1.232.825.011.019.125.042.11.095Z"/><path class="cls-2" d="M5.285 25.424Z"/><path class="cls-5" d="M8.142 4.886c-.298.587-.997.495-1.547.55-.366.015-.686-.133-1.005-.284a.739.739 0 0 1-.094-.032c-.015-.006-.03-.012-.045-.02a.937.937 0 0 1-.323-.238l-.018-.026-.011-.016a.37.37 0 0 1-.028-.05l-.008-.021a.175.175 0 0 1-.007-.019c0-.002 0-.005-.002-.007a.29.29 0 0 1-.01-.105.264.264 0 0 1 .018-.076l.001-.002a.235.235 0 0 1 .014-.03l.008-.015a.248.248 0 0 1 .032-.045l.012-.015a.6.6 0 0 1 .029-.03l.006-.006.031-.028a1.069 1.069 0 0 0 .042.128l.021.05a.697.697 0 0 0 .032.068.731.731 0 0 0 .025.045c.008.016.017.03.027.046v.002a1.28 1.28 0 0 0 .143.18.792.792 0 0 0 .084.079l.037.03c.005.003.01.008.015.01a.772.772 0 0 0 .129.084 1.243 1.243 0 0 0 .191.089 1.495 1.495 0 0 0 .344.086 1.798 1.798 0 0 0 .229.022l.043.002a2.961 2.961 0 0 0 .121 0l.045-.002.063-.003a2.11 2.11 0 0 0 .19-.018l.102-.015.05-.009a2.297 2.297 0 0 0 .081-.015l.04-.009a2.068 2.068 0 0 0 .132-.03l.106-.03a3.281 3.281 0 0 0 .184-.06l.092-.034a2.683 2.683 0 0 0 .12-.05l.029-.013a1.42 1.42 0 0 0 .112-.054 1.6 1.6 0 0 0 .118-.063Z"/><path class="cls-2" d="M5.158 4.405Z"/><path class="cls-1" d="M4.984 23.849c-.078.205-.083.45-.211.63-.268-.346-.13-.793-.152-1.205.134.02.346-.087.405.064.037.174.005.343-.042.51ZM2.624 23.988v.096l-.003.041-.004.033a.692.692 0 0 1-.005.03v.002l-.006.03-.007.03a.364.364 0 0 1-.036.084c-.001.004-.004.008-.006.011a.338.338 0 0 1-.024.033l-.033.03c-.026.016-.02.084-.033.16-.18-.286-.207-.574-.259-.897a1.147 1.147 0 0 1-.013-.082c-.003-.036-.005-.068-.003-.097 0-.009 0-.016.002-.024l.002-.017c0-.006.002-.012.004-.018 0-.003 0-.006.002-.01l.004-.013a.15.15 0 0 1 .01-.023.14.14 0 0 1 .05-.057.07.07 0 0 1 .011-.006l.012-.006a.114.114 0 0 1 .028-.007.354.354 0 0 1 .115.002l.018.002a.844.844 0 0 1 .086.024l.005.03a5.886 5.886 0 0 0 .025.136l.01.063.008.041.02.13a3.223 3.223 0 0 1 .014.125c0 .015.002.03.003.044l.002.045.002.035Z"/><path class="cls-2" d="M2.348 23.306ZM2.603 23.738l-.02-.13c.008.042.014.086.02.13Z"/><path class="cls-5" d="M6.692 1.801c0 .01 0 .02-.002.03s0 .001 0 .001a.147.147 0 0 1-.074.1.206.206 0 0 1-.04.02.36.36 0 0 1-.023.008l-.018.006a.515.515 0 0 1-.078.016 1.044 1.044 0 0 1-.153.012c-.026 0-.052.002-.077.003l-.073.002c-.016 0-.031.001-.045.003-.015 0-.029.002-.042.003-.118.007-.237.019-.355.02a.299.299 0 0 1-.068-.023.299.299 0 0 1-.07-.043.227.227 0 0 1-.046-.055.091.091 0 0 1-.007-.014.193.193 0 0 1-.012-.043.134.134 0 0 1 0-.048.137.137 0 0 1 .007-.025l.005-.01a.116.116 0 0 1 .023-.037.183.183 0 0 1 .048-.045l.016-.01a.374.374 0 0 1 .081-.034l.105.141a.331.331 0 0 1 .013-.017l.023-.032.02-.027c.004-.004.008-.008.01-.012l.01-.01a.1.1 0 0 1 .01-.01.025.025 0 0 1 .004-.004l.005-.005.013-.01.004-.003.005-.003.007-.004a.063.063 0 0 1 .047-.004l.008.003.006.003a.113.113 0 0 1 .01.004l.009.006a.495.495 0 0 1 .077.067l.013.012.013.013a1.448 1.448 0 0 1 .057-.103l.007-.01a.248.248 0 0 1 .032-.037l.006-.005a.067.067 0 0 1 .016-.01l.006-.002h.003a.058.058 0 0 1 .032-.001l.008.002a.101.101 0 0 1 .022.011c.007.005.014.01.021.017l.012.01.023.025.024.03a1.5 1.5 0 0 1 .054.075c.048-.053.155-.072.224-.099a.255.255 0 0 1 .008.02l.008.017.007.016.01.028c0 .005.002.01.003.014l.003.016.003.014a.2.2 0 0 1 .002.027Z"/><path class="cls-2" d="M6.13 1.688ZM6.29 1.591Z"/><path class="cls-9" d="M6.77 3.001c.156-.116.23-.299.442-.235-.042-.042-.055-.07-.055-.094 0-.005 0-.01.002-.016a.054.054 0 0 1 .005-.012l.008-.012c.005-.008.01-.016.017-.024l.009-.015a.1.1 0 0 0 .012-.034c0-.01 0-.02-.002-.03-.083.006-.104.095-.157.152l-.071-.094-.019.18-.087-.117c-.052.096.048.225-.137.26-.089-.26.148-.485.361-.588.197-.1.265-.062.279.164.037.339-.311.522-.607.515Z"/><path class="cls-6" d="M3.7 8.214a.07.07 0 0 1-.002.018.046.046 0 0 1-.003.01.04.04 0 0 1-.005.01.082.082 0 0 1-.023.023c-.048.035-.14.039-.24-.025a.181.181 0 0 0-.084-.032l-.01.001a.032.032 0 0 0-.009.003l-.006.003a.028.028 0 0 0-.006.005.022.022 0 0 0-.005.004.084.084 0 0 0-.015.035.117.117 0 0 0-.003.014l-.002.014-.002.01a.23.23 0 0 0-.001.018c-.003.03-.004.063-.008.095a.313.313 0 0 1-.018.079c-.024-.025-.045-.048-.065-.067a.878.878 0 0 0-.083-.07.243.243 0 0 0-.035-.021.282.282 0 0 0-.064-.025.234.234 0 0 0-.035-.01c-.009.098-.083.156-.144.224-.097-.07-.102-.174-.108-.284-.008-.07-.037-.116-.115-.084-.216.05-.142-.165-.054-.262a.224.224 0 0 1 .069.038.224.224 0 0 1 .037.034c.005.005.01.01.013.015L2.686 8l.022.03.02.03.03.042.012.017a.371.371 0 0 0 .018.024l.002.001a.256.256 0 0 0 .18.102c.282.034.556-.213.572-.498l.018.013.014.012.013.014.01.013a.086.086 0 0 1 .013.031v.005l.001.005v.02l-.001.008a.158.158 0 0 1-.003.013l-.005.013-.005.014-.012.024a.624.624 0 0 0-.006.011l-.016.029a.114.114 0 0 0-.007.014.13.13 0 0 0-.008.02.064.064 0 0 0-.001.031c0 .003.001.007.003.01 0 .003.002.005.003.006l.004.006.004.005c.01.01.023.019.043.028a.32.32 0 0 1 .063.049.14.14 0 0 1 .031.054.087.087 0 0 1 .002.017ZM7.83 7.388v.025c-.155.018-.14-.201-.249-.236l-.053.288a1.92 1.92 0 0 0-.047.003.516.516 0 0 0-.012-.065.936.936 0 0 0-.047-.16l-.01-.023a.191.191 0 0 0-.031-.05l-.01-.01a.052.052 0 0 0-.01-.009.06.06 0 0 0-.01-.006.048.048 0 0 0-.021-.005l-.01.001a.037.037 0 0 0-.011.004.071.071 0 0 0-.01.006.105.105 0 0 0-.021.019.203.203 0 0 0-.029.04l-.008.013a.483.483 0 0 0-.033.072.312.312 0 0 0-.087-.065c-.02-.014-.038-.023-.05-.018-.032.006-.06.03-.084.06h-.001c-.019.02-.038.042-.06.068a.3.3 0 0 1-.02.057l-.002.001c-.02.032-.038.057-.057.062a.027.027 0 0 1-.014 0c-.003-.001-.007-.002-.01-.005a.066.066 0 0 1-.018-.017.14.14 0 0 1-.012-.02c-.005-.014-.008-.027-.011-.04l-.008-.037a.372.372 0 0 1 0-.116.217.217 0 0 1 .01-.032l.006-.015a.096.096 0 0 1 .007-.014.1.1 0 0 1 .01-.014.205.205 0 0 1 .07-.06l.003-.002a.325.325 0 0 1 .024-.01c.004-.003.009-.004.013-.006a.09.09 0 0 1 .015-.005.526.526 0 0 1 .167-.026h.023c.208-.004.457.046.6.05a.143.143 0 0 1 .057.031.07.07 0 0 1 .01.012l.011.014a.624.624 0 0 1 .006.01l.007.015c.025.062.019.147.017.215Z"/><path class="cls-2" d="M6.904 7.399c-.015.03-.035.057-.058.061.02-.005.038-.03.058-.061ZM7.12 7.23c-.052-.024-.09-.003-.134.042.024-.03.052-.054.085-.06.012-.004.03.004.05.017Z"/><path class="cls-3" d="M3.397 5.25a.17.17 0 0 1-.018.05.069.069 0 0 1-.015.017c-.192.084-.374.259-.589.254l-.01-.024A1.548 1.548 0 0 0 2.83 5.5l.031-.024.123-.097.064-.05.01-.008a3.448 3.448 0 0 1 .16-.115 1.236 1.236 0 0 1 .144-.08.046.046 0 0 1 .01.009c.005.005.009.01.012.017a.05.05 0 0 1 .005.01l.004.01.003.015.002.01.001.012c.001.013 0 .028-.002.041Z"/><path class="cls-2" d="M3.362 5.126a.02.02 0 0 1 .004.004.046.046 0 0 0-.004-.004Z"/><path class="cls-8" d="M4.954 24.725c-.196.093-.423-.065-.363-.301.132.2.166.228.358.067.031.108.16.17.005.234Z"/><path class="cls-5" d="M6.84 3.838v.3l-.3-.753.018-.015a6.87 6.87 0 0 0 .086.13l.068.104.019.03.018.03c.028.048.054.096.079.146l.002.005.01.023Z"/><path class="cls-2" d="M6.827 3.81Z"/><path class="cls-3" d="M3.298 4.999a1.359 1.359 0 0 1-.498.405c.114-.182.238-.352.498-.405Z"/><path class="cls-8" d="M2.628 24.687c.013.18-.278.174-.253 0h.254Z"/><path class="cls-4" d="M8.952 4.62c-.132-.012-.168-.194-.026-.197.063.053.072.122.026.197ZM8.797 4.31c-.134-.053-.07-.16-.089-.278.143.079.07.191.089.277ZM9.245 6.076c-.061.068-.14.014-.215.005l-.001-.03c.077-.003.168-.065.215.025Z"/><path class="cls-7" d="M3.379 9.368a1.324 1.324 0 0 0-.163-.089.946.946 0 0 0-.148-.053.553.553 0 0 0-.31 0 .482.482 0 0 0-.212.134.662.662 0 0 0-.072.088 1.2 1.2 0 0 0-.175.445 1.875 1.875 0 0 0-.038.325c.082.631.361 1.252.724 1.775-.065.024-.137-.023-.209-.108a.823.823 0 0 1-.07-.095c-.011-.017-.023-.034-.033-.052l-.014-.022-.023-.04a2.092 2.092 0 0 1-.023-.04l-.02-.04a4.085 4.085 0 0 1-.058-.115l-.026-.054-.02-.047a1.617 1.617 0 0 1-.016-.036l-.003-.006a4.226 4.226 0 0 1-.047-.112l-.016-.04-.02-.051a1.9 1.9 0 0 1-.211-.744 2.44 2.44 0 0 1-.01-.157v-.002a2.484 2.484 0 0 1 .047-.533.678.678 0 0 1 .081-.223c.01-.016.018-.032.028-.046l.015-.023.033-.043c.102-.127.24-.228.388-.29.142-.036.42.015.55.147a.267.267 0 0 1 .045.06.228.228 0 0 1 .026.087ZM3.204 12.232c-.106.055-.14-.024-.206-.08.117-.063.145.03.206.08ZM3.394 12.43c-.14.008-.168-.018-.129-.14l.13.14ZM8.16 3.35c-.085.044-.155.002-.229-.035-.166-.05-.312-.026-.507-.045.06-.164.135-.062.26-.04.04-.06.094-.097.19-.028.035.01.063.012.089.012.047 0 .082-.007.117.015a.133.133 0 0 1 .017.014c.02.02.041.054.064.108ZM6.138 3.446l-.106.143-.104-.06c.094-.132.127-.145.21-.083ZM7.087 3.297h-.403l-.001-.024h.403v.024ZM2.36 3.453a.246.246 0 0 0-.03-.039c-.159-.17-.502-.088-.762.071-.163.079-.293.177-.305.376-.038.182-.079.309.036.421.016.016.034.03.055.046l.047.03c.262.172.653.087.864-.13a.406.406 0 0 0 .041-.046.5.5 0 0 0 .1-.214.462.462 0 0 0 .002-.162c.022-.161.002-.276-.048-.353Zm-.318-.031-.596.266-.015-.03a1.06 1.06 0 0 1 .611-.236Zm-.098.316a.217.217 0 0 0-.028-.04.027.027 0 0 0-.006-.005.028.028 0 0 0-.006-.005.013.013 0 0 0-.006-.003l-.003-.002c-.065-.032-.139.067-.242.075.182-.238.489-.13.371.132-.13.142-.504.18-.4-.127.016.251.434.197.32-.025Zm-.547.166a.07.07 0 0 1 .004-.014c0-.003.002-.005.003-.008l.003-.005a.035.035 0 0 1 .01-.012l.015-.012a.157.157 0 0 1 .036-.018l.015-.005a.262.262 0 0 1 .04-.011c-.006.135.06.268.2.273l.01.036c-.106.023-.307.101-.298-.084a.524.524 0 0 1-.036-.1l-.002-.014-.001-.012.001-.014Zm-.005.326c.362.074.605-.156.9-.26-.053.333-.629.52-.9.26Zm.897-.503a.271.271 0 0 1-.033.074.303.303 0 0 1-.118.108c.035-.14-.033-.24-.148-.316.02-.08.17-.068.24-.091a.15.15 0 0 1 .054.069.23.23 0 0 1 .005.156ZM6.52 4.576c-.172-.118-.134-.324.09-.433-.083.15-.164.279-.09.433Z"/><path class="cls-10" d="M2.291 3.969c-.052.334-.628.521-.9.261.363.074.606-.156.9-.261ZM2.289 3.727a.271.271 0 0 1-.033.074.303.303 0 0 1-.119.108c.036-.141-.032-.24-.147-.316.02-.08.169-.068.24-.092a.15.15 0 0 1 .054.069.23.23 0 0 1 .005.157Z"/><path class="cls-10" d="M2.024 3.89c-.13.142-.504.18-.4-.128.016.252.434.198.32-.025a.217.217 0 0 0-.028-.039.027.027 0 0 0-.007-.005.017.017 0 0 0-.005-.005.013.013 0 0 0-.006-.003c-.001-.002-.002-.002-.003-.002-.065-.033-.139.067-.242.075.182-.238.489-.13.371.132Z"/><path class="cls-10" d="M1.734 4.128c-.107.022-.308.101-.299-.084a.524.524 0 0 1-.036-.1l-.002-.014-.001-.013.001-.013a.07.07 0 0 1 .004-.014c0-.003.002-.005.003-.008l.004-.005a.035.035 0 0 1 .01-.012c.003-.004.008-.008.014-.012a.157.157 0 0 1 .036-.018l.015-.005a.262.262 0 0 1 .04-.011c-.006.135.06.268.2.273l.01.036ZM2.042 3.422l-.596.266-.015-.03a1.06 1.06 0 0 1 .61-.236Z"/></g></svg>