<svg xmlns="http://www.w3.org/2000/svg" viewBox="0 0 17.135 26.177" xmlns:v="https://vecta.io/nano"><path d="M16.928 1.582c-.102-.374-.177-.624-.562-.768-.093-.058-.206-.086-.312-.117-.34-.091-.756-.021-1.064.146-.164.106-.347.194-.498.316-.059.058-.12.078-.198.08-.26.032-.525.07-.776.151-.135.042-.26.122-.402.14-.168.1-.194-.077-.332-.117-.188-.012-.682.093-.748.292-.026.064-.12.061-.177.067-.138-.08-.226-.274-.413-.273l-.453-.046c-.172.008-.273-.097-.373-.209-.037-.042-.031-.075.016-.111.135-.093.038-.217-.039-.316-.088-.132-.195-.236-.333-.315-.159-.131-.177.012-.314.014-.214-.066-.428-.129-.651-.164L8.505.184C8.128.103 7.742.115 7.361.12 7.043.11 6.724.103 6.406.128c-.795.097-1.58.285-2.351.497-.936.225-1.95.482-2.628 1.209-.173.175-.313.383-.436.595l-.17.239c-.04.085-.06.173-.117.255-.007.162-.091.322-.163.466-.032.11-.08.216-.122.323-.033.316-.134.616-.186.928-.023.219-.076.429-.057.65-.004.228.063.456.041.686.008.038.051.078.043.109-.021.083.041.144.046.219.076.241.11.5.214.732a1.13 1.13 0 0 0 .181.412c.049.067.046.153.108.214.045.045.075.107.103.166.025.052.214.316.289.399.043.055.223.174.226.233.055.072.126.106.175.182a1.82 1.82 0 0 0 .242.224c.069.084.566.527.773.624l.577.391c.017.012.039.033.039.049.005.318-.045.639.018.953a4.5 4.5 0 0 1 .038 1.221c-.015.074-.095.047-.084.155.029.15-.06.408.154.429-.292 1.144.008.823.238 1.752.034.406-.103.803-.109 1.209l-.137 1.682c-.028.33-.136.645-.193.97-.068.521-.17 1.04-.176 1.566l.012 2.298c.055.689-.041 1.378-.071 2.066-.03.144.203.043.283.057.075-.005.081.004.084.078-.015.131.07.355-.015.455-.191.14-.151.375-.147.582.02.186-.059.425.073.576.034.032.109.028.165.028.219.01.135-.254.164-.397.032.006.03-.004.045.02a.73.73 0 0 0 .335.267c.403.118.383-.316.329-.579-.04-.5-.517-.358-.551-.696-.005-.341-.163-.375.256-.413l.455-.035c.109-.021.053-.192.072-.276l-.025-1.721c-.057-1.074-.043-2.149.022-3.223.014-.535.14-1.062.161-1.596l-.001-1.505c.026-.455.085-.908.032-1.363l-.092-.796c-.016-.104-.047-.205-.006-.308l.02.003c.267 1.012.142 2.09.223 3.128a7.35 7.35 0 0 1-.015 1.075l-.035 2.48-.018 1.689c-.089.799-.073 1.602-.122 2.403-.02.128.118.015.117.115.001.072.014.144.015.216-.003.114-.119.189-.151.291-.08.227-.104.462-.088.702.032.139-.015.336.089.441.135.092.4.06.372-.154-.002-.028.014-.058.025-.1.258.277.388.245.724.149.251-.102.009-.626-.124-.779-.326-.303-.544-.241-.491-.773-.023-.154.431.012.426-.129.005-.34-.077-.675-.089-1.013-.012-.264.006-.529.01-.794.04-.742-.045-1.479-.042-2.221.022-.769.171-1.529.252-2.293l.083-1.727c.119-1.114.225-2.246-.049-3.346-.008-.043-.009-.08.04-.104.17-.086.231-.432.137-.587-.002-.208.045-.421.011-.634-.022-.211-.035-.43-.03-.642a1.76 1.76 0 0 0 1.181-.139c.277-.053.533-.168.786-.289.421-.166.694-.5.881-.9.087-.184.18-.367.208-.572.085-.327.04-.665.035-.999.006-.28-.035-.557-.059-.834.002-.147.003-.292-.029-.437-.035-.295-.156-.572-.131-.873.014-.175.01-.353.01-.529-.003-.114.142-.032.108-.166-.048-.224-.026-.458-.098-.677-.055-.074-.164-.021-.25-.018-.055-.407-.059-.669.221-.998.043-.061.09-.122.117-.19.02-.052.042-.062.089-.054s.113-.006.158.019c.121.095.268.127.41.168.193.062.265-.056.415-.128.138-.006.547-.067.63.042.076.079.203.137.286.199-.127.371.296.348.532.281.159.353.458.062.587-.15.03.207.154.304.361.209.174-.12.036-.366.016-.544.137.074.25.196.42.143.116-.036.242-.056.325-.159.01-.012.027-.022.042-.025l.977-.118c.074-.007.149.005.224.003.093-.012.117.077.168.133.37.419 1.327.706 1.786.301.286-.215.461-.53.597-.854.16-.328.155-.694.075-1.042zm-6.243-.173c.207.234.816.007 1.037.376-.373.107-.764.024-1.135.148-.117.029-.172.229-.143.302.036.082.08.163.093.252-.093-.027-.196-.155-.273-.064-.026.038-.047.018-.056-.012-.088-.205.012-.409.057-.61.039-.425-.342-.206.204-.538.079-.02.161.097.215.145zm-.199 1.161c-.001.071-.089.111-.142.046-.027-.037-.117-.078-.069-.13.075-.083.208-.019.211.083zM10.106.666c.114-.098.298.204.401.264.032.029.035.047.005.081-.095.105-.177.222-.281.316-.055.05-.143.064-.219.095-.145-.064-.268-.147-.337-.291-.019-.045-.023-.083.017-.117l.414-.348zM3.225 9.623c-.136-.038-.253-.101-.361-.185-.073-.046-.166-.044-.219-.125-.052-.069-.13-.119-.179-.189-.116-.144-.273-.237-.408-.358l-.454-.492c-.091-.124-.188-.243-.317-.329-.203-.234-.413-.478-.488-.787-.286-.38-.44-.87-.483-1.347-.004-.171-.041-.341-.047-.512 0-.333.07-.666.143-.991.042-.226.112-.447.168-.67.102-.352.339-.644.495-.97.182-.36.417-.715.729-.975.49-.362 1.085-.608 1.684-.714l-.179.089.005.02c.127.007.23-.09.352-.112.032-.012.074-.018.037-.079A17.8 17.8 0 0 1 6.277.345L7.745.316c.726-.075 1.448.06 2.138.284.089.031-.101.155-.147.226-.066.06-.093.186-.206.159L8.951.853C8.303.729 7.643.753 6.989.7c-.488 0-.977.043-1.461.104-.467-.005-.918.109-1.376.183a3.64 3.64 0 0 0-1.4.682c-.281.207-.499.489-.705.769-.264.36-.443.766-.551 1.197-.049.223-.067.456-.109.679-.023.093-.046.182-.038.28l.021 1.534c.011.419.184.813.416 1.156l.151.237c.062.084.151.154.183.264.224.322.537.587.839.838.12.097.284.126.371.259-.074.229-.083.485-.106.74zm.535 15.363c.023-.044.049-.08.105-.063.001.061-.039.113-.065.166-.038.095-.18.033-.149.178.017.117.211.111.194-.012-.044-.109.047-.192.089-.285.112.052.117.066.069.165-.018.089-.111.15-.131.232.018.081.131.11.134.008-.05-.112.043-.168.077-.247l.025-.003c.082.157.075.333.097.503.006.055-.019.073-.069.066-.325-.031-.311.129-.554-.186-.129-.096-.131.117-.141.197-.006.091-.161.035-.227.054-.048-.266-.033-.702.03-.766.102.201.41.181.514-.006zm-.068-.098c.08.155-.429.306-.353-.01.088.151.22.058.353.01zm-.273-.619c.133 0 .133-.004.157.127.032.15.069.303.014.453-.187.123-.199-.082-.226-.218.02-.087-.083-.378.055-.362zm1.374.407c.122.089.168.04.275-.035.037.07.022.135-.042.16-.101.038-.287.085-.301-.074 0-.035.028-.075.067-.051zm.058-.454c.133-.017.164-.017.169.139l-.032.194c-.013.063-.056.076-.103.031-.061-.058-.059-.138-.066-.214-.005-.042.004-.13.032-.151zm.329.582l.005.024-.09.176c-.035.047-.156.079-.069.143.062.058.226.075.169-.057-.036-.066-.03-.134.022-.188.074-.053.149.052.215.082.034.042-.057.143-.085.179-.09.072-.015.154.074.145.073-.011.005-.124.075-.224.118-.026.387.616.142.554a1.48 1.48 0 0 0-.456.069c-.017.004-.043-.003-.055-.014-.054-.035-.155-.222-.194-.088-.032.186-.045.166-.219.134-.096-.003-.101-.001-.115-.099-.03-.271-.057-.563.075-.813.174.18.336.036.507-.021zm.446-9.884l-.158 2.791-.251 1.914-.034 1.894a10.77 10.77 0 0 0-.018 1.326l.043 1.106c.004.1-.408.092-.509.123-.048-1.238.178-2.454.216-3.689.055-.569-.046-1.135-.054-1.704.102-.724.033-1.454.006-2.181l-.096-2.609c-.015-.165-.056-.328-.092-.49-.153-.329-.224-.054-.205.137l.119 1.044c.037.611-.101 1.217-.121 1.829l-.312 3.36c-.092.522-.028 1.042.047 1.562l.1 1.938.005.706c0 .011-.02.031-.033.032-.301.043-.602-.035-.904-.036-.057-.003-.077-.026-.083-.077l-.094-.922-.101-1.399c-.018-.895-.039-1.8.124-2.684.213-.779.318-1.579.39-2.383.01-.523.11-1.04.187-1.558.037-.221.035-.436-.055-.644-.092-.196-.196-.385-.233-.601-.082-.311-.157-.625-.072-.945.011-.077.042-.093.116-.097.143-.006.285-.028.427-.046a8.47 8.47 0 0 1 1.234-.106c.038-.013.052.006.076.03.081.062.156.18.269.162.05-.007.064.016.069.062l.048.371c.032.595.01 1.191-.051 1.784zm-1.764-2.716c.033.03.05.213.031.284-.046-.031-.066-.199-.031-.284zm.19.004c.021.101.024.204.027.306-.042-.1-.06-.201-.027-.306zm.14.06c.01.073.007.147.009.221l-.03.006c-.012-.091-.06-.232-.021-.312.058.003.037.056.041.086zm.132-.105l.005.184c-.043-.061-.046-.123-.005-.184zm.086-.014c0-.012.02-.025.031-.037.049.092.015.214.03.317l-.026.007c-.056-.082-.025-.192-.035-.287zm.253.316c-.05-.192-.035-.361.015-.369-.009.121.038.257-.015.369zm.102-.313l.007.239h-.02c.001-.079-.024-.159.013-.239zm.146.132c.021.047.022.095.024.143-.014-.047-.019-.095-.024-.143zm.149-.14l.031.294c-.062-.092-.059-.192-.031-.294zm.32.278c-.066-.043-.09-.118-.062-.179l.062.179zm.305-.435c-.128.02-.326.008-.346.181-.018-.207.197-.298.346-.181zm-.039.505c-.013-.001-.025-.013-.039-.016-.165-.027-.289-.31-.096-.387.062-.002.265.094.154.137-.072.001-.184.053-.103.127.041.026.119.023.154.055-.007.042-.014.094-.07.084zm.126-1.231c-.008.227-.033.445-.015.674-.248-.167-.344-.02-.594.015l-1.553.139c-.055.005-.068-.014-.074-.068l-.065-.439c-.038-.193-.039-.395-.068-.587-.038-.138-.053-.278-.043-.417.008-.114-.021-.228.023-.344.049-.296.048-.616.073-.918.075-.492.067-1.11.577-1.367.04.09.074.187.179.203.348.09.785.091 1.051-.186.268.139.42 1.157.384 1.455-.379-.055-.358-.354-.612-.572-.161-.152-.253-.326-.497-.21-.193.032-.309.226-.264.411.022.076-.031.143.004.221.019.057.005.124.011.187.057.823.83 1.071 1.493 1.296-.035.169-.003.339-.008.508zM3.954 5.863c-.251-.286-.459-.672-.4-1.062.176-.006.286-.241.11-.335-.115.121-.002.142-.079.2-.248.071.086-.374-.094-.577-.103-.102-.259-.301-.11-.427.163-.108.364-.102.324.151-.05-.069-.071-.191-.179-.171-.061.006-.109.035-.126.093-.014.045-.022.096.032.132.032.045.063.099.112.134l.017-.015c-.018-.079-.153-.205-.055-.266.036-.018.088.018.101.057.015.074.063.157.147.142.156-.071.081-.274-.012-.368-.069-.092-.202-.035-.308-.059-.008-.049-.006-.115.044-.135.144-.038.213-.132.235-.276.025-.162.07-.322.11-.481.07-.113.351-.202.477-.272.189-.088.396-.028.594-.008.103.032.213.036.32.038.057-.001.08.021.083.074.008.266.036.529.086.79.024.171.042.342.124.498.028.066.014.098-.057.113-.083.012-.172.048-.243-.024-.049-.053-.096-.032-.117.044-.038.164-.253.022-.132-.128-.016-.027-.053-.02-.08.006-.107.084.057.282.173.248.091-.032.067.091.071.143-.015.199.085.381.077.577-.218.027-.468.02-.624.201-.041.04-.089.086-.037.14.117.104.213.246.383.25.272-.036.179.03.29.244.18.332-.145.614-.382.807-.168.133-.059.37-.047.548.036.226.02.452.01.679.001.126-.212.039-.294.061-.137.005-.087-.392-.086-.492-.029-.191-.03-.38-.003-.571.035-.326-.263-.496-.455-.704zm1.14-.926c-.16.017-.288.045-.455.023.111-.197.408-.201.597-.141-.029.099-.045.109-.142.117zm.132.112c-.093.169-.422.167-.543.017l.543-.017zm-.149 2.919c.001.014-.037.032-.057.048l-.099-.261c.113.004.152.12.156.214zm-.025-.24c.08.004.087.072.11.122.003.006-.018.022-.027.033l-.083-.156zm-.129.278l-.122-.23c.058.004.131.132.122.23zm-.114.023c-.099-.024-.102-.132-.083-.217.038.075.057.128.083.217zm-.118.019l-.077.002.006-.162c.034.049.051.1.07.16zm-.154.005c-.025.026-.069.026-.09-.003-.026-.063.025-.13.028-.195.002 0 .053 0 .055 0 .002.066.027.152.006.198zm4.142-2.899c-.023.422-.079.832.038 1.243.088.321.088.666.151.994.022.265-.047.522-.028.788.016.25.002.501-.048.746-.071.463-.358.674-.66.99-.133.144-.308.225-.469.327-.204.163-.467.188-.713.25-.165.069-.1.05-.267.034-.684.048-.681.113-1.321-.199-.224-.109-.441-.234-.573-.451-.231-.275-.291-.629-.32-.973-.016-.068.024-.101.076-.127.373-.189.592.565.811.769.256.265.598.404.94.524.036.014.083.008.124.002.104-.015.209.027.315-.019.128-.055.263-.093.396-.139.75-.348.771-1.318.886-2.031.023-.347.129-.691.097-1.039-.015-.167.014-.341-.022-.508-.069-.255.006-.513-.075-.767-.001-.088-.141-.363.026-.343.222.008.413-.083.638-.069zm-.041-.212c-.023.104-.363.078-.463.107-.138 0-.309.054-.412-.06-.059-.077-.038-.226-.049-.324-.006-.057.016-.088.07-.106.189-.086.399-.136.602-.068a.43.43 0 0 1 .253.45zM8.638 3.3c-.477.383-.191.528-.234.999-.018.107-.333.06-.429.084-.125.035-.01-.461-.214-.692-.059-.1-.162-.143-.249-.204-.279-.18-.408-.545-.373-.867l.071.115-.029.038c.057.001.122.055.141-.038.096-.048.125-.122.114-.223.245.093.024.498.251.612-.074.201.5.341.524.108-.09.007-.158.096-.261.047-.079-.038-.154-.074-.234-.135.368.006.702-.052 1.064-.043-.013.102-.072.158-.141.199zm-1.265-.758c.003.074-.035.122-.101.115-.215-.038.091-.406.101-.115zm.984.412l-.428.042c-.099.013-.223.045-.252-.084-.001-.076-.112-.374-.002-.378a6.3 6.3 0 0 1 .91-.153c.125-.015.23-.059.36-.058l.02.639c-.193.033-.41-.008-.607-.006zm-.639-.965c.106-.077.236-.053.358-.057.094.004.124.094.194.16-.247-.011-.474-.03-.682.117-.059.021-.092-.019-.097-.084.137.034.239-.038.226-.135zm-.169.087c.051-.087.085-.098.15-.045-.071.066-.107.077-.15.045zm.925-.254c.161.052.284.209.369.36.043.06-.02.079-.067.092-.079.044-.125.013-.179-.054-.059-.072-.557-.391-.456-.485.034-.038.073-.024.114.001-.088.157.134.211.219.086zm-.169-.089c.024.043.123.001.1.094-.065.085-.183.02-.1-.094zm-.577.495c.053-.044.111-.063.18-.07.059.18-.085.212-.18.07zm-.044-.005c.102.233.306.151.285-.092l.079.069.009-.049c.198-.011.416.084.397.18-.189.005-.377.051-.563.07-.093-.013-.343-.021-.207-.177zm1.211-.046c-.023-.245-.924-.864-.82-.321-.19-.004-.383.015-.545.126-.099.062-.146.216-.032.283.113.043.038.115.192.174-.11.102-.111-.095-.238-.089-.11-.014-.219-.019-.312.053-.1.082-.017.209-.181.217l-.377.064c-.097.012-.058-.187-.348-.199-.18.022-.358.199-.309.4.018.129.032.277.139.366.135.102.286.126.441.053.072-.034.118-.141.193-.171l.332-.039c.119-.036.18.297.419.426.101.055.194.133.216.254l.092.552c.026.145-.207.024-.174.162.024.216.067.436.05.654-.01.127.059.102.156.102l.176 1.143c.034.337-.025.666-.011 1.004.007.368-.082.723-.118 1.088-.036.258-.058.542-.226.753-.171.221-.359.519-.664.542a1.8 1.8 0 0 1-.75-.128c-.124-.046-.242-.109-.364-.159-.046-.019-.058-.053-.064-.095-.029-.229-.034-.46-.094-.685-.013-.248.009-.423-.158-.633-.061-.117-.22-.207-.196-.351.053-.227-.163-.299-.341-.348-.072-.021-.081-.072-.083-.138l-.036-.769c-.003-.051.02-.09.057-.106.106-.046.169-.133.235-.218.484-.59-.137-.76.085-.917.141-.061.055-.149.069-.261.02-.101-.005-.194-.031-.29a3.28 3.28 0 0 1-.097-.596c-.012-.162.01-.14.153-.162.12-.02.361-.039.248-.214-.159-.288-.123-.624-.155-.94l-.05-.455a.17.17 0 0 1 .018-.101c.092-.145.032-.307-.125-.378-.112-.051-.224-.083-.34-.057-.136.031-.248-.034-.37-.059-.291-.065-.587.033-.865.114-.333.127-.572.494-.587.847-.018.23-.002.527.223.656.001.079.036.166-.013.232-.229.201-.039.419.117.593.085.127.028.297-.027.429-.03.053.008.114.04.167.039.343.087.702.29.995.166.271.552.366.596.714.018.204-.03.416-.039.622-.024.092.027.37-.059.406-.204.04-.207.162-.221.317-.003.034.002.057-.043.079-.08.039-.156.094-.222.154-.158.169-.276.377-.332.604-.013-.009-.026-.01-.025-.005-.071.039-.162-.103-.216-.152-.042-.05-.103-.082-.153-.126-.191-.171-.397-.328-.564-.524l-.413-.557c-.148-.252-.329-.495-.406-.781l-.149-.82c-.052-.533.11-1.052.149-1.581l.116-.764c.125-.339.31-.656.498-.965s.453-.527.738-.731c.405-.33.912-.496 1.408-.631.482-.112.972-.155 1.465-.158.167-.024.332-.038.5-.028.413-.057.817.02 1.226.062L8.733.92c.188.012.376.028.557.083.061.03.164.031.193.101.052.22.255.34.423.465.052.032.105-.024.149-.044.144.018.195.229.118.342-.161.079-.364.073-.536.135-.067.019-.114-.01-.164-.028-.183-.068-.401.044-.484.216-.038.053-.075.047-.096-.012zm-1.84.816c-.335.042-.405.208-.465-.201-.008-.035-.005-.056.039-.063.137-.01.28-.077.416-.047l.01.311zm-.883-.121c-.042-.026-.087.068-.098 0-.009-.062.051-.102.099-.067.061.069.07.186.002.252a.23.23 0 0 1-.075-.095c.076.074.154-.041.072-.09zm.099.252c.001.042-.045.059-.081.067-.024.005-.055-.022-.091-.039l.172-.027zm-.206-.406c.03-.063.084-.076.141-.058.109.04.103.239.104.338-.053-.13-.018-.314-.245-.281zm.255-.081c.073.002.178.177.179.241-.018.158-.027.341-.205.398l-.012-.017c.192-.189.092-.414.038-.622zm3.405.557c-.146.08-.31.024-.448-.047-.275-.171-.261-.574-.166-.845.038-.197.145-.227.333-.258-.086.237-.182.455-.113.704.04.254.1.43.396.427zm.735-.125c-.018.083-.127.023-.185.03-.198.01-.391.006-.583-.05-.308-.109-.305-.5-.256-.763.011-.104.1-.194.204-.216.167-.028.327-.092.498-.089-.043.207-.002.641.224.72.086.018.17.002.219-.072.085-.126-.039-.278-.069-.408-.094-.306.369-.284.565-.305l.848-.004c.037 0 .052.007.038.051-.086.355-.008.727.167 1.042-.327-.022-.634-.013-.958.002-.127.008-.218-.019-.293-.119-.056-.075-.203-.104-.289-.066-.139.062-.156.096-.129.247zm.102.008c-.033-.195.239-.119.23.035.003.079-.01.084-.091.074-.073-.009-.113-.046-.139-.109zm.182.199c.126-.039.175-.192.069-.281l-.136-.111c.095-.084.354.263.49.256.142.034.279-.087.412-.02-.039.174-.238.232-.398.234-.155 0-.31.037-.437-.079zm.199.383c-.082-.104.163-.119.203-.015-.065.073-.136.025-.203.015zm.293-.02c-.009.002-.029-.011-.031-.02-.018-.121-.281-.137-.34-.045-.041-.241.236-.053.551-.204.411-.135.188-.281.427-.25-.078.184-.175.404-.374.471l-.233.047zm.297.145c.012-.081.051-.109.12-.093.08.055-.062.074-.12.093zm.737-.196c-.089-.045-.08-.157-.002-.177.054.037.005.117.002.177zm-.068.104c-.035.024-.131.006-.151-.029-.095-.082.064-.578-.062-.467-.012.018-.023.039-.025.061-.018.151-.1.269-.189.384-.009.011-.039.019-.051.013-.104-.054-.195-.023-.237.085-.001.003-.007.005-.021.014-.119-.144.098-.047.288-.341.051-.062.096-.128.103-.216.022-.146.2-.092.301-.111.129-.011.108.167.145.25-.35.086.002.309-.101.358zm.253-.591c-.201-.089-.278-.297-.363-.483-.083-.238.005-.587.038-.836.016-.085.094-.118.151-.166.132-.11.284-.145.451-.093.372.147-.421.209-.376.578-.005.295.071.594.213.852.072.096.186.131.291.204-.179.082-.261.053-.404-.056zm1.706-.704c-.013.087.142.449.047.456l-.592.153c-.179.027-.363.013-.541.04-.245.03-.389-.18-.5-.358-.093-.184-.085-.626 0-.813.05-.097.154-.126.249-.153l1.153-.287.003.023c.642-.048.113.023.181.937zm2.606.274c-.031.047-.059.097-.079.15-.132.247-.361.432-.596.575-.181.121-.413.13-.625.136a1.06 1.06 0 0 1-.894-.421c-.133-.2-.135-.462-.149-.696.004-.471.023-.816.33-1.199.256-.305.692-.377 1.067-.443.249-.007.538.044.696.252.076.105.169.202.224.317.059.123.076.266.122.396.094.295.049.659-.096.932z" fill="#0f181b"/><g fill="#316956"><path d="M5.639 25.637a1.48 1.48 0 0 0-.456.069c-.017.004-.043-.003-.055-.014-.054-.035-.155-.222-.194-.088-.032.186-.045.166-.219.134-.096-.003-.101-.001-.115-.099-.03-.271-.057-.563.075-.813.174.18.336.036.507-.021l.005.024-.09.176c-.035.047-.156.079-.069.143.062.058.226.075.169-.057-.036-.066-.03-.134.022-.188.074-.053.149.052.215.082.034.042-.057.143-.085.179-.09.072-.015.154.074.145.073-.011.005-.124.075-.224.118-.026.387.616.142.554z"/><path d="M4.138 25.693c-.325-.031-.311.129-.554-.186-.129-.096-.131.117-.141.197-.006.091-.161.035-.227.054-.048-.266-.033-.702.03-.766.102.201.41.181.514-.006.023-.044.049-.08.105-.063.001.061-.039.113-.065.166-.038.095-.18.033-.149.178.017.117.211.111.194-.012-.044-.109.047-.192.089-.285.112.052.117.066.069.165-.018.089-.111.15-.131.232.018.081.131.11.134.008-.05-.112.043-.168.077-.247l.025-.003c.082.157.075.333.097.503.006.055-.019.073-.069.066z"/></g><path d="M3.339 24.878c.088.151.22.058.353.01.08.155-.429.306-.353-.01zm1.687-.077c-.101.038-.287.085-.301-.074 0-.035.028-.075.067-.051.122.089.168.04.275-.035.037.07.022.135-.042.16z" fill="#184137"/><path d="M5.02 24.361l-.032.194c-.013.063-.056.076-.103.031-.061-.058-.059-.138-.066-.214-.005-.042.004-.13.032-.151.133-.017.164-.017.169.139zm-1.429.488c-.187.123-.199-.082-.226-.218.02-.087-.083-.378.055-.362.133 0 .133-.004.157.127.032.15.069.303.014.453z" fill="#eac3a7"/><path d="M5.677 13.137c-.007-.124-.034-.247-.048-.371-.005-.045-.02-.068-.069-.062-.113.018-.188-.099-.269-.162-.025-.024-.038-.043-.076-.03-.413.006-.824.04-1.234.106l-.427.046c-.074.003-.104.02-.116.097-.085.319-.01.633.072.945.038.216.142.406.233.601.09.208.092.423.055.644-.076.518-.177 1.034-.187 1.558-.072.803-.177 1.604-.39 2.383-.163.884-.142 1.789-.124 2.684l.101 1.399.094.922c.005.051.025.074.083.077.302.001.603.079.904.036.013-.001.033-.021.033-.032l-.005-.706-.1-1.937c-.075-.52-.139-1.04-.047-1.562.167-1.112.209-2.239.312-3.36.02-.612.158-1.218.121-1.829l-.119-1.044c-.02-.191.052-.466.205-.137l.092.49c.097.868.06 1.739.096 2.609.027.727.096 1.457-.006 2.181.008.57.109 1.135.054 1.704L4.7 24.076c.102-.031.513-.023.509-.123.017-.368-.037-.737-.043-1.106a10.77 10.77 0 0 1 .018-1.326l.034-1.894c.036-.643.164-1.277.251-1.914.113-.927.101-1.861.158-2.791.061-.593.083-1.189.051-1.784zm-.109.848q-.055-.063-.027-.127l.072.051-.046.076z" fill="#dd5633"/><g fill="#316956"><path d="M4.772 12.39h-.02c.001-.079-.024-.159.013-.239l.007.239z"/><path d="M4.934 12.427c-.014-.047-.019-.095-.024-.143.021.047.022.095.024.143zm.156.012c-.062-.092-.059-.192-.031-.294l.031.294zm.289-.016c-.066-.043-.09-.118-.062-.179l.062.179zm.305-.436c-.128.02-.326.008-.346.181-.018-.207.197-.298.346-.181zm.032.421c-.007.042-.014.094-.07.084-.013-.001-.025-.013-.039-.016-.165-.027-.289-.31-.096-.387.062-.002.265.094.154.137-.072.001-.184.053-.103.127.041.026.119.023.154.055zm-1.053.057c-.05-.191-.035-.361.015-.369-.009.121.038.257-.015.369z"/><path d="M4.471 12.43l-.026.007c-.056-.082-.025-.192-.035-.287 0-.012.02-.025.031-.037.049.092.015.214.03.317zm-.141-.082a.15.15 0 0 1-.005-.184l.005.184z"/><path d="M4.202 12.49l-.03.006c-.012-.091-.06-.232-.021-.312.058.003.037.056.041.086.01.073.007.147.009.221zm-.122.025c-.042-.1-.06-.201-.027-.306.021.101.024.204.027.306zm-.187-.026c-.046-.031-.066-.199-.031-.284.033.03.05.213.031.284z"/></g><path d="M10.512 1.011c-.095.105-.177.222-.281.316-.055.05-.143.064-.219.095-.145-.064-.268-.147-.337-.291-.019-.045-.023-.083.017-.117l.414-.348c.114-.098.298.204.401.264.032.029.035.047.005.081zm-1.874 3.93c-.023.104-.363.078-.463.107-.138 0-.309.054-.412-.06-.059-.077-.038-.226-.049-.324-.006-.057.016-.088.07-.106.189-.086.399-.136.602-.068a.43.43 0 0 1 .253.45z" fill="#dd5633"/><g fill="#e7a96c"><path d="M4.537 8.053c-.025.026-.069.026-.09-.003-.026-.063.025-.13.028-.195h.055c.002.066.027.152.006.198zm.155-.006l-.077.002.006-.162c.034.049.051.1.07.16zm.117-.018c-.099-.024-.102-.132-.083-.217a1.11 1.11 0 0 1 .083.217zm.115-.023l-.122-.23c.058.004.131.132.122.23zm.238-.155c.003.006-.018.022-.027.033l-.083-.156c.08.004.087.072.11.122z"/><path d="M5.077 7.968c.001.014-.037.032-.057.048l-.099-.261c.113.004.152.12.156.214z"/></g><path d="M9.736.826c-.066.06-.093.186-.206.159L8.951.853C8.303.729 7.643.753 6.989.7a11.51 11.51 0 0 0-1.461.105C5.06.8 4.61.913 4.152.988a3.64 3.64 0 0 0-1.4.682c-.281.207-.499.489-.705.769a3.41 3.41 0 0 0-.551 1.197c-.049.223-.067.456-.109.679-.023.093-.046.182-.038.28L1.37 6.13c.011.419.184.813.416 1.156l.151.237c.062.084.151.154.183.264.224.322.537.587.839.838.12.097.284.126.371.259-.074.229-.083.485-.106.74a1.03 1.03 0 0 1-.361-.185c-.073-.046-.166-.044-.219-.125-.052-.069-.13-.119-.179-.189-.116-.144-.273-.237-.408-.358l-.454-.492c-.091-.124-.188-.243-.317-.329-.203-.234-.413-.478-.488-.787-.286-.38-.44-.87-.483-1.347C.311 5.641.274 5.471.268 5.3c0-.333.07-.666.143-.991.042-.226.112-.447.168-.67.102-.352.339-.644.495-.97.182-.36.417-.715.729-.975A4.06 4.06 0 0 1 3.487.98l-.179.089.005.02c.127.007.23-.09.352-.112.032-.012.074-.018.037-.079A17.8 17.8 0 0 1 6.277.345L7.745.316C8.471.241 9.193.376 9.883.6c.089.031-.101.155-.147.226zm-.895 7.352c.016.25.002.501-.048.746-.071.463-.358.674-.66.99-.133.144-.308.225-.469.327-.204.163-.467.188-.713.25-.165.069-.1.05-.267.034-.684.048-.681.113-1.321-.199-.224-.109-.441-.234-.573-.451-.231-.275-.291-.629-.32-.973-.016-.068.024-.101.076-.127.373-.189.592.565.811.769.256.265.598.404.94.524.036.014.083.008.124.002.104-.015.209.027.315-.019.128-.055.263-.093.396-.139.75-.348.771-1.318.886-2.031.023-.347.129-.691.097-1.039-.015-.167.014-.341-.022-.508-.069-.255.006-.513-.075-.767-.001-.088-.141-.363.026-.343.222.008.413-.083.638-.069-.023.422-.079.832.038 1.243.088.321.088.666.151.994.022.265-.047.522-.028.788z" fill="#d5773b"/><path d="M5.772 11.261c-.008.227-.033.445-.015.674-.248-.167-.344-.02-.594.015l-1.553.139c-.055.005-.068-.014-.074-.068l-.065-.439c-.038-.193-.039-.395-.068-.587-.038-.138-.053-.278-.043-.417.008-.114-.021-.228.023-.344.049-.296.048-.616.073-.918.075-.492.067-1.11.577-1.367.04.09.074.187.179.203.348.09.785.091 1.051-.186.268.139.42 1.157.384 1.455-.379-.055-.358-.354-.612-.572-.161-.152-.253-.326-.497-.21-.193.032-.309.226-.264.411.022.076-.031.143.004.221.019.057.005.124.011.187.057.823.83 1.071 1.493 1.296-.035.169-.003.339-.008.508z" fill="#e7a96c"/><path d="M5.226 5.05c-.093.169-.422.167-.542.017l.543-.017zm.01-.23c-.029.099-.045.109-.142.117-.16.017-.288.045-.455.023.111-.197.408-.201.597-.141z" fill="#ed1c24"/><path d="M12.27 3.589c-.089-.045-.08-.157-.002-.177.054.037.005.117.002.177zm-.737.196c.012-.081.051-.109.12-.093.08.055-.062.074-.12.093zm-.387-.14c-.065.073-.136.025-.203.015-.082-.104.163-.119.203-.015zm-.66-1.076c-.001.071-.089.111-.142.046-.027-.037-.117-.078-.069-.13.075-.083.208-.019.211.083zm.215.617c-.073-.009-.113-.046-.139-.109-.033-.195.239-.119.23.035.003.079-.01.084-.091.074z" fill="#9fa3a4"/><g fill="#eac3a7"><path d="M12.202 3.693c-.035.024-.131.006-.151-.029-.095-.082.064-.578-.062-.467-.012.018-.023.039-.025.061-.018.151-.1.269-.189.384-.009.011-.039.019-.051.013-.104-.054-.195-.023-.237.085-.001.003-.007.005-.021.014-.119-.144.098-.047.288-.341.051-.062.096-.128.103-.216.022-.146.2-.092.301-.111.129-.011.108.167.145.25-.35.086.002.309-.101.358z"/><path d="M11.843 3.121c-.078.184-.175.404-.374.471l-.233.047c-.009.002-.029-.011-.031-.02-.018-.121-.281-.137-.34-.045-.041-.241.236-.053.551-.204.411-.135.188-.281.427-.25z"/><path d="M11.579 3.121c-.039.174-.238.232-.398.234-.155 0-.31.037-.437-.079.126-.039.175-.192.069-.281l-.136-.111c.095-.084.354.263.49.256.142.034.279-.087.412-.02zm-1.134-.886c.036.082.08.163.093.252-.093-.027-.196-.155-.273-.064-.026.038-.047.018-.056-.012-.088-.205.012-.409.057-.61.039-.425-.342-.206.204-.538.079-.02.161.097.215.145.207.234.816.007 1.037.376-.373.107-.764.024-1.135.148-.117.029-.172.229-.143.302z"/></g><path d="M7.372 2.542c.003.074-.035.122-.101.115-.215-.038.091-.406.101-.115zm.355-.313c.053-.044.111-.063.18-.07.059.18-.085.212-.18.07zm-.03-.198c-.071.066-.107.077-.15.045.051-.087.085-.098.15-.045zm.706-.204c-.065.085-.183.02-.1-.094.024.043.123.001.1.094z" fill="#9fa3a4"/><g fill="#eac3a7"><path d="M8.775 2.275c-.079.044-.125.013-.179-.054-.059-.072-.557-.391-.456-.485.034-.038.073-.024.114.001-.088.157.134.211.219.086.161.052.284.209.369.36.043.06-.02.079-.067.092z"/><path d="M8.269 2.092c-.247-.011-.474-.03-.682.117-.059.021-.092-.019-.097-.084.137.034.239-.038.226-.135.106-.077.236-.053.358-.057.094.004.124.094.194.16z"/><path d="M8.452 2.331c-.189.005-.377.051-.563.07-.093-.013-.343-.021-.207-.177.102.233.306.151.285-.092l.079.069.009-.049c.198-.011.416.084.397.18zm-.738.813c.081.061.156.097.234.135.103.049.171-.039.261-.047-.024.232-.598.093-.524-.108-.227-.113-.006-.519-.251-.612.01.101-.018.175-.114.223-.02.092-.085.039-.141.038l.029-.038-.071-.115c-.035.321.095.687.373.867.088.061.19.104.249.204.205.231.09.727.214.692.096-.024.411.022.429-.084.043-.47-.243-.616.234-.999.069-.042.127-.097.141-.199-.363-.009-.696.049-1.064.043zm.359.365L8.06 3.49c.152-.081.278-.161.363-.321.025.177-.181.319-.35.341zm-2.622.323c-.083.012-.172.048-.243-.024-.049-.053-.096-.032-.117.044-.038.164-.253.022-.132-.128-.016-.027-.053-.02-.08.006-.107.084.057.282.173.248.091-.032.067.091.071.143-.015.199.085.381.077.577-.218.027-.468.02-.624.201-.041.04-.089.086-.037.14.117.104.213.246.383.25.272-.036.179.03.29.244.18.332-.145.614-.382.807-.168.133-.059.37-.047.548.036.226.02.452.01.679.001.126-.212.039-.294.061-.137.005-.087-.392-.086-.492a1.95 1.95 0 0 1-.003-.571c.035-.326-.263-.496-.455-.704-.251-.286-.459-.672-.4-1.062.176-.006.286-.241.11-.335-.115.121-.002.142-.079.2-.248.071.086-.374-.094-.577-.103-.102-.259-.301-.11-.427.163-.108.364-.102.324.151-.05-.069-.071-.191-.179-.171-.061.006-.109.035-.126.093-.014.045-.022.096.032.132.032.045.063.099.112.134l.017-.015c-.018-.079-.153-.205-.055-.266.036-.018.088.018.101.057.015.074.063.157.147.142.156-.071.081-.274-.012-.368-.069-.092-.202-.035-.308-.059-.008-.049-.006-.115.044-.135a.3.3 0 0 0 .235-.276c.025-.162.07-.322.11-.481.07-.113.351-.202.477-.272.189-.088.396-.028.594-.008a1.15 1.15 0 0 0 .32.038c.057-.001.08.021.083.074.008.266.036.529.086.79.024.171.042.342.124.498.028.066.014.098-.057.113z"/></g><path d="M9.726 3.175c-.147.099-.311.042-.449-.028-.275-.171-.261-.574-.166-.845.038-.197.145-.227.333-.258-.086.237-.182.455-.113.704.04.254.1.43.396.427zm3.133-.017c-.179.082-.261.053-.404-.056-.201-.089-.278-.297-.363-.483-.083-.238.005-.587.038-.836.016-.085.094-.118.151-.166.132-.11.284-.145.451-.093.372.147-.421.209-.376.578-.005.295.071.594.213.852.072.096.186.131.291.204z" fill="#234968"/><path d="M6.174 3.058a.23.23 0 0 1-.075-.095c.076.074.154-.041.072-.09-.042-.026-.087.068-.098 0-.009-.062.051-.102.099-.067.061.069.07.186.002.252z" fill="#567591"/><g fill="#234968"><path d="M6.27 3.124c.001.042-.045.059-.081.067-.024.005-.055-.022-.091-.039l.172-.027z"/><path d="M6.309 2.999c-.053-.13-.018-.314-.245-.281.03-.063.084-.076.141-.058.109.04.103.239.104.338z"/></g><path d="M6.499 2.878c-.018.158-.027.341-.205.398l-.012-.017c.192-.189.092-.414.038-.622.073.002.178.177.179.241z" fill="#567591"/><path d="M16.863 1.74c-.046-.13-.064-.273-.122-.396-.055-.115-.149-.212-.224-.317-.157-.208-.447-.259-.694-.237-.377.051-.813.123-1.069.428-.306.383-.326.728-.33 1.199.013.234.016.496.149.696a1.06 1.06 0 0 0 .894.421c.212-.007.444-.016.625-.136.234-.143.463-.328.596-.575a.82.82 0 0 1 .079-.15c.145-.273.19-.637.096-.932zM15.73 3.319c-.354.066-.734-.096-.95-.382-.181-.222-.19-.516-.215-.789-.014-.235.069-.44.211-.622.16-.177.31-.445.59-.388.523-.04 1.03.099 1.203.654.175.605-.113 1.502-.839 1.528z" fill="#234968"/><path d="M7.054 2.993c-.335.042-.405.208-.465-.201-.008-.035-.005-.056.039-.063.137-.01.28-.077.416-.047l.01.311z" fill="#a7b6c3"/><path d="M8.963 2.96c-.193.033-.41-.008-.607-.006l-.428.042c-.099.013-.223.045-.252-.084-.001-.076-.112-.374-.002-.378a6.3 6.3 0 0 1 .91-.153c.125-.015.23-.059.36-.058l.02.639z" fill="#7b92a4"/><path d="M12.129 3.005c-.327-.022-.634-.013-.958.002-.127.008-.218-.019-.293-.119-.056-.075-.203-.104-.289-.066-.139.062-.156.096-.129.247-.018.083-.127.023-.185.03-.198.01-.391.006-.583-.05-.308-.109-.305-.5-.256-.763.011-.104.1-.194.204-.216.167-.028.327-.092.498-.089-.043.207-.002.641.224.72.086.018.17.002.219-.072.085-.126-.039-.278-.069-.408-.094-.306.369-.284.565-.305l.848-.004c.037 0 .052.007.038.051-.086.355-.008.727.167 1.042zm2.078-.151l-.592.153c-.179.027-.363.013-.541.04-.245.03-.389-.18-.5-.358-.093-.184-.085-.626 0-.813.05-.097.154-.126.249-.153l1.153-.287.003.023c.642-.048.113.023.181.938-.013.087.142.449.047.456z" fill="#4f6d86"/><g fill="#d5773b"><path d="M3.724 18.115c.014-.006.029-.019.042-.017.099.009.058-.112.095-.17l.021.006c-.053.217-.017.164.165.203l-.002.027c-.193.009-.203-.032-.187.181l-.029.002-.019-.104-.075.037c-.048-.073.047-.047.089-.091a.35.35 0 0 0-.1-.055z"/><path d="M3.881 18.658c.039-.005.056.001.087.018-.013.01-.024.027-.038.029-.113.014-.013.145-.078.203-.05-.053-.021-.126-.031-.198-.05.001-.087.014-.124-.02.044-.058.139.01.135-.09.001-.017.014-.034.021-.052.023.037.034.062.03.11zm.214-5.479c-.204.038-.218-.055-.213.182l-.022.001c-.035-.178.029-.148-.158-.159.112-.037.133-.058.147-.179.009.024.022.043.022.062.005.116.164.023.225.07l-.001.022zm-.28 6.196c-.007-.043.006-.064.023-.099.011.024.031.059.027.084l.086.035-.085.047c-.001.037.016.107-.021.145-.04-.045-.025-.1-.029-.157a.3.3 0 0 1-.137-.022.24.24 0 0 1 .135-.031z"/><path d="M4.254 12.846c-.049.029-.179.01-.124.098.006.011.003.027-.003.048-.034-.069-.06-.147-.157-.121.116-.055.121-.072.048-.178l-.021.001.054-.047.07.179.129-.004.003.023zm-.349 7.278c-.003.025-.001.045-.009.061-.013.021-.055.017-.054-.012.038-.095-.041-.059-.079-.114l.107-.03c-.005-.021.008-.047.024-.063.048.039.007.108.079.129.007.003.008.024.011.037-.031.01-.048.01-.08-.007zm1.196-5.713c-.191.036-.147.031-.145.209l-.022.003c-.033-.085.039-.179-.084-.229.126-.04.056-.133.093-.2.028.156-.041.205.156.198zm-1.227 9.281l.034-.019.004-.108.022-.004c.05.058-.014.155.101.158-.011.006-.022.017-.034.018-.083.013.006.089-.044.152-.046-.059-.054-.12-.084-.197zM3.577 17.8l.013-.121.021-.001c0 .087.018.125.103.148-.075.045-.091.087-.074.171-.023-.003-.033-.008-.033-.013.003-.07-.007-.129-.098-.13-.055-.035.038-.05.068-.053z"/><path d="M3.963 19.156c-.025-.009-.066-.022-.091-.041.006-.01.011-.027.018-.028.085-.01.031-.094.076-.142.009.018.026.038.024.055-.01.096.075.061.128.099-.047.037-.094.039-.156.056zm-.458-6.401c.064-.023.074-.016.067.047-.006.082.189.01.22.081-.107 0-.131.009-.135.117-.021-.019-.028-.038-.026-.056.024-.119-.138-.035-.105-.13.005-.014-.013-.037-.022-.06zm.624 5.957l.066.037-.072.043c0 .027.012.081-.019.108-.038-.025-.03-.073-.031-.108l-.075-.038.059-.036.04-.078.032.072zm1.12-4.358c-.004-.007-.012-.014-.011-.021.012-.111-.112-.058-.175-.101l.005-.023c.079.004.179.04.19-.066l.109.087c-.103-.009-.104.06-.097.137l-.02-.012zm-1.806 8.822l.069.009a.15.15 0 0 0-.086.168c-.075-.042.002-.148-.118-.157.123-.046.056-.084.103-.14.045.027.026.072.031.12zm1.118-10.473c.026.108.043.1.147.126-.106.065-.11-.011-.117.145-.018-.11-.041-.115-.143-.113.028-.029.063-.042.104-.057l-.003-.102zm-.831 1.033c-.018-.104-.035-.121-.141-.111.055-.026.103-.051.116-.108.002.114.125.023.178.095-.059.029-.167-.018-.134.08.004.013-.002.029-.004.044z"/><path d="M3.638 19.079c-.024.006-.062 0-.082-.023.02-.021.058-.032.082-.03l.038-.072c.023.045.05.077.102.098l-.062.034-.032.078-.046-.085zm.489-3.832q-.021-.088-.088-.195c.095.017.075-.07.114-.114-.002.066-.014.135.097.129-.114.02-.102.11-.122.181zm-.524 6.017c.054.047.002.13.09.14l-.037.025-.035.098-.043-.09-.061-.033.067-.037.021-.103zm1.677-7.499c.054.035-.005.174.133.118-.087.041-.123.098-.075.19l-.026-.001c-.006-.018-.019-.036-.018-.053.014-.097-.087-.059-.118-.126.122.009.111-.017.105-.127zm-.171-.781l.019.107.072.006c-.078.04-.095.109-.082.193l-.023-.006c.012-.095-.006-.123-.1-.164.077-.015.121-.053.083-.142l.031.007zM3.753 23.155l-.026.02-.005.092-.133-.125.078-.013c-.005-.038-.006-.076.023-.108.029.044.04.078.063.133z"/><path d="M5.141 13.728c-.011-.136-.093-.054-.094-.158.111.041.063-.051.086-.079.026.104.044.095.142.084-.045.048-.146.048-.096.168l-.037-.015zm-.047 5.451l-.021-.049L5 19.087l.067-.039.027-.049.045.058c.021-.002.05.018.071.025-.053.02-.072.05-.116.097zm-.878 4.563c-.076.005.024.091-.049.121-.03-.078-.057-.221-.008-.291.04.048.031.11.057.17zm-.34-9.892A.51.51 0 0 0 4 13.717l.02.064.09.005c-.068.043-.145.07-.073.168L4 13.949l-.031-.084-.093-.015z"/><path d="M4.034 14.116c.105-.035.12-.056.109-.159h.025l-.004.131.104.022-.094.04-.017.075h-.018l-.012-.076-.092-.034zm-.524 9.329a.3.3 0 0 1 .041-.093c.017.025.031.049.031.08l.092.017c-.017.012-.023.021-.031.022-.084.002-.044.069-.085.116-.034-.045-.032-.078-.046-.142z"/><path d="M3.518 23.726l-.06.019-.029.102-.026-.002c-.023-.08-.026-.155.007-.233.042.011.039.04.037.076l.073.025-.002.012zm.256-5.241l-.134.062c-.024-.039-.102-.062-.011-.096.024-.041.029-.115.046-.164l.024.005-.011.059c-.013.118-.042.105.086.134zm.655-3.626c-.07.002-.112.027-.108.101-.017-.063-.031-.117-.107-.122l.006-.016.067-.027.017-.1q.042.113.125.164zm-.232-1.523l.014.085.049.006c-.078.036-.051.115-.081.172-.003-.104-.017-.132-.124-.147l.004-.02c.089.013.11-.007.138-.097zm-.322 1.023l.08-.03.01-.094a.82.82 0 0 1 .063.137l-.043.117c-.011-.077-.03-.1-.108-.114z"/><path d="M4.123 14.455c-.006.095.007.125.103.155-.04.027-.122.026-.102.121-.004-.072-.037-.109-.104-.121q.072-.047.103-.155zm.937 5.855l-.086-.019c.031-.052.087-.021.086-.085 0-.009.014-.018.021-.027.033.026.04.059.058.1-.011.02-.019.082-.047.096-.032-.006-.032-.036-.032-.064zm-.113-7.392c.016-.092-.065-.088-.116-.119.09-.005.107-.025.115-.12l.059.132-.059.107zm-.674 2.625c-.058-.097-.06-.172.017-.265-.006.071.023.111.102.119-.096.031-.116.049-.109.143z"/><path d="M5.274 12.938c-.025-.06-.066-.083-.131-.081.055-.022.092-.042.113-.094l.081.069-.063.106zm-.839.204c-.072.015-.074.068-.079.129.001-.073-.029-.117-.108-.123.028-.024.048-.032.074-.042l.016-.113c.017.041.021.079.024.119l.071.014zm-1.223 8.851c.145.016.084-.091.113-.151.011.159-.034.14.125.176l-.122.046-.112-.054zm2.104-4.267c-.086.02-.049.076-.054.124l-.087-.154.067-.101c.033.038-.021.12.074.131zm-.136-3l-.1-.118.077-.077c.019.068.05.075.127.072-.047.042-.152.022-.104.123zm-1.212.802l-.113-.099.119-.072.009.053.078.022c-.044.028-.108.018-.093.096zm-.105 1.108l.022-.083c.022.042.004.107.09.096-.081.044-.078.074-.091.155-.021-.044.006-.113-.066-.119-.044-.029.013-.052.045-.048zm-.195 3.076c.006-.03.02-.078.044-.105.042.061.061.175-.009.224-.018-.041-.023-.07-.035-.118zm1.475-.042c-.051.13-.066.132-.128.005.05-.098.072-.106.128-.005zm.189-6.234l.021-.1q.039.104.117.131c-.067.009-.103.026-.11.099l-.075-.113.046-.016z"/><path d="M4.072 15.799l-.007-.065c-.04-.001-.054-.011-.054-.053.079-.003.042-.065.051-.102.004-.015.001-.032.002-.06.039.066-.012.168.105.182-.059.014-.088.044-.096.098zm.708-2.593l-.059-.133.083-.085.007.078.06.004c-.042.04-.102.064-.092.135z"/><path d="M4.905 13.456l-.003-.101.008-.004.036.097.058.006c-.063.025-.071.079-.076.134-.014-.065-.042-.102-.111-.108l.006-.022.082-.002zm-.927 1.338c-.01.067.05.056.101.059l-.117.075c-.147-.041-.06-.069.016-.134zm-.384 4.587c-.015.03-.029.062-.051.089-.031-.03-.043-.073-.059-.111l.052-.086c.027.03.042.073.058.108zm.035-.512c-.007.033-.016.072-.043.097-.029-.033-.038-.066-.058-.11.01-.02.032-.068.057-.087.028.029.032.06.044.1zm2-5.251l-.062.099-.079-.107.079-.053.063.061zM3.52 18.099l.099.063c-.014.037-.117-.009-.069.099-.045-.018-.064-.064-.099-.1l.102-.046-.033-.017zm1.993-3.675l-.106.09-.053-.066.053-.114c.001.084.057.087.106.09zm-.359.947l.01.068.047.013-.067.109c.003-.046-.034-.073-.099-.078.048-.028.102-.046.091-.12l.018.008z"/><path d="M5.311 15.338c-.103-.069-.119-.088-.007-.162l.05.076-.044.087zm-1.148 2.52l-.096-.092.073-.027.028-.064.041.101-.046.082zm1.276-4.664l-.064-.082.059-.125c.02.047-.006.122.073.126l-.068.081zm-.398 3.102c-.043-.03-.011-.1-.078-.106-.001 0-.003-.021 0-.021.061-.022.051-.083.071-.131.012.049-.05.13.074.125-.064.029-.087.07-.066.134zm-1.018 2.066c.032.052-.04.126.055.139-.037.053-.087.039-.133.036-.003 0-.004-.027-.006-.041.066-.004.049-.087.084-.134z"/><path d="M5.101 15.003l.072.092-.054.105c-.02-.042-.04-.059-.082-.088l.058-.043.005-.064z"/><path d="M5.277 14.952l-.096-.059c.057-.061.128-.036.197-.031l-.102.09zm.047 2.338l-.069-.099.057-.113.051.138-.039.074zm-1.448-.083l-.105-.078.101-.053.054.062-.051.069zm1.138.944l-.006-.204.021-.009c.02.05.027.113.108.107-.055.025-.109.037-.096.111l-.027-.006z"/><path d="M5.145 17.338c-.011.083.043.094.105.1l-.098.058-.066-.05.059-.108zm-.702-2.183l-.005.061-.07-.091.058-.082.088.099-.07.012zm-.291 2.972l.003.087c-.03-.042-.051-.087-.074-.138l.053-.047.076.081-.058.017zm-.084-.975l.082-.117c.035.019-.036.12.046.093l-.089.062.042.023-.081-.061zm-.042-1.259l-.081.096-.061-.066.099-.056c-.015-.008-.025.05.043.027zm1.251.955l-.114.082-.054-.068.061-.094.013.075.093.005zm-.237.255c-.006.081.059.071.121.09-.084.014-.133.042-.114.124-.015-.037-.024-.077-.045-.11-.033-.053.047-.059.038-.104zm-.805-2.719l.043-.104.066.082-.077.063.019.024-.052-.065z"/><path d="M5.314 16.7l-.073-.08.05-.096.062.107-.039.069zm-.33-1.886l.109.049a.09.09 0 0 0-.072.129l-.076-.13.039-.047zm-1.04 8.287c-.017.079.033.089.095.089-.099.071-.102.071-.19.018.049-.026.076-.048.078-.104l.018-.003zm-.288.502l.1.042-.098.076q-.066-.086-.003-.118zm.182-6.156l.053.044-.069.09-.078-.091.093-.043zm1.656-2.001l-.067.095-.076-.064.077-.068.066.037zm-1.467 1.35l.039.046-.049.14-.054-.092.102-.064-.038-.031zm-.294.537l-.08.058-.07-.038.09-.091.061.071zm.495-1.544c.003.051-.017.104.051.113l-.042.095c-.085-.099-.07-.095-.009-.207zm1.233-1.069l-.051-.076.048-.07.08.066-.077.08zm-.959-.119l-.052.081-.064-.069.067-.097.049.085zm.425 9.356l-.071-.058.064-.084c.007.076.009.077.115.084l-.109.058zm.085-6.314l.109.067-.108.077c-.007-.049-.042-.101 0-.144z"/><path d="M3.644 16.865c.03-.029.056-.029.112.014l-.08.056.043.01-.076-.08zm1.853-2.803l.038.051-.032.173c-.03-.054.015-.132-.07-.146l.065-.078z"/><path d="M3.986 16.337l.07.038-.074.098c-.005-.032-.017-.071-.07-.065-.043-.035.05-.055.075-.071zm1.444.393l.031.114-.046.081c-.06-.077-.04-.12.014-.195zm.068-1.678l-.056.081-.076-.075.064-.063.068.058zm-1.694 1.225c.012-.075-.078-.03-.102-.074l.101-.04.07.033-.069.081zm.017 5.694l.072-.054.054.053-.049.08-.076-.079zm1.07-8.126c-.125-.102-.01-.141.087-.08l-.087.08z"/><path d="M4.328 16.828l-.035.087-.062-.088.051-.086.047.087zm.014-3.077l.104.043c-.078.018-.076.044-.081.127-.027-.051-.001-.13-.085-.121l.062-.049zm.717 8.756c-.036.03-.088.021-.145-.015l.093-.065-.016.01.068.07zm-.971-4.915c-.051-.072-.063-.122.016-.169l.045.088-.047.015-.014.066zm-.253 5.784l.036.061c-.101.091-.22.013-.036-.061zm1.209-9.329c-.03-.025-.075-.04-.09-.073.108-.089.139-.046.09.073zm.13 1.64l.065-.032-.002-.068c.022.039.008.098.078.099l-.056.073.024-.024-.109-.047zm-1.75 5.409l-.111-.044.005-.025.208.021-.102.049zM5.15 18.43l.069-.045.062.065-.035.044-.096-.064z"/><path d="M4.372 14.112l.029-.063.058.069.022-.018-.053.085-.056-.073zm-.167 9.023l-.024.117-.069-.106.049-.061.045.051zm1.082-6.946l-.092-.048c.023-.019.044-.023.07-.028l.005-.059.062.097-.045.038zm-1.084 6.562l.005.171c-.122-.06-.094-.08-.005-.171z"/><path d="M4.145 16.723l-.049-.108.05-.042-.01.016.069.044-.06.091zm1.314-3.91l.056-.043.069.03-.049.098-.075-.085zm-2.007 9.44l.084-.069c-.01.046.02.066.074.067l-.078.056-.081-.053zm1.546.788c-.032.004-.071.063-.104.01-.014-.022.016-.071.026-.109l.078.099zm-1.437-9.573l-.095-.031.081-.046.108.05-.094.028zm1.4 1.796l.057.043-.043.076-.086-.067.072-.052zm.411.63l.049-.085.057.089-.043.043-.063-.047zm-1.405 1.78l-.033.092c-.045-.055-.119-.103-.005-.139l.038.047zm.096 4.631l-.032.037-.085-.036.063-.095.054.095zm.871 1.122l.076.067c-.062.039-.097.036-.138-.018l.063-.049zm.139-6.889l.037.092-.04.087-.045-.106.048-.074zm.163 1.415l.06.087-.074.029c-.048-.014-.033-.065.014-.116z"/><path d="M3.547 13.267l-.078-.087c.026-.037.047-.039.117-.005l-.039.093zm.403 9.33l.034-.066.086.064-.052.058-.068-.057zm1.011.672l.068-.067.056.074-.034.049-.091-.055zm-1.379-.491c-.024.077.05.032.072.055-.061.066-.079.067-.147.005l.075-.06zm.885-10.06c-.067.05-.144.04-.195-.027l.195.027zm-.168 2.995l.053-.073.057.068-.035.068-.075-.062zm-.459.076l-.077-.056.063-.064.057.056-.043.064z"/><path d="M3.952 22.851c-.074.036-.126.038-.184.006.058-.039.114-.041.184-.006zm.769-10.272l.069.074-.049.046-.104-.037c.024-.033.108.017.083-.083zm-.694.783l-.089-.034c.058-.039.107-.065.169-.019l-.08.052zm-.235 8.94l-.073-.051c.045-.023.094-.038.073-.104.039.034-.023.108.069.106l-.069.049zm.198-7.162l-.113.081-.009-.105.123.024zm.8 8.454c.013.047.02.096.087.086-.035.022-.048.067-.1.04-.062-.03.003-.075.013-.126zm.564-6.089c-.001-.052-.048-.104.003-.149l.074.077-.076.073zm-1.352-.124l-.058-.059.038-.05.091.046-.083.046.013.018zm-.4 4.486l.059.082-.043.04c-.083-.019-.059-.076-.016-.122zm1.533-5.429c-.003-.024-.069-.062-.007-.1l.116.042-.109.058zm-.35 6.362l.064-.044.072.046c-.081.053-.092.054-.136-.002zm-1.113-9.76l.069-.057.063.054c-.05.05-.068.052-.132.004zm1.238 2.652l.054-.049.083.049-.071.053-.066-.052zm.207 7.998l-.048.044L5 23.698l.056-.075.061.066z"/><path d="M3.814 22.571c-.021.007-.052.026-.067.044-.068-.03-.039-.083-.034-.118l.1.074zm1.799-8.662l-.046.076q-.055-.063-.027-.127l.072.051zM3.58 12.98c-.053.053-.09.058-.149.023.042-.052.093-.045.149-.023zm1.606 2.912l-.042.073-.072-.069.075-.054.039.05zm-1.662 4.865l.095-.048.053.046c-.063.038-.072.039-.148.003zm1.884-4.304c-.059-.05-.035-.097-.001-.15l.042.09-.042.06zm-.228 1.434l-.055.071c-.003-.036-.08-.04-.043-.09s.066.009.098.019zm-1.741 1.238c-.06.024-.122.071-.181-.013l.181.013zm.524-5.573l-.097-.038c.05-.043.091-.06.136-.006l-.039.044zm.302 2.915l-.077-.046.082-.061.038.049-.043.059zm.792 6.318l-.024.087-.07-.085.055-.042.039.04zm-.126-.952l.056.086c-.05.035-.063.032-.101-.024l.045-.062zm-1.089-.479l.078.055-.08.04q-.049-.033.002-.095z"/><path d="M4.117 16.208l-.088-.045c.055-.046.104-.019.162-.003l-.073.048zm1.024-3.514l-.088-.041.083-.054q.033.036.005.095zm-1.308 11.21c-.037.037-.068.002-.105-.017l.054-.082.051.099zm1.114-1.672c-.079.065-.106-.009-.077-.092l.077.092zm-1.21-8.324l-.088.049-.024-.079.111.008.001.022zm-.429 7.559l-.154.02-.003-.023c.042-.056.101-.022.154-.022l.003.026zm.235 2.366l.093.052c-.061.039-.087.033-.133-.017l.04-.034zm.854-7.641l-.047.069-.075-.063.071-.04.051.035zm-.916 3.525c-.059.046-.113.05-.177.006l.177-.006zm.466-6.729l.073.057c-.025.024-.044.052-.086.024-.055-.037.022-.054.013-.081zm-.053 1.129l-.057.069-.075-.048.132-.021zm.901 9.119l.097.052c-.044.022-.082.061-.129-.007l.032-.046zm-1.576-.919l.114.051-.12.016.006-.067zm1.805-5.379l-.068-.074.055-.03.061.045-.047.059zm-1.633 5.931c-.042.023-.133.074-.14.005.045-.044.087-.026.14-.005zm.753-.935l-.046.069c-.049-.032-.076-.066-.004-.107l.05.038zm.764-.733l.078-.053.056.046-.044.042-.089-.035zm-1.126-.784l.037.032-.03.044-.122-.046.115-.029zm.752-7.236l-.056-.045.045-.054.074.054-.064.046zm-.495 8.415c.008.028.05.056.003.094l-.097-.017.094-.076zm-.515.066c-.05.013-.101.06-.154.002.052-.078.104.015.154-.002zm.306-5.245l-.06.092-.076-.077.136-.015zM5.031 17.6c-.029-.048-.061-.095.001-.16l.022.157-.023.003zm-.84-.273c.028-.02.038-.03.056-.058l.049.039c-.024.028-.036.047-.045.081l-.06-.062zm.875 1.075L5 18.465l-.053-.042q.026-.056.119-.021zm-.021 2.495l-.067-.049c.042-.043.042-.043.117-.003-.019.018-.032.032-.05.053zM4.037 23.4l.094.049-.108.026.014-.075zm-.158-2.681l.076.061-.058.035-.055-.034.037-.062zm1.552-4.501l.003-.125.087.061-.09.063zm-1.878 6.344c-.068.043-.127.049-.186-.011l.186.011zm.138-1.509l.053-.077.047.087-.096.014-.003-.024zm-.222-.636c-.046.045-.092.062-.138.016l.001-.021.138.005z"/><path d="M3.18 20.179c.047-.073.091.027.134-.002-.043.011-.083.064-.134.002zm1.847-3.727l-.072.05-.058-.056c.05-.061.082-.003.129.006zm-1.183-3.687c.043-.046.08-.036.112-.006l-.07.028.029.028-.071-.051zm1.696.476l.069.085-.075.011-.012-.095zm-.477 10.631l.037-.045.075.031c-.036.034-.064.078-.112.014zM3.475 20.09l.143-.011c-.045.064-.094.047-.142.029zm1.531 1.714l.036-.052.047.063-.023.059-.06-.07zm.052-.24c-.032.036-.073.029-.109-.019l.067-.034.042.052zm.284-8.302l-.135.023.044-.074.089.039zm-.52 9.143l.057.04-.036.052-.07-.049.048-.043zm.377-4.16l-.052.078-.062-.062c.036-.017.068-.017.115-.016zm-2.017 2.529c.05-.055.086.005.135.001l-.081.043-.054-.044zm1.063-2.368l-.058.065-.057-.061c.037-.014.072-.01.115-.004zm-.518-.473l.061.052-.05.041-.051-.068.039-.025zm.622-2.638l.131-.01-.045.061-.083-.032zm-.304 5.802l-.106.012-.003-.016.065-.048.043.052zm-.619-2.645l-.014-.063.097.013c-.024.027-.047.036-.083.051zm1.646 1.496l.022.082-.078-.055.056-.027zm-.886-7.018l.078.036-.065.043-.013-.079zM4.08 23.856l.048.036-.023.071c-.025-.037-.081-.055-.026-.107zm-.839-4.406c.034-.083.072-.022.11-.028-.036.022-.073.025-.11.028z"/><path d="M4.952 22.08l.087-.032.002.073-.087-.028zm.105-1.458l-.092-.005.032-.077.058.059.002.022zm-1.06-2.704l.036.041-.034.042-.061-.037.06-.046zm.95-4.692l-.038.035-.064-.033c.046-.043.049-.044.103-.002zm-1.761 8.496c.039.002.082-.021.077.04l-.078-.007.001-.033zm.903-6.462l-.082.027c-.014-.066.035-.043.078-.051l.003.025zm.851 3.609l.109.016c-.056.064-.083.022-.114.007l.005-.023zm-1.128 2.846l-.104-.004c.032-.057.052-.058.104.004zm.599-6.198l.039.056-.058.043-.003-.098h.022zm-.489 2.701l.107.013c-.05.06-.069.06-.107-.013z"/><path d="M4.308 16.006l.069-.054.034.046c-.029.06-.059 0-.103.008zm-.377 3.681l.1.012-.058.047-.047-.037.005-.022zM5.04 18.6l.113.003-.001.022c-.04.036-.076 0-.113-.008z"/></g><g fill="#0f181b"><path d="M1.313 3.335c.16-.28.296-.49.479-.742l.052.025c-.074.154-.16.289-.261.422l-.417.924c-.077.191-.086.389-.085.593.004.18-.041.36-.042.541.002.208.035.415.042.623-.006.036-.06.034-.071.004-.047-.379-.04-.758-.028-1.137.009-.236.016-.476.085-.703.039-.111.112-.212.139-.325.023-.094.109-.157.107-.224z"/><path d="M.738 4.276c-.042.412-.01.819-.062 1.229.019.215.029.446.14.64.11.168.19.355.341.494.157.174.248.373.401.556-.019.052-.031.055-.092.008.004.059.069.169-.007.204-.025-.002-.066-.017-.07-.034a.64.64 0 0 1-.005-.168c.11-.07-.015-.11-.028-.158-.017-.064-.092-.112-.115-.176-.042-.118-.145-.18-.217-.27-.117-.156-.226-.309-.318-.483-.001.002.012-.019.009-.021-.062-.053-.048-.132-.063-.198C.599 5.692.595 5.48.63 5.27c.012-.147-.059-1.001.109-.993zm.167-.52c-.067-.203.044-.366.098-.549.091-.264.197-.522.361-.75.158-.203.412-.304.594-.487.104-.065.264-.295.372-.287.007.103-.155.159-.218.232-.159.143-.317.29-.495.409-.089.055-.17.115-.217.209-.059.118-.151.219-.182.353-.051.12-.145.234-.141.373-.124.124-.069.362-.171.497zm1.397 4.891l-.048.006.017-.03-.186-.23h.001l-.337-.425a1.68 1.68 0 0 1-.226-.308c-.007-.014.013-.04.022-.066.17.152.271.374.421.548l.404.468c.099.082.219.145.308.238.127.153.342.208.453.364-.106.051-.248-.131-.343-.182l-.487-.382zM6.465.481c.245-.048.5-.024.749-.055.339-.008.669.094 1.006.12.207.028.418.015.623.069.196.061.402.076.6.118l-.007.024C9.075.744 8.733.602 8.369.601 8.245.606 8.12.583 7.996.564 7.493.442 6.977.474 6.465.507V.481zM2.348 8.235c-.018.031-.022.051-.058.027-.056-.02-.07-.071-.097-.116-.063-.094-.155-.169-.22-.263-.029-.069-.303-.351-.18-.383a7.17 7.17 0 0 0 .555.734z"/><path d="M.939 6.836c.121-.052.097.039.119.109.038.136.142.238.174.382.027.086.083.153.071.248-.122-.082-.141-.222-.197-.345-.052-.142-.155-.237-.168-.395zm-.428-.884c.022.032.057.062.064.097.01.112.059.237.017.344-.082-.031-.116-.052-.109-.142a.95.95 0 0 1-.004-.291l.032-.008z"/><path d="M1.712 8.17l-.034.027c-.059-.034-.064-.115-.139-.128-.043-.128-.175-.169-.184-.292.003-.035.055-.051.077-.017l.28.41zM.999 6.058l.066-.06.118.312c-.039.001-.064.022-.081-.031-.024-.074-.065-.143-.103-.221zM6.081.571c-.154.024-.316.088-.469.078.095-.129.323-.059.467-.095l.002.017zm-3.193.768c.084-.032.164-.094.258-.079a.29.29 0 0 1-.253.108l-.005-.028zM8.97.485c.036-.041.071-.042.128-.011a.29.29 0 0 1-.128.012zM4.679 8.519c-.235.001-.495.063-.553.324-.049.111-.08.23-.137.337-.04.08-.001.162-.005.242.013.298.142.599.362.8.03.031.034.053-.003.097-.288-.225-.484-.577-.473-.945-.024-.275-.037-.509.185-.713a.73.73 0 0 1 .553-.218c.034.001.086.001.072.075z"/><path d="M4.034 8.269c-.051.191-.232.307-.27.506-.05.166-.036.335-.013.504l.074.781c.006.101-.002.203-.001.305.007.054.024.103-.018.149-.082-.052-.034-.292-.05-.392.014-.218-.037-.438-.046-.657-.034-.294-.082-.583.065-.857.049-.108.109-.381.254-.361l.005.024zm-.408 1.728l-.017.697c.022.243-.031.507.079.732.006.009-.017.037-.026.055-.16-.105-.088-.573-.129-.766-.023-.109-.01-.216.003-.325.032-.123-.04-.324.09-.394zm.669 1.845c-.035-.076-.03-.158-.031-.24l-.008-.688c0-.022.019-.043.03-.065.071.135-.007.395.011.559-.004.143.037.287.026.43l-.029.003z"/><path d="M3.982 11.395l-.024-.784c.058.025.063.077.066.124.001.219.034.44.006.658l-.047.002zm1.283-2.401l-.296-.387c.063-.094.259.243.307.291.016.022.004.064.005.097z"/><path d="M3.849 11.193c.007.07.003.14.023.202s-.013.144.048.201c.007.023-.031.072-.063.052-.011-.006-.02-.028-.018-.041.015-.081-.003-.156-.032-.231-.011-.065-.057-.169.042-.183zm1.78-.199c.015.11.058.222.056.332-.014.038-.056.039-.072.002l-.025-.403c-.001-.013.013-.026.021-.039.035.028.029.067.029.107zm-.675-.316c.108-.003.218-.022.306.072-.077.066-.285.015-.306-.072zm.286-2.395c.064.138.161.26.202.408-.034-.013-.274-.334-.222-.408h.021zm-.458 2.886c.075.062.067.168.09.256.002.014-.013.03-.02.045-.059-.082-.069-.192-.086-.29l.016-.011z"/><path d="M5.369 11.213c.005-.055-.007-.114.049-.147.056.059.054.155-.004.212l-.056-.052zm-1.679.821a.31.31 0 0 1 .054-.323c-.03.123-.006.207-.054.323zm.311-1.746c-.082-.029-.132-.122-.063-.18.052.043.043.12.063.18zm1.196 1.384c-.07-.002-.072-.105-.008-.247l.008.247zm-.325-3.408l.121.175c-.08-.004-.142-.086-.138-.161l.017-.014zM3.616 9.61c-.088-.101-.09-.116-.03-.201.034.065.017.131.03.201zm1.102 1.145c-.023.054-.018.199-.082.153-.003-.075-.006-.129.082-.153z"/><path d="M4.8 8.474l.084.055c-.048.073-.102.04-.101-.034l.016-.021zm-.351 1.944l-.079-.091c.062-.05.169.056.079.091zM4.12 8.389c-.006-.06.028-.096.088-.092-.008.065-.037.096-.088.092zm.396 2.791c-.072-.058-.071-.08-.004-.138l.004.138zm.059.542l.045-.164c.036.051.012.144-.045.164zm.308.007l.018.105c-.066-.013-.069-.03-.018-.105zM4.63 3.468c-.253.009-.531-.014-.663-.265-.248-.301.29-.527.539-.532.184-.008.351.107.488.218s.071.353-.055.457c-.093.064-.192.113-.309.122zm-.614-.5c.478-.185.427-.125.919-.035-.224-.285-.702-.253-.919.035zm.472-.048c-.241-.008-.172.352.106.282.11-.025.11-.073.094-.188-.031-.068-.138-.061-.2-.094zm-.469.224c.081.265.809.354.908.078-.321.184-.619.135-.908-.078zm.266-.179c-.074.036-.171.042-.219.099.046.089.173.124.264.156-.076-.078-.054-.165-.045-.256zm.501.215c.044-.044.165-.076.129-.138-.047-.022-.091-.061-.145-.037l.016.175zm-.02 5.764c.191.271.191.691.529.854.523.322 1.135.595 1.757.422.206-.037.389-.135.571-.23.15-.079.277-.193.377-.333.012-.017.037-.024.056-.035l.019.017c-.279.42-.798.613-1.28.684-.466.05-.927-.125-1.322-.361-.21-.117-.44-.225-.523-.472-.061-.179-.157-.347-.205-.529l.021-.016zM8.221 5.52c.049.438.201.865.27 1.303.058.547-.08 1.084-.258 1.596l-.211.659c.153-.751.56-1.495.423-2.284-.07-.427-.232-.834-.248-1.269l.025-.005z"/><path d="M5.839 10.354c-.303-.058-.53-.29-.786-.444-.101-.059-.163-.162-.222-.264-.051-.089-.134-.152-.145-.262l.048-.004.287.429c.175.136.351.281.549.387.085.067.196.074.281.135l-.011.023zm2.757-2.799c.046.556-.049 1.14-.348 1.615-.036.046-.055.2-.132.129.381-.543.468-1.102.464-1.746z"/><path d="M8.278 7.729c-.067-.013-.06-.058-.055-.093.027-.211.065-.421.038-.634-.004-.103-.029-.259.047-.332l-.031 1.058zm.169-2.118l.076.62c-.064.009-.106-.582-.076-.62zM5.139 9.433c.074-.018.061.062.096.088s.058.076.087.116c-.06.023-.153-.082-.182-.203zm2.188.527c.02-.052.13-.103.205-.098-.031.048-.139.101-.205.098zm9.242-8.169c-.173-.554-.68-.694-1.203-.654-.28-.056-.43.211-.59.388-.142.182-.224.387-.211.622.025.273.034.567.215.789.215.286.595.448.949.372.727-.017 1.015-.913.84-1.518zm-.322 1.129c-.063.097-.127.21-.244.25-.464.263-1.022-.023-1.096-.547-.057-.444-.035-.946.273-1.295.596-.349 1.341.052 1.333.754-.018.306-.067.594-.266.837z"/><path d="M15.87 2.276l.01.01c-.06.11-.17.17-.28.13a.9.9 0 0 0 .22-.06c.02-.02.03-.06.05-.08zm-.6-.1c-.11-.13.09-.32.21-.24-.15 0-.24.08-.21.24z"/></g><path d="M15.6 2.416c.11.04.22-.02.28-.13l-.01-.01c-.02.02-.03.06-.05.08a.9.9 0 0 1-.22.06zm.15-.53l.17.13c-.05-.06-.08-.14-.17-.13zm.76.2h.01c-.03.3-.07.59-.27.83-.07.1-.13.21-.25.25-.46.27-1.02-.02-1.09-.54-.06-.45-.04-.95.27-1.3.6-.35 1.34.06 1.33.76zm-.66.08c0-.17-.17-.27-.24-.11-.05.12-.14-.16-.27.01-.04.06 0 .11.03.16.1.18.44.13.48-.06zm-.37-.23c-.12-.08-.32.11-.21.24-.03-.16.06-.24.21-.24z" fill="#4f6d86"/><path d="M15.92 2.015c-.06-.04-.11-.08-.17-.13.09-.01.12.07.17.13zm-.31.041c.07-.16.24-.06.24.11-.04.19-.38.24-.48.06-.03-.05-.07-.1-.03-.16.13-.17.22.11.27-.01zM8.073 3.509L8.06 3.49c.152-.081.278-.161.363-.321.025.177-.181.319-.35.341zm2.637-1.744c-.135.023-.225.079-.317.186-.004-.148.185-.24.311-.205zM8.057 4.8c-.006.221-.261.163-.277-.014-.015-.203.285-.159.277.014zm-.099.025c.01-.022.009-.052-.007-.07-.055-.041-.08-.006-.086.051.051-.052.058-.018.093.019zm2.007-3.542c-.204.028-.21-.33-.032-.336.228-.006.294.325.032.336zm.013-.271c-.037.037-.074.058-.085.088s.074.106.105.106c.139-.044.063-.123-.02-.194zm.913 2.25l.076-.101.025.022c-.024.035-.033.086-.101.079zm-6.237-.181c-.038.044-.056.085-.087.098-.085.038-.17-.063-.14-.131.038-.014.098-.015.14-.014.025.008.046.025.087.048z" fill="#0f181b"/></svg>