<svg xmlns="http://www.w3.org/2000/svg" viewBox="0 0 9.545 26.177" xmlns:v="https://vecta.io/nano"><path d="M3.19 4.151v.002-.002zm0-.005v.007zm0 0v.007zm0 0v.007zm0 0v.007zm0 0v.007zm0 0v.007zm0 0v.007zm0 0v.007zm0 0v.007zm0 0v.007zm0 0v.007zm6.146 1.853c-.166-.206-.533.062-.746.101l-.015-.027c.467-.322.809-.987.549-1.535-.121-.129-.244-.237-.246-.434-.106-.136-.141-.319-.288-.43-.025-.019-.035-.071-.036-.109C8.564 2.159 8.54.598 6.7.7c.007-.206.026-.425-.193-.475-.292-.079-.242.299-.256.483-.027.198-.607.136-.825.466-.535.764-.361 1.949-.288 2.838.019.183-.17.307-.236.465-.285.447.139 1.035.51 1.18.159.062.398-.032.541.249.253.499.928.246.97.993-.088.13-.253.199-.274.387-.053.245.205.393.386.221.202.995.072 2.062-.209 3.026-.199.346-.409.732-.729.978-.213.134-.898.496-1.11.344-.074-.718-.026-1.465-.362-2.124-.197-.689-.915-1.174-.87-1.919-.085-.133-.18-.251-.351-.276-.023-.003-.058-.032-.059-.051-.134-.697.647-.664.597-1.449-.031-.224-.127-.421-.322-.559-.17-.146-.117-.423-.269-.597-.05-.156-.402-.331-.223-.485.41-.27.168-.413-.083-.681-.162-.204-.592-.443-.636-.679.026-.557-1-.335-1.313-.175-.395.191-.41.611-.58.961-.228.303-.37.661-.317 1.047.007.406.73 1.326 1.122.888.027-.102.101-.065.145-.063s.097.053.109.094c.158.76.924.599 1.035 1.299.008.177.104.606-.053.715-.228.063-.233.322-.345.49l-.331.584c-.171.447-.089.964-.126 1.436-.115.898-.093 1.8-.062 2.703.157.825.081 1.667.155 2.502l.243 2.954c-.089.796-.075 1.608-.326 2.377-.296.819-.408 1.682-.806 2.466.396.048.786-.025 1.165.026.073.34.038.695.153 1.019.025.076.01.133-.034.192-.152.326-.47.672-.367 1.05.072.101.118.572.296.415.114-.105.194-.492.378-.271.498.184 1.044.196 1.57.21-.066-.316-.526-.482-.717-.75-.202-.275-.712-.45-.724-.818.026-.122.05-.249.044-.373.04-.167-.204-.696.06-.686.597.018 1.178-.096 1.776-.043-.08.32.05.642-.013.949-.154.16-.215 1.852.185 1.482.377-.712.408.069 1.809-.038.295-.048-.459-.665-.565-.745-.232-.175-.508-.259-.769-.374-.495-.245.047-.895-.105-1.346l1.386.042c-.657-.675-.775-1.611-1.004-2.481-.169-.816-.466-1.609-.453-2.453-.167-1.765-.042-3.526.092-5.285.853-.062 1.644-.437 2.19-1.099.348-.309.61-.695.723-1.153.191-.691.13-1.402.09-2.108-.055-.393-.168-.796-.106-1.195.033-.197.027-.359-.139-.497-.254-.443.577-.477.841-.575.188-.057.372-.131.555-.202.102-.039.092-.135.064-.206zm-.411-1.575c.063.053.072.122.026.197-.132-.012-.168-.195-.026-.197zm-.129-.114c-.134-.053-.071-.16-.089-.277.143.078.069.191.089.277zm-3.654-1.71v-.047-.022l.002-.053.004-.09.003-.047.002-.03.004-.05v-.001l.006-.059.007-.061.008-.054.012-.073.012-.062.01-.049.012-.049.013-.048.017-.058.008-.024.008-.024.018-.05.016-.042.056-.12.022-.039c.017-.029.035-.057.054-.084l.028-.038.029-.035.03-.033.039-.039.033-.03.05-.039.036-.025a.72.72 0 0 1 .066-.04l.022-.011.022-.011.061-.026.032-.012.032-.011.037-.01.037-.01.025-.005.037-.007.022-.004.026-.004.042-.005c.009-.001.018-.002.026-.002l.041-.003c.424-.02-.003-.34.164-.558l.014-.015c.007-.007.013-.012.019-.016l.017-.011c.018-.008.023-.009.027-.01.013-.002.02-.002.027 0 .015.004.018.005.02.007.012.006.018.012.025.018a.15.15 0 0 1 .023.03l.01.019c.011.028.015.039.017.051l.004.022c.002.007.003.015.003.022l.001.027c0 .014-.001.027-.003.04s-.005.025-.008.037a.17.17 0 0 1-.024.049c-.019.023-.024.033-.029.042-.007.018-.008.026-.006.033.004.017.012.026.022.033.023.012.038.016.053.019h.116l.059.002.137.009.13.015a2.04 2.04 0 0 1 .237.049l.062.018.044.015.043.015.077.031.034.015.033.016.053.028.037.021.023.014.022.015.048.033.023.018.022.018.069.059.022.021.064.067.03.035.035.044.037.052.024.036.048.081.027.052.026.052.037.086.028.075.02.059.01.033.01.034.02.074.023.097.022.114.01.058.012.081.007.053.011.107.005.062.007.102.005.094.004.104.002.095-.005.448c-.076-.052-.133-.039-.213-.023.13.176.3.375.139.603-.012-.027-.027-.053-.043-.077l-.022-.032-.043-.054-.042-.045-.027-.027-.048-.045-.094-.087-.031-.03a.47.47 0 0 1-.035-.036l-.015-.017-.024-.028-.023-.029c-.057.068-.128.069-.217.018-.139-.08-.297-.012-.445-.035l.13.035.032.009.308.098.047.019.065.029.019.009c.007.003.013.006.02.01l.019.01.03.017.025.015.032.021.02.015.022.017.034.029.036.035c.008.009.016.018.023.027l.016.02c.02.029.03.045.039.063l.013.027.009.02c.003.007.006.015.008.023l.01.032.01.045c.002.011.004.022.005.033l.005.048.001.043-.001.044-.003.036c0 .008-.001.017-.002.025l-.004.027-.004.024-.007.037-.01.044-.007.027-.01.04-.038.12c-.008.019-.018.037-.03.054s-.025.034-.04.05l-.024.024c-.025.023-.054.045-.085.066l-.065.039-.047.025-.062.029-.057.024-.04.016-.05.018-.051.018-.082.026-.082.024-.079.022h0l-.077.02-.072.018-.127.033a2.59 2.59 0 0 1-.404.025c-.01 0-.02 0-.03 0l-.063-.002h-.001l-.157-.011-.039-.004-.197-.031-.051-.011-.05-.013-.046-.013-.028-.009-.036-.012-.035-.013-.046-.018-.045-.02-.043-.022-.061-.035-.038-.026-.036-.027-.025-.022-.024-.023-.022-.023-.022-.025c-.005-.006-.01-.012-.013-.018s-.009-.012-.013-.018a.48.48 0 0 1-.043-.075l-.009-.02-.015-.042c-.009-.029-.016-.059-.02-.09l-.005-.048.013-.044.016-.042a.48.48 0 0 1 .017-.037l.015-.029.011-.02.019-.03a.48.48 0 0 1 .025-.035c.018-.023.036-.045.055-.067l.03-.032c.047-.047.1-.09.156-.13l.034-.024.035-.023.301-.181.082-.049.053-.033.047-.03.04-.027.044-.032.067-.054a1.41 1.41 0 0 1 .098.14l.026.045.044.09.012.028.008.019.009.025.019.059c.005.015.008.029.011.044l.009.043.007.043.008.064.002.032.001.032v.021a2.12 2.12 0 0 1-.016.275l-.071-.216c-.181.074.02.345.164.322l-.021-.078c.167-.023.174-.032.147-.199l-.087-.528v.301l-.299-.753.017-.015.037.056.049.073.068.105.019.03.018.03.079.146.015.031-.022-.078-.07-.243.464-.053h-.004l-.021-.001-.068-.001c-.117-.002-.201 0-.268-.005l-.024-.002h-.001l-.022-.003h-.001l-.021-.004h-.001l-.02-.005-.02-.006c-.012-.004-.024-.008-.036-.014-.093-.043-.172-.138-.337-.348l.038-.004.038-.004.127-.01.087-.007.022-.002.132-.015a1.52 1.52 0 0 0 .212-.043l.039-.012.039-.014.048-.02.037-.018.039-.023.031-.022.029-.024.032-.033c.025-.027.045-.058.061-.093l.022-.06c.002-.007.004-.014.005-.021s.003-.014.004-.021l.007-.049.001-.02v-.066l-.003-.027-.003-.034-.002-.025-.003-.038v-.002l-.005-.037-.005-.03h0l-.005-.025c-.003-.012-.007-.024-.011-.035-.009-.02-.013-.029-.019-.036s-.012-.013-.015-.017l-.018-.011a.1.1 0 0 0-.062.003l-.133.048-.03.013-.048.022-.022.011-.021.011-.035.02c-.05.03-.091.062-.125.094l-.021.021-.003.002-.017.019-.033.042c-.005.006-.008.012-.012.018l-.017.028h0l-.014.028-.01.021a.86.86 0 0 0-.037.103l-.031.098-.01.026-.022.05-.011.018-.022.032-.015.019-.027.026a.18.18 0 0 1-.017.014l-.036.025-.025.014a.3.3 0 0 1-.038-.001c-.008 0-.016-.001-.023-.002h-.001l-.022-.005-.037-.011-.022-.009c-.015-.007-.03-.016-.044-.025a.4.4 0 0 1-.059-.051l-.018-.02c-.013-.013-.024-.028-.034-.043l-.031-.047-.028-.051-.037-.08-.022-.055-.01-.027-.02-.055-.057-.178c-.015-.038-.022-.069-.02-.095.002-.018.003-.024.005-.029.008-.018.01-.022.013-.025.008-.012.02-.022.033-.03l.019-.01.022-.01.023-.007.03-.007.026-.005.02-.003.064-.008.028-.003.057-.005.118-.013.027-.004.032-.005.075-.016.036-.01.025-.009c.007-.002.013-.005.02-.008s.014-.006.021-.01.013-.006.019-.01.018-.011.026-.018l.024-.02a.27.27 0 0 0 .032-.037c.005-.007.009-.014.013-.022l.014-.032c.009-.028.011-.038.013-.05a.3.3 0 0 0 .004-.035.55.55 0 0 0-.011-.131c-.08-.227-.227-.119-.385-.094l-.06-.044-.047-.026c-.024-.01-.031-.011-.037-.012-.021-.003-.031-.001-.039.002a.11.11 0 0 0-.027.014l-.017.013-.018.014c-.006.005-.013.009-.02.013-.052.023-.106.025-.201-.012-.146.087-.266.008-.404.023-.304.075-.074.566.156.584.01.001.019.002.027.005l.019.006.032.016.018.015c.006.005.011.011.017.017.011.013.015.019.019.025a.45.45 0 0 1 .032.063c.007.016.013.034.018.053l.011.039.01.042.01.044.007.035.018.087.01.048.009.042.015.062.012.044.01.037.017.052.016.045.015.04.021.047.011.024.012.023.021.039.022.037.028.042.038.051.022.027.026.029.027.027.028.027.061.052.033.025.035.024.067.041a.15.15 0 0 1-.037.04l-.035.02-.021.008-.024.007-.035.009-.021.004-.021.004-.025.005-.025.005c-.026.005-.051.011-.074.02-.008.003-.017.007-.025.01l-.029.018-.128.068-.034.019-.061.035-.038.023-.027.018-.029.019-.091.067-.026.021-.032.027-.055.051-.024.024-.029.031-.028.032-.053.067-.039.057-.027.045-.013.023a1.2 1.2 0 0 0-.06.122c-.205-.217.245-.378.26-.593l-.043-.023-.29.314-.09-1.492zm2.014.073c.004-.02.005-.025.008-.028l.025-.036c.012-.02.015-.025.017-.031.005-.027.005-.037.003-.048-.084.006-.104.095-.157.152l-.071-.094-.018.179-.088-.117c-.051.096.048.225-.137.261-.088-.261.149-.486.361-.589.197-.1.265-.062.279.164.037.339-.311.522-.607.515.156-.116.231-.299.442-.235-.042-.042-.055-.071-.055-.094zm-.999-1.029l.014-.019.025-.027c.016-.012.019-.013.022-.014.02-.007.03-.007.041-.004s.016.005.019.007c.017.011.025.016.032.023l.034.034.024.03.054.076c.048-.053.155-.072.224-.099.003.006.006.013.009.019l.014.034.01.028.007.03.005.042a.11.11 0 0 1-.003.029q0 .001 0 .002c-.013.051-.038.079-.074.101-.021.012-.03.016-.04.019l-.022.008-.056.014-.04.007-.037.005-.116.008-.077.002-.073.002-.045.002-.041.003-.356.019a.3.3 0 0 1-.047-.013c-.008-.002-.015-.005-.021-.008a.3.3 0 0 1-.038-.02.21.21 0 0 1-.032-.024c-.01-.008-.018-.017-.026-.027s-.015-.019-.02-.029l-.013-.03-.006-.027c-.001-.007-.002-.015-.002-.022s.001-.017.003-.026.004-.018.007-.026l.01-.021c.005-.009.01-.018.018-.026.012-.014.015-.018.019-.021l.028-.023a.39.39 0 0 1 .054-.029.42.42 0 0 1 .044-.015l.105.141.013-.018.023-.032.021-.027.02-.022.018-.018.018-.014c.021-.011.03-.013.04-.013l.027.006.025.013c.022.014.047.036.077.067l.026.026.03-.058.027-.046zm-.568 3.51l-.048-.015-.045-.017-.045-.02c-.03-.014-.06-.029-.089-.046l-.041-.025-.059-.041-.04-.032c-.018-.015-.035-.03-.05-.047a.28.28 0 0 1-.019-.02l-.025-.029-.019-.026c-.022-.032-.03-.05-.038-.067-.003-.007-.006-.013-.008-.02l-.009-.025a.29.29 0 0 1-.012-.08c0-.008 0-.017.001-.025.002-.018.005-.035.01-.053l.008-.024c.005-.012.009-.022.014-.032l.028-.045.024-.03.014-.015.015-.015.037-.034.013.043.011.035.018.05.021.051.02.042c.004.009.008.017.013.025l.021.039.03.052.032.048.03.04a1 1 0 0 0 .067.078l.016.017.058.055.026.023.037.03.051.037.07.045.023.013c.042.024.085.045.13.064l.031.013.03.012.037.013.058.019.099.026.04.009.08.015.03.005.031.005.159.015.039.002.044.002h.06.062l.045-.002.063-.003.124-.01.065-.008.102-.015.051-.009.025-.005.056-.011.038-.008.072-.016.061-.015.107-.03.059-.018.125-.042.092-.034.09-.037.03-.013.029-.013.046-.022.066-.032.059-.031.059-.032c-.298.587-.998.495-1.547.55-.366.015-.686-.133-1.005-.284zm2.05.504c-.145.24-.492.408-.855.105.21.038.715-.068.855-.105zm-1.218.361c-.068.169-.367-.025-.308-.167.202-.013.33.111.308.167zm-3.05-.883c.005.005.009.011.013.018l.009.02.005.024c.002.026.002.04-.001.053s-.003.018-.007.027-.007.017-.011.023-.009.013-.015.018c-.192.084-.374.258-.59.253l-.009-.024.031-.023.032-.024.032-.025.123-.097.064-.05.071-.054.03-.022.047-.032.022-.015.067-.041.078-.039zm-.571.27c.114-.183.238-.353.498-.405a1.36 1.36 0 0 1-.498.406zm-.214 1.232a1.17 1.17 0 0 0-.179-.14l-.027-.018-.075-.047-.034-.021-.05-.031-.048-.029-.046-.029-.102-.073-.02-.018c-.021-.02-.036-.04-.043-.059s-.007-.041.008-.06.021-.022.028-.027c.08-.062.095-.13.077-.198-.005-.017-.011-.033-.019-.05-.017-.033-.027-.049-.038-.065h0c-.011-.016-.023-.031-.035-.047h0l-.025-.03c-.101.027-.055.075-.039.143 0 .03-.005.053-.011.069-.058.096-.191-.035-.196-.143-.043-.164-.114-.238-.272-.26-.174-.009-.443-.287-.19-.374.003.199.248.267.388.191.073-.067.053-.128-.001-.181l-.029-.025c-.041-.033-.092-.062-.136-.087l-.022-.012-.02-.011-.026-.015c-.206-.12-.348.018-.436.206a.49.49 0 0 1-.037-.068l-.017-.04c-.006-.014-.01-.028-.015-.043a.79.79 0 0 1-.022-.089c-.022-.133-.002-.266.117-.299.013-.004.028-.006.043-.008.136.028.198.235.355.152.018-.008.032-.018.043-.029.015-.019.019-.027.022-.036.011-.035-.001-.078-.027-.125h0c-.009-.018-.021-.035-.034-.054h0l-.042-.056-.047-.057-.098-.112-.03-.035-.028-.033-.024-.032-.02-.029c-.009-.014-.015-.027-.02-.039-.058-.095-.054-.197-.023-.299l.024-.068.03-.067.032-.067.093-.187c.213-.253.624-.19.904-.324.082-.046.147-.009.184.052.209.362.564.587.85.881a.17.17 0 0 1 .01.03l.002.014v.022.002l-.005.025-.002.005h0c-.013.023-.017.028-.022.034l-.017.017c-.018.016-.027.022-.036.028l-.028.019-.035.024-.033.025c-.007.006-.014.012-.02.018-.014.015-.018.02-.022.026-.054.077-.039.197.203.44l.059.058.022.02-.037.018-.042.023-.047.029-.076.051L3 5.05q0 0 0 0l-.08.063-.049.042-.033.03-.045.043c-.202.2-.303.412.079.421.01 0 .02-.001.031-.003l.031-.007.039-.013.039-.017.047-.025.032-.018.032-.018.047-.027c.074-.041.146-.074.216-.069a.18.18 0 0 1 .03.005c.024.008.033.012.043.017s.019.011.028.019a.77.77 0 0 1 .067.061l.031.033c.02.023.039.047.056.072l.025.038c.032.052.059.107.079.165.045.128.06.266.035.397l-.012.051a.67.67 0 0 1-.037.099.59.59 0 0 1-.032.059.58.58 0 0 1-.039.057c-.053.087-.119.161-.186.232l-.097.105c-.141.158-.247.322-.164.591.045.163.097.427-.122.49-.223.08-.277.071-.298-.203-.023-.303-.027-.604-.107-.903.001-.071-.039-.138-.102-.2zM2.555 7.9c.01.003.018.007.027.011l.022.012c.007.005.015.01.021.015s.013.01.019.016l.018.018.024.029c.008.009.015.019.022.029l.021.03.029.043.013.017.018.024.022.025c.007.008.016.016.025.023.035.029.077.05.134.056.283.033.556-.214.572-.499.007.004.013.009.018.013l.027.026c.015.021.018.029.02.037.004.024.004.03.004.037l-.004.022-.01.027-.012.024-.022.04a.22.22 0 0 0-.015.035.09.09 0 0 0-.002.025c.005.018.006.02.007.022.017.02.031.03.051.038l.017.011c.02.013.029.022.038.03.013.014.018.019.021.024l.011.019c.008.025.009.03.009.036-.003.022-.005.025-.006.028-.007.013-.01.017-.013.02-.062.047-.155.05-.254-.013-.038-.022-.065-.032-.085-.032s-.023.005-.025.007c-.014.013-.016.017-.018.022l-.008.023-.005.027-.003.028-.008.095-.003.02c-.003.02-.007.04-.015.058l-.065-.067-.02-.019-.03-.027c-.01-.009-.021-.017-.033-.024l-.023-.014-.043-.02-.034-.012-.035-.009c-.01.098-.084.156-.145.224-.097-.071-.102-.174-.107-.284-.008-.071-.037-.116-.116-.085-.216.05-.142-.165-.054-.262zm-.347 15.771l-.013-.082a.61.61 0 0 1-.004-.097l.002-.023.006-.035c.003-.014.005-.019.006-.023l.01-.023a.14.14 0 0 1 .016-.026c.018-.02.026-.026.034-.031l.023-.012c.008-.004.018-.006.027-.008l.031-.004h.018c.02 0 .042.002.065.006l.055.012.049.015.005.03.013.068.013.068.011.062.007.041.02.13q0 0 0 0l.005.035.01.09.003.044.002.044.001.035v.086l-.003.052-.004.032-.005.03v.002l-.006.03-.007.029-.009.027c-.007.021-.016.04-.027.058l-.017.026-.014.017c-.01.011-.021.021-.033.03-.026.016-.019.085-.033.16-.18-.285-.207-.573-.259-.896zm.421 1.017c.012.179-.279.173-.253 0h.253zm.05.188c.082-.083.174-.055.266.018l.039.034.02.019.039.04.087.099.03.035.08.094.026.029c.034.038.067.07.097.093l.026.017c.181.164.382.277.554.458-.361.139-1.077-.06-1.424-.222h0c-.019-.013-.037-.023-.054-.029-.173-.065-.217.233-.356.353-.312-.464-.095-.821.146-1.18.081.163.26.262.423.142zm2.473-.229c.498.126.91.377 1.232.825.011.019.125.042.11.095l-.366.01-.067-.002-.04-.002c-.008 0-.015 0-.022-.001l-.069-.005-.041-.003-.152-.017-.043-.007-.124-.025-.033-.008-.085-.023-.076-.025-.021-.008-.067-.027-.031-.014-.029-.014-.028-.014-.075-.042-.018-.011-.033-.019-.067-.036-.014-.005c-.017-.006-.02-.006-.023-.006-.025-.004-.048 0-.072.018-.007.005-.015.012-.022.019l-.008.008-.016.018-.017.021-.018.025-.024.035-.015.023-.013.02-.013.021c-.005.007-.01.015-.014.023l-.096.164c-.167-.316-.085-.62-.111-.936.341.216.449.165.623-.074zm-.197.078c-.196.093-.423-.064-.363-.301.132.2.166.228.358.067.031.107.159.169.005.233zm.03-.876c-.077.205-.083.451-.211.63-.268-.346-.129-.793-.152-1.205.134.021.346-.087.406.065.037.174.005.343-.043.51zm.093-3.626l1 2.803c-.681.075-1.367.003-2.051.055-.914.088-1.821.035-2.738.066.334-.904.595-1.82.815-2.759l.017-.125.015-.124.013-.127.011-.126.018-.252.014-.253.01-.233.015-.4.01-.224.008-.156.021-.31.013-.155-.004-.137-.014-.274-.02-.273-.024-.273-.027-.273-.02-.205-.033-.342-.01-.106-.005-.057-.009-.111-.01-.136-.075-3.35c-.038-.961-.201-1.928-.015-2.884l.007-.031.007-.032.005-.029.02-.117.014-.095.01-.072.005-.037.025-.146.013-.061.02-.081.01-.035.025-.073.018-.044.021-.043c.004-.008.008-.016.013-.024l.018-.03c.005-.009.01-.017.017-.025s.01-.014.015-.02l.019-.024a.51.51 0 0 1 .161-.124c.052.012.114.014.126.107a.29.29 0 0 0 .038.106c.01.015.02.03.032.044l.019.02.017.015c.013.011.027.021.042.03l.02.011c.038.017.061.024.085.028s.055.006.082.003.036-.006.045-.009l.043-.018.027-.017c.027-.019.051-.043.071-.074.126.085.286.04.313-.113l.022-.024.027-.016.019-.006.027-.004c.077-.007.173.025.24.019.688.978.883 2.183.979 3.355l-.032-.015-.032-.017a1.07 1.07 0 0 1-.248-.205l-.023-.025-.084-.099-.045-.057-.044-.058-.047-.065-.095-.135-.054-.079-.095-.137-.037-.052-.064-.085-.019-.024-.018-.023-.033-.05c-.042-.067-.079-.139-.115-.213l-.02-.043-.141-.319-.037-.079-.04-.082-.029-.055-.02-.035-.02-.035-.043-.068-.022-.033a1.17 1.17 0 0 0-.101-.124c-.168-.147-.473-.147-.659.077-.36.462-.067 1.047.117 1.512l.08.106.275.349.062.074.061.072.052.059.059.065.164.174.065.064.066.063.134.121.139.115h0l.144.107.074.051.058.038.237.135.04.02.061.029.078.035.077.03.087.032.029.01.051.016.022.006.079.022c-.12.65-.026 1.302-.038 1.956-.065.961-.08 1.924-.037 2.886l.336 2.413zm2.937-10.2c-.019.448-.259.855-.413 1.268-.387.819-1.225 1.381-2.098 1.561-.891.16-1.667-.51-2.208-1.143-.351-.323-1.274-1.646-.584-1.96.293-.101.327-.016.463.232.268.547.419 1.179.906 1.589.562.556.779.543 1.511.341.956-.266 1.67-1.237 1.701-2.219l.038-.894c-.008-.351-.045-.701-.127-1.045-.014-.058.016-.134.044-.194.102-.179.301.248.482.028.19-.195.335 1.813.286 2.435zM7.83 7.388v.025c-.154.018-.14-.201-.248-.237l-.053.288-.048.003-.004-.025-.008-.04-.013-.055-.008-.027-.017-.053-.01-.025-.01-.023c-.005-.011-.01-.021-.017-.03L7.38 7.17l-.02-.019-.01-.006c-.014-.005-.017-.005-.021-.005-.014.002-.017.003-.021.005a.14.14 0 0 0-.022.015c-.015.015-.02.022-.025.029s-.009.013-.014.021l-.024.047-.017.039c-.03-.019-.06-.047-.087-.065l-.001-.001c-.02-.013-.037-.022-.049-.017-.033.006-.061.03-.085.059-.032.039-.058.087-.081.125-.022.033-.039.058-.059.063-.017 0-.02-.002-.024-.005s-.012-.01-.018-.018-.008-.012-.012-.02l-.011-.039-.008-.038c-.004-.022-.005-.043-.005-.062 0-.013.001-.025.003-.037l.007-.033.012-.032.017-.028c.022-.027.038-.04.056-.052l.018-.01.024-.011.028-.01.044-.011.039-.007c.027-.004.055-.006.084-.008h.023c.208-.004.457.046.599.05.012.003.023.008.032.013.018.012.022.015.025.019l.021.025.013.025c.025.062.019.146.017.215zm.383-.991c-.834.202-.041.62-1.168.53-.042-.34-.137-.631-.477-.771-.149-.184-.087-.389-.487-.355l-.006-.02c.454-.239.786.452 1.34.207.224-.089.401-.303.587-.454.409-.278.47-.791.607-1.223.057.044.166.084.154.17-.083.232-.153.472-.264.69-.122.241-.259.482-.488.647-.147.134-.383.2-.467.386.689-.303 1.127-.814 1.322-1.537l.117.041c-.118.356-.209.724-.489.998-.131.159-.372.242-.424.451.741-.334.774-.798 1.018-1.48.099.508-.154 1.08-.615 1.329-.222.097-.102.296.128.229.111-.038.209-.11.326-.132.068.271-.55.169-.714.294zm.817-.316l-.001-.03c.077-.003.169-.065.216.025-.061.068-.14.014-.214.005zM3.19 4.146v.007zm0 0v.007zm0 0v.007zm0 0v.007zm0 0v.007zm0 0v.007zm0 0v.007zm0 0v.007zm0 0v.007zm0 0v.007zm0 .005v.002-.002z" fill="#0f181b"/><path d="M6.421 6.017c-.068.169-.367-.025-.308-.167.202-.013.33.111.308.167z" fill="#d1d3d4"/><path d="M8.928 6.103c.068.271-.55.169-.714.294-.834.202-.041.62-1.168.53-.042-.34-.137-.631-.477-.771-.149-.184-.087-.389-.487-.355l-.006-.02c.454-.239.786.452 1.34.207.224-.089.401-.303.587-.454.409-.278.47-.791.607-1.223.057.044.166.084.154.17-.083.232-.153.472-.264.69-.122.241-.259.482-.488.647-.147.134-.383.2-.467.386.689-.303 1.127-.814 1.322-1.537l.117.041c-.118.356-.209.724-.489.998-.131.159-.372.242-.424.451.741-.334.774-.798 1.018-1.48.099.508-.154 1.08-.615 1.329-.222.097-.102.296.128.229.111-.038.209-.11.326-.132z" fill="#eac3a7"/><path d="M8.013 10.023c-.019.448-.259.855-.413 1.268-.387.819-1.225 1.381-2.098 1.561-.891.16-1.667-.51-2.208-1.143-.351-.323-1.274-1.646-.584-1.96.293-.101.327-.016.463.232.268.547.419 1.179.906 1.589.562.556.779.543 1.511.341.956-.266 1.67-1.237 1.701-2.219l.038-.894c-.008-.351-.045-.701-.127-1.045-.014-.058.016-.134.044-.194.102-.179.301.248.482.028.19-.195.335 1.813.286 2.435z" fill="#dd5633"/><path d="M3.216 9.279c-.052-.024-.101-.042-.148-.054.047.012.097.03.148.054zm-.458-.053c.09-.028.194-.031.31 0-.117-.031-.219-.028-.31 0zm.148-.524c-.027.003-.055.002-.082-.003.027.005.055.006.082.003zm-.703-.116a.74.74 0 0 0-.039.087c.012-.03.025-.059.039-.087z" fill="#fff"/><path d="M5.076 20.223l-.336-2.413c-.043-.962-.028-1.925.037-2.886.013-.654-.081-1.306.038-1.956l-.079-.022-.022-.006-.051-.016-.029-.01-.087-.032-.077-.03-.078-.035-.061-.029-.04-.02-.237-.135-.058-.038-.074-.051-.144-.107-.274-.236-.066-.063-.065-.064-.164-.174-.059-.065-.052-.059-.061-.072-.062-.074-.275-.349-.08-.106c-.184-.465-.477-1.05-.117-1.512.186-.225.491-.224.659-.077a1.15 1.15 0 0 1 .101.124l.022.033.043.068.02.035.017.03.032.06.04.082.037.079.141.319.02.043.115.213.033.05.018.023.019.024.064.085.037.052.095.137.054.079.095.135.047.064.044.058.045.057.084.099.023.025a1.07 1.07 0 0 0 .248.205l.028.015.036.017c-.095-1.172-.291-2.377-.979-3.355-.067.006-.163-.026-.24-.019l-.027.004-.019.006-.022.012a.12.12 0 0 0-.017.014c-.039.166-.199.212-.325.127-.02.031-.044.055-.071.074l-.027.017-.029.012c-.024.008-.034.01-.045.012a.3.3 0 0 1-.098-.001.29.29 0 0 1-.069-.021l-.02-.01c-.03-.017-.044-.027-.057-.038l-.017-.015c-.007-.006-.013-.013-.019-.02-.012-.013-.022-.028-.032-.044a.29.29 0 0 1-.038-.106c-.012-.093-.074-.095-.126-.107a.49.49 0 0 0-.149.111l-.026.03-.02.027c-.006.008-.012.016-.017.025l-.013.02-.018.034c-.015.028-.027.057-.039.087l-.025.073-.01.035-.02.081-.013.061-.025.146-.005.037-.01.072-.014.095-.02.117-.005.029-.007.032-.007.031c-.186.957-.022 1.923.015 2.884l.075 3.35.01.136.009.111.005.057.01.106.033.342.019.188.028.291.024.273.02.273.014.274.005.137-.014.155-.021.31-.008.156-.01.224-.015.4-.01.233-.014.253-.018.252-.011.126-.013.121-.016.13-.017.125a23.18 23.18 0 0 1-.815 2.759l2.738-.066c.684-.052 1.37.02 2.051-.055-.423-.913-.709-1.845-1-2.803zm-2.3-8.337l-.035-.044-.036-.051-.033-.052-.014-.022-.022-.039-.023-.041-.021-.04-.057-.115-.026-.055-.021-.046-.016-.037-.05-.118-.016-.04-.02-.051h0l-.012-.031-.035-.097a1.9 1.9 0 0 1-.094-.253l-.027-.103-.029-.147-.014-.113-.01-.156v-.002a2.49 2.49 0 0 1 .047-.533.68.68 0 0 1 .057-.177l.025-.047h0l.028-.045.015-.023.033-.043a1.01 1.01 0 0 1 .388-.29c.142-.035.419.015.55.147.009.009.018.019.025.029s.014.02.02.031c.009.016.015.033.02.051.003.012.005.024.006.037-.056-.036-.11-.065-.162-.089s-.101-.041-.148-.054h0c-.116-.03-.219-.028-.31 0a.48.48 0 0 0-.17.095c-.015.012-.028.025-.042.038l-.025.028a.63.63 0 0 0-.047.06 1.2 1.2 0 0 0-.176.445l-.015.085-.017.143-.006.097c.082.631.361 1.252.724 1.775-.065.024-.137-.023-.209-.108zm.222.266c.117-.062.145.031.206.08-.106.055-.14-.024-.206-.08zm.267.138l.129.14c-.141.008-.168-.017-.129-.14z" fill="#d5773b"/><path d="M7.261.878C7.188.858 7.111.842 7.028.83a2.05 2.05 0 0 1 .233.048zM7.024.83l-.13-.015.13.015zm-.13-.015L6.758.806l.137.009zM6.53.785c.013.009.032.015.053.019h.116-.116C6.562.8 6.543.794 6.53.785zm-.771 1.404c.013.009.025.019.035.031-.01-.012-.022-.022-.035-.031z" fill="#fff"/><path d="M8.391 3.408l.005-.448-.002-.095-.004-.104-.005-.094-.007-.102-.005-.062-.011-.107-.007-.053-.012-.081-.01-.058-.022-.114-.023-.097-.02-.074-.01-.034-.01-.033-.02-.059-.028-.075-.037-.086-.026-.052-.027-.052-.048-.081-.024-.036-.037-.052-.035-.044-.03-.035-.053-.056-.032-.032-.069-.059-.022-.018-.023-.018-.048-.033-.022-.015-.023-.014-.037-.021-.053-.028-.033-.016-.034-.015L7.41.926 7.367.911 7.323.896 7.261.878C7.188.858 7.11.842 7.028.83L6.895.814 6.758.806 6.698.804a3.72 3.72 0 0 0-.116 0c-.015-.003-.03-.007-.042-.013C6.52.778 6.512.769 6.509.759s-.002-.022.002-.031c.007-.017.013-.027.021-.037.021-.027.029-.043.035-.062a.27.27 0 0 0 .008-.037c.002-.013.003-.026.003-.04L6.577.525c0-.007-.001-.015-.003-.022L6.569.481c-.003-.012-.006-.023-.01-.034L6.545.416a.16.16 0 0 0-.016-.025c-.016-.017-.022-.023-.03-.026-.017-.008-.02-.009-.025-.01s-.014-.002-.021 0c-.024.006-.028.008-.033.01l-.017.011c-.006.004-.013.01-.019.016l-.014.015c-.167.218.261.538-.164.558l-.041.003L6.14.97l-.042.005-.022.003c-.011.001-.019.002-.026.004L6.013.99l-.025.005-.037.01-.037.01-.032.011-.032.012-.061.026-.022.011-.022.011c-.023.012-.045.025-.066.04l-.036.025-.05.039-.033.03-.032.031-.025.028-.039.047-.029.04-.054.084-.022.039c-.02.038-.039.078-.056.12l-.016.042-.018.05-.008.024-.008.024-.017.058-.013.048-.012.049-.01.049-.01.056-.011.067-.01.068-.007.061-.006.059v.001l-.004.05-.002.03-.003.047-.004.09-.002.053v.022l-.001.047c-.006.54.069 1.102.09 1.492l.29-.314.043.023c-.015.215-.465.376-.26.593a1.18 1.18 0 0 1 .06-.122l.013-.023.027-.045.039-.057.053-.067.028-.032.029-.031.024-.024.055-.051.032-.027.026-.021.091-.067.029-.019.027-.018.027-.017.072-.042.034-.019.114-.058.026-.018.042-.02a.52.52 0 0 1 .074-.02l.025-.005.025-.005.021-.004.021-.004.035-.009a.24.24 0 0 0 .024-.007l.021-.008c.007-.003.013-.006.02-.01.027-.018.036-.027.044-.039-.015-.025-.037-.038-.058-.052l-.035-.024-.033-.025-.061-.052-.028-.027-.027-.027-.025-.028-.023-.028-.038-.051-.025-.038-.021-.035-.025-.045-.012-.023-.011-.024-.021-.047-.015-.04-.016-.045-.013-.039-.014-.049-.012-.044-.015-.062-.009-.042-.01-.048-.018-.087-.007-.035-.01-.044-.01-.042-.01-.039-.018-.054-.022-.047-.022-.033-.023-.025c-.006-.005-.012-.01-.018-.015s-.012-.007-.019-.01l-.023-.009a.22.22 0 0 0-.037-.007c-.23-.018-.46-.509-.156-.584.139-.015.258.063.404-.023.095.037.148.035.186.019.022-.011.029-.016.035-.02l.018-.014.017-.013c.006-.005.012-.008.018-.011.018-.007.027-.008.038-.007.016.002.023.004.03.006l.048.023.077.054c.158-.025.305-.133.385.094.009.044.013.084.011.119l-.005.046c-.002.011-.004.022-.007.032l-.014.038-.019.033c-.009.013-.02.026-.032.037a.28.28 0 0 1-.024.02c-.008.006-.017.012-.026.018l-.019.01c-.007.004-.014.007-.021.01a.16.16 0 0 1-.02.008l-.025.009-.036.01-.075.016-.032.005-.027.004-.118.013-.057.005-.028.003-.064.008-.02.003-.026.005-.03.007-.023.007c-.008.003-.015.006-.022.01l-.019.01c-.013.008-.025.018-.033.03s-.012.021-.013.025l-.005.029c-.002.026.005.057.02.095l.057.178.02.055.01.027.022.055.037.08.028.051.031.047a.51.51 0 0 0 .034.043l.018.02a.4.4 0 0 0 .059.051c.014.01.029.018.044.025l.022.009.023.007.036.008h.001c.008.001.015.002.023.002s.025.001.038.001l.025-.014.025-.016.028-.023c.006-.005.011-.01.016-.015l.026-.03.022-.032c.004-.006.008-.012.011-.018a.55.55 0 0 0 .022-.05c.004-.008.007-.017.01-.026l.025-.081.042-.12.009-.021.015-.029h0c.005-.01.01-.019.017-.028l.012-.018c.008-.012.017-.023.027-.035l.023-.026.003-.002.021-.021c.033-.032.074-.063.125-.094l.035-.02.021-.011.022-.011.048-.022.03-.013.115-.042c.035-.013.051-.015.064-.013.018.004.02.005.022.007.016.011.02.015.023.019.01.012.015.021.019.03.009.022.013.034.015.046l.005.025h0l.004.026.003.022.002.02.003.038.002.025.003.034.003.027v.05l-.002.036-.005.042-.005.027-.005.021c-.004.015-.009.028-.014.042-.024.053-.045.084-.069.112l-.019.02-.042.037c-.01.008-.02.015-.031.022a.47.47 0 0 1-.039.023l-.02.01-.064.028-.039.014-.039.012c-.067.019-.139.033-.212.043l-.132.015-.022.002-.087.007-.127.01-.038.004-.038.004c.165.21.244.305.337.348.012.005.024.01.036.014.007.002.013.004.02.006l.02.005h.001l.021.004h.001l.022.003h.001l.024.002c.067.005.152.003.268.005l.068.001h.025l-.003-.003c.148.023.306-.045.445.035.089.051.16.05.217-.018l.023.029.024.028.015.017.035.036.031.03.094.087.038.036.037.037.042.045a.68.68 0 0 1 .043.054l.022.032a.63.63 0 0 1 .043.077c.162-.229-.009-.427-.139-.603.08-.016.137-.029.213.023zm-2.253.038l-.106.143-.104-.059c.095-.132.127-.145.21-.084zm.547-.15l-.002-.024h.403l.001.024h-.403zm1.247.019c-.166-.05-.312-.027-.507-.045.059-.164.135-.062.259-.041.041-.059.095-.096.191-.027.034.01.062.012.088.012.047 0 .083-.007.117.015.006.004.012.009.018.015.02.02.041.053.064.107-.085.044-.155.002-.23-.035z" fill="#567591"/><path d="M3.188 4.115c.009.043-.003.074-.027.101.024-.027.037-.059.027-.101zm-.177 1.494a.51.51 0 0 1-.079.03.47.47 0 0 0 .079-.03zM2.36 3.453c-.009-.014-.019-.027-.03-.039.011.012.021.025.03.039zm-.305 2.385a.31.31 0 0 1 .019.05c-.005-.017-.011-.033-.019-.05zm.057.474l-.087-.063c.024.02.054.042.087.063zm-.717-1.754l.034.054c-.009-.018-.021-.035-.034-.054zm-.042-.057l.042.056-.042-.056zm-.455.544a.79.79 0 0 1-.022-.089.65.65 0 0 0 .022.089z" fill="#fff"/><path d="M3.744 5.861a.87.87 0 0 0-.079-.165l-.025-.038c-.018-.025-.036-.049-.056-.072l-.031-.033a.77.77 0 0 0-.067-.061c-.009-.008-.019-.013-.028-.019s-.019-.01-.029-.013a.22.22 0 0 0-.044-.009c-.07-.005-.142.029-.216.069l-.047.027-.032.018-.032.018-.032.017-.055.025a.39.39 0 0 1-.039.013l-.031.007c-.01.002-.02.003-.031.003-.382-.009-.281-.221-.079-.421l.045-.043.033-.03.049-.042L3 5.051q0 0 0 0l.053-.038.076-.051.047-.029.042-.023.037-.018-.022-.02-.059-.058c-.242-.243-.257-.362-.203-.44.004-.006.008-.011.013-.016l.029-.027.022-.017.034-.024.04-.027.026-.02.019-.017.021-.025.01-.018h0c.006-.02.007-.024.007-.028l.001-.015-.003-.024a.17.17 0 0 0-.01-.03c-.286-.293-.641-.519-.85-.881-.037-.06-.102-.097-.184-.052-.28.134-.691.071-.904.324-.025.059-.059.122-.093.187l-.032.067-.03.067-.024.068c-.031.102-.035.204.023.299.004.012.011.025.02.039l.02.029.024.032.028.033.03.035.098.112.047.057.042.056h0a.48.48 0 0 1 .034.054h0c.025.047.038.09.027.125-.002.009-.007.017-.012.025-.02.022-.034.032-.052.04-.157.083-.219-.124-.355-.152-.015.001-.03.004-.043.008-.118.033-.139.166-.117.299.005.03.013.06.022.089a.45.45 0 0 0 .015.043l.017.04a.5.5 0 0 0 .037.068c.088-.189.23-.326.436-.206l.026.015.02.011.022.012c.044.025.095.054.136.087.007.005.013.011.02.017.063.062.083.123.01.19-.139.076-.385.008-.388-.191-.254.087.016.365.19.374.159.022.229.096.272.26.005.108.138.239.188.158.014-.032.018-.055.019-.085-.016-.067-.062-.116.027-.158l.037.045h0l.035.047h0l.03.048a.35.35 0 0 1 .027.066c.018.068.003.136-.077.198-.007.005-.013.01-.018.015-.023.031-.025.051-.017.072s.022.038.043.059l.019.017a1 1 0 0 0 .087.064l.045.029.064.039.05.031.034.021.075.047.027.018c.062.04.119.083.167.128.075.075.115.142.114.213.079.299.084.6.107.903.02.274.075.283.298.203.219-.063.167-.327.122-.49-.083-.269.023-.433.164-.591l.097-.105a1.5 1.5 0 0 0 .185-.232c.014-.018.027-.037.039-.057a.56.56 0 0 0 .032-.059c.015-.032.027-.065.037-.099l.012-.051c.025-.131.01-.269-.035-.397zM2.407 3.968c-.004.021-.009.041-.016.061l-.007.02a.5.5 0 0 1-.077.133l-.025.029-.017.018c-.212.217-.602.301-.864.129l-.047-.03a.4.4 0 0 1-.055-.045c-.115-.113-.075-.239-.036-.421.011-.199.141-.297.305-.376.26-.159.603-.241.761-.071.011.012.021.025.03.039.05.077.071.192.049.353a.45.45 0 0 1-.002.162z" fill="#eac3a7"/><path d="M7.209 3.467l-.46.053.464-.053h-.004zm-1.626.722c-.02.021-.038.043-.055.067.018-.023.036-.045.055-.067z" fill="#fff"/><path d="M8.186 4.168l-.003-.034-.007-.047-.006-.027-.011-.04-.012-.032-.009-.02-.013-.027a.4.4 0 0 0-.03-.05l-.024-.033-.023-.027-.029-.03-.033-.029-.025-.019-.025-.018-.032-.021-.025-.015-.018-.01-.032-.017-.02-.01-.019-.009-.065-.029-.047-.019a3.29 3.29 0 0 0-.308-.098l-.032-.009-.13-.035.003.003h0l-.464.053.07.243.023.078h0l-.003-.003.087.528c.027.166.02.175-.147.199l.021.078c-.144.023-.345-.248-.164-.322l.071.216a2.12 2.12 0 0 0 .016-.275v-.021l-.001-.032-.002-.032-.008-.064-.007-.043-.009-.043-.011-.044-.013-.043-.015-.041-.008-.019-.012-.028-.044-.09-.026-.045c-.028-.046-.06-.092-.098-.14l-.067.054-.044.032-.04.027-.047.03-.053.033-.082.049-.301.181-.035.023-.034.024a1.24 1.24 0 0 0-.156.13l-.03.032c-.02.021-.038.043-.055.067l-.025.035a.35.35 0 0 0-.019.03l-.011.02a.28.28 0 0 0-.013.025l-.018.04c-.006.013-.011.027-.016.042l-.013.044.005.048c.005.031.011.061.02.09l.015.042.009.02c.013.026.027.052.043.075l.013.018.013.018.022.025.022.023.024.023.025.022.036.027.038.026.061.035.043.022.045.02.046.018.035.013.036.012.028.009.046.013.05.013.051.011.197.031.039.004.157.011h.001l.063.002h.03a2.58 2.58 0 0 0 .404-.025l.127-.033.072-.018.077-.02h0l.079-.022.082-.024.082-.026.051-.018.05-.018.04-.016.057-.024.062-.029.047-.025.065-.039c.031-.021.06-.043.085-.066l.024-.024a.38.38 0 0 0 .04-.05c.012-.017.022-.035.03-.054l.038-.12.01-.04.007-.027.01-.044.007-.037.004-.024.004-.027c.001-.008.002-.017.002-.025a.34.34 0 0 0 .003-.036l.001-.044-.001-.043zm-1.665.408c-.173-.118-.135-.324.089-.433-.082.151-.163.279-.089.433z" fill="#d5773b"/><path d="M3.943 25.811c-.361.139-1.077-.06-1.424-.222h0c-.019-.014-.037-.023-.054-.029-.173-.065-.217.233-.356.353-.312-.464-.095-.821.146-1.18.081.163.26.262.423.142.082-.083.174-.055.266.018l.039.034.02.019.039.04.087.099.03.035.08.094.026.029c.034.038.067.07.097.093l.026.017c.181.164.382.277.554.458zm2.55-.244l-.366.01-.067-.002-.04-.002c-.008 0-.015 0-.022-.001l-.069-.005-.041-.003-.152-.017-.043-.007-.124-.025-.033-.008-.085-.023-.076-.025-.021-.008-.067-.027-.031-.014-.029-.014-.028-.014-.075-.042-.018-.011-.033-.019-.067-.036-.014-.005c-.017-.006-.02-.006-.023-.006-.025-.004-.048 0-.072.018-.008.005-.015.011-.022.019l-.024.025-.017.021-.018.025-.024.035-.015.023-.013.02-.013.021c-.005.007-.01.015-.014.023l-.096.164c-.167-.316-.085-.62-.111-.936.34.216.449.165.623-.074.498.126.91.377 1.232.825.011.019.125.042.11.095z" fill="#316956"/><path d="M5.285 25.424l.058.024-.058-.024z" fill="#fff"/><path d="M8.142 4.887c-.298.587-.998.495-1.547.55-.366.015-.686-.133-1.005-.284l-.048-.015-.045-.017-.045-.02c-.03-.014-.06-.029-.089-.046l-.041-.025-.059-.041-.04-.032c-.018-.015-.035-.03-.05-.047a.28.28 0 0 1-.019-.02l-.025-.029-.019-.026c-.022-.032-.03-.05-.038-.067l-.008-.02-.009-.025a.29.29 0 0 1-.012-.08c0-.008 0-.017.001-.025.002-.018.005-.035.01-.053l.008-.024c.005-.012.009-.022.014-.032l.028-.045.024-.03.028-.03.037-.034.013.043.011.035.018.05.021.051.02.042c.004.009.008.017.013.025l.021.039.03.052.032.048.03.04a1 1 0 0 0 .067.078l.016.017.058.055.026.023.037.03.051.037a.77.77 0 0 0 .07.045.24.24 0 0 0 .023.013c.042.024.085.045.13.064l.031.013.03.012c.062.024.127.043.194.058l.04.009.08.015c.01.002.02.004.03.005l.031.005.159.015.039.002.044.002h.06.062l.045-.002.063-.003.124-.01.065-.008.102-.015.051-.009.025-.005.056-.011.038-.008.072-.016.061-.015.107-.03.059-.018.125-.042.092-.034.09-.037.03-.013.029-.013.046-.022.066-.032.059-.031.059-.032z" fill="#d5773b"/><path d="M5.158 4.405l-.028.03c.008-.01.018-.02.028-.03z" fill="#fff"/><path d="M4.984 23.849c-.077.205-.083.451-.211.63-.268-.346-.129-.793-.152-1.205.134.021.346-.087.406.065.037.174.005.343-.043.51zm-2.36.139v.086l-.003.052-.004.032-.005.03v.002l-.006.03-.007.029-.009.027a.28.28 0 0 1-.027.058l-.017.026-.014.017c-.01.011-.021.021-.033.03-.026.016-.019.085-.033.16-.18-.285-.207-.573-.259-.896l-.013-.082a.61.61 0 0 1-.004-.097l.002-.023.006-.035.006-.023.01-.023a.14.14 0 0 1 .016-.026.15.15 0 0 1 .034-.031l.023-.012c.008-.004.018-.006.027-.008l.031-.004c.025-.002.053 0 .084.006l.055.012.049.015.005.03.013.068.013.068.011.062.007.041.02.13q0 0 0 0l.005.035.01.09.003.044.002.044.001.035z" fill="#eac3a7"/><path d="M2.348 23.306c.025-.002.053 0 .084.006a.36.36 0 0 0-.084-.006zm.255.432l-.02-.13.02.13z" fill="#fff"/><path d="M6.692 1.801a.11.11 0 0 1-.003.029c-.013.053-.039.082-.074.103-.021.012-.03.016-.04.019l-.022.008-.056.014-.04.007-.037.005-.116.008-.077.002-.073.002-.045.002-.041.003-.356.019a.3.3 0 0 1-.047-.013c-.008-.002-.015-.005-.021-.008a.3.3 0 0 1-.038-.02.28.28 0 0 1-.032-.024c-.01-.008-.018-.017-.026-.027s-.014-.019-.02-.029l-.013-.03-.006-.027c-.001-.007-.002-.015-.002-.022a.13.13 0 0 1 .003-.026c.002-.009.004-.018.007-.026l.01-.021c.005-.009.01-.018.018-.026.012-.014.015-.018.019-.021l.028-.023a.39.39 0 0 1 .054-.029.42.42 0 0 1 .044-.015l.105.141.013-.018.023-.032.021-.027.02-.022.018-.018.018-.014c.021-.011.03-.013.04-.013l.027.006.025.013c.022.014.047.036.077.067l.026.026.03-.058.027-.046.014-.019.025-.027.022-.014c.02-.007.03-.007.041-.004s.016.005.019.007c.017.011.025.016.032.023l.034.034.024.03.054.076c.048-.053.155-.072.224-.099.003.006.006.013.009.019l.014.034.01.028.007.03.005.042z" fill="#d5773b"/><path d="M6.131 1.689l.027-.046-.027.046zm.159-.097c.007.004.014.01.022.017-.008-.007-.015-.012-.022-.017z" fill="#fff"/><path d="M6.77 3.001c.156-.116.231-.299.442-.235-.042-.042-.055-.071-.055-.094s.005-.025.008-.028l.025-.036c.012-.02.015-.025.017-.031.005-.027.005-.037.003-.048-.084.006-.104.095-.157.152l-.071-.094-.018.179-.088-.117c-.051.096.048.225-.137.261-.088-.261.149-.486.361-.589.197-.1.265-.062.279.164.037.339-.311.522-.607.515z" fill="#316956"/><path d="M3.701 8.215c-.003.022-.005.025-.006.028-.007.013-.01.017-.013.02-.062.047-.155.05-.254-.013-.038-.022-.065-.032-.085-.032s-.023.005-.025.007c-.014.013-.016.017-.018.022l-.008.023-.005.027-.003.028-.008.095-.003.02c-.003.02-.007.04-.015.058l-.065-.067-.02-.019-.03-.027a.2.2 0 0 0-.033-.024l-.023-.014-.043-.02-.034-.012-.035-.009c-.01.098-.084.156-.145.224-.097-.071-.102-.174-.107-.284-.008-.071-.037-.116-.116-.085-.216.05-.142-.165-.054-.262.01.003.018.007.027.011l.022.012.021.015.019.016.018.018.024.029c.008.009.015.019.022.029l.021.03.029.043.013.017.018.024.022.025c.007.008.016.016.025.023.035.029.077.05.134.056.283.033.556-.214.572-.499.007.004.013.009.018.013l.027.026c.015.021.018.029.02.037.004.024.004.03.004.037l-.004.022-.01.027-.012.024-.022.04a.22.22 0 0 0-.015.035c-.003.01-.004.02-.002.03.007.018.009.02.01.022.013.015.027.024.047.033l.017.011c.02.013.029.022.038.03l.021.024.011.019c.008.025.009.03.009.036zm4.129-.827v.025c-.154.018-.14-.201-.248-.237l-.053.288-.048.003-.004-.025-.008-.04-.013-.055-.008-.027-.017-.053c-.003-.009-.006-.017-.01-.025l-.01-.023c-.005-.011-.01-.021-.017-.03L7.38 7.17c-.013-.014-.016-.017-.02-.019l-.01-.006c-.014-.005-.017-.005-.021-.005-.014.002-.017.003-.021.005-.014.008-.018.012-.022.015-.015.015-.02.022-.025.029l-.014.021-.024.047-.017.039c-.033-.033-.062-.054-.087-.065V7.23c-.02-.013-.037-.022-.049-.017-.033.006-.061.03-.085.059l-.061.069a.3.3 0 0 1-.02.057c-.022.033-.039.058-.059.063-.017-.001-.02-.003-.024-.005s-.012-.01-.018-.018a.14.14 0 0 1-.012-.02l-.011-.039-.008-.038c-.004-.022-.005-.043-.005-.062 0-.013.001-.025.003-.037l.007-.033.012-.032.017-.028c.022-.027.038-.04.056-.052l.018-.01.024-.011.028-.01.044-.011.039-.007a1.09 1.09 0 0 1 .084-.008h.023c.208-.004.457.046.599.05.012.003.023.008.032.013.018.012.022.015.025.019l.021.025.013.025c.025.062.019.146.017.215z" fill="#dd5633"/><path d="M6.904 7.399c-.015.03-.035.058-.058.062.02-.005.037-.03.058-.062zm.217-.17c-.053-.023-.091-.002-.134.043.024-.03.052-.053.085-.059.012-.005.03.004.049.017z" fill="#fff"/><path d="M3.397 5.25a.17.17 0 0 1-.007.027c-.003.009-.007.017-.011.023s-.009.013-.015.018c-.192.084-.374.258-.59.253l-.009-.024.031-.023.032-.024.032-.025.123-.097.064-.05.071-.054.03-.022.047-.032.022-.015.067-.041.078-.039c.014.013.018.019.022.026l.009.02.005.024c.002.026.002.04-.001.053z" fill="#be1e2d"/><path d="M3.362 5.126l-.078.04.078-.04z" fill="#fff"/><path d="M4.954 24.725c-.196.093-.423-.064-.363-.301.132.2.166.228.358.067.031.107.159.169.005.233z" fill="#58906b"/><path d="M6.84 3.838v.301l-.299-.753.017-.015.037.056.049.073.068.105.019.03.018.03.079.146.012.028z" fill="#d5773b"/><path d="M6.827 3.81l-.079-.146.079.146z" fill="#fff"/><path d="M3.298 4.999a1.36 1.36 0 0 1-.498.406c.114-.183.238-.353.498-.405z" fill="#be1e2d"/><path d="M2.629 24.687c.012.179-.279.173-.253 0h.253z" fill="#58906b"/><path d="M8.952 4.621c-.132-.012-.168-.195-.026-.197.063.053.072.122.026.197zm-.155-.312c-.134-.053-.071-.16-.089-.277.143.078.069.191.089.277zm.448 1.767c-.061.068-.14.014-.214.005l-.001-.03c.077-.003.169-.065.216.025z" fill="#d1d3d4"/><g fill="#0f181b"><path d="M3.379 9.369c-.056-.036-.11-.065-.162-.089a.96.96 0 0 0-.148-.054h0a.56.56 0 0 0-.31 0 .48.48 0 0 0-.17.095c-.015.012-.028.025-.042.038l-.025.028a.66.66 0 0 0-.047.06 1.2 1.2 0 0 0-.176.445l-.015.085-.017.143-.006.097c.082.631.361 1.252.724 1.775-.065.024-.137-.023-.209-.108l-.035-.044-.036-.051-.033-.052-.014-.022-.022-.039-.023-.041-.021-.04-.057-.115-.026-.055-.021-.046-.016-.037-.05-.118-.016-.04-.02-.051h0l-.012-.031-.035-.097a1.9 1.9 0 0 1-.094-.253l-.027-.103-.029-.147-.014-.113-.01-.156v-.002c-.004-.176.013-.354.047-.533a.68.68 0 0 1 .056-.177l.025-.047h0l.028-.045.015-.023.033-.043a1.01 1.01 0 0 1 .388-.29.69.69 0 0 1 .55.147c.009.009.018.019.025.029l.02.031c.009.016.015.033.02.051a.22.22 0 0 1 .006.037zm-.175 2.863c-.106.055-.14-.024-.206-.08.117-.062.145.031.206.08z"/><path d="M3.395 12.429c-.141.008-.168-.017-.129-.14l.129.14zm4.766-9.078c-.085.044-.155.002-.23-.035-.166-.05-.312-.027-.507-.045.059-.164.135-.062.259-.041.041-.059.095-.096.191-.027.034.01.062.012.088.012.047 0 .083-.007.117.015.006.004.012.009.018.015a.34.34 0 0 1 .064.107zm-2.023.095l-.106.143-.104-.059c.095-.132.127-.145.21-.084z"/><path d="M7.087 3.297h-.403l-.002-.024h.403l.001.024zm-4.727.156c-.009-.014-.019-.027-.03-.039-.159-.17-.502-.088-.761.071-.164.079-.293.176-.305.376-.039.182-.079.309.036.421.015.015.034.03.055.045a.69.69 0 0 0 .047.03c.262.172.652.088.864-.129l.017-.018.025-.029a.5.5 0 0 0 .077-.133l.007-.02a.47.47 0 0 0 .016-.061c.01-.051.011-.106.002-.162.022-.161.001-.276-.049-.353zm-.318-.031l-.596.266-.015-.031a1.06 1.06 0 0 1 .611-.236zm-.098.316c-.006-.011-.012-.021-.018-.029l-.016-.016c-.079-.042-.154.058-.257.066.182-.238.489-.131.371.132-.129.142-.504.179-.401-.127.017.251.435.197.321-.025zm-.547.166h0q.004-.013.004-.014h0c.009-.016.012-.02.016-.024a.16.16 0 0 1 .05-.03l.034-.011.021-.005c-.005.136.061.269.202.274l.01.036c-.106.022-.308.101-.298-.084-.017-.04-.031-.072-.036-.101l-.003-.026zm-.005.326c.362.074.605-.156.9-.261-.052.333-.628.521-.9.261zm.897-.503a.27.27 0 0 1-.009.025l-.012.026a.12.12 0 0 1-.012.022l-.016.023-.021.025c-.009.01-.019.019-.03.027a.24.24 0 0 1-.034.022l-.018.009c.036-.141-.032-.239-.147-.316.019-.079.169-.067.241-.091a.15.15 0 0 1 .017.015.14.14 0 0 1 .026.033l.011.022a.23.23 0 0 1 .004.157zm4.232.849c-.173-.118-.135-.324.089-.433-.082.151-.163.279-.089.433z"/></g><g fill="#567591"><path d="M2.291 3.969c-.052.334-.628.521-.9.261.362.074.605-.156.9-.261z"/><path d="M2.289 3.727a.27.27 0 0 1-.009.025l-.012.026c-.003.007-.007.015-.012.022l-.016.023-.021.025c-.009.01-.019.019-.03.027a.24.24 0 0 1-.034.022l-.018.009c.036-.141-.032-.239-.147-.316.019-.079.169-.067.241-.091a.15.15 0 0 1 .017.015c.01.01.019.02.026.033l.011.022a.23.23 0 0 1 .004.157z"/><path d="M2.024 3.89c-.129.142-.504.179-.401-.127.017.251.435.197.321-.025-.006-.011-.012-.021-.018-.029-.012-.013-.014-.015-.016-.016-.079-.042-.154.058-.257.066.182-.238.489-.131.371.132z"/><path d="M1.734 4.128c-.106.022-.308.101-.298-.084-.017-.04-.031-.072-.036-.101l-.003-.026.001-.014c.004-.017.005-.019.007-.021.005-.009.008-.013.013-.017.024-.019.036-.025.05-.03l.034-.011.021-.005c-.005.136.061.269.202.274l.01.036z"/><path d="M2.042 3.422l-.596.266-.015-.031a1.06 1.06 0 0 1 .611-.236z"/></g></svg>