<svg id="Layer_6" xmlns="http://www.w3.org/2000/svg" viewBox="0 0 17.135 26.177"><defs><style>.cls-1{fill:#eac3a7}.cls-2{fill:#e7a96c}.cls-3{fill:#ed1c24}.cls-4{fill:#9fa3a4}.cls-5{fill:#d5773b}.cls-6{fill:#dd5633}.cls-8{fill:#184137}.cls-9{fill:#234968}.cls-10{fill:#0f181b}.cls-11{fill:#316956}.cls-12{fill:#567591}.cls-13{fill:#4f6d86}</style></defs><path class="cls-10" d="M16.928 1.582c-.102-.374-.177-.624-.562-.769-.092-.058-.205-.085-.312-.117-.34-.09-.756-.02-1.063.147-.164.106-.347.194-.499.315a.269.269 0 0 1-.198.08c-.26.032-.525.07-.776.152-.135.042-.26.122-.402.14-.168.1-.194-.076-.332-.116-.188-.013-.682.093-.748.292-.026.063-.12.06-.177.067-.138-.08-.227-.275-.414-.273-.15-.008-.302-.046-.452-.046-.172.009-.273-.097-.373-.209-.037-.041-.031-.074.016-.11.135-.093.038-.217-.039-.316a.977.977 0 0 0-.333-.315c-.159-.131-.177.012-.313.014a4.762 4.762 0 0 0-.652-.165C9.035.297 8.772.226 8.505.184 8.128.103 7.742.114 7.36.12a8.594 8.594 0 0 0-.955.008c-.795.096-1.58.284-2.351.496-.936.225-1.95.483-2.628 1.209a2.954 2.954 0 0 0-.436.594c-.054.081-.118.156-.17.239-.04.085-.06.173-.116.255-.008.161-.091.322-.163.466-.032.11-.08.216-.122.322-.033.316-.135.616-.186.929-.023.219-.076.429-.057.65-.004.228.063.456.04.686.008.038.051.078.044.109-.02.083.04.143.046.22.076.24.11.5.213.732.03.17.173.426.181.411.05.067.047.153.108.214.046.044.075.107.103.166.025.051.214.316.289.399.043.054.223.173.226.233.055.072.126.106.175.182.056.072.228.219.241.224.07.084.566.528.773.624.19.132.384.26.577.391.017.012.039.032.039.049.005.318-.045.639.018.953.07.405.08.811.038 1.221-.016.074-.096.047-.085.154.03.15-.06.409.154.43-.293 1.143.008.822.238 1.751.034.406-.103.803-.109 1.21-.026.562-.053 1.123-.137 1.681-.028.33-.136.645-.193.97-.068.521-.17 1.04-.175 1.567.017.764-.002 1.533.012 2.298.055.689-.041 1.378-.071 2.066-.03.144.202.043.283.057.074-.006.08.004.084.077-.015.132.07.355-.015.455-.191.14-.151.375-.147.582.02.186-.059.425.073.576.034.032.108.028.165.028.219.01.134-.254.164-.397.032.005.03-.005.045.02a.73.73 0 0 0 .335.267c.403.118.383-.316.329-.58-.04-.5-.517-.357-.551-.695-.006-.342-.163-.375.256-.414.151-.014.303-.023.455-.034.11-.021.053-.193.071-.277 0-.575.032-1.147-.024-1.72a28.122 28.122 0 0 1 .022-3.223c.014-.535.14-1.062.161-1.596-.003-.502-.047-1.004-.001-1.505.026-.455.085-.908.032-1.363-.024-.266-.06-.53-.093-.796-.016-.104-.046-.205-.006-.308l.02.003c.268 1.012.143 2.09.224 3.128.02.36.018.717-.015 1.075.01.827-.013 1.654-.035 2.48.02.564.034 1.127-.018 1.69-.088.798-.072 1.602-.122 2.403-.02.128.118.016.117.116.001.072.014.144.015.216-.003.113-.12.189-.15.29-.08.227-.105.463-.089.702.032.139-.015.336.089.441.135.092.4.06.372-.154-.002-.028.014-.058.025-.1.258.277.388.245.724.15.25-.102.009-.627-.124-.78-.326-.303-.544-.241-.491-.774-.023-.154.43.012.426-.128.005-.34-.076-.675-.088-1.013-.012-.265.006-.53.01-.795.04-.742-.046-1.479-.042-2.22.022-.77.17-1.53.252-2.293.054-.575.038-1.153.084-1.728.118-1.114.225-2.246-.05-3.346-.007-.043-.009-.08.04-.104.17-.086.232-.432.137-.587-.002-.208.045-.42.01-.634a5.077 5.077 0 0 1-.03-.641c.406.091.81.043 1.181-.14.277-.052.533-.167.787-.288.42-.165.694-.5.88-.9.088-.184.181-.367.209-.572.085-.327.04-.665.035-.999.006-.28-.035-.557-.06-.834a1.927 1.927 0 0 0-.028-.437c-.035-.295-.155-.573-.13-.873.013-.176.01-.353.009-.529-.003-.114.142-.033.108-.166-.048-.224-.027-.458-.098-.677-.056-.075-.164-.022-.25-.018-.055-.407-.06-.67.221-.999.043-.06.09-.122.117-.19.02-.052.042-.062.09-.054.049.008.112-.006.157.018.121.095.268.128.41.168.193.062.265-.056.415-.127.138-.007.548-.067.63.041.076.08.203.138.286.2-.127.371.296.348.532.28.159.353.457.062.586-.15.03.207.154.305.362.21.174-.12.036-.367.016-.545.137.074.25.196.42.143.115-.036.241-.056.325-.16a.07.07 0 0 1 .042-.024c.327-.029.651-.08.977-.118.074-.007.149.004.224.003.093-.012.116.078.167.133.37.42 1.328.706 1.786.301.286-.215.462-.53.597-.853.16-.329.155-.694.074-1.042Zm-6.243-.173c.207.234.816.006 1.037.376-.372.107-.763.024-1.135.148-.117.03-.172.229-.143.302.036.082.08.164.093.252-.093-.027-.196-.155-.273-.064-.026.038-.046.018-.056-.012-.088-.204.012-.408.058-.61.038-.425-.342-.206.204-.538.079-.02.16.097.215.146Zm-.2 1.16c0 .072-.089.111-.142.047-.027-.038-.116-.078-.069-.13.075-.083.208-.019.212.083ZM10.107.666c.115-.099.298.204.401.264.032.029.036.047.005.081-.095.105-.177.222-.28.316-.055.05-.144.064-.22.095-.145-.064-.267-.147-.337-.291-.019-.045-.023-.083.017-.117.138-.117.274-.234.414-.348Zm-6.88 8.957a1.022 1.022 0 0 1-.361-.185c-.073-.046-.166-.044-.22-.125-.051-.07-.13-.12-.179-.19-.116-.143-.273-.236-.408-.357-.153-.163-.314-.319-.454-.492a1.309 1.309 0 0 0-.317-.33C1.084 7.71.874 7.466.8 7.157c-.285-.38-.44-.87-.483-1.347-.003-.171-.04-.341-.047-.512 0-.334.07-.666.143-.991.042-.227.111-.448.167-.67.102-.352.339-.644.495-.97.182-.36.418-.715.73-.976A4.064 4.064 0 0 1 3.487.977l-.18.09.006.02c.126.007.23-.09.351-.111.032-.012.074-.018.037-.08C4.548.648 5.404.468 6.277.346c.488-.024.978-.03 1.468-.029.726-.075 1.448.06 2.138.285.089.03-.101.154-.147.225-.066.06-.093.186-.206.16-.192-.05-.384-.1-.58-.133C8.304.73 7.644.753 6.99.7 6.5.7 6.012.743 5.528.804 5.06.8 4.61.914 4.152.988a3.64 3.64 0 0 0-1.4.682c-.281.206-.5.489-.705.769-.263.36-.442.766-.55 1.197-.05.223-.068.456-.11.679-.023.093-.045.182-.038.28.013.512-.032 1.027.02 1.534.012.42.185.814.417 1.156.053.077.094.16.151.237.063.083.151.153.184.264.224.322.537.587.839.838.12.096.284.126.371.259-.074.23-.083.485-.106.74Zm.535 15.363c.023-.045.049-.08.105-.063.001.061-.04.113-.065.166-.038.095-.18.033-.15.177.017.117.211.112.195-.012-.044-.109.048-.192.089-.285.112.053.117.066.07.165-.018.09-.112.15-.131.232.017.08.13.11.134.007-.05-.111.043-.168.077-.247l.025-.002c.082.157.075.333.098.503.006.055-.02.073-.07.066-.324-.031-.31.13-.554-.186-.129-.096-.13.116-.14.197-.007.091-.161.035-.227.054-.048-.266-.033-.702.03-.766.102.201.41.181.514-.006Zm-.068-.098c.08.155-.43.306-.354-.01.088.151.22.057.354.01Zm-.274-.619c.134 0 .134-.003.158.128.032.15.069.303.014.452-.187.123-.2-.082-.226-.218l.007-.001c.013-.086-.09-.376.048-.36Zm1.374.407c.122.09.168.04.275-.035.037.07.023.135-.042.16-.1.038-.287.085-.3-.074 0-.034.028-.075.067-.05Zm.059-.454c.132-.017.164-.016.168.14-.01.055-.017.125-.031.194-.014.063-.056.076-.103.03-.061-.057-.059-.137-.066-.213-.005-.041.004-.13.031-.15Zm.328.583.006.023c-.03.06-.057.12-.09.176-.035.047-.156.08-.07.143.063.058.226.075.17-.057-.036-.066-.03-.133.022-.188.074-.053.149.052.214.083.034.042-.057.143-.085.178-.09.073-.014.155.074.145.074-.011.005-.124.075-.224.118-.027.387.615.143.553a1.48 1.48 0 0 0-.456.069.073.073 0 0 1-.056-.014c-.054-.035-.155-.222-.194-.088-.031.185-.045.166-.219.134-.096-.003-.1-.002-.115-.1-.03-.27-.057-.562.075-.812.174.18.336.036.506-.021Zm.446-9.884c-.057.93-.045 1.864-.158 2.791-.087.636-.214 1.27-.25 1.914-.04.63-.01 1.262-.034 1.894a10.77 10.77 0 0 0-.018 1.326c.006.37.06.738.043 1.106.004.1-.407.092-.509.124-.048-1.239.178-2.454.216-3.69.055-.569-.046-1.135-.054-1.704.102-.724.033-1.454.006-2.181-.036-.87.001-1.741-.096-2.609-.015-.165-.056-.328-.092-.49-.153-.33-.225-.054-.205.137.037.348.096.694.119 1.044.037.61-.102 1.217-.121 1.829-.104 1.12-.145 2.248-.312 3.36-.092.521-.029 1.042.047 1.562.056.644.075 1.29.1 1.937.006.235.005.47.004.706 0 .01-.02.03-.033.032-.3.043-.602-.035-.904-.036-.057-.003-.077-.026-.083-.077-.03-.307-.064-.615-.094-.922a34.76 34.76 0 0 1-.1-1.399c-.019-.895-.04-1.8.124-2.684.213-.779.318-1.58.39-2.383.01-.523.11-1.04.187-1.558.037-.22.034-.436-.055-.643-.092-.196-.196-.385-.234-.601-.082-.312-.157-.626-.072-.945.011-.077.042-.093.116-.097.143-.006.285-.028.427-.046.41-.066.82-.1 1.234-.106.038-.013.051.006.076.03.08.063.155.18.269.162.05-.007.064.016.07.062.014.124.04.247.047.37.033.596.01 1.192-.05 1.785Zm-1.764-2.716c.033.03.05.213.031.284-.046-.03-.066-.199-.03-.284Zm.19.004h.018l.01.306a.435.435 0 0 1-.028-.306Zm.14.06c.01.073.007.147.01.22l-.03.007c-.012-.091-.06-.232-.02-.313.057.003.036.056.04.086Zm.133-.105.005.184c-.043-.06-.046-.123-.005-.184Zm.086-.014c0-.013.02-.025.03-.037.05.092.016.214.03.317l-.026.007c-.056-.082-.025-.193-.034-.287Zm.252.315c-.05-.192-.035-.361.015-.369-.009.122.038.258-.015.37Zm.102-.313.007.238h-.02c0-.08-.024-.16.013-.238Zm.146.132h.019l.004.143-.009.002-.014-.145Zm.148-.14.032.295-.017.002a.417.417 0 0 1-.015-.297Zm.32.279c-.066-.044-.09-.118-.062-.179l.062.179Zm.305-.436c-.128.02-.325.008-.346.182-.018-.207.197-.298.346-.182Zm-.038.505c-.014 0-.026-.013-.04-.016-.165-.027-.289-.31-.095-.386.062-.003.264.094.153.137-.072.001-.184.053-.103.127.042.026.12.023.155.054-.007.042-.014.094-.07.084Zm.126-1.23c-.008.226-.033.444-.016.673-.248-.167-.344-.02-.594.015-.516.069-1.036.09-1.553.139-.055.005-.068-.014-.074-.068-.017-.147-.044-.293-.065-.44-.038-.192-.04-.394-.069-.586a1.236 1.236 0 0 1-.043-.417c.008-.114-.02-.228.023-.345.05-.296.049-.616.073-.918.075-.492.067-1.11.578-1.367.04.09.073.187.179.203.348.09.785.091 1.05-.186.268.138.42 1.157.385 1.455-.38-.055-.358-.354-.612-.572-.162-.151-.254-.325-.498-.21a.335.335 0 0 0-.264.411c.021.076-.031.144.003.221.019.057.005.125.011.187.058.823.83 1.071 1.493 1.296-.035.17-.002.34-.007.508ZM3.954 5.862c-.25-.286-.46-.672-.4-1.062.176-.006.286-.241.11-.336-.115.122-.001.143-.078.2-.248.072.086-.374-.094-.576-.103-.103-.259-.302-.11-.427.163-.108.364-.102.324.151-.05-.069-.07-.191-.18-.171-.06.006-.108.035-.125.092-.014.046-.022.097.032.132.032.045.064.1.113.134l.017-.015c-.018-.08-.153-.205-.055-.265.036-.018.088.018.1.057.016.074.063.157.147.142.157-.071.082-.274-.011-.368-.069-.092-.202-.035-.308-.06-.008-.048-.006-.114.043-.134.144-.038.214-.132.235-.276.025-.162.07-.322.11-.481.07-.113.351-.202.477-.272.19-.088.396-.029.594-.009.104.032.214.037.32.039.057-.001.08.02.083.073.008.266.037.529.087.79.023.171.042.342.123.498.028.066.014.098-.056.113-.084.012-.173.048-.243-.024-.05-.052-.096-.032-.117.045-.038.163-.253.022-.132-.129-.016-.027-.053-.02-.08.006-.107.084.057.282.173.249.091-.032.067.09.071.143-.015.198.086.381.077.577-.218.026-.467.02-.624.2-.04.041-.089.087-.037.141.117.105.213.246.383.25.272-.035.178.03.29.244.18.333-.145.614-.383.808-.167.132-.058.37-.047.548.037.225.02.452.01.679 0 .126-.212.038-.294.06-.137.006-.087-.391-.086-.491-.029-.191-.03-.38-.003-.571.035-.326-.263-.496-.456-.704Zm1.14-.926c-.16.017-.287.045-.455.023.111-.196.408-.2.597-.14-.03.099-.045.109-.142.117Zm.132.113c-.092.169-.422.167-.542.017l.542-.017Zm-.149 2.918c.002.014-.037.032-.057.048l-.099-.261c.113.003.152.12.156.213Zm-.025-.24c.08.004.087.072.11.122.003.006-.017.023-.026.034l-.084-.156Zm-.128.278-.122-.23c.058.004.131.132.122.23Zm-.114.023c-.099-.024-.103-.132-.084-.217.039.075.058.128.084.217Zm-.118.018-.077.002.007-.162.017-.002.053.162Zm-.154.005c-.025.026-.07.026-.09-.003-.026-.062.025-.13.028-.195h.055c.002.066.027.152.007.198Zm4.141-2.899c-.022.422-.079.832.039 1.243.088.321.088.666.15.994.023.265-.046.521-.027.788.016.25.002.5-.048.746-.072.463-.358.674-.66.99-.133.144-.308.225-.47.327-.203.163-.467.188-.712.25-.165.07-.1.05-.267.033-.685.048-.681.114-1.322-.2-.224-.108-.44-.233-.573-.45-.231-.275-.29-.629-.32-.973-.016-.068.024-.101.076-.127.372-.19.591.565.81.769.256.265.598.404.94.523a.264.264 0 0 0 .124.003c.104-.015.209.027.315-.02.127-.055.263-.093.395-.138.75-.348.771-1.319.886-2.031.023-.347.129-.69.097-1.039-.015-.167.013-.34-.022-.508-.07-.254.005-.513-.075-.767 0-.088-.14-.363.026-.343.223.008.414-.084.638-.07Zm-.04-.212c-.023.104-.364.079-.464.108l-.001-.013c-.137.013-.308.066-.411-.047-.059-.077-.039-.226-.049-.324-.006-.057.016-.089.07-.106.189-.086.4-.136.602-.068.165.05.289.284.253.45Zm-.001-1.64c-.477.382-.191.527-.234.998-.018.106-.333.06-.429.084-.125.035-.01-.461-.214-.692-.06-.1-.162-.143-.25-.204-.279-.18-.408-.545-.373-.867l.071.115-.03.037c.058.001.123.055.142-.037.096-.048.125-.123.115-.223.245.092.023.498.25.611-.074.201.5.34.524.108-.09.008-.158.096-.261.047a1.275 1.275 0 0 1-.235-.134c.369.006.702-.052 1.065-.043-.014.102-.072.157-.141.199Zm-1.265-.759c.002.074-.036.122-.102.115-.215-.038.092-.406.102-.115Zm.984.412c-.143.011-.285.028-.428.041-.099.013-.224.045-.253-.084 0-.076-.111-.374-.002-.379a6.3 6.3 0 0 1 .91-.153c.125-.014.23-.059.36-.058l.02.639c-.193.033-.41-.008-.607-.006Zm-.64-.966c.107-.076.236-.053.358-.057.094.004.124.094.194.16-.247-.01-.474-.03-.682.117-.058.021-.091-.018-.096-.084.137.034.238-.038.226-.136Zm-.17.088c.052-.088.085-.098.15-.045-.07.066-.107.077-.15.045Zm.926-.254c.161.052.284.21.37.36.043.06-.02.08-.068.092-.08.044-.125.013-.179-.054-.06-.072-.557-.39-.456-.485.034-.038.074-.023.115.001-.088.157.134.211.218.086Zm-.169-.089c.024.043.123 0 .1.094-.065.085-.183.02-.1-.094Zm-.577.496a.314.314 0 0 1 .18-.07c.06.18-.084.212-.18.07Zm-.044-.006c.102.233.306.15.285-.092l.079.068.009-.049c.198-.01.416.085.397.18-.19.006-.377.051-.563.07-.093-.012-.343-.02-.207-.177Zm1.21-.046c-.022-.245-.923-.864-.82-.32-.19-.005-.383.014-.544.125-.099.062-.146.217-.032.283.113.043.039.115.192.174-.11.102-.111-.096-.238-.089-.11-.014-.219-.02-.313.053-.1.082-.016.209-.18.216-.126.025-.253.038-.378.065-.097.012-.058-.188-.348-.2-.18.023-.358.2-.309.401.018.13.032.277.139.366a.405.405 0 0 0 .44.052c.072-.034.119-.14.193-.171.11-.017.222-.023.332-.04.119-.035.18.297.419.426.1.055.193.133.215.254.035.184.08.366.093.552.026.146-.208.024-.174.163.024.216.067.436.05.653-.01.127.06.103.156.102.053.39.088.765.175 1.144.034.337-.025.665-.01 1.003.006.368-.083.723-.119 1.088-.035.258-.057.542-.226.753-.17.22-.36.519-.664.541a1.798 1.798 0 0 1-.75-.127c-.124-.047-.241-.11-.363-.16-.046-.019-.059-.052-.064-.095-.029-.228-.034-.46-.094-.685-.013-.248.009-.423-.158-.632-.06-.117-.22-.207-.196-.351.053-.228-.163-.3-.34-.349-.072-.02-.081-.071-.083-.137a35.79 35.79 0 0 0-.036-.769c-.003-.05.02-.09.057-.106.105-.045.168-.132.234-.218.484-.59-.136-.76.085-.917.14-.06.055-.148.069-.261a.615.615 0 0 0-.03-.29 3.279 3.279 0 0 1-.098-.596c-.012-.162.01-.14.153-.163.12-.02.36-.04.248-.214-.16-.288-.124-.624-.155-.94-.013-.153-.036-.304-.05-.456a.17.17 0 0 1 .017-.101c.092-.145.032-.307-.124-.378a.53.53 0 0 0-.34-.057c-.136.031-.248-.033-.37-.058-.29-.065-.587.033-.865.114-.333.127-.572.494-.588.847-.017.23-.002.528.223.657 0 .079.036.166-.013.231-.229.202-.04.42.118.593.085.127.028.297-.028.429-.03.053.008.114.04.167.04.342.087.702.29.994.166.271.553.366.597.715.018.204-.03.416-.04.622-.023.092.028.37-.058.406-.204.04-.206.162-.22.317-.003.034.001.057-.043.079a.937.937 0 0 0-.222.154 1.377 1.377 0 0 0-.332.604c-.013-.009-.026-.01-.025-.005-.071.04-.162-.103-.216-.152-.042-.05-.103-.082-.153-.126-.19-.171-.397-.329-.564-.525-.137-.184-.278-.369-.413-.556-.148-.253-.329-.495-.406-.78-.051-.272-.107-.548-.15-.821-.051-.533.11-1.052.15-1.58.028-.257.065-.512.115-.765.125-.338.31-.656.498-.965.184-.303.453-.527.738-.731.405-.33.912-.496 1.409-.63A6.622 6.622 0 0 1 5.86.844c.166-.024.332-.038.5-.028.413-.057.817.02 1.225.063.383.005.766.012 1.147.04.188.012.376.028.558.084.06.03.164.03.192.1.052.22.256.34.424.466.051.032.105-.024.148-.045.144.018.196.23.119.342-.161.079-.365.073-.536.135-.067.02-.114-.01-.165-.028-.182-.068-.4.044-.483.216-.039.052-.075.046-.096-.012Zm-1.839.815c-.335.042-.404.209-.464-.2-.009-.036-.005-.056.038-.063.138-.01.28-.078.417-.048l.01.311Zm-.882-.12c-.042-.026-.087.068-.098 0-.009-.062.05-.103.099-.067.061.07.07.186.002.252a.23.23 0 0 1-.075-.095c.075.074.154-.04.072-.09Zm.098.252c.001.042-.045.059-.08.067-.024.005-.055-.023-.092-.04l.172-.027Zm-.205-.406c.03-.063.083-.076.14-.058.11.04.104.24.105.339l-.018-.003c-.035-.127 0-.311-.227-.278Zm.255-.081c.073.002.178.177.18.24-.02.158-.027.341-.206.399l-.012-.017c.192-.19.092-.414.038-.622Zm3.405.557c-.146.08-.31.023-.448-.047-.275-.171-.26-.574-.166-.845.038-.197.144-.227.332-.258-.086.237-.182.455-.112.704.04.254.099.43.395.427v.019Zm.735-.125c-.018.082-.127.023-.185.03a1.73 1.73 0 0 1-.583-.05c-.308-.108-.305-.5-.256-.762.011-.104.1-.195.204-.216.167-.028.327-.093.498-.09-.043.208-.002.641.224.72.086.019.17.003.219-.071.084-.126-.039-.278-.07-.409-.093-.306.37-.284.565-.305.283-.008.565-.003.849-.003.037 0 .051.007.038.05-.086.355-.008.727.167 1.042a8.168 8.168 0 0 0-.958.002c-.127.009-.218-.019-.294-.12-.056-.074-.202-.103-.289-.065-.139.063-.156.096-.129.247Zm.102.008c-.033-.195.24-.119.23.035.003.08-.01.084-.09.074-.074-.009-.114-.046-.14-.11Zm.182.199c.127-.04.176-.192.07-.281-.047-.034-.09-.072-.137-.11.095-.085.355.262.49.255.142.034.279-.087.412-.02-.039.175-.238.233-.398.235-.155 0-.31.036-.437-.08Zm.2.383c-.082-.105.162-.12.203-.015-.065.073-.136.025-.204.015Zm.292-.02c-.009.002-.028-.01-.03-.02-.018-.12-.282-.137-.34-.045-.041-.24.236-.053.55-.204.411-.135.189-.281.428-.25-.078.184-.175.404-.374.471a4.517 4.517 0 0 1-.233.048Zm.297.145c.013-.081.051-.109.12-.093.08.056-.062.075-.12.093Zm.738-.195c-.09-.045-.08-.157-.002-.177.054.037.005.116.002.177Zm-.069.104c-.034.023-.13.005-.15-.03-.095-.082.063-.578-.062-.467a.144.144 0 0 0-.026.061c-.018.15-.1.27-.19.385-.008.01-.038.018-.05.012-.104-.054-.195-.023-.238.085-.001.004-.006.005-.02.014-.12-.144.098-.047.288-.341a.382.382 0 0 0 .102-.216c.023-.146.2-.092.302-.112.129-.01.108.167.145.25-.35.086.002.309-.1.359Zm.253-.591c-.2-.089-.277-.297-.362-.483-.083-.238.005-.587.038-.836.015-.084.093-.118.15-.166a.458.458 0 0 1 .452-.092c.372.147-.42.209-.377.577-.005.295.072.594.213.853.072.096.186.13.29.203-.178.083-.26.053-.404-.056Zm1.706-.704c-.013.087.142.449.047.455-.196.057-.393.11-.592.154-.179.026-.363.012-.542.04-.244.03-.388-.18-.5-.358-.093-.184-.085-.626 0-.812.05-.097.154-.126.25-.153.38-.107.765-.206 1.153-.287a.337.337 0 0 1 .002.023c.642-.048.113.023.182.938Zm2.606.274a.816.816 0 0 0-.079.15c-.132.247-.361.432-.596.575-.18.12-.413.13-.625.137a1.06 1.06 0 0 1-.894-.421c-.133-.2-.135-.463-.148-.696.003-.471.023-.816.33-1.2.255-.304.691-.376 1.066-.443l.002.016c.247-.023.536.029.694.236.075.106.169.202.224.317.059.123.076.266.122.397.094.295.05.659-.096.932Z"/><path class="cls-11" d="M5.639 25.637a1.48 1.48 0 0 0-.457.069.073.073 0 0 1-.055-.014c-.054-.035-.155-.222-.194-.088-.032.185-.045.166-.219.134-.096-.003-.1-.002-.115-.1-.03-.27-.057-.562.075-.812.174.18.336.036.506-.021l.006.023c-.03.059-.057.12-.09.176-.035.047-.156.08-.07.143.063.058.226.075.17-.057-.037-.066-.03-.133.021-.188.075-.053.15.052.215.082.034.042-.057.144-.085.179-.09.072-.014.155.074.145.074-.011.005-.124.075-.224.118-.027.387.615.143.553ZM4.138 25.693c-.324-.031-.31.13-.554-.186-.129-.096-.131.116-.14.197-.007.091-.162.035-.227.054-.048-.266-.033-.702.03-.766.102.201.41.181.514-.006.023-.045.049-.08.105-.063 0 .061-.04.113-.065.166-.038.095-.18.033-.15.177.017.117.211.112.195-.012-.044-.109.047-.192.089-.285.112.053.117.066.07.165-.018.09-.112.15-.131.232.017.08.13.11.134.007-.05-.111.043-.168.077-.246l.025-.003c.082.157.075.333.097.503.007.055-.019.073-.069.066Z"/><path class="cls-8" d="M3.339 24.878c.088.151.22.057.353.01.08.155-.428.306-.353-.01ZM5.026 24.801c-.1.038-.287.085-.3-.074 0-.034.028-.075.067-.05.122.088.168.04.275-.036.037.07.022.135-.042.16Z"/><path class="cls-1" d="M5.02 24.361c-.01.056-.017.126-.031.195-.014.063-.056.076-.103.03-.061-.057-.059-.137-.066-.213-.005-.041.004-.13.031-.15.133-.018.165-.017.17.138ZM3.59 24.85c-.186.122-.198-.083-.225-.219l.007-.001c.013-.086-.09-.376.048-.36.133-.001.133-.004.157.127.032.15.069.303.014.452Z"/><path class="cls-6" d="M5.677 13.137c-.007-.124-.034-.248-.048-.372-.005-.045-.02-.068-.07-.061-.113.018-.188-.1-.269-.162-.024-.024-.038-.043-.076-.03-.413.006-.824.04-1.233.106-.142.018-.285.04-.428.046-.074.004-.104.02-.115.097-.085.32-.01.633.072.945.038.216.141.405.233.6.09.208.092.424.055.644-.076.518-.177 1.035-.186 1.558-.073.804-.178 1.604-.39 2.383-.164.884-.143 1.789-.125 2.684.025.467.057.934.1 1.4.03.306.064.614.095.92.005.052.025.075.083.078.302 0 .603.079.904.036.012-.001.033-.021.033-.032 0-.236.001-.47-.005-.706-.025-.646-.044-1.294-.1-1.938-.075-.52-.138-1.04-.047-1.562.168-1.112.209-2.238.312-3.36.02-.61.159-1.217.121-1.828-.023-.35-.081-.696-.119-1.044-.02-.191.052-.466.205-.137.037.162.078.325.093.49.097.868.06 1.739.095 2.609.028.727.097 1.457-.005 2.18.008.57.108 1.136.053 1.705-.037 1.236-.264 2.451-.215 3.69.101-.032.513-.023.509-.124.016-.368-.038-.737-.044-1.106a10.77 10.77 0 0 1 .018-1.326c.025-.632-.005-1.263.034-1.894.036-.644.164-1.278.25-1.914.113-.927.101-1.861.159-2.791.06-.593.083-1.189.05-1.784Zm-.11.848q-.054-.063-.026-.128l.072.052-.046.076Z"/><path class="cls-11" d="M4.772 12.39h-.02c0-.08-.024-.159.013-.238l.007.238ZM4.934 12.427l-.009.002-.014-.145h.019l.004.143ZM5.09 12.439l-.016.003a.417.417 0 0 1-.015-.298l.031.295ZM5.379 12.423c-.066-.043-.09-.118-.062-.179l.062.179ZM5.684 11.987c-.128.02-.326.008-.346.182-.018-.207.197-.298.346-.182Z"/><path class="cls-11" d="M5.716 12.408c-.007.042-.014.094-.07.084-.014 0-.026-.013-.04-.015-.165-.028-.289-.31-.096-.387.063-.003.265.094.154.137-.072.001-.184.053-.103.127.041.026.12.023.155.054ZM4.663 12.465c-.05-.19-.035-.36.015-.369-.009.122.038.258-.015.37ZM4.471 12.43l-.026.007c-.056-.082-.025-.193-.034-.287 0-.013.02-.025.03-.037.05.092.016.214.03.317ZM4.33 12.348c-.043-.06-.046-.123-.006-.184l.006.184ZM4.202 12.49l-.03.006c-.012-.091-.06-.232-.02-.312.057.002.036.055.04.085.01.073.007.147.01.22ZM4.08 12.515a.435.435 0 0 1-.028-.306h.018l.01.306ZM3.893 12.49c-.046-.032-.066-.2-.03-.285.032.03.05.213.03.284Z"/><path class="cls-6" d="M10.512 1.011c-.095.105-.177.222-.28.316-.055.05-.143.064-.22.095-.145-.064-.267-.147-.337-.291-.019-.045-.023-.083.017-.117.139-.117.275-.234.415-.348.114-.099.298.204.4.264.032.029.036.047.005.081ZM8.638 4.941c-.022.104-.363.079-.463.108l-.002-.013c-.136.013-.308.067-.41-.047-.06-.077-.039-.226-.05-.324-.005-.057.017-.088.07-.106.19-.086.4-.136.602-.068.166.051.29.284.253.45Z"/><path class="cls-2" d="M4.537 8.053c-.025.025-.07.025-.09-.003-.026-.063.025-.13.028-.196h.056c.002.067.026.152.006.199ZM4.692 8.047l-.077.003.006-.163.017-.002.054.162ZM4.81 8.029c-.1-.024-.103-.132-.084-.217.038.075.057.128.083.217ZM4.923 8.006l-.121-.23c.058.004.131.132.122.23ZM5.162 7.85c.003.006-.018.023-.027.034l-.083-.156c.08.004.087.072.11.123ZM5.077 7.968c.001.014-.037.032-.057.048l-.099-.261c.113.004.152.12.156.213Z"/><path class="cls-5" d="M9.736.826c-.066.06-.093.186-.207.16-.191-.05-.383-.1-.578-.133C8.303.73 7.643.753 6.989.7 6.5.7 6.012.743 5.528.805 5.06.8 4.61.913 4.152.988a3.64 3.64 0 0 0-1.4.682c-.281.207-.5.489-.705.769-.263.36-.442.766-.551 1.197-.05.223-.067.456-.109.679-.023.093-.045.182-.038.28.013.512-.032 1.027.02 1.534.012.42.185.814.417 1.156.053.077.094.16.151.237.063.083.15.153.183.264.224.322.537.587.84.838.12.096.284.126.371.259-.074.23-.083.485-.106.74a1.022 1.022 0 0 1-.36-.185c-.073-.046-.166-.044-.22-.125-.051-.07-.13-.12-.179-.19-.116-.143-.273-.236-.408-.357-.153-.163-.314-.319-.454-.492a1.309 1.309 0 0 0-.317-.33c-.203-.234-.413-.478-.488-.787-.285-.38-.44-.87-.483-1.347-.004-.171-.04-.341-.047-.512 0-.334.07-.666.143-.991.042-.227.111-.448.167-.67.102-.352.339-.644.495-.97.182-.36.417-.715.73-.976A4.064 4.064 0 0 1 3.487.977l-.18.09c.003.007.004.014.005.02.127.007.23-.09.352-.111.032-.012.074-.018.037-.08C4.548.648 5.404.468 6.277.346c.488-.024.978-.03 1.468-.029.726-.075 1.448.06 2.138.285.089.03-.101.154-.147.225ZM8.84 8.178c.016.25.003.5-.048.746-.071.463-.357.674-.66.99-.133.144-.308.225-.469.327-.203.163-.467.188-.712.25-.165.07-.1.05-.268.034-.684.047-.68.113-1.321-.2-.225-.109-.44-.234-.573-.451-.231-.275-.291-.629-.32-.973-.016-.068.024-.1.075-.127.373-.19.592.565.81.769.257.265.599.404.94.524a.264.264 0 0 0 .125.002c.104-.015.209.027.314-.02.128-.055.264-.092.396-.138.75-.348.77-1.318.886-2.03.023-.348.128-.691.096-1.04-.015-.167.014-.34-.022-.507-.069-.255.006-.514-.074-.768-.001-.087-.141-.363.026-.343.222.008.413-.083.638-.07-.023.422-.08.832.038 1.243.088.321.088.666.151.994.023.265-.047.521-.027.788Z"/><path class="cls-2" d="M5.771 11.261c-.007.227-.032.445-.015.674-.248-.167-.344-.02-.594.015-.516.07-1.036.09-1.553.139-.055.005-.068-.014-.074-.068-.017-.147-.044-.293-.066-.44-.037-.192-.038-.394-.068-.586a1.236 1.236 0 0 1-.043-.417c.008-.114-.021-.228.023-.344.05-.297.048-.617.073-.919.075-.492.067-1.11.577-1.367.04.09.074.187.18.203.348.09.785.091 1.05-.186.268.139.42 1.157.385 1.455-.38-.055-.359-.354-.613-.572-.16-.151-.253-.325-.497-.21a.335.335 0 0 0-.265.411c.022.076-.03.144.004.222.019.056.005.124.01.186.058.823.831 1.071 1.494 1.296-.035.17-.003.34-.008.508Z"/><path class="cls-3" d="M5.226 5.05c-.093.169-.422.167-.542.017l.542-.017ZM5.236 4.82c-.03.099-.046.109-.142.117-.16.017-.288.045-.455.023.11-.196.408-.2.597-.14Z"/><path class="cls-4" d="M12.27 3.589c-.09-.045-.08-.157-.002-.177.054.037.005.117.002.177ZM11.533 3.784c.012-.08.05-.109.12-.092.08.055-.062.074-.12.092ZM11.146 3.645c-.065.073-.136.025-.203.014-.082-.104.163-.12.203-.014ZM10.486 2.57c-.001.07-.09.11-.143.046-.027-.038-.116-.078-.069-.13.075-.083.208-.019.212.083ZM10.7 3.186c-.073-.009-.112-.046-.138-.109-.033-.195.239-.119.23.035.002.08-.01.084-.091.074Z"/><path class="cls-1" d="M12.202 3.693c-.035.024-.13.006-.151-.03-.095-.082.063-.578-.062-.466a.144.144 0 0 0-.025.06c-.018.151-.1.27-.19.385-.009.011-.039.019-.05.012-.105-.054-.196-.023-.238.086-.001.003-.007.004-.021.013-.119-.144.098-.047.288-.341a.382.382 0 0 0 .103-.216c.022-.146.2-.092.301-.111.13-.012.108.166.146.25-.35.086.002.308-.101.358Z"/><path class="cls-1" d="M11.843 3.12c-.078.184-.175.405-.374.472a4.517 4.517 0 0 1-.233.047c-.01.002-.029-.01-.03-.02-.019-.12-.282-.136-.34-.044-.042-.241.236-.053.55-.205.41-.135.188-.28.427-.25Z"/><path class="cls-1" d="M11.579 3.12c-.04.175-.239.233-.398.235-.155 0-.31.036-.437-.08.126-.038.175-.191.069-.28-.046-.034-.09-.072-.136-.11.095-.085.354.262.49.255.141.034.278-.087.412-.02ZM10.445 2.235c.035.082.08.164.092.252-.092-.027-.195-.155-.272-.064-.027.038-.047.018-.057-.012-.088-.204.013-.408.058-.61.039-.425-.342-.206.204-.538.08-.02.161.097.215.146.207.234.816.006 1.038.376-.373.107-.764.024-1.136.148-.117.03-.172.229-.143.302Z"/><path class="cls-4" d="M7.372 2.542c.003.074-.035.123-.101.115-.215-.038.091-.406.101-.115ZM7.727 2.229a.314.314 0 0 1 .18-.07c.06.18-.084.212-.18.07ZM7.697 2.031c-.07.067-.107.077-.15.045.052-.087.085-.098.15-.045ZM8.403 1.827c-.065.085-.182.02-.1-.094.025.043.123.001.1.094Z"/><path class="cls-1" d="M8.775 2.275c-.08.044-.126.012-.18-.055-.059-.072-.557-.39-.455-.485.033-.037.073-.023.114.001-.088.157.135.211.219.086.161.052.284.21.369.36.043.06-.02.08-.067.093ZM8.269 2.092c-.247-.011-.474-.03-.682.116-.059.021-.092-.018-.097-.084.137.034.239-.038.227-.135.106-.077.235-.053.358-.057.094.003.124.094.194.16Z"/><path class="cls-1" d="M8.452 2.33c-.19.006-.377.052-.563.07-.093-.012-.342-.02-.206-.177.101.233.305.151.285-.092l.078.069.01-.05c.198-.01.416.085.396.18ZM7.714 3.144c.08.06.156.097.234.135.104.048.171-.04.262-.047-.024.232-.598.092-.524-.109-.227-.113-.006-.518-.25-.611.01.1-.02.175-.115.223-.02.092-.085.039-.141.037l.029-.037-.072-.115c-.034.322.095.687.374.867.088.061.19.104.25.204.204.231.089.728.214.692.096-.024.41.023.428-.084.043-.47-.243-.616.234-.999.07-.041.128-.097.141-.199-.363-.01-.696.05-1.064.043Zm.359.365-.013-.02c.151-.08.278-.16.363-.32.024.176-.182.319-.35.34ZM5.451 3.832c-.083.012-.172.048-.243-.023-.049-.053-.095-.032-.116.044-.039.163-.253.022-.132-.128-.016-.028-.053-.02-.08.005-.107.084.057.283.173.249.091-.032.067.091.071.143-.015.199.086.381.077.577-.218.027-.468.02-.624.201-.041.04-.089.086-.037.14.117.105.213.246.383.25.272-.035.178.03.29.245.18.332-.146.614-.383.807-.168.133-.059.37-.047.548.036.225.02.452.01.679 0 .126-.212.038-.294.061-.138.005-.087-.392-.086-.492-.03-.19-.03-.38-.004-.57.036-.327-.262-.497-.455-.705-.25-.286-.46-.672-.4-1.062.176-.006.286-.24.11-.335-.115.12-.002.142-.078.2-.249.07.086-.375-.094-.577-.103-.103-.259-.302-.11-.427.163-.108.364-.102.324.151-.05-.069-.071-.19-.18-.171-.06.006-.108.035-.125.093-.014.045-.023.096.032.132.032.045.063.099.112.133l.018-.014c-.018-.08-.153-.206-.055-.266.035-.018.088.018.1.057.015.074.063.157.147.142.156-.07.081-.274-.011-.368-.069-.092-.203-.035-.308-.06-.008-.048-.006-.114.043-.134.144-.038.213-.132.235-.276.025-.162.07-.321.11-.481.07-.113.351-.201.477-.272.19-.088.396-.029.594-.009.103.033.213.037.32.039.057-.001.08.02.083.073.008.266.036.53.086.79.024.171.042.342.124.498.028.066.014.098-.057.113Z"/><path class="cls-9" d="m9.726 3.175-.001.019c-.147.08-.31.023-.448-.047-.275-.171-.26-.574-.167-.845.039-.197.145-.227.333-.258-.086.237-.182.455-.113.704.04.254.1.43.396.427ZM12.86 3.158c-.18.083-.262.053-.405-.056-.201-.089-.278-.297-.363-.483-.082-.238.005-.587.038-.836.016-.084.094-.117.151-.165a.458.458 0 0 1 .451-.093c.373.147-.42.21-.376.578-.005.294.071.593.213.852.072.096.186.13.29.203Z"/><path class="cls-12" d="M6.174 3.058a.23.23 0 0 1-.075-.096c.076.074.154-.04.072-.09-.042-.026-.086.068-.098 0-.008-.062.051-.102.1-.067.06.07.07.186.001.253Z"/><path class="cls-9" d="M6.27 3.124c0 .042-.045.059-.081.067-.024.005-.055-.023-.091-.04l.172-.027ZM6.31 2.999c-.007 0-.013-.002-.019-.003-.034-.127 0-.311-.227-.278.03-.063.084-.075.141-.058.109.04.104.24.104.339Z"/><path class="cls-12" d="M6.499 2.878c-.018.158-.027.34-.205.398-.005-.005-.008-.01-.012-.016.191-.19.092-.415.037-.623.073.002.179.177.18.24Z"/><path class="cls-9" d="M16.863 1.74c-.046-.13-.064-.273-.123-.396-.054-.116-.148-.212-.224-.317-.157-.208-.447-.259-.694-.237 0-.005 0-.01-.002-.015-.374.066-.81.138-1.066.443-.307.383-.326.728-.33 1.199.013.234.016.496.149.696.211.28.545.436.894.421.212-.007.444-.016.625-.136.234-.144.463-.329.595-.576a.82.82 0 0 1 .08-.15c.144-.273.19-.637.096-.932ZM15.73 3.32a.07.07 0 0 1-.001-.01c-.354.075-.734-.087-.949-.373-.18-.222-.19-.515-.215-.789a.905.905 0 0 1 .21-.622c.161-.177.311-.445.59-.388.524-.04 1.031.1 1.204.653.175.606-.113 1.502-.84 1.528Z"/><path d="M7.054 2.993c-.336.042-.405.208-.465-.201-.008-.035-.005-.056.039-.063.137-.01.28-.077.416-.047l.01.31Z" style="fill:#a7b6c3"/><path d="M8.963 2.96c-.193.033-.41-.008-.607-.006-.143.012-.285.028-.428.042-.098.012-.223.045-.252-.085-.001-.076-.112-.374-.002-.378a6.3 6.3 0 0 1 .91-.154c.125-.014.23-.059.36-.057l.019.638Z" style="fill:#7b92a4"/><path class="cls-13" d="M12.13 3.005a8.168 8.168 0 0 0-.959.003c-.126.008-.218-.02-.293-.12-.056-.074-.203-.104-.29-.066-.138.063-.155.097-.128.247-.018.083-.127.023-.186.03a1.73 1.73 0 0 1-.582-.05c-.308-.108-.306-.499-.256-.762.01-.104.1-.194.204-.216.167-.028.326-.092.497-.09-.043.208-.001.642.224.721.086.018.17.002.22-.072.084-.126-.04-.278-.07-.408-.093-.306.37-.285.565-.306.282-.007.565-.002.848-.003.038 0 .052.007.039.05-.087.355-.008.727.166 1.042ZM14.207 2.854c-.196.056-.392.11-.592.153-.178.026-.363.012-.541.04-.245.03-.389-.18-.5-.357-.093-.184-.085-.626 0-.813.05-.097.154-.126.249-.153.381-.107.765-.206 1.153-.287a.337.337 0 0 1 .003.023c.642-.048.113.023.182.938-.014.087.142.449.046.456Z"/><path class="cls-5" d="M3.724 18.115c.014-.006.029-.019.042-.017.099.01.058-.112.095-.17l.021.006c-.053.216-.017.164.165.202l-.002.027c-.194.009-.203-.032-.187.18l-.029.003-.019-.104-.075.038c-.048-.073.047-.047.088-.091a.35.35 0 0 0-.1-.055v-.019ZM3.88 18.658a.113.113 0 0 1 .087.018c-.013.01-.024.027-.038.03-.114.014-.013.145-.078.202-.05-.053-.021-.126-.031-.198-.05 0-.088.014-.125-.02.044-.058.139.01.135-.09 0-.018.013-.035.02-.053a.153.153 0 0 1 .03.11ZM4.095 13.178c-.204.038-.218-.055-.213.183l-.022.001c-.035-.178.03-.148-.158-.158v-.02c.112-.017.133-.038.147-.16.009.025.022.043.022.062.005.116.163.023.225.07l-.001.022ZM3.815 19.375c-.008-.043.006-.064.023-.099.011.024.032.059.028.084l.086.034-.085.047c0 .036.016.107-.021.145-.04-.045-.025-.1-.03-.158a.297.297 0 0 1-.136-.022.24.24 0 0 1 .135-.03ZM4.254 12.846c-.049.029-.179.01-.124.097.007.011.004.027-.003.049-.034-.069-.06-.147-.157-.121.116-.055.121-.072.048-.178h-.02l.054-.046.07.18.129-.005.003.024ZM3.905 20.124c-.002.025 0 .045-.008.06-.013.022-.055.017-.054-.012.037-.095-.041-.058-.08-.114l.108-.03c-.005-.021.008-.047.024-.064.048.04.007.109.08.13.006.002.007.024.01.037a.086.086 0 0 1-.08-.007ZM5.1 14.41c-.19.037-.147.032-.145.21l-.022.003c-.034-.085.039-.18-.085-.23.126-.039.057-.132.093-.2.028.157-.04.206.156.2l.004.018ZM3.874 23.692c.004-.002.019-.01.034-.02l.004-.107.022-.004c.05.057-.013.155.102.158-.011.006-.022.016-.034.018-.083.013.006.089-.044.152-.046-.06-.054-.12-.084-.197ZM3.577 17.8l.013-.121.02-.002c0 .087.018.125.104.148-.076.045-.091.088-.074.171L3.62 18c-.004-.005-.013-.011-.013-.016.003-.07-.007-.13-.098-.13-.055-.035.038-.05.068-.053ZM3.963 19.156c-.025-.009-.066-.021-.092-.04.006-.01.012-.028.019-.028.085-.01.031-.094.076-.142.008.018.025.037.024.055-.01.096.075.061.128.1-.046.036-.094.039-.155.055ZM3.505 12.755c.064-.023.074-.017.068.047-.006.082.19.01.22.081-.108 0-.131.01-.135.117h-.02c-.002-.019-.008-.038-.006-.055.024-.12-.137-.035-.104-.13.005-.015-.013-.037-.023-.06ZM4.129 18.712l.066.037-.072.043c0 .027.011.081-.019.108-.038-.025-.03-.073-.03-.108l-.076-.038.06-.036.039-.078c.01.025.022.05.032.072ZM5.249 14.354c-.004-.007-.012-.014-.011-.02.012-.111-.113-.06-.176-.102l.005-.023c.079.004.179.04.19-.066l.109.087c-.103-.01-.104.06-.097.136l-.02-.012ZM3.443 23.176l.068.008c-.076.05-.088.08-.085.169-.076-.043.001-.149-.118-.158.123-.045.056-.084.104-.14.045.027.025.072.03.12ZM4.56 12.703c.027.108.044.1.148.126-.106.065-.11-.01-.118.145a.87.87 0 0 1-.016 0c-.002-.11-.025-.115-.127-.113l-.006-.016.11-.04-.003-.102h.013ZM3.73 13.736c-.018-.103-.035-.12-.142-.11l-.002-.02c.058-.007.106-.032.119-.089.002.114.124.023.177.095-.058.029-.167-.018-.133.08.004.013-.003.03-.004.044h-.016ZM3.638 19.08c-.024.006-.062 0-.082-.024a.111.111 0 0 1 .082-.03l.038-.071c.023.045.05.076.102.097l-.062.034c-.01.026-.02.052-.032.078l-.046-.085ZM4.127 15.246q-.02-.087-.088-.195c.094.018.075-.07.114-.114-.002.066-.015.135.097.129-.114.02-.102.11-.123.18ZM3.603 21.264c.054.047.002.13.09.14l-.038.024-.035.098-.044-.09-.06-.032.066-.037.021-.103ZM5.28 13.765c.055.035-.004.174.133.118-.087.042-.122.098-.075.19l-.026-.001c-.006-.018-.019-.036-.018-.053.014-.097-.086-.06-.118-.127.122.01.11-.016.104-.127ZM5.109 12.984l.019.106.072.006c-.078.04-.095.11-.083.193l-.023-.006c.012-.095-.006-.123-.1-.164.077-.015.122-.053.084-.142l.03.007ZM3.753 23.155a4.39 4.39 0 0 1-.026.02l-.005.092-.133-.125.079-.013c-.005-.038-.006-.076.022-.108.03.045.04.079.063.134ZM5.141 13.728c-.01-.136-.092-.054-.094-.159.111.042.063-.05.086-.078.026.104.043.095.141.084-.045.047-.145.047-.096.167l-.037-.014ZM5.094 19.179l-.021-.05L5 19.087l.067-.038.027-.05.045.059c.02-.002.05.017.07.025-.053.02-.071.05-.115.097ZM4.216 23.742c-.076.005.023.091-.05.121-.03-.078-.057-.22-.007-.291.04.048.03.11.057.17ZM3.876 13.85A.511.511 0 0 0 4 13.717l.02.064.09.005c-.068.044-.145.07-.073.169L4 13.949l-.03-.084-.094-.015ZM4.034 14.116c.106-.035.12-.056.11-.16l.024.001-.004.131.104.022-.094.04-.017.075h-.018l-.013-.076-.092-.033ZM3.51 23.445a.297.297 0 0 1 .04-.093c.017.025.031.049.03.08l.092.017c-.016.012-.023.021-.03.022-.084.002-.044.069-.086.116-.034-.045-.032-.078-.046-.142ZM3.518 23.726l-.06.019-.03.102-.026-.002a.338.338 0 0 1 .007-.233c.042.01.039.04.037.076l.073.025-.001.013ZM3.774 18.485l-.134.061c-.024-.039-.102-.062-.01-.096.024-.041.029-.115.045-.164l.025.005c-.004.02-.01.04-.011.06-.014.118-.042.105.085.134ZM4.429 14.859c-.07.002-.112.027-.108.1-.017-.062-.03-.116-.107-.121l.006-.016.067-.027.017-.1q.042.112.125.164ZM4.197 13.336l.014.085.05.006c-.079.036-.052.115-.081.173-.004-.105-.017-.132-.124-.147l.004-.02c.089.013.11-.007.137-.097ZM3.875 14.359l.08-.03.01-.094a.3.3 0 0 1 .01-.001l.053.138-.042.117-.01.002c-.001-.08-.02-.103-.098-.117l-.003-.015ZM4.122 14.455c-.005.095.008.125.103.155-.04.027-.122.026-.101.122-.004-.072-.037-.11-.105-.121q.072-.047.103-.156ZM5.06 20.31l-.086-.019c.031-.052.086-.021.086-.085 0-.01.014-.018.021-.027.033.026.04.06.058.1-.01.02-.019.082-.047.096-.032-.007-.031-.037-.032-.065ZM4.947 12.918c.015-.092-.065-.088-.116-.12.09-.004.106-.025.115-.12l.06.133-.06.107ZM4.273 15.543c-.059-.097-.06-.172.016-.264-.005.07.023.11.102.118-.095.032-.116.05-.109.144l-.01.002ZM5.274 12.938c-.025-.06-.066-.084-.13-.082v-.018c.054-.004.091-.024.112-.076l.081.07-.063.106ZM4.435 13.142c-.072.015-.074.069-.08.129.001-.074-.03-.117-.108-.123l.009-.016.065-.026.016-.113.014.002.01.117.071.014.003.016ZM3.212 21.992c.145.017.084-.09.113-.15.011.158-.034.139.125.176l-.122.045-.111-.054-.005-.016ZM5.316 17.726c-.086.02-.049.076-.054.124l-.087-.155.067-.1c.033.037-.021.12.074.13ZM5.18 14.726l-.1-.119.078-.076c.018.068.05.075.127.072-.048.042-.153.022-.105.123ZM3.968 15.528l-.112-.099.119-.071.008.052.078.022c-.044.028-.108.018-.093.096ZM3.863 16.636l.022-.084c.022.042.004.107.09.096-.081.044-.078.074-.09.155-.022-.045.005-.114-.066-.12-.044-.029.013-.052.044-.047ZM3.667 19.712a.256.256 0 0 1 .044-.106c.043.061.061.176-.009.224-.017-.04-.023-.07-.035-.118ZM5.143 19.67c-.05.13-.067.132-.129.005.05-.098.072-.106.129-.005ZM5.332 13.435l.021-.1q.04.104.117.131c-.067.01-.103.026-.11.099l-.074-.113c.012-.005.03-.01.046-.017ZM4.072 15.8l-.007-.066c-.04 0-.054-.01-.054-.053.08-.003.042-.065.051-.102.004-.015.001-.032.002-.06.039.066-.013.168.104.182-.058.013-.088.044-.096.098ZM4.78 13.206l-.059-.132.084-.085.006.078.06.004c-.042.04-.102.064-.091.135ZM4.905 13.456l-.003-.1.008-.004.035.097.059.006c-.063.025-.072.078-.076.133-.014-.064-.042-.101-.111-.107l.006-.022.082-.003ZM3.978 14.794c-.01.067.05.056.102.06l-.118.074c-.147-.04-.06-.069.016-.134ZM3.594 19.38c-.015.031-.03.063-.051.09-.03-.03-.043-.073-.06-.111.014-.025.035-.06.053-.086.027.03.042.073.057.108ZM3.63 18.87c-.008.032-.016.071-.044.096-.029-.033-.038-.066-.058-.11.01-.02.032-.067.057-.087.028.029.032.06.044.1ZM5.63 13.618l-.063.098-.079-.106.079-.053.062.06ZM3.52 18.1l.1.063c-.015.037-.118-.01-.07.099-.044-.018-.064-.064-.098-.1l.102-.046-.034-.016ZM5.513 14.424l-.106.09-.054-.066.053-.114c.001.085.057.087.107.09ZM5.154 15.371l.01.068.047.013-.067.109c.002-.046-.034-.073-.1-.078.049-.028.103-.046.092-.12l.018.008ZM5.31 15.338c-.102-.07-.119-.088-.006-.162l.05.075-.043.087ZM4.163 17.858a73.374 73.374 0 0 1-.097-.092l.073-.027.028-.065.042.101a62.33 62.33 0 0 0-.046.083ZM5.439 13.194l-.064-.082.06-.125c.02.047-.006.122.072.126l-.068.08ZM5.04 16.296c-.043-.03-.01-.1-.078-.106 0 0-.002-.021 0-.022.061-.022.051-.083.07-.131.013.048-.05.13.074.125-.063.029-.086.07-.065.134ZM4.023 18.362c.032.052-.04.126.055.14-.038.052-.088.039-.133.036-.003 0-.004-.027-.006-.042.066-.004.049-.087.084-.134ZM5.1 15.003l.073.091-.054.105a.202.202 0 0 0-.081-.088l.058-.044.005-.064ZM5.277 14.952l-.096-.06c.058-.06.128-.036.198-.03l-.102.09ZM5.324 17.29l-.07-.099.057-.113.052.138-.04.074ZM3.876 17.207l-.105-.078.101-.053.054.062-.05.069ZM5.014 18.151l-.007-.204.021-.008c.02.05.028.113.109.107-.056.025-.11.037-.096.111l-.027-.006ZM5.145 17.338c-.011.083.043.094.105.1l-.098.058-.066-.05.059-.108ZM4.443 15.155l-.005.061-.07-.09.058-.083.088.1-.07.012ZM4.152 18.127l.003.087-.01.004-.064-.142.053-.047.076.08-.058.018ZM4.068 17.152l.082-.117c.035.019-.036.12.046.093l-.089.061.042.023-.081-.06ZM4.026 15.893l-.081.096-.06-.066.098-.056c-.015-.008-.025.05.043.026ZM5.277 16.848l-.113.082-.054-.068.061-.094.013.076c.025 0 .052.002.093.004ZM5.04 17.103c-.006.08.06.071.12.09-.084.014-.133.042-.113.124-.015-.037-.024-.077-.045-.11-.033-.053.047-.059.038-.104ZM4.235 14.383l.043-.104.066.082a28.3 28.3 0 0 1-.076.064l.019.024-.052-.065ZM5.314 16.7l-.073-.08.05-.096.062.107-.039.069ZM4.984 14.814l.109.049c-.061.018-.092.053-.072.129l-.076-.13.04-.048ZM3.944 23.1c-.017.08.032.09.095.09-.1.07-.102.07-.19.018.048-.026.075-.049.077-.104l.018-.003ZM3.656 23.603l.1.042c-.03.025-.064.05-.098.076q-.066-.086-.002-.118ZM3.838 17.447l.054.045-.07.09-.077-.092.093-.043ZM5.494 15.446l-.067.095-.076-.064.077-.068.066.037ZM4.027 16.796l.039.047-.049.14-.054-.092.102-.064-.038-.03ZM3.733 17.333l-.08.058a64.4 64.4 0 0 1-.07-.038l.09-.092.06.072ZM4.228 15.789c.002.05-.017.104.05.112l-.041.095c-.085-.1-.07-.096-.01-.207ZM5.461 14.72l-.05-.076.047-.07.08.066-.077.08ZM4.502 14.601l-.052.081-.064-.069.067-.097c.013.023.03.053.05.085ZM4.927 23.957l-.07-.058c.021-.03.042-.057.063-.084.007.076.01.077.116.084l-.109.058ZM5.012 17.642l.11.068-.11.077c-.006-.049-.041-.101 0-.144ZM3.644 16.865c.03-.03.056-.029.112.013l-.08.057.044.01-.076-.08ZM5.497 14.062l.038.051-.033.173c-.03-.054.015-.132-.07-.145l.065-.079ZM3.986 16.337l.07.038-.075.098c-.005-.032-.016-.07-.07-.065-.043-.035.05-.055.075-.07ZM5.43 16.73l.032.113-.046.082c-.06-.078-.04-.12.014-.195ZM5.498 15.052l-.056.08-.076-.074.064-.064.068.058ZM3.804 16.277c.012-.075-.078-.03-.102-.074l.1-.04.07.033-.068.081ZM3.821 21.97l.072-.053.054.053-.05.08-.076-.08ZM4.891 13.845c-.125-.102-.01-.14.087-.08l-.087.08ZM4.328 16.828l-.035.087c-.02-.026-.04-.056-.063-.088l.05-.086.048.087ZM4.342 13.751l.104.043c-.078.018-.076.044-.08.127-.028-.05-.002-.13-.085-.12l.061-.05ZM5.06 22.507c-.036.03-.09.021-.146-.015l.093-.065-.016.01.068.07ZM4.088 17.592c-.051-.072-.063-.123.016-.17l.045.088-.047.016-.014.066ZM3.835 23.376l.035.061c-.1.09-.22.013-.035-.06ZM5.044 14.047c-.03-.025-.075-.04-.09-.073.108-.089.14-.046.09.073ZM5.174 15.687l.065-.032-.002-.068c.022.038.007.098.078.098l-.056.073.024-.024-.11-.047ZM3.424 21.096l-.11-.044.005-.026.207.02-.102.05ZM5.15 18.43l.068-.045.063.065-.035.044-.096-.064ZM4.372 14.112l.029-.063.057.07.022-.018-.053.084-.056-.073ZM4.205 23.135l-.024.117-.07-.106.05-.061.044.05ZM5.287 16.189l-.092-.048.003-.015.067-.014.006-.059.062.098a8.93 8.93 0 0 0-.046.038ZM4.203 22.751l.005.17c-.122-.06-.094-.08-.005-.17ZM4.145 16.723l-.048-.108.05-.043-.011.016.069.044c-.022.033-.04.062-.06.09ZM5.46 12.813l.055-.044.069.03-.05.098-.075-.085ZM3.452 22.253l.084-.069c-.01.046.02.066.074.067l-.077.055-.081-.053ZM4.998 23.04c-.032.005-.071.064-.104.01-.014-.022.015-.07.025-.108l.079.099ZM3.56 13.467l-.094-.03.081-.047.108.05-.094.027ZM4.961 15.264l.058.043-.044.076-.086-.067.072-.052ZM5.372 15.893l.049-.084.056.089-.042.042-.063-.046ZM3.967 17.674l-.033.092c-.045-.055-.12-.103-.005-.14l.038.048ZM4.063 22.305l-.032.037-.085-.037.062-.095.054.095ZM4.934 23.427l.076.067c-.062.04-.097.036-.139-.018l.063-.049ZM5.073 16.538l.037.092-.04.087-.045-.106.048-.073ZM5.236 17.953l.06.087-.074.029c-.048-.014-.033-.065.014-.116ZM3.547 13.267l-.079-.087c.027-.037.047-.039.117-.005l-.038.092ZM3.95 22.596l.034-.065.086.064-.052.058-.068-.057ZM4.96 23.269l.069-.068.056.074-.034.05-.09-.056ZM3.582 22.778c-.024.078.05.033.073.055-.061.066-.08.067-.148.006l.075-.06ZM4.467 12.718c-.067.05-.144.04-.195-.028l.195.028ZM4.299 15.713l.053-.073.057.067-.035.069-.075-.063ZM3.84 15.79a77.581 77.581 0 0 1-.077-.057l.063-.064.057.056-.043.064ZM3.951 22.85c-.073.036-.125.038-.184.007.058-.04.114-.041.184-.006ZM4.72 12.58l.07.073-.05.046-.103-.037c.024-.032.108.018.084-.083ZM4.027 13.362l-.089-.034c.058-.04.107-.065.169-.019l-.08.053ZM3.792 22.302l-.073-.05c.045-.024.094-.04.073-.105.04.034-.023.108.069.106l-.07.05ZM3.99 15.14l-.113.08-.01-.104.123.024ZM4.79 23.594c.013.047.02.096.088.086-.035.022-.048.067-.1.04-.062-.03.003-.075.012-.126ZM5.354 17.505c0-.052-.048-.104.003-.15l.073.077-.076.073ZM4.002 17.38l-.058-.059.038-.05.09.046-.082.046.012.018ZM3.602 21.867l.059.082-.043.04c-.084-.02-.06-.076-.016-.122ZM5.135 16.438c-.004-.024-.069-.062-.007-.1l.116.042-.11.058ZM4.785 22.8l.064-.044.071.046c-.08.053-.092.053-.135-.002ZM3.672 13.04l.069-.057.063.054c-.05.05-.069.051-.132.003ZM4.91 15.692l.054-.05.083.05-.07.052c-.02-.014-.04-.03-.067-.052ZM5.117 23.69l-.047.044-.07-.036.056-.074.061.066ZM3.814 22.571a.167.167 0 0 0-.067.044c-.067-.03-.039-.083-.033-.118l.1.074ZM5.613 13.909l-.046.076q-.054-.063-.026-.127l.072.05ZM3.58 12.98c-.053.052-.09.057-.149.023.042-.052.093-.045.149-.023ZM5.186 15.892l-.042.073-.073-.069.076-.054.039.05ZM3.524 20.757l.095-.049.053.046c-.063.038-.072.039-.148.003ZM5.408 16.453c-.06-.05-.036-.097-.001-.15l.042.09-.041.06ZM5.18 17.887l-.055.072c-.003-.036-.08-.04-.044-.09.035-.047.066.009.099.019ZM3.44 19.125c-.06.024-.123.071-.182-.013l.181.013ZM3.963 13.552l-.097-.038c.05-.043.09-.06.136-.006l-.04.044ZM4.265 16.467l-.076-.046.082-.06.037.048-.043.058ZM5.057 22.785l-.024.086-.07-.084.055-.042.04.04ZM4.931 21.833l.056.086c-.05.034-.063.032-.1-.024l.044-.062ZM3.842 21.354l.079.054-.08.04q-.05-.033.001-.094ZM4.117 16.208l-.088-.045c.054-.046.104-.02.161-.003l-.073.048ZM5.141 12.694l-.088-.042.084-.053q.032.036.004.095ZM3.833 23.904c-.037.037-.068.001-.105-.017l.055-.083.05.1ZM4.947 22.232c-.079.066-.106-.008-.076-.092l.076.092ZM3.736 13.908l-.087.048-.024-.078.111.008v.022ZM3.308 21.467l-.154.02-.003-.024c.042-.056.101-.022.154-.022 0 .009.002.017.003.026ZM3.543 23.833l.093.052c-.06.04-.087.033-.133-.017l.04-.035ZM4.397 16.192l-.047.07-.075-.064.07-.04.052.034ZM3.48 19.717c-.058.046-.113.05-.176.005l.177-.005Z"/><path class="cls-5" d="m3.947 12.988.073.058c-.025.024-.045.051-.086.024-.055-.037.022-.054.013-.081ZM3.894 14.117l-.057.069-.075-.048.002-.017.13-.004ZM4.795 23.236l.097.052c-.044.023-.082.061-.129-.007l.032-.045ZM3.22 22.317l.113.052.004.011-.124.004.006-.067ZM5.024 16.938l-.069-.074.055-.03.061.045a36.68 36.68 0 0 0-.047.059ZM3.39 22.869c-.04.023-.132.074-.14.004.045-.044.088-.026.14-.004ZM4.144 21.934l-.047.069c-.049-.032-.076-.066-.003-.107l.05.038ZM4.908 21.201l.078-.053.056.046-.044.042c-.029-.01-.056-.022-.09-.035ZM3.782 20.417l.037.032-.03.043-.121-.045.114-.03ZM4.534 13.18l-.056-.045.046-.054.074.054-.064.046ZM4.04 21.596c.007.028.049.056.002.093l-.096-.017.093-.076ZM3.524 21.662c-.05.013-.1.06-.154.002.052-.078.105.016.154-.002ZM3.83 16.417l-.06.092-.075-.077.135-.015ZM5.03 17.6c-.028-.047-.06-.095.002-.16l.022.157-.023.003ZM4.19 17.327a.181.181 0 0 0 .057-.058l.05.04a.183.183 0 0 0-.046.08l-.06-.062ZM5.066 18.402 5 18.465l-.053-.042q.025-.055.119-.021ZM5.045 20.897l-.067-.049c.042-.042.042-.042.117-.003a.654.654 0 0 0-.05.052ZM4.037 23.4l.095.048.002.015-.11.011.013-.075ZM3.879 20.718l.076.061-.058.036-.055-.035.037-.062ZM5.43 16.218l.004-.124.087.061-.09.063ZM3.553 22.562c-.068.043-.127.05-.186-.01l.186.01ZM3.691 21.053l.053-.077.046.087-.095.014a1.962 1.962 0 0 0-.004-.024ZM3.47 20.417c-.047.045-.093.061-.14.015l.002-.02.137.005ZM3.18 20.179c.046-.073.09.026.134-.002-.043.011-.083.064-.134.002ZM5.027 16.452l-.071.05-.058-.056c.05-.06.082-.003.13.006ZM3.844 12.765c.043-.046.08-.036.112-.006l-.07.029.03.028-.072-.05ZM5.54 13.24l.069.086-.075.011-.012-.095.018-.001ZM5.063 23.872l.036-.045.075.031c-.036.034-.064.078-.111.014ZM3.475 20.09l.143-.012c-.044.064-.093.047-.142.029v-.017ZM5.005 21.804l.036-.052.047.063-.023.059-.06-.07ZM5.058 21.564c-.031.036-.072.03-.109-.019l.067-.033.042.052ZM5.342 13.262l-.135.023.044-.074.09.038.001.013ZM4.822 22.405l.057.04-.036.053-.07-.05.05-.043ZM5.199 18.245l-.053.078-.062-.062.004-.018.11.002ZM3.182 20.773c.05-.055.086.006.135.001l-.081.043a19.193 19.193 0 0 0-.054-.044ZM4.245 18.406l-.058.065-.057-.06.002-.019.113.014ZM3.727 17.933l.061.052-.05.041a31.299 31.299 0 0 1-.05-.068l.039-.025ZM4.349 15.295l.13-.01-.044.061-.083-.032-.003-.019ZM4.045 21.097l-.106.013-.003-.016.065-.048.044.051ZM3.426 18.452l-.014-.063.097.012-.002.018-.08.033ZM5.072 19.948l.022.082-.078-.055.056-.027ZM4.186 12.93l.078.036.006.017-.07.026-.014-.079ZM4.08 23.856l.048.036-.023.07c-.025-.036-.08-.055-.025-.106ZM3.241 19.45c.034-.083.073-.022.11-.028l.001.018-.11.01ZM4.952 22.08l.087-.032.002.074-.086-.028-.003-.014ZM5.057 20.622l-.092-.005.032-.076.058.059.002.022ZM3.997 17.918l.036.04-.035.043-.06-.037.059-.046ZM4.947 13.226l-.038.034-.064-.033c.045-.043.048-.044.102-.002ZM3.186 21.722c.039.002.081-.02.076.04l-.077-.007v-.033ZM4.09 15.26l-.082.027c-.014-.066.035-.043.078-.051l.003.025ZM4.94 18.87l.109.015c-.056.064-.083.023-.114.007l.005-.023ZM3.812 21.715a95.167 95.167 0 0 0-.104-.004c.032-.057.052-.058.104.004ZM4.411 15.517l.04.056-.059.043-.003-.099h.022ZM3.922 18.218l.108.013c-.05.06-.07.06-.108-.013ZM4.308 16.006l.069-.054.034.046c-.03.06-.06 0-.103.008ZM3.93 19.686l.1.012-.057.047-.047-.037.005-.021ZM5.04 18.6l.113.004-.001.022c-.04.036-.076 0-.113-.008l.001-.018Z"/><path class="cls-10" d="M1.313 3.335c.16-.28.295-.49.479-.741l.051.024c-.074.154-.16.289-.26.422-.138.309-.306.604-.418.924-.077.19-.086.39-.084.593.004.18-.042.36-.042.54.002.21.035.416.041.624-.006.036-.06.034-.07.004A7.449 7.449 0 0 1 .98 4.588c.01-.236.017-.477.085-.703.039-.112.112-.213.14-.326.023-.094.108-.157.107-.224Z"/><path class="cls-10" d="M.738 4.276c-.042.413-.01.819-.062 1.23.02.215.03.445.14.64.11.168.19.354.34.493.158.174.249.373.402.556-.02.052-.031.054-.093.008.004.059.069.169-.007.203-.025-.001-.066-.017-.07-.033a.642.642 0 0 1-.005-.168c.11-.07-.016-.11-.028-.158-.017-.064-.093-.112-.116-.176-.042-.118-.144-.18-.216-.27a3.603 3.603 0 0 1-.318-.483c-.001.002.012-.019.009-.02-.062-.054-.048-.132-.063-.199a1.523 1.523 0 0 1-.022-.63c.012-.146-.06-1 .109-.993ZM.905 3.756c-.066-.203.044-.366.099-.549.09-.264.197-.522.36-.75.158-.204.412-.305.594-.488.104-.065.265-.295.372-.286.007.103-.155.159-.218.231-.159.143-.317.29-.495.41a.548.548 0 0 0-.217.209c-.06.118-.15.219-.182.352-.051.12-.145.235-.141.374-.125.124-.07.362-.172.497ZM2.302 8.647l-.048.006.017-.03-.186-.23c-.11-.147-.232-.271-.337-.424a1.667 1.667 0 0 1-.225-.308c-.007-.014.012-.04.022-.066.17.151.271.374.421.548.132.157.277.305.404.467.099.082.22.145.308.238.127.153.342.208.454.364-.106.05-.248-.131-.344-.183a77.3 77.3 0 0 0-.486-.382ZM6.465.481c.245-.048.5-.023.748-.055.34-.008.669.094 1.006.12.207.028.419.016.624.069.196.061.402.076.6.118l-.007.024C9.075.744 8.733.602 8.37.6c-.124.005-.25-.018-.373-.036C7.493.442 6.977.474 6.465.507V.48ZM2.348 8.235c-.018.031-.022.052-.057.028-.056-.02-.07-.071-.097-.116-.063-.094-.156-.17-.22-.263-.03-.07-.303-.35-.18-.383.167.257.355.502.554.735ZM.939 6.836c.12-.053.097.039.119.109.038.136.142.238.174.382.027.086.083.154.072.249-.122-.083-.142-.223-.198-.345-.052-.142-.154-.237-.167-.395ZM.511 5.952c.022.032.057.062.064.097.01.112.06.236.017.344C.51 6.362.476 6.34.483 6.25A.95.95 0 0 1 .48 5.96l.032-.008ZM1.712 8.17l-.033.027c-.06-.034-.064-.115-.14-.128-.003 0-.005-.01-.008-.015-.035-.113-.167-.154-.176-.276.003-.036.055-.051.077-.017.092.132.183.266.28.41Z"/><path class="cls-10" d="m1 6.058.065-.06.118.312c-.039.001-.064.022-.08-.03-.024-.075-.066-.144-.104-.222ZM6.08.571c-.154.024-.315.088-.468.079.094-.13.323-.06.466-.096l.002.017ZM2.888 1.339c.084-.032.164-.094.258-.08-.03.061-.187.133-.253.108l-.005-.028ZM8.97.485c.036-.041.071-.041.128-.011v.018L8.97.485ZM4.678 8.518c-.234.002-.494.063-.553.325-.049.11-.08.23-.136.337-.04.08-.001.162-.005.243.013.298.142.599.362.8.03.03.033.053-.004.097-.288-.225-.484-.577-.473-.946-.024-.275-.037-.509.185-.713a.729.729 0 0 1 .552-.218c.034.001.086 0 .073.076Z"/><path class="cls-10" d="M4.034 8.27c-.05.19-.231.306-.27.505-.05.166-.036.334-.012.503.03.26.054.52.074.781.005.101-.002.203-.001.305.007.054.024.103-.018.148-.082-.052-.034-.292-.05-.391.013-.218-.037-.438-.047-.657-.033-.295-.082-.583.065-.857.05-.108.11-.381.254-.362l.005.024ZM3.626 9.997a8.775 8.775 0 0 0-.017.697c.022.244-.031.507.08.733.005.009-.017.036-.027.055-.16-.105-.088-.573-.128-.766-.024-.109-.01-.216.002-.325.032-.123-.04-.324.09-.394ZM4.295 11.842c-.034-.076-.03-.158-.03-.24-.004-.229-.007-.458-.008-.687 0-.022.02-.043.03-.065.07.135-.007.395.011.56-.004.143.037.286.026.43l-.029.002ZM3.982 11.395l-.025-.784c.059.025.064.077.066.124.001.22.034.44.006.658l-.047.002ZM5.265 8.994l-.296-.387c.063-.094.258.244.307.292.016.022.004.064.005.097l-.016-.002ZM3.85 11.193c.006.07.002.14.022.202.02.066-.013.144.048.2.008.023-.03.072-.063.053-.01-.006-.02-.028-.018-.041a.413.413 0 0 0-.032-.231c-.01-.065-.057-.17.042-.183ZM5.629 10.994c.015.11.058.221.056.332-.014.037-.057.039-.072.001-.01-.133-.017-.269-.025-.403 0-.012.014-.026.02-.039.036.028.03.067.03.107l-.009.002ZM4.954 10.678c.108-.002.218-.021.306.072-.077.066-.286.015-.306-.072ZM5.24 8.283c.064.137.16.26.202.408-.034-.013-.274-.335-.223-.408h.021ZM4.782 11.169c.075.062.067.168.09.256.003.013-.013.03-.02.045-.059-.082-.069-.192-.086-.29l.016-.011ZM5.37 11.213c.004-.055-.008-.113.048-.146a.154.154 0 0 1-.004.211l-.057-.051.012-.014ZM3.69 12.034c-.05-.084-.02-.266.054-.322-.03.123-.006.207-.054.322ZM4.001 10.288c-.081-.03-.132-.122-.063-.18.052.043.043.12.063.18ZM5.197 11.672c-.07-.002-.072-.105-.007-.247l.007.247ZM4.872 8.264l.121.175c-.08-.004-.142-.087-.138-.162l.017-.013ZM3.616 9.61c-.088-.101-.09-.117-.03-.201.034.065.017.131.03.2ZM4.718 10.755c-.023.054-.018.199-.082.153-.003-.076-.005-.129.082-.153ZM4.8 8.474l.084.055c-.048.074-.102.04-.1-.033l.015-.022ZM4.449 10.418l-.079-.092c.063-.05.17.057.079.092ZM4.12 8.39c-.006-.061.028-.097.088-.093-.008.065-.037.095-.088.092ZM4.516 11.18c-.072-.058-.07-.08-.004-.138l.004.138ZM4.575 11.722l.046-.164c.036.051.012.144-.046.164ZM4.883 11.73l.019.105c-.066-.014-.07-.03-.019-.106ZM4.63 3.468c-.253.01-.53-.013-.663-.265-.247-.3.29-.526.54-.532.184-.008.35.107.487.218.133.116.07.353-.054.457a.623.623 0 0 1-.31.122Zm-.614-.5c.478-.185.427-.125.92-.035-.225-.285-.703-.253-.92.035Zm.472-.048-.003.019c-.238-.027-.169.333.11.263.11-.025.11-.072.093-.187-.031-.068-.138-.062-.2-.095Zm-.47.225c.081.264.81.353.909.077-.32.184-.619.135-.908-.077Zm.267-.18c-.074.036-.171.043-.22.1.046.089.174.124.264.156-.076-.078-.054-.165-.044-.256Zm.5.216c.044-.045.166-.077.13-.138-.047-.022-.09-.061-.145-.037l.016.175ZM4.766 8.944c.191.271.191.691.53.854.523.322 1.135.595 1.757.422.206-.037.39-.135.57-.23.151-.079.277-.193.378-.333.012-.017.037-.024.056-.035l.019.017c-.28.42-.799.613-1.28.684-.467.05-.927-.125-1.322-.361-.21-.117-.44-.225-.523-.472-.061-.18-.157-.348-.206-.53l.021-.016ZM8.221 5.52c.05.438.202.865.27 1.303.058.546-.08 1.083-.258 1.596-.075.218-.12.448-.212.66l-.017-.004c.17-.748.578-1.491.44-2.281-.069-.427-.231-.834-.247-1.27.008 0 .016-.003.025-.004Z"/><path class="cls-10" d="M5.838 10.354c-.303-.058-.53-.29-.786-.444-.1-.06-.163-.162-.222-.264-.051-.09-.134-.152-.145-.262l.048-.004c.101.146.184.289.288.429.175.136.35.281.548.388.085.066.197.073.281.135l-.011.022ZM8.596 7.555c.045.556-.05 1.14-.348 1.615-.036.046-.055.2-.132.13.381-.544.468-1.102.464-1.747l.016.002ZM8.278 7.729c-.067-.014-.06-.058-.055-.093.027-.21.064-.422.038-.634-.004-.103-.03-.259.047-.332l-.03 1.059ZM8.447 5.611l.076.62-.011.01c-.053 0-.095-.592-.065-.63ZM5.139 9.433c.074-.018.061.062.096.087.037.028.058.077.086.117-.06.022-.153-.082-.182-.204ZM7.327 9.96c.02-.052.13-.103.205-.098a.295.295 0 0 1-.205.098ZM16.569 1.791c-.173-.554-.68-.693-1.203-.653-.28-.057-.43.21-.59.388a.905.905 0 0 0-.21.622c.024.274.033.567.214.79.215.285.595.447.949.371v.01c.727-.026 1.015-.922.84-1.528Zm-.322 1.13c-.063.097-.127.21-.243.25a.734.734 0 0 1-1.097-.547c-.056-.444-.035-.946.273-1.295.596-.35 1.341.053 1.333.754.004 0 .008.002.011.003-.03.303-.077.591-.277.834Z"/><path class="cls-10" d="m15.87 2.276.01.01c-.06.11-.17.17-.28.13.07-.01.15-.03.22-.06.02-.02.03-.06.05-.08ZM15.27 2.175c-.11-.13.09-.32.21-.24-.15 0-.24.08-.21.24Z"/><path class="cls-13" d="M15.6 2.416c.11.04.22-.02.28-.13l-.01-.01c-.02.02-.03.06-.05.08-.07.03-.15.05-.22.06Zm.15-.53c.06.05.11.09.17.13-.05-.06-.08-.14-.17-.13Zm.76.2h.01c-.03.3-.07.59-.27.83-.07.1-.13.21-.25.25a.725.725 0 0 1-1.09-.54c-.06-.45-.04-.95.27-1.3.6-.35 1.34.06 1.33.76Zm-.66.08c0-.17-.17-.27-.24-.11-.05.12-.14-.16-.27.01-.04.06 0 .11.03.16.1.18.44.13.48-.06Zm-.37-.23c-.12-.08-.32.11-.21.24-.03-.16.06-.24.21-.24Z"/><path class="cls-10" d="M15.92 2.015c-.06-.04-.11-.08-.17-.13.09-.01.12.07.17.13ZM15.61 2.055c.07-.16.24-.06.24.11-.04.19-.38.24-.48.06-.03-.05-.07-.1-.03-.16.13-.17.22.11.27-.01ZM8.073 3.509l-.013-.02c.151-.08.278-.16.363-.32.024.176-.182.319-.35.34ZM10.71 1.765a.493.493 0 0 0-.316.186c-.004-.148.185-.24.311-.205l.005.019ZM8.057 4.8c-.005.221-.261.164-.276-.013-.016-.203.284-.159.276.013Zm-.098.026.016.003c-.007-.025-.008-.056-.023-.073-.056-.041-.08-.006-.086.05.05-.052.057-.018.093.02ZM9.965 1.283c-.204.028-.21-.33-.032-.336.228-.005.294.326.032.336Zm.013-.27c-.038.036-.074.057-.086.088-.01.028.075.106.106.106.138-.045.063-.123-.02-.195ZM10.89 3.262l.077-.1c.01.007.026.02.025.021-.023.036-.032.087-.101.08ZM4.654 3.081c-.038.044-.056.085-.087.098-.085.038-.17-.062-.14-.131a.455.455 0 0 1 .14-.014c.025.007.046.024.087.047Z"/></svg>