<svg xmlns="http://www.w3.org/2000/svg" viewBox="0 0 16.577 37.898" xmlns:v="https://vecta.io/nano"><path d="M16.278 1.839l-.521-.199c-.19-.132-.415-.126-.629-.167-.128-.035-.258-.031-.388-.028l-1.322-.159c-.55-.105-1.109-.166-1.632-.376-.097-.033-.198-.057-.3-.007-.019.01-.048.01-.069.004-.153-.046-.292.024-.437.05L9.61.976c-.351.046-.678.196-1.025.264L8.571.509c.007-.083-.01-.159-.069-.22S8.363.163 8.27.192c-.103.024-.214.036-.279.13-.031.052-.04.118-.088.162-.072.11-.008.251-.012.374.043.448-.007.899-.042 1.345-.035.184.022.366-.003.544-.025.17-.021.338-.015.507l.01.488c0 .021-.026.041-.03.063-.006.034-.017.076-.004.104.09.213.114.461.046.681-.028.159.073.317-.03.465.01.319.036.645-.001.967.002.026-.035.05-.04.067.033.157-.029.303-.049.454l-.037.316c-.06.244-.056.494-.054.744-.022.3-.015.603-.014.906.021.505-.059 1.006-.008 1.509.081.579.059 1.16.085 1.741.001.029-.018.078-.038.085-.224.089-.3.327-.451.495l-.028-.011c-.015-.142.026-.24-.155-.271-.222-.03-.527-.06-.638.188-.234-.029-.476-.027-.713-.034-.498-.033-1-.09-1.494.004-.618.159-1.249.302-1.825.582-.228.092-.419.239-.607.393-.137.122-.308.211-.433.343-.047.099-.157.12-.226.191a1.83 1.83 0 0 0-.32.383c-.147.302-.368.577-.436.911-.05.165-.136.321-.118.503l-.02.552c-.001.023-.043.049-.038.067.018.063.01.117-.016.177a3.38 3.38 0 0 1 .013.447c-.024.102-.038.168-.021.287-.039.037-.017.102.005.169.067.379.069.77.192 1.141.04.152.117.295.185.438.017.035-.005.099.064.106.003 0 .002.042.004.067l.035-.011.198.381c.167.111.058.228.166.178.006.07.01.142.107.146.271.372.502.779.846 1.093.147.163.352.251.523.383.102.077.121.072.069.2a8.09 8.09 0 0 0-.127 1.176c-.062.275-.072.558-.106.837-.053.132-.089.268-.078.416.007.178-.01.356-.012.535-.007.148.027.303.003.45-.041.151.037.288.027.437.031.254.023.498.035.754-.002.284-.045.579.032.864l.074.405c.054.217.218.395.247.618.074.439.18.878.162 1.326 0 .401.05.801.004 1.2l-.16 2.896c-.102.53-.098 1.068-.084 1.606-.025.197-.015.395.002.594.015.181.011.361-.013.542-.003.022.037.067.061.071.667.101.697-.137.64.437-.318.065-.366.602-.356.869-.006.106-.05.256.108.254.097-.015.3.087.307-.069.004-.036-.017-.079.008-.108.268.205.53.306.846.143.032-.014.06-.058.071-.094.094-.371-.246-.764-.545-.94-.062-.056-.011-.13-.022-.195s.005-.138 0-.206c-.004-.059.017-.077.073-.078.167-.027.583.05.582-.195-.013-.484.08-.96.125-1.44.106-.693.152-1.388.091-2.087l-.062-1.503-.076-1.989-.013-.603c.018-.159-.058-.281-.058-.437.095.045.091.129.101.198l.182 1.334c.12.815.147 1.643.128 2.463a22.49 22.49 0 0 0-.064 2.303l-.102 1.56c-.021.381-.135.465.333.414.015 0 .043.015.043.021-.003.032-.004.075-.025.092-.067.055-.058.134-.081.204a1.14 1.14 0 0 1-.08.191c-.075.14-.144.273-.108.448.068.187-.099.575.181.613.311-.092.321-.01.307-.334.167.021.26.174.436.166.428.035.748-.165.469-.6-.228-.403-.536-.32-.694-.625-.063-.192.28-.109.386-.13.066-.003.056-.067.061-.105l.104-1.013.13-1.939c.053-.86.076-1.725.004-2.583-.005-.685-.309-1.323-.357-2.003-.047-.354-.167-.694-.237-1.042-.12-.464-.111-.939-.11-1.415.129-.015.156-.026.157-.15.003-.234.077-.462.048-.7l-.05-.594-.159-2.155c.741.063 1.437.18 2.163-.049-.015.433.042.819-.01 1.245-.008.176-.054.348-.019.53.03.163.003.338.002.507l.037 1.335c-.027.435-.056.871-.002 1.306.066.198.362.202.51.084.218-.16.101-.681.123-.934l-.074-2.004c.079-.733.027-1.473.021-2.209-.002-.044.001-.072.047-.097.087-.048.165-.112.251-.162A2.09 2.09 0 0 0 9.3 20.87l.357-1.055c.057-.49-.08-1.101-.396-1.487-.038-.052-.018-.103.004-.148.139-.274-.244-.386-.415-.512-.156-.087-.353.119-.426-.111-.059-.143-.138-.271-.279-.349-.04-.022-.063-.051-.06-.1l.056-.982.016-.636c.014-.209.071-.416.057-.627.017-.39-.051-.784-.031-1.172l.56-.184c.207-.085.366-.291.4-.512.007-.122-.112-.216-.232-.177-.06.023-.098.093-.158.123.153-.356-.141-.694-.232-1.028-.191-.329-.278.127-.224-.502l-.065-1.495c.018-.334-.014-.663-.051-.995-.006-.133.024-.268.02-.402-.004-.124-.044-.248-.044-.372-.002-.17.02-.339.03-.509.038-.925.255-1.837.228-2.766-.008-.234-.004-.466.038-.697.012-.111-.03-.288.142-.27l.654-.009c.366-.032.743-.013 1.084-.169.065-.038.163-.017.246-.021l.56-.031c.884-.133 1.749-.403 2.596-.686.528-.158.998-.45 1.519-.622.259-.089.507-.204.753-.323.092-.059.399-.119.271-.206zm-8.299.495c.102.008.269-.057.314.035l-.04.629c-.005.099-.087.032-.149.058-.087.022-.145-.005-.144-.07l.019-.651zm-.024 1.179l.015-.336c.025-.086.137-.038.201-.036.102.018.124.047.122.148l-.011.572c-.375.11-.328-.058-.327-.348zm-1.4 8.717c.051-.136.254-.157.373-.096.156.082.081.345.099.495-.042.183.074.613-.13.678-.09.011-.184.009-.276-.001-.163 0-.139-.108-.148-.236h.001c-.025-.281.052-.56.08-.839zm.222 1.176c.191.038.28-.056.349-.235.157.159.247.376.483.44.018.005.043.029.042.044.008.293-.058.579-.089.867l-.006 1.383.021.388c.005.067-.031.082-.085.093-.141.027-.224.159-.334.241-.168.099-.274.277-.306.47a1.24 1.24 0 0 0-.016.51c.002.196.044.377.181.542-.181.036-.351-.108-.533-.02-.074.038-.09.107-.097.169-.019.127.144.157.241.179 1.075.236.679-.701.821 1.039l-.006 1.052-.026.641c-.004.117-.032.16-.143.193-.172.048-.362.047-.529.107-.264.112-.519.006-.762-.099l-.557-.208c-.093-.043-.055-.163-.079-.244-.063-.185-.107-.379-.156-.567l-.272-.563c-.261-.523-.211-.128-.306-.759-.067-.301-.38-.194-.447-.357l-.003-.315c-.02-.296.284-.098.417-.447.136-.216.123-.45.058-.687-.056-.274.03-.224.09-.427l-.023-.488c.121-.015.361.035.278-.172-.184-.496-.119-1.027-.086-1.54.037-.145.235-.221.179-.403-.057-.238-.201-.324-.416-.414-.103-.048-.204-.107-.311-.139-.294-.059-.578.092-.853.176-.233.032-.484.021-.705.12-.219.115-.435.303-.487.553-.089.447.053.987.161 1.423.045.203.104.402.232.568.177.308.364-.033.362.206a5.58 5.58 0 0 0 .139.662c.093.162.184.329.302.471.223.24.282.541.217.853-.007.133-.141.169-.227.241-.225.173-.167.271-.217.502-.087.165-.176.311-.302.454-.237-.204-.424-.45-.638-.677-.035-.04-.057-.097-.099-.127-.106-.077-.133-.205-.207-.302-.048-.083-.059-.179-.104-.271-.002 0-.017.003-.023.004l-.043-.059-.02.012c-.007-.119-.075-.237-.131-.34-.095-.159-.125-.338-.164-.513-.145-.298-.155-.619-.171-.942.019-.514.086-1.024.152-1.533.022-.131.071-.258.082-.389.014-.178.118-.313.198-.456.273-.321.59-.621.973-.81.271-.153.571-.216.874-.272.283-.064.542-.224.846-.201.057.004.116-.017.174-.021.099.007.199.042.298.043.069.001.139-.029.207-.024.339.045.68.08 1.023.084.111.003.114 0 .109.109-.003.054.004.103.067.115l.401.069zm-1.846 7.555l-.036.004-.04-.401c-.004-.222-.097-.416-.175-.615-.045-.113-.122-.22-.024-.37.364.466.563.99.631 1.568l-.356-.118c.07-.13.039-.547-.055-.634l.055.566zM4.3 19.822l-.13-.503a1.82 1.82 0 0 1 .211.278c.055.087.032.233.189.24.221.338.26.744.251 1.141l-.489-.244c-.017-.009-.028-.041-.032-.064l-.103-.783c.048-.01.12.014.102-.066zm-.491-1.463c.001-.112-.015-.221-.084-.317-.19-.291-.463-.544-.507-.903-.041-.127-.021-.268-.087-.39 0-.049.01-.102.002-.151-.064-.227-.03-.492-.217-.659-.124-.133-.238-.27-.286-.449-.03-.18-.202-.487.058-.562.32-.083.511.075.462.406.075.002.143.019.202.002.038-.011.112.025.119-.054.044-.309-.024-.681.223-.915.197-.122.408-.146.629-.085.015.004.034.01.043.022.111.144.254.236.435.275a3.2 3.2 0 0 1-.048.646c-.045.354.059.687.125 1.03-.325.013-.223.068-.223.328l-.236-.016c-.319.089-.136.472.154.459.012.115-.01.236.024.344.067.199.018.375-.072.547-.088.223-.494.14-.478.425.005.144-.011.296.029.43.046.152.048.266-.065.364-.05.043-.087.045-.132-.012-.153-.229-.059-.508-.067-.763zm.843-1.616c-.104-.021-.221.055-.333-.062.101-.047.163-.049.263-.031.064.005.082.025.07.094zm.003.074c-.067.217-.234.15-.29.005a2.61 2.61 0 0 0 .29-.005zm-.608 2.421l.141.529-.031.025c-.121-.061-.676-.199-.636-.354a.6.6 0 0 1 .181-.459c.08.174.123.356.345.258zm.083-.121l.045-.173c.165-.025.35.171.359.313.006.149-.016.299-.03.447h-.02c-.108-.209-.125-.474-.353-.587zm-2.559.958c-.128-.167-.244-.343-.395-.492-.389-.503-.707-1.095-.751-1.743.003-.28-.033-.563-.001-.84-.026-.187-.055-.373-.014-.562.138-.645.149-1.318.413-1.932.17-.328.396-.632.661-.889.557-.424 1.182-.769 1.853-.971.522-.165 1.054-.324 1.605-.335.293-.044.588.043.885.004.178-.018.36.002.547.005-.013.225-.055.434-.075.657-.005.05-.025.062-.069.056-.252-.039-.507.017-.756-.064-.165-.043-.332-.035-.501-.01-.201-.01-.411-.043-.617-.025-.248-.005-.473.104-.714.146-.17.038-.35.045-.512.112l-.476.234c-.162.071-.327.147-.441.286-.185.095-.297.265-.427.416-.078.079-.157.156-.192.268-.067.173-.191.317-.242.497-.075.196-.096.405-.136.609-.088.387-.079.779-.05 1.171-.014.277.032.55.094.819.156.413.312.845.54 1.224.159.147.232.355.393.5l.741.766c-.084.152-.157.316-.189.49-.02.22-.072.399-.144.62-.398-.288-.736-.624-1.033-1.015zm.779 5.595l.03-.463c-.081-.741.121-1.477.134-2.219l.05-1.129c.023-.383.126-.754.248-1.116.112-.271.228-.815.461-.976.064-.036.111-.102.149-.138.388.291.653.083.671.368.046.224.1.436.115.668-.173-.033-.345-.037-.491-.122-.128-.097-.258-.071-.393-.049-.021.004-.047.02-.059.038-.154.22-.32.466-.226.746.099.273.285.54.552.664l.546.231c.104.048.053.281.074.36l-.076.118c.048-.003.053-.002.09-.008.087.392.05.776-.025 1.16l-.014-.838c0-.029-.024-.057-.037-.085l-.027.01.027 1.057c.001.032.025.064.037.097.047.09.004.095-.046.171l.074.032a.57.57 0 0 1-.069.257c.117.112.02.166-.015.267l-.013.359-.017.57c-.003.085-.07.13-.146.096-.203-.105-.441-.184-.663-.108-.286.062-.572.044-.86.07-.061.004-.086-.025-.081-.087zm1.718 2.922l-.037.003c-.072-.48-.05-.972-.103-1.456l-.07-1.21c.081.012.256-.067.259.062l-.01.684-.039 1.917zm-.643 1.074l-.236-1.823c-.119-.557-.324-1.098-.353-1.67l.022-.001c.055.369.203.718.33 1.067.114.326.157.666.206 1.005.074.457.074.92.077 1.381.099 1.412.022 2.819-.156 4.223-.018-.02-.024-.023-.024-.027l.015-.55.093-1.044c.066-.436.037-.875.05-1.314.03-.417-.012-.831-.024-1.248zm-.351 2.638c.012.384-.03.776-.085 1.158-.06-.29-.007-.575.018-.865l.091-1.199c.025-1.109.175-2.227.015-3.331l.042-.001c.016.472.149.944.115 1.418-.06.801-.015 1.608-.159 2.401-.009.14-.053.274-.037.419zm-.252-5.282c.113.251.215.51.276.779l-.417-.78c-.063-.286-.203-.571-.157-.868l.03-.002c.135.268.124.599.268.87zM2.66 26.1c.021-.062.023-.131.033-.197l.155.972c-.087-.233-.258-.522-.189-.775zm.447 3.183l-.034.701-.032-.001c-.028-.235.006-.468.026-.702l.039.002zm-.081 1.177l.029.001-.011.344-.032-.002.014-.343zm.115-4.582c.009.509.087 1.008.239 1.494l.253 1.543c.177 1.837.042 3.686-.251 5.505l-.022-.003c.13-1.579.314-3.171.189-4.755-.054-.353.006-.71-.07-1.061-.012-.478-.102-.948-.232-1.406-.138-.369-.344-.753-.279-1.158-.014-.176-.012-.158.174-.158zm.189 9.97l-.03-.001.014-.308c.022.104.039.208.016.309zm.002.275l.212-.012c.062-.006.065.043.066.076-.011.153.002.317-.081.455-.191.258-.301-.392-.197-.52zm.23-.638c-.026.107-.005.296-.084.365l-.019-.017c-.066-.761.036-1.533.138-2.289.118-.95.185-1.907.206-2.864a20.04 20.04 0 0 0-.252-2.841c-.065-.464-.261-.897-.291-1.366-.014-.199.002-.4.005-.599l.232.018.178 2.285c.121.697.136 1.41.187 2.115l-.047 2.306-.127 1.709-.125 1.178zm-.718-2.359l.024.005-.015.527-.022-.004a1.1 1.1 0 0 1 .013-.528zm-.012 2.74l-.091-.022c-.014-.286-.038-.567.048-.841l.06-1.144.023.001c.001.667.059 1.335-.041 2.005zm-.427-9.699c.058.105.03.228.058.34.046.207.088.423.17.619.104.211.241.405.323.627l-.034.015c-.41-.417-.677-1.012-.518-1.602zm.592 5.056a6.06 6.06 0 0 1-.016.589l-.02.003c-.044-.2-.012-.397.036-.592zm.003 4.65c-.05.008-.057-.015-.057-.053 0-.167-.01-.335.018-.5h.032l.089.495c.003.057-.04.052-.082.058zm.214-.41l-.03-.003.038-.288.022.002-.03.288zm-.085-.524c-.065-.032-.047-.284-.064-.362-.018-.432.045-.863.069-1.295l.173-3.628h.024c.07 1.004.062 2.012-.058 3.011l-.144 2.274zm.543 1.8c.026-.048.049-.042.092-.025.124.053.025.191-.048.23-.097.026-.096.124-.013.157.089.021.125-.187.186-.253.069.07.16.121.088.211-.036.052-.174.058-.133.145.012.025.054.062.067.056.059-.032.097-.073.096-.151.067.048-.013.22-.016.301-.022.045-.265.037-.317.03-.246-.035-.236-.328-.37-.315-.073.008-.105.039-.126.142a.17.17 0 0 1-.164.07c-.034-.172.042-.597.194-.702.058.087.064.216.169.238.119.004.233-.015.297-.132zm.027-.983c-.004.034.004.09-.07.073.015-.733.162-1.458.224-2.188l.09-3.018c.034-1.486-.344-2.947-.343-4.431.004-.291.114-.434.181-.035l.23 5.457c.034.881-.034 1.762-.146 2.636l-.122.847a2.26 2.26 0 0 0-.043.661zm.248-.029c0 .092-.067.082-.148.079.007-.805.17-1.592.242-2.392l-.018-4.761.024-.003c.084.227.045.48.062.718l.057.812c.048 1.151.038 2.307-.079 3.453l-.1 1.344-.041.75zm.428-4.505c.007.149.008.296-.013.448-.042.299.021.612-.01.913-.1.761-.053 1.532-.172 2.293l-.095.852c-.002.017-.018.032-.034.059-.053-.172-.006-.328-.004-.501L4.224 33a8.95 8.95 0 0 0 .026-1.271c.013-.429.056-.856.009-1.285l.033-.005c.043.258.023.526.084.783zm.324 4.698l-.024-.004c.002-.165.045-.331.046-.496-.001-.335-.025-.67.016-1.004.122-1.179.104-2.363.085-3.547a19.01 19.01 0 0 0-.22-2.14c-.043-.207-.06-1.07-.289-1.083-.193.07-.082.339-.09.492l-.029.645-.035-.001c-.039-.719-.042-1.437.035-2.155.026-.232-.027-.479.077-.696l.024.008c.048.42-.108.85.078 1.253.125.261.167.544.222.825.108.482.196.967.246 1.459.136 1.492.119 2.996-.009 4.488-.038.652-.006 1.312-.134 1.955zm-.311-11.192c.117-.327.406.129.066.072.041-.075-.008-.076-.066-.072zm.301.039c.046-.144-.111-.212-.223-.216-.054.019-.099.08-.153.117.016-.41.003-.781.077-1.187.191.172.312-.013.424-.151a22.58 22.58 0 0 1-.09 2.169c-.029.427-.02.345-.41.304l-.002-.253c.06.114.159.095.261.093.092.029.104-.046.118-.097.018-.099-.048-.204-.059-.301-.003-.032.012-.07-.032-.074-.125-.029-.204.101-.273.167.005-.184-.053-.386-.005-.572.092.136.302.155.366.001zm-.188-1.437l-.036.043c.024-.15.08-.189.289-.19.005.13-.074.215-.164.293-.023.018-.08.007-.115-.007-.02-.008-.025-.049-.037-.076l.1-.005c-.014-.026-.021-.036-.037-.058zm-.114-.002l-.026-.489c.149.02.334.063.413-.089.126-.398-.197-.445-.432-.192l-.002-.304c.132-.001.26.035.391.04.095.005.121.021.125.119l-.015.747c-.033-.024-.061-.059-.078-.054-.225.034-.244.006-.375.223zm.181-.86c.01-.008.039.002.056.01a.22.22 0 0 1 .072.284c-.032.03-.101.028-.129.038-.296.005-.164-.248.002-.333zm.417 13.802c.02-.135.022-.188.167-.137.24-.031.114.266.037.378-.085.107-.21-.154-.204-.241zm.109.335c-.113.016-.166-.04-.147-.153l.147.153zm.095-2.466l-.064 1.727c0 .056-.009.078-.057.077s-.08-.029-.073-.085l.043-.361c.168-1.106.081-2.224.04-3.336-.031-.527.006-1.054.008-1.581-.04-.339-.027-.681-.039-1.023-.022-.863-.226-1.705-.289-2.564-.019-.341-.099-.697-.012-1.032l.058-.003c.132.746.164 1.51.266 2.263l.207 2.722-.088 3.196zm-.459-6.775c.019.436.099.86.174 1.288.043.354.055.713.075 1.069-.011 0-.022 0-.034 0l-.276-1.769c-.219-1.059-.398-.777-.263-2.01.089.021.22-.029.209.102l.115 1.32zm-.36-1.919c.066-.224.216-.262.255 0 .025.1-.085.203-.173.126-.034-.035-.055-.083-.082-.125zm.476 10.486l-.032-.011c.087-.602.086-1.213.087-1.821l.094-1.317.022.001c-.017.321.03.642.034.962l-.039 1.146-.056.559c-.034.159-.01.345-.11.48zm.785.72c-.046.064-.051.181-.153.161-.039.027-.017.096.005.134.033-.025.113.047.104-.021-.016-.109.058-.161.097-.236.15.058.178.156.079.256-.018.018-.025.048-.037.072l.076.029c.031-.053.057-.227.125-.137.017.031.021.073.045.094.076.07.022.163-.059.186-.298.104-.466.143-.753-.012-.2-.1-.071.163-.224.157-.067-.001-.134.006-.203.01-.022-.258-.115-.516.102-.743.13.181.366.148.518.013.091-.101.188-.016.277.035zm-.364-.138l.071-.143c.036.075.011.12-.071.143zm.059-.58c-.006.056-.034.074-.091.057l.087-2.776.015-2.724c-.026-.993-.204-1.973-.257-2.965l-.13-.994c-.013-.197-.104-.388-.007-.58.22-.015.152.204.149.348l-.027.563.087 1.068c.142.738.22 1.485.271 2.235l.13 1.317-.05 2.228c-.008.503-.062 1.003-.106 1.504l-.071.718zm.592-3.231c-.023.186.005.375.024.559-.02.684-.09 1.366-.181 2.044-.029.124.02.812-.175.731l.318-3.335zm-.463-4.008l.315 1.612c.086 1.314.072 2.631-.11 3.937l-.112 1.158c-.037.205-.017.431-.099.622l-.025-.008.156-2.341c.075-.901.123-1.809-.019-2.705l-.272-2.748c-.122-.59-.146-1.187-.139-1.788.013-.122-.015-.345.082-.421.027.271-.012.555.003.831l.221 1.851zm-.081-3.541c.016.222.002.447.01.67.002.064-.032.082-.086.075l-.403-.06c-.013-.003-.027-.036-.028-.055-.011-.335-.019-.67.02-1.004l.027-.395c-.002-.044-.063-.086-.079-.125-.004-.026.001-.056.01-.082s-.005-.072.049-.049c.02-.065.062-.083-.028-.121-.007-.058-.02-.134.072-.181l-.069-.031c-.044-.387.09-.107.076-.307l.035-.54c.008-.1-.012-.17-.08-.205.139-.195-.046-.197.066-.283-.082-.083-.083-.092-.019-.132l-.038-.038c.112.027.268.022.335.106.032.239.012.483.01.724l.121 2.032zm2.363 2.168c-.017-.007-.041-.028-.04-.043-.009-.13.19-.095.26-.046-.083.129-.096.134-.219.089zm.232-.244c-.284.009-.283.072-.268-.236-.073-.832.01-1.665-.055-2.498l-.082-1.898c.002-.104.238-.123.337-.177-.082 1.033.014 2.062.034 3.096.013.568.087 1.147.035 1.713zm1.365-8.391c.104.187.131.398.143.607.059.18.084.364.056.55-.039.319-.179.612-.269.916a1.94 1.94 0 0 1-.585.919c-.042.07-.173.131-.259.174-.102.055-.197.135-.305.162-.455.149-.913.315-1.399.329-.576.025-1.167.014-1.716-.189-.237-.079-.476-.148-.725-.179-.294-.065-.653-.102-.812-.397-.091-.114-.237-.211-.261-.364-.013-.105.005-.214.002-.32s.062-.162.154-.171c.22-.026.45-.031.652.077.202.064.402.135.593.224l.432.107c.327.105.647.229.959.373.043.017.102-.001.141.02.175.091.364.091.55.089.401-.02.77-.204 1.154-.308.392-.107.841-.311.956-.734.136-.483.087-.989-.024-1.472-.015-.107-.069-.216.053-.319s.202-.237.304-.36c.11.045.145.172.207.265zm-1.734.366l-.022-.003c-.001-.191.025-.381.036-.571.004-.09.018-.114.109-.116.104-.008.149.043.141.145a4.37 4.37 0 0 1-.016.527c-.006.08-.04.171-.013.237.067.238.031.479.048.721.017.373.053.745.01 1.118-.021.13-.186.128-.283.177-.082.03-.097.024-.096-.063.053-.725-.05-1.453.087-2.173zm.452-.349c.191.107.321.33.589.256a2.93 2.93 0 0 0 .104.645c.032.17-.043.33-.054.497-.023.17-.029.366-.11.519-.144.181-.27.328-.485.441-.068-.343-.047-.648-.026-.987l-.036-.739c.062-.21-.026-.42.019-.631zm.642-.888c.035-.062.076-.063.125-.032l.326.212c.118.072-.021.16-.063.239-.124.26-.326.457-.559.622-.136-.038-.229-.14-.339-.221-.024-.02-.032-.072-.029-.108.007-.121.102-.192.17-.278.116-.151.242-.298.371-.434zm-.607-.535c.165.15.255.342.377.521l-.262.35c-.032.038-.048.112-.131.095a1.26 1.26 0 0 0-.711.059c-.183.083-.317.144-.523.091-.103.014-.082-.085-.097-.155l.37.027c.043.001.089-.099.058-.122-.135-.097-.117-.263-.178-.394.071.055.104.145.194.169.073-.196-.276-.366-.249-.575.033-.159.005-.408.169-.493-.027.174-.129.337-.048.524.026.07.019.156.054.219.053.093.132.171.196.258.033.045.058.037.107-.024-.191-.087-.224-.209-.237-.403-.104-.23.049-.449.105-.672.066-.102.178-.024.216-.216.004-.015.028-.026.045-.041.109.26-.142.405-.235.611-.066.131-.018.271-.004.404.017.182.255.19.396.236.32.047.322-.23.385-.47zm-.571-.284l-.028.483c-.118-.107-.101-.364.028-.483zm.172-.391c.008-.248.072-.497.097-.744-.013-.234.024-.47.024-.704 0-.22-.039-.439-.018-.66.024-.258.078-.514.055-.776-.001-.018.034-.058.049-.057.04.005.096.004.094.072l-.007.252.013.842-.087 1.803.014.713c.02.196-.107.228-.263.222.005-.325.058-.638.03-.963zm.677-4.726c.09.067.107.129.062.214-.117-.063-.134-.117-.062-.214zm-.058.21l.169.074c-.013.11-.018.242-.047.368a.73.73 0 0 1-.575.512c-.05.017-.051.066-.003.087.247.055.592-.197.654-.441l.079-.336c.04.722-.424.7-.352.875.203-.024.291-.215.42-.342.038.118-.117.187-.131.312.182.025.247-.122.35-.226.048-.043.14-.033.142.044-.015.162-.249.259-.355.38-.248.097-.643.238-.886.079-.158-.148-.38-.172-.53-.323-.062-.061-.138-.104-.124-.213.013-.103.003-.209.019-.312.016-.286.189-.152.291-.398.068-.114.137-.263.292-.266.015.203-.003.396-.017.597-.024.171.042.108.073.182-.002.144.257.006.337.001.259-.074.156-.461.194-.656zm-.023-7.575c-.007.035-.03.074-.019.103.034.095.003.189.001.282a5.57 5.57 0 0 0-.009.838c-.012.338-.076.671-.13 1.004-.007.051.02.112.001.154-.071.161-.027.328-.045.491.001.181-.068.344-.083.523.001.072-.025.143-.031.216-.019.131.022.268-.05.388-.008.471.075.923.079 1.388l.012.509c.009.042-.012.073-.026.113.008.294.045.596.077.888-.025.349.026.692.088 1.034.039.222-.102.186-.274.189-.12-.035-.069-.184-.068-.277.054-.444-.073-.888-.008-1.33.08-.423-.014-.845-.038-1.268l.003-2.258.2-1.752c.013-.272-.015-.546-.008-.818l.013-.98c.081.017.338-.052.324.066-.036.169.043.331-.007.497zm.079-3.056c-.083.201-.012.413-.034.621.013.227-.171.194-.343.165l.039-.577c.023-.075-.02-.275.088-.274.067.016.302-.067.25.065zm-.311-.123L8.07.694c.099.097.199.11.321.075-.043.601.118.548-.339.567zm.346-.755c.001.001-.009.02-.017.023-.127.079-.27.089-.276-.096-.006-.109.025-.141.124-.182.067-.028.082.035.124.05.026.009.038.051.061.072.059.053-.068.082-.016.133zm.131.855c.126-.005.221.082.306.164.13.102.07.23-.011.341l-.018-.015c-.01.073-.118.148-.235.163-.017.027-.043.047-.064.07-.005-.241.027-.477.022-.723zm-.057.875l.036-.018c.053.044.113.082.159.133.116.152.037.464-.149.532-.091-.172-.026-.448-.046-.646zm.224 1.211c-.008.149-.056.232-.187.244-.014.001-.042-.02-.042-.032.003-.179-.004-.34.027-.521.107.09.211.153.203.308zm6.174-1.047c-.988.445-2.017.785-3.074 1.016-.522.188-1.073.159-1.617.187l-.617.079c-.278-.012-.569-.009-.839.07l-.015-.022c.185-.228.127-.473-.112-.639a.46.46 0 0 0 .258-.41c.055-.189-.17-.348-.263-.496.096-.067.236-.058.298-.17.237-.298.139-.476-.125-.7.642-.154 1.296-.34 1.966-.302.586.017 1.154.186 1.741.202l.721.054c.111.01.232.008.327.054.178.086.366.112.553.111.384.017.756.087 1.136.135.332.01.649.118.953.245l.005.03c-.417.219-.851.402-1.296.557z" fill="#0f181b"/><path d="M8.427 12.093c-.117-.063-.134-.117-.062-.214.09.067.107.129.062.214z" fill="#939598"/><path d="M4.654 16.815c-.067.217-.234.15-.29.005a2.61 2.61 0 0 0 .29-.005zm-.003-.073c-.104-.021-.221.055-.333-.062.101-.047.163-.049.263-.031.064.005.082.025.07.094z" fill="#be1e2d"/><path d="M4.875 16.253c-.066-.343-.169-.676-.125-1.03a3.2 3.2 0 0 0 .048-.646c-.181-.039-.324-.131-.435-.275-.009-.012-.027-.018-.043-.022-.221-.06-.432-.037-.629.085-.247.235-.179.607-.223.915-.007.078-.081.043-.119.054-.059.017-.128.001-.202-.002.05-.331-.142-.488-.462-.405-.26.075-.088.382-.058.562.048.179.162.316.286.449.187.166.153.432.217.659.008.049-.002.102-.002.151.067.122.047.263.087.39.044.359.318.612.507.903.069.096.085.205.084.317.007.254-.086.534.067.763.045.058.082.056.132.012.114-.099.111-.212.065-.364-.04-.134-.024-.286-.029-.43-.015-.285.391-.202.478-.425.09-.171.139-.348.072-.547-.034-.107-.012-.229-.024-.344-.29.012-.473-.37-.154-.459l.236.016c0-.26-.103-.315.223-.328zm-1.726-.614c-.087.089-.133-.095-.074-.154.082.027.092.081.074.154zm.303.528c-.074.101-.278.221-.308.024-.022-.331-.4-.473-.452-.799-.07-.215.049-.538.31-.37.095.066.151.277.007.328-.082.014-.091-.089-.155-.125l-.013.016.022.106c-.079.012-.064-.078-.055-.114.003-.025.048-.054.08-.064.076-.023.068.082.119.116.077-.136-.029-.239-.165-.246-.159.131-.099.345-.018.5.106.2.34.322.366.561.01.114.03.118.133.077.087-.026.059-.093.073-.164.072.045.097.107.057.153zm.704.194c-.269.304-.107.684.009 1.015l-.037.02c-.107-.125-.108-.296-.167-.444-.063-.238.003-.569.23-.692-.005.038-.001.077-.035.102zm.01-.891c-.337.04-.495-.071-.543-.41.058-.238.189-.524.482-.508.261.002.509.054.563.347.021.067.072.151-.003.229-.123.196-.251.333-.499.342zm1.023 21.04c-.085.107-.21-.154-.204-.241.02-.135.022-.188.167-.137.24-.031.114.266.037.378zm-1.579-.323c-.011.153.002.317-.081.455-.191.258-.301-.392-.197-.52l.212-.012c.062-.006.065.043.066.076z" fill="#eac3a7"/><path d="M3.99 37.409c-.022.045-.265.037-.317.03-.246-.035-.236-.328-.37-.315-.073.008-.105.039-.126.142a.17.17 0 0 1-.164.07c-.034-.172.042-.597.194-.702.058.087.064.216.169.238.119.004.233-.015.297-.132.026-.048.049-.042.092-.025.124.053.025.191-.048.23-.097.026-.096.124-.013.157.089.021.125-.187.186-.253.069.07.16.121.088.211-.036.052-.174.058-.133.145.012.025.054.062.067.056.059-.032.097-.073.096-.151.067.048-.013.22-.016.301zm1.924-.219c-.298.104-.466.143-.753-.012-.2-.1-.071.163-.224.157-.067-.001-.134.006-.203.01-.022-.258-.115-.516.102-.743.13.181.366.148.518.013.091-.101.188-.016.277.035-.046.064-.051.181-.153.161-.039.027-.017.096.005.134.033-.025.113.047.104-.021-.016-.109.058-.161.097-.236.15.058.178.156.079.256-.018.018-.025.048-.037.072l.076.029c.031-.053.057-.227.125-.137.017.031.021.073.045.094.076.07.022.163-.059.186z" fill="#184137"/><path d="M8.464 17.801l-.262.35c-.032.038-.048.112-.131.095a1.26 1.26 0 0 0-.711.059c-.183.083-.317.144-.523.091-.103.014-.082-.085-.097-.155l.37.027c.043.001.089-.099.058-.122-.135-.097-.117-.263-.178-.394.071.055.104.145.194.169.073-.196-.276-.366-.249-.575.033-.159.005-.408.169-.493-.027.174-.129.337-.048.524.026.07.019.156.054.219.053.093.132.171.196.258.033.045.058.037.107-.024-.191-.087-.224-.209-.237-.403-.104-.23.049-.449.105-.671.066-.102.178-.024.216-.216.004-.015.028-.026.045-.041.109.26-.142.405-.235.611-.066.131-.018.271-.004.404.017.182.255.19.396.236.32.047.322-.23.385-.47.165.15.255.342.377.521z" fill="#eac3a7"/><path d="M9.144 17.994c-.104-.077-.215-.144-.326-.212-.049-.031-.089-.03-.125.032l-.371.434c-.068.086-.163.157-.17.278-.002.036.005.088.029.108.11.081.204.182.339.221.234-.164.435-.362.559-.622.043-.079.181-.167.063-.239zm-.61.724c-.275.035-.355-.158-.219-.375.006.003.024.015.026.012.065-.065.146-.055.222-.037.219.054.159.351-.029.399z" fill="#58906b"/><path d="M9.013 13.018c-.015.162-.249.259-.355.38-.248.097-.643.238-.886.079-.158-.148-.38-.172-.53-.323-.062-.061-.138-.104-.124-.213.013-.103.003-.209.019-.312.016-.286.189-.152.291-.398.068-.114.137-.263.292-.266.015.203-.003.396-.017.597-.024.171.042.108.073.182-.002.144.257.006.337.001.259-.074.156-.461.194-.656l.169.074c-.013.11-.018.242-.047.368a.73.73 0 0 1-.575.512c-.05.017-.051.066-.003.087.247.055.592-.197.654-.441l.079-.336c.04.722-.424.7-.352.875.203-.024.291-.215.42-.342.038.118-.117.187-.131.312.182.025.247-.122.35-.226.048-.043.14-.033.142.044z" fill="#eac3a7"/><path d="M6.928 12.134c-.119-.061-.322-.04-.373.096-.028.279-.106.558-.08.839h-.001c.009.128-.015.236.148.236a1.2 1.2 0 0 0 .276.001c.204-.065.089-.495.13-.678-.019-.149.057-.413-.099-.495zm-.181 1.044c-.312.031-.217-.304.002-.311.234.003.252.28-.002.311z" fill="#58906b"/><path d="M4.876 20.395l.055.566-.036.004-.04-.401c-.004-.222-.097-.416-.175-.615-.045-.113-.122-.22-.024-.37.364.466.563.99.631 1.568l-.356-.118c.07-.13.039-.547-.055-.634zm.508 5.428c.002.064-.032.082-.086.075l-.403-.06c-.013-.003-.027-.036-.028-.055-.011-.335-.019-.67.02-1.004l.027-.395c-.002-.044-.063-.086-.079-.125-.004-.026.001-.056.01-.082s-.005-.072.049-.049c.02-.065.062-.083-.028-.121-.007-.058-.02-.134.072-.181l-.069-.031c-.044-.387.09-.107.076-.307l.035-.54c.008-.1-.012-.17-.08-.205.139-.195-.046-.197.066-.283-.082-.083-.083-.092-.019-.132l-.038-.038c.112.027.268.022.335.106.032.239.012.483.01.724l.121 2.032c.016.222.002.447.01.67z" fill="#184137"/><g fill="#316956"><path d="M4.815 23.329c-.112.138-.234.323-.424.151-.074.406-.061.776-.077 1.187.054-.037.099-.098.153-.117.112.004.269.072.223.216-.064.154-.274.135-.366-.001-.048.186.01.389.005.572.069-.066.148-.196.273-.167.045.004.029.041.032.074.011.098.076.202.059.301-.015.052-.026.127-.118.097-.102.002-.201.021-.261-.093l.002.253c.391.041.381.123.41-.304l.09-2.169zm-.198.925c-.131.122-.273-.03-.233-.173.015-.134.354-.357.354-.109.015.11-.047.201-.121.282z"/><path d="M4.842 23.158c-.033-.024-.061-.059-.078-.054-.225.034-.244.006-.375.223l-.026-.489c.149.02.334.063.413-.089.126-.398-.197-.445-.432-.192l-.002-.304c.132-.001.26.035.391.04.095.005.121.021.125.119l-.015.747zm-.272-3.321c-.157-.006-.135-.153-.189-.24l-.195-.29c.026.18.078.346.114.515.017.08-.054.056-.102.066l.103.783c.003.023.015.055.032.064l.489.244c.009-.397-.03-.803-.251-1.141zm-.262.387c.002-.029.005-.075.023-.083.119-.077.34-.149.316.07.052.364-.272.256-.339.014z"/><path d="M4.503 19.702h-.02c-.108-.209-.125-.474-.353-.587l.045-.173c.165-.025.35.171.359.313.006.149-.016.299-.03.447z"/></g><path d="M4.187 19.766l-.031.025c-.121-.061-.676-.199-.636-.354a.6.6 0 0 1 .181-.459c.08.174.123.356.345.258l.141.529z" fill="#184137"/><path d="M6.375 12.319c-.013.225-.055.434-.075.657-.005.05-.025.062-.069.056-.252-.039-.507.017-.756-.064-.165-.043-.332-.035-.501-.01-.201-.01-.411-.043-.617-.025-.248-.005-.473.104-.714.146-.17.038-.35.045-.512.112l-.476.234c-.162.071-.327.147-.441.286-.185.095-.297.265-.427.416-.078.079-.157.156-.192.268-.067.173-.191.317-.242.497-.075.196-.096.405-.136.609-.088.387-.079.779-.05 1.171-.014.277.032.55.094.819.156.413.312.845.54 1.224.159.147.232.355.393.5l.741.766c-.084.152-.157.316-.189.49-.02.22-.072.399-.144.62-.398-.288-.736-.624-1.033-1.015-.128-.167-.244-.343-.395-.492-.389-.503-.707-1.095-.751-1.743.003-.28-.033-.563-.001-.84-.026-.187-.055-.373-.014-.562.138-.645.149-1.318.413-1.932.17-.328.396-.632.661-.889.557-.424 1.182-.769 1.853-.971.522-.165 1.054-.324 1.605-.335.293-.044.588.043.886.004.178-.018.36.002.547.005z" fill="#316956"/><path d="M4.213 24.246a.57.57 0 0 1-.069.257c.117.112.02.166-.015.267l-.013.359-.017.57c-.003.085-.07.13-.146.096-.203-.105-.441-.184-.663-.108-.286.062-.572.044-.86.07-.061.004-.086-.025-.081-.087l.03-.463c-.081-.741.121-1.477.134-2.219l.05-1.129c.023-.383.126-.754.248-1.116.112-.271.228-.815.461-.976.064-.036.111-.102.149-.138.388.291.653.083.671.368.046.224.1.436.115.668-.173-.033-.345-.037-.491-.122-.128-.097-.258-.071-.393-.049-.021.004-.047.02-.059.038-.154.22-.32.466-.226.746.099.273.285.54.552.664l.546.231c.104.048.053.281.074.36l-.076.118c.048-.003.053-.002.09-.008.087.392.05.776-.025 1.16l-.014-.838c0-.029-.024-.057-.037-.085l-.027.01.027 1.057c.001.032.025.064.037.097.047.09.004.095-.046.171l.074.032z" fill="#184137"/><path d="M9.532 19.844c-.039.319-.179.612-.269.916a1.94 1.94 0 0 1-.585.919c-.042.07-.173.131-.259.174-.102.055-.197.135-.305.162-.455.149-.913.315-1.399.328-.576.025-1.167.014-1.716-.189-.237-.079-.476-.148-.725-.179-.294-.065-.653-.102-.812-.397-.091-.114-.237-.211-.261-.364-.013-.105.005-.214.002-.32s.062-.162.154-.171c.22-.026.45-.031.652.077.202.064.402.135.593.224l.432.107c.327.105.647.229.959.373.043.017.102-.001.141.02.175.091.364.091.55.089.401-.02.77-.204 1.154-.308.392-.107.841-.311.956-.734.136-.483.087-.989-.024-1.472-.015-.107-.069-.216.053-.319s.202-.237.304-.36c.11.045.145.172.207.265.104.187.131.398.143.607.059.18.084.364.056.55z" fill="#316956"/><path d="M16.166 1.918c-.417.219-.851.402-1.296.557-.988.445-2.017.785-3.074 1.016-.522.188-1.073.159-1.617.187l-.617.079c-.278-.012-.569-.009-.839.07l-.015-.022c.185-.228.127-.473-.112-.639a.46.46 0 0 0 .258-.41c.055-.189-.17-.348-.263-.496.096-.067.236-.058.298-.17.237-.298.139-.476-.125-.7.642-.154 1.296-.34 1.966-.302.586.017 1.154.186 1.741.202l.721.054c.111.01.232.008.327.054.178.086.366.112.553.111.384.017.756.087 1.136.135.332.01.649.118.953.245l.005.03z" fill="#58906b"/><path d="M4.668 14.899c-.054-.293-.302-.345-.563-.347-.293-.016-.424.27-.482.508.048.339.206.449.543.41.248-.009.376-.146.499-.342.075-.078.024-.162.003-.229zm-.489-.276c.199.013.34.012.412.248-.223-.139-.447-.268-.736-.162.083-.076.219-.08.324-.086zm-.053.538c-.193-.033-.285-.365-.048-.427.101-.004.235.065.238.122.007.163-.08.303-.19.305zm-.417-.111c.041-.086.098-.164.149-.245l.019.012c-.042.18.052.313.16.402-.12.005-.358-.007-.328-.169zm.503.338c-.162.023-.341.069-.452-.142.288.084.554.067.778-.118l.046.051c-.082.126-.227.201-.372.209zm.104-.216l.076-.341a.33.33 0 0 1 .206.211l-.281.129z" fill="#0f181b"/><g fill="#567591"><path d="M4.591 14.871c-.223-.139-.447-.268-.736-.162.083-.076.219-.08.324-.086.199.013.34.012.412.248z"/><path d="M4.598 15.042l-.281.129.076-.341a.33.33 0 0 1 .206.211z"/></g><path d="M4.316 14.855c-.003-.057-.137-.126-.238-.122-.237.062-.145.394.048.427.11-.002.197-.142.19-.305zm-.092.115c-.089.144-.317-.013-.026-.132.078.024.035.091.026.132z" fill="#0f181b"/><path d="M4.037 15.218c-.12.005-.358-.007-.328-.169.041-.086.098-.164.149-.245l.019.012c-.042.18.052.313.16.402zm.547-.04a.48.48 0 0 1-.372.209c-.162.023-.341.069-.452-.142.288.084.554.067.778-.118l.046.051z" fill="#567591"/><path d="M3.452 16.167c-.074.101-.278.221-.308.024-.022-.331-.4-.473-.452-.799-.07-.215.049-.538.31-.37.095.066.151.277.007.328-.082.014-.091-.089-.155-.125l-.013.016.022.106c-.079.012-.065-.078-.055-.114.003-.025.048-.054.08-.064.076-.023.068.082.119.116.077-.136-.029-.239-.165-.246-.159.131-.099.345-.018.5.106.2.34.322.366.561.01.114.03.118.133.077.087-.026.059-.093.073-.164.072.045.097.107.057.153zm.703.194c-.269.304-.107.684.009 1.015l-.037.02c-.107-.125-.108-.296-.167-.444-.063-.238.003-.569.23-.692-.005.038-.001.077-.035.102zm-1.006-.722c-.087.089-.133-.095-.074-.154.082.027.092.081.074.154zm1.589 8.333c0-.248-.339-.025-.354.109-.04.144.102.296.233.173.074-.081.136-.172.121-.282zm-.27.232c-.068-.112.017-.224.129-.259.054-.023.063-.001.074.046-.015.09-.096.318-.202.213zm2.28-11.336c-.219.007-.314.342-.002.311.254-.031.236-.308.002-.311zm-.037.194l.006.031-.089-.06c.041-.063.097-.075.16-.034l-.077.063z" fill="#0f181b"/><path d="M6.711 13.062l.006.031-.089-.06c.041-.063.097-.075.16-.034l-.077.063z" fill="#184137"/><path d="M8.563 18.32c-.075-.018-.156-.028-.222.037-.002.003-.02-.01-.026-.012-.137.217-.057.41.219.375.189-.048.248-.345.029-.399zm-.007.221c-.019-.053-.045-.069-.089-.02l.071.04-.002.026c-.219.04-.075-.033-.157-.089.068-.141.26-.065.178.043z" fill="#0f181b"/><path d="M8.467 18.521l.071.04-.002.026c-.219.04-.075-.033-.157-.089.068-.141.26-.065.178.043-.019-.053-.045-.069-.089-.02z" fill="#184137"/><path d="M4.647 20.21c.024-.219-.197-.147-.316-.07-.018.009-.021.054-.023.083.067.243.391.351.339-.014zm-.053.16c-.032.007-.074.028-.087.017-.051-.047-.097-.101-.135-.16-.02-.09.092-.109.162-.111.117-.007.044.179.059.254z" fill="#0f181b"/><path d="M4.224 14.971c-.089.144-.317-.013-.026-.132.078.024.035.091.026.132z" fill="#567591"/></svg>