<svg id="Layer_13" xmlns="http://www.w3.org/2000/svg" viewBox="0 0 12.224 29.526"><defs><style>.cls-1{fill:#6a4e62}.cls-2{fill:#eac3a7}.cls-3{fill:#fff}.cls-4{fill:#d1d3d4}.cls-6{fill:#41586d}.cls-7{fill:#0f181b}.cls-9{fill:#567591}</style></defs><path class="cls-7" d="m12.045 7.444-.049-.518c-.022-.245-.04-.491-.066-.736-.024-.231-.046-.463-.086-.693-.04-.24-.092-.48-.154-.716-.07-.267-.15-.531-.237-.793a5.802 5.802 0 0 0-.202-.504c-.053-.122-.12-.239-.178-.36-.047-.1-.082-.207-.138-.301-.106-.179-.225-.35-.338-.525-.155-.243-.303-.491-.468-.728-.092-.132-.21-.247-.32-.367-.041-.046-.092-.083-.14-.123-.13-.108-.246-.238-.418-.288-.03-.009-.054-.037-.082-.054C8.966.615 8.776.455 8.558.38c-.27-.093-.556-.167-.852-.155-.084.003-.171-.02-.256-.039C7.318.16 7.188.113 7.048.15 7.007.16 6.96.154 6.915.15 6.758.141 6.6.122 6.444.121c-.12-.002-.24.017-.359.028-.086.008-.176.004-.258.028-.214.062-.424.139-.637.206-.142.044-.288.075-.429.123-.148.05-.302.096-.436.174-.168.097-.422.188-.602.359 0 0-.02-.026-.08-.07C3.582.922 3.51.9 3.439.945c-.117.075-.24.143-.346.231-.112.093-.112.152-.064.29a.148.148 0 0 1-.024.122.674.674 0 0 1-.299.214c-.124.045-.314.007-.39-.08-.087-.102-.18-.2-.266-.304a.653.653 0 0 1-.105-.177c-.035-.092-.049-.193-.083-.285-.104-.275-.24-.395-.48-.388-.114.004-.23.03-.343.052-.165.033-.332.073-.46.19a2.314 2.314 0 0 0-.425.497c-.147.236-.118.633.062.841.128.149.293.207.472.254.097.026.201.052.28.108.138.1.263.219.387.337.084.08.213.138.174.294-.028.196.063.273.167.38l.082.065c.166.11.342.152.538.083.024-.009.066.005.087.023a.751.751 0 0 0 .361.184.579.579 0 0 1 .371.213c.047.064.037.17.051.256.004.02.001.04.005.06.05.254-.033.484-.145.701-.063.12-.163.222-.252.328-.014.016-.057.02-.082.013-.147-.038-.162-.034-.23.102a3.739 3.739 0 0 0-.122.27c-.021.055-.053.12-.042.171.027.118-.037.19-.093.274-.079.118-.15.241-.21.369-.103.221-.194.448-.29.673-.062.149-.142.294-.182.448-.075.288-.125.583-.188.875-.03.145-.073.288-.097.434a1.152 1.152 0 0 0 0 .268c.015.19.018.382.058.567.126.585.253 1.17.467 1.733a2.2 2.2 0 0 0 .41.688c.15.167.313.324.485.468.26.216.52.435.801.619.197.128.424.221.649.293.306.097.615.193.947.184.178-.005.359.037.55.06.005.05.016.105.015.16-.007.38-.025.76-.023 1.141 0 .301.022.603.037.904.01.183.025.365.037.55-.134.09-.138.09-.136.256.002.086.023.17.035.256.013.1.02.207.162.207.004 0 .008.01.008.01-.05.182-.102.36-.15.54-.039.137-.082.273-.108.412-.034.177-.05.357-.078.535-.045.282-.117.563-.135.847-.03.474-.03.95-.038 1.425-.005.314-.003.628-.003.942 0 .185.004.37.007.556.006.294.011.588.02.882.006.18.018.361.029.542l.06.88.06.9c.026.35.052.7.076 1.05.008.114-.003.23.019.341.018.093-.012.118-.093.117-.058-.001-.087.011-.074.082.018.093.013.189.028.281.018.104.05.201.182.213.052.005.102.02.158.033-.001.05-.018.104 0 .142.035.077-.004.124-.052.16a3.85 3.85 0 0 1-.333.226c-.1.06-.202.112-.244.231-.033.09-.07.18-.099.271-.076.24.125.43.35.383.183-.038.301-.169.447-.289.008.033.025.063.022.09-.01.087.041.12.111.142l.076.022c.119.04.263-.049.26-.174-.004-.16-.02-.32-.042-.477-.026-.198-.125-.381-.097-.592.023-.168.008-.165.172-.177.06-.004.149-.021.17-.061a.464.464 0 0 0-.049-.547.124.124 0 0 1-.024-.053c-.038-.208-.084-.415-.11-.625-.034-.288-.056-.577-.079-.866-.01-.127-.006-.255-.013-.383l-.057-.972c-.01-.143-.021-.286-.035-.43-.02-.205-.05-.41-.06-.616-.015-.276-.018-.552-.023-.828-.007-.35-.017-.7-.014-1.05.002-.253.03-.505.034-.758.006-.34.044-.675.105-1.009.063-.343.109-.69.171-1.033a.91.91 0 0 1 .17-.424c.063-.08.155-.088.204-.003.039.067.076.15.071.223-.01.175-.04.35-.074.523-.054.28-.131.556-.172.837-.045.307-.059.617-.088.926-.012.126-.033.252-.047.378a.7.7 0 0 0-.003.122c.009.13.027.26.027.389 0 .127-.022.254-.026.382-.01.34-.017.68-.025 1.02 0 .023-.002.047 0 .07l.056.983c.003.071-.008.144-.002.215.024.262.054.523.08.785.023.231.047.464.066.696.023.28.04.56.061.839.006.08.018.16.022.239.006.138.091.278-.014.415-.017.023-.007.073 0 .109.015.074.028.15.055.22.036.091.063.194.196.194.116 0 .232.008.347.018.03.003.075.02.086.044.056.123-.006.31-.124.38a1.15 1.15 0 0 0-.516.69c-.038.132.007.248.133.265.202.026.414.07.595-.086.05-.043.11-.071.179-.115.008.04.018.07.019.1.005.116.036.147.145.136.025-.002.051-.011.075-.007.112.017.163-.02.167-.134.006-.183.015-.367.01-.55 0-.077-.011-.17-.055-.227-.122-.161-.092-.339-.084-.515 0-.024.031-.057.055-.065.043-.015.091-.017.137-.02.165-.01.25-.132.204-.291-.048-.16-.09-.32-.075-.492.008-.1-.007-.2-.012-.301-.018-.371-.045-.743-.052-1.114-.007-.416.015-.832.004-1.247-.009-.323-.054-.646-.074-.969-.02-.306-.032-.612-.04-.919-.013-.47-.022-.941-.027-1.412a2.915 2.915 0 0 0-.107-.75 1.782 1.782 0 0 1-.062-.684c.015-.134.032-.272.117-.387.178-.24.33-.49.37-.795.033-.244.073-.488.104-.732.01-.087.005-.175.008-.264.065-.016.126-.045.186-.043.114.003.12-.064.095-.137-.088-.247-.08-.5-.076-.755.001-.102.007-.204 0-.304-.016-.21-.044-.418-.058-.627a4.986 4.986 0 0 1-.01-.465 8.146 8.146 0 0 0-.034-.895c-.028-.342 0-.688-.005-1.032-.003-.17-.032-.339-.043-.508-.005-.07-.03-.151.073-.184.319-.102.605-.266.868-.47.25-.195.5-.39.73-.608.166-.157.3-.348.442-.527.086-.108.147-.239.246-.33.194-.177.35-.381.465-.61.181-.367.331-.749.498-1.123.082-.183.146-.367.138-.572-.002-.058.02-.117.032-.176.04-.205.127-.402.107-.618ZM3.54 1.882c.124-.106.25-.21.375-.315l.039.039c-.04.05-.072.107-.12.146-.071.062-.152.112-.231.164-.015.01-.04.008-.059.007-.003 0-.01-.036-.004-.041Zm.376-.114c-.022.104-.16.197-.276.18l.276-.18Zm-.03.215c.058-.036.108-.085.16-.13.058-.052.099-.107.066-.194-.01-.027.014-.067.016-.079.378-.16.943-.328 1.35-.36.28-.024.657.01.92.065.303.065.591.198.883.309.212.08.424.166.629.263.212.1.418.214.625.326.207.112.39.256.562.415.117.109.259.193.367.309.32.341.662.666.833 1.122.082.22.21.422.29.641.074.204.13.418.161.633.047.335.125.666.128 1.01.003.336.05.672.07 1.009.006.075-.014.152-.023.229-.017.149-.032.298-.052.447-.01.076-.03.15-.045.224-.032.156-.053.316-.099.467-.056.183-.129.361-.202.539-.07.17-.143.339-.225.504a7.363 7.363 0 0 1-.314.586.926.926 0 0 1-.494.4c-.158.055-.303.15-.46.21-.212.082-.43.148-.646.222-.09.03-.18.063-.287.1-.094-.17-.188-.343-.284-.515-.03-.055-.067-.106-.097-.161-.034-.063-.076-.125-.093-.193-.051-.2-.133-.363-.351-.425-.091-.026-.145-.099-.147-.2 0-.02.004-.04.001-.06a.444.444 0 0 1 .191-.454c.152-.112.296-.236.433-.366.186-.176.338-.373.37-.64.012-.106.04-.21.072-.31.008-.023.057-.045.088-.046.034-.002.067.027.102.033.159.029.23-.009.29-.163.115-.296.239-.59.333-.892.086-.275.119-.563.02-.847a1.205 1.205 0 0 0-.271-.437.92.92 0 0 1-.122-.163.95.95 0 0 0-.343-.335A.734.734 0 0 0 8.007 5a2.813 2.813 0 0 0-.841.044c-.147.028-.309.078-.347.266-.009.046-.03.104-.013.14.038.072.01.13-.01.194-.044.149-.074.302-.128.447-.06.163-.137.321-.21.48-.057.123-.118.244-.18.365-.04.078-.026.136.058.168.055.022.112.044.17.054.103.018.14.06.109.157-.078.235-.167.467-.238.703a.337.337 0 0 0 .02.206c.039.094.04.18.009.273a1.37 1.37 0 0 0-.075.513c.008.155.098.261.22.337.11.069.146.174.17.286.024.112-.084.139-.144.191-.121.105-.253.198-.374.304a.349.349 0 0 0-.085.423c.068.148.002.248-.049.366-.085.196-.152.401-.249.591-.094.182-.127.376-.159.572-.021.132-.03.266-.042.399-.005.046 0 .088-.067.09-.19.007-.382.034-.572.023-.224-.012-.455-.036-.651-.16-.13-.083-.246-.19-.363-.29a6.139 6.139 0 0 1-.797-.823 1.622 1.622 0 0 1-.25-.412c-.069-.183-.094-.383-.14-.575-.009-.038-.028-.073-.038-.11-.045-.17-.087-.34-.131-.509l-.006-.019c-.145-.33-.081-.666-.034-1.006.036-.258.126-.499.204-.744.084-.268.163-.537.244-.806.048-.161.091-.325.145-.484.017-.048.06-.088.094-.13.13-.166.243-.343.272-.554.007-.058-.048-.124-.075-.188.054-.119.098-.262.18-.377.07-.097.178-.168.278-.239.103-.072.214-.132.325-.191a.13.13 0 0 1 .098-.007 3.969 3.969 0 0 1 .479.23c.135.076.268.155.402.232.083.047.168.09.248.143.025.015.04.051.05.08.06.16.104.327.279.412.25.123.496.109.731-.028a.341.341 0 0 0 .162-.344.806.806 0 0 0-.329-.572.334.334 0 0 0-.321-.042c-.106.037-.168-.013-.241-.063-.165-.112-.328-.225-.496-.332-.069-.043-.148-.07-.224-.102-.16-.07-.173-.193-.044-.31a.49.49 0 0 0 .15-.431c-.014-.13-.071-.254-.114-.379a.152.152 0 0 0-.058-.078c-.027-.015-.049-.013-.078-.003-.017.005-.036.046-.033.069.007.062.018.134.018.177 0 .02 0 .045-.022.014-.003-.004-.039-.075-.065-.106-.027-.033-.074-.063-.11-.108a2.25 2.25 0 0 1-.085-.11c-.097-.132-.242-.173-.386-.194-.118-.017-.244.008-.364.029-.063.01-.12.054-.203.093-.084-.103-.24-.174-.323-.332a.806.806 0 0 0-.199-.226c-.063-.054-.065-.11-.055-.178a.733.733 0 0 1 .272-.45c.018-.016.064-.028.074-.018.171.173.301.027.436-.057Zm3.147 8.703c-.15.07-.314-.015-.412-.213-.058-.116-.018-.243.116-.307.004.065.01.117.01.17-.002.156.056.237.182.25.124.013.224-.078.245-.221l.011-.088a.319.319 0 0 1-.151.41Zm.013.46c-.003.014-.052.032-.063.024-.025-.02-.041-.052-.065-.085a3.857 3.857 0 0 0-.056.058c-.014-.094-.03-.174.066-.24l.018.139.052-.12c.052.074.069.147.048.225Zm-.258-.035-.041-.008.044-.215.043.008c.035.08-.043.14-.046.215Zm-.29-.769.002.04c-.039.007-.079.024-.115.018-.022-.004-.037-.044-.056-.068l.022-.03.148.04Zm-.07-.174c.023-.013.047-.037.07-.036.026 0 .052.024.102.051-.047.025-.073.049-.088.043-.031-.01-.056-.038-.084-.058Zm.095.406-.193.079c.03-.12.066-.134.193-.08Zm-.136.14c.053-.028.107-.052.16-.077l.015.02-.086.093.12.003c-.048.041-.085.088-.1.082-.044-.019-.08-.056-.12-.089-.003-.002.003-.029.011-.032Zm.236.062c.049.045.118.079.121.12.005.056-.038.116-.06.173l-.18-.126.12-.167Zm.33-2.54c-.04.074-.108.077-.175.065-.132-.023-.225-.105-.237-.21l.412.146Zm-.4-.204c.006-.014.046-.087.116-.086a.452.452 0 0 1 .297.095c.029.06.022.128.017.143-.124-.047-.306-.104-.43-.152Zm.02.368c.004-.016.046-.035.072-.037.07-.003.134.039.204.032.043-.004.101-.015.134-.042a.478.478 0 0 0 .096-.167c.03-.08-.024-.21-.086-.247-.11-.065-.224-.053-.34-.106-.056-.025-.08-.057-.062-.117l.116-.37c.004-.013.008-.026.01-.04.021-.152-.03-.212-.213-.25a1.872 1.872 0 0 1-.096-.023c-.054-.014-.057-.042-.033-.09.109-.228.225-.454.319-.689.058-.146.082-.306.12-.46.012-.055.01-.114.028-.167.008-.025.046-.058.069-.057.161.007.268-.117.408-.162.176-.056.35-.124.54-.07.108.031.17.108.205.203.05.138.11.28.122.423.008.1-.051.208-.089.31a1.381 1.381 0 0 1-.102.213c-.049.086.005.126.067.159.061.032.127.053.167-.036.008-.018.019-.04.034-.048.058-.026.122-.07.177-.062.04.006.086.078.102.13.044.147-.004.285-.07.418-.06.118-.112.238-.169.356-.028.059-.068.114-.085.175-.071.25-.134.503-.202.755a.81.81 0 0 1-.23.406c-.122.109-.257.204-.372.319-.146.147-.359.245-.396.479-.03.192-.027.386.025.577.018.07.027.144.027.216 0 .038-.021.103-.044.108-.06.015-.128.006-.192.002-.01 0-.024-.022-.026-.035-.007-.08-.012-.16-.017-.24h.007c.016-.173.025-.347.05-.52.024-.18-.072-.293-.205-.38a.333.333 0 0 1-.162-.296c.01-.191.056-.38.093-.57Zm.516 2.544.073.06-.003.134-.039.003a20.66 20.66 0 0 1-.051-.188l.02-.009Zm.075.06-.005-.017-.01-.033a.373.373 0 0 1-.005-.023c-.003-.021 0-.044 0-.065.02.009.045.015.063.029a.099.099 0 0 1 .028.051c.007.025.007.053.01.08l-.08-.023ZM3.217 5.815c.06.074.014.209-.086.282l.086-.282Zm-.163.405c-.049-.083 0-.246.107-.33l-.107.33Zm.266-.179c-.02.08-.042.16-.065.246-.103-.076-.085-.152.065-.246Zm1.308-2.238c.023-.215-.107-.373-.29-.514-.011-.008-.057-.04-.066-.051-.006-.007-.043-.026.053-.026.289 0 .467.412.46.742-.01.032.045.03.045.01a1.288 1.288 0 0 0-.072-.438c-.004-.012.062.05.08.088.059.119.083.15.096.276.001.02.042.036.044.01-.022-.14-.013-.303-.024-.362-.023-.125.01-.113.042-.082.065.064.08.207.097.253.025.061.038.127.035.194-.006.14-.08.288-.268.42-.007-.022-.017-.042-.025-.062H4.83c-.166-.065-.26-.21-.397-.316l-.01-.01c-.074-.047-.11-.117-.108-.225.003-.183-.108-.276-.307-.295-.027-.002-.053-.001-.081-.002.018-.14.09-.2.202-.152.106.045.213.102.298.178.13.117.168.221.144.349.005.029.033.06.057.015Zm1.58 2.11c.171-.075.278-.273.24-.444-.007-.03-.008-.06-.014-.109.178.231.154.54-.158.612-.197.045-.38.032-.529-.116-.035-.034-.043-.096-.063-.144l.039-.031c.035.025.077.045.103.078.09.115.284.196.382.153Zm-.198-.312c.023-.07.046-.154.099-.195.042-.033.085.032.105.086.029.079-.034.208-.116.211-.009-.004-.03-.008-.042-.022-.02-.024-.053-.06-.046-.08Zm-.28-.241c-.031.062-.01.151-.012.24-.257-.105-.479-.21-.665-.378-.102-.092-.215-.171-.32-.26-.084-.07-.06-.21.026-.289.111-.102.217-.038.326-.01.124.032.734.42.83.524-.067.06-.15.104-.185.173ZM4.22 3.676a.134.134 0 0 1-.068.112c-.046.024-.11.026-.152-.008a.123.123 0 0 1-.04-.063.116.116 0 0 1-.01-.065.184.184 0 0 1-.008-.055.101.101 0 0 1 .172-.071c.016.004.029.013.04.024a.125.125 0 0 1 .019.014c.03.028.05.07.047.112Zm-.05.205c.035.001.08.003.104.023.11.091.213.189.32.283.016.014.043.018.056.033.046.056.108.108.127.173.03.102-.09.09-.138.13-.107.087-.105.201-.107.319l-.003.114c-.104-.077-.198-.136-.28-.21a8.413 8.413 0 0 1-.501-.47.391.391 0 0 1-.084-.218c-.012-.106.128-.19.253-.176.083.01.168-.003.252 0Zm-.686-2.389c-.038.036-.073.073-.113.106-.01.009-.034.002-.053.002.007-.017.008-.042.021-.052.038-.03.08-.055.12-.082l.024.026Zm-.046-.243-.24.168c-.036-.117.069-.195.24-.168Zm-.714.635c.154.009.285-.02.396-.125.047-.045.076-.03.117.01.177.18.177.177-.004.343a.731.731 0 0 0-.185.318c-.04.118-.047.12-.13.027s-.142-.186-.27-.263c-.06-.036-.122-.063-.196-.017-.107.067-.152.075-.259.142-.012.007-.064.026-.07.017-.042-.07-.074-.138-.223-.13.246-.204.508-.342.824-.322Zm-.646.472c-.03.06-.066.107-.123.123-.07.02-.136-.016-.143-.07-.009-.058.017-.15.087-.145.078.007.105-.002.18.092ZM.56 2.27C.303 2.165.216 1.93.184 1.688c-.024-.18.069-.357.187-.5.09-.11.183-.227.3-.3.16-.1.34-.18.545-.165.194.025.363.091.447.29.05.12.112.234.154.355.06.173.018.343-.064.497a.982.982 0 0 1-.648.51c-.2.05-.373-.034-.546-.105Zm1.66 1.368c-.026.003-.054 0-.098-.002-.127.016-.273-.07-.387-.158-.077-.06-.163-.151-.143-.181.023.003.09.109.238.17a.49.49 0 0 0 .327.009c.025-.007.06-.008.08.005.041.03.105.068.107.105.003.086-.078.045-.124.051Zm-.652-.592.568.36c-.006.012-.082.033-.116.035-.19 0-.291-.064-.416-.202-.039-.059-.037-.128-.036-.193Zm.799.193c-.038.07-.075.07-.133.023-.298-.246-.598-.49-.897-.734-.079-.064-.078-.094.009-.145.264-.154.46-.362.542-.666.026-.094.07-.099.14-.026.04.04.075.084.116.121.086.079.087.105-.02.154a.74.74 0 0 0-.35.33c-.033.062-.057.132.013.182.15.106.24.023.325-.061l.003-.004c.087-.044.175-.087.26-.133.12-.065.188-.056.293.063.074.085.138.18.2.273.038.055.054.1-.027.155-.186.124-.364.264-.474.468Zm.178.262c-.008.018-.037.027-.056.04-.023-.044-.066-.09-.064-.134a.303.303 0 0 1 .064-.163c.134-.173.275-.34.498-.402a.611.611 0 0 1 .187-.012c.02.001.037.033.05.045-.259.187-.544.322-.679.626Zm.652.423a.544.544 0 0 1-.354-.19c-.157-.187-.16-.262.01-.442.103-.11.217-.209.35-.336l.552.558c-.198.121-.447.158-.558.41Zm-.276 1.51c.104-.155.206-.311.316-.461a.386.386 0 0 0 .071-.338 1.787 1.787 0 0 1-.048-.647.318.318 0 0 1 .086-.166c.145-.154.33-.219.546-.229q.006.188-.155.249c-.114.043-.17.17-.141.292a.877.877 0 0 0 .507.632c.035.016.063.046.102.076-.138.103-.262.201-.391.293-.186.132-.29.327-.388.523-.038.077-.065.063-.118.037l-.355-.169c-.042-.02-.062-.048-.032-.092Zm-.054.564v-.003c.001-.005.003-.01.006-.014 0-.002.001-.004.003-.005v-.001a.056.056 0 0 1 .006-.009.034.034 0 0 1 .006-.007l.007-.006.028-.025.012-.012c0-.002.003-.004.004-.006a.02.02 0 0 0 .004-.005v-.001l-.002.013a.62.62 0 0 0-.006.034v.002l-.01.051.058-.05c-.003.116.022.222-.104.294.001-.068.028-.15 0-.201a.079.079 0 0 1-.012-.05Zm-.092-.301-.139.418-.064-.013c.02-.163.083-.3.203-.405Zm-.275.055c.044-.096.1-.184.225-.178-.144.112-.201.27-.252.436-.078-.065-.077-.036.027-.258Zm2.652 7.852c-.247-.03-.5-.033-.74-.094-.207-.053-.4-.168-.596-.259-.075-.034-.144-.082-.22-.117a2.956 2.956 0 0 1-.703-.474c-.2-.174-.397-.355-.525-.592-.168-.31-.334-.62-.493-.935a3.736 3.736 0 0 1-.234-.545 7.344 7.344 0 0 1-.189-.758c-.031-.153-.034-.312-.051-.484.04-.33.077-.673.126-1.014.03-.206.067-.413.12-.615.03-.119.098-.229.144-.345.048-.12.078-.247.135-.361.14-.281.292-.557.442-.834.007-.014.051-.023.067-.014.193.108.383.221.576.33.058.032.073.06.046.127-.098.232-.198.463-.278.701-.115.34-.214.687-.318 1.031-.031.101-.073.201-.086.305a3.816 3.816 0 0 0-.033.533c.004.23.009.464.048.69.036.202.115.396.181.593.037.109.083.215.13.32.111.252.28.465.448.682.139.18.254.38.398.555.118.144.246.29.398.392.17.113.372.179.56.263.12.054.24.114.365.154.124.04.255.07.385.086.224.027.45.036.673.06a.685.685 0 0 0 .442-.096c.123-.075.257-.143.356-.243a.862.862 0 0 0 .244-.441c.034-.172.25-.329.422-.326.06.001.143-.021.177.01.035.032.026.115.034.176.018.135.036.27.05.406.012.12-.07.201-.15.262-.21.16-.43.311-.654.456-.127.082-.268.14-.4.216-.107.06-.204.14-.314.192-.075.036-.164.042-.248.057-.249.043-.491-.019-.735-.05Zm1.004 15.54c-.086-.002-.155.005-.218-.01-.026-.006-.04-.06-.06-.094-.022-.036-.037-.092-.068-.105-.031-.012-.087.01-.118.034a.739.739 0 0 0-.125.136c-.048.063-.11.066-.18.062-.103-.006-.206-.006-.317-.008-.042-.105.026-.278.134-.3l.015.12c.038-.032.074-.049.087-.076.006-.014-.028-.052-.05-.071-.045-.041-.064-.079-.005-.123l.03-.028c.115-.111.191-.1.22.06.022.128.076.07.137.055l-.196-.231.15-.06c.115.222.26.294.497.227l.067.412Zm-.113-.64.01.085c-.104-.005-.215.06-.285-.064l.275-.02Zm-.243-.43c0-.07.057-.085.108-.093.049-.007.1 0 .158.002l-.006.251c0 .017 0 .039-.01.049-.048.049-.099.095-.149.142-.03-.05-.07-.098-.085-.153-.018-.063-.015-.132-.016-.198Zm.47-.516c-.012.051-.009.133-.04.149-.094.05-.2.079-.304.107-.044.012-.094 0-.142-.001-.059-.002-.118-.007-.177-.003-.079.004-.097-.047-.104-.107-.008-.074 0-.151.082-.176.177-.054.358-.088.546-.056.018.003.038-.012.057-.014.08-.009.103.02.083.1Zm1.6.84c.08.16.052.326.036.492-.013.13-.022.142-.139.127-.024-.003-.061-.03-.065-.051-.015-.088-.069-.049-.11-.037-.02.005-.036.025-.052.04-.128.13-.29.126-.454.117-.094-.004-.19 0-.28.019-.082.017-.085-.029-.071-.074.027-.083.068-.161.108-.252.071.056.123.096.049.167.08.067.132.019.17-.035.05-.07-.027-.089-.064-.103-.064-.023-.092-.065-.068-.12.018-.038.066-.086.103-.087.058-.002.116.031.114.11-.001.059.004.134.076.126.045-.005.11-.067.118-.111.01-.052-.017-.118-.105-.131-.045-.007-.088-.062-.118-.105-.007-.01.045-.064.074-.093.018-.018.044-.027.066-.04.172.148.334.153.512.015.05-.037.072-.027.1.027Zm-.455-.46c.011-.043.077-.074.123-.103.027-.016.063-.016.125-.03.016.028.043.059.05.094.013.05.02.105.013.156-.005.038-.03.09-.059.103-.054.024-.133.05-.176.027-.094-.049-.1-.158-.076-.248Zm.688-.6c.022.068.043.14.043.211 0 .032-.05.088-.08.091a8.15 8.15 0 0 1-.55.027c-.144.003-.288-.003-.43-.008-.077-.003-.153-.014-.233-.02-.019-.256-.02-.266.218-.303.289-.044.58-.069.87-.103.085-.01.138.03.162.105Zm.118-9.19c-.017.217-.05.428-.14.62a4.808 4.808 0 0 1-.382.643.62.62 0 0 0-.113.31c-.03.366.02.727.077 1.088.019.115.025.233.028.35.005.235.004.471.005.707 0 .283-.008.565.003.847.007.182.044.363.063.545.015.152.023.306.032.46.02.313.037.626.057.94.015.222.029.446.049.669.017.196.043.39.064.585.003.03 0 .061 0 .092.004.33-.047.66.016.989.016.081-.013.121-.11.119a10.584 10.584 0 0 0-.727.003c-.108.005-.213.04-.338.065-.013-.142-.03-.277-.039-.412-.02-.283-.03-.567-.056-.85-.027-.288-.074-.574-.104-.861-.008-.082.017-.166.02-.25a3.64 3.64 0 0 0-.004-.315c-.008-.157-.023-.313-.036-.47-.012-.153-.025-.306-.035-.459a4.393 4.393 0 0 1-.01-.211l-.01-.444c-.003-.148-.015-.297-.007-.444.009-.139.04-.276.06-.415.004-.034-.01-.07-.008-.105.011-.375-.001-.75.063-1.122.02-.12.009-.244.012-.366.003-.108-.007-.218.011-.323.024-.139.076-.272.107-.41a8.88 8.88 0 0 0 .087-.458c.005-.028-.017-.06-.013-.089.014-.094.043-.186.05-.28.01-.155.012-.311.007-.467-.004-.116-.238-.273-.32-.235a.526.526 0 0 0-.213.194c-.163.26-.195.559-.238.855-.034.23-.079.458-.12.687-.022.12-.025.236-.013.36.016.169-.016.342-.025.513a50.42 50.42 0 0 0-.036.708c-.007.16-.018.32-.01.48.013.254.04.506.06.758.002.038-.003.075-.001.113.018.374.035.75.054 1.124.013.247.028.494.044.741l.059.89c.007.115.005.23.014.343.018.226.042.451.061.677.013.15.023.3.034.45l.015.169c.006.07.003.126-.098.12-.161-.011-.324-.01-.507-.014l-.01-.711-.027-1.464c-.003-.179 0-.357-.008-.536-.016-.313-.04-.627-.057-.94-.008-.139-.002-.277-.013-.414-.027-.325-.062-.65-.092-.975-.01-.1-.018-.2-.018-.3 0-.19.03-.383.002-.568-.02-.137-.004-.274-.031-.409-.01-.055.011-.116.014-.174.015-.315.021-.63.045-.944.027-.357.063-.714.107-1.07.04-.324.09-.646.145-.968.015-.084.06-.162.091-.243.011-.028.033-.055.033-.082-.002-.134.07-.184.192-.182.22.004.441.006.662.015.206.008.412.021.617.036.211.016.421.036.632.054.013 0 .028.005.04 0 .138-.053.163.033.186.14.037.172.066.337.052.52Zm-2.333-.872.009-.378q.065.318-.009.378Zm.25-.408a.97.97 0 0 1 .036-.004l.037.301-.047.009c-.01-.102-.018-.204-.026-.306Zm.1-.003c.02 0 .038-.003.057-.004l.015.365-.042.003-.03-.364Zm.174.008c.026.018.055.028.055.04a1.58 1.58 0 0 1-.022.31l-.033-.35Zm.095-.012.06-.038c.014.03.034.058.038.088.01.09.017.179.019.268 0 .016-.023.043-.04.047-.011.004-.044-.02-.045-.035-.014-.11-.022-.22-.032-.33Zm.23.058c0-.022.026-.045.04-.067.014.02.034.04.038.062.015.081.027.163.034.244.002.026-.014.053-.022.08h-.03c-.015-.023-.042-.045-.045-.07a1.904 1.904 0 0 1-.015-.248Zm.123-.004c-.003-.018.027-.052.049-.059.017-.005.063.018.063.028-.003.114-.01.228-.019.341 0 .005-.016.009-.037.02-.02-.114-.042-.222-.056-.33Zm.226-.01c0-.015.02-.03.031-.045.015.015.04.029.043.046.016.107.027.215.04.323l-.034.026c-.017-.02-.046-.038-.05-.06a3.378 3.378 0 0 1-.03-.29Zm.12.018c0-.02.024-.04.037-.061.02.013.056.025.057.04.01.114.011.228.015.352-.111-.034-.067-.127-.093-.185-.019-.043-.017-.097-.016-.146Zm.256-.047.038-.007.07.365c-.038-.006-.077-.002-.083-.015a.473.473 0 0 1-.025-.343Zm.157.018h.046l.024.325c-.09.01-.107-.039-.117-.327l.047.001Zm.094.124c0-.047.023-.095.035-.143.02.038.047.073.057.113.015.053.02.11.02.166 0 .06-.023.104-.081.081-.012-.08-.03-.148-.031-.217Zm.164-.132c.111.032.12.065.084.327-.088.003-.14-.202-.084-.327Zm.156.165c-.003-.038-.013-.077-.021-.123.076-.016.109.003.104.072-.003.06 0 .12-.007.18-.002.016-.029.028-.044.042-.011-.015-.03-.03-.031-.045-.004-.042.002-.084-.001-.126Zm.15.17-.015-.287.046-.003.02.288c-.017 0-.033.002-.05.003Zm-.558-.608c-.126-.029-.241.004-.361.005-.09 0-.18.007-.27.013l-.932.058c-.03.002-.063.006-.09-.003-.025-.007-.06-.03-.062-.047a64.11 64.11 0 0 1-.046-1.136c-.006-.177.001-.354 0-.53 0-.162-.004-.323-.008-.485-.005-.158.045-.316-.006-.476-.02-.06.01-.093.087-.122.282-.102.556-.227.833-.343.122-.05.242-.117.37-.143.318-.063.478-.29.62-.546.077-.137.078-.28.063-.434-.016-.172-.01-.345-.072-.511-.057-.153-.229-.265-.386-.239-.072.012-.144.022-.214.038-.032.007-.07.022-.087.046-.104.139-.212.276-.301.425-.07.114-.138.213-.273.26-.2.07-.403.11-.618.088-.014-.178-.045-.346-.033-.51.012-.167.06-.333.108-.494.07-.234.154-.464.24-.72.122.086.235.146.32.233.16.164.362.201.566.183.135-.012.253-.11.342-.222.068-.083.132-.17.205-.265.043.077.09.145.121.22.12.287.24.575.346.867.04.11.041.234.062.352.025.136.057.272.077.409.02.141.042.284.043.427.004.382-.008.763-.002 1.145.003.183.036.364.053.547.01.112.022.225.024.337.005.233-.002.466.007.698.007.193.036.386.043.579.004.113-.013.228-.028.34-.004.024-.043.062-.061.06-.228-.03-.458-.051-.68-.103Zm.788.543c-.002.012-.04.032-.05.027-.025-.016-.062-.042-.062-.064 0-.046.02-.093.035-.149.107.038.084.117.077.186Zm3.444-9.693c-.015.291-.046.58-.181.853-.145.292-.255.601-.388.9-.038.083-.112.15-.156.232-.095.174-.175.356-.272.529-.096.17-.205.333-.309.5-.11.176-.206.362-.33.527a3.496 3.496 0 0 1-.431.471c-.21.191-.433.369-.661.538-.139.104-.297.181-.447.268-.077.045-.158.085-.256.137-.025-.119-.04-.233-.073-.343-.05-.17-.11-.337-.17-.504-.023-.063-.03-.094.05-.126.322-.126.639-.261.955-.399.08-.035.15-.092.224-.139.15-.092.309-.172.446-.279.086-.066.14-.173.208-.26.184-.24.29-.52.406-.793.087-.202.238-.416.31-.625.1-.293.047-.356.144-.65.026-.082.103-.397.112-.482.031-.314.058-.628.084-.942.014-.168.03-.337.03-.506.001-.153-.047-.312-.02-.459.053-.29-.015-.568-.057-.844-.039-.257-.123-.513-.307-.72-.065-.072-.098-.171-.146-.258-.049-.09-.096-.182-.148-.271-.048-.083-.101-.163-.153-.244-.13-.204-.252-.41-.45-.564-.18-.14-.34-.309-.516-.456-.213-.176-.43-.352-.656-.51-.105-.074-.24-.106-.36-.159-.13-.057-.257-.121-.388-.174-.283-.113-.563-.241-.854-.325-.318-.09-.623-.283-.96-.298-.157-.007-.35-.024-.506-.024-.294 0-.56.06-.847.134-.171.043-.554.184-.717.323a.342.342 0 0 1-.03-.035c-.077-.102-.151-.207-.228-.314A1.23 1.23 0 0 1 4.41.798c.216-.057.427-.129.64-.2.391-.13.779-.276 1.19-.336.05-.007.105.017.157.015.18-.006.361-.027.542-.023.135.003.27.03.405.055.265.048.529.098.791.155.097.02.194.05.281.095.126.065.244.144.361.223.144.098.292.192.422.305.194.168.378.348.56.53.157.157.266.35.388.535.158.24.347.458.516.69.093.126.175.26.26.393.062.098.128.196.179.3.066.135.125.274.176.416.055.155.105.312.145.472.062.24.115.482.166.724.075.35.149.7.214 1.051.025.13.031.266.036.399.01.289.032.579.017.867Z"/><path class="cls-4" d="M2.08 2.356c-.031.06-.067.107-.124.123-.069.02-.135-.016-.143-.07-.008-.057.017-.15.087-.144.079.006.105-.003.18.09ZM4.221 3.676a.134.134 0 0 1-.068.112c-.045.025-.11.026-.151-.008a.123.123 0 0 1-.04-.063.116.116 0 0 1-.01-.065.184.184 0 0 1-.01-.055c.001-.028.014-.052.032-.071a.101.101 0 0 1 .14 0c.017.004.03.013.04.024a.125.125 0 0 1 .02.014c.03.029.05.071.047.112Z"/><path class="cls-2" d="M5.128 3.904c-.005.14-.08.288-.268.42-.007-.022-.016-.042-.025-.062h-.004c-.167-.065-.261-.21-.397-.316l-.01-.01c-.074-.047-.11-.117-.108-.225.003-.183-.108-.276-.308-.295-.026-.002-.053-.001-.08-.002.017-.14.09-.2.202-.152.105.045.212.102.297.178.131.117.169.221.145.35.004.028.033.059.056.014.023-.215-.107-.373-.29-.514-.011-.008-.057-.04-.066-.05-.005-.008-.043-.027.054-.027.288 0 .466.412.458.742-.009.032.046.03.047.011a1.288 1.288 0 0 0-.073-.439c-.004-.012.062.051.08.089.06.118.083.149.096.276.002.018.042.035.044.008-.022-.14-.013-.302-.024-.36-.023-.126.011-.113.042-.083.065.065.08.207.098.254.024.06.037.126.034.193ZM3.234 2.112a.731.731 0 0 0-.185.318c-.04.118-.047.121-.13.027s-.142-.186-.27-.263c-.06-.036-.122-.063-.195-.017-.107.067-.152.075-.26.142-.012.008-.064.026-.07.017-.042-.07-.073-.138-.222-.13.246-.204.507-.342.823-.322.154.009.285-.02.396-.125.048-.045.077-.03.117.011.177.179.177.176-.004.342ZM8.542 6.63c-.016-.052-.062-.124-.102-.13-.055-.008-.119.036-.177.062-.015.007-.026.03-.034.048-.04.089-.106.068-.167.036-.061-.033-.116-.073-.066-.16a1.4 1.4 0 0 0 .101-.213c.038-.101.098-.209.089-.31-.012-.143-.07-.284-.122-.422a.303.303 0 0 0-.204-.202c-.192-.055-.364.013-.54.07-.14.044-.248.168-.409.161-.023 0-.061.032-.069.057-.018.053-.015.112-.029.167-.036.154-.06.314-.12.46-.093.235-.209.46-.318.689-.023.048-.02.076.033.09.032.009.064.017.096.023.183.038.234.099.213.25-.002.014-.006.027-.01.04l-.116.37c-.018.06.007.092.062.117.116.053.23.041.34.106.063.037.117.166.086.247a.476.476 0 0 1-.096.167c-.033.027-.091.038-.134.042-.07.007-.133-.035-.204-.032-.026.002-.068.02-.071.037-.037.19-.083.379-.093.57a.334.334 0 0 0 .161.295c.134.087.23.2.205.382-.024.172-.033.346-.049.52h-.007c.005.08.01.16.017.24.001.012.016.034.026.034.064.004.131.013.192-.002.023-.005.044-.07.044-.108a.841.841 0 0 0-.028-.216 1.365 1.365 0 0 1-.025-.577c.038-.234.25-.332.397-.48.115-.114.25-.21.371-.318a.81.81 0 0 0 .231-.406c.068-.251.13-.504.202-.755.017-.061.057-.116.085-.175.056-.118.11-.238.168-.356.067-.133.115-.271.07-.419ZM7.299 8.171c-.054.178-.07.192-.193.345-.047.06-.104.104-.113.099.02-.036.04-.072.058-.11.06-.12.144-.235.166-.362.023-.126.027-.234.01-.366-.009-.074-.069-.259-.061-.264.023.033.072.104.088.148.062.17.103.315.045.51Zm.178-1.723c-.284-.038-.47-.126-.54-.406-.04-.162.021-.268.187-.313.115-.033.232-.064.35-.072a.32.32 0 0 1 .339.417c-.014.047-.02.097-.032.145-.041.16-.138.233-.304.229Zm.681.9c-.065.13-.189.227-.214.384-.007.04-.062.097-.1.1-.035.004-.094-.046-.11-.085-.017-.043.004-.101.007-.153h.032l.077.149c.019-.02.035-.029.034-.038-.005-.172.134-.266.209-.396.079-.135.135-.284.195-.43.004-.01-.046-.062-.073-.062-.034-.002-.07.029-.117.052l.096.05c-.075.086-.143.168-.217.244-.014.014-.056.013-.078.003-.018-.009-.036-.041-.035-.062.008-.152.175-.367.378-.372.069-.001.11.033.116.116.017.202-.12.34-.2.5ZM4.205 4.841c-.138.104-.263.202-.392.294-.186.132-.29.327-.387.522-.039.078-.066.064-.119.038l-.354-.169c-.043-.02-.062-.048-.033-.092.105-.154.206-.311.317-.46a.386.386 0 0 0 .07-.339 1.787 1.787 0 0 1-.048-.647.318.318 0 0 1 .086-.165c.145-.155.33-.22.547-.23q.005.188-.155.249c-.115.043-.17.17-.142.292a.877.877 0 0 0 .508.632c.034.016.062.046.102.076ZM2.343 3.586c.004.086-.077.045-.124.052-.026.003-.054 0-.098-.002-.127.016-.273-.07-.387-.158-.077-.06-.163-.151-.143-.181.024.003.09.11.238.17a.49.49 0 0 0 .328.009c.024-.007.06-.007.079.005.041.03.106.068.107.105Z"/><path class="cls-2" d="M2.136 3.406c-.007.012-.082.033-.117.035-.189 0-.291-.064-.415-.202-.04-.059-.038-.128-.036-.193.203.13.386.244.568.36Z"/><path d="M2.84 2.77c-.186.125-.364.265-.474.47-.038.07-.075.07-.133.022-.298-.246-.597-.49-.896-.734-.08-.064-.079-.094.008-.145.264-.154.46-.362.543-.666.025-.094.07-.099.14-.026.039.04.074.084.115.121.087.079.088.105-.019.154a.74.74 0 0 0-.35.33c-.034.062-.058.132.012.182.15.106.24.023.325-.061l.003-.004c.087-.044.175-.087.261-.133.12-.065.187-.056.292.063.074.085.138.18.201.273.037.055.054.1-.028.155Z" style="fill:#234968"/><path d="M8.22 18.147c-.017.218-.049.43-.14.62a4.808 4.808 0 0 1-.382.644.62.62 0 0 0-.113.31c-.029.366.02.727.078 1.088.018.115.025.233.027.35.005.235.005.471.005.707 0 .283-.007.565.003.847.007.182.045.363.063.545.015.152.023.306.033.46.02.313.037.626.057.94.014.222.028.446.048.67.018.195.044.39.065.584.003.03 0 .062 0 .092.004.33-.047.66.016.99.015.08-.013.12-.11.118a10.584 10.584 0 0 0-.728.003c-.107.005-.213.04-.337.065-.014-.142-.03-.277-.04-.412-.02-.283-.029-.567-.055-.85-.028-.288-.074-.574-.104-.861-.009-.082.016-.166.019-.25a3.64 3.64 0 0 0-.003-.315c-.009-.157-.024-.313-.036-.47l-.036-.458a4.393 4.393 0 0 1-.009-.212l-.01-.444c-.003-.148-.016-.297-.007-.444.008-.139.04-.276.059-.415.004-.034-.01-.07-.008-.105.012-.375 0-.75.063-1.122.02-.12.01-.244.012-.366.003-.108-.007-.218.012-.323.024-.139.076-.272.107-.41a8.88 8.88 0 0 0 .086-.458c.005-.028-.017-.06-.013-.089.014-.094.044-.186.05-.28.01-.155.013-.311.007-.466-.004-.117-.238-.274-.32-.236a.526.526 0 0 0-.213.194c-.162.26-.194.56-.237.855-.035.23-.08.458-.12.687-.023.12-.026.236-.014.36.016.169-.015.342-.024.513a50.42 50.42 0 0 0-.037.708c-.007.16-.017.32-.01.48.013.254.04.506.06.759.003.037-.002.074 0 .112.017.374.034.75.054 1.124.013.247.028.494.043.741l.06.89c.007.115.005.23.014.343.018.226.041.451.06.677.014.15.023.3.034.45l.015.169c.006.07.003.126-.097.12-.162-.01-.324-.01-.507-.014l-.011-.711-.026-1.464c-.004-.179 0-.357-.009-.535-.015-.314-.04-.628-.056-.942-.008-.138-.002-.276-.014-.413-.027-.325-.062-.65-.092-.975-.009-.1-.018-.2-.018-.3 0-.19.03-.383.003-.568-.02-.137-.005-.274-.032-.409-.01-.055.012-.116.014-.174.016-.315.022-.63.046-.944.027-.357.063-.714.106-1.07.04-.323.091-.646.146-.968.014-.084.06-.162.09-.243.011-.027.034-.055.033-.082-.002-.134.07-.184.192-.182.22.004.442.006.663.015.206.008.411.021.617.036.21.016.42.036.631.054.014 0 .029.005.04 0 .139-.053.164.033.186.14.037.172.066.338.052.52Z" style="fill:#316956"/><path class="cls-3" d="M5.871 12.531c-.013-.178-.045-.346-.033-.51.013-.167.06-.333.108-.495.07-.233.154-.463.241-.72.122.087.235.146.32.233.16.165.361.202.566.184.134-.013.252-.11.342-.222.067-.083.131-.17.205-.265.043.076.09.144.12.22.12.287.24.574.347.867.04.11.04.234.062.351.024.137.056.272.076.41.02.141.042.284.044.426.004.382-.009.764-.002 1.146.003.182.035.364.052.547.01.112.023.224.025.337.005.233-.002.466.007.698.007.193.036.386.043.579.004.113-.014.227-.029.34-.003.023-.042.062-.06.06-.228-.03-.458-.052-.68-.104-.127-.029-.242.004-.362.004-.09 0-.18.008-.27.013-.31.02-.621.04-.931.058-.03.002-.063.006-.091-.002-.024-.007-.06-.03-.061-.047a62.446 62.446 0 0 1-.047-1.137c-.005-.176.002-.353.001-.53a20.074 20.074 0 0 0-.009-.484c-.005-.159.045-.317-.006-.476-.02-.061.01-.094.088-.122.282-.102.555-.228.833-.343.122-.05.242-.118.37-.143.317-.063.478-.29.62-.546.077-.138.077-.28.063-.434-.017-.172-.01-.345-.072-.512-.058-.152-.23-.264-.387-.239-.071.012-.144.022-.214.039-.031.007-.068.022-.086.045-.104.14-.212.277-.301.425-.07.115-.139.214-.273.26-.201.07-.403.111-.619.089Z"/><path class="cls-3" d="M1.4 9.346c.04-.33.078-.673.126-1.014a5.67 5.67 0 0 1 .12-.615c.03-.12.099-.229.145-.345.048-.12.078-.247.135-.361.14-.282.292-.558.442-.834.007-.013.05-.023.066-.014.193.108.384.221.577.33.057.032.073.061.045.127-.097.232-.198.463-.278.701-.115.34-.213.687-.318 1.031-.03.101-.072.201-.085.305a3.845 3.845 0 0 0-.033.533c.004.23.009.464.048.69.035.202.115.396.18.592.037.11.083.216.13.321.112.252.281.465.448.682.14.18.255.379.399.555.117.144.245.29.398.392.17.113.371.179.56.263.12.054.239.113.364.154.125.04.255.07.386.086.223.027.449.036.673.06a.686.686 0 0 0 .442-.097c.123-.075.256-.143.356-.243a.86.86 0 0 0 .243-.44c.034-.172.25-.33.422-.326.061 0 .143-.021.177.01.036.032.027.115.034.176.018.135.037.27.05.406.012.12-.069.201-.149.262-.211.16-.43.311-.654.455-.127.082-.27.141-.401.216-.107.061-.204.14-.313.193-.075.035-.165.042-.249.057-.249.043-.49-.019-.735-.05-.247-.03-.5-.033-.74-.094-.207-.053-.399-.168-.596-.259-.075-.034-.144-.082-.219-.117a2.959 2.959 0 0 1-.704-.474c-.2-.174-.396-.355-.525-.592a33.71 33.71 0 0 1-.492-.935 3.743 3.743 0 0 1-.235-.545 7.463 7.463 0 0 1-.188-.758c-.032-.153-.034-.312-.052-.484Z"/><path class="cls-6" d="M4.64 4.523c-.106.087-.104.202-.107.319l-.002.114c-.104-.077-.199-.136-.281-.209a8.413 8.413 0 0 1-.5-.47.391.391 0 0 1-.085-.219c-.012-.106.129-.19.253-.176.083.01.168-.002.253 0 .035 0 .08.002.104.023.11.09.213.188.32.282.017.014.043.018.056.034.046.055.108.108.127.172.03.102-.089.09-.138.13Z"/><path class="cls-1" d="M1.818 1.368c-.042-.121-.104-.236-.154-.354-.085-.2-.253-.266-.447-.291C1.012.708.832.789.67.889c-.117.073-.21.19-.3.299-.117.143-.21.32-.186.5.031.24.118.478.375.582.173.071.346.155.545.105a.982.982 0 0 0 .649-.51c.082-.154.124-.324.064-.497Zm-.096.35c-.005.088-.09.218-.227.29-.16.084-.335.142-.507.2-.227.074-.416.015-.554-.187-.043-.063-.09-.124-.133-.187-.085-.122-.066-.248.016-.357.107-.142.216-.289.347-.406a.864.864 0 0 1 .54-.202c.148-.007.244.096.33.196.117.137.195.394.188.654Z"/><path class="cls-9" d="M5.915 5.188c-.067.06-.15.104-.185.173-.031.062-.01.151-.012.24-.257-.105-.478-.21-.665-.378-.101-.092-.214-.17-.319-.259-.084-.07-.061-.21.025-.29.111-.101.218-.038.326-.01.124.032.734.42.83.524Z"/><path class="cls-3" d="M7.258 28.357c.172.148.334.154.512.016.049-.038.072-.028.099.026.08.16.052.325.036.49-.013.132-.022.143-.139.128-.024-.003-.061-.03-.065-.051-.014-.088-.068-.048-.11-.038-.019.006-.036.026-.051.041-.129.13-.29.126-.455.117-.093-.004-.189 0-.28.019-.082.017-.085-.029-.07-.074.027-.083.068-.161.108-.252.071.056.122.096.048.167.081.067.132.02.17-.035.05-.07-.027-.089-.063-.103-.064-.023-.092-.065-.068-.119.017-.038.066-.087.102-.088.058-.002.117.032.115.111-.002.059.003.133.075.125.045-.005.11-.066.118-.11.01-.053-.016-.12-.104-.132-.046-.007-.09-.062-.12-.105-.006-.01.046-.064.076-.093.018-.018.044-.027.066-.04Z"/><path class="cls-6" d="M3.755 3.514c-.199.121-.448.158-.56.41a.544.544 0 0 1-.352-.19c-.158-.187-.161-.262.01-.442.103-.11.216-.209.35-.336l.552.558Z"/><path class="cls-3" d="M6.852 27.638c-.018-.255-.02-.265.218-.302.289-.044.58-.069.871-.103.084-.01.137.03.161.105.022.068.043.14.044.211 0 .032-.05.088-.081.091a7.83 7.83 0 0 1-.55.027c-.144.003-.287-.003-.43-.008-.077-.003-.152-.014-.233-.02ZM5.203 28.86l.015.118c.039-.031.075-.048.087-.075.006-.014-.027-.052-.049-.071-.046-.041-.064-.079-.006-.123.011-.008.02-.018.03-.028.116-.11.191-.1.22.06.023.128.077.07.137.055l-.195-.231.15-.06c.114.223.259.294.497.227l.066.412c-.086-.002-.154.005-.217-.01-.026-.006-.04-.061-.06-.094-.022-.037-.037-.092-.068-.105-.031-.012-.087.01-.118.034a.721.721 0 0 0-.125.136c-.048.063-.11.066-.18.062-.103-.006-.206-.006-.317-.008-.042-.105.026-.278.134-.3ZM5.784 27.813c-.06-.001-.119-.007-.178-.003-.078.004-.096-.046-.103-.107-.009-.075 0-.151.081-.176.178-.054.359-.088.546-.056.018.003.038-.012.057-.014.08-.009.104.02.083.1-.013.052-.01.133-.04.15-.094.05-.2.079-.305.107-.044.012-.094 0-.141-.001Z"/><path class="cls-1" d="M3.223 2.875c-.259.187-.544.322-.678.626-.008.018-.038.027-.057.04-.023-.044-.065-.09-.064-.134a.303.303 0 0 1 .065-.163c.133-.173.274-.34.497-.402a.611.611 0 0 1 .187-.012c.02.001.037.033.05.045ZM6.276 5.973c-.197.045-.379.033-.528-.116-.035-.034-.044-.095-.064-.144l.039-.03c.035.024.078.044.104.077.09.115.283.196.381.153.172-.074.278-.272.24-.443-.006-.03-.008-.06-.014-.109.178.231.154.54-.158.612Z"/><path class="cls-3" d="M6.737 10.166c.004.065.01.118.01.17-.002.155.056.237.182.25.124.013.224-.078.245-.221l.011-.088a.32.32 0 0 1-.151.41c-.15.069-.315-.016-.413-.214-.057-.116-.018-.243.116-.307ZM6.065 27.983l-.006.251c0 .017 0 .039-.01.049-.047.049-.098.095-.148.142-.03-.05-.07-.098-.086-.153-.018-.063-.015-.132-.015-.198 0-.07.056-.085.108-.093.048-.007.1 0 .157.002ZM7.662 27.805c.016.029.043.059.051.094.012.05.02.106.012.156-.005.038-.029.09-.058.103-.054.024-.133.05-.177.027-.094-.049-.1-.157-.076-.248.012-.042.078-.073.124-.102.026-.016.062-.016.124-.03Z"/><path d="M6.098 5.704c-.008-.004-.03-.008-.042-.022-.02-.024-.053-.06-.046-.08.024-.07.046-.154.099-.195.042-.033.086.032.105.086.029.079-.034.208-.116.211Z" style="fill:#608db7"/><path class="cls-3" d="M3.954 1.606c-.04.05-.072.107-.12.147-.071.06-.152.112-.232.164-.014.01-.038.008-.057.006-.004 0-.011-.036-.005-.04.124-.107.25-.211.375-.316l.039.039ZM6.504 10.943l.12-.167c.048.045.117.08.12.12.005.056-.038.116-.06.173l-.18-.126ZM6.918 11.085l-.056.058c-.014-.094-.03-.174.067-.239l.017.138.052-.12c.052.075.07.147.049.225-.004.013-.053.031-.063.023-.026-.02-.042-.052-.066-.085ZM6.567 16.823c.013.03.034.058.037.088.011.09.017.179.02.268 0 .017-.023.043-.04.047-.012.004-.044-.02-.046-.035-.014-.11-.022-.22-.032-.33l.061-.038ZM6.916 17.244c-.02-.114-.043-.22-.057-.33-.002-.018.028-.05.049-.058.017-.005.063.018.063.029-.002.113-.01.227-.019.34 0 .005-.015.009-.036.02ZM2.724 5.574c-.143.112-.2.27-.252.436-.077-.065-.077-.036.027-.258.045-.096.1-.184.225-.178ZM7.876 16.886c.111.032.12.065.085.327-.088.003-.141-.201-.085-.327ZM6.797 17.239c-.016-.024-.043-.046-.046-.071a1.892 1.892 0 0 1-.015-.249c0-.022.027-.045.042-.067.012.02.032.04.036.062.015.081.027.162.035.244.002.026-.014.053-.022.08h-.03ZM7.315 17.254c-.112-.033-.067-.126-.093-.185a.35.35 0 0 1-.016-.145c0-.021.023-.041.036-.062.02.013.056.025.058.04.008.114.01.228.015.352ZM2.774 5.697l-.138.418-.065-.013c.02-.163.083-.3.203-.405ZM7.572 16.892l.092.002.024.325c-.09.01-.106-.039-.116-.327ZM7.743 17.236c-.012-.08-.03-.149-.03-.218 0-.047.022-.095.035-.143.02.038.046.073.057.113.014.053.02.11.02.166 0 .06-.024.104-.082.082ZM7.5 16.87l.07.364c-.038-.006-.078-.002-.083-.015a.474.474 0 0 1-.026-.343l.039-.007ZM7.166 17.255c-.018-.02-.047-.038-.05-.06a3.556 3.556 0 0 1-.03-.29c-.001-.015.02-.03.03-.045.015.015.04.029.043.046.016.107.028.215.04.323a9.89 9.89 0 0 1-.033.026ZM2.948 5.872l-.023.132.058-.05c-.003.116.022.222-.105.294.002-.068.028-.15 0-.201-.052-.096.083-.106.07-.175ZM8.011 16.928c.077-.016.109.003.105.072-.004.06 0 .12-.007.18-.002.016-.03.028-.045.042-.01-.015-.029-.03-.03-.045-.005-.042.001-.084-.002-.126-.003-.038-.012-.077-.02-.123ZM3.44 1.25l-.242.167c-.035-.117.07-.194.242-.168ZM5.768 28.525l.275-.02.01.084c-.105-.005-.216.06-.285-.064ZM8.336 16.97c.106.038.083.117.076.186-.001.012-.04.032-.049.027-.026-.016-.063-.042-.063-.064 0-.047.021-.093.036-.149ZM5.888 17.276l.009-.378q.065.318-.01.378ZM6.562 10.657l-.086.093.12.003c-.049.041-.085.088-.099.082-.045-.018-.082-.056-.12-.088-.004-.004.003-.03.01-.033.053-.027.107-.052.16-.077l.015.02ZM6.294 16.861l.016.365-.043.003-.03-.364.057-.004ZM3.32 6.043c-.02.08-.042.159-.065.246-.102-.077-.085-.152.066-.246ZM3.131 6.098l.086-.282c.06.074.014.209-.086.282ZM3.916 1.768c-.022.104-.16.197-.275.18l.275-.18ZM3.161 5.89l-.107.331c-.049-.083 0-.246.107-.33ZM8.214 16.931l.02.288-.05.003-.016-.288.046-.003ZM6.163 17.174l-.026-.306.036-.004.037.301-.047.009ZM6.412 16.873c.026.018.054.029.055.04 0 .104-.003.209-.022.31l-.033-.35ZM7.165 11.006c-.007-.025-.017-.05-.02-.075-.004-.021-.002-.043-.002-.065.022.01.046.015.064.029a.1.1 0 0 1 .028.051c.006.026.007.053.01.08l-.083-.023.003.003ZM6.524 10.574l-.194.079c.03-.12.066-.134.194-.08ZM6.5 10.381c-.039.008-.079.025-.115.019-.022-.004-.037-.044-.056-.067l.022-.03.148.04v.038Z"/><path class="cls-3" d="m7.162 11.003-.003.135-.039.003-.051-.188.02-.009.076.062-.003-.003ZM6.747 11.103l.044-.215.043.008c.036.08-.043.141-.046.215l-.041-.008ZM6.6 10.183c-.047.025-.073.05-.088.044-.031-.012-.056-.039-.084-.06.023-.012.047-.036.07-.035.026 0 .052.024.102.051ZM3.485 1.492c-.037.036-.073.074-.112.106-.012.009-.035.002-.053.003.006-.018.007-.042.02-.053.038-.03.08-.055.121-.082l.024.026Z"/><path class="cls-7" d="M7.474 5.658c-.118.008-.235.04-.35.071-.166.046-.227.152-.187.314.069.28.256.368.54.406.166.004.263-.068.304-.23.012-.047.018-.097.032-.144a.32.32 0 0 0-.339-.417Zm-.386.255a.122.122 0 0 1 .077-.035c.009 0 .028.04.03.063.005.04 0 .08-.001.138-.044-.036-.083-.06-.11-.093-.012-.015-.009-.057.004-.073Zm.303.47c-.191-.035-.378-.14-.39-.367.093.06.184.125.281.178.098.053.203.093.315.143-.052.072-.136.059-.206.046Zm-.134-.412c.004-.109.039-.137.144-.112.038.008.074.028.112.037.069.017.122.054.107.13-.015.079-.064.137-.156.137-.117.002-.21-.084-.207-.192Zm.31.273.136-.21c.066.133.007.215-.136.21Zm-.061-.42c-.089-.03-.187-.03-.29-.043.235-.103.535-.075.543.179-.087-.049-.165-.107-.253-.136ZM8.158 7.348c-.065.13-.19.227-.214.385-.007.04-.063.096-.1.1-.035.004-.095-.046-.11-.085-.017-.044.003-.101.007-.153h.032l.077.149c.019-.02.035-.029.034-.038-.005-.172.134-.266.209-.396.079-.135.135-.284.195-.43.004-.01-.046-.062-.073-.063-.034 0-.07.03-.117.052l.096.05c-.075.086-.143.168-.217.245-.014.014-.056.013-.078.003-.018-.01-.037-.042-.035-.062.008-.152.175-.367.378-.372.069-.002.11.033.116.116.016.202-.12.34-.2.5ZM7.299 8.172c-.054.178-.07.191-.193.345-.047.06-.104.104-.113.099.02-.036.04-.072.058-.11.06-.12.144-.235.166-.362.023-.126.027-.234.01-.366-.009-.074-.069-.26-.061-.265.023.034.072.105.088.149.062.17.103.315.045.51ZM1.534 1.065c-.086-.1-.182-.203-.33-.196-.2.01-.392.07-.54.202-.132.117-.24.264-.347.406-.082.11-.102.235-.017.357l.134.187c.138.202.326.262.554.186.172-.057.347-.115.506-.198.138-.073.223-.203.228-.29.006-.26-.072-.517-.189-.654Zm.013.746c-.02.078-.137.15-.226.187a1.563 1.563 0 0 1-.42.108c-.197.022-.542-.19-.524-.44a3.455 3.455 0 0 1 .195-.33c.115-.184.294-.277.503-.335.266-.073.458.113.489.343.02.153.022.32-.017.467Z"/><path class="cls-9" d="M1.564 1.344c-.03-.23-.223-.416-.49-.343-.208.058-.387.151-.502.334a3.455 3.455 0 0 0-.195.33c-.018.25.327.463.523.44.143-.015.289-.052.421-.107.09-.037.205-.109.226-.187.04-.148.037-.314.017-.467Zm-.51.33c-.062.093-.195.083-.26-.009-.026-.037-.063-.075-.07-.117-.007-.041.019-.087.03-.132.033.015.07.024.098.044.023.016.038.045.06.075.07-.085.139-.107.175-.057.054.074.004.142-.033.197Z"/><path class="cls-3" d="M7.597 6.337c-.051.072-.136.058-.206.046-.19-.035-.378-.14-.39-.367.093.06.184.125.281.178.098.053.203.093.315.143ZM7.258 5.971c.003-.109.038-.137.143-.113.038.01.074.028.112.038.069.017.122.054.107.13-.015.079-.064.137-.156.137-.118.001-.21-.084-.206-.192Zm.081-.081c-.005.063-.022.12-.007.163.01.028.075.06.105.052.033-.01.054-.062.074-.087l-.172-.128ZM7.76 5.96c-.088-.048-.166-.107-.254-.136-.089-.03-.187-.03-.29-.043.235-.103.535-.075.543.179ZM7.703 6.035c.066.132.007.214-.136.21l.136-.21ZM7.194 6.08c-.044-.037-.083-.06-.11-.093-.012-.015-.009-.058.004-.074.017-.02.05-.032.077-.035.009 0 .028.04.03.063.005.04 0 .08-.001.138Z"/><path class="cls-7" d="m7.34 5.89.17.129c-.019.024-.04.077-.073.086-.03.008-.094-.024-.105-.052-.015-.044.003-.1.007-.163ZM1.054 1.675c-.062.092-.195.083-.26-.01-.026-.037-.063-.075-.07-.117-.007-.041.019-.087.03-.132.033.015.07.024.098.044.023.016.038.045.06.075.07-.085.139-.107.175-.056.054.073.004.141-.033.196Z"/></svg>