<svg xmlns="http://www.w3.org/2000/svg" viewBox="0 0 12.224 29.526" xmlns:v="https://vecta.io/nano"><path d="M12.045 7.444l-.048-.518-.067-.736-.085-.692-.154-.716-.238-.793c-.057-.171-.129-.338-.201-.504l-.178-.36c-.048-.1-.082-.207-.138-.302l-.338-.525-.468-.727c-.092-.132-.21-.248-.32-.368-.042-.045-.092-.083-.14-.122-.131-.108-.246-.238-.418-.288-.03-.009-.054-.037-.082-.054-.202-.123-.392-.282-.611-.357-.27-.092-.555-.166-.851-.155-.085.003-.172-.02-.256-.038C7.318.159 7.188.113 7.048.15c-.042.011-.089.005-.134.002L6.444.12c-.12-.001-.239.018-.359.029-.086.008-.176.004-.258.028L5.19.383l-.429.123c-.148.05-.302.097-.436.174-.168.097-.422.188-.602.359 0 0-.02-.025-.08-.07S3.511.9 3.439.946l-.346.232c-.112.093-.112.152-.064.291.012.035 0 .093-.024.122-.079.097-.177.171-.299.214s-.314.007-.39-.081l-.266-.303c-.043-.053-.081-.114-.105-.177-.035-.092-.049-.193-.083-.286-.103-.275-.24-.394-.479-.387-.115.003-.23.03-.344.052C.874.654.707.694.579.81c-.163.146-.307.309-.425.497-.147.236-.118.633.062.841.128.149.294.207.473.254.097.026.201.052.279.108.138.099.263.219.388.336.084.079.212.138.173.294-.028.196.064.273.167.381.002.002.079.062.082.065.167.11.343.152.538.083.024-.009.066.005.087.023a.75.75 0 0 0 .361.184c.148.027.284.095.371.214.047.064.037.169.051.256.003.02.001.041.005.06.05.254-.033.484-.146.701-.062.12-.163.221-.252.327-.014.017-.057.02-.082.014-.147-.038-.162-.034-.229.102l-.122.27c-.022.055-.054.12-.042.171.027.118-.037.189-.094.274-.078.117-.15.241-.21.368l-.289.674c-.063.149-.142.293-.182.448l-.188.874-.097.435c-.014.087-.007.179 0 .268.015.189.018.382.057.567.126.585.253 1.17.468 1.733a2.2 2.2 0 0 0 .411.688c.149.167.313.324.485.467l.801.619a2.65 2.65 0 0 0 .648.293c.306.097.615.193.947.184.179-.005.359.037.55.059.005.05.017.106.016.161l-.024 1.141.037.904.037.549c-.134.09-.139.09-.136.256.002.086.023.171.035.256.014.101.02.206.162.206l-.143.55-.108.412-.078.535-.135.847-.038 1.425-.003.942.007.556.02.882.028.542.059.88.062.9.075 1.05c.008.114-.003.231.019.341.018.093-.013.118-.093.117-.058-.001-.087.011-.073.082.017.092.013.188.028.281.018.103.05.201.182.213.052.005.102.021.158.033-.001.05-.018.104 0 .142.035.077-.004.124-.051.159l-.333.226c-.1.059-.202.112-.245.231l-.098.271c-.077.239.125.43.35.383.183-.038.301-.169.447-.289.008.032.025.062.022.09-.01.087.042.12.112.141l.076.023c.119.04.263-.049.26-.174a4.5 4.5 0 0 0-.042-.477c-.026-.198-.125-.381-.097-.592.022-.168.008-.165.172-.176.059-.004.149-.022.17-.062.099-.187.092-.375-.049-.547-.012-.015-.021-.034-.025-.052l-.109-.625-.08-.866-.014-.383-.057-.972-.035-.43-.06-.617-.023-.828-.014-1.05.035-.758c.006-.34.044-.674.105-1.009l.171-1.033c.027-.151.069-.299.169-.423.064-.079.156-.089.205-.003.038.067.076.149.071.223a4.12 4.12 0 0 1-.074.523l-.173.837c-.045.306-.058.617-.088.926l-.047.378a.7.7 0 0 0-.003.122l.027.389c0 .127-.022.254-.026.382l-.025 1.02v.071l.056.982c.004.071-.008.144-.001.215l.08.785.066.697.061.839.022.239c.006.138.092.278-.014.415-.018.023-.007.073 0 .109.014.075.027.151.055.221.035.09.063.194.195.194.116 0 .232.008.348.018.03.003.075.02.085.044a.33.33 0 0 1-.123.381 1.15 1.15 0 0 0-.516.688c-.038.132.007.249.133.266.202.027.414.07.595-.086.049-.043.11-.071.179-.114.008.039.018.069.019.099.005.117.036.147.145.137.025-.003.051-.011.075-.008.112.018.163-.02.167-.133l.011-.551c-.002-.077-.012-.169-.055-.227-.122-.161-.092-.338-.085-.515.001-.024.031-.058.055-.065.043-.015.091-.017.137-.02.164-.01.25-.132.203-.291s-.089-.32-.075-.491c.008-.099-.007-.201-.011-.301l-.052-1.114.003-1.247-.074-.968-.04-.919-.027-1.413c-.003-.255-.039-.504-.107-.749a1.78 1.78 0 0 1-.062-.685c.015-.134.032-.272.117-.386.178-.24.331-.491.371-.795l.103-.732c.011-.087.005-.175.008-.264.066-.017.127-.045.187-.044.114.003.12-.064.095-.137-.087-.247-.079-.5-.076-.755v-.304l-.058-.626-.009-.465c.008-.299-.01-.596-.034-.894-.028-.342.001-.689-.005-1.033-.003-.169-.032-.338-.043-.508-.005-.069-.03-.151.073-.184a2.79 2.79 0 0 0 .868-.47l.731-.608c.165-.157.299-.348.442-.527.086-.107.147-.239.246-.33a2.08 2.08 0 0 0 .464-.61l.498-1.123c.082-.183.146-.367.138-.572-.002-.058.02-.117.032-.176.041-.205.127-.402.107-.618zM3.54 1.882l.375-.315.039.039c-.039.05-.072.107-.119.147-.072.061-.153.112-.232.164-.015.01-.039.008-.058.006-.003 0-.011-.035-.005-.041zm.376-.114c-.022.104-.161.197-.276.18l.276-.18zm-.03.216c.058-.036.108-.086.16-.131.058-.051.099-.107.066-.194-.01-.027.014-.067.017-.079.378-.16.942-.328 1.349-.361a3.56 3.56 0 0 1 .921.066c.303.065.591.198.883.309l.629.263.625.326c.207.112.39.256.563.415.117.108.258.192.367.308.32.342.662.667.833 1.123.082.219.211.421.291.641a3.17 3.17 0 0 1 .161.633c.047.335.125.666.128 1.01.002.336.049.672.07 1.009.005.075-.015.152-.023.229l-.053.448c-.01.075-.029.149-.044.224l-.099.467c-.056.183-.129.361-.202.539l-.225.504-.314.587c-.116.187-.278.324-.494.4-.159.055-.303.15-.46.21l-.646.222-.287.101-.284-.515-.097-.162c-.034-.063-.076-.125-.093-.193-.051-.199-.133-.363-.351-.425-.091-.026-.145-.099-.146-.2 0-.02.003-.041.001-.061-.025-.189.031-.337.191-.453.152-.112.296-.236.433-.366.185-.175.337-.373.369-.64.012-.105.041-.209.072-.309.008-.023.057-.045.088-.046s.067.027.102.033c.159.029.229-.009.289-.163l.334-.892c.086-.276.118-.563.019-.847-.058-.164-.149-.31-.27-.437a.92.92 0 0 1-.122-.163.95.95 0 0 0-.343-.335c-.082-.048-.187-.067-.284-.078-.282-.032-.565-.008-.841.045-.147.028-.309.078-.346.266-.009.047-.031.104-.013.139.037.073.01.13-.01.195l-.128.446c-.06.164-.137.321-.211.48l-.179.365c-.04.078-.027.136.058.169.055.021.111.043.169.053.104.018.141.06.109.157l-.237.703c-.019.062-.005.144.02.206a.37.37 0 0 1 .008.272 1.37 1.37 0 0 0-.075.513c.008.155.098.261.221.338.109.068.145.173.169.285s-.084.139-.144.191l-.374.303c-.134.117-.151.282-.085.424.068.148.003.247-.049.365l-.249.592c-.094.182-.127.376-.159.572-.021.132-.03.266-.043.399-.004.046 0 .088-.066.09l-.572.023c-.225-.012-.455-.037-.652-.161-.13-.082-.246-.189-.363-.29l-.378-.35-.42-.473c-.098-.126-.194-.264-.25-.411-.069-.184-.094-.383-.139-.575-.009-.038-.029-.073-.039-.11l-.131-.508c-.002-.006-.003-.013-.006-.019-.144-.331-.081-.666-.034-1.006.036-.259.126-.499.204-.745l.244-.806.145-.483c.016-.049.059-.089.093-.131.131-.165.244-.342.272-.553.007-.058-.048-.124-.075-.188.054-.119.099-.262.181-.377.069-.097.178-.168.278-.238s.214-.132.325-.192a.13.13 0 0 1 .098-.006l.28.123.199.106.403.232.248.143c.025.015.04.051.05.081.059.16.104.326.278.412.251.122.496.109.732-.028.126-.072.179-.215.162-.344-.031-.227-.128-.429-.328-.573-.108-.077-.217-.077-.322-.041s-.168-.013-.241-.063l-.496-.332c-.069-.043-.148-.071-.224-.103-.16-.069-.174-.193-.044-.31a.49.49 0 0 0 .15-.43c-.014-.129-.072-.253-.114-.378-.01-.03-.032-.064-.058-.079s-.049-.013-.078-.003c-.017.005-.035.047-.033.069l.018.177c0 .02 0 .045-.022.014-.003-.004-.039-.075-.064-.106s-.074-.063-.111-.109l-.085-.109c-.097-.132-.243-.174-.386-.194-.118-.017-.244.007-.364.028-.063.011-.12.054-.203.094-.084-.104-.24-.175-.323-.333-.045-.087-.123-.162-.199-.226-.063-.053-.065-.109-.054-.178.029-.187.132-.33.271-.45.018-.015.064-.028.074-.018.172.173.302.027.437-.056zm3.147 8.703c-.15.069-.315-.015-.412-.213-.058-.116-.018-.243.115-.307l.01.169c-.002.156.057.238.182.251s.224-.078.245-.222l.012-.088a.32.32 0 0 1-.152.41zm.013.46c-.003.013-.053.031-.063.023-.026-.02-.042-.053-.065-.085l-.056.059c-.014-.095-.029-.174.067-.24l.017.138.052-.12c.052.075.069.147.049.225zm-.258-.036l-.042-.008.045-.215.043.008c.035.08-.043.141-.046.214zm-.289-.768l.001.039c-.038.008-.079.025-.114.018-.022-.004-.037-.043-.056-.067l.022-.03.148.04zm-.071-.175c.023-.013.047-.037.069-.036s.052.025.103.052c-.048.025-.074.049-.089.043-.031-.011-.056-.038-.084-.059zm.095.406l-.193.079c.03-.119.065-.134.193-.079zm-.136.14l.16-.076.014.019-.085.093.12.003c-.048.042-.085.088-.099.082-.045-.018-.082-.056-.12-.088-.004-.003.003-.029.01-.033zm.236.062c.048.045.117.079.121.12.005.056-.038.117-.06.174l-.18-.126.12-.167zm.33-2.539c-.04.073-.108.076-.175.065-.132-.023-.226-.106-.237-.21l.412.145zm-.4-.204c.005-.015.046-.088.116-.086.095.002.198.014.297.095.029.061.022.127.017.143l-.43-.152zm.02.368c.003-.017.045-.036.071-.037.071-.003.134.039.205.032.043-.005.101-.015.133-.043.04-.034.078-.119.096-.167.031-.081-.023-.21-.086-.247-.11-.064-.224-.053-.34-.106-.055-.025-.08-.058-.061-.117l.115-.37c.004-.013.008-.025.01-.039.021-.152-.03-.213-.213-.251l-.096-.023c-.054-.014-.057-.043-.033-.091l.319-.688c.058-.146.083-.306.12-.46.013-.055.011-.114.029-.167.008-.025.046-.058.069-.057.161.007.269-.117.408-.162.176-.056.349-.125.541-.069.107.03.169.107.204.202.051.138.11.28.122.423.009.1-.051.208-.089.309a1.38 1.38 0 0 1-.102.214c-.049.086.005.127.066.159s.128.053.167-.036c.008-.018.019-.041.034-.048.058-.026.122-.07.177-.062.04.006.087.078.102.129.044.148-.003.286-.07.419l-.169.356c-.028.059-.068.113-.085.175l-.201.755a.81.81 0 0 1-.231.406l-.371.319c-.146.147-.359.246-.397.479-.03.192-.027.386.025.577.019.07.027.144.027.216 0 .037-.021.102-.044.108-.061.015-.128.006-.192.002-.01 0-.024-.022-.025-.035l-.018-.24h.008l.049-.52c.025-.181-.071-.294-.204-.382-.111-.073-.168-.182-.162-.295.01-.191.057-.38.093-.569zm.515 2.544l.073.059-.003.134-.038.003-.052-.188.02-.009zm.075.059h0l-.015-.05-.005-.023c-.003-.021-.001-.044-.001-.065.022.009.046.015.063.029s.024.033.028.051c.007.025.007.053.01.079l-.08-.022zM3.217 5.816c.059.074.014.209-.086.282l.086-.282zm-.163.405c-.049-.083 0-.246.107-.33l-.107.33zm.266-.179l-.065.246c-.102-.077-.085-.152.065-.246zm1.308-2.239c.023-.214-.107-.372-.29-.514l-.065-.051c-.006-.007-.043-.026.053-.026.288 0 .467.412.459.742-.009.032.046.03.046.011.002-.083-.015-.309-.073-.439-.004-.012.062.051.08.088.06.118.084.149.097.276.002.019.042.036.044.009-.022-.14-.013-.302-.024-.361-.023-.125.011-.113.042-.082.065.064.08.207.098.253.025.061.037.127.035.194-.006.14-.081.289-.268.419-.008-.021-.017-.041-.025-.061-.171-.066-.266-.21-.402-.316a.25.25 0 0 1-.118-.235c.003-.183-.108-.276-.308-.294-.027-.002-.053-.002-.081-.002.018-.14.09-.2.202-.153.106.045.212.103.297.179.131.117.169.221.145.349.004.029.033.06.056.015zm1.58 2.11c.171-.074.278-.272.24-.443-.007-.03-.008-.06-.014-.109.178.231.154.54-.158.612-.197.045-.379.032-.528-.116-.035-.035-.043-.096-.064-.144l.039-.031c.035.025.078.045.104.078.09.115.284.197.382.154zm-.199-.311c.024-.069.047-.154.099-.195.042-.033.086.032.105.086.029.079-.034.208-.116.211-.008-.004-.03-.008-.042-.022-.02-.024-.053-.06-.047-.08zm-.28-.242c-.031.062-.01.152-.012.24-.257-.104-.478-.209-.665-.378-.102-.092-.214-.171-.319-.259-.085-.071-.062-.211.025-.29.111-.102.217-.038.326-.01.125.032.734.42.83.524-.067.059-.151.104-.185.172zM4.221 3.676c-.002.046-.028.09-.068.112s-.11.026-.152-.007c-.02-.016-.033-.039-.04-.063s-.013-.043-.01-.065c-.005-.018-.009-.035-.009-.055 0-.027.013-.052.032-.071s.046-.027.072-.028.05.012.068.028c.016.005.03.013.04.024.007.004.013.009.02.015a.15.15 0 0 1 .047.112zm-.051.205c.036.001.08.002.105.023l.32.283c.016.014.043.018.056.033.046.055.108.108.127.173.03.102-.089.089-.138.13-.107.087-.104.202-.107.319l-.003.114-.281-.209-.501-.471c-.05-.053-.076-.142-.084-.218-.012-.106.129-.189.253-.176.083.009.169-.003.253-.001zm-.686-2.389l-.112.106c-.011.009-.035.002-.053.002.007-.018.008-.042.021-.052.038-.03.08-.055.121-.082l.024.026zm-.045-.243l-.241.168c-.035-.117.07-.194.241-.168zm-.714.635c.154.009.285-.02.396-.125.047-.045.077-.03.117.011.177.179.177.177-.004.342-.094.086-.144.199-.185.318s-.047.121-.13.027-.142-.186-.271-.263c-.059-.035-.122-.063-.195-.017-.107.067-.152.076-.259.142-.013.007-.064.026-.071.017-.042-.07-.073-.138-.222-.13.246-.204.508-.341.823-.322zm-.645.472c-.031.059-.067.107-.124.124-.069.02-.136-.017-.143-.07-.008-.058.017-.151.087-.145.078.007.105-.002.179.091zM.559 2.27c-.256-.105-.343-.342-.375-.582-.024-.181.069-.357.187-.501.09-.109.182-.226.299-.299.161-.1.341-.18.546-.166.194.025.363.092.447.291l.154.354c.06.173.018.343-.064.497a.98.98 0 0 1-.648.51c-.199.05-.373-.034-.546-.104zm1.66 1.367c-.026.004-.054 0-.098-.002-.127.016-.274-.069-.387-.157-.077-.06-.163-.151-.143-.181.024.003.09.109.238.17a.49.49 0 0 0 .328.009c.025-.007.06-.007.079.005.042.029.106.068.107.105.003.085-.077.045-.124.051zm-.651-.592l.568.36a.27.27 0 0 1-.117.035c-.189 0-.291-.064-.415-.202-.039-.059-.038-.128-.036-.193zm.799.193c-.038.071-.075.07-.133.022l-.896-.734c-.079-.064-.078-.094.009-.145.264-.154.46-.362.542-.666.025-.095.07-.099.14-.027l.116.122c.086.079.087.105-.019.154a.74.74 0 0 0-.351.33c-.033.062-.057.132.012.182.151.106.241.023.326-.061l.264-.137c.119-.064.187-.055.292.064.074.084.138.179.201.273.037.055.053.101-.028.155-.187.124-.364.264-.474.468zm.179.262c-.008.018-.038.027-.057.04-.023-.045-.065-.09-.064-.134.002-.055.029-.118.064-.163.134-.173.275-.34.498-.402a.61.61 0 0 1 .187-.012c.02.001.038.033.05.045-.259.187-.544.322-.678.626zm.651.423c-.133-.019-.256-.075-.353-.191-.157-.187-.161-.262.01-.442l.35-.336.552.558c-.199.121-.448.157-.559.41zm-.276 1.51l.316-.461c.077-.105.101-.216.071-.338-.053-.214-.075-.43-.048-.647.007-.058.045-.122.086-.166.145-.154.331-.219.547-.229q.005.188-.155.248c-.115.043-.169.17-.142.292.067.295.235.504.508.632.035.016.062.046.102.075l-.391.293c-.186.132-.29.327-.388.523-.038.077-.066.064-.119.038l-.354-.169c-.042-.02-.062-.048-.033-.092zm-.054.564l.008-.022q0 0 0-.001l.019-.022.028-.025.016-.018.004-.006h0l-.008.047v.002l-.009.052.057-.05c-.002.115.022.222-.104.294.002-.068.028-.149 0-.202-.01-.02-.013-.035-.011-.049zm-.092-.301l-.139.418-.064-.013c.019-.163.083-.3.203-.405zm-.275.055c.045-.096.099-.184.225-.178-.144.112-.201.271-.252.436-.077-.065-.077-.037.027-.258zm2.652 7.852c-.247-.031-.5-.034-.739-.095-.208-.053-.4-.168-.597-.258-.075-.035-.144-.082-.219-.117-.261-.12-.489-.288-.704-.475-.201-.174-.397-.355-.525-.592l-.492-.935c-.089-.177-.176-.357-.235-.545-.079-.248-.137-.503-.189-.758-.031-.153-.034-.311-.051-.484l.126-1.014c.03-.207.068-.413.12-.615.031-.12.099-.229.145-.346s.078-.247.135-.361l.442-.833c.007-.014.051-.023.067-.014l.576.33c.058.032.073.061.046.127l-.278.701-.318 1.031c-.031.101-.072.201-.085.304-.022.177-.036.356-.033.534.004.23.009.463.048.689.035.202.115.397.181.593.037.109.082.215.129.321.112.252.282.465.448.681l.398.555c.118.144.246.29.398.392.169.113.371.179.56.264l.364.154a2.11 2.11 0 0 0 .386.086l.673.06c.16.017.307-.014.442-.097.123-.075.256-.143.356-.243.118-.12.209-.266.244-.441a.47.47 0 0 1 .422-.326c.061.001.143-.021.177.01s.026.115.034.177l.05.406c.012.12-.069.201-.149.262l-.654.456c-.127.082-.269.141-.401.216-.107.061-.204.139-.314.192-.075.036-.164.043-.248.057-.248.043-.491-.018-.735-.049zm1.004 15.54c-.086-.002-.154.005-.217-.01-.026-.006-.041-.061-.06-.094s-.037-.092-.068-.105-.087.009-.118.033a.74.74 0 0 0-.125.137c-.048.063-.11.066-.18.062l-.317-.008c-.042-.105.026-.278.134-.299l.015.118c.039-.031.075-.048.087-.075.006-.014-.027-.052-.049-.071-.046-.041-.064-.078-.006-.122.011-.008.02-.018.03-.028.116-.111.192-.1.22.059.023.129.077.071.137.055l-.196-.231.151-.06a.37.37 0 0 0 .496.227l.067.412zm-.112-.639l.01.084c-.105-.005-.216.059-.285-.064l.275-.021zm-.243-.43c0-.07.057-.085.108-.093s.099 0 .157.002l-.006.251c0 .017 0 .039-.009.048l-.149.142c-.03-.051-.071-.098-.086-.153-.018-.063-.015-.132-.015-.198zm.471-.516c-.013.051-.01.133-.041.149a1.44 1.44 0 0 1-.304.107c-.044.012-.094 0-.141-.001l-.177-.003c-.079.004-.097-.046-.104-.107-.008-.075 0-.151.082-.176.177-.054.358-.088.546-.056.018.003.037-.012.057-.014.08-.009.104.021.083.101zm1.599.841c.08.159.053.325.036.491-.013.131-.022.143-.139.128-.025-.003-.062-.031-.065-.052-.015-.088-.068-.048-.109-.037-.02.005-.037.025-.052.041-.129.13-.289.125-.455.117-.093-.005-.189-.001-.28.018-.082.017-.085-.029-.071-.074.027-.083.068-.161.108-.252.071.056.122.096.048.167.081.067.132.019.17-.035.05-.07-.027-.089-.064-.103-.064-.023-.092-.065-.068-.119.018-.039.066-.087.102-.088.058-.002.117.032.114.111-.001.058.004.134.076.125.045-.005.11-.067.118-.111.009-.052-.017-.118-.105-.131-.045-.007-.089-.062-.119-.105-.007-.01.045-.064.074-.093.018-.018.044-.027.066-.04.172.148.334.154.512.016.049-.038.072-.027.099.026zm-.455-.461c.011-.043.077-.074.123-.102.027-.016.063-.017.125-.031.016.029.043.059.051.094.012.051.019.106.012.157-.005.038-.029.09-.059.103-.054.024-.133.05-.176.027-.094-.049-.099-.158-.076-.248zm.688-.6c.022.068.043.141.043.212 0 .032-.05.088-.081.091l-.55.027c-.143.003-.287-.003-.43-.009-.076-.003-.152-.013-.232-.02-.019-.255-.02-.265.218-.302l.871-.104c.085-.01.137.03.162.105zm.118-9.19c-.018.218-.05.429-.14.621-.107.224-.242.438-.382.643a.62.62 0 0 0-.113.309c-.029.366.021.728.078 1.089a2.58 2.58 0 0 1 .027.349l.005.708.003.846c.007.182.045.363.063.545l.032.46.057.94.048.67.065.585c.003.03-.001.061 0 .092.004.33-.047.66.016.989.015.081-.013.121-.109.119-.243-.007-.486-.007-.728.003-.107.005-.213.04-.337.065l-.039-.412-.056-.85-.104-.861c-.009-.082.016-.166.019-.25l-.003-.315-.036-.47-.036-.459-.009-.212-.01-.444-.007-.444c.008-.139.04-.276.059-.415.005-.034-.009-.07-.008-.105.012-.375-.001-.75.063-1.122.02-.119.009-.244.012-.366.003-.108-.007-.218.012-.323.024-.139.076-.272.107-.409l.087-.458c.005-.028-.017-.06-.013-.089.014-.094.043-.186.05-.28l.008-.467c-.004-.117-.239-.273-.321-.236s-.163.115-.213.195c-.162.259-.194.559-.238.854l-.12.688c-.022.119-.025.236-.013.36.016.169-.015.342-.025.513l-.036.707-.01.48.059.759c.003.037-.002.075 0 .112l.054 1.124.044.741.059.89.014.342.061.677.033.45.015.169c.006.071.003.126-.097.119l-.507-.014-.011-.711-.026-1.464-.009-.535-.056-.941-.014-.413-.092-.975-.018-.301c0-.189.03-.383.003-.567-.02-.137-.005-.274-.031-.409-.01-.055.011-.116.014-.174l.045-.944.107-1.07.146-.968c.014-.084.059-.162.091-.243.011-.028.033-.055.032-.083-.002-.133.07-.184.192-.181l.663.015.617.037.631.053c.014.001.029.005.04 0 .138-.053.163.033.186.14.037.172.066.337.052.52zm-2.333-.871l.009-.378q.065.318-.009.378zm.249-.408l.036-.005.037.301-.047.009-.026-.306zm.1-.003l.057-.004.016.365-.043.003-.03-.363zm.174.008c.026.018.054.028.054.039a1.58 1.58 0 0 1-.022.311l-.032-.35zm.095-.012l.061-.038c.013.03.034.058.037.088.011.089.017.179.019.268 0 .016-.022.043-.039.047s-.045-.021-.046-.035l-.032-.33zm.23.058c0-.023.027-.045.041-.067.013.021.033.04.037.062l.035.244c.002.025-.014.052-.022.079l-.029.002c-.016-.024-.043-.046-.046-.071-.01-.082-.015-.165-.015-.248zm.123-.005c-.002-.018.027-.052.049-.059s.063.018.063.028l-.018.341c0 .005-.016.008-.037.019l-.057-.33zm.227-.01c-.001-.014.02-.03.031-.044.015.015.04.029.043.046l.04.323-.034.026c-.018-.02-.047-.038-.05-.061a3.38 3.38 0 0 1-.03-.29zm.12.019c0-.02.024-.041.037-.061.02.013.056.025.057.04l.015.352c-.112-.034-.067-.127-.093-.185-.019-.043-.017-.097-.016-.146zm.256-.047l.038-.007.069.365c-.038-.006-.077-.003-.082-.015-.051-.111-.061-.227-.025-.343zm.157.017h.001.005.04l.024.325c-.09.01-.107-.04-.117-.327l.047.001h0zm.094.125c0-.047.023-.095.035-.143.02.038.047.073.057.112.014.054.02.111.02.166 0 .06-.024.104-.082.082-.012-.079-.03-.148-.031-.217zm.164-.132c.111.032.12.065.084.327-.088.003-.141-.202-.084-.327zm.156.165c-.003-.039-.012-.077-.021-.124.076-.016.109.003.104.072l-.008.18c-.002.015-.029.028-.044.042-.011-.015-.029-.03-.031-.045-.004-.041.002-.084-.001-.125zm.151.17l-.016-.288.046-.003.02.288-.05.003zm-.559-.608c-.126-.029-.241.004-.361.004l-.271.013-.931.058c-.03.002-.063.006-.091-.003s-.06-.03-.061-.047l-.047-1.136.001-.53-.009-.485c-.005-.159.045-.316-.006-.476-.02-.061.01-.093.088-.122l.833-.343c.122-.051.242-.118.37-.143.318-.063.478-.291.62-.546.077-.137.077-.279.063-.434-.017-.172-.01-.345-.072-.512-.058-.152-.229-.264-.386-.239l-.214.038c-.031.007-.069.022-.086.045l-.301.425c-.069.114-.138.213-.273.26-.201.069-.403.111-.619.089-.013-.178-.045-.346-.033-.511s.06-.333.108-.494l.241-.721c.122.087.235.146.32.234.16.164.362.201.566.183.135-.012.253-.11.342-.222l.205-.266c.043.077.09.145.121.22l.346.867c.04.11.041.234.062.352l.077.409.044.427-.002 1.145c.003.183.035.365.053.547l.025.338.007.698.043.578c.004.113-.014.228-.029.341-.003.023-.043.062-.061.059l-.68-.103zm.788.543c-.001.011-.04.032-.049.026-.026-.015-.063-.042-.063-.064 0-.046.021-.093.035-.149.107.038.084.117.077.186zm3.444-9.693c-.015.291-.046.58-.181.853-.145.292-.254.601-.388.899-.038.084-.112.151-.156.233l-.271.529-.309.5-.331.528c-.128.169-.274.329-.431.471-.21.191-.433.368-.661.538-.139.103-.296.181-.447.268l-.256.137-.072-.343-.171-.505c-.023-.063-.029-.094.052-.126l.954-.399c.079-.035.15-.092.225-.139.149-.092.308-.172.446-.279.085-.066.139-.173.208-.261.184-.239.29-.519.406-.792.086-.202.238-.416.309-.625.1-.293.048-.356.145-.651a4.47 4.47 0 0 0 .112-.482l.084-.942.03-.506c.001-.153-.047-.312-.021-.459.053-.29-.015-.569-.057-.845-.039-.256-.124-.513-.308-.72-.064-.072-.098-.171-.145-.258l-.148-.271-.153-.244c-.13-.204-.252-.41-.45-.563-.181-.14-.34-.309-.517-.456l-.656-.511c-.105-.074-.239-.105-.359-.158l-.388-.174-.855-.325c-.317-.091-.623-.284-.96-.298l-.506-.025c-.293 0-.559.061-.847.134-.171.043-.554.184-.716.323-.011-.011-.022-.022-.031-.035l-.228-.314A1.23 1.23 0 0 1 4.41.798l.639-.199c.392-.13.78-.276 1.191-.336.05-.007.104.017.157.015l.542-.023c.136.003.271.03.406.055l.791.155c.096.02.194.05.281.095.125.065.244.143.361.223l.422.305.559.529c.157.158.267.351.389.536.157.239.346.458.516.689.093.127.175.261.26.394l.179.3c.066.135.125.274.176.416l.146.472.166.724.214 1.051a2.71 2.71 0 0 1 .036.399l.017.867z" fill="#0f181b"/><path d="M2.08 2.356c-.031.059-.067.107-.124.124-.069.02-.136-.017-.143-.07s.017-.151.087-.145c.078.007.105-.002.179.091zm2.141 1.32c-.002.046-.028.09-.068.112s-.11.026-.152-.007c-.02-.016-.033-.039-.04-.063s-.013-.043-.01-.065c-.005-.018-.009-.035-.009-.055 0-.027.013-.052.032-.071s.046-.027.072-.028.05.012.068.028c.016.005.03.013.04.024a.13.13 0 0 1 .02.015.15.15 0 0 1 .047.112z" fill="#d1d3d4"/><g fill="#eac3a7"><path d="M5.129 3.904c-.006.14-.081.289-.268.419l-.025-.061c-.171-.066-.266-.21-.402-.316a.25.25 0 0 1-.118-.235c.003-.183-.108-.276-.308-.294l-.081-.002c.018-.14.09-.2.202-.153a1.08 1.08 0 0 1 .297.179c.131.117.169.221.145.349.004.029.033.06.056.015.023-.214-.107-.372-.29-.514l-.065-.051c-.006-.007-.043-.026.053-.026.288 0 .467.412.459.742-.009.032.046.03.046.011.002-.083-.015-.309-.073-.439-.004-.012.062.051.08.088.06.118.084.149.097.276.002.019.042.036.044.009-.022-.14-.013-.302-.024-.361-.023-.125.011-.113.042-.082.065.064.08.207.098.253.025.061.037.127.035.194zM3.234 2.112c-.094.086-.144.199-.185.318s-.047.121-.13.027-.142-.186-.271-.263c-.059-.035-.122-.063-.195-.017-.107.067-.152.076-.259.142-.013.007-.064.026-.071.017-.042-.07-.073-.138-.222-.13.246-.204.508-.341.823-.322.154.009.285-.02.396-.125.047-.045.077-.03.117.011.177.179.177.177-.004.342zm5.308 4.517c-.015-.051-.062-.123-.102-.129-.055-.008-.119.036-.177.062-.015.007-.026.03-.034.048-.04.089-.106.068-.167.036s-.115-.073-.066-.159a1.4 1.4 0 0 0 .102-.214c.037-.102.097-.209.089-.309-.012-.144-.071-.285-.122-.423-.035-.095-.097-.171-.204-.202-.191-.055-.364.013-.541.069-.139.045-.247.169-.408.162-.023-.001-.061.032-.069.057-.018.053-.015.112-.029.167-.037.154-.061.314-.12.46-.094.235-.21.46-.319.688-.023.048-.021.077.033.091l.096.023c.182.038.234.098.213.251a.28.28 0 0 1-.01.039l-.115.37c-.019.059.006.092.061.117.116.053.23.041.34.106.063.037.117.166.086.247a.48.48 0 0 1-.096.167c-.032.027-.091.038-.133.043-.071.007-.134-.035-.205-.032-.025.001-.068.02-.071.037-.037.189-.083.378-.093.569-.006.113.051.222.162.295.133.087.229.201.204.382l-.049.52H6.79l.018.24c.001.013.016.035.025.035.064.004.132.013.192-.002.023-.005.045-.07.044-.108a.84.84 0 0 0-.027-.216 1.37 1.37 0 0 1-.025-.577c.037-.234.25-.332.397-.479.115-.115.249-.21.371-.319a.81.81 0 0 0 .231-.406l.201-.755c.018-.062.057-.116.085-.175l.169-.356c.067-.134.114-.271.07-.419zM7.299 8.172c-.053.177-.069.191-.193.344-.047.059-.104.104-.113.099l.059-.109c.059-.12.143-.236.166-.363a1.12 1.12 0 0 0 .01-.366c-.009-.074-.069-.259-.062-.264.023.034.072.105.088.149.062.171.103.315.045.51zm.178-1.724c-.284-.037-.471-.126-.54-.405a.23.23 0 0 1 .187-.314c.115-.032.232-.063.35-.072.237-.017.405.186.339.417-.014.048-.02.097-.032.145a.27.27 0 0 1-.304.229zm.681.9c-.065.13-.189.227-.214.384a.15.15 0 0 1-.1.1c-.035.004-.094-.046-.109-.085s.003-.101.007-.153l.032-.001.077.149c.018-.02.035-.029.034-.037-.005-.172.134-.266.209-.396.079-.136.135-.284.195-.431.004-.01-.046-.062-.072-.062-.034-.001-.069.029-.118.052l.097.05-.217.245c-.014.014-.056.013-.078.003s-.037-.041-.035-.062c.008-.152.175-.367.378-.372.069-.001.11.033.116.116.016.202-.12.34-.2.5zM4.205 4.842l-.391.293c-.186.132-.29.327-.388.523-.038.077-.066.064-.119.038l-.354-.169c-.042-.02-.062-.048-.033-.092l.316-.461c.077-.105.101-.216.071-.338a1.77 1.77 0 0 1-.048-.647c.007-.058.045-.122.086-.166.145-.154.331-.219.547-.229q.005.188-.155.248c-.115.043-.169.17-.142.292.067.295.235.504.508.632.035.016.062.046.102.075zM2.343 3.586c.003.085-.077.045-.124.051-.026.004-.054 0-.098-.002-.127.016-.274-.069-.387-.157-.077-.06-.163-.151-.143-.182.024.003.09.109.238.17a.49.49 0 0 0 .328.009c.025-.007.06-.007.079.005.042.029.106.068.107.105z"/><path d="M2.136 3.406a.27.27 0 0 1-.117.035c-.189 0-.291-.065-.415-.202-.039-.059-.038-.128-.036-.193l.568.36z"/></g><path d="M2.84 2.771c-.187.124-.364.264-.474.468-.038.071-.075.07-.133.022l-.896-.733c-.079-.064-.078-.094.009-.145.264-.154.46-.362.542-.666.025-.095.07-.099.14-.027l.116.122c.086.079.087.105-.019.154a.74.74 0 0 0-.351.33c-.033.062-.057.132.012.182.151.106.241.023.326-.061l.264-.137c.119-.064.187-.055.292.064.074.084.138.179.201.273.037.055.053.101-.028.155z" fill="#234968"/><path d="M8.221 18.147c-.018.218-.05.429-.14.621-.107.224-.242.438-.382.643a.62.62 0 0 0-.113.309c-.029.366.021.728.078 1.089a2.58 2.58 0 0 1 .027.349l.005.708.003.846c.007.182.045.363.063.545l.032.46.057.94.048.67.065.585c.003.03-.001.061 0 .092.004.33-.047.66.016.989.015.081-.013.121-.109.119-.243-.007-.486-.007-.728.003-.107.005-.213.04-.337.065l-.039-.412-.056-.85-.104-.861c-.009-.082.016-.166.019-.25l-.003-.315-.036-.47-.036-.459-.009-.212-.01-.444-.007-.444c.008-.139.04-.276.059-.415.005-.034-.009-.07-.008-.105.012-.375-.001-.75.063-1.122.02-.119.009-.244.012-.366.003-.108-.007-.218.012-.323.024-.139.076-.272.107-.409l.087-.458c.005-.028-.017-.06-.013-.089.014-.094.043-.186.05-.28l.008-.467c-.004-.117-.239-.273-.321-.236s-.163.115-.213.195c-.162.259-.194.559-.238.854l-.12.688c-.022.119-.025.236-.013.36.016.169-.015.342-.025.513l-.036.707-.01.48.059.759c.003.037-.002.075 0 .112l.054 1.124.044.741.059.89.014.342.061.677.033.45.015.169c.006.071.003.126-.097.119l-.507-.014-.011-.711-.026-1.464-.009-.535-.056-.941-.014-.413-.092-.975-.018-.301c0-.189.03-.383.003-.567-.02-.137-.005-.274-.031-.409-.01-.055.011-.116.014-.174l.045-.944.107-1.07.146-.968c.014-.084.059-.162.091-.243.011-.028.033-.055.032-.083-.002-.133.07-.184.192-.181l.663.015.617.037.631.053c.014.001.029.005.04 0 .138-.053.163.033.186.14.037.172.066.337.052.52z" fill="#316956"/><g fill="#fff"><path d="M5.871 12.531c-.013-.178-.045-.346-.033-.511s.06-.333.108-.494l.241-.72c.122.087.235.146.32.233.16.164.361.201.566.183.135-.012.253-.11.342-.221l.205-.266c.043.077.09.145.121.22l.346.867c.04.11.041.234.062.352l.076.409.044.427-.002 1.145c.003.183.035.364.052.547l.025.338.007.698.043.579c.004.113-.013.228-.029.341-.003.023-.042.061-.061.059l-.68-.103c-.126-.029-.241.004-.361.004l-.271.013-.931.058c-.03.002-.063.006-.091-.002s-.06-.03-.061-.047l-.047-1.136.001-.53-.009-.485c-.005-.159.045-.316-.006-.476-.02-.061.009-.094.088-.122l.833-.343c.122-.051.242-.118.37-.143.318-.063.478-.291.62-.546.077-.137.077-.279.063-.434-.016-.172-.009-.345-.072-.512-.057-.152-.229-.265-.386-.239l-.214.038c-.031.007-.068.022-.086.046l-.301.425c-.069.115-.138.213-.273.26-.201.069-.403.111-.618.089z"/><path d="M1.4 9.346l.126-1.014a5.67 5.67 0 0 1 .12-.615c.031-.12.099-.229.145-.346s.078-.247.135-.361l.442-.834c.007-.013.051-.023.067-.014l.576.33c.057.032.074.061.046.128l-.278.701-.318 1.031c-.031.101-.072.201-.085.305-.022.177-.036.356-.033.534.004.23.009.463.048.689.035.202.115.397.181.593a3.69 3.69 0 0 0 .129.32c.112.252.282.465.449.682l.398.556c.118.144.246.29.398.392.17.113.371.179.56.264l.364.153a2.08 2.08 0 0 0 .386.086l.673.06c.16.017.307-.014.442-.097.123-.075.257-.143.356-.243a.86.86 0 0 0 .244-.441c.034-.171.249-.329.422-.326.061.001.143-.021.177.01s.026.115.034.176l.05.406c.012.12-.069.202-.149.262l-.654.456c-.127.082-.269.141-.401.216-.106.061-.203.14-.313.192-.075.036-.165.042-.248.057-.249.043-.491-.018-.735-.049s-.5-.034-.739-.095c-.208-.053-.4-.168-.597-.259-.075-.034-.144-.082-.219-.117-.261-.12-.489-.288-.704-.475-.2-.174-.397-.355-.525-.592l-.492-.935c-.089-.177-.176-.357-.235-.545-.078-.248-.136-.503-.188-.758-.031-.153-.034-.312-.051-.484z"/></g><path d="M4.64 4.523c-.107.087-.104.202-.107.319l-.003.114-.281-.209-.501-.471c-.05-.053-.076-.142-.084-.218-.012-.106.129-.189.253-.176.083.009.169-.003.253-.001.036.001.08.002.105.023l.32.283c.016.014.043.018.056.033.046.055.108.108.127.173.03.102-.089.089-.138.13z" fill="#41586d"/><path d="M1.818 1.368c-.042-.121-.104-.236-.154-.354-.085-.199-.253-.266-.447-.291C1.012.708.832.789.671.889c-.117.073-.209.19-.299.299-.118.144-.211.32-.187.501.031.24.118.477.375.582.173.071.347.154.546.104a.98.98 0 0 0 .648-.51c.082-.153.124-.323.064-.497zm-.095.351c-.005.087-.09.217-.228.29-.16.084-.335.142-.507.199-.227.075-.416.016-.554-.187l-.134-.186c-.085-.123-.066-.248.017-.358.107-.142.215-.288.347-.405.148-.132.34-.192.54-.202.148-.007.244.096.33.196.117.137.195.395.189.654z" fill="#6a4e62"/><path d="M5.915 5.188c-.067.059-.151.104-.185.172-.031.062-.01.152-.012.24-.257-.104-.478-.209-.665-.378-.102-.092-.214-.171-.319-.259-.085-.071-.062-.211.025-.29.111-.102.217-.038.326-.01.125.032.734.42.83.524z" fill="#567591"/><path d="M7.258 28.357c.172.148.334.154.512.016.049-.038.072-.028.099.026.08.16.053.325.036.491-.013.131-.022.143-.139.128-.024-.003-.062-.03-.065-.051-.015-.088-.068-.048-.11-.037-.02.005-.036.025-.052.041-.129.129-.289.126-.455.117-.093-.005-.189-.001-.28.018-.082.017-.085-.029-.07-.074.027-.083.068-.161.108-.252.071.056.123.096.049.168.081.067.132.019.17-.035.05-.07-.027-.089-.064-.103-.064-.023-.092-.065-.068-.119.017-.039.066-.087.102-.088.058-.002.117.032.115.111-.001.058.004.133.075.125.045-.005.11-.067.118-.111.009-.052-.017-.118-.105-.131-.045-.007-.089-.062-.119-.105-.007-.01.045-.064.075-.093.018-.018.044-.027.066-.04z" fill="#fff"/><path d="M3.755 3.514c-.199.121-.447.157-.559.41-.133-.019-.256-.075-.353-.191-.157-.187-.161-.262.01-.442l.35-.336.552.558z" fill="#41586d"/><path d="M6.852 27.638c-.019-.255-.02-.265.218-.302l.871-.104c.084-.01.137.03.161.105.022.069.043.141.043.212 0 .032-.05.088-.081.091l-.55.027c-.143.003-.287-.003-.43-.009l-.232-.02zM5.203 28.86l.014.118c.039-.031.075-.048.087-.076.006-.014-.027-.052-.049-.071-.046-.041-.064-.078-.006-.122.011-.008.02-.019.029-.028.116-.111.191-.1.22.059.023.129.077.071.137.055l-.196-.231.151-.06a.37.37 0 0 0 .496.228l.067.411c-.086-.002-.154.006-.218-.01-.026-.006-.04-.061-.06-.094s-.036-.092-.068-.105-.087.009-.118.033a.72.72 0 0 0-.125.137c-.048.063-.11.066-.18.062l-.317-.008c-.042-.105.026-.278.134-.299zm.581-1.047l-.177-.003c-.079.004-.097-.046-.104-.107-.008-.075 0-.151.082-.176.177-.054.359-.088.546-.056.018.003.038-.012.057-.014.08-.009.103.021.083.101-.013.051-.01.133-.041.149-.094.05-.2.079-.304.107-.044.012-.094 0-.142-.001z" fill="#fff"/><path d="M3.223 2.875c-.259.187-.544.322-.678.626-.008.018-.038.027-.057.04-.023-.045-.065-.09-.064-.134.002-.055.029-.118.064-.163.134-.173.275-.34.498-.402a.61.61 0 0 1 .187-.012c.02.001.038.033.05.045zm3.053 3.098c-.197.045-.379.032-.528-.116-.035-.035-.043-.096-.064-.144l.039-.031c.035.025.078.045.104.078.09.115.284.197.382.154.171-.074.278-.272.24-.443-.007-.03-.008-.06-.014-.109.178.231.154.54-.158.612z" fill="#6a4e62"/><path d="M6.737 10.166l.01.169c-.002.156.056.237.182.25s.224-.078.245-.221l.011-.088a.32.32 0 0 1-.152.41c-.15.069-.315-.016-.412-.213-.058-.116-.018-.244.115-.307zm-.672 17.817l-.006.251c0 .017 0 .038-.009.048l-.149.142c-.03-.051-.071-.099-.086-.153-.017-.063-.015-.132-.015-.198s.057-.085.108-.093.1.001.157.002zm1.597-.178c.016.029.043.059.051.094a.44.44 0 0 1 .012.157c-.005.038-.029.09-.059.103-.054.024-.133.05-.176.027-.094-.049-.099-.158-.076-.248.011-.042.077-.074.123-.102.027-.016.063-.017.124-.031z" fill="#fff"/><path d="M6.098 5.704c-.008-.004-.03-.008-.042-.022-.02-.024-.053-.06-.047-.08.024-.069.047-.154.099-.195.042-.033.086.032.105.086.029.079-.034.208-.116.211z" fill="#608db7"/><g fill="#fff"><path d="M3.954 1.606c-.039.05-.072.107-.119.147-.072.061-.153.112-.232.164-.015.01-.039.008-.058.006a.06.06 0 0 1-.005-.041l.375-.315.039.039zm2.55 9.337l.12-.167c.048.045.117.079.121.12.005.056-.038.117-.06.174l-.18-.126zm.414.142l-.056.059c-.014-.094-.029-.174.067-.239l.017.138.052-.12a.26.26 0 0 1 .049.226c-.003.013-.053.031-.063.023-.026-.02-.042-.053-.066-.085zm-.351 5.738c.013.029.034.058.037.088l.019.268c0 .016-.023.043-.039.047a.06.06 0 0 1-.046-.035l-.032-.33.061-.038zm.349.421l-.057-.33c-.002-.018.027-.051.049-.058s.063.018.063.028l-.019.341c0 .005-.016.009-.037.019zM2.724 5.574c-.144.111-.201.27-.252.436-.078-.065-.077-.037.027-.258.045-.096.1-.184.226-.178zm5.152 11.312c.111.032.12.065.084.327-.088.003-.141-.202-.084-.327zm-1.079.353c-.016-.024-.043-.046-.046-.071a1.89 1.89 0 0 1-.015-.248c0-.023.027-.045.041-.067.013.021.033.04.037.062l.034.244c.002.025-.014.052-.022.079l-.029.002z"/><path d="M7.315 17.254c-.112-.034-.067-.127-.093-.185a.35.35 0 0 1-.016-.145c.001-.021.024-.041.037-.061.02.013.056.025.057.04l.015.352zM2.774 5.697l-.139.418-.064-.013a.61.61 0 0 1 .203-.405z"/><path d="M7.572 16.892l.093.002.024.325c-.09.01-.107-.039-.117-.327z"/><path d="M7.743 17.236c-.012-.079-.03-.148-.03-.217 0-.047.022-.095.035-.143.02.037.047.073.057.113.014.053.021.11.02.166s-.024.104-.082.082zM7.5 16.87l.07.365c-.038-.006-.077-.003-.082-.015a.47.47 0 0 1-.025-.343l.038-.007z"/><path d="M7.166 17.255c-.017-.02-.047-.039-.05-.061l-.03-.29c-.001-.014.02-.03.031-.044.015.015.04.029.042.046l.04.323-.034.026zM2.948 5.872l-.023.133.058-.05c-.003.115.022.222-.104.294.002-.068.028-.15-.001-.202-.052-.096.083-.106.07-.175zm5.064 11.056c.076-.016.108.003.104.072l-.007.18c-.002.015-.029.028-.044.042-.011-.015-.029-.029-.03-.046-.004-.041.002-.084-.001-.125s-.012-.077-.021-.124zM3.44 1.249l-.241.168c-.035-.117.07-.194.241-.168zm2.328 27.276l.275-.021.01.085c-.105-.005-.216.059-.285-.064zM8.336 16.97c.107.038.084.117.076.186-.001.011-.04.032-.049.026-.026-.015-.063-.042-.063-.064 0-.047.021-.093.035-.149zm-2.448.306l.009-.378q.065.318-.009.378zm.674-6.619l-.085.093.12.003c-.049.042-.085.088-.099.082-.045-.018-.082-.056-.12-.088-.004-.003.003-.029.01-.033l.16-.076.014.019z"/><path d="M6.294 16.861l.016.365-.043.003-.03-.363.057-.004zM3.321 6.043l-.065.246c-.103-.077-.085-.152.065-.246zm-.19.055l.085-.282c.06.073.014.208-.085.282zm.785-4.33c-.022.104-.161.197-.276.18l.276-.18z"/><path d="M3.161 5.891l-.107.331c-.049-.083 0-.246.107-.331zm5.053 11.04l.019.288-.05.003-.015-.288.046-.003zm-2.051.243l-.026-.306.036-.005.037.301-.047.009z"/><path d="M6.412 16.873c.026.018.054.028.055.039a1.61 1.61 0 0 1-.022.311l-.032-.35zm.753-5.867l-.021-.075c-.005-.025-.001-.043-.001-.065.021.009.046.015.063.029s.024.033.028.051c.006.025.007.053.01.079l-.083-.023.003.003zm-.641-.432l-.193.079c.03-.119.065-.134.193-.079z"/><path d="M6.5 10.381c-.038.007-.079.024-.115.018-.022-.004-.037-.043-.056-.067l.021-.03.149.04.001.039zm.662.622l-.003.135-.038.003-.051-.188.02-.009.076.062z"/><path d="M6.747 11.103l.044-.215.043.008c.035.08-.043.141-.046.214l-.041-.008zm-.146-.92c-.048.025-.074.049-.088.043-.031-.011-.056-.038-.084-.059.023-.013.047-.037.069-.036s.052.024.103.052zM3.485 1.492l-.112.106c-.011.009-.035.002-.053.003.006-.018.008-.042.021-.052.038-.03.08-.055.121-.082l.024.026z"/></g><path d="M7.474 5.658a1.77 1.77 0 0 0-.35.072c-.166.046-.227.151-.187.314.069.28.256.368.54.406.167.005.263-.068.304-.229l.032-.145a.32.32 0 0 0-.339-.417zm-.386.255c.017-.02.05-.032.077-.035.008-.001.028.04.03.063.004.04 0 .08-.002.138-.044-.036-.083-.059-.109-.093-.012-.015-.009-.057.004-.073zm.303.47c-.191-.035-.378-.14-.39-.367l.281.178c.098.053.203.093.315.144-.051.072-.136.058-.206.045zm-.134-.411c.004-.109.038-.137.144-.113.038.009.074.028.112.037.069.017.122.054.107.13s-.064.137-.156.137c-.117.001-.21-.084-.207-.192zm.309.273l.136-.209c.065.132.007.214-.136.209zm-.061-.42c-.088-.029-.186-.029-.289-.043.234-.103.535-.074.543.179-.087-.048-.165-.107-.253-.136zm.653 1.524c-.065.13-.189.227-.214.384a.15.15 0 0 1-.1.1c-.035.004-.094-.046-.109-.085s.003-.101.007-.153l.032-.001.077.149c.018-.02.035-.029.034-.037-.005-.172.134-.266.209-.396.079-.136.135-.284.195-.431.004-.01-.046-.062-.072-.062-.034-.001-.069.029-.118.052l.097.05-.217.245c-.014.014-.056.013-.078.003s-.037-.041-.035-.062c.008-.152.175-.367.378-.372.069-.001.11.033.116.116.016.202-.12.34-.2.5zm-.859.823c-.053.177-.069.191-.193.344-.047.059-.104.104-.113.099l.059-.109c.059-.12.143-.236.166-.363a1.12 1.12 0 0 0 .01-.366c-.009-.074-.069-.259-.062-.264.023.034.072.105.088.149.062.171.103.315.045.51zM1.534 1.065c-.086-.1-.181-.203-.33-.196-.2.01-.392.07-.54.202-.132.117-.24.264-.347.406-.082.109-.102.235-.017.358l.134.186c.138.202.326.262.554.187.172-.057.347-.115.507-.199.138-.072.222-.202.228-.29.006-.259-.072-.517-.189-.654zm.013.746c-.021.078-.137.151-.226.187a1.57 1.57 0 0 1-.421.108c-.197.022-.541-.19-.523-.44-.008-.004.122-.216.194-.33.115-.183.294-.277.503-.334.266-.073.458.113.489.343a1.22 1.22 0 0 1-.017.467z" fill="#0f181b"/><path d="M1.564 1.344c-.03-.23-.222-.416-.489-.343-.209.058-.388.151-.503.334l-.194.331c-.018.25.326.462.523.44.143-.016.288-.053.421-.108.089-.037.205-.109.226-.187.039-.147.038-.313.017-.467zm-.509.331c-.063.092-.196.083-.26-.01-.027-.038-.064-.075-.07-.117s.019-.087.03-.132c.033.014.069.024.098.044.023.016.037.045.06.075.069-.085.138-.107.175-.056.054.074.004.141-.033.196z" fill="#567591"/><g fill="#fff"><path d="M7.597 6.337c-.051.071-.136.058-.206.045-.191-.035-.378-.14-.39-.367l.281.178c.098.053.203.093.315.144zm-.339-.366c.003-.109.038-.138.143-.113.038.009.074.028.112.037.069.017.122.054.108.13s-.064.137-.156.138c-.118.001-.21-.084-.207-.192zm.082-.082c-.005.064-.022.12-.007.163a.12.12 0 0 0 .105.052c.03-.008.054-.062.073-.086l-.171-.129zm.419.071c-.087-.048-.165-.107-.254-.136s-.186-.029-.289-.043c.234-.103.535-.074.543.179z"/><path d="M7.703 6.035c.065.133.007.215-.136.21l.136-.21zm-.509.044c-.044-.036-.083-.059-.11-.093-.012-.015-.009-.057.004-.073s.05-.032.077-.035c.008-.001.028.04.03.063.004.04 0 .08-.002.138z"/></g><path d="M7.339 5.89l.171.129c-.019.025-.04.077-.073.086s-.095-.024-.105-.052c-.016-.044.002-.099.007-.163zM1.055 1.675c-.063.092-.196.083-.26-.01-.027-.038-.064-.075-.07-.117s.019-.087.03-.132c.033.014.069.024.098.044.023.016.037.045.06.075.069-.085.138-.107.175-.056.054.074.004.141-.033.196z" fill="#0f181b"/></svg>