<svg xmlns="http://www.w3.org/2000/svg" viewBox="0 0 10.382 26.847" xmlns:v="https://vecta.io/nano"><path d="M9.052 2.549l-.542-.733c-.114-.206-.28-.375-.472-.509-.274-.195-.599-.279-.92-.363-.469-.193-.923-.461-1.44-.501-.442-.051-.883.026-1.323.071-.215.001-.437-.025-.647.034l-.504.157c-.297.062-.557.204-.818.346-.661.375-.725 1.224-.898 1.891-.018.531.008 1.06.045 1.59a1.11 1.11 0 0 1-.027.26c.04.134-.042.208-.13.287-.067.059-.042.256.037.346.2.204.042.435-.122.604-.239.108-.528.108-.758.256-.558.247-.04 1.302.089.884.178.229.473.346.667.559-.171.297-.074.301.154.505l-.1.071c-.154-.375-.342-.135-.466.101-.126.195-.197.414-.233.642-.09-.065-.275-.166-.317.008-.03.13 0 .205.119.278l.381.22c.159.08.283.299.142.427-.174.161-.156.54.142.491.057-.001.072.03.073.075.04.53-.105 1.079.073 1.594.118.325.256.632.499.885.113.171.262.301.429.418.229.189.455.383.754.445.201.05.402.125.612.115.098 0 .116.016.119.118.002.056.013.115.001.169-.038.184-.008.361.025.543.011.39.071.812-.018 1.192-.05.192-.002.382-.05.567-.068.259-.092.524-.115.79-.009.105-.058.213-.11.308-.072.13-.082.271-.101.41-.072.497-.028.999-.028 1.498-.131.914-.087 1.84-.201 2.755-.04.755-.272 1.473-.57 2.16-.064.209.24.128.357.144l.69.044c.02.002.053.045.052.069-.033.226.082.656-.21.711-.104.026-.173.087-.234.169-.201.213-.399.43-.473.722.012.14.318.09.395.058.097-.043.205-.059.305-.095.154-.045.294-.142.458-.141.012.151.007.313.131.421.06.055.163-.006.178-.104.046-.304.046-.605-.044-.903-.116-.288-.082-.576-.08-.878-.034-.219 1.136-.035 1.303-.031.172.007.393.018.356.238-.033.143.015.521-.122.577-.253.112-.47.251-.604.502-.087.168-.243.358-.235.552.06.102.296-.025.403-.012.332-.024.565-.206.794-.441.037.164.062.3.146.438.018.027.069.05.102.047s.08-.04.085-.069c.068-.327.034-.673-.098-.981-.077-.166-.006-.336-.018-.503l-.013-.287c-.007-.075.021-.102.095-.097l.831-.032c.071-.003.089-.034.067-.101l-.347-1.014c-.181-.669-.338-1.351-.361-2.047.061-.61.092-1.227.048-1.841.098-.543.056-1.095.134-1.64l.219-2.04.086-1.101c.082-.788.156-1.577.113-2.371-.025-.477-.127-.956-.087-1.435.065-.145.307-.208.433-.305l.55-.407c.11-.102.194-.24.31-.338.256-.251.617-.425.73-.785.243-.388.421-.826.541-1.268-.004-.364.196-.679.229-1.038.11-.607.143-1.227.139-1.843-.064-.882-.311-1.769-.81-2.507zM1.623 5.065c.028.085.035.167.101.229.05-.068.062-.152.087-.231l.028.004.114.235c.08-.115.056-.296.268-.27-.007.098-.007.19-.026.278-.057.146-.416.036-.552.046-.085-.007-.11-.05-.131-.186-.012-.081.05-.077.111-.104zm.658-.082c-.101-.202.035-.41.033-.62.053-.572.015-1.171.32-1.681a.92.92 0 0 1 .388-.419c.131-.087.214-.231.368-.296.289-.162.572-.342.91-.384.228-.094.474-.11.712-.16.137-.037.271-.06.412-.034.42.028.896.457 1.239.697.087.066.156.158.248.213.275.164.452.421.636.668.73.914.766 2.127.702 3.244-.017.373-.197.721-.272 1.081-.148.875-.713 1.612-1.421 2.122-.169-.233-.254-.499-.505-.661-.181-.123-.308-.289-.452-.457.046-.224.039-.482.034-.714.006-.21-.062-.438.081-.619.433-.571.356-1.301.276-1.972.088.015.234.155.252.028.101-.495.035-1.023-.079-1.509-.157-.364-.529-.586-.909-.662-.484-.126-.99-.212-1.47-.007-.405.212-.766.698-.612 1.161.124.385.415.689.576 1.056.071.179.117.369.175.553.013.043.035.069.09.043.092-.025.304-.176.359-.045.075.213.055.459.108.67.148.269-.12.664.182.82.099.051.194.118.299.148.113.032.13.109.13.197l-.059.879c-.229.11-.245.339-.378.517-.296.261-.405.645-.594.978-.184.316-.277.667-.344 1.024-.12.498-.149 1.015-.095 1.523l-.04.604c-.003.051-.02.084-.079.078-.215-.027-.462-.012-.659-.105-.254-.18-.57-.335-.744-.6-.256-.55-.265-1.178-.198-1.771.028-.233.152-.453-.087-.617-.043-.027-.031-.067.013-.077.148-.023.27-.098.387-.185.141-.103.369-.216.278-.429-.036-.07-.085-.104-.157-.077.02-.084-.025-.333.1-.318.17 0 .345.083.504-.015l-.468-.091.39-.293c.138.122.144.141.112.362.183-.102.074-.242-.005-.38-.076-.081.119-.255.146-.35.108-.275-.221-.382-.432-.356-.114.013-.224.048-.34.075-.042-.208-.184-.254-.05-.303.143-.054.187-.213.239-.34.071-.196.104-.389.005-.582-.079-.276-.201-.532-.329-.787-.21-.375.301-.375.072-.821zm2.847 3.264l.042-.745c.073-.577-.602-.277-.535-.893.008-.288.088-.234.314-.319a.5.5 0 0 0 .322-.349c.011-.042.003-.08-.057-.083-.231-.048-.433-.178-.662.007-.079-.396-.076-.471-.497-.343-.02.004-.053.001-.062-.012-.088-.179-.117-.391-.214-.566l-.444-.756c-.133-.19-.054-.363.006-.558.01-.388.761-.475 1.058-.515.443-.112.737.448.738.829-.004.118.02.238.04.356.074.337-.147.464-.362.667-.151.207.816-.059.952.062.071.003.16-.012.154.09l.008.42c.015.252-.037.501-.055.751-.009.12-.018.239-.092.339-.12.175-.314.32-.321.55.027.396.03.791.022 1.186-.049.273-.375.083-.355-.118zm.277.404c-.058.287-.166.45-.207.027-.069.032-.104.088-.135.155-.118.131-.344-.224-.047-.367.071-.044.093.039.13.078l.259.107zm-.434-2.497c-.067.067-.358.224-.361.042l.361-.042zm-.341-.078c-.003-.091.059-.116.306-.12-.099.084-.209.084-.306.12zm-.315-3.229l.164-.018.007.043-.167.013-.003-.038zm.731.313c.091 0 .185.112.221.284l-.221-.284zm.382.318c.147.184.226.636.05.895.023-.307.035-.602-.05-.895zm.167-.101l.029-.01.11.298-.022.006-.117-.294zm.261.532l-.031-.354.035-.003c-.041.122.08.231-.003.357zm-.271 4.541l.116.328c-.031.255-.395-.1-.116-.328zm.435-4.958l.087.342-.029.009c-.053-.042-.082-.174-.058-.351zm.208.96l.005.235c-.114-.084-.114-.102-.005-.235zM1.564 7.609c-.073-.275-.451-.969-.038-1.092.233-.046.788-.011.643.357-.052.128-.115.253-.145.386-.024.103-.073.101-.144.078-.157-.051-.329.114-.316.27zm.707 1.097l-.241-.133c.156-.166.131-.173.07-.304-.107-.17-.293-.043-.316.157-.321-.31-.015-.271.232-.41.083-.036.192.006.207.093l.084.569-.037.027zm.124.677l-.131.121-.022-.012c.032-.091.033-.127.153-.109zm-.341-1.521c-.08-.052-.181-.071-.269-.112-.231-.064-.126-.293.072-.323a.66.66 0 0 1 .339.3c.055.104-.023.215-.142.135zm-.398-.045c.102.038.226.033.302.137l-.306.137c-.012-.111-.064-.205.004-.274zm.581 1.021c-.077.04-.151.096-.235.121-.202.06-.168.068-.235-.104l-.129-.423.6.406zm-.171.483c-.096.061-.209.101-.325.089-.047 0-.112.007-.137-.02-.062-.064-.105-.146-.154-.217.369-.063.311-.072.616.147zm-.145-.248l.333-.152c-.012.256-.144.328-.333.152zm.588-.96c-.113-.044-.092-.139-.137-.217.185-.046.638-.175.689.084.002.1-.095.371-.234.325-.107-.063-.204-.147-.318-.192zm-.097.59l.039-.526c.448.281.462.184-.039.526zM1.227 7.431c-.036-.003-.059-.004-.069-.055-.017-.082-.074-.159-.082-.241-.034-.197.032-.418-.046-.604-.155-.053-.071.22-.074.3.008.207.03.372.093.58-.214-.172-.24-.428-.283-.673-.004-.059-.01-.099-.058-.15-.077.234.038.428.085.632C.658 7.103.625 6.931.55 6.78c-.066.125-.027.249-.032.379a.66.66 0 0 1-.127-.604c.092-.256.443-.311.677-.366.339-.032.424-.288.539-.553l.408-.058c.063.272.151.546.306.781.139.178.277.891-.102.838.038-.191.184-.432.035-.605-.247-.273-.879-.314-.996.102-.099.706.235.633.155.95-.038-.131-.036-.204-.186-.211zm.299.351c.003.117.012.219-.017.329-.176-.098-.329-.315.017-.328zm-.149.713c-.007-.146-.012-.149.134-.199l.209.76c-.101-.021-.361.076-.351-.085l.008-.475zm-.819.686c.066.031.077.11.122.191-.094-.047-.262-.115-.122-.191zm.173.197c.201-.089-.071-.303.034-.456.054.124.017.392.197.369-.085-.271-.235-.543-.028-.807-.002.4-.004.466.152.83.008.049.016.083.064.067.065-.076-.025-.208-.034-.296l-.082-.561.199-.187c.005.032.022.069.012.1-.06.203-.067.41-.05.618.048.522.535.5.931.388.07.13.027.183-.11.229-.123.05-.247.096-.352.181-.034.027-.08.05-.122.053-.123-.008-.298.041-.361-.102-.056-.201-.311-.292-.45-.427zm.45.872c0 .069-.061.107-.119.124-.02.005-.069-.024-.07-.039-.038-.218.141-.344.345-.348.182.036.356.085.48.233.015.014.012.07-.005.089-.12.154-.163.001-.255-.088-.046.042-.077.069-.074.133-.075.145-.16.041-.164-.076-.008-.101-.108-.14-.139-.03zm1.426 3.041a5.57 5.57 0 0 1-.802-.581c-.157-.086-.228-.223-.284-.378-.077-.261-.223-.502-.212-.784.01-.12-.002-.243-.005-.364h.009l-.012-.585c-.002-.056.006-.079.072-.067.078.029.173-.089.237-.03.044.149-.036.323-.023.478.035.566-.048 1.279.436 1.68.264.188.547.374.838.517.318.063.652.093.974.083.272-.035.806-.306.962-.534.326-.455.387-.578.318-1.142-.036-.259.046-1.692.42-1.594.333.069.415.814.358 1.1-.04.24-.03.488-.114.721-.109.353-.128.754-.383 1.042-.082.077-.143.182-.234.243-.413.271-.837.572-1.353.564-.51.077-.811-.063-1.204-.368zm1.471 12.764c-.034.097-.087.124-.159.048-.109-.1-.227.033-.339.059a1.83 1.83 0 0 1-.556.129c-.228.015.057-.197.085-.28.09-.252.289-.424.525-.536.049-.025.089-.062.147-.021.065-.001.138-.048.206-.068.063.218.162.437.091.669zm-.33-1.281c.004-.098.021-.116.118-.12.116-.008.095.095.097.173-.03.157.024.449-.157.512-.166-.016-.036-.437-.058-.566zm2.456 1.367c0 .017-.069.039-.108.047-.011.003-.034-.035-.045-.058-.007-.015.004-.038-.003-.052l-.093-.156c-.104.077-.181.194-.286.264-.075.051-.898.498-.807.239.178-.286.299-.66.64-.791.324-.122.181.26.608-.041.069.175.095.36.095.548zm-.448-.832c.012-.13-.018-.497.057-.582.177-.056.205-.104.231.122-.026.235-.041.476-.128.698-.116.168-.154-.166-.16-.239zm.912-11.11c-.112 1.229-.383 2.442-.365 3.681.017.392-.1.771-.083 1.162l.011 2.514.015.535.131.621.242 1.084.253.65c.005.015-.02.058-.037.061-.128.025-.258.06-.387.06l-2.218-.112-1.492.043c-.051.001-.071-.015-.047-.069a8.07 8.07 0 0 0 .536-1.54c.066-.199.095-.402.118-.607l.202-2.427c-.009-.427.203-.812.21-1.241l.086-1.207.143-1.417c.005-.474-.037-.949-.074-1.42l.02-.518c-.001-.097.051-.135.126-.164.422-.152.844-.297 1.181-.607.226-.169.426-.38.5-.659.08-.216.158-.431.191-.664.069-.483.283-.957.176-1.452-.032-.21-.09-.408-.273-.542-.388-.37-.754.293-.773.644l-.014.29c-.06.452-.013.933-.185 1.361-.148.219-.324.423-.542.573l-.438.142c-.137-1.035-.073-2.139.333-3.115l.231-.544c.064-.207.21-.339.356-.485.123.274.295.033.375.163.097.133.227-.013.283-.113.19.202.311.265.463-.015.159.132.321.238.357.457l.183.948-.022.006c-.274-.803-1.275-1.383-1.625-.299.164-.057.2-.258.319-.369.166-.209.365-.112.566-.007.398.137.5.559.58.926.032.227.009.462.005.691 0 .024.025.047.039.071l.035-.01.097-.679c.107.483.108.97.127 1.45 0 .02-.001.044.009.059.078.128.045.269.046.406.001.15-.026.306.005.45.074.406.088.827.022 1.234zm2.593-7.355c-.051.337-.028.69-.167 1.008-.097.184-.1.413-.166.608-.05.128-.14.241-.182.37-.106.28-.344.453-.547.655l-.445.481c-.139.145-.296.272-.399.448l-.386.241c-.093.054-.124.035-.127-.067a3.17 3.17 0 0 0-.123-.748c-.011-.04-.013-.1.01-.13.357-.442.842-.766 1.142-1.258.294-.571.456-1.202.598-1.823.014-.428.095-.853.072-1.283.087-1.096-.372-2.175-1.179-2.915-.343-.305-.717-.583-1.088-.854-.423-.318-.942-.59-1.496-.501-.307.081-.643.085-.937.212l-.764.405c-.248.129-.373.368-.512.588-.341.63-.392 1.373-.48 2.072l-.014.318c-.005.121.062.273-.112.335-.105-.137-.172-.015-.281-.015-.057-.062-.008-.173-.016-.25-.056-.495-.018-.994.018-1.487l.099-.591c.016-.227.13-.41.222-.604.156-.311.329-.643.672-.778.278-.146.572-.256.87-.355s.603-.191.922-.167c.275-.004.549-.044.824-.062.22-.015.437-.007.652.061.298.059.597.115.875.247.734.288 1.334.828 1.756 1.489.334.524.707 1.066.81 1.689.065.889-.037 1.776-.121 2.661z" fill="#0f181b"/><path d="M3.976 24.829c-.042.156.012.447-.17.511-.166-.016-.036-.437-.058-.566.004-.098.021-.116.118-.12.116-.008.095.095.097.173zm2.078.022c-.036.234-.051.475-.137.697-.116.168-.154-.166-.16-.239.012-.13-.018-.497.057-.582.177-.056.205-.104.231.122z" fill="#eac3a7"/><path d="M6.205 26.141c0 .017-.069.039-.108.047-.011.003-.034-.035-.045-.058-.007-.015.004-.038-.003-.052l-.093-.156c-.104.077-.181.194-.286.264-.075.051-.898.498-.807.239.178-.286.299-.66.64-.791.324-.122.181.26.608-.041.069.175.095.36.095.548zm-2.126-.085c-.034.097-.087.124-.159.048-.109-.1-.227.033-.339.059a1.83 1.83 0 0 1-.556.129c-.228.015.057-.197.085-.28.09-.252.289-.424.525-.536.049-.025.089-.062.147-.021.065-.001.138-.048.206-.068.063.218.162.437.091.669z" fill="#316956"/><path d="M2.394 9.382l-.131.121-.022-.012c.032-.091.033-.127.153-.109z" fill="#9fa3a4"/><path d="M.681 9.372c-.094-.047-.262-.115-.122-.191.066.031.077.11.122.191z" fill="#eac3a7"/><g fill="#234968"><path d="M5.734 3.666l-.022.006-.117-.294.029-.01.11.298zm-1.248-.793l-.167.013-.003-.038.164-.018.007.043zm.781.572l-.221-.284c.091 0 .185.112.221.284z"/><path d="M5.857 3.91l-.031-.354.035-.003c-.041.122.08.231-.003.357z"/><path d="M6.107 3.836l-.029.009c-.053-.042-.082-.174-.058-.351l.087.342zm.126.852c-.114-.084-.114-.102-.005-.235l.005.235z"/><path d="M5.478 4.374c.023-.307.035-.602-.05-.895.147.184.226.636.05.895z"/></g><path d="M4.936 5.957c-.099.084-.209.084-.306.12-.003-.091.059-.116.306-.12zm.035.197c-.067.067-.358.224-.361.042l.361-.042z" fill="#be1e2d"/><g fill="#316956"><path d="M5.702 8.779c-.031.255-.395-.1-.116-.328l.116.328z"/><path d="M5.405 8.651c-.058.287-.166.45-.207.027-.069.032-.104.088-.135.155-.118.131-.344-.224-.047-.367.071-.044.093.039.13.078l.259.107z"/></g><path d="M5.928 5.537l-.008-.42c.007-.102-.083-.087-.154-.09-.136-.121-1.104.145-.952-.062.215-.203.436-.33.362-.667-.02-.118-.043-.238-.04-.356-.001-.381-.294-.941-.738-.829-.297.04-1.047.127-1.058.515-.059.195-.139.368-.006.558l.444.756c.096.175.125.386.214.566.009.013.042.016.062.012.421-.128.418-.053.497.343.229-.185.431-.054.662-.007.06.003.068.041.057.083a.5.5 0 0 1-.322.349c-.226.085-.306.031-.314.319-.067.616.608.316.535.893-.029.247-.034.497-.042.745-.02.201.306.39.355.118L5.46 7.176c.007-.231.201-.375.321-.55.073-.1.083-.219.092-.339.019-.251.07-.499.055-.751zM4.636 3.874c-.183.28-.371.33-.671.431l.005.03.248.016v.036c-.176.069-.368-.02-.543-.058-.199-.085-.033-.521.104-.622.029-.024.064-.046.082-.077.156-.241.605-.16.882-.214-.047.167-.003.327-.107.456zm.876 2.137c-.015.152-.059.289-.142.419l-.039-.015c.137-.429.163-.508-.2-.815.051-.049.109.017.162.036.171.09.279.161.219.375zM2.018 9.672c-.123.05-.247.096-.352.181-.034.027-.08.05-.122.053-.123-.008-.298.041-.361-.102-.056-.201-.311-.292-.45-.427.201-.089-.071-.303.034-.456.054.124.017.392.197.369-.085-.271-.235-.543-.028-.807-.002.4-.004.466.152.83.008.049.016.083.064.067.065-.076-.025-.208-.034-.296l-.082-.561.199-.187c.005.032.022.069.012.1-.06.203-.067.41-.05.618.048.522.535.5.931.388.07.13.027.183-.11.229zm.303-3.314c-.154-.235-.243-.509-.306-.781l-.408.058c-.115.265-.2.522-.539.553-.234.055-.584.11-.676.366a.66.66 0 0 0 .127.604c.004-.13-.034-.254.032-.379.076.151.109.323.244.441-.047-.204-.162-.398-.085-.632.049.051.054.09.058.15.043.245.069.501.283.673a2.15 2.15 0 0 1-.093-.58c.003-.08-.082-.353.074-.3.079.186.012.407.046.604.008.082.065.159.082.241.01.051.033.052.069.055.15.007.148.08.186.211.08-.317-.254-.244-.155-.95.117-.416.749-.375.996-.102.149.174.002.414-.035.605.379.053.24-.66.102-.838zm-.59-.067c-.084.024-.194.017-.254-.054q.471-.053.58.043c-.108.004-.223-.016-.327.011z" fill="#eac3a7"/><path d="M2.221 5.032c-.007.098-.007.19-.026.278-.057.146-.416.036-.552.046-.085-.007-.11-.05-.131-.186-.012-.081.05-.077.111-.104.028.085.035.167.101.229.05-.068.062-.152.087-.231l.028.004.114.235c.08-.115.056-.296.268-.27zm-.407 5.278c-.12.154-.163.001-.255-.088-.046.042-.077.069-.074.133-.075.145-.16.041-.164-.076-.008-.101-.108-.14-.139-.03 0 .069-.061.107-.119.124-.02.005-.069-.024-.07-.039-.038-.218.141-.344.345-.348.182.036.356.085.48.233.015.014.012.07-.005.089z" fill="#184137"/><path d="M6.836 24.507c-.128.025-.258.06-.387.06l-2.218-.112-1.492.043c-.051.001-.071-.015-.047-.069a8.07 8.07 0 0 0 .536-1.54c.066-.199.095-.402.118-.607l.202-2.427c-.009-.427.203-.812.21-1.241l.086-1.207.143-1.417c.005-.474-.037-.949-.074-1.42l.02-.518c-.001-.097.051-.135.126-.164.422-.152.844-.297 1.181-.607.226-.169.426-.38.5-.659.08-.216.158-.431.191-.664.069-.483.283-.957.176-1.452-.032-.21-.09-.408-.273-.542-.388-.37-.754.293-.773.644l-.014.29c-.06.452-.013.933-.185 1.361-.148.219-.324.423-.542.573l-.438.142c-.137-1.035-.073-2.139.333-3.115l.231-.544c.064-.207.21-.339.356-.485.123.274.295.033.375.163.097.133.227-.013.283-.113.19.202.311.265.463-.015.159.132.321.238.357.457l.183.948-.022.006c-.274-.803-1.275-1.383-1.625-.299.164-.057.2-.258.319-.369.166-.209.365-.112.566-.007.398.137.5.559.58.926.032.227.009.462.005.691 0 .024.025.047.039.071l.035-.01.097-.679c.107.483.108.97.127 1.45 0 .02-.001.044.009.059.078.128.045.269.046.406.001.15-.026.306.005.45.074.406.088.827.022 1.234-.112 1.229-.383 2.442-.365 3.681.017.392-.1.771-.083 1.162l.011 2.514.015.535.131.621.242 1.084.253.65c.005.015-.02.058-.037.061z" fill="#58906b"/><path d="M5.896 11.09c-.04.24-.03.488-.114.721-.109.353-.128.754-.383 1.042-.082.077-.143.182-.234.243-.413.271-.837.572-1.353.564-.51.077-.811-.063-1.204-.368a5.57 5.57 0 0 1-.802-.581c-.157-.086-.228-.223-.284-.378-.077-.261-.223-.502-.212-.784.01-.12-.002-.243-.005-.364h.009l-.012-.585c-.002-.056.006-.079.072-.067.078.029.173-.089.237-.03.044.149-.036.323-.023.478.035.566-.048 1.279.436 1.68.264.188.547.374.838.517.318.063.652.093.974.083.272-.035.806-.306.962-.534.326-.455.387-.578.318-1.142-.036-.259.046-1.692.42-1.594.333.069.415.814.358 1.1zm3.365-4.246c-.051.337-.028.69-.167 1.008-.097.184-.1.413-.166.608-.05.128-.14.241-.182.37-.106.28-.344.453-.547.655l-.445.481c-.139.145-.296.272-.399.448l-.386.241c-.093.054-.124.035-.127-.067a3.17 3.17 0 0 0-.123-.748c-.011-.04-.013-.1.01-.13.357-.442.842-.766 1.142-1.258.294-.571.456-1.202.598-1.823.014-.428.095-.853.072-1.283.087-1.096-.372-2.175-1.179-2.915a14.49 14.49 0 0 0-1.088-.854c-.423-.318-.942-.59-1.496-.501-.307.081-.643.085-.937.212l-.764.405c-.248.129-.373.368-.512.588-.341.63-.392 1.373-.48 2.072l-.014.318c-.005.121.062.273-.112.335-.105-.137-.172-.015-.281-.015-.057-.062-.008-.173-.016-.25-.056-.495-.018-.994.018-1.487l.099-.591c.016-.227.13-.41.222-.604.156-.311.329-.643.672-.778.278-.146.572-.256.87-.355s.603-.191.922-.167c.275-.004.549-.044.824-.062.22-.015.437-.007.652.061.298.059.597.115.875.247.734.288 1.334.828 1.756 1.489.334.524.707 1.066.81 1.689.065.889-.037 1.776-.121 2.661z" fill="#316956"/><path d="M3.861 3.631c-.018.031-.053.053-.082.077-.137.1-.303.537-.104.622.175.037.368.127.543.058v-.036l-.248-.016-.005-.03c.3-.101.488-.151.671-.431.104-.129.06-.29.107-.456-.277.053-.726-.028-.882.214zm.374-.117l-.497.363c.035-.141.322-.355.497-.363zm-.093.262c-.047.104-.176.059-.107.182-.214-.106.057-.243.16-.282.09.096.157.242-.034.258.017-.061.067-.122-.02-.158zm-.216.214l-.132.094-.034-.034.113-.123.053.063zm-.214.261l-.014-.032a3.12 3.12 0 0 1 .752-.216c-.068.141-.505.292-.738.248zm.647-.429l-.091-.209.332-.054.01.031c-.069.093-.122.202-.251.232z" fill="#0f181b"/><g fill="#567591"><path d="M4.235 3.514l-.497.363c.035-.141.322-.355.497-.363z"/><path d="M3.926 3.99l-.132.094-.034-.034.113-.123.053.063z"/><path d="M4.162 3.934c.017-.061.067-.122-.02-.158-.047.104-.176.059-.107.182-.214-.106.057-.243.16-.282.09.096.157.242-.034.258zm.447-.344c-.069.093-.122.202-.251.232l-.091-.209.332-.054.01.031z"/><path d="M4.45 4.002c-.068.141-.505.292-.738.248l-.014-.032a3.12 3.12 0 0 1 .752-.216z"/></g><path d="M5.512 6.011c-.015.152-.059.289-.142.419l-.039-.015c.137-.429.163-.508-.2-.815.051-.049.109.017.162.036.171.09.279.161.219.375zm-3.454.268c-.108.004-.223-.016-.327.011-.084.024-.194.017-.254-.054q.471-.053.58.043z" fill="#0f181b"/></svg>