<svg id="Layer_13" xmlns="http://www.w3.org/2000/svg" viewBox="0 0 16.577 37.898"><defs><style>.cls-1{fill:#eac3a7}.cls-3{fill:#be1e2d}.cls-4{fill:#184137}.cls-5{fill:#0f181b}.cls-6{fill:#58906b}.cls-7{fill:#316956}.cls-8{fill:#567591}</style></defs><g id="Ljypys.tif"><path class="cls-5" d="M16.278 1.839c-.172-.07-.356-.116-.52-.199-.191-.132-.416-.126-.63-.166-.128-.035-.258-.031-.388-.028-.442-.04-.88-.112-1.322-.16-.55-.104-1.109-.165-1.632-.375-.097-.034-.198-.057-.3-.007a.1.1 0 0 1-.069.003c-.153-.045-.292.024-.437.05-.455.027-.914.012-1.37.019-.35.046-.678.196-1.025.264.001-.242-.008-.488-.014-.73a.266.266 0 0 0-.07-.22c-.06-.058-.138-.127-.23-.098-.104.024-.215.036-.28.13-.03.052-.04.118-.088.162-.073.11-.008.25-.012.373.043.449-.007.9-.041 1.346-.035.184.022.365-.003.544-.025.17-.021.337-.015.507.005.163.008.325.01.488 0 .02-.027.04-.03.063-.007.034-.018.076-.005.104.09.213.114.461.047.681-.029.159.073.317-.03.466.01.319.036.645-.002.966.002.026-.035.05-.04.068.033.157-.029.303-.049.453-.013.106-.022.212-.037.317-.06.244-.056.494-.054.743-.022.3-.015.603-.013.906.02.505-.06 1.006-.008 1.509.081.578.059 1.16.085 1.741.001.029-.018.078-.038.085-.224.089-.3.327-.451.494l-.028-.011c-.015-.142.026-.24-.155-.271-.222-.03-.527-.06-.639.187-.234-.029-.476-.026-.713-.034-.498-.032-1-.09-1.494.004-.618.159-1.249.302-1.825.582-.228.092-.42.239-.607.393-.137.122-.309.21-.434.343-.046.099-.156.12-.225.191-.123.113-.232.24-.32.383-.148.302-.368.577-.436.91-.05.166-.136.322-.118.504-.008.183-.011.368-.02.552-.002.022-.043.049-.038.066a.243.243 0 0 1-.017.177c.013.14.021.3.014.447a.659.659 0 0 0-.021.287c-.04.037-.018.102.005.169.067.379.07.77.191 1.14.04.153.117.295.185.439.017.034-.005.1.064.105.004 0 .003.042.005.067l.035-.01.198.38c.168.112.058.228.166.179.006.07.01.142.107.146.27.372.503.779.847 1.093.146.162.352.25.522.383.102.077.121.072.069.2a8.09 8.09 0 0 0-.127 1.176c-.062.275-.072.558-.106.837a.925.925 0 0 0-.078.416c.007.178-.01.356-.012.535-.006.148.027.303.003.45-.04.15.037.288.027.437.031.254.024.498.035.754-.003.284-.045.579.032.864.03.133.036.273.074.405.054.216.218.394.247.618.074.439.18.878.161 1.325 0 .402.05.8.004 1.2-.02.968-.123 1.93-.16 2.896-.103.53-.098 1.068-.085 1.607-.025.197-.015.395.003.593.015.182.011.362-.013.542-.003.022.037.067.061.071.667.101.697-.137.64.437-.317.064-.366.602-.355.869-.006.105-.05.256.107.253.097-.015.3.087.307-.07.004-.035-.016-.078.008-.107.269.205.53.306.847.143.031-.014.06-.058.071-.094.094-.37-.246-.764-.545-.94-.062-.055-.01-.13-.022-.194-.011-.067.005-.138 0-.207-.004-.059.017-.077.073-.078.167-.027.583.05.583-.195-.013-.485.08-.96.125-1.44a8.747 8.747 0 0 0 .09-2.087c-.021-.502.006-1.004-.061-1.504a28.014 28.014 0 0 0-.076-1.989c-.01-.2-.024-.402-.013-.603.018-.159-.058-.28-.057-.437.094.045.09.13.1.199.064.444.108.89.182 1.334.12.815.147 1.643.128 2.463a22.489 22.489 0 0 0-.064 2.303 23.83 23.83 0 0 0-.102 1.56c-.02.38-.135.464.333.414.015 0 .043.015.042.021-.003.032-.004.075-.024.092-.067.055-.058.134-.081.203-.02.066-.047.13-.08.192-.075.14-.144.273-.108.448.068.187-.099.575.182.613.311-.092.32-.01.307-.334.167.022.26.175.435.167.428.035.748-.165.47-.6-.228-.403-.537-.32-.695-.625-.063-.193.28-.109.385-.13.066-.004.056-.067.062-.106.049-.336.098-.673.104-1.012.064-.646.117-1.291.13-1.94.053-.86.076-1.725.004-2.583-.005-.685-.31-1.322-.357-2.003-.047-.354-.166-.694-.237-1.042-.12-.465-.11-.94-.11-1.415.13-.015.156-.026.158-.15.003-.234.077-.462.048-.7-.025-.197-.032-.396-.05-.594a27.37 27.37 0 0 1-.16-2.155c.742.064 1.438.18 2.163-.049-.015.434.042.82-.01 1.245-.008.176-.053.348-.018.53.03.164.003.338.002.507.003.445.031.89.037 1.336-.027.435-.056.87-.001 1.306.065.197.361.202.51.084.218-.16.1-.68.123-.934-.011-.669-.066-1.336-.074-2.004.08-.733.028-1.473.02-2.21 0-.043.002-.071.048-.097.087-.047.165-.111.25-.161A2.09 2.09 0 0 0 9.3 20.87c.104-.357.25-.701.357-1.055.057-.49-.08-1.101-.396-1.487-.038-.051-.019-.103.003-.148.14-.274-.244-.386-.414-.512-.157-.087-.354.119-.426-.11-.06-.144-.138-.272-.28-.35-.04-.022-.062-.05-.06-.1.017-.327.038-.654.057-.982.008-.212.004-.424.016-.635.014-.21.071-.416.057-.628.017-.39-.05-.784-.03-1.172.191-.062.378-.117.56-.184a.683.683 0 0 0 .4-.512.177.177 0 0 0-.232-.177c-.06.023-.098.093-.158.123.153-.356-.14-.694-.232-1.028-.192-.33-.278.127-.224-.502-.027-.497-.037-.997-.065-1.495a5.928 5.928 0 0 0-.051-.995c-.006-.133.023-.268.02-.402-.004-.124-.044-.248-.045-.372-.002-.17.02-.34.03-.509.038-.925.255-1.837.227-2.766a3.253 3.253 0 0 1 .038-.697c.012-.11-.03-.288.143-.27.218-.001.436-.008.654-.008.365-.032.743-.013 1.084-.17.064-.037.163-.016.246-.021.187-.01.374-.018.56-.03.884-.134 1.75-.404 2.596-.686.528-.158.999-.45 1.52-.622.258-.09.507-.204.752-.324.092-.058.399-.118.271-.205Zm-8.299.495c.103.008.27-.057.314.035-.01.21-.026.419-.04.629-.004.099-.087.032-.149.058-.086.021-.145-.005-.143-.07.004-.216.012-.431.018-.652Zm-.024 1.18a5.69 5.69 0 0 1 .015-.337c.024-.086.136-.037.2-.036.103.018.125.047.123.148-.004.19-.008.379-.01.572-.376.11-.329-.057-.328-.348Zm-1.4 8.716c.05-.136.254-.157.373-.096.156.082.08.345.1.495-.042.183.073.613-.131.677-.09.011-.185.01-.276 0-.163 0-.138-.109-.148-.237h.001c-.025-.28.052-.56.08-.839Zm.222 1.176c.19.038.28-.056.349-.235.157.16.247.377.483.44.018.005.043.03.042.044.008.293-.058.579-.089.867-.02.46-.011.922-.006 1.383.003.13.01.259.021.388.005.067-.031.082-.084.093-.142.028-.225.16-.334.241a.663.663 0 0 0-.306.47 1.24 1.24 0 0 0-.016.51.813.813 0 0 0 .181.543c-.18.035-.351-.108-.533-.02-.074.037-.09.107-.097.169-.019.127.144.157.241.179 1.075.236.68-.702.821 1.04-.003.35-.029.7-.006 1.051-.006.214-.018.427-.026.641-.004.117-.032.16-.143.193-.172.049-.362.047-.529.107-.264.113-.519.006-.762-.098-.186-.07-.373-.136-.558-.208-.093-.044-.054-.164-.079-.244-.063-.185-.107-.38-.155-.567a8.04 8.04 0 0 0-.273-.563c-.26-.522-.21-.128-.306-.76-.067-.3-.38-.194-.447-.356a4.413 4.413 0 0 1-.002-.315c-.02-.297.284-.099.417-.447.136-.216.123-.45.058-.688-.056-.274.03-.223.09-.427-.002-.162-.015-.323-.023-.488.121-.016.361.035.278-.172-.184-.496-.12-1.027-.086-1.54.037-.145.235-.221.18-.403-.058-.238-.202-.324-.417-.414-.103-.048-.204-.107-.312-.14-.294-.059-.578.093-.853.177-.233.031-.484.02-.705.12-.219.114-.434.302-.487.552-.089.448.053.988.16 1.424.046.203.105.402.233.568.177.308.364-.033.362.206.03.218.082.45.14.662.092.161.183.328.302.47.222.24.281.542.217.854-.007.133-.14.169-.227.24-.225.173-.167.27-.217.502a2.207 2.207 0 0 1-.302.455c-.237-.204-.424-.45-.638-.678-.035-.04-.057-.097-.099-.127-.106-.078-.133-.205-.207-.302-.048-.083-.059-.18-.103-.271l-.024.004-.043-.059-.02.012c-.007-.12-.075-.237-.13-.34-.096-.159-.125-.338-.165-.513-.145-.298-.155-.619-.171-.943.019-.514.086-1.023.152-1.533.022-.13.072-.258.082-.389.014-.178.118-.312.198-.456.272-.321.59-.621.973-.81.271-.153.571-.216.874-.272.283-.064.542-.224.846-.202.057.005.116-.016.174-.02.1.006.2.041.298.042.07.001.14-.029.207-.024.34.045.68.08 1.023.084.111.003.114 0 .11.11-.003.053.004.102.067.114.133.026.266.058.4.07ZM4.93 20.961l-.036.004c-.014-.133-.038-.267-.04-.4-.005-.223-.098-.417-.176-.616-.044-.113-.121-.22-.024-.37.364.465.563.99.631 1.568l-.355-.118c.07-.13.038-.547-.055-.634l.055.566Zm-.631-1.14c-.037-.168-.088-.335-.13-.503l.016-.011c.065.096.132.192.195.29.055.086.032.233.19.24.22.338.259.743.25 1.14-.178-.087-.335-.163-.49-.243-.017-.01-.028-.041-.031-.064-.036-.259-.068-.518-.103-.783.048-.01.12.015.102-.065Zm-.492-1.463a.512.512 0 0 0-.083-.317c-.19-.29-.464-.543-.508-.902-.04-.127-.02-.269-.087-.39 0-.05.01-.103.002-.151-.064-.227-.03-.493-.217-.659-.125-.133-.238-.27-.286-.45-.03-.18-.203-.486.057-.561.32-.083.512.074.462.405.075.003.143.02.202.002.038-.01.112.025.12-.054.043-.308-.025-.68.222-.915a.763.763 0 0 1 .629-.085c.015.004.034.01.043.021a.728.728 0 0 0 .435.275 3.2 3.2 0 0 1-.049.647c-.044.354.06.687.125 1.03-.326.012-.223.067-.223.327-.084-.006-.16-.014-.235-.016-.32.089-.136.472.154.46.012.115-.01.236.023.343.067.2.018.376-.072.547-.088.223-.494.14-.478.425.005.144-.011.295.029.43.045.152.048.265-.066.363-.05.044-.087.046-.132-.012-.153-.23-.06-.508-.067-.763Zm.843-1.616c-.103-.021-.22.055-.333-.063a.375.375 0 0 1 .263-.03c.064.004.082.025.07.093Zm.003.074c-.068.216-.234.15-.29.005.098.004.19.002.29-.005Zm-.608 2.42.141.53-.031.025c-.12-.06-.676-.2-.636-.354.004-.177.044-.329.181-.459.08.174.124.356.345.258Zm.083-.12.045-.174c.165-.025.35.171.36.313.005.15-.017.3-.031.447h-.02c-.109-.208-.125-.473-.354-.586Zm-2.56.958c-.127-.167-.244-.343-.394-.493-.389-.502-.707-1.095-.751-1.742.002-.28-.033-.564-.001-.84-.026-.187-.055-.373-.014-.562.138-.645.149-1.318.413-1.932.17-.327.396-.632.661-.888a5.886 5.886 0 0 1 1.854-.971c.521-.165 1.054-.324 1.605-.335.293-.044.588.042.885.004.179-.018.36.002.547.004-.013.225-.055.434-.074.657-.006.05-.026.062-.07.056-.251-.039-.506.017-.755-.064a1.245 1.245 0 0 0-.501-.01c-.201-.01-.411-.044-.617-.025-.248-.005-.473.103-.714.146-.17.038-.35.045-.512.111-.16.077-.315.163-.476.234-.162.072-.327.148-.441.286-.185.095-.297.265-.427.416-.078.08-.157.156-.192.268-.067.172-.19.316-.242.497-.074.195-.096.404-.135.609-.089.386-.08.779-.05 1.17-.014.278.03.55.093.82.156.413.312.844.54 1.224.158.147.232.354.393.5.244.262.505.49.742.766a1.645 1.645 0 0 0-.189.49c-.02.22-.072.398-.144.62a4.882 4.882 0 0 1-1.033-1.016Zm.78 5.595c.013-.154.028-.309.03-.463-.08-.742.12-1.477.134-2.22.031-.375.042-.752.05-1.129.023-.383.126-.753.249-1.116.112-.27.228-.815.461-.975.064-.037.111-.102.149-.138.388.291.653.083.671.367.047.225.1.436.115.669-.172-.034-.345-.037-.49-.122-.128-.097-.259-.072-.393-.05a.098.098 0 0 0-.06.039c-.153.22-.319.466-.225.746.1.274.285.54.552.664.178.086.365.153.546.23.104.049.053.282.074.361l-.076.118c.047-.002.052-.002.09-.008.086.392.05.776-.026 1.16-.012-.279-.006-.558-.014-.837 0-.03-.024-.057-.037-.086a.752.752 0 0 0-.027.01c.026.353.017.705.026 1.057.001.033.025.064.037.097.047.09.004.096-.046.171l.074.032a.568.568 0 0 1-.068.257c.117.112.02.166-.016.267-.006.12-.009.239-.013.359l-.016.57c-.003.085-.07.129-.146.096-.204-.105-.44-.184-.664-.109-.285.062-.572.045-.86.07-.06.005-.086-.024-.08-.086Zm1.718 2.922-.037.003c-.073-.48-.05-.972-.103-1.456a13.06 13.06 0 0 1-.07-1.21c.08.013.256-.067.259.062.002.228.009.456-.01.684-.038.638-.073 1.278-.039 1.917Zm-.643 1.074c-.05-.612-.101-1.222-.235-1.823-.12-.557-.324-1.098-.353-1.67l.022-.001c.055.369.203.718.33 1.067.114.326.157.666.206 1.005.074.457.074.92.077 1.38.1 1.412.021 2.82-.156 4.224-.018-.02-.024-.023-.024-.026l.015-.55c.045-.346.064-.696.093-1.044.066-.436.037-.875.05-1.314.03-.417-.012-.832-.024-1.248Zm-.35 2.638c.012.384-.03.776-.086 1.158-.06-.29-.007-.575.018-.865.03-.4.062-.8.09-1.199.026-1.109.176-2.227.016-3.331l.042-.001c.016.472.15.944.115 1.417-.06.802-.014 1.608-.159 2.402-.009.14-.053.273-.036.419Zm-.252-5.282c.113.252.215.51.276.78-.144-.26-.296-.514-.417-.78-.063-.287-.202-.572-.157-.868l.03-.002c.135.267.124.598.268.87ZM2.66 26.1c.021-.062.023-.132.033-.197h.01c.05.324.097.648.146.971-.087-.232-.258-.521-.189-.774Zm.447 3.183-.034.702-.032-.002c-.028-.235.007-.468.027-.702l.04.002Zm-.081 1.177.029.001-.011.344c-.01 0-.021 0-.032-.002l.014-.343Zm.115-4.582c.01.509.087 1.007.239 1.493.09.514.214 1.023.253 1.544.177 1.836.042 3.686-.251 5.504l-.022-.002c.13-1.58.314-3.172.189-4.756-.055-.353.006-.71-.07-1.061a5.657 5.657 0 0 0-.232-1.406c-.138-.37-.344-.754-.28-1.159-.013-.175-.012-.158.174-.157Zm.188 9.97-.03-.001.015-.308h.018c.004.104.02.207-.003.309Zm.003.275c.067-.004.14-.005.212-.012.062-.006.065.043.066.076-.011.153.002.317-.081.455-.19.258-.3-.392-.197-.52Zm.23-.638c-.026.107-.005.295-.084.365l-.02-.017c-.065-.761.036-1.533.139-2.289.118-.95.185-1.907.206-2.864a20.04 20.04 0 0 0-.252-2.84c-.065-.465-.262-.897-.291-1.366-.014-.199.001-.4.004-.6l.232.019c.026.766.072 1.526.178 2.285.12.696.136 1.41.187 2.114.02.77-.029 1.538-.047 2.306-.015.572-.033 1.144-.127 1.709-.047.392-.085.785-.125 1.178Zm-.718-2.36.024.006-.014.526a.355.355 0 0 1-.023-.004 1.099 1.099 0 0 1 .013-.527Zm-.011 2.74a1.66 1.66 0 0 0-.09-.021c-.015-.286-.039-.567.047-.841.02-.382.02-.764.06-1.144l.024.001c0 .667.058 1.335-.041 2.006Zm-.427-9.698c.058.105.03.228.058.34.046.208.088.424.17.62.105.21.242.405.323.627l-.034.015c-.41-.416-.677-1.011-.517-1.602Zm.592 5.056.019.001-.035.588a.344.344 0 0 0-.02.003c-.044-.2-.012-.397.036-.592ZM3 35.873c-.05.007-.057-.015-.057-.053 0-.167-.01-.334.018-.5h.032c.03.164.073.328.088.495.004.057-.04.052-.081.058Zm.214-.41-.03-.004.038-.287.022.002-.03.289Zm-.085-.524c-.065-.033-.048-.285-.064-.363-.018-.432.045-.863.069-1.294.042-1.21.163-2.417.173-3.628h.024c.07 1.003.062 2.011-.059 3.01-.08.757-.07 1.519-.143 2.275Zm.542 1.8c.026-.048.05-.042.092-.025.124.052.024.19-.048.23-.098.025-.097.123-.013.156.089.021.125-.187.185-.253.07.07.16.121.089.211-.036.052-.174.058-.134.145.013.026.054.062.067.057.06-.033.097-.074.096-.152.067.048-.013.22-.016.301-.022.045-.265.037-.317.03-.246-.035-.236-.328-.37-.315-.074.008-.106.04-.127.142-.008.04-.133.094-.163.07-.035-.172.042-.597.193-.703.059.088.064.216.17.238.12.004.232-.015.296-.132Zm.027-.983c-.003.034.004.09-.07.073.015-.733.161-1.458.224-2.188.055-1.005.105-2.013.09-3.019.034-1.486-.345-2.946-.343-4.43.004-.292.114-.435.181-.036.142 1.815.294 3.634.23 5.457.033.881-.034 1.762-.146 2.635-.05.281-.077.567-.122.847a2.26 2.26 0 0 0-.044.661Zm.248-.029c0 .092-.067.082-.148.08.007-.806.17-1.593.243-2.392.067-1.587.089-3.177-.018-4.762l.024-.003c.083.226.045.48.062.718.024.27.049.54.056.812.048 1.151.039 2.307-.078 3.453-.022.45-.042.898-.1 1.344-.019.25-.028.5-.041.75Zm.428-4.505c.008.149.008.296-.012.448-.042.299.02.612-.01.913-.1.76-.053 1.532-.172 2.292-.03.284-.061.569-.094.853-.002.016-.018.032-.034.058-.053-.172-.006-.328-.004-.5.048-.764.133-1.523.175-2.286a8.95 8.95 0 0 0 .025-1.271c.013-.429.056-.856.01-1.285l.033-.005c.043.258.023.526.084.783Zm.325 4.697c-.009 0-.016-.002-.024-.004.001-.165.045-.33.045-.496 0-.335-.024-.67.017-1.004.122-1.179.104-2.363.085-3.546a19.008 19.008 0 0 0-.22-2.14c-.044-.207-.06-1.07-.29-1.084-.193.07-.082.34-.09.493-.003.215-.017.43-.028.645l-.035-.001c-.038-.72-.042-1.437.035-2.155.026-.232-.028-.479.077-.695a.839.839 0 0 0 .024.007c.048.42-.108.85.078 1.254.125.26.167.544.222.825.108.481.196.967.246 1.458a25.527 25.527 0 0 1-.009 4.488c-.038.652-.006 1.312-.133 1.956Zm-.311-11.191c.117-.327.405.128.066.072.041-.075-.008-.076-.066-.072Zm.3.039c.047-.144-.11-.212-.222-.216-.054.019-.099.08-.153.117.016-.41.002-.782.077-1.187.19.172.312-.014.424-.151.01.728-.03 1.445-.09 2.169-.029.427-.019.345-.41.304 0-.085 0-.17-.002-.253.06.114.16.095.262.093.092.03.103-.045.118-.097.017-.099-.048-.204-.059-.301-.003-.033.012-.07-.032-.074-.125-.029-.204.101-.273.167.005-.184-.053-.386-.005-.573.092.137.302.156.366.002Zm-.187-1.438-.036.043c.024-.15.08-.189.29-.19.004.13-.075.215-.165.293-.022.018-.08.007-.114-.007-.02-.008-.026-.05-.038-.076l.1-.005a.317.317 0 0 0-.037-.058Zm-.114-.002-.026-.49c.15.021.335.064.413-.088.126-.398-.197-.445-.432-.192l-.002-.304c.132 0 .26.035.391.04.095.004.121.02.125.118.006.248-.008.5-.015.747-.033-.024-.06-.059-.078-.054-.225.034-.244.006-.376.223Zm.181-.86c.01-.008.04.002.056.01.09.045.129.205.071.285-.031.03-.1.027-.129.038-.296.005-.164-.249.002-.333Zm.417 13.802c.02-.135.021-.188.167-.137.24-.031.114.266.036.378-.084.107-.21-.154-.203-.24Zm.11.335c-.114.016-.167-.04-.148-.153l.147.153Zm.094-2.466c-.039.576-.025 1.152-.064 1.727 0 .056-.009.079-.057.078-.049-.002-.08-.029-.073-.086.015-.12.03-.24.043-.361.169-1.106.081-2.224.04-3.336-.03-.527.006-1.054.008-1.581-.04-.34-.027-.682-.039-1.023-.022-.863-.226-1.705-.29-2.564-.018-.34-.098-.697-.011-1.032l.058-.003c.132.747.164 1.51.266 2.263.082.906.203 1.81.207 2.722a46.818 46.818 0 0 1-.088 3.196Zm-.459-6.775c.019.436.099.86.175 1.288.043.354.055.713.075 1.07l-.034-.001c-.073-.593-.144-1.185-.276-1.769-.219-1.059-.398-.777-.263-2.01.088.02.22-.029.208.102.02.44.081.88.115 1.32Zm-.36-1.919c.066-.224.216-.262.255 0 .025.1-.085.203-.173.126-.034-.036-.055-.084-.082-.126Zm.476 10.487-.031-.011c.087-.603.086-1.213.087-1.82.03-.44.055-.881.094-1.318l.022.001c-.017.32.03.641.034.962-.016.382-.01.766-.039 1.147-.018.186-.035.373-.056.56-.034.158-.01.344-.11.479Zm.785.72c-.046.063-.051.18-.153.161-.04.027-.017.096.005.134.033-.025.113.047.104-.02-.016-.11.058-.162.097-.237.15.058.178.156.078.256-.018.018-.025.048-.037.072l.077.03c.03-.054.056-.228.125-.138.017.031.02.073.044.095.077.07.022.163-.058.185-.298.105-.466.144-.753-.011-.2-.1-.072.163-.224.157-.067-.001-.134.006-.203.01-.022-.259-.115-.517.103-.743.13.181.366.148.518.013.09-.1.188-.016.277.035Zm-.364-.138.071-.143c.036.075.01.12-.071.143Zm.059-.58c-.007.056-.035.074-.092.057.009-.926.031-1.852.087-2.776.042-.906.034-1.816.016-2.723-.026-.993-.204-1.973-.258-2.965a8.782 8.782 0 0 1-.129-.994c-.013-.197-.104-.388-.007-.58.22-.015.152.204.149.348-.01.188-.037.376-.028.563.018.357.047.714.088 1.068.142.739.22 1.485.27 2.235.036.44.094.878.13 1.317-.008.742.009 1.487-.05 2.228-.008.503-.062 1.003-.106 1.504-.018.24-.042.48-.07.718Zm.591-3.231c-.023.186.005.374.024.559-.02.684-.09 1.366-.182 2.044-.028.124.02.813-.175.731l.318-3.335h.015Zm-.463-4.008c.092.54.24 1.07.315 1.612.086 1.314.072 2.631-.11 3.937-.042.385-.074.772-.112 1.158-.037.204-.017.431-.099.622a.445.445 0 0 0-.025-.008c.036-.78.13-1.56.156-2.341.075-.9.123-1.809-.02-2.705-.075-.917-.128-1.839-.271-2.749-.122-.59-.147-1.187-.14-1.788.013-.122-.014-.345.082-.42.028.27-.012.555.003.83.045.62.128 1.238.22 1.852Zm-.081-3.54c.015.222.002.446.01.67.002.064-.032.081-.086.074-.135-.018-.269-.038-.403-.06-.013-.003-.028-.036-.028-.055a6.794 6.794 0 0 1 .02-1.004c.01-.132.021-.263.026-.395-.001-.044-.063-.086-.079-.124a.183.183 0 0 1 .01-.082c.007-.022-.005-.072.049-.049.02-.065.062-.082-.028-.12-.007-.059-.02-.134.072-.181l-.068-.031c-.044-.387.09-.107.075-.307.013-.18.02-.36.035-.54.008-.1-.012-.17-.08-.206.14-.195-.046-.197.066-.283-.082-.083-.083-.092-.019-.131l-.038-.039c.112.027.268.022.335.106.033.24.012.483.01.724.008.68.025 1.358.12 2.032Zm2.362 2.168c-.017-.007-.041-.029-.04-.043-.01-.13.19-.094.26-.046-.084.129-.096.135-.22.089Zm.232-.245c-.284.01-.283.072-.268-.236-.073-.832.01-1.665-.055-2.498-.059-.63-.06-1.264-.083-1.897.002-.105.238-.123.337-.177-.082 1.033.014 2.062.034 3.096.013.568.087 1.147.035 1.712Zm1.365-8.39c.104.186.13.397.143.607.06.18.084.364.056.55-.039.319-.178.612-.269.916a1.941 1.941 0 0 1-.585.92c-.041.07-.173.13-.259.174-.102.055-.197.134-.305.161-.455.15-.913.315-1.399.329-.576.025-1.167.014-1.716-.19a3.718 3.718 0 0 0-.725-.178c-.294-.065-.653-.102-.812-.397-.091-.114-.237-.21-.261-.364-.013-.105.005-.214.002-.32-.004-.11.061-.163.154-.171.22-.026.45-.031.652.077.202.064.402.135.593.224.143.04.291.061.432.106.327.105.647.23.959.374.043.017.101-.002.14.02.175.09.364.09.551.088.4-.02.77-.204 1.154-.307.392-.108.84-.312.955-.734.136-.483.087-.99-.024-1.472-.015-.107-.069-.215.053-.318.118-.1.202-.237.304-.36.11.045.145.172.207.264Zm-1.733.365-.023-.003c-.001-.19.026-.38.036-.57.004-.09.017-.114.11-.116.103-.008.148.042.14.145.006.176-.001.352-.016.527-.006.08-.04.171-.013.237.067.238.03.48.048.721.017.373.052.745.01 1.118-.021.13-.187.128-.284.177-.082.03-.097.024-.095-.063.052-.725-.05-1.454.087-2.173Zm.452-.35c.19.107.32.33.588.256.015.227.042.43.104.646.032.17-.043.33-.054.496-.023.17-.029.366-.11.52-.143.18-.27.327-.485.44-.068-.343-.047-.648-.026-.987-.003-.247-.027-.495-.036-.74.062-.21-.026-.42.019-.63Zm.642-.887c.035-.063.075-.063.125-.032.11.068.221.135.325.211.118.072-.02.16-.063.24-.125.26-.326.457-.56.621-.135-.038-.229-.14-.339-.22-.024-.02-.032-.072-.029-.108.007-.12.102-.192.17-.278.116-.15.242-.298.37-.434Zm-.607-.535c.165.15.255.343.377.521-.081.111-.165.236-.262.35-.031.038-.048.111-.13.094a1.26 1.26 0 0 0-.71.06c-.184.083-.318.143-.524.09-.103.014-.081-.085-.096-.154.123.013.247.022.37.027.043 0 .089-.099.058-.122-.136-.097-.117-.262-.178-.394.071.055.104.145.193.17.074-.196-.275-.366-.249-.576.033-.158.005-.408.17-.493-.027.174-.13.337-.048.524.025.07.018.156.054.22.052.093.131.17.196.258.033.045.058.037.107-.024-.19-.087-.224-.209-.237-.404-.104-.23.049-.448.105-.671.066-.102.178-.024.216-.216.004-.015.029-.026.046-.04.108.26-.143.405-.235.61-.066.131-.018.271-.004.404.017.182.255.19.396.236.32.047.322-.23.385-.47Zm-.57-.284-.029.483c-.118-.107-.1-.364.028-.483Zm.17-.39c.009-.249.073-.497.097-.745-.013-.234.024-.47.024-.704 0-.22-.038-.439-.017-.66.024-.258.077-.513.055-.775-.001-.019.034-.059.05-.057.04.005.095.004.093.072-.003.084-.007.168-.007.252.003.281.006.562.013.842-.033.603 0 1.206-.088 1.803-.003.238.007.475.014.713.02.195-.107.228-.263.222.005-.325.058-.638.03-.963Zm.678-4.727c.09.067.107.13.062.214-.117-.063-.134-.117-.062-.214Zm-.058.21.17.075c-.014.11-.018.242-.048.367a.73.73 0 0 1-.575.513c-.05.017-.051.066-.003.087.247.054.592-.197.654-.44.025-.113.052-.225.079-.337a.465.465 0 0 1 .015-.004c.025.726-.44.704-.367.879.203-.024.291-.215.42-.342.038.117-.117.186-.131.312.182.024.247-.122.35-.226.048-.043.14-.032.141.045-.015.161-.249.259-.355.38-.248.096-.642.237-.886.079-.158-.148-.38-.172-.53-.323-.062-.06-.138-.104-.124-.213.013-.103.003-.21.02-.312.015-.286.188-.152.29-.397.068-.114.137-.263.292-.267.014.203-.003.397-.017.597-.024.172.042.108.073.183-.002.144.257.006.337 0 .26-.074.157-.46.195-.656Zm-.024-7.574c-.006.034-.03.074-.019.103.034.095.003.189.001.282a5.57 5.57 0 0 0-.009.838c-.012.337-.076.671-.13 1.004-.007.05.02.111.002.154-.071.16-.027.328-.046.49.002.181-.068.345-.082.523 0 .072-.025.143-.031.216-.019.131.021.268-.05.387a.245.245 0 0 0 .014.006c-.023.466.06.917.064 1.382.008.17.008.34.012.51.01.04-.012.072-.026.112.008.294.045.596.077.888-.025.35.025.692.088 1.034.039.222-.103.186-.274.19-.12-.036-.07-.185-.068-.277.053-.445-.074-.888-.009-1.33.08-.424-.013-.846-.038-1.269-.035-.752-.057-1.505.003-2.257.05-.585.143-1.168.2-1.752.013-.272-.015-.546-.008-.818.017-.327.034-.652.013-.98.081.017.338-.052.323.066-.036.169.043.332-.006.498Zm.08-3.056c-.083.201-.012.413-.034.62.013.227-.172.195-.343.166.013-.191.025-.384.04-.577.022-.075-.02-.275.087-.274.067.016.302-.067.25.065Zm-.311-.123L8.07.694c.099.097.2.11.321.075-.043.6.118.548-.339.567ZM8.398.58c.001 0-.009.02-.017.023-.126.078-.27.089-.276-.096-.006-.11.025-.14.124-.183.067-.028.082.036.124.05.026.01.038.051.061.073.059.053-.068.081-.016.133Zm.131.854c.126-.005.221.082.306.164.13.102.07.23-.011.34a.564.564 0 0 1-.018-.014c-.01.074-.117.148-.235.163-.016.028-.043.047-.064.07-.005-.24.028-.476.022-.723Zm-.057.875.035-.018c.054.044.113.082.16.133.115.152.036.464-.15.532-.09-.173-.025-.448-.045-.647Zm.224 1.211c-.007.149-.056.232-.187.244-.014.002-.042-.02-.042-.031.003-.18-.004-.34.026-.52.107.09.211.152.203.307Zm6.174-1.047c-.988.445-2.017.786-3.074 1.017-.522.187-1.074.16-1.617.187-.206.025-.41.055-.617.08-.278-.012-.569-.01-.839.07l-.015-.023c.185-.228.128-.473-.112-.64.195-.139.22-.176.258-.41.054-.189-.17-.347-.263-.496.096-.066.236-.057.298-.17.237-.298.139-.476-.125-.7.642-.153 1.296-.34 1.966-.301.586.016 1.154.185 1.74.202.241.01.482.032.721.054.111.01.232.008.328.054.178.086.365.111.552.11.385.018.757.088 1.136.135.332.01.65.118.954.245l.005.03c-.417.22-.851.401-1.296.556Z"/><path d="M8.427 12.093c-.117-.063-.134-.117-.062-.214.09.067.107.13.062.214Z" style="fill:#939598"/><path class="cls-3" d="M4.654 16.815c-.067.217-.234.15-.29.006.098.004.19.002.29-.006ZM4.651 16.742c-.103-.021-.22.055-.333-.063a.375.375 0 0 1 .263-.03c.064.004.082.025.07.093Z"/><path class="cls-1" d="M4.875 16.253c-.066-.342-.17-.675-.125-1.03a3.2 3.2 0 0 0 .049-.646.726.726 0 0 1-.435-.275c-.009-.012-.028-.017-.043-.021a.763.763 0 0 0-.63.085c-.246.235-.178.607-.222.915-.007.079-.08.043-.118.054-.06.017-.128 0-.203-.002.05-.33-.142-.488-.462-.405-.26.075-.087.382-.057.562.048.179.162.316.286.45.187.165.153.431.217.658.008.048-.002.102-.002.15.066.122.046.263.087.39.044.36.318.613.508.903a.512.512 0 0 1 .083.317c.008.255-.085.534.067.763.045.058.082.056.132.013.114-.1.112-.212.066-.365-.04-.134-.024-.285-.03-.43-.015-.285.391-.201.479-.424.09-.171.14-.348.072-.547-.033-.107-.011-.228-.023-.344-.29.013-.473-.37-.154-.459.076.002.15.01.235.016 0-.26-.102-.315.223-.328Zm-1.726-.614c-.087.09-.133-.095-.074-.154.082.027.092.08.074.154Zm.303.528c-.074.101-.278.22-.309.023-.022-.33-.4-.472-.452-.798-.07-.215.05-.538.31-.37.095.066.15.277.007.328-.082.015-.091-.09-.155-.125l-.013.016.022.106c-.079.013-.064-.078-.055-.114.003-.025.048-.053.08-.064.076-.022.068.082.12.116.076-.136-.03-.239-.166-.246-.16.13-.099.345-.018.5.106.2.34.322.366.561.01.114.03.118.133.077.087-.026.06-.093.073-.163.072.045.097.107.056.153Zm.703.194c-.269.304-.106.684.009 1.015l-.037.02c-.107-.125-.108-.297-.167-.445-.062-.238.004-.569.23-.692-.005.038 0 .077-.035.102Zm.01-.891c-.337.04-.495-.07-.543-.41.058-.238.189-.524.482-.508.261.002.51.054.564.347.02.068.072.15-.004.23-.123.195-.251.332-.499.341ZM5.19 36.51c-.085.107-.21-.154-.204-.24.02-.136.021-.19.167-.138.24-.031.114.266.036.378ZM3.61 36.187c-.011.153.002.317-.081.455-.19.258-.3-.392-.197-.52.067-.003.14-.004.212-.011.062-.006.065.043.066.076Z"/><path class="cls-4" d="M3.99 37.409c-.022.045-.265.037-.317.03-.246-.035-.236-.328-.37-.315-.074.008-.106.039-.127.142-.008.04-.133.094-.164.07-.034-.172.043-.597.194-.703.058.088.064.216.17.238.119.004.232-.015.296-.132.026-.048.05-.043.092-.025.124.052.025.19-.048.23-.098.025-.097.123-.013.156.089.021.125-.187.185-.253.07.07.16.121.089.21-.036.052-.174.059-.133.146.012.026.053.062.067.056.058-.032.096-.073.095-.15.067.047-.013.22-.016.3ZM5.914 37.19c-.298.104-.466.143-.753-.012-.2-.1-.072.163-.224.157-.067-.001-.134.006-.203.01-.022-.259-.115-.516.103-.743.13.182.366.148.518.013.09-.1.188-.016.277.035-.046.064-.051.181-.153.162-.04.027-.017.096.005.134.033-.025.113.046.104-.021-.016-.11.058-.161.097-.236.15.058.178.156.078.256-.018.018-.025.048-.037.072l.077.03c.03-.054.056-.228.125-.138.017.03.02.073.044.095.077.07.023.163-.058.185Z"/><path class="cls-1" d="M8.464 17.801c-.081.111-.165.236-.262.35-.031.038-.048.112-.13.094a1.26 1.26 0 0 0-.71.06c-.184.083-.318.144-.524.09-.103.014-.081-.085-.096-.154.123.013.247.022.37.027.043 0 .089-.099.058-.122-.136-.097-.117-.262-.178-.394.071.055.104.145.194.17.073-.196-.276-.366-.25-.576.033-.158.006-.408.17-.493-.027.174-.13.337-.048.524.025.07.018.156.054.22.052.093.131.17.196.258.033.045.058.037.107-.024-.19-.087-.224-.209-.237-.404-.104-.23.049-.448.105-.671.066-.102.178-.024.216-.216.004-.015.029-.026.046-.04.108.26-.143.405-.235.61-.066.131-.018.271-.004.404.017.182.255.19.396.236.32.047.322-.23.385-.47.165.15.255.343.377.521Z"/><path class="cls-6" d="M9.144 17.994c-.104-.076-.215-.143-.325-.211-.05-.03-.09-.03-.125.032a5.735 5.735 0 0 0-.371.434c-.069.086-.163.157-.17.278-.003.036.005.088.029.108.11.08.204.182.34.22.233-.164.434-.362.559-.621.042-.08.18-.168.063-.24Zm-.61.725c-.275.034-.355-.158-.219-.375.006.003.024.015.026.012.066-.065.147-.054.222-.036.219.054.16.351-.03.399Z"/><path class="cls-1" d="M9.013 13.018c-.015.161-.25.259-.355.38-.249.096-.643.237-.887.079-.158-.148-.38-.172-.53-.323-.062-.06-.138-.104-.124-.213.013-.103.003-.21.02-.312.015-.286.188-.152.29-.397.069-.114.138-.263.292-.267.015.203-.003.397-.017.597-.024.172.042.108.073.183-.002.144.257.006.337 0 .26-.074.157-.46.195-.656l.17.075c-.014.11-.018.242-.048.367a.73.73 0 0 1-.575.513c-.05.017-.051.066-.003.087.247.054.592-.197.654-.44.025-.113.052-.225.079-.337a.465.465 0 0 1 .015-.004c.025.726-.44.704-.367.879.203-.024.291-.215.42-.342.038.117-.117.186-.131.312.182.024.247-.122.35-.226.048-.043.14-.032.141.045Z"/><path class="cls-6" d="M6.928 12.134c-.12-.06-.322-.04-.373.096-.028.28-.106.558-.08.84h-.001c.009.127-.016.236.147.235.092.01.186.012.276.001.204-.064.089-.494.13-.677-.018-.15.057-.413-.1-.495Zm-.182 1.044c-.311.031-.217-.304.002-.31.234.002.252.28-.002.31Z"/><path class="cls-4" d="m4.876 20.395.055.566-.036.004c-.014-.133-.038-.267-.04-.4-.005-.223-.097-.417-.176-.616-.044-.113-.121-.22-.024-.37.364.465.563.99.631 1.568l-.355-.118c.07-.13.038-.547-.055-.634ZM5.384 25.823c.002.065-.032.082-.086.075-.135-.018-.269-.037-.403-.06-.013-.003-.028-.036-.028-.055a6.794 6.794 0 0 1 .02-1.004c.01-.132.021-.263.026-.395-.001-.044-.063-.086-.079-.124a.183.183 0 0 1 .01-.082c.007-.022-.005-.072.049-.049.02-.065.062-.082-.028-.12-.007-.059-.02-.134.072-.181l-.068-.031c-.044-.387.09-.107.075-.307.013-.18.02-.36.035-.54.008-.1-.012-.17-.08-.206.14-.195-.046-.197.066-.283-.082-.083-.083-.092-.019-.131l-.038-.039c.112.027.268.022.335.106.033.24.012.483.01.724.008.68.025 1.358.12 2.032.017.222.003.447.011.67Z"/><path class="cls-7" d="M4.815 23.33c-.112.137-.234.323-.424.15-.075.406-.061.777-.077 1.187.054-.036.099-.097.153-.116.112.004.269.071.223.215-.064.154-.274.135-.366 0-.048.185.01.388.005.572.07-.066.148-.196.273-.167.044.003.029.04.032.073.011.098.077.203.06.302-.015.051-.027.126-.12.097-.101.002-.2.021-.26-.093l.001.253c.391.04.381.122.41-.305.06-.724.101-1.44.09-2.169Zm-.198.924c-.13.122-.273-.03-.233-.173.015-.134.354-.357.354-.11.015.111-.047.202-.12.283ZM4.842 23.158c-.033-.024-.06-.059-.078-.054-.226.034-.244.006-.376.223l-.026-.49c.15.021.335.064.413-.088.126-.398-.197-.445-.432-.192l-.002-.304c.132-.001.26.035.391.04.095.004.121.02.125.118.006.248-.008.5-.015.747ZM4.57 19.837c-.157-.007-.134-.154-.19-.24-.062-.098-.13-.194-.194-.29l-.016.011c.042.168.094.335.13.504.017.08-.055.055-.103.065l.103.783c.003.023.015.054.032.064.155.08.312.156.489.243.009-.397-.03-.802-.25-1.14Zm-.262.387c.002-.03.006-.075.023-.084.12-.077.34-.15.316.07.052.364-.272.256-.339.014ZM4.503 19.702h-.02c-.109-.208-.125-.473-.354-.587l.045-.173c.165-.025.35.171.36.313.005.15-.017.3-.031.447Z"/><path class="cls-4" d="m4.187 19.766-.031.025c-.12-.06-.676-.2-.636-.354.004-.177.044-.329.181-.459.08.174.124.356.345.258l.141.53Z"/><path class="cls-7" d="M6.375 12.32c-.014.224-.056.433-.075.656-.006.05-.026.062-.07.056-.251-.04-.506.017-.755-.064a1.245 1.245 0 0 0-.501-.01c-.201-.01-.411-.044-.617-.026-.248-.004-.473.104-.714.147-.17.037-.35.045-.512.111-.16.076-.315.163-.476.234-.162.071-.327.148-.441.286-.185.095-.297.265-.427.416-.078.08-.157.156-.192.267-.067.173-.19.317-.242.497-.074.196-.096.405-.135.61-.089.386-.08.778-.05 1.17-.014.278.03.55.093.82.156.413.312.844.54 1.224.159.147.232.354.393.5.244.262.505.49.742.766a1.645 1.645 0 0 0-.189.49c-.02.22-.072.398-.144.619a4.882 4.882 0 0 1-1.033-1.015c-.128-.167-.245-.343-.395-.493-.39-.502-.707-1.095-.751-1.742.002-.28-.033-.563-.001-.84-.026-.187-.056-.373-.014-.562.138-.645.149-1.318.413-1.932.17-.327.396-.632.661-.888a5.886 5.886 0 0 1 1.854-.971c.521-.165 1.054-.324 1.605-.335.293-.044.588.042.885.004.179-.018.36.002.547.005Z"/><path class="cls-4" d="M4.213 24.246a.568.568 0 0 1-.068.257c.117.112.02.165-.016.267-.006.119-.009.239-.013.358l-.016.57c-.003.085-.07.13-.146.096-.204-.105-.44-.184-.664-.108-.285.062-.572.044-.86.07-.06.004-.086-.024-.08-.087.012-.154.027-.309.03-.463-.082-.741.12-1.477.133-2.219.031-.376.042-.753.05-1.13.023-.383.126-.753.249-1.115.112-.271.228-.816.461-.976.064-.036.111-.102.149-.138.388.291.653.083.671.368.047.224.1.436.115.668-.172-.034-.345-.037-.49-.122-.128-.097-.259-.071-.393-.05a.098.098 0 0 0-.06.039c-.153.22-.319.466-.225.746.1.274.285.54.552.664.178.086.365.153.546.231.104.048.053.281.074.36l-.076.118c.047-.002.052-.001.09-.008.086.392.05.776-.026 1.16-.012-.279-.006-.558-.014-.837 0-.029-.024-.057-.037-.085a.752.752 0 0 0-.027.01c.026.352.017.704.026 1.057.001.032.025.064.037.097.047.09.004.095-.046.17l.074.032Z"/><path class="cls-7" d="M9.532 19.844c-.039.319-.178.612-.269.916a1.941 1.941 0 0 1-.585.92c-.041.07-.173.13-.259.174-.102.055-.197.134-.305.161-.455.149-.913.315-1.399.329-.576.025-1.167.014-1.716-.19a3.718 3.718 0 0 0-.725-.178c-.294-.065-.653-.102-.812-.397-.091-.114-.237-.21-.261-.364-.013-.105.005-.214.002-.32-.004-.11.061-.163.154-.171.22-.026.45-.031.652.077.202.064.402.135.593.224.143.04.291.06.432.106.327.105.647.23.959.374.043.017.101-.002.14.02.175.09.364.09.551.088.4-.02.77-.204 1.154-.307.392-.108.84-.312.955-.734.136-.483.087-.99-.024-1.472-.015-.107-.069-.215.053-.318.118-.1.202-.237.304-.36.11.045.145.172.207.264.104.187.131.398.144.608.06.18.084.364.055.55Z"/><path class="cls-6" d="M16.166 1.918c-.417.22-.851.402-1.296.556-.988.445-2.016.786-3.074 1.017-.522.187-1.073.159-1.617.187-.206.025-.41.055-.616.08-.279-.012-.57-.01-.84.07l-.015-.023c.185-.228.128-.473-.112-.64.195-.139.22-.176.258-.41.054-.19-.17-.347-.263-.496.096-.066.236-.057.298-.17.237-.298.14-.476-.125-.7.642-.153 1.296-.34 1.966-.301.586.016 1.154.185 1.74.202.241.01.482.032.721.054.111.01.232.007.328.054.178.086.366.111.553.11.384.017.756.088 1.135.135.332.01.65.118.954.245l.005.03Z"/><path class="cls-5" d="M4.668 14.9c-.055-.294-.303-.346-.564-.348-.293-.016-.424.27-.482.508.048.34.206.45.543.41.248-.009.376-.146.5-.342.075-.078.023-.162.003-.229Zm-.49-.277c.2.013.341.012.413.248-.223-.14-.447-.268-.736-.162.082-.076.219-.08.324-.086Zm-.052.538c-.192-.033-.284-.365-.048-.427.101-.004.236.065.238.122.007.162-.08.302-.19.305Zm-.417-.112c.042-.085.099-.164.149-.245l.019.012c-.042.18.052.313.16.402-.12.005-.357-.007-.328-.169Zm.503.338c-.162.023-.341.07-.451-.142.287.084.553.067.778-.118l.045.05a.483.483 0 0 1-.372.21Zm.105-.216.075-.34a.33.33 0 0 1 .206.21l-.281.13Z"/><path class="cls-8" d="M4.591 14.87c-.223-.139-.448-.267-.737-.161.083-.076.22-.08.325-.086.198.013.34.012.412.248ZM4.598 15.042l-.281.129.075-.34a.33.33 0 0 1 .206.211Z"/><path class="cls-5" d="M4.316 14.855c-.002-.056-.137-.125-.237-.122-.237.062-.145.395.048.427.11-.002.196-.142.19-.305Zm-.092.116c-.089.143-.317-.014-.026-.132.078.024.035.091.026.132Z"/><path class="cls-8" d="M4.037 15.218c-.12.005-.357-.007-.328-.169.041-.085.098-.164.149-.245l.019.012c-.043.18.052.313.16.402Z"/><path class="cls-8" d="M4.584 15.178a.483.483 0 0 1-.372.209c-.162.023-.341.07-.452-.142.288.084.554.067.779-.118l.045.05Z"/><path class="cls-5" d="M3.452 16.167c-.074.101-.278.22-.309.023-.022-.33-.4-.472-.452-.798-.07-.215.05-.538.31-.37.095.066.15.277.007.328-.082.015-.091-.09-.155-.125l-.013.016.022.106c-.079.013-.064-.078-.055-.114.003-.025.048-.053.08-.064.076-.022.068.082.12.116.076-.136-.03-.239-.166-.246-.16.13-.099.345-.018.5.106.2.34.322.366.561.01.114.03.118.133.077.087-.026.06-.093.073-.163.072.045.097.107.056.153ZM4.155 16.361c-.269.304-.107.684.009 1.015l-.037.02c-.107-.125-.108-.297-.167-.445-.063-.238.004-.569.23-.692-.005.038 0 .077-.035.102Z"/><path class="cls-5" d="M3.149 15.639c-.087.09-.133-.095-.074-.154.082.027.092.08.074.154ZM4.738 23.972c0-.248-.339-.025-.354.109-.04.143.102.295.233.173.074-.081.136-.172.12-.282Zm-.27.232c-.068-.112.017-.224.129-.259.053-.023.063-.001.073.046-.015.09-.095.318-.202.213ZM6.748 12.867c-.219.007-.314.342-.002.311.254-.03.236-.308.002-.31Zm-.037.195.006.03-.089-.06c.041-.063.098-.075.16-.033l-.077.063Z"/><path class="cls-4" d="m6.711 13.062.006.03-.089-.06c.041-.062.098-.075.16-.033l-.077.063Z"/><path class="cls-5" d="M8.563 18.32c-.075-.018-.156-.029-.222.036-.002.003-.02-.01-.026-.012-.136.217-.056.41.219.375.189-.048.248-.345.029-.4Zm-.007.22c-.018-.053-.045-.068-.09-.019l.072.04-.002.026c-.22.04-.075-.033-.157-.089.067-.141.26-.065.177.043Z"/><path class="cls-4" d="m8.467 18.521.07.04-.001.026c-.22.04-.075-.033-.157-.089.067-.141.26-.065.177.043-.018-.054-.045-.07-.09-.02Z"/><path class="cls-5" d="M4.647 20.21c.024-.219-.197-.147-.316-.07-.017.01-.021.055-.023.084.067.243.391.35.34-.014Zm-.053.16c-.033.007-.075.028-.087.017a.826.826 0 0 1-.134-.16c-.02-.09.092-.109.161-.111.117-.007.044.18.06.254Z"/><path class="cls-8" d="M4.224 14.97c-.089.144-.317-.013-.026-.13.077.023.035.09.026.13Z"/></g></svg>