<svg id="Layer_7" xmlns="http://www.w3.org/2000/svg" viewBox="0 0 10.382 26.847"><defs><style>.cls-1{fill:#eac3a7}.cls-3{fill:#be1e2d}.cls-4{fill:#184137}.cls-5{fill:#234968}.cls-6{fill:#0f181b}.cls-8{fill:#316956}.cls-9{fill:#567591}</style></defs><g id="b918MV.tif"><path class="cls-6" d="M9.052 2.549c-.172-.25-.362-.488-.542-.733a1.534 1.534 0 0 0-.472-.509c-.274-.194-.6-.279-.92-.362-.47-.193-.923-.462-1.44-.501-.443-.05-.883.026-1.323.071-.214.001-.436-.024-.647.034-.17.045-.332.122-.503.158-.297.062-.558.204-.818.346-.661.375-.725 1.224-.898 1.89-.017.532.008 1.06.046 1.59 0 .085-.008.178-.028.26.04.134-.041.208-.13.287-.067.06-.042.256.038.346.2.203.041.435-.122.603-.24.108-.528.108-.758.257-.558.247-.04 1.301.09.884.177.229.473.346.666.56-.17.296-.074.3.154.504l-.1.071c-.155-.375-.342-.135-.467.1a1.638 1.638 0 0 0-.232.642c-.09-.065-.276-.165-.317.008-.03.13 0 .205.119.278.125.076.253.149.381.22.16.08.283.298.143.427-.174.16-.157.54.142.49.056 0 .072.03.073.076.04.53-.105 1.079.073 1.594.118.325.256.632.499.884.113.172.262.302.429.419.23.188.455.382.754.444.2.05.402.125.612.115.098 0 .116.016.119.118.002.056.013.115.001.169-.037.184-.008.361.025.543.011.39.071.812-.018 1.192-.05.192-.001.382-.05.567-.068.259-.092.523-.114.79a.808.808 0 0 1-.11.308c-.072.13-.083.27-.101.41-.073.497-.029.999-.029 1.498-.13.914-.087 1.84-.201 2.755-.04.755-.272 1.472-.57 2.16-.065.21.24.128.357.144.23.014.46.025.69.043.02.003.053.046.052.07-.033.225.082.655-.21.71a.406.406 0 0 0-.235.17c-.201.213-.4.43-.472.722.012.14.318.09.394.058.097-.043.205-.06.305-.095.154-.045.295-.142.459-.14.011.15.007.313.131.42.06.055.164-.006.178-.104a2.02 2.02 0 0 0-.044-.903c-.116-.288-.082-.576-.08-.878-.034-.218 1.137-.035 1.304-.03.171.006.392.017.355.237-.033.143.015.52-.122.577-.253.112-.47.251-.603.502-.087.168-.243.358-.235.552.06.103.296-.025.403-.012.331-.024.565-.206.794-.441.036.164.062.3.146.438.017.028.069.05.102.047.031-.003.08-.04.085-.068a1.647 1.647 0 0 0-.099-.981c-.077-.167-.006-.336-.018-.503-.007-.096-.004-.192-.013-.288-.006-.075.021-.102.095-.096.277 0 .554-.024.831-.033.072-.003.09-.033.068-.101a14.19 14.19 0 0 0-.347-1.014c-.181-.67-.338-1.352-.361-2.047.06-.61.092-1.227.048-1.841.098-.543.056-1.096.134-1.64.063-.683.118-1.364.22-2.041.023-.367.045-.735.085-1.101.082-.788.156-1.577.113-2.371-.025-.477-.127-.956-.087-1.435.065-.145.307-.208.433-.305.187-.13.37-.266.55-.407.11-.102.193-.24.31-.338.256-.251.616-.424.73-.785.244-.388.42-.826.54-1.268-.003-.364.197-.68.23-1.038.11-.607.143-1.227.14-1.843-.064-.881-.312-1.769-.81-2.507ZM1.623 5.065c.028.085.035.167.1.229.051-.068.063-.152.088-.232l.028.004c.035.074.07.147.114.235.08-.115.056-.296.268-.27-.008.098-.007.19-.026.279-.057.145-.416.036-.552.045-.085-.006-.11-.05-.13-.186-.013-.08.049-.077.11-.104Zm.658-.083c-.1-.202.035-.41.033-.62.053-.572.014-1.17.32-1.681a.922.922 0 0 1 .387-.42c.132-.087.214-.23.368-.296.289-.162.572-.342.91-.384.228-.094.474-.11.712-.16a.919.919 0 0 1 .412-.033c.42.028.896.456 1.239.697.086.066.156.158.248.213.275.164.452.421.636.668.73.914.766 2.127.702 3.244-.017.373-.196.721-.272 1.081-.148.875-.713 1.612-1.421 2.123-.17-.233-.254-.499-.505-.661-.181-.123-.309-.29-.452-.458.046-.223.039-.482.034-.714.006-.21-.063-.438.08-.619.434-.57.356-1.301.276-1.972.089.015.234.155.253.028.1-.495.035-1.023-.08-1.51-.156-.363-.528-.585-.908-.661-.484-.127-.99-.213-1.47-.008-.405.212-.766.698-.612 1.16.125.386.415.69.576 1.057.071.179.117.368.175.553.014.042.036.069.09.043.093-.025.305-.176.36-.046.075.213.055.46.108.67.148.27-.12.665.182.82.099.051.194.118.3.148.112.032.13.109.13.197-.027.29-.048.59-.06.879-.229.11-.245.339-.378.516-.296.26-.405.645-.594.979-.184.315-.278.667-.344 1.023a4.506 4.506 0 0 0-.096 1.523c-.01.202-.027.403-.04.604-.003.05-.02.084-.079.078-.215-.027-.462-.012-.659-.105-.254-.18-.57-.335-.744-.6-.257-.55-.265-1.177-.198-1.771.028-.233.152-.453-.086-.617-.044-.027-.031-.067.013-.077a.872.872 0 0 0 .387-.185c.14-.103.369-.216.278-.429-.036-.07-.086-.103-.158-.076.02-.084-.025-.333.1-.318.17 0 .346.082.505-.015-.155-.03-.3-.06-.468-.092l.39-.292c.138.121.144.14.112.361.183-.102.074-.241-.004-.38-.076-.08.12-.254.146-.35.108-.274-.221-.381-.432-.355-.113.013-.224.048-.34.075-.041-.208-.184-.254-.05-.304.143-.054.187-.213.24-.34.07-.196.104-.39.005-.583a4.525 4.525 0 0 0-.329-.787c-.21-.375.301-.375.072-.82Zm2.847 3.265c.008-.249.013-.498.042-.745.073-.577-.602-.278-.535-.893.008-.288.088-.235.314-.32a.5.5 0 0 0 .323-.349c.01-.042.003-.08-.058-.083-.231-.048-.433-.179-.661.006-.08-.396-.077-.47-.498-.343-.02.005-.052.002-.062-.011-.088-.18-.117-.39-.213-.566-.136-.258-.296-.504-.444-.756-.134-.19-.054-.363.005-.558.01-.388.761-.475 1.058-.515.444-.113.737.447.738.828-.004.119.02.239.04.357.074.337-.147.464-.362.667-.151.206.816-.06.952.061.071.003.16-.012.154.09.001.14.005.28.007.42.015.252-.036.5-.055.751-.009.12-.018.24-.092.34-.12.175-.314.32-.32.55.026.396.03.791.021 1.187-.048.272-.374.083-.354-.118Zm.277.404c-.057.287-.165.45-.206.028-.07.032-.104.087-.136.155-.118.13-.343-.224-.047-.367.071-.045.093.039.13.077l.26.107Zm-.434-2.497c-.067.067-.357.224-.36.042l.36-.042Zm-.341-.077c-.003-.091.059-.116.306-.12-.099.084-.209.084-.306.12Zm-.315-3.23c.055-.005.11-.011.164-.018l.007.044-.167.012a.949.949 0 0 1-.004-.037Zm.731.314c.092 0 .185.112.22.284l-.22-.284Zm.383.318c.146.185.225.636.049.895.023-.307.035-.602-.05-.895Zm.166-.1c.01-.004.02-.008.03-.01l.109.297a.405.405 0 0 0-.022.006l-.117-.294Zm.262.532-.031-.355.034-.003c-.041.123.08.231-.003.358Zm-.272 4.54c.043.116.086.22.117.328-.032.255-.395-.1-.117-.327Zm.435-4.958.087.343-.028.008c-.053-.041-.083-.174-.059-.35Zm.208.96.005.235c-.114-.084-.115-.102-.005-.235ZM1.564 7.61c-.073-.275-.451-.969-.038-1.092.233-.045.788-.01.643.358-.052.127-.115.253-.145.386-.024.103-.073.1-.145.078-.157-.05-.329.115-.315.27Zm.707 1.097-.24-.133c.155-.166.13-.173.069-.304-.107-.17-.294-.043-.316.157-.32-.31-.015-.271.232-.41.083-.035.192.007.208.094.033.189.056.38.083.569l-.036.027Zm.123.676-.13.121-.022-.012c.031-.09.032-.127.152-.11Zm-.341-1.52c-.08-.052-.18-.072-.269-.113-.23-.064-.126-.293.072-.322a.66.66 0 0 1 .34.3c.054.104-.024.214-.143.134Zm-.398-.045c.103.038.227.033.302.137l-.306.136c-.012-.11-.064-.204.004-.273Zm.581 1.02c-.076.04-.151.096-.235.121-.202.06-.168.069-.234-.104-.05-.14-.083-.27-.13-.422l.6.405Zm-.17.483a.518.518 0 0 1-.325.09c-.047 0-.112.007-.137-.02-.062-.064-.105-.146-.154-.217.369-.063.311-.072.616.147Zm-.145-.248.332-.151c-.011.256-.143.327-.332.151Zm.588-.96c-.113-.044-.092-.14-.137-.217.186-.046.638-.175.69.084.001.1-.096.37-.235.325-.107-.063-.205-.148-.318-.192Zm-.097.59.039-.526c.448.281.461.184-.04.526Zm-1.185-1.27c-.036-.004-.058-.005-.068-.056-.017-.082-.075-.159-.082-.24-.034-.198.033-.418-.046-.604-.155-.053-.071.22-.074.3.008.206.03.372.093.58-.214-.173-.24-.43-.283-.674-.004-.06-.01-.099-.058-.15-.077.234.038.429.085.632-.136-.117-.169-.29-.245-.44-.065.124-.027.25-.031.379a.66.66 0 0 1-.127-.605c.093-.256.443-.31.677-.366.34-.032.424-.288.539-.553l.408-.059c.063.272.151.547.305.781.14.178.278.89-.101.838.037-.191.184-.432.035-.605-.246-.273-.879-.315-.995.102-.1.706.234.633.154.95-.037-.13-.035-.204-.186-.211Zm.3.35c.002.116.011.218-.017.328-.177-.098-.33-.315.016-.328Zm-.15.713c-.006-.146-.012-.15.134-.2l.21.76c-.101-.021-.362.076-.35-.085.005-.158.014-.317.007-.475ZM.56 9.18c.066.03.077.11.122.19-.094-.047-.262-.114-.122-.19Zm.173.196c.2-.089-.07-.303.034-.456.054.125.017.392.197.369-.085-.27-.235-.542-.028-.807-.002.4-.004.466.152.83.007.049.016.082.064.067.064-.076-.025-.208-.035-.296-.032-.195-.057-.391-.082-.56l.2-.187c.004.032.021.07.012.1-.06.202-.067.41-.05.618.048.522.535.5.931.387.07.13.028.183-.11.23-.122.05-.247.096-.352.18a.24.24 0 0 1-.122.054c-.123-.008-.299.041-.362-.101-.056-.202-.31-.292-.45-.428Zm.45.873c0 .07-.061.106-.119.124-.02.005-.069-.024-.07-.039-.038-.217.141-.343.345-.348.182.037.356.085.48.234.015.014.012.07-.005.09-.12.154-.162 0-.254-.089-.046.042-.077.069-.075.133-.075.145-.16.041-.163-.076-.008-.101-.108-.14-.14-.03Zm1.426 3.041a5.57 5.57 0 0 1-.802-.581c-.157-.086-.228-.223-.284-.378-.076-.261-.223-.502-.211-.784.01-.12-.003-.243-.005-.364h.01c-.005-.195-.007-.39-.013-.585-.002-.056.006-.079.072-.067.079.029.174-.09.238-.03.044.15-.036.323-.024.478.035.567-.047 1.28.436 1.68.264.189.547.375.838.517.318.063.652.093.974.083.272-.035.806-.306.963-.534.326-.455.386-.578.317-1.142-.036-.26.046-1.692.42-1.594.333.07.415.814.358 1.1-.04.24-.03.487-.114.72-.109.353-.128.754-.383 1.042-.082.077-.143.182-.234.243-.412.272-.837.573-1.352.564-.51.077-.811-.063-1.204-.368ZM4.08 26.055c-.034.098-.087.124-.159.048-.109-.1-.227.034-.339.06a1.829 1.829 0 0 1-.556.129c-.228.015.056-.197.085-.28.09-.251.288-.424.525-.536.05-.025.089-.062.147-.021.066-.001.138-.048.206-.068.063.218.161.437.091.668Zm-.33-1.28c.004-.099.02-.117.117-.12.116-.009.095.094.098.172l.012.002c-.042.156.012.447-.17.51-.165-.015-.036-.436-.058-.565Zm2.456 1.366c0 .017-.069.039-.108.047-.01.002-.034-.036-.045-.058-.007-.015.004-.039-.003-.052-.03-.054-.062-.105-.093-.156-.104.077-.181.194-.286.264-.076.051-.898.499-.807.24.178-.287.299-.661.64-.792.323-.122.18.26.607-.041.07.175.095.36.095.548Zm-.449-.832c.012-.13-.018-.497.058-.582.177-.055.204-.103.23.122l.01.002c-.036.234-.05.475-.138.697-.116.168-.154-.166-.16-.24Zm.912-11.11c-.112 1.23-.383 2.442-.366 3.68.017.392-.1.771-.083 1.163-.026.84-.058 1.677.011 2.514.012.178 0 .358.015.535.044.207.09.414.132.62.077.363.13.732.242 1.085.076.22.183.429.253.65.005.016-.02.058-.037.061-.128.025-.258.06-.387.06-.74-.036-1.483-.01-2.217-.112-.497.027-.995.036-1.492.043-.051.001-.071-.015-.047-.069a8.07 8.07 0 0 0 .536-1.54c.066-.199.095-.402.118-.607.083-.808.112-1.62.203-2.427-.01-.426.203-.811.21-1.241.024-.403.053-.805.086-1.207.052-.471.105-.945.143-1.417.005-.474-.037-.948-.073-1.42-.002-.173.021-.346.02-.518 0-.098.05-.136.126-.165.421-.152.844-.297 1.18-.607.227-.17.427-.38.5-.659.08-.216.159-.431.192-.664.07-.483.283-.957.176-1.452-.032-.21-.09-.407-.273-.542-.388-.37-.754.294-.772.644-.005.096-.007.193-.014.29-.06.452-.013.933-.185 1.36a2.142 2.142 0 0 1-.542.574c-.144.048-.288.094-.438.142-.138-1.035-.073-2.139.332-3.115.074-.182.173-.357.231-.544.065-.207.21-.34.356-.485.123.275.295.033.375.163.097.133.226-.013.283-.113.19.202.31.265.462-.015.159.133.322.238.357.457.072.314.14.63.183.948l-.021.006c-.274-.803-1.276-1.383-1.626-.298.164-.057.2-.258.319-.369.165-.209.365-.112.566-.007.397.137.5.56.58.926.031.227.008.462.004.69 0 .024.026.048.04.072l.035-.01.097-.68.016.01c.09.473.092.96.111 1.44 0 .02 0 .044.01.06.077.128.044.27.045.406.002.15-.026.306.005.45.074.406.089.827.023 1.234Zm2.593-7.355c-.05.337-.028.69-.167 1.008-.097.184-.1.414-.166.609-.05.127-.14.24-.182.37-.106.28-.344.453-.548.655a11.29 11.29 0 0 0-.444.481c-.14.145-.296.272-.4.448-.128.081-.254.165-.385.24-.093.055-.124.035-.127-.066a3.17 3.17 0 0 0-.123-.748c-.01-.04-.013-.1.01-.13.357-.442.842-.766 1.142-1.258.295-.571.456-1.202.598-1.823.014-.429.096-.854.072-1.284.087-1.095-.372-2.175-1.179-2.915a14.804 14.804 0 0 0-1.087-.854c-.424-.319-.943-.59-1.496-.501-.307.08-.643.085-.937.211-.26.125-.508.272-.764.405-.249.13-.373.368-.513.588-.34.63-.391 1.373-.48 2.073-.008.105-.008.211-.013.317-.005.121.062.273-.112.336-.105-.138-.172-.016-.281-.015-.057-.062-.008-.173-.016-.25-.056-.495-.017-.994.018-1.487.035-.197.086-.393.1-.591.016-.227.13-.41.222-.604.156-.31.33-.643.671-.777.278-.146.572-.257.87-.355.3-.096.603-.191.922-.167.275-.005.55-.044.824-.063.22-.015.437-.007.652.061.298.06.597.115.875.247.734.288 1.334.828 1.755 1.489.334.523.707 1.066.81 1.689.065.889-.037 1.776-.12 2.661Z"/><path class="cls-1" d="M3.976 24.83c-.042.155.012.446-.17.51-.165-.016-.036-.437-.058-.566.005-.098.021-.116.118-.12.116-.008.095.095.098.173l.012.002ZM6.054 24.85c-.036.235-.05.476-.137.698-.117.168-.155-.166-.16-.239.011-.13-.019-.498.057-.582.177-.055.205-.103.23.122l.01.002Z"/><path class="cls-8" d="M6.205 26.14c0 .018-.069.04-.108.048-.01.002-.034-.035-.045-.058-.007-.015.004-.039-.003-.052-.029-.054-.062-.104-.093-.156-.104.077-.181.194-.286.264-.075.051-.898.499-.807.24.178-.287.299-.661.64-.792.324-.122.18.26.607-.04.07.174.095.36.095.547ZM4.08 26.055c-.034.097-.088.124-.16.048-.108-.1-.227.034-.339.06a1.829 1.829 0 0 1-.556.129c-.228.015.057-.197.085-.28.09-.251.289-.424.525-.536.05-.025.09-.062.147-.021.066-.001.138-.049.206-.068.063.218.162.437.091.668Z"/><path d="m2.394 9.382-.13.121-.022-.012c.032-.09.033-.127.152-.11Z" style="fill:#9fa3a4"/><path class="cls-1" d="M.68 9.372C.588 9.324.42 9.257.56 9.18c.066.03.077.11.122.19Z"/><path class="cls-5" d="M5.734 3.666a.405.405 0 0 0-.022.006l-.117-.294.03-.01.109.298ZM4.486 2.873l-.167.012a.949.949 0 0 1-.004-.037l.164-.019.007.044ZM5.267 3.445l-.22-.284c.09 0 .184.112.22.284ZM5.857 3.91l-.031-.354.034-.003c-.041.123.08.231-.003.357ZM6.107 3.836l-.028.008c-.053-.041-.083-.174-.059-.35.03.113.059.227.087.342ZM6.233 4.688c-.114-.084-.115-.102-.005-.235l.005.235ZM5.478 4.374c.023-.307.035-.603-.05-.895.147.185.226.636.05.895Z"/><path class="cls-3" d="M4.936 5.957c-.099.084-.209.084-.306.12-.003-.091.059-.116.306-.12ZM4.971 6.154c-.067.067-.357.224-.36.042l.36-.042Z"/><path class="cls-8" d="M5.702 8.78c-.032.254-.395-.1-.117-.328.043.115.086.22.117.327ZM5.405 8.65c-.057.288-.166.45-.206.028-.07.032-.104.088-.136.156-.118.13-.344-.224-.047-.367.071-.045.093.039.13.077l.26.107Z"/><path class="cls-1" d="M5.928 5.537c-.002-.14-.006-.28-.007-.42.007-.102-.083-.087-.154-.09-.136-.12-1.103.145-.952-.061.215-.203.436-.33.362-.667-.02-.118-.044-.238-.04-.356 0-.382-.294-.942-.738-.83-.296.041-1.047.128-1.057.516-.06.195-.14.368-.006.558.148.252.308.498.444.756.096.175.125.386.214.566.009.013.042.016.062.012.42-.129.418-.053.497.343.229-.185.43-.055.662-.007.06.003.068.041.057.083a.5.5 0 0 1-.323.35c-.226.084-.306.03-.314.319-.067.615.608.316.535.893-.03.247-.034.496-.042.745-.02.201.306.39.355.118.008-.396.005-.79-.022-1.187.007-.23.2-.375.32-.55.074-.1.083-.22.092-.34.019-.25.07-.499.056-.75ZM4.636 3.874c-.183.28-.37.33-.67.431l.005.03.248.016v.036c-.175.069-.368-.02-.543-.058-.199-.085-.033-.521.104-.621.028-.024.063-.046.081-.077.156-.241.605-.16.882-.213-.047.166-.003.327-.107.456Zm.876 2.137a.925.925 0 0 1-.142.419l-.039-.015c.137-.429.163-.508-.2-.815.052-.048.11.017.162.036.17.09.279.161.22.375ZM2.018 9.672c-.123.05-.247.095-.353.18a.24.24 0 0 1-.122.054c-.123-.008-.299.041-.361-.102-.057-.2-.311-.291-.45-.427.2-.089-.07-.303.034-.456.054.125.018.392.197.369-.085-.27-.235-.542-.028-.807-.002.4-.004.466.152.83.007.049.016.082.064.067.065-.076-.025-.208-.034-.296-.033-.195-.058-.391-.083-.56l.2-.187c.004.032.021.07.012.1-.06.202-.067.41-.05.618.048.522.535.5.931.387.07.13.028.183-.11.23ZM2.32 6.357c-.153-.234-.242-.509-.305-.78l-.408.058c-.115.265-.2.521-.539.553-.234.056-.584.11-.676.367a.66.66 0 0 0 .126.604c.004-.13-.034-.255.032-.38.075.152.108.324.244.441-.047-.203-.162-.398-.085-.632.049.052.054.09.058.15.043.245.07.501.284.673a2.152 2.152 0 0 1-.094-.58c.003-.079-.081-.352.074-.3.079.187.012.407.046.604.008.082.065.159.082.241.01.051.033.052.069.055.15.007.148.08.186.211.08-.317-.254-.244-.155-.95.116-.416.75-.375.996-.102.148.174.002.414-.036.605.379.053.24-.66.102-.837Zm-.589-.067c-.084.025-.193.017-.253-.053q.471-.054.58.042c-.108.005-.223-.016-.327.012Z"/><path class="cls-4" d="M2.22 5.032c-.007.097-.006.19-.025.278-.057.145-.416.036-.552.046-.085-.007-.11-.05-.13-.187-.013-.08.049-.077.11-.104.028.085.035.167.1.229.051-.068.063-.152.088-.232l.028.004c.035.074.07.147.114.235.08-.115.056-.296.268-.27ZM1.814 10.31c-.12.155-.163.001-.255-.088-.046.042-.077.069-.074.133-.076.145-.16.041-.164-.076-.008-.101-.108-.14-.139-.03 0 .07-.061.107-.119.125-.02.004-.069-.024-.07-.039-.038-.218.142-.343.346-.348.182.036.356.085.48.234.014.014.01.07-.005.09Z"/><path d="M6.836 24.507c-.129.025-.258.06-.387.06-.74-.036-1.483-.01-2.218-.112-.496.027-.994.036-1.491.043-.052.001-.072-.015-.047-.069a8.07 8.07 0 0 0 .536-1.54c.066-.199.095-.402.118-.607.083-.807.111-1.62.202-2.427-.009-.426.203-.811.21-1.241.025-.403.053-.805.087-1.207.052-.471.104-.945.143-1.417.005-.474-.037-.948-.074-1.42-.001-.173.022-.345.02-.518 0-.098.051-.136.126-.165.422-.152.845-.297 1.181-.607.227-.17.427-.38.5-.659.08-.216.158-.431.192-.664.068-.483.283-.957.175-1.452-.031-.21-.09-.407-.272-.542-.389-.37-.754.294-.773.644-.005.096-.007.193-.014.29-.06.452-.013.933-.184 1.36a2.142 2.142 0 0 1-.542.574c-.144.048-.289.094-.439.142-.137-1.035-.073-2.139.333-3.115.073-.182.172-.357.23-.544.065-.207.21-.339.356-.485.123.275.295.033.375.163.097.133.227-.013.283-.113.19.202.31.265.463-.015.158.133.321.238.357.457.071.314.14.63.183.948l-.022.007c-.274-.804-1.275-1.383-1.625-.299.164-.057.2-.258.318-.369.166-.209.366-.112.566-.007.398.137.5.56.58.926.031.227.009.462.005.69 0 .024.025.048.039.072l.035-.01.097-.68.016.01c.091.473.092.96.111 1.44 0 .02 0 .045.01.06.078.129.045.27.046.406.001.15-.026.306.005.45.073.406.088.827.022 1.234-.112 1.23-.383 2.442-.365 3.68.016.393-.1.771-.084 1.163-.026.84-.058 1.677.011 2.515.012.177 0 .357.016.534l.131.62c.077.363.13.732.242 1.085.076.22.184.429.254.65.005.016-.02.059-.038.061Z" style="fill:#58906b"/><path class="cls-8" d="M5.896 11.09c-.04.24-.03.488-.115.72-.108.353-.128.754-.383 1.042-.082.077-.143.182-.233.243-.413.272-.838.573-1.353.564-.51.077-.81-.063-1.204-.368a5.57 5.57 0 0 1-.801-.581c-.157-.086-.229-.223-.284-.378-.077-.261-.223-.502-.212-.784.01-.12-.002-.243-.004-.364h.008c-.003-.195-.006-.39-.012-.585-.001-.056.006-.079.073-.067.078.029.173-.09.237-.03.044.15-.036.323-.023.478.035.567-.048 1.28.435 1.68.264.189.547.375.839.517.318.063.651.093.973.083.272-.035.806-.306.963-.534.326-.455.387-.578.317-1.142-.036-.26.046-1.692.42-1.594.333.07.415.814.358 1.1ZM9.261 6.844c-.05.337-.027.69-.166 1.008-.098.184-.1.414-.167.609-.05.127-.14.24-.182.37-.106.28-.344.453-.547.655a11.29 11.29 0 0 0-.445.481c-.14.145-.296.272-.4.448-.127.081-.254.165-.385.24-.092.055-.124.035-.127-.066a3.17 3.17 0 0 0-.123-.748c-.01-.04-.012-.1.01-.13.357-.442.842-.766 1.143-1.258.294-.571.455-1.202.598-1.823.013-.429.095-.854.071-1.284.087-1.095-.371-2.175-1.178-2.915a14.804 14.804 0 0 0-1.088-.854c-.423-.319-.943-.59-1.496-.501-.307.081-.643.085-.937.211-.26.125-.508.272-.764.405-.248.13-.373.368-.512.588-.341.63-.392 1.373-.48 2.073-.009.105-.008.211-.014.317-.005.121.062.273-.112.336-.105-.138-.172-.016-.28-.015-.057-.062-.01-.173-.017-.25-.055-.495-.017-.994.019-1.487.034-.197.085-.393.1-.59.015-.228.13-.411.221-.605.156-.31.33-.643.672-.777.277-.146.572-.257.87-.355.3-.096.603-.191.921-.167.275-.005.55-.044.824-.063.22-.015.437-.007.652.061.298.06.598.115.875.247.734.288 1.334.828 1.756 1.489.333.523.706 1.066.81 1.69.064.888-.038 1.775-.122 2.66Z"/><path class="cls-6" d="M3.861 3.631c-.018.03-.053.053-.081.077-.137.1-.303.536-.104.621.175.037.368.127.543.058V4.35l-.248-.016-.005-.03c.3-.1.487-.151.67-.431.104-.13.06-.29.107-.457-.277.054-.725-.027-.881.214Zm.374-.117-.497.363c.035-.14.322-.355.497-.363Zm-.093.262c-.047.104-.176.06-.107.182-.214-.106.057-.242.16-.282.09.096.158.242-.033.258.017-.06.067-.122-.02-.158Zm-.217.214-.132.094a2.725 2.725 0 0 0-.034-.034l.113-.123.053.063Zm-.214.26-.013-.032c.24-.104.496-.176.751-.216-.067.141-.504.292-.738.249Zm.647-.429-.091-.209.331-.053.01.03c-.068.093-.121.202-.25.232Z"/><path class="cls-9" d="m4.235 3.514-.497.363c.036-.14.322-.355.497-.363ZM3.926 3.99l-.133.094a2.725 2.725 0 0 0-.034-.034l.113-.123.054.063ZM4.162 3.934c.017-.06.067-.122-.02-.158-.047.105-.176.06-.107.182-.214-.106.057-.242.16-.282.09.096.158.242-.033.258ZM4.609 3.59c-.069.092-.122.201-.25.231-.03-.064-.058-.13-.092-.209l.332-.053.01.03ZM4.45 4.002c-.068.141-.505.292-.738.248l-.014-.032c.24-.104.497-.176.752-.216Z"/><path class="cls-6" d="M5.512 6.011a.925.925 0 0 1-.142.419l-.039-.015c.137-.429.163-.508-.2-.815.052-.048.11.017.162.036.17.09.279.161.22.375ZM2.058 6.28c-.108.003-.223-.017-.327.01-.084.024-.193.017-.253-.053q.471-.054.58.042Z"/></g></svg>