<svg id="objects" xmlns="http://www.w3.org/2000/svg" viewBox="0 0 19.368 15.182"><defs><style>.cls-1{fill:#eac3a7}.cls-4{fill:#d1d3d4}.cls-6{fill:#dd5633}.cls-7{fill:#184137}.cls-8{fill:#234968}.cls-9{fill:#0f181b}.cls-10{fill:#316956}.cls-11{fill:#567591}</style></defs><g id="EOgSDJ.tif"><path class="cls-9" d="M12.887 7.727c-.025-.02-.072-.038-.098-.029-.065.024-.123.066-.186.098-.045.025-.089.054-.137.07-.092.03-.185.054-.279.073-.135.028-.27.058-.408.068a.26.26 0 0 1-.244-.105c.057-.026.102-.056.151-.066.133-.027.268-.042.402-.067.063-.012.093-.06.102-.123.01-.068-.03-.11-.083-.13a.646.646 0 0 0-.35-.05c-.14.029-.291.062-.373.181-.097.14-.213.199-.374.188-.02 0-.043-.02-.053-.039-.013-.021-.015-.05-.018-.075-.012-.118-.054-.158-.169-.159h-.032c-.13 0-.264-.012-.393.006-.08.011-.153.071-.232.104a.645.645 0 0 1-.152.041c-.07.01-.142.004-.21.019a3.256 3.256 0 0 1-.702.086c-.09-.001-.18-.014-.27-.015a2.284 2.284 0 0 1-.84-.143c-.145-.057-.3-.084-.438-.162-.072-.04-.149-.074-.223-.112-.087-.044-.179-.082-.262-.134-.098-.061-.186-.139-.283-.203-.122-.08-.25-.15-.373-.228-.172-.109-.337-.227-.513-.328-.125-.072-.193-.16-.168-.31a.414.414 0 0 0 .002-.155 10.338 10.338 0 0 0-.129-.495c-.02-.072-.054-.14-.077-.211-.014-.04-.017-.084-.027-.138.034-.028.08-.06.118-.099.04-.04.101-.07.085-.146a.994.994 0 0 0-.384-.62c.073-.087.141-.176.22-.255.056-.058.135-.098.214-.072.139.045.274.101.407.162a.553.553 0 0 0 .357.042c.267-.049.394-.205.459-.449.035-.13.094-.248.256-.262a.106.106 0 0 0 .063-.031c.099-.11.256-.142.339-.279.058-.096.177-.09.245-.017a.685.685 0 0 0 .116.1c.118.08.149.075.233-.031.008-.01.012-.023.02-.034.07-.103.137-.21.216-.308.08-.099.173-.186.26-.279.074-.08.144-.163.221-.24.118-.116.243-.224.36-.342a.36.36 0 0 1 .211-.108c.05-.008.126-.038.135-.072.03-.115.056-.237.046-.354-.013-.173-.119-.3-.261-.4-.083-.058-.155-.133-.227-.205-.12-.122-.23-.257-.358-.37-.193-.171-.435-.23-.685-.246-.245-.013-.49-.015-.734-.016a1.08 1.08 0 0 1-.318-.047 1.186 1.186 0 0 0-.286-.049c-.2-.01-.386.061-.576.11-.037.009-.077.016-.11.034-.142.076-.216.212-.296.342a2.457 2.457 0 0 0-.169.333c-.052.124-.09.253-.135.381.007.027.027.057.02.08-.013.044-.041.085-.071.143v-.108c-.094.163-.135.345-.177.526-.04.17-.047.33.084.467-.133.225-.116.462-.06.698.05.218-.02.406-.14.578-.082.117-.182.222-.27.335-.086.109-.167.215-.333.191-.206-.03-.374.183-.408.337-.021.093-.073.117-.144.15a3.18 3.18 0 0 0-.336.179c-.137.085-.27.177-.4.274-.124.096-.266.176-.344.322-.079.148-.16.295-.235.444-.061.124-.117.25-.17.378a1.582 1.582 0 0 0-.094.27c-.03.132-.047.268-.062.403-.012.115-.086.21-.076.336.014.177-.01.357-.006.535.002.101.033.201.04.303.008.095.007.191 0 .287-.006.071-.032.14-.041.212-.008.057-.007.116-.007.175 0 .132-.01.265.005.395.01.092.048.18.08.269.076.208.064.435.153.644.031.074.06.079.115.074.03-.002.06-.018.09-.025.038-.01.064-.007.05.045-.014.048-.03.096-.031.145-.005.082-.036.16.002.246.046.105.07.218.103.328a.968.968 0 0 0 .41.549c.202.128.436.153.66.205.025.006.061.027.066.046.02.099.038.199.049.3.01.107.004.218.02.325.019.118.057.233.082.35.02.096.032.193.048.291l-.158-.018c-.164-.02-.328-.056-.492-.057-.314 0-.627.012-.94.031-.168.011-.337.043-.503.074-.123.024-.162.102-.135.225.012.053.02.108.022.162 0 .016-.028.043-.047.048-.066.015-.133.02-.198.035-.096.023-.145.083-.157.187l-.088.02c-.123.027-.248.046-.367.084-.104.032-.205.08-.301.13a.73.73 0 0 0-.278.26c-.017.028-.036.065-.063.074a.518.518 0 0 0-.259.196.422.422 0 0 0-.082.33c.014.079.035.157.048.236.011.072.061.112.131.1a.844.844 0 0 1 .133-.014c.131-.002.147-.02.114-.146-.017-.064.016-.098.08-.083.049.011.098.02.144.036.232.085.473.088.715.078a.179.179 0 0 0 .092-.037c.063-.048.06-.147-.008-.236-.073-.096-.147-.19-.26-.246-.044-.021-.085-.05-.135-.08l.415-.178c.015.098.023.184.04.268.019.095.044.188.069.282.032.12.09.164.214.165.013 0 .027-.002.04 0 .15.032.266-.026.354-.135.185.008.365.022.544.02.156 0 .311-.03.467-.027.52.005 1.04-.012 1.56-.052.196-.015.386-.056.501-.246.011-.017.049-.028.074-.027.068.002.136.017.204.016.144 0 .287-.011.43-.014.153-.002.28-.066.347-.195.065-.123.147-.238.158-.395.01-.159.04-.313.028-.476-.03-.395-.036-.792-.053-1.187a1.053 1.053 0 0 0-.02-.173c-.033-.155-.093-.308-.102-.464-.019-.294-.166-.545-.237-.82-.04-.153-.113-.296-.169-.445-.04-.109-.075-.22-.119-.328-.025-.06.023-.046.045-.05.128-.024.141-.032.136-.163-.006-.18-.023-.36-.03-.54-.011-.282-.009-.565-.079-.843-.011-.045.009-.07.064-.053.149.047.297.098.449.134.348.08.696.163 1.047.226.263.048.53.08.797.093.238.01.478-.035.715-.024.364.018.706-.111 1.063-.13.064-.004.131-.02.173.059.014.025.058.047.09.048.117.006.236.012.353 0 .104-.011.224-.005.289-.122.007-.013.037-.018.056-.019.202-.004.396.04.583.113.14.055.283.098.435.094.119-.002.238-.008.357-.016.157-.01.2-.057.197-.192 0-.05-.02-.07-.067-.063-.057.006-.114.015-.172.022l-.327.045a.365.365 0 0 0-.005-.02c.083-.027.165-.057.249-.08.144-.04.253-.113.296-.267.012-.04.05-.071.072-.11.07-.12.14-.243.203-.368.011-.02 0-.068-.017-.084ZM.757 14.118c.09-.032.536-.222.67-.245.002.004.022.018.04.031a.023.023 0 0 1-.006.04c-.183.05-.691.22-.763.264-.002-.008.062-.082.06-.09Zm-.061.154c.082-.04.165-.08.25-.11.201-.07.404-.135.61-.204.01.073-.008.1-.074.115a4.08 4.08 0 0 0-.761.25c-.015.006-.036-.001-.054-.002.01-.017.014-.042.029-.05Zm.516.478a.23.23 0 0 0-.029.07c0 .003.03.022.038.018.025-.014.055-.032.066-.056.018-.039.022-.084.04-.158.064.073.117.13.166.19.033.04-.002.127-.052.138-.164.036-.325.01-.485-.022-.127-.026-.253-.059-.38-.09-.084-.023-.112.022-.122.094l-.003.028c-.075.01-.153.061-.212-.011-.061-.077-.05-.246.01-.328a.718.718 0 0 1 .246-.232c.016-.007.042-.012.055-.005a.736.736 0 0 0 .35.102c.06.004.12.013.19.022-.038.068-.053.124-.13.092-.017-.007-.048.02-.072.032.012.019.02.044.037.056.043.029.09.055.138.075.02.008.047-.003.072-.006-.007-.023-.008-.051-.022-.069-.057-.075.029-.092.046-.136.104.031.12.101.053.196Zm-.397-.357a.54.54 0 0 0-.006-.022c.1-.08.624-.237.753-.209l-.747.23Zm4.703-8.611c.043.149.077.3.112.452.006.029-.006.062-.01.093-.18-.056-.217-.19-.21-.339.009-.24-.07-.458-.157-.675-.012-.03-.019-.063-.03-.102l.11-.014c.061.194.127.388.185.585Zm-.691-.415c-.011-.025-.005-.06.002-.089.018-.065.045-.128.06-.194.007-.022-.008-.05-.01-.075-.003-.02-.001-.04-.001-.059l.022-.003.157.172c.014.015.031.031.05.037.05.014.07.04.062.094a.164.164 0 0 0 .015.083c.115.262.192.53.152.825-.107-.062-.22-.113-.315-.188-.052-.041-.08-.119-.106-.185a.354.354 0 0 1-.019-.148.57.57 0 0 0-.07-.27Zm.716-.61c.053.167-.11.4-.273.4-.128.01-.196-.078-.263-.157a.71.71 0 0 1-.108-.195c-.01-.025.001-.07.02-.094.085-.105.174-.206.266-.305.015-.016.062-.027.075-.016.125.098.235.21.283.366ZM7.155 3.44c-.149.02-.23-.076-.319-.176-.087-.098-.092-.197-.061-.321.08.095.147.189.227.269.054.053.127.086.19.13.018.014.028.038.041.057-.026.014-.05.037-.078.04Zm.19-.192c-.003.022-.024.044-.041.061-.003.003-.03-.017-.045-.028-.046-.032-.09-.072-.14-.096-.152-.072-.225-.214-.33-.353.135.004.235.059.337.107.095.044.189.09.21.209.005.033.014.068.01.1ZM7.953.33c-.057.073-.251.062-.331 0h.331ZM7.92.697l-.288.057-.005-.027c.096-.016.184-.078.288-.054a.495.495 0 0 0 .005.024ZM7.304.624c-.078.05-.138.027-.196-.025.066-.05.133-.044.196.025ZM6.699.34h.196V.35h-.198L6.7.34Zm-.171.22c.03.015.06.033.089.05l-.019.037L6.5.606C6.51.59 6.525.56 6.528.56ZM6.254.447c.012.096-.064.088-.113.115-.014-.08.012-.107.113-.115ZM4.662 4.554c.013-.04.047-.075.073-.11.052-.07.103-.14.158-.209.075-.093.15-.187.23-.276a.997.997 0 0 0 .218-.36c.034-.1.075-.204.078-.308.004-.135-.03-.271-.04-.407-.004-.052.01-.104.017-.156.008-.052.02-.103.027-.154.01-.069.057-.106.13-.102.134.007.284-.135.286-.28 0-.066-.023-.133-.025-.2a1.958 1.958 0 0 1 .011-.236c.014-.163.059-.317.105-.473.048-.165.18-.234.296-.323.042-.032.098-.046.148-.067.15-.061.293-.009.434.035a.095.095 0 0 1 .063.129c-.04.103-.088.204-.14.324.026.022.065.064.113.09.115.062.132.051.21-.05.116-.149.252-.278.404-.39.027-.02.043-.055.066-.081a.483.483 0 0 1 .39-.169c.091.003.185-.007.27.015.09.023.174.072.254.12.07.042.146.086.19.149.126.181.235.374.355.56.035.054.085.1.122.154.015.023.026.077.015.084-.16.12-.253.299-.385.443-.156.17-.346.312-.444.53-.04.092-.087.18-.134.27-.023.043-.052.083-.094.15-.071-.078-.135-.145-.195-.215-.042-.05-.091-.07-.145-.032-.064.046-.123.1-.18.154-.038.036-.068.08-.104.123-.036-.089-.056-.17-.1-.239a.5.5 0 0 0-.16-.164.655.655 0 0 0-.361-.112c-.023 0-.057.02-.065.04-.084.19-.108.378.043.552l.12.139c-.022.08-.044.167-.066.254-.036.142-.089.276-.24.331-.064.023-.139.02-.209.03-.008 0-.016-.002-.024-.001-.222.024-.405-.092-.598-.17-.132-.053-.232-.032-.35.052-.176.126-.301.293-.422.466-.054.078-.087.176-.19.2a.21.21 0 0 1-.132-.02c-.019-.009-.031-.063-.023-.09Zm-.44.209c.025-.103.046-.208.08-.309.03-.085.167-.159.256-.145.052.008.09.022.074.098-.018.086-.079.18.005.264.03.029.06.059.097.075.111.05.112.047.112.184.014.109-.04.21-.09.313-.048.102-.17.12-.26.073-.223-.117-.343-.288-.275-.553Zm-1.496 5.272-.075-.278c-.024-.09-.051-.18-.072-.271-.042-.188-.084-.376-.12-.565a2.262 2.262 0 0 1-.032-.29c-.003-.049.017-.1.013-.149-.013-.172-.035-.345-.046-.518a2.646 2.646 0 0 1 .002-.346c.009-.133.03-.266.045-.399.034-.31.073-.618.2-.908.09-.207.165-.422.252-.63.083-.198.226-.343.403-.458.194-.125.384-.258.578-.382.06-.037.132-.056.185-.078.078.16.13.306.216.43.071.1.159.205.293.235.05.011.107-.003.161-.001.023 0 .064.01.066.02.018.104.029.208.042.311l-.022.02c-.047-.027-.093-.056-.143-.08-.185-.09-.377-.16-.586-.104-.05.012-.094.059-.133.098-.04.04-.07.092-.107.136a.621.621 0 0 0-.17.359l-.001.008c-.132.149-.03.278.053.388.173.232.35.464.553.67.159.16.358.28.54.418.044.032.093.059.136.092a.167.167 0 0 1 .07.134c.005.092.034.184.053.275.002.008.006.015.006.023.011.238.024.477.032.715a6.38 6.38 0 0 1 0 .347c0 .037-.017.074-.013.11.01.106.027.211.042.318l.03.232c-.078-.005-.157-.008-.235-.016-.136-.014-.272-.03-.407-.046-.211-.026-.42-.058-.632-.077a1.091 1.091 0 0 0-.47.044c-.029.011-.061.013-.09.023-.128.044-.254.093-.382.134-.07.022-.142.034-.235.056Zm2.951-1.167c.02.13.005.263-.009.396-.017.162-.004.326-.004.489q0 .182-.181.182h-.056c-.133 0-.145-.007-.162-.135-.008-.06 0-.123-.003-.185-.002-.058-.012-.115-.014-.173-.007-.156-.007-.313-.018-.469-.01-.127-.03-.254-.047-.382-.016-.136-.036-.27-.046-.407-.008-.093-.002-.187-.002-.299.043.024.07.038.096.054.106.063.21.128.317.188.048.026.071.06.068.113-.013.213.028.42.061.628Zm-3.326 4.32c.006-.073.092-.073.146-.077a3 3 0 0 1 .647.011c.06.01.125-.012.188-.013.206-.002.412-.002.618 0 .06 0 .122.007.18.018.017.004.04.034.041.054.005.069.002.138.002.216-.093 0-.18-.007-.267.002-.145.014-.289.04-.434.06-.073.008-.147.018-.22.017-.16-.002-.318-.01-.477-.014-.125-.003-.25 0-.403 0-.007-.085-.029-.182-.02-.275Zm-.126-.012c.013.073.027.145.038.217.01.059-.006.097-.075.102-.04.003-.08.018-.12.028-.08-.283-.066-.313.157-.346Zm-.078 1.673c-.176.097-.345.016-.396-.178a1.86 1.86 0 0 1-.064-.522c.002-.087-.012-.174-.015-.261-.002-.118.004-.122.122-.122.093 0 .124.027.15.141.026.117.042.236.071.351.033.126.076.249.113.373.015.05.033.1.041.15.004.022-.007.06-.022.068Zm3.95-4.06c.025.079.047.16.063.241.025.12.042.242.065.363l.158.814c.005.026 0 .053.002.08.022.27.047.541.062.812.01.15.004.3.003.45-.002.21-.066.408-.112.61-.029.124-.15.213-.31.216-.18.002-.358-.002-.537 0-.07.002-.073-.035-.065-.086.037-.236.08-.47.108-.707.021-.184.022-.37.035-.555.004-.063.024-.124.027-.186.003-.057-.007-.116-.013-.173a2.51 2.51 0 0 0-.193-.714 9.759 9.759 0 0 0-.305-.644c-.04-.078-.097-.149-.15-.22a.396.396 0 0 1-.072-.236.227.227 0 0 0-.072-.155l-.03.01c.008.066.011.133.023.198.01.066.044.13.042.195-.003.12.099.173.143.26.018.037.044.071.06.109.088.216.182.43.26.65.052.145.07.3.121.444.075.21-.02.403-.04.603-.022.214-.103.416-.095.637.006.175-.021.353-.046.527-.017.114-.136.266-.304.268-.191.002-.382.01-.574.015-.178.005-.356.007-.533.018-.144.01-.287.037-.431.045-.27.016-.539.02-.808.036-.088.005-.174.03-.26.045-.01.002-.021-.002-.026-.003-.029-.135-.07-.264-.08-.395-.017-.218-.128-.418-.11-.642.005-.061.019-.078.082-.084.171-.014.34-.04.51-.06.022-.002.044-.001.065-.001h.394c.202-.005.405-.005.606-.019.154-.01.307-.038.46-.063.074-.013.126-.103.112-.182-.027-.143-.05-.287-.08-.43-.015-.067-.05-.131-.066-.199a6.308 6.308 0 0 1-.131-.772.427.427 0 0 1 0-.132c.018-.094-.002-.118-.093-.129s-.18-.033-.269-.054c-.063-.014-.123-.044-.187-.052-.152-.017-.272-.111-.373-.2a.833.833 0 0 1-.217-.361c-.05-.152-.058-.319-.071-.48-.008-.097.007-.196.015-.294.002-.016.018-.041.033-.045.175-.051.349-.107.527-.144.143-.03.292-.038.438-.05.116-.01.233-.017.35-.016.156 0 .312.011.469.014.134.003.268-.003.402.002.185.006.37.02.554.03.065.002.13 0 .211 0 .084.262.17.526.253.79Zm-.098-.923c-.067.015-.118.028-.17.036-.083.013-.1-.002-.1-.084 0-.168-.004-.336 0-.504.003-.081.032-.162.029-.242-.008-.146-.031-.292-.047-.439l-.042-.43c.038.02.053.031.07.036.154.041.2.154.197.297-.002.17-.019.34-.012.51.005.151.036.301.05.453.013.125.018.252.025.367Zm4.183-1.232c-.077.016-.155.024-.233.033-.14.017-.282.04-.423.046-.163.009-.326.001-.49.004-.194.003-.389.024-.581.012a6.27 6.27 0 0 1-.761-.092c-.369-.07-.734-.159-1.1-.244-.07-.016-.137-.048-.204-.077-.158-.07-.32-.132-.472-.213a8.527 8.527 0 0 1-.538-.317c-.232-.146-.46-.298-.69-.447-.096-.062-.206-.11-.286-.187-.1-.097-.177-.218-.257-.333-.054-.079-.095-.167-.142-.25-.048-.087-.11-.167-.104-.298.034-.082.018-.204.113-.293.056-.053.087-.133.145-.184.05-.045.103-.076.194-.056.221.05.389.173.557.314.148.125.312.233.476.337.22.139.445.27.671.4.226.13.453.26.684.381.28.148.56.301.85.428.192.084.403.122.603.19.171.058.347.052.523.062.1.007.201.022.3.015.253-.02.508 0 .758-.06.1-.024.204-.024.306-.035.048-.005.069.012.074.066.022.249.051.497.074.745.002.017-.028.05-.047.053Zm.778-.375c-.007.12-.013.239-.022.357-.006.093-.088.085-.145.098-.087.02-.177.03-.266.032-.128.002-.196-.01-.226-.139-.027-.117-.035-.238-.051-.357-.011-.083-.029-.166-.03-.25-.003-.1.006-.201.016-.3.002-.02.037-.051.058-.053.144-.016.289-.03.434-.035.085-.002.148.069.163.156.027.163.056.325.084.487l-.015.004Zm.957-.686c.051-.005.107-.017.153-.002.03.009.047.059.07.09l-.085.04a.136.136 0 0 0-.005-.01c-.005 0-.011.001-.016-.001-.043-.023-.087-.045-.127-.071-.005-.004.005-.045.01-.046Zm-.138.789a3.19 3.19 0 0 0 .93-.274c-.033.049-.059.109-.104.144-.107.083-.238.11-.37.133a1.47 1.47 0 0 0-.28.085c.207.065.39-.028.582-.087-.029.104-.12.115-.194.143-.098.036-.2.06-.299.092-.023.008-.042.033-.062.05.026.017.054.05.08.05.112-.006.225-.02.337-.031l.196-.02.014.027c-.017.009-.036.028-.05.025-.072-.015-.132-.004-.176.06-.01.015-.029.033-.045.036-.209.029-.42.03-.614-.052a1.697 1.697 0 0 0-.654-.137c-.017 0-.047-.044-.049-.07-.01-.132-.012-.264-.019-.397-.001-.036-.017-.074-.011-.108.005-.035.018-.08.044-.097.05-.031.11-.044.166-.067a.814.814 0 0 0 .13-.065c.118-.077.23-.164.352-.233.05-.027.118-.018.193-.028-.055.123.058.152.113.212l-.012.026c-.086-.006-.172-.006-.256-.02-.106-.018-.274.118-.27.226.003.056.102.145.167.137.274-.036.557-.032.81-.173a.647.647 0 0 1 .203-.075c.032-.006.073.037.131.07-.11.068-.194.143-.291.175-.207.067-.42.112-.632.164-.042.01-.08.017-.06.079Z"/><path d="m12.14 7.661-.085.04a.136.136 0 0 0-.005-.01c-.005 0-.011.001-.016-.001-.043-.023-.087-.045-.127-.071-.005-.004.005-.045.01-.046.051-.005.107-.017.153-.002.03.009.047.059.07.09Z" style="fill:#bcbec0"/><path class="cls-1" d="M11.78 8.362a3.19 3.19 0 0 0 .93-.274c-.034.049-.06.109-.105.144-.107.083-.238.11-.37.133a1.47 1.47 0 0 0-.28.085c.207.065.39-.028.582-.087-.029.104-.12.115-.194.143-.098.036-.2.06-.299.092-.023.008-.042.033-.062.05.026.017.054.05.08.05.112-.006.225-.02.337-.032l.196-.02.014.028c-.017.009-.036.027-.05.025-.072-.015-.132-.004-.176.06-.01.015-.029.033-.045.036-.209.029-.42.03-.614-.052a1.697 1.697 0 0 0-.654-.137c-.017 0-.047-.044-.049-.07-.01-.132-.012-.265-.019-.397-.001-.036-.017-.074-.011-.108.005-.035.018-.08.044-.097.05-.031.11-.044.166-.068a.814.814 0 0 0 .13-.064c.118-.077.23-.164.352-.233.05-.027.118-.018.193-.028-.055.123.058.151.113.212l-.012.026c-.086-.006-.172-.006-.256-.02-.106-.018-.274.117-.27.226.003.056.102.145.167.137.274-.036.557-.032.81-.173a.647.647 0 0 1 .203-.075c.032-.006.073.037.131.07-.11.068-.194.143-.291.175-.207.067-.42.112-.632.164-.042.01-.08.017-.06.079ZM9.104 1.779c-.036-.054-.086-.1-.121-.155-.12-.186-.23-.378-.356-.56-.043-.063-.12-.107-.189-.148a.984.984 0 0 0-.254-.12C8.1.772 8.005.782 7.914.78a.484.484 0 0 0-.39.169c-.023.026-.04.06-.067.08a2.05 2.05 0 0 0-.403.39c-.078.102-.095.113-.21.05-.048-.025-.087-.067-.114-.089.053-.12.101-.221.14-.325a.095.095 0 0 0-.062-.129c-.14-.043-.284-.096-.434-.034-.05.02-.106.035-.148.067-.117.088-.248.158-.296.322a2.4 2.4 0 0 0-.105.473 1.94 1.94 0 0 0-.011.236c.002.067.025.134.025.201-.002.144-.152.286-.286.28-.073-.004-.12.033-.13.101-.008.052-.02.103-.027.154-.008.052-.021.105-.018.156.011.136.044.273.04.408-.002.103-.043.207-.077.308a.997.997 0 0 1-.217.36c-.081.089-.156.182-.231.276-.055.068-.106.138-.158.208-.026.036-.06.07-.073.111-.009.026.004.08.023.09.038.02.09.03.131.02.104-.024.136-.123.19-.2.121-.174.247-.34.423-.467.117-.083.218-.104.35-.05.192.077.376.193.598.168.008 0 .016.002.024 0 .07-.008.144-.005.21-.028.15-.055.202-.19.239-.331l.065-.255-.12-.138c-.15-.174-.126-.362-.043-.553.01-.02.042-.039.065-.04a.656.656 0 0 1 .362.113c.064.037.12.1.16.164.043.068.064.15.1.238.035-.042.066-.087.104-.123.057-.054.116-.108.18-.153.054-.039.103-.018.145.031.06.07.123.137.195.215.041-.066.07-.107.093-.15.047-.089.094-.178.135-.269.098-.219.287-.361.444-.53.132-.145.224-.324.385-.443.01-.008 0-.062-.016-.085ZM6.34 1.14c-.119.102-.192.222-.181.391.007.12-.01.242-.03.361-.005.04-.04.082-.073.108-.096.076-.116.168-.032.245.03-.03.058-.062.092-.089.016-.013.042-.013.064-.02-.002.021.004.047-.006.062-.021.03-.047.067-.078.078-.043.015-.101.023-.139.006-.028-.014-.04-.072-.05-.112-.027-.105.046-.165.11-.23a.164.164 0 0 0 .048-.08c.02-.13.041-.257.024-.392-.01-.076.03-.171.078-.238.07-.1.147-.207.302-.196.14.01.237.141.181.273a.485.485 0 0 1-.111.169c-.027.025-.088.013-.134.017-.003-.05-.016-.102-.008-.151.008-.052.035-.1.058-.162.072.014.045.076.04.117-.008.045-.034.087-.051.13.01.006.021.012.033.017.039-.058.094-.112.112-.177.012-.04-.017-.116-.052-.142-.059-.044-.137-.038-.197.014Zm.517 1.387c-.27.044-.386.186-.422.454l-.023.158c-.07-.142-.004-.389.127-.516a.599.599 0 0 1 .602-.134c-.1.013-.192.023-.284.038Zm1.883-.403c-.072.142-.213.218-.37.241a.822.822 0 0 1-.61-.16c-.017-.011-.037-.017-.055-.025l.029-.03.162.09.011-.011c-.017-.022-.033-.047-.053-.067-.088-.087-.185-.167-.263-.263-.115-.14-.073-.305-.04-.462.023-.116.077-.227.18-.284a.484.484 0 0 1 .387-.054c.214.066.42.152.54.348.129.207.2.44.082.677ZM1.46 13.945c-.183.05-.69.219-.762.263-.003-.007.062-.082.06-.09.088-.032.535-.221.67-.245 0 .005.02.018.04.032a.023.023 0 0 1-.007.04ZM1.562 14.162l-.747.23a.54.54 0 0 0-.006-.02c.1-.08.624-.238.753-.21ZM1.482 14.073a4.08 4.08 0 0 0-.761.25c-.015.006-.036 0-.054-.002.01-.017.014-.042.029-.05.082-.038.165-.078.25-.109.201-.07.404-.135.61-.203.01.072-.008.1-.074.114Z"/><path class="cls-11" d="M2.188 13.495c-.04.002-.08.018-.12.028-.08-.283-.066-.313.157-.347.013.072.027.145.038.217.01.059-.005.097-.075.102Z"/><path class="cls-6" d="M1.441 14.952c-.164.036-.325.01-.485-.022-.127-.026-.253-.059-.38-.09-.084-.023-.112.022-.122.094l-.003.028c-.076.01-.153.061-.212-.011-.061-.077-.05-.246.01-.328a.718.718 0 0 1 .246-.232c.016-.007.042-.012.055-.004a.736.736 0 0 0 .35.1c.06.005.12.014.19.023-.038.068-.053.124-.13.092-.017-.007-.048.02-.072.032.012.02.02.044.037.056.043.029.09.055.137.075.02.008.048-.003.072-.005-.006-.024-.007-.052-.02-.07-.058-.075.028-.092.045-.136.104.031.12.101.053.196a.23.23 0 0 0-.029.07c0 .003.03.022.038.018.025-.014.056-.032.066-.056.018-.039.023-.084.04-.158.064.074.117.131.166.19.034.04-.002.128-.052.138Z"/><path class="cls-11" d="M2.147 14.85c-.176.096-.345.015-.396-.18a1.86 1.86 0 0 1-.064-.522c.002-.086-.012-.174-.014-.26-.003-.118.003-.122.12-.122.094 0 .126.027.15.141.027.117.043.235.073.351.032.126.075.249.112.373.015.05.033.1.041.15.004.022-.007.06-.022.068Z"/><path class="cls-8" d="M4.173 13.397c-.092 0-.18-.007-.266.002-.146.014-.29.04-.435.06-.073.008-.147.018-.22.017-.16-.002-.318-.01-.477-.014-.125-.003-.25 0-.402 0-.008-.085-.03-.182-.022-.275.007-.072.092-.072.146-.076a3 3 0 0 1 .647.011c.061.01.126-.012.189-.013.206-.002.412-.002.617 0 .06 0 .122.007.181.018.017.003.039.034.04.054.005.069.002.138.002.216Z"/><path class="cls-8" d="M6.45 13.549c-.002.21-.066.408-.112.61-.029.124-.15.213-.31.215-.179.003-.358 0-.537.002-.07 0-.072-.036-.065-.087.037-.236.08-.47.108-.707.022-.184.022-.37.035-.555.005-.063.025-.124.027-.186.003-.057-.007-.116-.013-.173a2.51 2.51 0 0 0-.193-.715 9.759 9.759 0 0 0-.305-.643c-.04-.079-.097-.149-.15-.22a.396.396 0 0 1-.072-.236.227.227 0 0 0-.071-.155l-.03.01c.007.066.01.133.022.198.01.066.044.13.042.195-.003.12.099.173.143.26.018.037.044.071.06.109.089.216.182.43.26.65.052.145.07.3.121.444.075.21-.02.403-.04.603-.022.213-.103.416-.095.637.006.175-.02.352-.046.527-.017.114-.136.266-.304.268-.19.002-.382.01-.573.015-.179.005-.357.007-.534.018-.144.009-.287.037-.431.045-.269.016-.539.02-.808.036-.088.005-.174.03-.26.045-.01.002-.021-.002-.026-.003-.028-.135-.07-.264-.08-.395-.017-.218-.127-.418-.11-.642.005-.061.02-.079.082-.084.171-.014.34-.04.51-.06.022-.002.044-.002.065-.002.132 0 .263.002.394 0 .202-.004.405-.004.606-.018.154-.01.307-.039.46-.064.074-.012.126-.102.112-.18-.027-.144-.05-.288-.08-.43-.015-.069-.05-.132-.066-.2a6.308 6.308 0 0 1-.131-.772.427.427 0 0 1 0-.132c.018-.094-.002-.118-.093-.129s-.18-.033-.269-.054c-.063-.015-.123-.044-.187-.052-.152-.017-.272-.111-.373-.2a.833.833 0 0 1-.217-.361c-.05-.152-.058-.319-.071-.48-.008-.097.007-.196.015-.294.002-.016.018-.041.033-.045.175-.051.35-.107.527-.144.144-.03.292-.038.438-.05.116-.01.233-.017.35-.016.156 0 .313.01.47.014.133.003.267-.003.401.002.185.006.37.02.554.03.065.002.13 0 .211 0 .084.262.17.526.253.79.025.08.047.16.063.242.025.12.042.242.065.363l.158.814c.005.026.001.053.003.08.02.27.046.541.062.813.008.149.003.3.002.45Z"/><path class="cls-9" d="M19.125 12.949c-.003-.13-.031-.26-.039-.39-.008-.144.006-.289-.01-.431-.018-.181-.056-.36-.087-.54-.007-.041-.04-.096-.025-.121.021-.033.08-.04.121-.06.037-.019.057-.042.04-.092a.683.683 0 0 1-.035-.198c0-.227.008-.454.008-.681 0-.117-.01-.233-.023-.35-.02-.186-.011-.377-.07-.557-.043-.134-.082-.278-.162-.39-.092-.126-.228-.22-.343-.33-.11-.105-.252-.13-.395-.157a1.706 1.706 0 0 1-.271-.082c-.069-.025-.115-.099-.092-.138a.466.466 0 0 1 .208-.196c.085-.04.17-.082.248-.135.063-.043.113-.105.173-.154.14-.116.238-.263.311-.424a1.33 1.33 0 0 0 .09-.3 1.04 1.04 0 0 0 .01-.244c-.004-.06-.038-.119-.002-.183.012-.02 0-.056-.003-.084-.007-.078-.015-.157-.019-.235 0-.013.016-.029.027-.039a.28.28 0 0 0 .107-.214c.004-.102-.047-.185-.084-.274-.02-.047-.049-.09-.066-.138-.044-.126-.08-.255-.128-.379-.018-.044-.029-.077-.003-.12.062-.1.037-.202-.006-.298-.053-.117-.123-.226-.179-.343-.067-.14-.195-.214-.315-.296-.028-.019-.067-.023-.092-.044a.51.51 0 0 0-.334-.13c-.187.003-.374.017-.56.03-.105.009-.208.025-.311.04-.067.01-.132.026-.199.034a.948.948 0 0 0-.446.156c-.144.102-.16.26-.184.415-.001.008.001.019.007.025.051.059.045.128.044.2-.002.075.02.15.02.227.001.137-.002.275-.01.412-.003.071-.02.141-.027.212-.014.123-.03.245-.037.368-.005.096.037.132.133.127.083-.005.165-.018.248-.022.026-.002.074.01.076.022.012.066.037.145.012.2-.032.069-.024.126-.015.192a.266.266 0 0 1-.011.147c-.035.07-.01.13.026.174.103.12.083.243.026.368a.595.595 0 0 0-.042.377c.012.06.047.115.068.174.031.085.09.143.175.167.111.033.226.054.338.085.026.007.058.025.07.047a.27.27 0 0 1 .02.234c-.027.006-.051.008-.073.016-.111.04-.222.082-.332.124a.712.712 0 0 0-.354.3c-.096.159-.156.339-.227.512-.025.062-.037.13-.057.2-.17-.01-.338-.009-.418.212-.067-.063-.128-.11-.176-.167a.47.47 0 0 0-.27-.178c-.115-.023-.177.036-.153.133.027.108.09.2.184.269.024.017.043.04.065.06l-.013.025c-.037-.008-.079-.01-.11-.027a.654.654 0 0 1-.271-.237c-.042-.074-.094-.126-.186-.14-.149-.02-.254.054-.205.173.036.088.034.168.036.258.004.126.038.251.06.379-.016.002-.034.004-.051.004-.07.005-.132.116-.09.172a.51.51 0 0 0 .151.142.92.92 0 0 0 .765.056c.101-.036.202-.074.304-.107.04-.013.071 0 .08.049a.937.937 0 0 0 .035.144c.025.074.105.11.183.088.024-.007.05-.01.082-.015v.295c0 .06.017.107.086.114.028.004.036.01.031.047-.015.123-.006.251-.032.372-.048.225-.016.45-.02.674l.001.026c.02.152.043.304.058.457.011.118.005.239.018.357.013.116.044.23.061.345.013.08.06.1.133.098.073-.001.146.006.217.01a.326.326 0 0 1-.033.233c-.028.052-.033.09-.084.109a.61.61 0 0 0-.263.191c-.051.063-.11.128-.131.202-.023.08-.01.173-.004.259.004.07.042.127.11.15.05.018.108.02.163.025.199.018.392.01.55-.136.082.102.179.158.316.113a.288.288 0 0 1 .114-.013c.053.005.074-.025.079-.064.013-.105.029-.212.025-.318-.002-.087-.032-.173-.047-.26a.227.227 0 0 0-.152-.184c-.042-.017-.097-.05-.106-.084-.02-.075-.012-.157-.015-.24l.165-.007c.09-.004.124-.04.119-.13-.003-.05-.013-.1-.013-.149 0-.052.013-.103.012-.154-.001-.113-.012-.226-.012-.339 0-.066-.007-.153.03-.193.05-.054.116-.123.216-.099.035.009.075 0 .112-.003.065-.005.092.018.095.082.004.086.011.173.01.259 0 .077-.018.154-.013.23a4.3 4.3 0 0 0 .041.357c.012.084.034.098.123.095l.144-.006c.005.12.014.235.013.35a.228.228 0 0 1-.043.11c-.01.016-.044.013-.066.021-.055.023-.119.037-.16.075-.066.06-.116.135-.172.204l-.024-.02a.245.245 0 0 0-.018.004c.002.072-.003.146.012.215.012.058.034.136.077.162a.62.62 0 0 0 .462.063c.059-.012.11-.059.193-.021a2.106 2.106 0 0 1-.034-.047l.091-.063c.004.019.005.031.01.043.015.044.02.103.052.126.067.05.144.098.232.03a.306.306 0 0 1 .09-.054c.055-.019.06-.06.062-.107l.001-.045c.007-.178.023-.356-.065-.52-.014-.028-.01-.069-.03-.089-.035-.035-.082-.06-.122-.09-.012-.009-.028-.021-.028-.032 0-.105.003-.211.005-.325.094-.004.187-.01.279-.012.1-.001.142-.05.132-.148a2.414 2.414 0 0 1-.012-.29c.003-.124.023-.248.02-.37Zm-3.823-3.201c.008.003.02.026.017.03-.012.012-.027.027-.043.03-.054.011-.11-.029-.136-.11.063.019.113.033.162.05Zm-.669.101c.072.048.126.1.12.197-.035.037-.07.038-.099-.019-.01-.02-.02-.04-.034-.055-.041-.045-.036-.084.013-.123Zm1.084.84c-.116.045-.23.096-.35.127-.197.052-.399.07-.6.021a.072.072 0 0 1-.042-.035c-.057-.114-.042-.09-.168-.12-.005-.067.021-.089.081-.063.093.039.185.081.278.12.02.009.045.01.067.014a.587.587 0 0 0 .013-.02c-.016-.013-.03-.03-.05-.035a.424.424 0 0 1-.236-.14c-.03-.036-.053-.079-.08-.119l.02-.016.311.216c.027-.05-.003-.102-.061-.125-.178-.072-.303-.259-.288-.437.033.03.062.049.08.076.118.16.28.246.47.287.032.007.072-.017.108-.026l.003-.031c-.043-.017-.086-.047-.13-.047-.09-.002-.16-.047-.23-.09-.062-.036-.119-.082-.178-.125.083-.071.077-.167-.01-.259l-.056-.053.01-.015c.015.007.034.01.045.02.123.114.24.232.367.34.038.032.097.042.149.054.064.014.104-.037.116-.083.008-.027-.031-.082-.063-.101a.423.423 0 0 1-.207-.291c.018.018.025.024.03.033.053.083.153.113.232.058.045-.03.061-.013.082.02.015.024.029.049.042.074.028.054.057.106.126.119.015.002.035.02.039.033.02.082.036.164.05.247.02.11.038.222.053.334.002.012-.012.034-.023.039Zm2.54-5.316c-.09.001-.206-.095-.261-.214l.262.214Zm-.835-.975-.42.04c.036-.046.351-.077.42-.04Zm-.25.258c-.114.02-.227.042-.34.063.103-.065.219-.07.333-.081a.197.197 0 0 1 .006.018Zm-.327-.173a.237.237 0 0 1 .007.018l-.265.094c.065-.091.158-.112.258-.112Zm-.135.217.01.02-.313.135c.066-.13.192-.126.303-.155Zm.106.094c-.023.055-.113.09-.213.083l.213-.083Zm-.5-.21-.184.167c-.01-.062.096-.168.184-.166ZM16.492 7c.177.007.35-.034.522-.003-.002.096-.051.116-.12.138-.107.032-.212.013-.317.02-.084.007-.102-.031-.085-.155Zm0-.228c.15-.087.298-.006.446.002.011.118-.085.12-.15.132a.676.676 0 0 1-.24-.003c-.065-.012-.06-.077-.055-.13Zm.517 1.49a10.978 10.978 0 0 0-.322-.128c-.08-.031-.13-.121-.15-.197-.047-.16.03-.294.07-.437a.469.469 0 0 0 .014-.135c-.003-.12.015-.138.137-.15.058-.005.114-.023.172-.03.095-.013.133-.091.135-.161a.807.807 0 0 0-.053-.284c-.01-.03-.078-.051-.122-.057-.114-.015-.229-.02-.343-.026-.038-.002-.052-.016-.051-.051 0-.023-.004-.045-.003-.067.006-.127-.036-.17-.17-.152-.069.01-.138.017-.208.021-.03.002-.06-.01-.078-.014.04-.226.074-.442.118-.656.045-.219-.014-.43-.046-.648.077.015.14.036.201.038a.671.671 0 0 0 .408-.13.54.54 0 0 1 .296-.099c.038 0 .077-.013.115-.017a.557.557 0 0 1 .257.028c.145.054.293.101.438.156.03.012.055.04.08.064.088.09.171.187.266.27.061.055.14.07.226.039.031-.012.07-.008.105-.005a.055.055 0 0 1 .038.026c.028.062.053.126.08.189.014.033.003.047-.03.036-.134-.041-.225.023-.318.11-.086.08-.143.165-.129.288.01.076.036.114.102.114.06 0 .088-.044.1-.098a.246.246 0 0 1 .012-.043c.033-.077.024-.173.11-.228-.059-.007-.092.017-.106.066-.017.062-.03.125-.047.188-.01.037-.029.075-.074.061-.043-.013-.062-.05-.054-.098.023-.121.109-.198.194-.276.054-.05.11-.052.178-.021.152.067.206.193.238.344.02.096.02.18-.045.257-.025.03-.054.058-.082.085-.058.058-.115.113-.105.208.004.041-.011.085-.02.127-.007.03-.012.081-.027.085a.247.247 0 0 1-.132-.006c-.015-.005-.02-.06-.016-.09.009-.07-.014-.1-.073-.083a.05.05 0 0 0-.03.027c-.02.05.044.209.088.234.12.07.258-.017.256-.178 0-.059-.008-.118.06-.166.005.128.015.248.014.368a1.802 1.802 0 0 1-.03.348.707.707 0 0 1-.107.235 2.083 2.083 0 0 1-.242.319c-.123.126-.265.234-.45.262-.047.007-.093.02-.138.033-.045.011-.106.112-.097.185.016.121.037.243.069.362.025.094.01.16-.058.232-.078.083-.17.089-.27.072-.012-.002-.023-.001-.034 0-.157 0-.2-.046-.192-.205.006-.093.017-.185.027-.278a.283.283 0 0 0-.152-.262Zm-.002.608c.012-.045.046-.084.076-.136.011.06.024.105.027.152.005.085.027.134.125.164.1.03.197.05.298.039.093-.01.18-.043.214-.146l.073-.229c.061.04.1.136.079.22-.025.096-.05.194-.142.247a.397.397 0 0 1-.157.05c-.138.012-.276.022-.411-.037-.084-.037-.205-.245-.182-.324Zm-.824 1.973c-.059.005-.119.007-.178.01-.056.003-.064-.03-.073-.077a2.574 2.574 0 0 0-.088-.35.742.742 0 0 1-.048-.22c0-.04-.022-.078-.034-.116-.022-.074-.01-.094.066-.118.055-.018.108-.038.163-.058.078-.005.142.02.177.083.022.041.024.095.029.143.006.062.006.124.009.186.005.128.012.256.015.384a.447.447 0 0 1-.01.104c-.002.011-.017.028-.028.029Zm.064.498c-.015-.001-.037-.03-.038-.048-.003-.089 0-.179 0-.273l.082-.021c.064-.016.122-.038.153-.107.009-.02.059-.038.085-.033.19.036.371-.02.553-.046.177-.026.353-.066.526-.111.137-.036.272-.08.402-.136.106-.044.14-.154.151-.254.012-.094-.008-.192-.023-.287-.004-.027-.038-.05-.051-.078-.075-.164-.217-.216-.38-.26-.165-.043-.317-.003-.473.022-.086.014-.172.027-.257.042-.087.015-.174.034-.261.051l-.254.05c-.05.011-.104.018-.15.039-.038.017-.046-.003-.059-.026-.008-.012-.012-.034-.023-.038-.082-.028-.06-.078-.04-.139.036-.12.058-.247.093-.368a.748.748 0 0 1 .213-.327c.133-.125.286-.23.465-.284.01-.003.02-.003.038-.005-.005.016-.004.03-.01.038-.047.064-.053.142-.063.216-.004.028.02.06.032.091a.822.822 0 0 0 .332.393c.094.06.204.046.306.024.155-.034.264-.138.347-.267a.258.258 0 0 0 .035-.134c0-.114-.008-.228-.013-.344a.786.786 0 0 1 .354.19c.038.038.092.06.136.095.143.113.251.25.31.427.048.142.101.28.099.433 0 .052.013.104.018.156.011.103-.016.2-.03.302-.016.106.006.218.012.328.006.086.01.172.02.257.008.075.012.152.035.224.025.08.004.118-.082.117-.173-.003-.346-.007-.518-.006-.115 0-.23.006-.345.015a.785.785 0 0 0-.177.036.508.508 0 0 1-.288.027c-.106-.025-.213.003-.32.027-.096.021-.197.023-.296.023-.124.001-.249-.006-.373-.012a3.936 3.936 0 0 1-.273-.018Zm.06-1.322c.003-.021.039-.046.064-.055.04-.013.085-.016.128-.02.12-.01.24-.016.36-.03.15-.02.298-.052.449-.067.1-.01.204-.005.306.002.075.005.15.023.223.038.047.01.086.025.107.08.018.046.057.083.085.126a.07.07 0 0 1 .01.03c.001.02 0 .04.002.059.014.16-.004.18-.158.256a1.846 1.846 0 0 1-.266.112c-.067.021-.141.022-.213.03-.147.016-.295.026-.442.047a2.423 2.423 0 0 0-.35.07c-.062.02-.118.055-.176.043-.046-.167-.097-.323-.13-.483-.017-.076-.006-.159.002-.238Zm.837 4.182c.051.008.083.028.096.083.024.103.066.202.087.305.012.06 0 .125-.002.197l-.238.01c-.022-.036-.035-.086-.064-.099a.1.1 0 0 0-.124.03c-.025.031-.063.052-.086.084-.047.061-.103.054-.17.044-.082-.01-.166-.007-.25-.007-.055 0-.11.008-.164.007-.014 0-.036-.02-.039-.034a.41.41 0 0 1 .044-.264c.013-.026.031-.05.041-.077.037-.098.135-.114.211-.16.088-.054.154-.069.252.005a.355.355 0 0 0 .33.03c.064-.024.073-.088.076-.154Zm-.285-.359c.01.001.021.006.032.006.095-.008.124.016.134.112l.002.052c.019.163-.11.167-.217.143-.097-.02-.089-.099-.099-.159-.027-.152-.005-.17.148-.154Zm1.87.499.133.445-.253.022c-.008-.018-.015-.041-.028-.062-.024-.042-.066-.06-.101-.025-.11.108-.233.116-.376.084a.636.636 0 0 0-.225.005c-.068.01-.088.003-.092-.067-.004-.063.001-.124.048-.174.055-.059.105-.124.164-.178.03-.027.076-.036.116-.05.009-.003.027.004.034.012.132.179.315.155.497.119.022-.005.04-.04.053-.063.01-.02.012-.046.03-.068Zm-.158-.271c-.016.08-.064.13-.109.186-.004.005-.014.007-.022.007a.172.172 0 0 1-.167-.164c-.005-.062-.024-.122-.03-.184a.356.356 0 0 1 .01-.109c.002-.012.022-.03.034-.03.087 0 .174.004.268.007-.007.098.034.187.016.287Zm.406-.611c0 .035-.005.07-.005.105 0 .052-.026.073-.075.08-.086.01-.171.031-.257.034-.15.004-.299-.003-.448-.004-.064 0-.129.005-.195.008a2.261 2.261 0 0 1 .004-.408c.02-.165 0-.335-.006-.502-.001-.037-.01-.073-.018-.109-.02-.084-.13-.156-.222-.15-.07.004-.141.006-.213.009-.127.005-.21.083-.226.207-.01.077-.025.154-.027.23-.002.07.014.14.02.209.01.131.021.263.03.395.004.08-.006.082-.082.086-.058.003-.115.02-.17.036-.059.015-.114.05-.172.054-.12.007-.243.007-.363-.004-.095-.008-.09-.017-.1-.115-.007-.079-.026-.157-.039-.236-.022-.143-.062-.281-.045-.43.01-.078-.016-.16-.022-.24a4.669 4.669 0 0 1-.01-.227c-.002-.053-.005-.105 0-.158.012-.146.036-.29.04-.437.005-.107-.016-.215-.02-.323-.001-.019.026-.055.041-.055.1-.002.2.003.3.006h.1c.15.003.3.006.452.007.07 0 .141-.01.212-.008.168.004.335.013.503.016.047 0 .095-.01.142-.018.146-.023.29-.052.437-.068.079-.009.159.005.242.008.005.1.006.187.013.276.016.211.029.424.056.634.013.101.065.197.083.298.02.118.023.239.03.358.008.105.01.21.013.314.001.04-.001.081-.003.122Z"/><path class="cls-4" d="M14.754 10.046c-.036.037-.07.038-.1-.019-.01-.02-.02-.04-.033-.055-.042-.045-.037-.084.012-.123.072.048.127.1.12.197ZM15.32 9.777c-.013.013-.028.028-.044.031-.054.011-.11-.029-.135-.11.062.019.112.033.16.05.01.003.02.026.018.03Z"/><path class="cls-1" d="M15.74 10.65c.002.013-.012.035-.023.04-.116.044-.23.095-.35.126-.197.052-.399.07-.6.021a.072.072 0 0 1-.042-.035c-.057-.114-.042-.09-.168-.12-.005-.067.021-.089.081-.063.093.039.185.081.278.12.021.009.045.01.067.014a.587.587 0 0 0 .013-.02c-.016-.013-.03-.03-.049-.035a.424.424 0 0 1-.237-.14c-.03-.036-.053-.079-.079-.119l.019-.016.312.216c.026-.05-.004-.102-.062-.125-.177-.072-.303-.259-.288-.437.033.03.062.049.081.076.117.16.28.246.468.287.033.007.073-.017.109-.026l.003-.031c-.043-.017-.086-.047-.13-.047-.09-.002-.16-.047-.23-.09-.062-.036-.118-.082-.178-.125.083-.071.078-.167-.01-.259l-.056-.053.01-.015c.015.007.034.01.045.02.123.114.24.232.368.34.037.032.097.042.148.054.064.014.104-.037.116-.083.008-.027-.03-.082-.063-.101a.423.423 0 0 1-.207-.291c.018.018.026.024.03.033.053.083.153.113.232.058.045-.03.062-.013.082.02.015.024.029.049.042.074.028.054.057.106.126.119.015.002.036.02.039.033.02.082.036.164.051.247.02.11.037.222.052.334Z"/><path class="cls-6" d="m18.862 14.784-.252.023c-.009-.018-.016-.041-.028-.062-.025-.042-.067-.06-.102-.025-.11.108-.233.116-.375.084a.636.636 0 0 0-.226.005c-.068.01-.087.003-.092-.067-.003-.063.002-.124.048-.174.055-.059.105-.124.164-.178.03-.027.076-.036.116-.05.009-.003.028.004.034.012.133.179.315.155.498.119.02-.005.04-.04.052-.063.01-.02.012-.046.03-.068l.133.444Z"/><path class="cls-1" d="M18.57 14.069c-.014.08-.063.13-.108.186-.004.005-.014.007-.021.007a.172.172 0 0 1-.168-.164c-.005-.062-.023-.122-.03-.184a.356.356 0 0 1 .01-.109c.002-.012.022-.03.034-.03.087 0 .174.004.269.007-.008.098.034.187.015.287ZM16.81 14.154c-.097-.02-.088-.099-.099-.159-.026-.152-.004-.17.148-.154.01.001.022.006.032.006.095-.008.125.016.134.112l.002.052c.019.163-.11.167-.217.143Z"/><path class="cls-6" d="m17.325 14.785-.238.01c-.021-.036-.034-.086-.064-.099a.1.1 0 0 0-.124.03c-.025.031-.062.052-.086.084-.047.061-.103.054-.17.044-.082-.01-.166-.007-.25-.007-.055 0-.11.008-.164.007-.014 0-.036-.02-.039-.034a.41.41 0 0 1 .045-.264c.012-.026.03-.05.04-.076.037-.1.135-.115.211-.161.088-.054.154-.068.252.005a.355.355 0 0 0 .33.03c.065-.023.073-.088.076-.154.051.008.084.028.096.083.025.103.066.202.087.305.013.06 0 .125-.002.197Z"/><path class="cls-8" d="M18.98 13.336c.001.04-.001.081-.002.122-.002.035-.006.07-.005.106 0 .051-.027.072-.075.078-.086.01-.172.032-.258.035-.15.004-.298-.003-.448-.003-.064 0-.129.005-.194.007a2.261 2.261 0 0 1 .003-.408c.02-.165 0-.335-.006-.502-.001-.037-.01-.073-.018-.109-.02-.084-.13-.156-.222-.15-.07.004-.141.006-.212.009-.127.005-.211.083-.226.207-.01.077-.026.154-.028.23-.002.07.014.14.02.209.01.131.021.263.03.395.005.08-.005.082-.082.086-.057.003-.114.02-.17.036-.059.015-.114.05-.172.054-.12.007-.242.007-.362-.004-.096-.008-.091-.017-.1-.115-.008-.079-.027-.157-.04-.236-.022-.143-.062-.281-.045-.43.01-.078-.016-.16-.022-.24a4.669 4.669 0 0 1-.01-.227c-.002-.053-.004-.105 0-.158.013-.146.036-.29.041-.437.004-.107-.017-.215-.021-.323-.001-.019.026-.055.041-.055.1-.002.2.003.301.006h.099c.15.003.301.006.452.007.07 0 .141-.01.212-.008.168.004.336.013.503.016.047 0 .095-.01.142-.018.146-.023.291-.052.437-.068.079-.008.16.005.242.009.005.098.006.186.013.275.017.211.029.424.056.634.013.101.065.197.083.298.02.118.024.239.031.358.007.105.01.21.012.314Z"/><path class="cls-9" d="M4.681 9.102c-.047-.148-.096-.287-.136-.43a1.021 1.021 0 0 0-.223-.391c-.074-.086-.147-.175-.23-.252a.777.777 0 0 0-.204-.127c-.123-.056-.25-.1-.376-.148a.276.276 0 0 0-.084-.015c-.055-.002-.11 0-.165 0 0-.008-.002-.016-.003-.023.05-.009.101-.023.152-.025.101-.004.205-.014.304.003.084.015.165.058.243.098.093.048.188.098.271.162.06.046.114.109.148.175.05.096.079.202.118.304.053.135.111.269.16.406.024.07.032.145.045.218.002.012-.011.026-.02.045ZM2.933 8.02c.045.065.093.128.132.197.068.116.17.19.29.241.169.073.337.15.511.212.08.027.17.02.256.03.026.003.052.008.077.012l.002.023c-.025.007-.05.017-.075.021a.963.963 0 0 1-.814-.224c-.142-.124-.285-.25-.376-.421-.014-.027-.018-.06-.027-.09l.024-.001ZM3.717 5.682c-.079.048-.155.1-.237.143-.082.042-.108.12-.137.194a2.332 2.332 0 0 0-.102.336c-.01.046.006.101.02.15.052.195.165.359.286.515.043.056.112.09.166.137.062.054.12.11.18.167.007.007.005.023.013.06-.096-.072-.178-.125-.251-.19a1.792 1.792 0 0 1-.42-.6c-.103-.217-.009-.385.049-.572.053-.172.188-.255.34-.32l.083-.04.01.02ZM3.087 9.572l-.47-.553c.1.036.229-.006.293.123.063.125.144.241.213.363.008.014-.004.04-.007.06l-.03.007ZM3.035 6.313v.407c0 .013 0 .028-.007.038-.042.064-.03.119.02.171.008.008.008.023.012.035-.098-.017-.166-.19-.17-.426 0-.088.071-.207.145-.225ZM3.39 5.498a.39.39 0 0 1 .296-.21c.063-.01.129-.002.193-.002l.006.036c-.058.025-.115.054-.176.075-.104.036-.21.067-.318.1Z"/><path class="cls-9" d="M3.42 8.127c.145-.032.269-.034.384.038.016.01.03.046.024.065-.004.016-.04.039-.056.035-.1-.022-.2-.049-.299-.078-.016-.005-.026-.029-.053-.06ZM8.658 1.448c-.12-.196-.327-.282-.541-.348a.484.484 0 0 0-.386.054c-.104.057-.158.168-.182.284-.032.157-.074.322.041.462.078.096.175.175.263.263.02.02.036.045.053.067l-.01.01-.163-.088-.029.03c.018.008.038.013.055.024.183.13.386.193.61.16.157-.023.298-.099.37-.24.119-.237.047-.47-.081-.678Zm-.833-.198c.122.03.25.053.348.155-.2-.003-.323.088-.37.283-.017-.057-.042-.112-.053-.17a.84.84 0 0 1-.016-.18c.002-.054.041-.1.09-.088Zm.361.22c.103 0 .188.108.188.237 0 .121-.115.261-.212.258-.15-.005-.288-.114-.285-.226.004-.17.117-.27.31-.269Zm-.02.809c-.077-.031-.159-.05-.216-.128-.047-.065-.122-.11-.188-.16-.187-.14-.21-.323-.143-.53l.046-.14c.031.147.054.267.083.386.02.082.072.14.142.189.055.038.094.1.15.134.12.07.247.13.371.193.018.009.036.015.063.026a.326.326 0 0 1-.308.03Zm.303-.097c-.095-.04-.188-.086-.282-.13.146-.024.177-.154.257-.258.027.068.053.127.073.189.014.041.016.086.026.13.014.063-.013.093-.074.069Zm.151-.243c-.09-.156-.178-.319-.276-.475-.109-.172-.31-.194-.491-.274.118-.022.22-.047.32.005.145.076.28.165.373.3.11.16.135.359.074.444ZM6.65 1.308a.485.485 0 0 1-.112.169c-.028.025-.088.013-.134.018-.003-.051-.016-.103-.008-.152.007-.052.035-.1.058-.162.072.014.045.076.039.118-.007.044-.033.086-.05.13l.033.017c.039-.059.094-.113.112-.178.012-.04-.017-.115-.053-.142-.058-.044-.136-.037-.196.015-.119.102-.192.222-.181.391.007.12-.011.242-.03.361-.005.04-.04.082-.073.108-.097.076-.117.169-.033.246.03-.03.06-.063.092-.09.017-.012.043-.013.065-.02-.002.021.004.047-.007.062-.02.03-.046.067-.077.078-.043.015-.101.023-.139.006-.028-.014-.04-.072-.05-.112-.027-.105.046-.165.11-.23a.164.164 0 0 0 .047-.08c.022-.13.042-.257.025-.391-.01-.077.03-.172.077-.239.072-.1.148-.207.303-.196.14.01.237.141.181.273ZM7.14 2.49c-.1.013-.192.023-.284.038-.27.044-.386.186-.422.454l-.023.158c-.07-.142-.004-.389.126-.516a.599.599 0 0 1 .603-.134ZM10.493 8.03c-.044-.03-.103-.047-.127-.087-.035-.059-.012-.123.048-.165.03-.02.061-.04.094-.056.075-.036.133-.013.175.066a.129.129 0 0 1-.052.175c-.04.022-.082.04-.138.067Zm-.044-.209c.055.095.11.13.154.1.04-.028.051-.069.028-.109-.034-.058-.092-.053-.182.01ZM5.46 9.149c-.126.003-.216-.134-.163-.246l.03-.055c.052-.091.096-.106.199-.066.066.026.093.088.076.172-.003.018-.002.037-.002.055 0 .1-.038.138-.14.14Zm.083-.22c-.038-.017-.058-.034-.079-.035-.051-.004-.09.025-.085.076.002.024.039.044.06.066l.104-.106ZM5.402 8.187c.08 0 .18.096.182.174.002.09-.092.193-.175.193-.078 0-.146-.084-.146-.182 0-.11.056-.185.139-.185Zm-.06.107.061.133c.023-.018.066-.039.064-.053-.007-.05-.02-.108-.125-.08ZM5.502 9.678c-.128 0-.19-.048-.19-.145 0-.125.07-.21.17-.208.068.002.166.127.166.21 0 .093-.052.143-.146.143Zm.08-.162c-.045-.03-.08-.065-.094-.058a.158.158 0 0 0-.075.082c-.006.017.039.049.06.074l.109-.098ZM5.085 5.446c.056-.001.147.08.146.131a.187.187 0 0 1-.172.188c-.078.004-.132-.05-.132-.132-.001-.075.094-.186.158-.187Zm-.037.098-.033.14c.023-.001.054.008.067-.004.04-.038.059-.083-.034-.136ZM17.145 6.19l-.305-.025a.543.543 0 0 1-.4-.244l-.063-.081c-.044-.055-.074-.108-.044-.185.03-.074.029-.16.065-.229a.453.453 0 0 1 .15-.146.731.731 0 0 1 .203-.094c.087-.025.178-.037.268-.047.062-.006.126.007.19.003.303-.019.514.13.67.372.067.102.018.207-.022.302a.585.585 0 0 1-.268.276c-.082.045-.184.058-.278.078-.054.011-.11.006-.165.009l-.001.01Zm-.752-.617c.11-.102.235-.168.374-.219.203-.074.408-.077.616-.047.12.017.207.1.305.16.047.03.096.053.158.087-.006-.033-.006-.042-.01-.05a.67.67 0 0 0-.463-.328.795.795 0 0 0-.18-.016c-.129.006-.259.01-.384.035-.084.017-.163.066-.242.105a.298.298 0 0 0-.174.273Zm.758.34c.094 0 .175-.012.228-.074.085-.098.09-.266.023-.38-.009-.014-.033-.03-.049-.03a5.112 5.112 0 0 0-.367.032c-.05.007-.113.022-.139.057-.024.032-.01.096-.006.144.004.038.011.083.034.109.076.085.154.174.276.142Zm.525.074-.01-.015-.053.028c-.094.056-.194.041-.297.042-.25.003-.478-.073-.706-.158l-.206-.076c.086.157.191.278.358.308.144.026.293.03.44.032.127 0 .25-.036.366-.093.038-.019.072-.045.108-.068Zm-.28-.002c.035.002.065.011.09.005a.34.34 0 0 0 .229-.197c.018-.036.037-.072.048-.11.006-.02.002-.053-.01-.064a2.51 2.51 0 0 0-.197-.142c-.02-.013-.047-.012-.085-.02.095.198.026.36-.075.528Zm-.603-.47c-.14.067-.29.076-.392.205l.47.142c-.058-.11-.112-.21-.078-.347ZM18.461 6.28l-.004-.109.01-.01c.018.023.04.045.05.071.003.006-.03.028-.056.049ZM17.81 9.527c.02-.01.04-.026.062-.026.059-.002.119-.004.176.006.15.026.277.105.368.223.041.053.048.135.065.205.038.167-.024.314-.093.46-.027.056-.044.118-.08.168-.045.065-.104.121-.16.18-.005.006-.027-.003-.04-.004.002-.017 0-.037.008-.05.047-.072.1-.14.143-.214.02-.033.024-.076.033-.116.024-.11.061-.221.068-.333.007-.112-.006-.224-.116-.304-.098-.072-.189-.148-.315-.16l-.109-.014-.01-.02Z"/><path class="cls-9" d="m8.105 1.723.068.007c.015.104-.001.123-.101.107-.019-.003-.05-.031-.048-.045.007-.06.024-.119.04-.186l.069.033c-.011.024-.022.044-.03.065-.002.004 0 .01.002.019ZM16.986 5.67c-.004-.09.063-.166.133-.135.06.028.118.06.184.077.006.002.014.02.013.027-.012.058-.01.13-.044.17-.036.043-.104.043-.164.007-.105-.064-.119-.075-.122-.147Z"/></g><g id="_2s58GD"><path class="cls-9" d="M14.675 13.395a.486.486 0 0 0-.306.199c-.035.045-.064.097-.104.137-.059.056-.124.106-.189.155a.687.687 0 0 1-.108.067c-.034.017-.054.005-.051-.03l.012-.188c.058-.02.1-.063.133-.113.043-.064.089-.126.082-.21-.008-.11-.012-.22-.017-.33-.002-.05.026-.066.071-.041l.019.01c-.002-.025-.011-.055-.002-.063.044-.036.02-.089.037-.13.002-.007-.01-.018-.015-.027-.008.006-.021.011-.022.019-.005.019-.002.039-.005.058-.001.013-.004.03-.013.037-.045.032-.094.007-.114-.043-.036-.091-.003-.171.034-.249a.587.587 0 0 0 .072-.255.65.65 0 0 0-.046-.243.317.317 0 0 1-.025-.131v-.076a.2.2 0 0 1 .057-.149c.024-.025.046-.053.07-.08a.661.661 0 0 1 .273-.19.238.238 0 0 1 .086-.011c.042 0 .052.02.033.056-.007.013-.023.023-.025.037a.112.112 0 0 0 .007.054c.002.007.02.013.027.01a.048.048 0 0 0 .026-.023c.009-.02.012-.042.02-.063.024-.057-.004-.096-.064-.109-.118-.025-.21.038-.297.095-.082.052-.147.13-.213.19-.011-.056-.024-.13-.043-.203-.011-.045-.011-.083.03-.114a.073.073 0 0 0 .023-.038c.009-.032.02-.065.02-.096a1.98 1.98 0 0 0-.016-.223c-.008-.056-.027-.11-.042-.168l.075-.018.033.06c.004-.003.01-.005.015-.007-.003-.016-.008-.031-.01-.047-.002-.01 0-.022 0-.034-.001-.046 0-.092-.003-.139 0-.01-.018-.017-.027-.026-.007.01-.018.018-.02.029-.003.013.002.027 0 .04-.003.016-.01.03-.017.046-.012-.011-.03-.02-.036-.033a.205.205 0 0 1-.013-.065l-.028-.393a.34.34 0 0 0-.103-.209.103.103 0 0 0-.037-.027c-.025-.008-.035-.024-.036-.047a.948.948 0 0 1 0-.099c0-.01.01-.022.018-.029.05-.042.106-.08.153-.127.061-.06.116-.127.173-.192a.178.178 0 0 0 .028-.047c.022-.054.034-.061.092-.047.056.014.07.041.049.097-.008-.001-.015-.004-.023-.003-.01 0-.019.003-.029.005.003.01.003.022.01.027.013.01.039.027.045.022a.1.1 0 0 0 .038-.055.114.114 0 0 0-.09-.134c-.06-.015-.071-.008-.102.038-.043.064-.084.132-.137.187-.071.075-.154.14-.236.213-.014-.046-.02-.086-.038-.118-.017-.031-.009-.044.016-.06.083-.054.11-.145.13-.23.02-.075-.012-.147-.06-.208-.02-.026-.037-.053-.062-.091.03 0 .05-.004.067 0 .02.007.037.021.055.032.023-.027.005-.036-.013-.046-.048-.026-.05-.058-.01-.095.01-.01.013-.028.022-.049-.075.012-.073.013-.084.075-.004.02-.016.051-.063.032.011-.035.017-.075.036-.104a.27.27 0 0 0 .058-.167c-.002-.088-.041-.107-.098-.123-.032-.01-.044-.025-.046-.052-.003-.036 0-.072 0-.113.018.004.033.003.044.01.047.028.093.057.138.088.033.022.063.048.095.073.02.014.047.023.058.042.022.042.035.089.055.132.009.02.02.046.037.051.028.009.06.006.079-.027a.249.249 0 0 0 .032-.128c-.06-.008-.055.032-.06.069-.001.015-.017.03-.027.044-.01-.015-.022-.03-.03-.046-.028-.056-.043-.122-.083-.168a.436.436 0 0 0-.197-.146c-.041-.012-.082-.02-.123-.033-.013-.005-.024-.017-.033-.023.033-.033.059-.058.083-.084.077-.084.096-.187.1-.296a1.074 1.074 0 0 0-.051-.337c-.027-.092-.04-.19-.09-.275-.01-.019-.004-.046-.006-.07l.056.008c-.022-.063.011-.09.057-.112.011-.005.02-.022.025-.035.007-.02.003-.047.015-.062.02-.024.038-.044.02-.076-.014-.024-.022-.052-.04-.07a.31.31 0 0 0-.256-.084c-.03.002-.06.018-.089.016-.13-.01-.239.045-.348.102-.036.018-.047.068-.024.098.014.018.014.03 0 .05-.03.04-.026.05.016.08.008.005.015.013.023.02a5.473 5.473 0 0 1-.033.036c.019.036.029.002.043-.002a.128.128 0 0 1 .06-.002c.005.001.01.033.004.045-.023.044-.052.085-.077.13a.593.593 0 0 0-.063.223c-.007.053-.023.106-.024.159-.006.152.015.304.052.452.012.048.017.113.092.12.006 0 .013.02.013.032 0 .008-.012.022-.019.022-.069.002-.089.056-.114.105-.026.048-.044.099-.098.13-.042.023-.071.068-.108.102a.276.276 0 0 1-.07.05c-.01.005-.037-.008-.042-.02-.015-.032.004-.06.038-.071.008-.003.014-.011.022-.018-.009-.007-.014-.013-.02-.014-.035-.009-.055.009-.07.066-.009.029-.017.059.018.079.032.019.061.014.088-.009.067-.057.135-.114.2-.174.018-.016.031-.04.044-.06.017-.032.03-.065.049-.097.018-.03.043-.05.082-.04l-.002.015c.014.054.026.108-.026.152l-.002.003c0 .059-.013.121.002.176.024.087.036.121.152.102.035-.006.075.012.119.02-.042.08-.092.06-.14.025-.005.015-.007.025-.013.033-.015.021-.034.039-.048.06-.016.024-.008.036.025.04.001-.006 0-.016.003-.02.015-.015.03-.04.047-.041.03 0 .034.033.027.054-.018.053-.034.107-.062.154a.206.206 0 0 0-.023.192.567.567 0 0 0 .101.146c.017.02.049.035.076.039.031.005.036.02.034.044-.002.019-.008.038-.013.061-.046-.008-.097-.009-.14-.028a.452.452 0 0 0-.277-.042c-.053.01-.1.023-.124.08-.012.03-.012.053.016.072.041.026.072.024.097-.014.009-.013-.003-.04-.005-.062l-.047.016-.005-.011c.012-.007.024-.018.038-.021a.349.349 0 0 1 .245.02c.053.027.108.025.162.04.017.005.037.027.043.045.01.031.01.066.012.1 0 .011-.002.024-.004.036-.005.036-.016.071-.015.106.001.057.017.113.017.169 0 .083-.01.166-.016.249-.005.05-.012.1-.019.148a.068.068 0 0 1-.013.029c-.019.021-.024.043-.011.068-.017.01-.036.026-.05.023-.031-.005-.068-.015-.088-.036-.027-.03-.046-.07 0-.114-.023-.003-.044-.006-.054.003-.02.019-.017.09 0 .103l.083.063c-.026.052-.064.098-.031.156.007-.014.004-.03.007-.044a.2.2 0 0 1 .016-.046c.018-.04.054-.062.077-.042.021.019.044.046.048.072.01.078.009.158.02.236.012.09.03.177.13.216.01.003.019.02.02.031v.206c0 .024-.01.034-.033.032l-.1-.009c-.016-.001-.033-.001-.048-.007-.069-.026-.137-.057-.207-.08a.268.268 0 0 0-.105-.01c-.06.006-.119.022-.179.03-.068.008-.123.044-.18.076-.006.005-.01.015-.015.023-.023.033.016.054.017.082 0 .045.026.062.068.064.02 0 .039.009.058.013l-.012.014c.01.014.018.028.026.042.01-.007.024-.013.027-.022.017-.065 0-.091-.065-.107l-.032-.008c-.028-.009-.035-.033-.025-.06.012-.033.042-.042.07-.048.072-.018.147-.034.221-.042a.29.29 0 0 1 .183.026c.05.029.102.055.163.058a.12.12 0 0 1 .054.018c.028.017.053.039.082.056.055.035.066.14.02.185a.206.206 0 0 0-.047.061.675.675 0 0 0-.05.258c0 .058.003.117.008.175.006.072.019.143.024.214.003.049.01.1-.023.143-.062-.026-.07-.042-.062-.101.003-.017-.004-.034-.006-.051h-.015c-.017.037-.044.074-.019.118.014.025.005.038-.016.05-.02.013-.045.028-.032.055.015.03.042.014.065.006l.014.005c0 .015.004.032 0 .049-.014.055-.033.11-.044.166-.015.073-.043.144-.021.22.017.059.034.118.048.178.014.055.031.104.087.132.012.006.017.032.019.049 0 .004-.025.017-.039.016-.042-.002-.086-.003-.127-.015-.106-.032-.208-.075-.319-.093-.085-.013-.169-.034-.255-.025a.334.334 0 0 0-.103.036c-.033.017-.031.045-.018.077.02.051.063.07.104.083l.018.069c.023-.029.045-.045.05-.065.004-.02-.005-.047-.018-.062-.009-.01-.037 0-.054-.005s-.047-.02-.047-.028c.002-.027.024-.042.053-.039.041.005.082.017.123.016.109-.002.214.014.319.042.087.022.17.051.236.113.023.02.042.053.047.082.006.04-.006.083-.005.124.001.046-.009.085-.043.117a.283.283 0 0 0-.05.065.714.714 0 0 0-.11.41c.007.094-.027.178-.045.269-.028 0-.055.002-.081 0-.022-.003-.043-.012-.065-.018.01-.02.02-.04.028-.06l.002-.01c-.004-.004-.01-.012-.015-.011-.023.002-.053.048-.052.077.002.035.02.054.055.056.036 0 .073-.002.11 0 .031.003.047-.008.055-.04.024-.087.048-.172.042-.264a.7.7 0 0 1 .11-.397c.018-.03.043-.057.065-.086l.013.003c.004.018.01.036.013.054.012.058.074.095.113.065l.152-.12.038.067c.038 0 .039.003.052.044.05.15.056.304.058.459v.139c0 .04.017.057.058.058.028.002.056 0 .084 0 .08 0 .101-.02.102-.098.001-.052-.025-.08-.077-.077-.013 0-.026.009-.04.014.013.006.026.011.037.019.016.01.042.022.045.036.008.045-.018.07-.065.073h-.063c-.035.002-.048-.011-.048-.048.002-.166.005-.332-.033-.494-.015-.067-.025-.136-.082-.185-.042-.036-.08-.074-.052-.138v-.008c0-.048.023-.077.065-.1.143-.074.278-.16.368-.3a.579.579 0 0 1 .269-.24c.027-.01.055-.017.085-.025l.009.086h.013l.008-.056c.005-.044-.009-.056-.05-.05Zm-.6-1.3c0 .055-.009.11-.017.165-.006.037-.051.084-.068.072-.029-.022-.07-.054-.07-.083-.003-.107.01-.214.012-.32.001-.115-.004-.23-.007-.344-.001-.06-.005-.12-.009-.179l-.007-.078c.03-.017.053-.005.062.021.02.062.04.125.054.189.014.07.02.142.03.212.003.03.011.06.012.09.005.085.01.17.008.255Zm-.225-2.004c-.003.033.005.065.007.097 0 .005-.002.01-.006.02a1.117 1.117 0 0 1-.12-.506c.03.047.067.083.08.125a.736.736 0 0 1 .039.265Zm-.167-.46c-.035.003-.044-.023-.041-.042.003-.02.015-.045.05-.044.034.002.031.023.03.048.006.03-.01.037-.04.039Zm.01.396.05.13c-.05-.012-.064-.026-.05-.13Zm-.429-2.857c.088-.042.176-.086.273-.097.05-.006.102 0 .153.008.043.006.085.019.127.032.05.017.092.078.086.13-.01-.006-.022-.009-.028-.016a.209.209 0 0 0-.144-.072.59.59 0 0 0-.251.006.601.601 0 0 0-.169.081c-.022.015-.064.008-.072-.012-.013-.028-.003-.047.025-.06Zm.007.195c-.014-.007-.03-.024-.033-.038-.001-.01.018-.025.032-.033.044-.027.089-.055.136-.077.036-.016.076-.023.102-.03.098.014.188.004.266.053.024.015.052.028.067.05.012.016.011.045.006.067-.004.022-.022.03-.048.02-.015-.008-.04-.009-.054 0-.05.032-.105.022-.158.022-.08 0-.159-.004-.238-.01a.218.218 0 0 1-.078-.024Zm.057 1.155c-.01.007-.042.004-.047-.004a.434.434 0 0 1-.038-.099 1.08 1.08 0 0 1-.029-.141c-.017-.134-.038-.269-.003-.404.012-.042.003-.09.018-.13.026-.068.064-.13.097-.195.012-.026.022-.055.035-.08.006-.011.02-.024.03-.024.05 0 .1.005.15.006.06.002.119.002.178 0 .015 0 .029-.007.044-.012 0 .006.004.014.001.02-.04.093.024.16.06.235a.543.543 0 0 1 .048.185c.01.143.008.287.01.43.001.053-.071.148-.121.162-.012.003-.023.008-.035.013-.02-.015-.038-.03-.023-.062.007-.014 0-.033.003-.05l.017-.095c.008-.042.01-.085.024-.124.023-.063-.019-.112-.029-.167-.02.01-.023.022-.02.05a.836.836 0 0 1 .006.13c0 .018-.016.036-.028.06-.016-.03-.024-.051-.04-.068-.008-.01-.033-.022-.04-.017-.013.009-.022.029-.027.045-.004.013 0 .03-.01.046-.009-.014-.019-.027-.027-.041-.024-.041-.048-.043-.071-.001-.012.02-.015.043-.023.065-.044-.01-.09-.059-.085-.106.008-.084.018-.168.038-.249.013-.053.043-.102.065-.153a.047.047 0 0 0 .004-.031.527.527 0 0 0-.124.241c-.012.058-.023.117-.024.176a.225.225 0 0 0 .076.187c.006.005.014.013.013.019-.004.07-.013.138-.074.183Zm.188.263c-.043.012-.081-.004-.098-.051a.245.245 0 0 1 .016-.197c.005-.01.024-.024.028-.022.018.012.046.028.048.045.006.057.002.117.002.175 0 .016.003.033.004.05Zm-.049-.35c-.02-.017-.034-.053-.012-.078a.159.159 0 0 1 .077-.045c.055-.014.073.004.072.062 0 .008.002.017 0 .025-.008.028-.012.068-.048.068a.147.147 0 0 1-.089-.032Zm.13-.261a.568.568 0 0 0 .015-.005l.035.047-.038.02-.012-.062Zm.048.678c-.031.037-.088.043-.123.016.028-.033.072-.04.123-.016Zm-.004-.074c-.031 0-.052-.014-.045-.052.004-.026 0-.053 0-.08 0-.02.004-.042 0-.062-.01-.044.021-.063.047-.084.006-.005.033.004.04.014.048.065.06.14.056.219 0 .01-.008.024-.016.026-.027.009-.054.018-.082.019Zm-.049.99c-.025-.004-.061.001-.075-.014-.059-.062-.112-.133-.112-.223 0-.034.023-.068.037-.101.03-.07.075-.137.06-.222.015-.005.03-.008.043-.014.028-.013.045-.032.044-.067-.001-.033-.022-.045-.047-.05a1.181 1.181 0 0 0-.147-.016c-.026-.001-.042-.007-.05-.033-.019-.053-.05-.105-.027-.166l.038-.086c.065.048.12.093.178.132.04.026.121.001.141-.04.02-.043.058-.06.095-.074.052-.02.118.038.122.094.003.043-.014.073-.038.106-.03.041-.067.08-.065.137 0 .025.007.04.023.058.028.034.049.073.072.11.02.034.043.066.057.102.025.066-.001.13-.024.191-.012.032-.034.06-.054.089-.039.054-.062.054-.107.003.01-.013.018-.026.027-.04.026-.036.026-.072 0-.109-.008-.01-.006-.028-.007-.043-.002-.03.005-.063-.003-.092-.018-.07-.043-.14-.064-.206-.03.023-.024.066.036.218-.028.008-.056.019-.085.024-.014.003-.03-.004-.05-.008l.064-.265.04-.019c-.011-.004-.026-.006-.032-.014a.558.558 0 0 1-.043-.071c-.007-.012-.01-.027-.014-.04l-.017.004c.005.026.007.053.017.076a.167.167 0 0 1 .011.108c-.017.074-.04.147-.054.221-.005.029.01.061.013.093.002.015.006.032 0 .045-.016.035-.013.064.002.101.012.028-.002.066-.005.1Zm.126 1.697c-.04.004-.088-.032-.105-.077a.709.709 0 0 1-.033-.282c.002-.062-.013-.115-.058-.154l.015-.047c.048-.018.055-.066.065-.105.012-.046.008-.096.011-.145.005-.068.007-.136.018-.203a.364.364 0 0 0-.023-.208c-.007-.017.004-.042.006-.063a.183.183 0 0 1 .014-.006c.012.019.028.036.035.057.012.044.053.06.083.084.004.003.028-.01.034-.02.01-.016.011-.036.017-.057.03.017.052.074.087.025.018-.025.015-.065.021-.1.051.034.074.087.084.141.016.08.021.162.027.243.003.031-.008.063-.006.095.003.058.01.116.02.173.003.016.026.026.037.042.008.013.02.032.017.045-.015.054.001.103.014.153a.732.732 0 0 1 .01.327c-.003.02-.025.036-.038.052-.031-.048-.059-.09-.084-.132a.08.08 0 0 1-.01-.04c0-.085-.002-.169-.081-.227-.006-.004-.005-.021-.003-.032a.829.829 0 0 0-.016-.345c0-.002-.002-.002-.01-.009-.007.019-.018.036-.016.052.007.07.018.139.027.209.003.022.003.044.005.075-.032-.028-.063-.065-.074-.06-.038.017-.07.05-.105.077-.004.004-.006.009-.014.017-.003-.038-.012-.073-.007-.106.009-.06.026-.117.04-.176.015-.063.032-.125.041-.188.004-.029-.01-.06-.016-.089l-.013-.005c-.006.013-.017.026-.018.04-.003.045.003.091-.005.135-.016.078-.043.154-.06.233-.006.035.003.074.006.111.002.022.002.048.013.064.02.03.049.053.08.086-.03.053-.025.116.018.179.008.01-.006.038-.012.057l-.038.104Zm.165.47a38.96 38.96 0 0 1-.01.306c0 .005-.005.01-.01.02a.577.577 0 0 1-.041-.214c.002-.053-.019-.108-.025-.162-.004-.037 0-.074 0-.11 0-.061-.001-.121.002-.182.004-.049.014-.097.02-.145l.017-.001c.015.06.037.12.044.18.008.07.001.143.001.214l.002.094Zm-.021-.68c-.02.005-.051.006-.063-.005-.013-.013-.02-.046-.013-.064.01-.03.034-.055.053-.082l.016.002.036.097c.008.027-.007.046-.029.051Zm-.038-.282-.005.057c-.04-.04-.036-.053.005-.057Zm-.128 3.182c.008-.19 0-.381.058-.565l.017.001-.06.565-.015-.001Zm.135.009c-.01.034-.035.065-.058.095-.007.01-.027.012-.05.02l.08-.713.018-.002.022.092c.04.17.032.34-.012.508Zm.039-.765-.088.049c-.036-.007-.06-.02-.066-.051-.005-.028-.006-.06.033-.073.042-.016.082-.042.127-.003.032.027.032.056-.006.078Zm-.137-.176c0-.011.013-.022.021-.033.012.012.028.024.034.04.002.006-.017.02-.034.042-.01-.023-.022-.036-.021-.049Zm.092-.019c.04 0 .052.016.048.042 0 .006-.014.01-.021.015l-.027-.057Zm.069.306c-.004-.02-.006-.044.002-.061.022-.05.053-.096.007-.148-.004-.005 0-.018.004-.027a.578.578 0 0 0 .03-.28c-.006-.043-.019-.085-.03-.127-.002-.005-.017-.008-.027-.012l-.012.008c.01.041.018.084.033.124.026.07.02.137 0 .194l-.2-.018s-.003-.014 0-.025c.006-.028.01-.055.023-.08a.735.735 0 0 0 .068-.24c.002-.01-.004-.023-.007-.035-.007.009-.017.016-.02.026-.02.07-.034.141-.057.21-.02.065-.046.128-.035.197a.295.295 0 0 1-.007.139c-.007.02.005.051.018.073.02.032.024.06.006.095a.294.294 0 0 0-.026.082c-.005.033-.023.035-.042.018-.02-.018-.047-.04-.052-.066-.012-.052-.013-.107-.016-.161-.002-.028.005-.057 0-.084-.014-.072.013-.138.027-.205.009-.043.014-.086.022-.129.002-.008.005-.02.011-.023.052-.02.055-.068.056-.108.001-.063-.012-.126-.018-.19-.011-.128-.043-.257-.006-.387.008-.03.003-.062.013-.09.016-.043.04-.084.06-.126l.015.005.114.354.021.002.045-.063c.068.054.153.027.178-.06.013-.042.021-.086.034-.139.006.029.01.049.016.068a.456.456 0 0 1 .001.312c-.021.055-.051.107-.073.162-.04.1-.058.2.022.293.005.006.01.02.007.025-.046.063-.02.129-.012.194.009.081.02.162.022.244 0 .052-.046.082-.08.114-.029.028-.063.05-.101.079l-.011-.04c-.008-.03-.018-.062-.023-.094Z"/><path class="cls-10" d="m13.77 13.59-.06.564-.015-.002c.01-.189 0-.38.06-.564l.016.001ZM13.83 14.162c-.008.034-.034.065-.057.095-.008.01-.028.012-.05.02l.079-.714h.019l.022.09c.04.17.032.34-.012.509Z"/><path class="cls-9" d="M13.873 13.244c0 .006-.014.01-.021.016l-.027-.058c.04 0 .052.016.048.042Z"/><path class="cls-7" d="M13.788 13.227c.002.007-.017.021-.034.043-.011-.023-.022-.036-.021-.049 0-.011.013-.022.021-.033.012.013.028.024.034.04ZM13.87 13.397l-.088.049c-.036-.007-.061-.02-.066-.051-.005-.028-.006-.06.032-.073.043-.016.083-.042.128-.003.032.027.031.056-.006.078Z"/><path class="cls-9" d="m13.824 10.97-.005.058c-.04-.041-.036-.054.005-.057Z"/><path class="cls-7" d="M13.862 11.252c-.02.006-.051.007-.063-.004-.013-.013-.02-.046-.013-.064.01-.03.034-.055.052-.082l.017.002.036.097c.008.027-.008.046-.03.051Z"/><path class="cls-10" d="M13.881 11.84c0 .03.002.062.001.093a38.96 38.96 0 0 1-.008.306c0 .005-.006.01-.011.02a.577.577 0 0 1-.041-.214c.002-.053-.019-.108-.025-.162-.004-.037 0-.074 0-.11 0-.061-.002-.121.002-.182.004-.049.014-.097.02-.145l.017-.001c.015.06.037.12.044.18.008.07.001.143.001.214ZM14.075 12.095c0 .055-.009.11-.017.165-.006.037-.051.084-.068.072-.029-.022-.07-.054-.07-.083-.003-.107.01-.214.012-.32.001-.115-.004-.23-.007-.344-.001-.06-.005-.12-.009-.179-.001-.026-.004-.052-.007-.078.03-.017.053-.005.062.021.02.062.04.125.054.189.014.07.02.142.03.212.003.03.011.06.012.09.005.085.01.17.008.255Z"/><path class="cls-9" d="M13.743 10.158c-.05-.013-.065-.026-.05-.131l.05.13Z"/><path class="cls-10" d="M13.857 10.188c0 .005-.002.01-.006.02a1.117 1.117 0 0 1-.12-.506c.03.047.067.083.08.125a.736.736 0 0 1 .039.265c-.002.032.005.064.007.096Z"/><path class="cls-7" d="M13.723 9.593c.005.03-.01.037-.04.039-.035.002-.044-.024-.041-.043.003-.02.015-.045.05-.044.034.002.03.023.03.048Z"/><path class="cls-10" d="M13.739 8.73c0 .01-.009.025-.016.027-.027.009-.055.018-.082.019-.031 0-.052-.014-.045-.052.004-.026 0-.053 0-.08 0-.02.004-.042 0-.062-.01-.044.021-.063.047-.084.006-.005.033.004.04.014.048.064.06.14.056.219Z"/><path class="cls-7" d="M13.516 8.783c-.043.012-.082-.004-.098-.052a.245.245 0 0 1 .016-.196c.005-.01.024-.025.028-.022.018.012.046.028.048.044.006.058.002.117.002.176 0 .016.003.033.004.05Z"/><path class="cls-10" d="M13.604 8.397c-.008.028-.012.068-.048.068a.147.147 0 0 1-.089-.032c-.02-.017-.034-.053-.012-.078a.159.159 0 0 1 .077-.045c.055-.014.073.004.072.062 0 .008.002.017 0 .025Z"/><path d="M13.903 7.243c-.01-.006-.022-.009-.028-.017a.209.209 0 0 0-.144-.072.59.59 0 0 0-.251.007.601.601 0 0 0-.17.081c-.02.015-.063.008-.072-.013-.012-.027-.002-.046.026-.06.088-.04.176-.085.273-.096.05-.006.102 0 .153.008.043.006.085.019.127.032.05.017.092.078.086.13Z" style="fill:#e7a96c"/><path d="M13.841 7.29c-.015-.022-.043-.036-.067-.05-.078-.05-.168-.039-.266-.054-.026.008-.066.015-.102.03-.047.022-.092.05-.136.077-.014.008-.033.025-.032.034.003.014.019.031.033.038a.218.218 0 0 0 .078.025c.08.005.159.008.238.008.053 0 .108.011.158-.021.013-.009.039-.008.054-.001.026.012.044.003.048-.02.005-.02.006-.05-.006-.066Zm-.546.025.194-.089.008.018c-.067.025-.12.08-.202.071Z" style="fill:#d5773b"/><path class="cls-9" d="M13.497 7.244c-.067.025-.12.079-.202.071l.194-.089.008.017Z"/></g></svg>