<svg xmlns="http://www.w3.org/2000/svg" viewBox="0 0 19.368 15.182" xmlns:v="https://vecta.io/nano"><path d="M12.887 7.727c-.024-.021-.071-.038-.097-.029-.065.024-.124.065-.186.098-.045.025-.089.054-.138.069-.091.03-.184.054-.278.074l-.408.068a.26.26 0 0 1-.243-.105c.057-.025.102-.056.151-.065l.402-.068c.063-.012.093-.06.102-.123s-.03-.11-.083-.13c-.112-.041-.229-.074-.35-.05-.139.028-.291.062-.373.18-.097.14-.214.199-.374.188-.019-.001-.043-.021-.053-.039s-.015-.05-.018-.075c-.012-.117-.055-.158-.169-.159-.01 0-.021 0-.032 0-.131 0-.264-.012-.393.006-.08.011-.153.071-.232.104-.048.02-.101.034-.152.042-.069.01-.142.004-.209.019-.232.049-.465.088-.703.086l-.269-.015c-.288-.001-.569-.036-.841-.143-.144-.057-.3-.084-.437-.162l-.222-.112-.262-.134c-.098-.062-.186-.139-.283-.203l-.373-.229-.513-.328c-.125-.072-.193-.16-.168-.309.008-.05.013-.106.002-.155l-.129-.496c-.02-.072-.054-.139-.077-.211-.013-.04-.017-.084-.027-.137l.118-.099c.04-.04.102-.07.085-.146-.054-.252-.172-.465-.383-.621l.219-.254c.056-.058.135-.097.215-.072.139.045.274.101.407.162.117.054.222.067.356.042.268-.049.394-.205.459-.449.035-.131.095-.248.256-.262.022-.002.048-.015.062-.031.099-.109.256-.142.339-.279.058-.096.176-.09.245-.017.035.037.074.072.116.1.118.079.149.074.233-.032.008-.01.012-.023.02-.034l.216-.308c.08-.099.173-.186.26-.279l.221-.239.359-.343a.36.36 0 0 1 .212-.108c.05-.008.126-.038.135-.072.03-.115.055-.237.046-.354-.013-.173-.119-.3-.261-.4-.083-.058-.155-.133-.226-.205l-.358-.37C8.606.344 8.364.284 8.114.269L7.38.253a1.08 1.08 0 0 1-.318-.047C6.97.178 6.872.162 6.776.157c-.2-.01-.386.061-.576.109-.037.01-.077.017-.111.035-.142.075-.216.212-.295.341-.065.106-.121.218-.169.333-.053.124-.091.254-.135.382.008.026.027.057.021.079-.014.045-.042.086-.072.144v-.108c-.094.164-.135.345-.177.527-.039.17-.047.33.084.466-.132.226-.116.462-.06.698.051.219-.019.406-.139.578-.082.117-.181.222-.27.335s-.167.214-.332.191c-.207-.03-.375.183-.409.337-.021.094-.072.117-.143.15a3.18 3.18 0 0 0-.337.179l-.399.275c-.125.095-.266.176-.345.322l-.235.444-.171.378c-.037.088-.074.177-.094.27-.029.133-.047.269-.062.403-.013.115-.087.21-.077.336.014.177-.01.357-.006.535.002.101.033.201.041.303.007.095.006.192-.001.287-.005.071-.031.141-.041.212-.008.057-.007.117-.007.175l.005.396c.01.091.049.18.081.268.075.208.064.435.152.644.032.075.06.079.115.075.03-.002.059-.018.09-.025.038-.01.065-.007.05.045-.013.047-.029.096-.031.145-.004.082-.035.16.002.246.045.104.07.218.103.327.072.232.204.418.41.549s.436.153.661.206c.025.006.06.026.065.046l.049.299.02.326c.018.118.057.233.082.351l.048.291-.158-.019c-.164-.02-.328-.056-.493-.057-.313-.001-.627.012-.94.031-.169.011-.337.043-.503.074-.123.024-.162.102-.135.224.012.053.021.108.022.163 0 .016-.028.043-.047.047-.065.015-.133.02-.198.035-.096.023-.145.083-.157.187l-.089.02-.366.084a1.76 1.76 0 0 0-.302.131.73.73 0 0 0-.278.26c-.017.027-.036.065-.063.074a.52.52 0 0 0-.258.196c-.071.099-.103.208-.082.329l.048.237c.011.071.061.112.131.1.044-.008.089-.014.133-.015.132-.002.147-.02.114-.146-.017-.064.017-.098.081-.083.048.011.098.019.144.036.232.085.473.087.714.077.031-.001.066-.018.092-.037.063-.048.059-.147-.008-.236-.072-.096-.147-.191-.259-.246-.044-.022-.086-.05-.136-.08l.416-.178.04.268.068.281c.032.121.09.164.214.165.013 0 .027-.002.04.001a.34.34 0 0 0 .354-.135l.545.02c.156-.001.311-.03.466-.028l1.56-.052c.196-.015.386-.056.501-.246.011-.018.048-.028.073-.027.068.002.137.017.205.016l.431-.014c.152-.002.279-.067.346-.195.065-.123.147-.239.157-.395s.04-.313.028-.476l-.053-1.187c-.003-.058-.007-.116-.019-.173-.033-.155-.093-.308-.103-.464-.018-.293-.166-.545-.237-.821-.04-.152-.113-.296-.169-.444l-.119-.329c-.025-.059.023-.046.045-.05.129-.024.141-.033.137-.163l-.03-.539c-.011-.283-.009-.566-.079-.843-.011-.045.009-.071.064-.053l.448.133 1.047.226a6.04 6.04 0 0 0 .797.092c.238.01.477-.035.715-.024.364.018.706-.111 1.063-.131.064-.003.131-.018.173.059.014.025.058.047.089.049.117.006.236.012.353 0 .104-.011.224-.005.289-.122.007-.013.037-.018.056-.018.202-.005.396.04.583.113.14.055.283.097.435.094l.357-.016c.156-.011.2-.057.197-.193-.001-.05-.021-.069-.067-.063l-.172.023-.328.045-.004-.021.248-.079c.145-.04.253-.114.296-.267.012-.04.05-.072.072-.11l.203-.368a.09.09 0 0 0-.018-.084zM.758 14.118l.67-.245c.001.004.021.018.04.031s.012.035-.007.04c-.183.05-.691.219-.763.263-.002-.008.062-.082.06-.09zm-.062.154l.251-.11.609-.204c.011.072-.008.1-.074.115a4.08 4.08 0 0 0-.761.249c-.015.007-.036 0-.054-.001.01-.017.015-.043.029-.05zm.516.478a.23.23 0 0 0-.029.07c-.001.003.03.022.038.018.025-.014.056-.032.067-.055.018-.039.022-.085.039-.159l.167.191c.033.04-.002.127-.052.138-.164.036-.325.01-.485-.023l-.379-.09c-.085-.022-.113.023-.123.094l-.003.028c-.075.011-.153.062-.211-.011s-.05-.246.01-.328c.068-.092.141-.179.246-.232.015-.008.042-.012.055-.005.107.067.226.092.35.101l.191.022c-.038.068-.054.124-.131.092-.017-.007-.047.02-.072.032.012.019.02.044.037.056.043.029.089.055.137.075.02.008.048-.003.072-.005-.007-.023-.008-.052-.021-.069-.058-.075.029-.092.046-.136.104.031.12.101.053.196zm-.397-.357l-.006-.022c.099-.079.624-.237.753-.209l-.747.231zm4.703-8.611l.112.452c.006.029-.006.062-.009.093-.181-.057-.217-.191-.212-.339.01-.241-.069-.458-.157-.675-.012-.03-.018-.063-.029-.102l.109-.014.185.584zm-.691-.415c-.011-.025-.005-.06.003-.089l.06-.194c.006-.022-.009-.05-.012-.075-.003-.02 0-.04 0-.059l.022-.003.157.172c.014.015.031.032.05.037.051.014.07.04.062.094-.004.027.004.058.015.083.114.261.192.529.152.825-.107-.062-.221-.113-.315-.188-.052-.041-.08-.119-.106-.185-.018-.045-.022-.099-.019-.148a.57.57 0 0 0-.069-.27zm.716-.611c.053.168-.109.401-.273.401-.128.01-.197-.079-.263-.157a.71.71 0 0 1-.108-.195c-.01-.025.002-.071.02-.094l.266-.305c.015-.016.062-.027.075-.016.125.098.234.209.283.366zm1.611-1.315c-.149.02-.23-.076-.319-.176s-.092-.197-.061-.321l.228.269c.053.053.127.086.189.131.018.013.028.037.042.056-.026.014-.051.037-.079.041zm.19-.191c-.003.022-.024.044-.042.061-.003.003-.029-.018-.044-.028-.047-.032-.09-.072-.14-.096-.152-.072-.225-.214-.329-.353.135.004.234.059.336.107.095.045.189.09.21.209.006.033.014.068.01.1zM7.953.328c-.057.073-.251.062-.331 0h.331zM7.92.698l-.288.057-.005-.027c.096-.016.184-.078.288-.054l.005.024zM7.304.624c-.078.049-.138.027-.196-.025.066-.051.133-.044.196.025zM6.699.339h.197l-.198.013zM6.528.56c.031.014.059.032.089.049l-.019.037L6.5.605 6.528.56zM6.254.446c.012.097-.064.088-.113.115-.014-.08.012-.107.113-.115zM4.662 4.554c.013-.04.047-.075.073-.111l.158-.208.231-.276c.097-.106.173-.224.218-.36.034-.101.074-.205.077-.308.004-.135-.03-.271-.04-.408-.004-.051.01-.104.018-.156l.027-.154c.01-.068.057-.106.13-.102.134.007.284-.135.286-.279 0-.067-.023-.134-.025-.201-.003-.079.004-.158.011-.236.014-.162.059-.317.105-.473.048-.164.179-.234.296-.323.042-.032.098-.046.148-.067.15-.062.293-.009.434.034.054.017.085.071.062.129l-.141.325c.027.022.066.064.114.089.115.062.132.051.211-.05.115-.149.251-.278.403-.391.027-.02.043-.054.067-.08.104-.117.235-.172.391-.169.09.002.184-.008.27.014s.174.072.254.121c.069.041.145.085.189.149l.355.559c.035.055.085.1.122.155.015.023.027.077.016.085-.161.119-.253.299-.386.442-.156.17-.345.312-.444.531l-.134.268c-.023.044-.052.084-.094.151l-.194-.215c-.042-.049-.092-.07-.145-.032a1.7 1.7 0 0 0-.18.154c-.038.036-.069.08-.104.123-.036-.089-.057-.171-.1-.239a.5.5 0 0 0-.16-.164c-.109-.065-.229-.119-.362-.113-.023.001-.056.02-.065.04-.084.191-.108.379.043.552l.12.139-.065.254c-.037.142-.089.276-.24.331-.065.023-.139.02-.209.029-.008.001-.016-.001-.024 0-.222.025-.405-.092-.598-.169-.132-.054-.233-.033-.35.051-.176.126-.302.293-.423.466-.054.078-.087.176-.191.201a.21.21 0 0 1-.131-.02c-.019-.01-.032-.064-.023-.09zm-.441.209l.082-.308c.03-.086.166-.159.255-.146.052.008.09.022.074.098-.018.086-.078.18.006.264.029.029.06.059.096.075.112.049.113.047.113.184.014.109-.041.209-.09.313s-.17.119-.26.072c-.224-.117-.343-.288-.275-.553zm-1.495 5.272l-.075-.278-.072-.271-.12-.565a2.26 2.26 0 0 1-.032-.289c-.003-.049.017-.1.013-.149l-.046-.518c-.007-.115-.006-.231.002-.346l.045-.399c.034-.31.073-.618.199-.908l.253-.631c.082-.197.226-.342.403-.457l.578-.382c.059-.037.132-.056.184-.078.078.159.131.306.216.429.071.102.159.206.292.236.051.012.108-.003.162-.001.023.001.063.01.065.021l.043.311-.022.02-.143-.08c-.185-.091-.377-.16-.586-.104-.05.013-.094.059-.133.099s-.07.092-.107.136c-.09.104-.158.218-.17.359-.133.157-.03.286.052.396.173.232.35.464.553.669.159.16.358.281.54.418.044.033.092.059.136.092s.065.073.069.134c.006.092.035.184.054.276.002.008.006.015.006.023l.032.715v.347c-.001.036-.018.073-.014.109l.042.319.031.232-.236-.015-.408-.047-.632-.077c-.158-.014-.317-.01-.47.044-.029.011-.061.013-.091.023l-.381.134c-.069.023-.142.034-.235.056zm2.951-1.167c.02.13.005.263-.009.396-.017.161-.004.326-.004.488q0 .182-.181.182h-.056c-.133 0-.145-.007-.162-.134-.008-.061 0-.124-.003-.185l-.015-.173-.018-.468-.047-.383-.047-.407c-.008-.093-.002-.187-.002-.299l.096.054.317.188c.048.026.071.06.068.113-.013.213.028.42.061.628zm-3.326 4.319c.006-.072.092-.072.146-.076a3 3 0 0 1 .647.011c.061.009.126-.012.189-.013h.618c.06 0 .122.007.181.018.017.003.039.034.04.054.005.069.002.138.002.216-.092 0-.18-.007-.266.002l-.434.059-.221.018-.477-.014h-.402c-.008-.085-.029-.181-.021-.274zm-.126-.011l.038.217c.009.058-.006.097-.075.102-.041.002-.08.018-.12.028-.079-.283-.066-.313.157-.346zm-.078 1.673c-.176.097-.345.016-.395-.178a1.86 1.86 0 0 1-.064-.522c.002-.087-.012-.174-.014-.261-.002-.118.003-.122.121-.122.093 0 .125.027.15.142l.072.351.113.373c.015.05.033.1.041.15.004.022-.007.059-.022.068zm3.95-4.061l.064.242.065.363.157.815c.005.026.001.053.003.079l.062.813c.009.149.003.3.002.45-.001.21-.066.408-.112.61-.028.124-.149.213-.31.215-.179.002-.358-.001-.537.001-.069.001-.072-.036-.064-.087l.107-.707c.022-.184.022-.37.035-.555.005-.062.025-.124.027-.186.003-.057-.007-.115-.013-.173a2.51 2.51 0 0 0-.194-.714l-.305-.643c-.04-.079-.097-.149-.149-.221s-.071-.15-.072-.236c-.001-.065-.032-.113-.071-.155l-.03.01.022.199c.011.065.044.13.043.195-.003.12.099.172.143.261.018.037.044.07.059.108l.261.651c.052.144.07.3.121.443.075.21-.02.403-.04.603-.022.214-.103.416-.095.637.006.175-.021.352-.046.527-.017.114-.136.266-.303.268l-.574.015-.534.018-.431.045-.808.035c-.087.005-.174.03-.261.045-.01.002-.02-.002-.025-.003-.028-.135-.069-.264-.08-.396-.017-.218-.127-.418-.11-.642a.07.07 0 0 1 .082-.084l.51-.06c.021-.002.043-.002.064-.002h.394l.606-.018c.154-.011.307-.039.459-.064.075-.012.127-.103.112-.181l-.08-.43c-.015-.068-.05-.132-.066-.199l-.076-.383-.054-.389c-.005-.043-.008-.089 0-.132.018-.094-.002-.118-.093-.129s-.18-.033-.269-.054c-.063-.015-.124-.044-.187-.052-.152-.018-.272-.111-.373-.201s-.174-.229-.217-.361c-.049-.152-.058-.319-.071-.48-.008-.097.007-.196.015-.293.002-.017.018-.042.033-.046l.527-.144c.143-.03.291-.037.438-.05l.35-.016.47.014.402.002.554.03h.211l.252.791zm-.097-.922l-.169.035c-.084.013-.101-.002-.102-.084l.002-.505c.002-.081.032-.162.028-.242-.008-.146-.031-.292-.047-.439l-.042-.431c.038.02.053.032.07.036.153.041.199.154.197.297l-.013.51c.005.152.037.302.051.453l.025.367zm4.183-1.233c-.077.016-.155.025-.233.034l-.423.046-.49.003-.582.012a6.27 6.27 0 0 1-.761-.091l-1.1-.244c-.07-.016-.137-.048-.204-.077l-.472-.212-.538-.317-.689-.447c-.096-.062-.207-.109-.286-.187-.099-.097-.177-.217-.257-.333-.054-.079-.096-.167-.142-.251s-.111-.167-.104-.297c.034-.082.018-.204.112-.293.056-.053.088-.133.145-.184.05-.045.103-.076.194-.055.221.05.389.172.557.314.148.125.312.233.477.337l.671.4.684.381.849.428c.192.084.403.122.603.19.171.058.347.052.523.062.1.006.201.022.301.014.252-.019.508.001.757-.059.099-.024.204-.024.306-.035.049-.005.069.011.074.066l.075.745c.001.017-.028.049-.047.053zm.778-.374l-.022.357c-.006.093-.089.085-.146.097-.087.02-.177.031-.265.033-.129.002-.197-.009-.226-.139-.027-.117-.036-.238-.052-.357-.011-.083-.028-.166-.03-.25-.002-.1.006-.201.017-.301.002-.02.036-.051.058-.053l.433-.035c.085-.003.149.069.164.156l.084.487zm.957-.686c.052-.005.107-.017.154-.003.03.009.047.059.069.09l-.085.04c-.01-.011-.017-.009-.021-.011l-.128-.071c-.005-.003.005-.045.01-.045zm-.137.788a3.19 3.19 0 0 0 .93-.274c-.034.049-.059.109-.105.144-.107.083-.238.11-.37.133a1.47 1.47 0 0 0-.28.085c.207.065.389-.028.582-.087-.029.104-.12.115-.194.143-.097.036-.2.059-.299.092-.024.008-.042.033-.062.049.026.018.054.051.079.05l.338-.031.196-.02.014.028c-.017.009-.035.027-.05.025-.072-.015-.132-.004-.177.061-.011.015-.029.033-.045.035-.209.029-.421.03-.614-.052-.211-.089-.426-.134-.654-.137-.018 0-.047-.044-.049-.069l-.019-.397c-.002-.036-.017-.074-.012-.108s.019-.08.044-.097c.05-.031.111-.044.166-.067.044-.019.089-.038.129-.064l.353-.233c.049-.027.117-.018.192-.028-.055.123.058.151.113.212l-.012.026-.256-.02a.28.28 0 0 0-.269.226.19.19 0 0 0 .166.137c.274-.036.556-.032.809-.173.063-.035.133-.064.204-.075.033-.005.073.037.131.07-.111.068-.194.144-.291.175-.207.067-.421.112-.632.164-.042.01-.079.017-.059.079z" fill="#0f181b"/><path d="M12.14 7.661l-.085.04c-.01-.011-.017-.009-.021-.011l-.128-.071c-.005-.003.005-.045.01-.045.052-.005.107-.017.154-.003.03.009.047.059.069.09z" fill="#bcbec0"/><g fill="#eac3a7"><path d="M11.779 8.362a3.19 3.19 0 0 0 .93-.274c-.034.049-.059.109-.105.144-.107.083-.238.11-.37.133a1.47 1.47 0 0 0-.28.085c.207.065.389-.028.582-.087-.029.104-.12.115-.194.143-.097.036-.2.059-.299.092-.024.008-.042.033-.062.049.026.018.054.051.079.05l.338-.031.196-.02.014.028c-.017.009-.035.027-.05.025-.072-.015-.132-.004-.177.061-.011.015-.029.033-.045.035-.209.029-.421.03-.614-.052-.211-.089-.426-.134-.654-.137-.018 0-.047-.044-.049-.069L11 8.14c-.002-.036-.017-.074-.012-.108s.019-.08.044-.097c.05-.031.111-.044.166-.067.044-.019.089-.038.129-.064l.353-.233c.049-.027.117-.018.192-.028-.055.123.058.151.113.212l-.012.026-.256-.02a.28.28 0 0 0-.269.226.19.19 0 0 0 .166.137c.274-.036.556-.032.809-.173.063-.035.133-.064.204-.075.033-.005.073.037.131.07-.111.068-.194.144-.291.175-.207.067-.421.112-.632.164-.042.01-.079.017-.059.079zM9.105 1.779c-.037-.054-.087-.099-.122-.155l-.355-.56c-.044-.063-.12-.107-.189-.149-.08-.048-.164-.098-.254-.121S8.006.782 7.915.78c-.156-.004-.287.052-.391.169-.023.026-.04.06-.067.08a2.05 2.05 0 0 0-.403.391c-.079.101-.096.112-.211.05-.048-.026-.087-.068-.114-.089l.141-.325c.022-.058-.008-.112-.062-.129-.141-.043-.284-.096-.434-.034-.05.02-.106.035-.148.067-.117.089-.248.158-.296.323a2.4 2.4 0 0 0-.105.473l-.011.236c.002.067.025.134.025.201-.002.144-.152.286-.286.279-.073-.004-.119.034-.13.102l-.027.154c-.008.052-.022.105-.018.156.011.136.044.272.04.408-.003.103-.044.207-.077.308-.045.136-.121.254-.218.36l-.231.276-.158.208c-.026.036-.059.07-.073.111-.009.026.004.081.023.09.038.019.09.029.131.02.104-.024.136-.123.191-.201.121-.173.246-.34.423-.466.117-.084.217-.105.35-.051.192.077.376.194.598.169.008-.001.016.002.024 0 .07-.009.144-.006.209-.029.151-.054.203-.189.24-.331l.065-.254-.12-.139c-.151-.174-.127-.362-.043-.552.009-.02.042-.039.065-.04.133-.006.252.048.362.113a.5.5 0 0 1 .16.164c.04.064.064.15.1.239.035-.043.066-.087.104-.123a1.71 1.71 0 0 1 .18-.154c.054-.038.103-.018.145.032l.194.215.094-.151.134-.268c.098-.219.288-.361.444-.531.132-.144.224-.323.386-.442.011-.008-.001-.062-.016-.085zM6.339 1.14c-.119.102-.192.222-.181.392.008.119-.011.242-.029.361-.006.039-.041.082-.074.108-.097.076-.117.169-.032.246l.092-.089c.016-.013.043-.014.064-.02-.002.021.004.047-.006.062-.021.03-.046.067-.077.078-.043.015-.101.023-.139.006-.028-.013-.04-.071-.05-.111-.027-.106.047-.165.111-.23.022-.022.042-.052.047-.081.021-.129.042-.256.025-.391-.01-.076.03-.172.077-.238.071-.1.147-.208.302-.196.141.01.237.141.181.272-.026.062-.063.125-.111.169-.027.025-.088.013-.134.018-.004-.051-.017-.103-.009-.151s.035-.1.059-.162c.072.014.045.076.039.117s-.033.087-.05.13l.033.017c.039-.059.094-.113.112-.177.012-.041-.017-.116-.053-.142-.058-.044-.136-.038-.197.015zm.518 1.388c-.27.044-.386.185-.423.454l-.022.157c-.07-.142-.004-.388.126-.515a.6.6 0 0 1 .603-.135l-.284.039zm1.883-.403c-.072.142-.213.218-.37.241a.82.82 0 0 1-.61-.16c-.016-.011-.036-.017-.054-.025l.029-.03.162.089c-.007-.033-.022-.057-.042-.077-.088-.088-.185-.167-.263-.263-.115-.14-.073-.305-.041-.462.024-.116.077-.227.181-.284.117-.064.245-.097.386-.054.214.066.42.152.541.348.128.207.2.441.081.677zm-7.279 11.82c-.183.05-.691.219-.763.263-.002-.008.062-.082.06-.09l.67-.245a.2.2 0 0 0 .04.031c.019.013.012.035-.007.04z"/><path d="M1.562 14.162l-.747.231-.006-.022c.099-.079.624-.237.753-.209z"/><path d="M1.482 14.074a4.08 4.08 0 0 0-.761.249c-.015.007-.036 0-.054-.001.01-.017.015-.043.029-.05l.251-.11.609-.204c.011.072-.008.1-.074.115z"/></g><path d="M2.188 13.495c-.041.002-.08.018-.12.028-.079-.283-.066-.313.157-.346l.038.217c.009.058-.006.097-.075.102z" fill="#567591"/><path d="M1.441 14.952c-.164.036-.325.01-.485-.023l-.379-.09c-.085-.022-.113.023-.123.094l-.003.028c-.075.011-.153.062-.211-.011s-.05-.246.01-.328c.068-.092.141-.179.246-.232.015-.008.042-.012.055-.005.107.067.226.092.35.101l.191.022c-.038.068-.054.124-.131.092-.017-.007-.047.02-.072.032.012.019.02.044.037.056.043.029.089.055.137.075.02.008.048-.003.072-.005-.007-.023-.008-.052-.021-.069-.058-.075.029-.092.046-.136.104.031.12.101.053.196a.23.23 0 0 0-.029.07c-.001.003.03.022.038.018.025-.014.056-.032.067-.055.018-.039.022-.085.039-.159l.167.191c.033.04-.002.127-.052.138z" fill="#dd5633"/><path d="M2.147 14.849c-.176.097-.345.016-.395-.178a1.86 1.86 0 0 1-.064-.523c.002-.087-.012-.174-.014-.261-.002-.118.003-.122.121-.122.093 0 .125.027.15.142l.072.351.113.373c.015.05.033.1.041.15.004.022-.007.059-.022.068z" fill="#567591"/><g fill="#234968"><path d="M4.173 13.397c-.092 0-.18-.007-.266.002l-.434.059-.221.018-.477-.014h-.402c-.008-.085-.029-.181-.021-.274.006-.072.092-.072.146-.076a3 3 0 0 1 .647.011c.061.009.126-.012.189-.013h.618c.06 0 .122.007.181.018.017.003.039.034.04.054.005.069.002.138.002.216z"/><path d="M6.45 13.549c-.001.21-.066.408-.112.61-.028.124-.149.213-.31.215-.179.002-.358-.001-.537.001-.069.001-.072-.036-.064-.087l.107-.707c.022-.184.022-.37.035-.555.005-.062.025-.124.027-.186.003-.057-.007-.115-.013-.173a2.51 2.51 0 0 0-.194-.714l-.305-.643c-.04-.079-.097-.149-.149-.221s-.071-.15-.072-.236c-.001-.065-.032-.113-.071-.155l-.03.01.022.199c.011.065.044.13.043.195-.003.12.099.172.143.261.018.037.044.07.059.108l.261.651c.052.144.07.3.121.443.075.21-.02.403-.04.603-.022.214-.103.416-.095.637.006.175-.021.352-.046.527-.017.114-.136.266-.303.268l-.574.015-.534.018-.431.045-.808.035c-.087.005-.174.03-.261.045-.01.002-.02-.002-.025-.003-.028-.135-.069-.264-.08-.396-.017-.218-.127-.418-.11-.642a.07.07 0 0 1 .082-.084l.51-.06c.021-.002.043-.002.064-.002h.394l.606-.018c.154-.011.307-.039.459-.064.075-.012.127-.103.112-.181l-.08-.43c-.015-.068-.05-.132-.066-.199l-.076-.383-.054-.389c-.005-.043-.008-.089 0-.132.018-.094-.002-.118-.093-.129s-.18-.033-.269-.054c-.063-.015-.124-.044-.187-.052-.152-.018-.272-.111-.373-.201s-.174-.229-.217-.361c-.049-.152-.058-.319-.071-.48-.008-.097.007-.196.015-.293.002-.017.018-.042.033-.046l.527-.144c.143-.03.291-.037.438-.05l.35-.016.47.014.402.002.554.03h.211l.252.791.064.242.065.363.157.815c.005.026.001.053.003.079l.062.813c.009.149.003.3.002.45z"/></g><path d="M19.125 12.949c-.004-.13-.032-.26-.039-.39l-.01-.431c-.019-.181-.057-.36-.087-.539-.007-.042-.041-.097-.025-.122.021-.033.079-.04.121-.06s.057-.042.04-.092c-.02-.063-.035-.132-.035-.198l.008-.681c0-.117-.01-.233-.023-.349-.02-.187-.012-.377-.07-.557-.043-.134-.082-.278-.162-.39-.091-.126-.227-.22-.343-.33s-.252-.131-.395-.157c-.092-.017-.183-.05-.271-.082-.069-.025-.115-.099-.092-.138.049-.086.117-.152.208-.196a1.81 1.81 0 0 0 .248-.135c.063-.043.113-.105.173-.154a1.16 1.16 0 0 0 .311-.424 1.33 1.33 0 0 0 .089-.3 1.04 1.04 0 0 0 .01-.244c-.003-.061-.038-.119-.001-.183.012-.02-.001-.056-.003-.084l-.019-.235c-.001-.013.015-.028.027-.039a.28.28 0 0 0 .107-.214c.004-.102-.047-.185-.084-.274l-.066-.139-.128-.378c-.017-.045-.029-.077-.003-.12.062-.099.037-.202-.006-.298-.053-.117-.123-.227-.179-.343-.067-.14-.195-.215-.316-.296-.028-.019-.066-.023-.092-.045a.51.51 0 0 0-.334-.13l-.56.031-.311.039-.199.034c-.16.02-.313.06-.446.156-.144.102-.16.26-.184.415-.001.008.001.019.006.025.052.059.046.128.045.2s.019.151.02.227l-.009.413c-.004.071-.02.141-.028.212l-.037.368c-.005.096.037.132.133.127l.248-.022c.026-.001.074.01.076.022.012.066.037.145.012.199-.032.069-.024.126-.015.193.007.048.01.105-.011.146-.035.07-.011.131.026.174.103.12.083.243.026.368s-.069.248-.042.377c.012.06.047.115.068.174.031.085.09.143.175.168l.338.085c.027.007.059.025.071.047a.27.27 0 0 1 .02.234c-.027.006-.052.008-.074.016l-.332.124a.71.71 0 0 0-.354.3c-.095.159-.156.339-.227.512-.025.063-.038.131-.057.2-.171-.01-.339-.009-.418.212-.067-.062-.129-.109-.176-.167a.47.47 0 0 0-.271-.178c-.114-.023-.176.036-.152.133a.47.47 0 0 0 .184.268c.024.017.043.04.065.061l-.012.025c-.037-.008-.079-.009-.111-.027-.107-.059-.208-.127-.271-.237-.042-.073-.094-.126-.185-.139-.149-.021-.254.053-.206.172.037.089.035.169.037.258.003.126.038.251.059.379l-.051.005c-.07.004-.132.115-.089.172a.51.51 0 0 0 .151.142.92.92 0 0 0 .765.055l.304-.107c.04-.013.071 0 .079.049s.019.097.035.144c.025.074.105.11.183.089.024-.007.05-.01.082-.015v.295c0 .059.017.107.086.114.028.003.036.01.032.046-.016.124-.006.251-.032.372-.048.225-.016.45-.02.674 0 .009 0 .018.001.026l.058.456.018.358c.013.116.043.229.061.345.012.081.06.099.132.098s.146.006.217.01c.017.085.008.157-.033.234-.028.051-.032.09-.084.108a.61.61 0 0 0-.263.191c-.051.062-.11.128-.132.202-.023.08-.009.172-.004.258.004.07.043.127.11.15.051.018.109.02.164.025.199.018.392.009.551-.137.081.102.178.158.315.113.036-.012.077-.017.114-.013.053.006.074-.025.079-.064.013-.105.029-.212.025-.318-.003-.087-.032-.173-.047-.26s-.065-.149-.152-.184c-.041-.017-.097-.049-.106-.084-.019-.075-.012-.156-.015-.239l.165-.007c.09-.004.124-.04.119-.131l-.013-.148c0-.052.014-.103.013-.154l-.012-.338c0-.066-.008-.153.03-.193.05-.054.116-.123.216-.099.035.009.075 0 .113-.003.065-.005.092.018.095.082l.01.259c-.001.077-.018.154-.014.23a4.3 4.3 0 0 0 .041.357c.012.084.034.098.123.095l.145-.006.013.35c0 .038-.022.078-.043.111-.01.015-.044.012-.066.02-.055.023-.119.037-.161.075-.065.059-.115.135-.171.204l-.025-.02c-.015.076-.021.15-.006.219.012.058.034.135.077.162a.62.62 0 0 0 .462.063c.059-.012.11-.059.193-.021l-.034-.047.091-.063c.004.019.005.031.01.043.016.044.021.103.052.127.067.049.144.098.232.03.027-.022.058-.044.09-.055.056-.018.061-.06.062-.106l.002-.046c.007-.177.023-.355-.065-.52-.015-.027-.011-.068-.03-.088-.035-.036-.082-.06-.122-.091-.011-.008-.027-.021-.027-.031l.005-.326.279-.012c.1-.001.142-.051.132-.148s-.014-.194-.012-.291l.02-.37zm-3.824-3.201c.009.003.02.027.018.03-.012.013-.027.028-.043.031-.054.011-.11-.029-.135-.11l.161.05zm-.668.102c.071.047.126.1.12.197-.035.037-.07.039-.1-.019-.01-.019-.02-.04-.034-.055-.042-.044-.036-.083.013-.122zm1.083.841l-.349.127c-.197.052-.399.069-.601.021-.016-.004-.034-.02-.041-.035-.057-.114-.042-.091-.168-.12-.005-.068.021-.089.082-.064l.278.121c.021.009.044.01.067.014l.013-.021c-.016-.012-.031-.03-.049-.034-.093-.023-.176-.064-.237-.139-.03-.037-.053-.079-.079-.12l.019-.016.312.216c.027-.051-.004-.102-.062-.125-.177-.072-.303-.259-.288-.437.033.03.062.05.081.076.117.161.28.246.468.287.033.007.072-.016.109-.026l.003-.031c-.043-.017-.086-.046-.129-.047-.09-.001-.16-.047-.232-.089-.062-.037-.118-.083-.177-.126.083-.072.077-.167-.011-.259l-.055-.053c.025-.009.044-.005.055.005l.367.339c.037.033.097.043.148.054.065.015.104-.037.117-.083.008-.027-.031-.082-.063-.101-.106-.065-.177-.152-.207-.291l.031.033c.052.083.152.114.231.059.045-.031.062-.013.082.02l.042.074c.028.054.057.106.126.119.015.002.036.02.039.034l.051.247.053.334c.002.012-.012.035-.024.039zm2.541-5.317c-.09.002-.207-.095-.262-.214l.262.214zm-.835-.974l-.42.039a.71.71 0 0 1 .42-.039zm-.251.257l-.339.064c.103-.065.219-.071.334-.082zm-.326-.172c-.082.049-.17.08-.259.111.066-.091.158-.112.259-.111zm-.135.217l.009.02-.312.135c.066-.13.192-.127.303-.155zm.107.094c-.024.055-.114.091-.213.083l.213-.083zm-.501-.209l-.184.167c-.01-.062.097-.168.184-.167zm.177 2.415c.177.007.351-.034.522-.003-.001.096-.051.117-.121.138-.106.032-.211.013-.316.021-.084.006-.103-.032-.085-.156zm0-.228c.15-.087.298-.006.445.002.011.119-.085.12-.151.132-.077.015-.162.011-.24-.003-.064-.012-.058-.077-.055-.131zm.517 1.491l-.322-.129c-.081-.031-.129-.121-.151-.197-.046-.161.03-.295.071-.437a.47.47 0 0 0 .014-.135c-.003-.119.015-.138.137-.149.058-.005.114-.024.172-.031.095-.013.133-.09.135-.16.003-.095-.022-.194-.053-.284-.01-.03-.078-.051-.122-.056-.114-.015-.229-.021-.343-.027-.038-.002-.052-.016-.051-.051 0-.022-.003-.044-.003-.066.006-.128-.037-.17-.169-.152l-.209.021c-.03.002-.061-.01-.079-.014l.119-.657c.044-.218-.015-.429-.046-.647.077.015.139.035.201.037a.67.67 0 0 0 .408-.13.54.54 0 0 1 .296-.099c.039-.001.077-.013.116-.017.087-.009.172-.004.257.027l.438.156c.03.012.055.04.079.064l.266.271c.062.054.141.07.226.039.032-.012.07-.008.105-.005.013.001.032.014.038.027l.08.189c.014.033.003.047-.03.037-.134-.042-.225.023-.318.109-.086.08-.144.165-.129.288.009.077.036.114.102.114s.088-.043.099-.098c.003-.015.007-.03.013-.043.032-.077.024-.172.109-.228-.058-.007-.092.018-.105.066l-.047.188c-.01.037-.029.075-.074.061s-.062-.05-.054-.098c.023-.121.108-.198.193-.276.054-.05.11-.053.179-.022.152.067.206.194.237.345.02.095.02.18-.044.256-.026.03-.055.058-.083.086-.058.058-.114.113-.105.207.004.042-.011.085-.02.127-.007.03-.012.081-.027.085-.042.01-.092.008-.132-.006-.015-.005-.019-.06-.015-.091.009-.069-.014-.1-.073-.083-.012.003-.027.016-.031.027-.019.05.045.209.089.234.119.069.258-.018.256-.178-.001-.059-.008-.118.059-.166l.014.368c-.002.117-.005.235-.029.348-.017.082-.061.163-.108.234-.073.112-.149.224-.241.319-.124.126-.265.234-.45.262-.047.007-.092.021-.138.033s-.106.112-.096.185c.016.122.037.243.068.362.025.095.011.16-.058.232-.078.083-.169.089-.271.072-.011-.002-.022-.001-.033 0-.157 0-.201-.045-.192-.204l.026-.278c.011-.097-.06-.224-.151-.263zm-.003.607c.012-.045.046-.084.076-.136l.027.152a.15.15 0 0 0 .125.164.72.72 0 0 0 .298.039c.093-.01.181-.043.214-.146l.073-.229c.062.04.1.136.079.22-.024.096-.049.194-.142.247-.047.027-.104.045-.157.05-.138.012-.275.023-.411-.037a.43.43 0 0 1-.182-.324zm-.823 1.973l-.179.011c-.056.003-.064-.031-.073-.078-.023-.118-.048-.237-.088-.351-.025-.073-.044-.142-.047-.219-.001-.039-.023-.077-.034-.116-.022-.074-.01-.093.065-.118l.163-.057c.078-.005.142.02.177.083.023.041.024.095.029.143.006.062.006.124.009.186l.016.384c.001.035-.003.069-.01.103-.002.012-.017.028-.028.029zm.064.499c-.015-.002-.037-.031-.038-.048v-.274l.082-.021c.064-.016.122-.037.153-.107.009-.02.059-.038.085-.033.189.036.371-.02.553-.047.177-.025.353-.066.526-.111.137-.036.272-.081.402-.136.106-.044.139-.155.151-.254.012-.094-.009-.191-.023-.286-.004-.028-.038-.05-.052-.078-.075-.164-.217-.216-.38-.259s-.317-.004-.473.021l-.257.042-.261.051-.254.05c-.051.01-.104.018-.15.038-.038.017-.045-.003-.059-.025-.008-.013-.012-.035-.023-.038-.082-.028-.059-.078-.041-.139l.094-.368c.038-.129.119-.239.213-.328.133-.125.286-.229.465-.284.01-.003.02-.003.038-.005-.005.017-.004.03-.01.038-.046.065-.052.142-.062.216-.004.028.02.061.032.092a.82.82 0 0 0 .331.393c.094.059.204.046.306.024.155-.034.264-.138.347-.267.024-.037.035-.089.035-.134l-.013-.344c.126.038.253.085.354.189.038.039.092.061.136.096.143.113.251.25.311.427.047.142.1.28.098.433 0 .052.013.104.019.156.011.103-.017.201-.031.302-.015.107.006.219.013.328l.02.257c.008.075.012.152.035.224.025.08.005.119-.082.117l-.518-.006-.344.015c-.06.005-.121.017-.178.035-.095.03-.184.053-.288.027s-.213.003-.32.027c-.096.021-.197.023-.296.023-.124.001-.248-.007-.373-.012l-.273-.018zm.061-1.323c.002-.021.038-.046.063-.055.041-.013.085-.017.128-.02l.36-.03.448-.067c.101-.01.205-.005.307.002.075.005.149.023.222.037.047.009.087.025.107.079.018.046.057.084.085.127.005.008.008.019.009.029.002.02.001.04.003.059.014.161-.004.181-.158.257-.086.043-.174.084-.266.112-.067.021-.142.022-.213.03l-.442.047c-.117.017-.236.037-.349.07-.062.019-.119.054-.177.043l-.13-.483c-.016-.076-.006-.159.002-.238zm.836 4.182c.051.009.083.028.096.084l.087.305c.012.06 0 .125-.002.197l-.238.01c-.022-.036-.035-.086-.064-.099-.038-.017-.089-.016-.125.03-.025.031-.062.053-.086.084-.047.061-.103.054-.169.044-.082-.011-.166-.008-.25-.008l-.164.008c-.013 0-.035-.02-.038-.034a.41.41 0 0 1 .044-.264c.012-.026.031-.05.041-.077.037-.099.135-.114.211-.161.088-.054.153-.068.251.005.087.065.217.074.331.031.064-.024.073-.089.076-.155zm-.285-.358c.01.001.021.006.032.005.095-.008.125.017.134.112l.003.053c.019.163-.11.167-.217.143-.097-.021-.089-.099-.099-.159-.027-.152-.005-.171.148-.154zm1.869.499l.134.445-.253.023c-.008-.019-.016-.042-.028-.062-.025-.043-.067-.06-.102-.025-.11.108-.233.116-.375.084-.071-.016-.151-.005-.226.005-.068.01-.087.002-.092-.067-.004-.063.001-.124.047-.174l.164-.179c.03-.027.076-.036.116-.05.009-.003.027.005.034.013.133.179.315.155.498.118.021-.004.04-.039.052-.063s.012-.046.03-.068zm-.158-.271c-.015.081-.064.13-.109.187-.004.005-.014.006-.022.006-.09 0-.16-.072-.168-.164-.005-.062-.023-.122-.03-.184-.004-.036.002-.074.01-.109.003-.012.023-.03.035-.03l.268.007c-.008.098.034.187.015.286zm.407-.611l-.005.106c0 .052-.026.073-.075.079-.086.01-.172.032-.258.035-.149.005-.299-.003-.448-.003-.064 0-.129.005-.194.008a2.26 2.26 0 0 1 .004-.409c.019-.165-.001-.334-.006-.502-.001-.037-.01-.073-.018-.109-.02-.084-.129-.156-.221-.151l-.213.009c-.127.006-.211.083-.226.207l-.027.231c-.002.069.014.139.02.208l.03.395c.005.08-.005.083-.082.087-.058.003-.114.02-.171.035s-.113.05-.171.054c-.121.008-.243.008-.363-.003-.095-.008-.091-.018-.1-.115-.008-.079-.027-.158-.039-.237-.023-.142-.063-.281-.045-.429.009-.078-.016-.16-.022-.24l-.01-.227v-.158l.041-.437c.004-.107-.017-.216-.021-.323-.001-.019.027-.055.042-.055l.301.006h.099l.452.006.212-.008.503.016c.047.001.095-.011.142-.018l.437-.068c.078-.009.159.005.242.008l.012.275.057.634c.013.101.065.197.082.298.02.118.024.239.031.358l.012.313c.001.041-.001.082-.003.122z" fill="#0f181b"/><path d="M14.754 10.046c-.035.037-.07.039-.1-.019-.01-.019-.02-.04-.034-.055-.042-.044-.036-.083.013-.122.071.047.126.1.12.197zm.565-.269c-.012.013-.027.028-.043.031-.054.011-.11-.029-.135-.11l.161.05c.009.003.02.027.018.03z" fill="#d1d3d4"/><path d="M15.74 10.651c.002.012-.012.035-.024.039l-.349.127c-.197.052-.399.069-.601.021-.016-.004-.034-.02-.041-.035-.057-.114-.042-.091-.168-.12-.005-.068.021-.089.082-.064l.278.121c.021.009.044.01.067.014l.013-.021c-.016-.012-.031-.03-.049-.034-.093-.023-.176-.064-.237-.139-.03-.037-.053-.079-.079-.12l.019-.016.312.216c.027-.051-.004-.102-.062-.125-.177-.072-.303-.259-.288-.437.033.03.062.05.081.076.117.161.28.246.468.287.033.007.072-.016.109-.026l.003-.031c-.043-.017-.086-.046-.129-.047-.09-.001-.16-.047-.232-.089-.062-.037-.118-.083-.177-.126.083-.072.077-.167-.011-.259l-.055-.053c.025-.009.044-.005.055.005l.367.339c.037.033.097.043.148.054.065.015.104-.037.117-.083.008-.027-.031-.082-.063-.101-.106-.065-.177-.152-.207-.291l.031.033c.052.083.152.114.231.059.045-.031.062-.013.082.02l.042.074c.028.054.057.106.126.119.015.002.036.02.039.034l.051.247.053.334z" fill="#eac3a7"/><path d="M18.862 14.785l-.253.023c-.008-.019-.016-.042-.028-.062-.025-.043-.067-.06-.102-.025-.11.108-.233.116-.375.084-.071-.016-.151-.005-.226.005-.068.01-.087.002-.092-.067-.004-.063.001-.124.047-.174l.164-.179c.03-.027.076-.036.116-.05.009-.003.027.005.034.013.133.179.315.155.498.118.021-.004.04-.039.052-.063s.012-.046.03-.068l.134.445z" fill="#dd5633"/><path d="M18.571 14.069c-.015.081-.064.13-.109.187-.004.005-.014.006-.022.006-.09 0-.16-.072-.168-.164-.005-.062-.023-.122-.03-.184-.004-.036.002-.074.01-.109.003-.012.023-.03.035-.03l.268.007c-.008.098.034.187.015.286zm-1.761.085c-.097-.021-.089-.099-.099-.159-.027-.152-.005-.171.148-.154.01.001.021.006.032.005.095-.008.125.017.134.112l.003.053c.019.163-.11.167-.217.143z" fill="#eac3a7"/><path d="M17.325 14.785l-.238.01c-.022-.036-.035-.086-.064-.099-.038-.017-.089-.016-.125.03-.025.031-.062.053-.086.084-.047.061-.103.054-.169.044-.082-.011-.166-.008-.25-.008l-.164.008c-.013 0-.035-.02-.038-.034a.41.41 0 0 1 .044-.264c.012-.026.031-.05.041-.077.037-.099.135-.114.211-.161.088-.054.153-.068.251.005.087.065.217.074.331.031.064-.024.073-.089.076-.155.051.009.083.028.096.084l.087.305c.012.06 0 .125-.002.197z" fill="#dd5633"/><path d="M18.98 13.336c.001.041-.001.082-.003.122l-.005.106c0 .052-.026.073-.075.079-.086.01-.172.032-.258.035-.149.005-.299-.003-.448-.003-.064 0-.129.005-.194.008a2.26 2.26 0 0 1 .004-.409c.019-.165-.001-.334-.006-.502-.001-.037-.01-.073-.018-.109-.02-.084-.129-.156-.221-.151l-.213.009c-.127.006-.211.083-.226.207l-.027.231c-.002.069.014.139.02.208l.03.395c.005.08-.005.083-.082.087-.058.003-.114.02-.171.035s-.113.05-.171.054c-.121.008-.243.008-.363-.003-.095-.008-.091-.018-.1-.115-.008-.079-.027-.158-.039-.237-.023-.142-.063-.281-.045-.429.009-.078-.016-.16-.022-.24l-.01-.227v-.158l.041-.437c.004-.107-.017-.216-.021-.323-.001-.019.027-.055.042-.055l.301.006.099.001.452.006.212-.008.503.016c.047.001.095-.011.142-.018l.437-.068c.078-.009.159.005.242.008l.012.275.057.634c.013.101.065.197.082.298.02.118.024.239.031.358l.012.313z" fill="#234968"/><g fill="#0f181b"><path d="M4.681 9.102l-.136-.429a1.02 1.02 0 0 0-.223-.392l-.231-.252c-.058-.053-.131-.095-.203-.127l-.377-.148c-.026-.01-.056-.014-.084-.015l-.165-.001-.003-.023c.051-.008.101-.022.152-.024.101-.004.205-.014.303.003.084.014.165.058.243.098a1.72 1.72 0 0 1 .271.162.54.54 0 0 1 .148.175c.05.096.079.202.118.303l.159.406c.024.069.033.145.045.218.002.012-.011.026-.02.045zM2.933 8.02l.132.197c.068.117.169.19.289.242l.511.211c.079.028.171.021.256.031l.077.012.002.023c-.025.007-.05.017-.075.021-.304.046-.58-.02-.814-.224-.142-.124-.285-.251-.376-.422-.014-.027-.018-.059-.027-.089l.025-.002zm.784-2.338l-.238.143c-.082.042-.108.121-.136.194a2.33 2.33 0 0 0-.102.336c-.01.046.006.101.019.15.053.195.165.359.287.516.043.055.112.09.166.137l.179.167c.007.007.006.024.013.06l-.251-.189c-.186-.167-.313-.37-.42-.599-.102-.218-.008-.386.049-.573.053-.171.188-.255.34-.32l.083-.04.011.02zm-.63 3.89l-.47-.554c.101.037.229-.005.293.123s.143.241.213.363c.008.014-.004.04-.007.06l-.029.007zm-.052-3.259v.407c0 .013 0 .028-.007.038-.042.064-.029.119.021.171.007.008.008.022.012.035-.098-.017-.166-.19-.17-.426-.001-.088.071-.208.144-.226z"/><path d="M3.391 5.498a.39.39 0 0 1 .296-.21c.063-.01.128-.002.193-.002l.006.037-.176.074-.319.101zm.029 2.629c.145-.031.269-.034.384.039.016.01.03.046.025.064s-.039.039-.056.035l-.299-.078c-.016-.005-.026-.028-.054-.06zm5.238-6.679c-.121-.196-.326-.282-.541-.348-.141-.043-.269-.01-.386.054-.104.058-.157.169-.181.284-.032.157-.074.322.041.462.078.096.175.175.263.263.02.02.035.045.053.067a.87.87 0 0 1-.173-.078l-.029.03c.018.008.038.014.054.025a.82.82 0 0 0 .61.16c.157-.023.299-.099.37-.241.119-.236.047-.47-.081-.677zm-.833-.198c.122.03.25.053.348.155-.201-.003-.323.088-.369.283-.018-.057-.043-.112-.054-.17a.84.84 0 0 1-.015-.18c.001-.054.041-.1.09-.088zm.361.221c.102 0 .188.108.188.236-.001.122-.115.261-.211.258-.15-.005-.288-.114-.286-.226.004-.171.117-.269.309-.269zm-.02.809c-.077-.031-.159-.05-.216-.128-.047-.065-.122-.111-.188-.16-.187-.14-.21-.323-.144-.531l.047-.138.082.385c.02.082.072.141.143.189.055.038.094.1.15.134.12.071.246.13.37.194.018.009.036.015.062.026-.104.064-.206.07-.308.03zm.303-.097l-.283-.129c.146-.024.177-.155.257-.258l.073.189c.014.042.016.087.026.13.015.063-.012.093-.073.069zm.151-.243l-.276-.475c-.109-.172-.31-.194-.491-.274.118-.022.22-.047.321.005.145.075.28.165.373.3.11.159.134.358.074.443zm-1.971-.632c-.026.062-.063.125-.111.169-.027.025-.088.013-.134.018-.004-.051-.017-.103-.009-.151s.035-.1.059-.162c.072.014.045.076.039.117s-.033.087-.05.13l.033.017c.039-.059.094-.113.112-.177.012-.041-.017-.116-.053-.142-.058-.044-.136-.038-.197.015-.119.102-.192.222-.181.392.008.119-.011.242-.029.361-.006.039-.041.082-.074.108-.097.076-.117.169-.032.246l.092-.089c.016-.013.043-.014.064-.02-.002.021.004.047-.006.062-.021.03-.046.067-.077.078-.043.015-.101.023-.139.006-.028-.013-.04-.071-.05-.111-.027-.106.047-.165.111-.23.022-.022.042-.052.047-.081.021-.129.042-.256.025-.391-.01-.076.03-.172.077-.238.071-.1.147-.208.302-.196.141.01.237.141.181.272zM7.14 2.49l-.284.039c-.27.044-.386.185-.423.454l-.022.157c-.07-.142-.004-.388.126-.515a.6.6 0 0 1 .603-.135zm3.353 5.54c-.044-.029-.103-.047-.127-.087-.035-.059-.012-.123.048-.165.03-.021.061-.04.094-.056.075-.036.133-.013.175.066.034.063.012.14-.052.175-.04.022-.082.04-.138.067zm-.044-.208c.055.094.11.13.154.099.039-.027.05-.068.027-.108-.034-.058-.092-.053-.181.009zM5.46 9.149c-.125.003-.215-.134-.162-.245l.029-.055c.052-.092.096-.106.199-.066.067.026.094.088.077.171-.004.018-.002.037-.002.056-.001.1-.039.137-.141.14zm.083-.219c-.038-.018-.058-.034-.079-.036-.052-.004-.09.025-.085.076.002.024.039.044.06.066l.104-.107z"/><path d="M5.402 8.187c.08 0 .181.096.182.174.002.089-.092.193-.175.193s-.146-.084-.146-.182c0-.11.056-.185.138-.185zm-.06.107l.061.133c.023-.018.066-.039.064-.053-.007-.05-.021-.108-.125-.08zm.16 1.384c-.128 0-.19-.048-.19-.145 0-.126.07-.211.171-.208.067.002.166.127.165.21-.001.093-.052.143-.146.143zm.08-.162c-.045-.029-.08-.065-.094-.058-.032.017-.065.05-.075.083-.005.017.039.048.061.073l.108-.098zm-.497-4.07c.055-.001.146.081.146.131-.002.1-.077.182-.172.187-.077.005-.131-.049-.132-.132-.001-.074.094-.185.159-.186zm-.038.098l-.033.14c.023-.001.054.008.067-.003.041-.038.059-.083-.034-.136zm12.098.646l-.305-.024c-.173-.016-.299-.108-.399-.244l-.064-.081c-.044-.055-.073-.109-.043-.185s.028-.16.065-.228c.032-.059.092-.108.149-.147a.73.73 0 0 1 .203-.094c.087-.025.178-.037.268-.047.062-.006.127.006.189.003.303-.018.514.13.672.372.067.102.018.207-.022.303-.052.125-.156.213-.269.276-.082.045-.183.058-.278.078-.053.011-.11.006-.165.009zm-.752-.616a1.08 1.08 0 0 1 .375-.219 1.23 1.23 0 0 1 .616-.047c.12.017.207.1.305.161.046.029.096.053.157.086-.006-.033-.006-.042-.01-.049a.67.67 0 0 0-.463-.329c-.059-.011-.121-.019-.18-.016-.128.006-.258.011-.384.036-.084.017-.163.066-.242.105a.3.3 0 0 0-.175.273zm.759.34c.093 0 .174-.012.228-.074.085-.098.09-.266.023-.379-.009-.015-.033-.031-.049-.03l-.367.032c-.049.007-.113.022-.139.057s-.011.096-.006.144c.004.037.011.082.034.109.076.085.154.174.276.142zm.525.074c-.028-.006-.046.003-.064.013-.093.056-.194.041-.296.042-.249.003-.478-.073-.706-.158l-.206-.076c.086.157.191.278.358.308a2.58 2.58 0 0 0 .44.032.8.8 0 0 0 .366-.093c.038-.019.073-.045.109-.068zm-.28-.002c.036.003.065.011.09.005a.34.34 0 0 0 .229-.196c.018-.036.037-.072.048-.111.006-.019.002-.053-.011-.064a2.51 2.51 0 0 0-.197-.142c-.019-.012-.046-.012-.085-.021.096.199.026.36-.075.529zm-.603-.469c-.14.067-.29.075-.392.205l.471.142c-.058-.111-.112-.21-.079-.347zm1.667.764l-.005-.109c.028.013.05.035.061.061.003.006-.031.027-.056.049zm-.651 3.246c.021-.009.041-.026.063-.027a.86.86 0 0 1 .176.006c.151.027.277.105.368.223.041.053.049.135.065.205.038.167-.023.315-.093.46-.027.056-.044.118-.079.167-.046.065-.105.122-.16.18-.006.006-.027-.002-.041-.004.003-.017 0-.036.009-.049l.143-.214c.02-.034.024-.076.033-.116.025-.111.061-.222.068-.334s-.006-.224-.116-.304c-.098-.071-.189-.148-.315-.161l-.109-.013-.011-.021zM8.105 1.723l.068.007c.015.105-.001.123-.101.107-.019-.003-.05-.031-.048-.045.007-.06.024-.119.039-.186l.07.033-.03.065z"/><path d="M16.986 5.669c-.004-.088.063-.165.133-.134.061.027.118.06.184.077.006.002.014.019.013.027-.012.058-.01.129-.044.17s-.104.043-.163.006c-.106-.064-.119-.075-.122-.146zm-2.31 7.726c-.131.021-.227.097-.306.198-.035.045-.064.097-.104.137-.058.057-.124.106-.188.156a.75.75 0 0 1-.108.067c-.037.02-.054.005-.052-.03l.012-.188c.058-.02.1-.063.133-.113.043-.064.089-.127.082-.211l-.017-.329c-.002-.05.026-.065.071-.041.005.003.011.005.018.009-.001-.024-.011-.055-.002-.062.044-.036.02-.089.037-.131.002-.006-.01-.017-.015-.026-.008.006-.021.011-.023.018-.004.019-.001.039-.004.059-.002.013-.005.03-.013.037-.045.032-.094.007-.114-.044-.036-.091-.003-.171.033-.248a.6.6 0 0 0 .072-.255.65.65 0 0 0-.045-.243.32.32 0 0 1-.025-.132v-.076a.2.2 0 0 1 .057-.149c.025-.025.047-.053.069-.08a.66.66 0 0 1 .274-.191c.026-.01.057-.011.086-.01.041.001.052.02.033.056-.007.013-.023.023-.025.037s.001.037.007.055c.002.006.02.012.028.01s.021-.013.026-.023c.009-.02.012-.043.02-.063.024-.057-.004-.096-.065-.109-.118-.025-.21.038-.297.095s-.146.13-.213.191l-.043-.203c-.012-.045-.012-.083.03-.114.011-.008.019-.025.023-.039.008-.032.02-.064.019-.096l-.015-.222c-.008-.057-.027-.111-.042-.168l.075-.018.033.06c.012-.022.008-.038.005-.054-.002-.011-.001-.023-.001-.034l-.002-.139c-.001-.01-.018-.018-.027-.027-.007.01-.018.018-.02.029s.002.027 0 .041-.011.03-.017.045c-.012-.011-.03-.02-.036-.033-.009-.02-.011-.043-.013-.065l-.028-.393c-.006-.083-.048-.15-.103-.209-.01-.011-.024-.022-.037-.027-.025-.008-.035-.025-.036-.047v-.098c.001-.01.009-.022.018-.029l.153-.127c.061-.06.117-.127.173-.192.012-.013.02-.031.027-.047.022-.054.035-.061.093-.047s.069.041.049.097c-.008-.001-.015-.004-.023-.004s-.019.003-.028.005c.003.009.002.022.009.027.014.01.04.027.046.023.017-.013.034-.035.038-.055.012-.064-.027-.119-.089-.134s-.072-.008-.103.039c-.043.064-.083.132-.136.187-.072.075-.154.14-.236.213-.014-.047-.02-.086-.038-.119s-.009-.044.016-.06c.083-.054.11-.145.131-.231.018-.075-.013-.146-.061-.208-.02-.025-.036-.053-.061-.091.03 0 .05-.004.067.001s.037.02.055.031c.023-.027.005-.035-.014-.046-.047-.026-.05-.058-.01-.095.01-.01.013-.028.023-.049-.075.012-.073.012-.085.075-.004.02-.016.051-.063.031.012-.035.017-.075.037-.104a.27.27 0 0 0 .058-.167c-.002-.088-.042-.107-.098-.123-.033-.009-.044-.025-.046-.053-.002-.036 0-.072 0-.113.018.004.034.003.044.01l.138.088.095.073c.02.015.047.024.058.043.023.042.036.089.055.132.009.019.021.045.037.051.028.009.059.006.079-.027a.24.24 0 0 0 .032-.127c-.06-.008-.055.032-.059.069-.002.015-.018.029-.027.044-.01-.015-.023-.029-.03-.045-.027-.056-.043-.123-.083-.169-.053-.061-.114-.121-.197-.146l-.122-.033c-.014-.005-.025-.017-.033-.023l.082-.084c.077-.084.096-.187.1-.296.004-.116-.02-.227-.051-.337-.027-.093-.039-.19-.089-.276-.01-.018-.005-.045-.007-.07l.056.008c-.023-.062.011-.09.057-.112.011-.005.02-.022.025-.035.007-.02.004-.047.016-.062.019-.024.038-.044.02-.076-.014-.024-.022-.052-.041-.07a.31.31 0 0 0-.255-.083c-.03.002-.06.018-.089.015-.13-.01-.239.045-.348.102-.035.018-.047.068-.023.098.013.018.014.031 0 .05-.03.04-.026.05.016.079.008.006.015.014.023.02l-.033.036c.019.036.029.003.043-.002s.041-.006.06-.002c.005.001.01.033.004.045-.023.045-.052.086-.077.13-.039.069-.055.146-.064.224-.006.053-.022.105-.024.158a1.64 1.64 0 0 0 .052.452c.012.048.018.114.092.12.005 0 .013.021.012.032s-.012.023-.019.023c-.069.002-.089.056-.114.105s-.044.099-.098.13c-.042.024-.071.069-.108.102a.28.28 0 0 1-.069.051c-.01.005-.037-.009-.043-.02-.015-.033.004-.061.038-.072.008-.003.014-.011.023-.018-.009-.007-.014-.013-.02-.014-.035-.008-.055.009-.071.066-.008.029-.016.059.019.079s.061.014.088-.009l.2-.174c.018-.017.031-.04.044-.061l.049-.096c.018-.031.043-.05.083-.04.011.068.024.122-.029.166-.002.062-.015.125 0 .179.024.087.036.121.152.102.036-.006.076.012.119.02-.042.081-.092.06-.139.026-.006.014-.008.025-.014.033l-.048.06c-.016.024-.008.036.026.04.001-.007-.001-.016.002-.02.015-.015.031-.041.047-.042.031 0 .034.033.027.055-.018.053-.034.107-.062.153-.039.063-.049.129-.023.192.022.054.062.102.101.146.018.02.049.034.076.038s.036.021.034.044-.008.037-.012.061c-.047-.009-.098-.009-.141-.029-.089-.041-.179-.059-.277-.042-.053.01-.101.023-.124.08-.012.03-.012.053.017.071.041.026.072.025.097-.013.009-.013-.002-.04-.005-.062l-.047.016c.008-.018.019-.029.033-.032a.35.35 0 0 1 .245.02c.053.027.109.025.162.04.018.005.037.027.043.045.01.031.01.066.012.099.001.012-.002.025-.004.037-.005.035-.016.071-.015.106.002.056.017.112.017.169-.001.083-.009.166-.016.249l-.019.148c-.002.01-.007.021-.013.029-.018.021-.024.043-.011.068-.017.009-.035.026-.05.023-.031-.005-.067-.015-.087-.036-.027-.03-.047-.071-.001-.114-.022-.003-.043-.006-.053.003-.02.019-.017.089 0 .103l.082.063c-.026.052-.064.098-.032.156.007-.014.005-.03.008-.044a.2.2 0 0 1 .016-.046c.018-.04.054-.062.077-.042s.044.046.047.072c.011.078.009.158.02.236.012.089.031.177.131.216.009.003.018.02.019.032l.001.206c0 .024-.01.033-.033.032l-.1-.009c-.016-.002-.033-.002-.048-.008l-.207-.079c-.033-.011-.071-.014-.106-.01-.06.006-.119.023-.179.03-.068.008-.123.044-.179.077-.007.004-.011.015-.016.022-.023.033.016.054.017.083.001.044.026.062.069.064.019 0 .038.009.058.013-.003.027.005.042.014.056.009-.008.024-.013.027-.023a.07.07 0 0 0-.065-.107l-.032-.008c-.028-.008-.035-.033-.025-.059.012-.034.042-.043.069-.049l.222-.042c.061-.007.125-.007.182.026a.35.35 0 0 0 .163.057.11.11 0 0 1 .054.019c.028.017.053.038.082.056.055.035.067.139.021.184-.018.018-.037.039-.047.062a.69.69 0 0 0-.05.258 1.63 1.63 0 0 0 .008.175l.023.214c.004.049.011.1-.022.143-.063-.027-.071-.043-.062-.102.002-.016-.004-.034-.007-.051-.032.037-.058.074-.034.118.014.025.005.039-.016.051s-.045.027-.032.055.042.013.065.006c.015.019.018.037.014.053l-.044.167c-.015.072-.043.144-.021.219l.048.178c.013.055.031.104.087.132.012.006.018.032.019.049 0 .004-.025.017-.039.016-.043-.002-.087-.003-.127-.015-.106-.031-.208-.075-.319-.092-.085-.014-.169-.035-.255-.025-.035.004-.07.02-.103.036s-.032.044-.019.077c.02.051.063.07.104.082l.018.069c.023-.029.045-.045.05-.065s-.005-.046-.018-.061c-.009-.01-.036 0-.053-.005s-.047-.019-.047-.027c.002-.027.023-.043.053-.039.041.005.082.017.122.016.109-.002.214.014.319.042.087.023.17.052.236.113.023.021.042.053.047.083.006.04-.006.083-.005.124s-.009.084-.043.117c-.02.019-.037.041-.051.065-.074.127-.118.262-.109.41.007.094-.027.179-.045.269h-.081c-.026-.002-.043-.012-.065-.018l.028-.06c-.002-.013-.008-.021-.013-.02-.023.002-.053.048-.052.077.002.035.02.054.055.055h.109c.032.002.047-.009.056-.04.024-.087.048-.172.042-.264a.7.7 0 0 1 .11-.396c.018-.031.043-.057.065-.086.017.021.023.039.026.057.012.058.073.095.113.065l.152-.12.038.067c.039 0 .039.003.053.044.05.149.055.304.058.459v.139a.05.05 0 0 0 .058.059h.084c.079 0 .101-.022.102-.099.001-.052-.026-.079-.077-.077-.013 0-.026.009-.039.015.012.006.025.011.036.019.016.011.043.022.045.036.009.044-.018.071-.065.073-.021.001-.042-.001-.063 0-.035.002-.048-.011-.047-.048.001-.166.005-.331-.033-.494-.015-.067-.025-.136-.082-.184-.042-.036-.08-.075-.053-.138 0-.056.023-.085.065-.107.143-.075.278-.162.368-.3.068-.106.151-.193.269-.241.027-.011.055-.017.085-.025l.009.086c.016-.019.019-.038.021-.056.005-.043-.009-.056-.05-.049zm-.6-1.3c0 .055-.009.11-.018.164-.005.037-.051.085-.067.072-.029-.022-.069-.054-.07-.083-.003-.107.01-.214.012-.321l-.006-.343-.009-.179-.007-.078c.03-.017.053-.005.062.022l.054.188c.014.07.02.142.03.213.004.03.012.059.013.09l.008.255zm-.226-2.004c-.002.032.005.065.008.097 0 .005-.002.01-.006.02-.071-.16-.127-.318-.121-.505.031.047.067.082.08.125.026.085.045.173.039.264zm-.167-.46c-.035.002-.044-.024-.041-.043s.015-.045.05-.044.032.023.031.047c.005.03-.01.037-.04.039zm.01.395l.051.131c-.051-.012-.065-.026-.051-.131zm-.428-2.857c.088-.041.175-.086.272-.097.05-.006.103.001.154.008.043.006.085.019.127.032.051.017.092.078.087.13-.011-.006-.023-.009-.028-.016-.037-.046-.088-.065-.144-.072a.59.59 0 0 0-.252.007.6.6 0 0 0-.169.081c-.022.015-.064.008-.072-.013-.012-.027-.002-.047.026-.06zm.007.196c-.015-.007-.03-.024-.033-.038s.018-.025.031-.033l.137-.077c.036-.016.075-.023.102-.03.098.015.188.004.266.053.024.015.052.028.067.05.012.016.011.045.006.067s-.022.031-.049.02c-.015-.007-.04-.008-.053.001-.05.032-.105.022-.159.022l-.238-.009c-.027-.002-.054-.013-.078-.025zm.056 1.155c-.01.008-.042.004-.047-.004-.017-.031-.029-.065-.037-.099a1.08 1.08 0 0 1-.029-.141c-.017-.134-.038-.268-.003-.404.011-.043.002-.091.018-.131.026-.067.064-.129.096-.194l.036-.081c.006-.011.02-.024.03-.024l.15.007h.177c.015 0 .029-.008.044-.012.001.006.004.014.001.02-.04.093.024.159.059.235.026.058.045.122.049.185l.01.43c.001.053-.072.148-.122.162-.012.003-.023.009-.035.014-.021-.016-.038-.031-.023-.062.007-.014 0-.033.002-.05l.017-.096c.008-.042.01-.085.024-.124.023-.063-.019-.112-.029-.167-.02.01-.023.022-.02.05.005.043.008.086.006.13-.001.019-.016.037-.028.061-.016-.03-.025-.052-.04-.068-.009-.011-.034-.022-.041-.017-.013.009-.022.029-.027.045s-.001.029-.009.045l-.028-.041c-.024-.041-.047-.043-.071-.001-.011.02-.015.043-.023.065-.044-.01-.09-.059-.085-.107.008-.083.018-.167.037-.248.013-.053.044-.102.066-.153.004-.01.007-.02.004-.032-.061.071-.107.15-.124.242-.011.058-.023.117-.024.176-.002.071.018.138.077.187.006.005.014.013.013.019-.005.069-.013.138-.074.183zm.189.263c-.043.012-.082-.004-.098-.051-.023-.067-.017-.134.016-.197.005-.01.025-.024.028-.022.018.012.047.028.048.044.006.058.002.117.002.176a.44.44 0 0 0 .004.05zm-.049-.35c-.02-.017-.035-.053-.012-.078a.15.15 0 0 1 .077-.045c.055-.014.072.004.072.062 0 .008.002.018 0 .025-.008.028-.012.068-.048.068-.03 0-.065-.013-.089-.032zm.13-.261c.025.01.037.025.05.043l-.037.019-.012-.062zm.048.679c-.032.037-.089.043-.123.016.028-.033.072-.04.123-.016zm-.005-.074c-.031.001-.051-.014-.045-.052.004-.026.001-.053.001-.079s.004-.043-.001-.063c-.01-.043.022-.062.047-.083.006-.005.034.003.041.013.047.065.059.141.055.219 0 .01-.008.024-.016.027-.027.009-.055.018-.082.019zm-.049.989c-.025-.004-.061.002-.075-.013-.059-.062-.112-.133-.112-.224 0-.034.023-.068.037-.101.03-.07.075-.137.06-.221l.043-.014c.028-.013.045-.032.044-.067s-.022-.045-.047-.05a1.18 1.18 0 0 0-.147-.017c-.026-.001-.043-.008-.051-.033-.018-.054-.05-.106-.026-.166l.037-.087.178.132c.04.027.121.002.141-.04s.058-.06.095-.074c.052-.019.118.038.122.094.003.043-.014.074-.038.107-.03.041-.067.079-.065.137a.08.08 0 0 0 .023.058c.028.033.049.073.072.11s.043.065.057.101c.026.067-.001.13-.023.191-.012.032-.034.06-.055.089-.038.054-.062.054-.107.003l.027-.04c.025-.037.025-.072 0-.11-.008-.011-.006-.028-.007-.043-.002-.031.005-.064-.003-.093l-.064-.205c-.03.023-.024.066.035.218l-.085.024c-.013.002-.029-.005-.05-.008l.065-.264.04-.019c-.011-.005-.026-.006-.032-.014a.56.56 0 0 1-.043-.071c-.007-.012-.01-.027-.014-.04a.1.1 0 0 0 0 .08c.016.036.019.072.011.108l-.054.222c-.005.029.01.061.013.092.002.015.006.033 0 .046a.11.11 0 0 0 .002.101c.011.028-.003.066-.005.1zm.126 1.698c-.04.004-.087-.032-.105-.077-.035-.092-.035-.187-.033-.283.002-.062-.013-.114-.058-.153l.015-.048c.047-.018.055-.066.065-.104.012-.046.008-.096.011-.145l.018-.203c.013-.073.005-.141-.023-.209-.007-.017.003-.042.005-.063.026.013.042.03.049.051.013.044.053.059.084.084.004.003.027-.01.034-.02.01-.016.011-.035.017-.057.03.017.052.074.087.025.018-.025.015-.065.022-.1a.21.21 0 0 1 .084.142c.015.079.021.161.027.242.002.031-.009.064-.007.095a1.42 1.42 0 0 0 .021.173c.003.016.026.027.036.042s.021.033.017.045c-.015.054.001.103.014.154a.73.73 0 0 1 .011.326c-.004.02-.025.036-.038.053l-.085-.133a.08.08 0 0 1-.01-.039c0-.085-.001-.169-.081-.227-.006-.004-.005-.022-.003-.032.024-.117.008-.231-.016-.345-.016.01-.027.027-.026.043l.027.209c.003.022.003.044.005.075-.032-.027-.063-.065-.074-.06-.039.018-.071.051-.105.078-.004.003-.006.008-.014.017-.003-.039-.012-.074-.008-.106.009-.059.027-.117.04-.177l.041-.188c.004-.028-.01-.059-.016-.088-.019.008-.03.021-.03.035-.003.044.003.091-.005.134l-.059.233c-.007.035.002.074.005.111.002.022.001.047.012.064.02.03.049.054.08.086-.029.053-.025.116.019.179.008.011-.006.038-.012.057l-.038.105zm.165.47l-.009.306c0 .006-.006.011-.011.02a.57.57 0 0 1-.041-.214c.002-.054-.019-.108-.025-.162-.004-.037 0-.074 0-.111l.002-.181c.003-.049.013-.097.02-.145a.5.5 0 0 1 .06.179c.008.071.002.143.002.214l.001.094zm-.021-.681c-.02.005-.051.007-.062-.005s-.02-.046-.013-.064c.011-.03.034-.055.053-.082.029.034.042.066.053.099.008.026-.008.045-.029.051zm-.037-.281l-.005.057c-.039-.041-.036-.054.005-.057zm-.129 3.182c.009-.189 0-.381.059-.565-.003.19-.023.378-.043.567zm.135.009c-.009.035-.035.065-.057.095-.008.01-.028.012-.051.021l.079-.714c.026.029.034.06.041.09a1.05 1.05 0 0 1-.012.508zm.039-.765l-.087.049c-.036-.007-.061-.02-.066-.051s-.006-.059.033-.073.082-.042.127-.003c.032.027.032.056-.006.078zm-.137-.176c0-.012.014-.023.022-.034.012.013.028.025.034.04.002.007-.017.021-.034.043-.011-.023-.022-.036-.021-.048zm.092-.019c.041-.001.052.016.049.042-.001.006-.014.01-.022.015l-.027-.057zm.069.306c-.003-.02-.006-.044.002-.061.023-.049.053-.096.007-.148-.004-.005.001-.018.004-.027a.57.57 0 0 0 .03-.281c-.006-.043-.019-.084-.031-.126-.002-.006-.017-.008-.026-.012a.35.35 0 0 0 .02.132c.026.069.02.137.001.194l-.201-.018s-.002-.013 0-.025c.006-.027.011-.055.023-.079.039-.075.057-.157.068-.24.001-.011-.005-.024-.007-.035-.007.008-.018.016-.02.025l-.057.21c-.021.065-.046.128-.035.197.007.047.009.092-.007.139-.007.02.005.052.018.073.02.033.024.061.006.095a.29.29 0 0 0-.025.082c-.004.028-.023.035-.042.018s-.047-.041-.053-.066c-.012-.053-.012-.107-.016-.161-.002-.028.005-.057-.001-.084-.013-.072.013-.138.027-.205l.022-.129c.002-.008.005-.021.011-.023.052-.02.055-.068.056-.108.001-.063-.012-.126-.018-.189-.012-.129-.043-.258-.007-.388.008-.029.003-.062.013-.09.016-.043.04-.084.06-.126.053.123.091.241.129.358l.021.002.044-.063c.068.053.153.027.179-.061l.033-.138.016.068c.032.104.043.209.001.312l-.073.162c-.04.101-.057.201.022.293.005.006.01.021.007.025-.046.062-.02.128-.012.194l.022.243c.001.053-.045.082-.08.114-.029.027-.063.05-.101.079l-.011-.04-.023-.094z"/></g><g fill="#316956"><path d="M13.771 13.589l-.06.565c-.007-.191-.015-.383.043-.567z"/><path d="M13.831 14.162c-.009.035-.035.065-.057.095-.008.01-.028.012-.051.021l.079-.714c.026.029.034.06.041.09.039.17.032.341-.012.508z"/></g><path d="M13.873 13.244c-.001.006-.014.01-.022.015l-.027-.057c.041-.001.052.016.049.042z" fill="#0f181b"/><path d="M13.788 13.227c.002.007-.017.021-.034.043-.011-.023-.022-.036-.021-.048s.014-.023.022-.034c.012.013.028.025.034.04zm.082.17l-.087.049c-.036-.007-.061-.02-.066-.051s-.006-.059.033-.073.082-.042.127-.003c.032.027.032.056-.006.078z" fill="#184137"/><path d="M13.824 10.971l-.005.057c-.039-.041-.036-.054.005-.057z" fill="#0f181b"/><path d="M13.862 11.252c-.02.005-.051.007-.062-.005s-.02-.046-.013-.064c.011-.03.034-.055.053-.082.029.034.042.066.053.099.008.026-.008.045-.029.051z" fill="#184137"/><g fill="#316956"><path d="M13.881 11.839l.001.094-.009.306c0 .006-.006.011-.011.02-.025-.072-.044-.139-.041-.214.002-.054-.019-.108-.025-.162-.004-.037 0-.074 0-.111l.002-.181c.003-.049.013-.097.02-.145a.5.5 0 0 1 .06.179c.008.071.002.143.002.214z"/><path d="M14.075 12.095c0 .055-.009.11-.018.164-.005.037-.051.085-.067.072-.029-.022-.069-.054-.07-.083-.003-.107.01-.214.012-.321l-.006-.343-.009-.179-.007-.078c.03-.017.053-.005.062.022l.054.188c.014.07.02.142.03.213.004.03.012.059.013.09l.008.255z"/></g><path d="M13.743 10.158c-.051-.012-.065-.026-.051-.131l.051.131z" fill="#0f181b"/><path d="M13.857 10.188c0 .005-.002.01-.006.02-.071-.16-.127-.318-.121-.505.031.047.067.082.08.125.026.085.045.173.039.264-.002.032.005.065.008.097z" fill="#316956"/><path d="M13.723 9.593c.005.03-.01.037-.04.039s-.044-.024-.041-.043.015-.045.05-.044.032.023.031.047z" fill="#184137"/><path d="M13.739 8.731c0 .01-.008.024-.016.027-.027.009-.055.018-.082.019s-.051-.014-.045-.052c.004-.026.001-.053.001-.079 0-.021.004-.043-.001-.063-.01-.043.022-.062.047-.083.006-.005.034.003.041.013.047.065.059.141.055.219z" fill="#316956"/><path d="M13.516 8.783c-.043.012-.082-.004-.098-.051-.023-.067-.017-.134.016-.197.005-.01.025-.024.028-.022.018.012.047.028.048.044.006.058.002.117.002.176 0 .016.002.033.004.05z" fill="#184137"/><path d="M13.604 8.397c-.008.028-.012.068-.048.068-.03 0-.065-.013-.089-.032s-.035-.053-.012-.078.049-.038.077-.045c.055-.014.072.004.072.062 0 .008.002.018 0 .025z" fill="#316956"/><path d="M13.903 7.243c-.011-.006-.023-.009-.028-.016-.037-.046-.088-.065-.144-.072a.59.59 0 0 0-.252.007.6.6 0 0 0-.169.081c-.022.015-.064.008-.072-.013-.012-.027-.002-.047.026-.06.088-.041.175-.086.272-.097.05-.006.103.001.154.008.043.006.085.019.127.032.051.017.092.078.087.13z" fill="#e7a96c"/><path d="M13.841 7.29c-.015-.022-.044-.035-.067-.05-.078-.049-.167-.038-.266-.053-.027.008-.066.015-.102.03-.047.022-.092.05-.137.077-.013.008-.033.024-.031.033.003.015.018.031.033.038.024.012.051.022.078.025l.238.009c.053 0 .108.011.159-.022.013-.009.038-.008.053-.001.027.012.044.003.049-.02s.005-.051-.006-.067zm-.546.025l.194-.089c-.059.043-.113.097-.194.089z" fill="#d5773b"/><path d="M13.497 7.244c-.067.025-.12.08-.202.072l.194-.089z" fill="#0f181b"/></svg>