<svg id="objects" xmlns="http://www.w3.org/2000/svg" viewBox="0 0 24.893 30.251"><defs><style>.cls-2{fill:#fbb040}.cls-3{fill:#0f181b}</style></defs><path class="cls-3" d="M8.148 13.043c-.003-.094-.033-.187-.056-.28-.025-.1-.06-.198-.084-.299-.01-.04-.004-.085-.008-.127-.015-.129-.028-.258-.047-.386-.026-.169-.04-.34-.09-.502-.059-.188-.148-.366-.232-.546a4.088 4.088 0 0 0-.203-.389c-.115-.19-.244-.372-.358-.563-.023-.038-.02-.107-.002-.151.04-.103.062-.2.016-.304-.027-.06-.057-.12-.079-.182-.05-.136-.124-.227-.289-.19-.012.003-.041-.027-.046-.045-.02-.091.029-.156.09-.214.094-.09.21-.165.275-.272.152-.25.141-.521.033-.787-.03-.073-.1-.115-.18-.086-.082.028-.105.097-.081.18.006.02.009.041.016.078-.034-.02-.054-.03-.071-.042-.081-.062-.155-.136-.244-.182-.095-.048-.209-.06-.306-.105-.186-.087-.378-.056-.57-.056-.03 0-.059-.032-.088-.05.023-.023.043-.061.07-.067.154-.032.31-.05.463-.086.05-.012.092-.062.137-.095-.042-.028-.08-.063-.125-.082-.16-.07-.325-.133-.486-.203-.02-.008-.044-.041-.042-.06.018-.164.042-.328.062-.491.005-.04.01-.083.006-.122-.007-.057-.036-.063-.086-.032-.116.071-.233.14-.353.203-.017.009-.067-.012-.079-.032-.072-.12-.135-.245-.208-.365-.017-.028-.061-.042-.094-.062-.013.033-.038.066-.04.1-.004.142 0 .286-.002.429-.001.08-.1.167-.169.15-.118-.032-.237-.062-.352-.104-.053-.02-.093-.087-.146-.1a.614.614 0 0 0-.406.025c-.067.03-.15.027-.237.04.009-.048.02-.071.015-.092-.008-.043-.014-.109-.042-.122a.178.178 0 0 0-.145.008.205.205 0 0 0-.085.12c-.057.23-.112.462 0 .69.05.1.005.138-.082.163-.015.004-.03.006-.044.012-.168.068-.358.254-.27.43.042.08.007.125-.05.167a.69.69 0 0 1-.1.058c-.133.068-.274.123-.4.203-.144.094-.274.209-.41.316-.064.05-.128.1-.188.153-.118.105-.241.205-.348.319-.08.085-.132.194-.208.282a2.058 2.058 0 0 0-.422.756c-.073.241-.14.486-.193.733-.077.36-.183.717-.144 1.093.02.213.035.427.071.638.04.232.095.46.15.687.05.198.087.401.165.587.105.253.233.497.37.734.148.26.314.512.479.763.118.181.246.355.37.533.203.292.424.566.688.806.027.024.04.083.034.122-.034.22-.078.439-.114.659a6.06 6.06 0 0 0-.056.424c-.011.13-.017.26-.016.39.002.097.02.194.026.291.006.115.001.23.01.345.02.24.047.477.066.716.01.127.014.254.018.377l.005.11a.068.068 0 0 0 .01-.003c.014.095.037.218.047.25.01.03.04.063.034.09-.023.112-.057.222-.085.334-.063.243-.052.489.018.724.035.12.137.218.203.329.19.319.287.66.242 1.035-.006.053-.017.106-.017.16.005.352.013.704.017 1.056.003.272.005.544-.001.815-.003.155-.023.31-.036.465-.023.282-.05.564-.067.846-.01.166-.002.333-.003.5 0 .232-.002.464.001.697.001.078.016.157.025.235.01.096.03.191.033.288.003.091-.008.183-.017.275-.009.092-.025.184-.03.276-.002.023.022.064.04.068.097.023.194.042.292.051.069.006.104.03.102.102a3.076 3.076 0 0 0 0 .215c.005.093-.041.15-.107.214-.08.08-.15.177-.2.28-.096.194-.058.403-.029.608a.109.109 0 0 0 .045.065.388.388 0 0 0 .316.048c.116-.026.134-.068.107-.189-.01-.037-.002-.079-.002-.113.175.076.336.157.504.216.16.055.33.07.496.012.083-.028.116-.097.094-.173-.025-.088-.028-.186-.069-.265-.065-.13-.133-.269-.237-.363-.09-.081-.232-.104-.35-.157-.027-.012-.064-.036-.068-.06-.018-.11-.025-.222-.036-.333-.005-.057.006-.094.076-.092.056.002.111-.01.167-.013.133-.009.197-.1.14-.22a.302.302 0 0 1-.02-.2c.038-.239.063-.48.086-.72.043-.445.088-.889.117-1.334.026-.42.036-.842.048-1.263.006-.225.001-.45 0-.674 0-.192-.011-.384.002-.575.02-.308.009-.616-.019-.922-.023-.264-.065-.527-.07-.791a3.166 3.166 0 0 0-.119-.768c-.013-.05-.002-.11-.002-.164l.028-.01c.02.03.05.057.06.09a6.09 6.09 0 0 1 .224.9c.045.278.094.557.122.837.02.207.01.417.013.626l.02 1.033.003.023c.035.429.029.855-.043 1.281-.05.3-.1.6-.125.902-.034.398-.045.798-.066 1.197-.003.06-.01.117-.013.176-.006.114-.007.228-.014.342-.015.25.026.335.273.326.028-.001.058-.01.084-.003.029.009.064.025.078.05.024.04.032.09.05.134.032.075.017.118-.06.162-.053.03-.088.103-.115.163-.021.047-.021.105-.025.158-.018.223-.025.444.105.643.06.094.142.152.25.15.098-.002.142-.068.167-.162.019-.067.058-.112.155-.058a.94.94 0 0 0 .62.131c.061-.01.127-.01.18-.037.095-.048.032-.142.042-.215a.154.154 0 0 0-.032-.104c-.038-.048-.09-.083-.131-.129-.082-.09-.073-.123-.156-.214a3.942 3.942 0 0 0-.18-.167c-.213-.154-.336-.074-.358-.291-.005-.05.01-.102.005-.153-.008-.072.031-.093.091-.103.125-.02.157-.108.086-.213a.192.192 0 0 1-.032-.107c.005-.186.015-.372.026-.558.007-.112.017-.224.026-.336.015-.19.037-.379.046-.569.008-.208.003-.418.007-.627.009-.434.025-.868.028-1.303 0-.185-.04-.37-.039-.556.002-.277.026-.553.038-.83.003-.075 0-.149.001-.223 0-.02.005-.04.006-.06l.01-.556c0-.003-.002-.005-.003-.008-.014-.074-.028-.148-.044-.223-.054-.263-.104-.528-.163-.79a8.128 8.128 0 0 0-.147-.553c-.036-.121-.09-.236-.132-.356a4.577 4.577 0 0 1-.089-.282c-.003-.012.01-.036.022-.045.164-.115.189-.28.165-.461-.002-.018 0-.035.001-.053.012-.159.03-.317.034-.476.006-.245.003-.49 0-.735 0-.047-.022-.094-.022-.14 0-.057.02-.113.022-.17.001-.072-.012-.143-.01-.214.007-.26.014-.52.03-.78.003-.045.042-.1.08-.128.076-.056.162-.1.245-.145.097-.053.208-.089.293-.157.183-.15.4-.257.563-.434.029-.03.068-.053.096-.085.024-.026.035-.065.059-.092.08-.085.165-.168.248-.252l.15-.145c.03-.029.062-.057.085-.09.07-.1.137-.203.205-.304.076-.115.165-.223.225-.346.085-.174.227-.314.283-.507.032-.113.104-.213.15-.322a.695.695 0 0 0 .05-.202c.012-.126.015-.253.016-.38.002-.248.004-.497-.005-.744ZM6.839 9.396c.025.06.042.125.067.186.031.077.012.127-.067.156l-.383.143a2.252 2.252 0 0 0-.05.019c-.024.009-.058.002-.09-.015a.233.233 0 0 1-.108-.118 1.253 1.253 0 0 1-.052-.192c-.022-.117.083-.153.15-.188.11-.06.235-.088.355-.129.094.011.147.06.178.137Zm-1.617 9.156c.019.252-.02.508-.018.762.002.128.036.256.057.383.02.115.015.117-.098.107-.097-.008-.195-.003-.292-.003-.161-.001-.321.002-.482-.004-.025 0-.068-.037-.069-.059a38.475 38.475 0 0 1-.027-.978 3.525 3.525 0 0 1 .018-.398c.029-.294.065-.587.098-.88.01-.08.017-.158.023-.237.011-.153.028-.306.028-.458 0-.192-.012-.383-.022-.574-.007-.112-.012-.226-.032-.336-.028-.164-.068-.327-.105-.49-.016-.069-.006-.105.076-.105.103 0 .103-.005.224-.183.067.08.134.144.184.22.104.162.238.318.29.497.079.26.097.54.14.81.02.132.054.262.06.394.01.206.017.414-.003.618-.03.305-.072.605-.05.914Zm-1.363-2.88c-.026-.155-.059-.303-.003-.459.024-.068.023-.144.037-.245.143.156.338.233.36.464.01.112.072.217.098.328.028.119.057.24.06.361.007.388.016.777-.003 1.165-.012.258-.074.514-.106.772-.02.161-.037.324-.04.487-.006.368-.003.735 0 1.103 0 .075-.015.11-.101.109-.106-.002-.213.02-.32.02-.027 0-.078-.041-.08-.065a19.277 19.277 0 0 1-.021-.71c-.003-.216-.001-.433 0-.65.005-.368.007-.736.018-1.105.01-.375.053-.746.125-1.115.029-.147.001-.31-.024-.46Zm-.192-1.063c-.018-.241-.037-.483-.048-.725a.51.51 0 0 0-.093-.29 1.797 1.797 0 0 0-.51-.478c-.331-.213-.509-.514-.619-.874-.02-.069-.015-.112.066-.137a.63.63 0 0 0 .172-.097c.106-.077.112-.102.038-.214-.088-.13-.196-.249-.273-.385-.207-.367-.154-.618.084-.965.138-.202.333-.18.531-.17.264.014.371.195.447.413.092.269.197.53.382.753.084.102.077.15-.044.19-.188.06-.216.214-.12.393.027.05.008.067-.031.088-.075.04-.149.08-.22.126-.098.064-.14.156-.088.253.026.048.114.062.17.09.103-.028.187-.055.272-.074.027-.006.066-.002.084.015.12.11.169.248.194.41.034.217-.001.423-.089.61a.814.814 0 0 0-.06.425c.008.129.044.256.06.385.01.085.01.173.008.26-.002.071-.041.122-.118.124-.102.003-.19-.053-.195-.125Zm.114.258c-.033.152-.062.289-.095.425-.004.02-.025.046-.042.05-.015.003-.04-.016-.054-.033a1.061 1.061 0 0 1-.216-.522.153.153 0 0 1 .145-.18c.02-.001.043.024.06.041.054.052.106.105.157.16.018.018.032.041.045.059Zm-.059-2.569c-.091.033-.186.056-.28.083l-.022-.05c.087-.053.172-.114.265-.157.023-.01.072.034.11.053-.024.025-.044.06-.073.071Zm.025.14c-.059.015-.118.028-.176.041l-.01-.04.177-.04.01.04Zm.332 2.048c.122 0 .324.14.363.252.03.09.056.184.073.277.023.132-.106.238-.216.169-.131-.083-.247-.192-.364-.295-.032-.028-.022-.053.024-.09.058-.047.085-.135.118-.209.012-.027.002-.065.002-.104Zm-.32 5.532c.003-.027.043-.068.07-.073a4.63 4.63 0 0 1 .372-.044c.027-.003.062.003.082.02.012.011.011.063 0 .07-.023.014-.057.014-.087.013-.058-.003-.122-.028-.173-.011-.041.013-.068.073-.101.112.03.008.06.023.09.025.087.005.174.002.26.012.013.002.03.051.03.078 0 .017-.031.045-.05.046-.048.004-.097-.004-.145-.007v.002c-.044 0-.087.002-.131 0-.187-.01-.232-.056-.216-.243Zm1.382-4.267c-.073-.14-.146-.282-.236-.41-.09-.126-.2-.236-.299-.355a.142.142 0 0 1-.025-.076.424.424 0 0 0-.164-.316c-.089-.068-.171-.145-.266-.203-.129-.079-.119-.21-.13-.324-.02-.215.007-.424.092-.63.1-.244.07-.493-.052-.726-.043-.084-.11-.155-.158-.236-.02-.032-.036-.08-.029-.114.02-.097-.013-.175-.059-.254a1.248 1.248 0 0 1-.07-.135c-.053-.123-.037-.158.092-.203.086-.03.188-.043.205-.156a.266.266 0 0 0-.018-.16c-.057-.099-.14-.183-.195-.283-.058-.105-.088-.228-.149-.332-.116-.202-.18-.44-.391-.579-.024-.016-.04-.053-.047-.083-.027-.125-.083-.166-.218-.159-.18.01-.36.018-.54.02-.213.001-.342.125-.447.288-.027.04-.047.085-.068.128a2.15 2.15 0 0 0-.224 1.013c.008.218.077.431.28.56.18.115.251.292.332.478.149.34.349.642.672.858.176.118.372.241.443.469a.394.394 0 0 1 .019.08l.046.48c.007.07.006.13-.08.163-.113.043-.164.141-.162.256a.337.337 0 0 1-.082.221c-.115.155-.22.316-.326.472-.318-.2-.62-.436-.765-.809-.12-.309-.213-.628-.32-.942-.026-.077-.062-.151-.091-.227-.035-.09-.073-.177-.101-.269a20.125 20.125 0 0 1-.183-.62c-.016-.058-.012-.121-.024-.18-.016-.078-.038-.154-.057-.23-.042-.17-.109-.34-.118-.512-.008-.147.039-.302.081-.448.053-.185.134-.362.188-.546.049-.163.09-.33.113-.499.027-.207.172-.355.242-.54.02-.057.042-.117.076-.167.114-.164.213-.346.355-.482.262-.248.55-.47.828-.7a.096.096 0 0 1 .062-.022.455.455 0 0 0 .348-.127c.058-.05.124-.09.182-.139.06-.052.096-.108.038-.191-.044-.063-.038-.13.049-.157.108-.035.217-.07.327-.097.086-.022.174-.035.26-.052.01-.002.021-.008.03-.007.064.012.128.036.19.034.062-.002.122-.03.202-.052-.01.047-.018.08-.023.115-.02.159-.042.318-.06.477-.002.019.01.045.025.058.007.006.04-.006.052-.018.052-.059.102-.119.15-.181.075-.096.147-.193.23-.304.045.048.09.088.122.137.01.016 0 .062-.016.078-.093.089-.127.266-.079.395.086.227.241.403.42.557.091.077.21.121.31.19a.302.302 0 0 1 .089.12c.024.053.039.111.049.169.004.028 0 .07-.019.088-.099.102-.11.205-.037.324.043.07.079.148.108.226.037.097.083.124.186.114.039-.004.102.017.119.046.108.193.216.388.307.59.048.107.06.23.094.344.094.305.115.625.1.935-.017.341-.043.682-.06 1.023a5.415 5.415 0 0 1-.121.845c-.03.146-.111.282-.17.423-.042.1-.083.202-.131.299-.083.163-.161.33-.262.482-.042.065-.14.09-.204.144-.23.192-.457.388-.685.583-.062.054-.116.039-.152-.03Zm-3.12-4.638.236.525c-.095-.04-.26-.432-.237-.525Zm.135.534-.042.02-.181-.38.048-.025.175.385Zm-.066-.995-.019.288c-.066-.112-.061-.202.02-.288Zm2.488-3.298v-.26c-.002 0 .009-.006.018-.004l.196.036c-.039.045-.076.09-.116.133-.027.03-.058.057-.098.095Zm.73.645c.042.018.08.048.119.073 0 .014-.002.028-.003.041-.027.019-.054.05-.082.053-.09.005-.063-.082-.086-.128-.002-.005.041-.043.051-.04Zm.453-.337c.02-.004.045.014.094.033-.047.026-.07.047-.09.046-.023 0-.044-.024-.065-.037.02-.015.039-.04.06-.042Zm-.159.364c.011-.042.027-.083.047-.14.146.037.297.072.445.116.092.027.122.162.057.26-.06.094-.143.164-.266.144a.336.336 0 0 1-.255-.204c-.013-.027-.034-.053-.038-.082a.242.242 0 0 1 .01-.094Zm-.005.31c.107.197.47.204.588.011.036-.06.076-.127.08-.193.008-.142-.052-.204-.206-.251-.067-.02-.135-.04-.217-.062.035-.056.07-.146.092-.142.103.014.223.029.299.09.176.144.245.352.238.579-.001.042-.033.084-.05.127-.007.022-.011.046-.02.083a.344.344 0 0 0 .14-.392c-.042-.112-.092-.22-.139-.33-.008-.02-.014-.042-.025-.073.133.022.186.12.233.21.06.117.089.244.03.377-.01.023.008.06.013.091.024-.023.064-.043.067-.068.01-.084.008-.169.007-.253 0-.028-.01-.057-.015-.085l.027-.015c.026.037.05.075.08.108.019.021.048.034.073.05.01-.029.031-.06.027-.088-.01-.074-.036-.147-.05-.221-.005-.033.006-.068.027-.104.01.098.042.169.144.188.01.002.024.028.026.044.019.221.019.441-.137.623a1.246 1.246 0 0 1-.193.17.401.401 0 0 0-.155.296c-.004.027-.03.06-.054.075-.04.026-.087.043-.132.06-.177.066-.199.054-.254-.131a.32.32 0 0 0-.212-.221c-.314-.109-.537-.308-.629-.62l.212-.13c.022.052.047.127.084.196ZM4.584 6.934a.751.751 0 0 1 .142-.088c.067-.03.135-.053.144-.141 0-.012.033-.031.048-.029.106.018.189-.014.272-.084.067-.055.155-.085.234-.124.01-.005.038 0 .04.007a.087.087 0 0 1-.004.05c-.041.11-.079.22-.128.326-.046.097.015.132.082.162.137.061.277.117.416.176.019.009.037.022.083.05-.094.012-.157.02-.22.031-.045.009-.091.017-.133.034-.11.046-.124.084-.1.197.019.084.029.17.04.254.001.014-.01.03-.016.046-.013-.006-.029-.008-.038-.018-.076-.078-.156-.153-.225-.237-.064-.078-.118-.076-.167.012-.071.126-.15.248-.225.37-.003.006-.013.007-.039.017.019-.097.03-.185.052-.27.021-.077.054-.152.082-.228.02-.06-.01-.086-.063-.083-.061.003-.123.016-.184.025l-.015-.031c.083-.07.166-.137.247-.208.025-.021.043-.05.065-.077-.032-.01-.062-.03-.094-.032-.088-.005-.177 0-.265-.006a.092.092 0 0 1-.066-.04c-.006-.01.017-.047.035-.06Zm-.052.281c-.052.037-.082.074-.116.078-.02.002-.045-.047-.068-.074.036-.023.07-.049.109-.065.01-.003.033.027.075.061Zm-.105-.495c.007 0 .012.036.018.055h-.11l-.005-.043c.033-.005.065-.013.097-.012Zm-1.239.276a.726.726 0 0 1 .022-.307c.009-.036.08-.058.122-.086.008.014.024.027.022.04-.007.08-.022.162-.025.242-.002.029.025.058.038.087.017-.025.041-.048.049-.075.017-.063.019-.131.043-.19.012-.028.064-.038.097-.056-.003.031-.002.064-.011.094-.022.068-.053.133-.074.2-.007.023.007.05.01.076.02-.02.044-.036.057-.059.05-.09.086-.19.147-.27.035-.046.109-.063.165-.093l.018.03c-.006.009-.01.022-.02.027-.154.083-.208.23-.244.386-.006.026.013.058.02.087.023-.025.057-.046.068-.076.025-.061.034-.128.055-.19.053-.152.197-.137.315-.156.091-.015.188-.022.24.095.015.032.075.043.114.064l-.006.036c-.089-.008-.18-.01-.267-.025-.163-.026-.269.017-.346.16a.13.13 0 0 0-.01.093c.034.1.237.183.333.141.028-.012.057-.023.084-.037.054-.025.09-.02.11.045.01.034.043.06.07.096a.23.23 0 0 1-.216.15c-.173.004-.32.076-.47.146-.01.004-.02.005-.023.007L3.43 7.38c-.013-.015-.025-.037-.042-.044-.151-.063-.171-.212-.2-.34Zm1.154.107c-.141.042-.24.178-.391.097-.044-.024-.105-.084-.1-.118.009-.05.064-.123.109-.13.105-.016.215 0 .356.005-.097.09-.035.112.026.146Zm-1.35.506.2-.106c.045.035.086.06.118.093.074.074.143.152.215.227.118.123.11.206-.032.303l-.007.003c-.181.115-.183.116-.328-.046a3.58 3.58 0 0 1-.219-.26c-.072-.1-.055-.156.054-.214Zm-.611 8.665c-.245-.297-.478-.601-.652-.949-.092-.183-.222-.346-.33-.521-.111-.177-.227-.352-.324-.536a5.086 5.086 0 0 1-.278-.61c-.056-.156-.08-.325-.109-.49-.06-.337-.114-.676-.17-1.014l.03-.004c-.054-.232.035-.449.074-.67.041-.239.083-.477.137-.712.061-.269.15-.529.268-.78.062-.13.114-.27.136-.411.026-.156.12-.263.203-.38.246-.343.54-.64.888-.878.149-.102.308-.188.466-.277.139-.078.14-.075.247.051l.016.017c.124.12.129.133-.012.24-.153.116-.317.22-.475.33-.182.128-.378.238-.523.415-.121.147-.275.27-.382.425a1.852 1.852 0 0 0-.343.9 3.885 3.885 0 0 1-.19.896c-.099.3-.101.59-.03.9.058.249.185.457.278.684.054.13.109.26.16.39.05.128.098.256.142.386.03.09.047.182.074.272.054.18.105.36.17.537.068.191.148.38.227.567.1.239.269.405.513.507.322.134.573.348.669.703.033.126.028.312-.102.376a.408.408 0 0 1-.47-.073c-.096-.103-.219-.183-.308-.291Zm.388.908c0-.004.007-.007.016-.015.104.067.203.042.302-.024.044-.029.097-.046.147-.064.156-.056.233-.184.263-.331.046-.226.082-.456.015-.686-.005-.017-.007-.037-.018-.05-.012-.015-.033-.024-.05-.035-.003.02-.01.04-.009.06.005.219.05.438-.012.657-.047.164-.162.268-.304.344-.085.045-.18.074-.274.1-.053.014-.078-.014-.065-.076.014-.07.019-.141.023-.212.003-.068.026-.093.1-.087.29.025.519-.176.435-.488a.893.893 0 0 0-.204-.387c-.067-.074-.089-.155-.02-.254.069-.1.112-.216.17-.323.021-.04.053-.074.08-.111.08.085.153.168.233.243.03.029.082.033.116.059.038.029.087.067.096.108.049.223.06.446.02.675a7.68 7.68 0 0 0-.089.828c-.017.291-.01.583-.02.875-.002.106-.022.211-.027.317-.002.041.015.084.022.126.003.025.007.05.006.076-.01.21-.025.421-.028.632-.003.188.01.376.013.565.002.088-.062.147-.15.158-.223.026-.445.057-.667.084-.037.005-.075.001-.118.001v-.4c0-.039.009-.082-.005-.114-.053-.128-.021-.255-.013-.384.003-.046-.022-.094-.024-.14-.006-.133-.004-.265-.008-.397a1.122 1.122 0 0 0-.014-.167c-.068-.393-.007-.778.062-1.163Zm.857 3.026c0 .022-.03.063-.048.065-.203.013-.427-.008-.666.028 0 0-.1.015-.183-.021-.01-.005-.004-.176-.009-.256.095-.014.19-.02.286-.034.166-.024.332-.052.499-.077.056-.008.093.007.096.074.005.074.023.147.025.22Zm.045 9.075c-.114.024-.224-.055-.247-.179.11.025.185.166.317.079l.016.031c-.028.024-.054.062-.086.069Zm.094-.324c-.01.062-.044.115-.122.112-.073-.002-.118-.033-.132-.108-.017-.086-.038-.173-.057-.259.004-.156.017-.155.177-.145.122.008.145.064.139.166-.005.078.006.158-.005.234Zm.323-.475a44.57 44.57 0 0 1-.888-.015c-.03 0-.06-.017-.09-.026l.002-.024c.08-.017.16-.045.24-.048.245-.009.49-.01.734-.007.03 0 .062.044.093.067-.03.019-.06.053-.09.053Zm1.195.433c-.005.025-.048.05-.077.057-.019.004-.059-.023-.065-.043-.03-.093-.051-.189-.08-.298.088 0 .145-.005.202.002.016.002.04.036.04.055a1.214 1.214 0 0 1-.02.227Zm.268-.431c.002.012-.019.04-.03.04-.268.013-.537.062-.804-.008a.124.124 0 0 1-.034-.015c-.006-.004-.008-.013-.031-.056.104-.007.19-.017.274-.018.169-.002.338 0 .506 0 .028 0 .059-.003.084.006.016.006.032.032.035.051Zm-.233-7.05c.05.198.097.397.123.599.023.174.023.354.02.531-.001.17-.02.341-.032.512-.019.251-.052.503-.054.755-.003.213.014.429.049.64.044.27.096.536.084.812-.009.21.004.421.004.632 0 .186 0 .37-.007.556-.01.29-.03.581-.039.872-.004.147.018.296.004.441-.013.146-.054.29-.089.432-.005.022-.041.049-.064.05-.218.02-.437.034-.684.05 0-.086-.002-.177 0-.267.003-.104.008-.209.015-.313.019-.262.041-.523.058-.785.007-.101-.006-.204.005-.304.035-.326.069-.653.117-.978.05-.336.067-.672.039-1.01-.012-.145-.004-.291-.004-.437 0-.38-.003-.761.001-1.142.003-.293-.056-.577-.106-.863-.043-.246-.062-.495-.11-.74-.029-.153-.087-.3-.14-.448a1.233 1.233 0 0 0-.109-.236c-.022-.037-.075-.08-.112-.078-.063.004-.133.033-.12.125.02.152.046.305.062.457.02.188.013.38.053.564.058.273.028.546.04.818.005.094.03.186.028.28-.002.129-.022.258-.028.388-.01.189-.02.378-.02.567-.003.281.018.564 0 .845-.024.386-.083.77-.111 1.156-.028.376-.068.753-.014 1.132.017.124-.014.254-.024.38-.015.183-.023.366-.049.547a.529.529 0 0 1-.099.22c-.023.033-.087.044-.134.049-.216.022-.431.038-.648.058-.063.005-.088-.013-.084-.085.01-.21.018-.419.015-.628-.003-.252-.025-.505-.023-.757.002-.19.03-.38.048-.571l.006-.03c.016-.26.03-.52.05-.78.004-.073.019-.146.029-.219.03-.214.066-.427.087-.642.01-.108-.01-.22-.011-.33-.002-.282.006-.566-.004-.85-.01-.248-.033-.497-.057-.745a2.158 2.158 0 0 0-.217-.798c-.067-.129-.152-.247-.223-.374-.138-.246-.143-.512-.105-.78.015-.106.044-.21.074-.312.006-.022.044-.048.068-.05.208-.01.417-.022.625-.021.084 0 .172.02.25.053.194.08.39.087.59.033l.008-.001c.148-.13.312-.018.467-.03.237-.02.244.158.288.308.074.247.15.493.214.743Zm-.112-1.14c-.027.028-.086.041-.13.039-.216-.013-.433-.033-.617-.047-.008-.11-.012-.183-.02-.255-.002-.02-.015-.038-.02-.058-.022-.11-.01-.128.102-.125.224.007.448.015.671.033.034.003.083.054.091.09a.342.342 0 0 1-.077.322Zm2.732-6.354c0 .19-.104.339-.191.492-.092.162-.193.32-.303.471-.07.095-.166.171-.245.26-.042.046-.076.1-.112.152-.12.169-.236.34-.362.504-.092.12-.198.23-.296.346-.086.098-.163.206-.256.296a1.624 1.624 0 0 1-.6.366c-.051.018-.103.034-.16.053-.016-.107-.028-.214-.052-.319a1.523 1.523 0 0 0-.09-.272c-.038-.084-.036-.332.023-.388.046-.044.103-.078.157-.115.235-.165.48-.317.702-.497a1.3 1.3 0 0 0 .362-.42c.087-.176.195-.34.283-.514.047-.092.073-.195.102-.294.035-.12.072-.24.092-.363.035-.228.1-.45.09-.687-.01-.261.02-.524.026-.787.005-.235.015-.472-.006-.706-.02-.22-.056-.44-.179-.64-.15-.245-.28-.504-.418-.757-.028-.052-.041-.107.037-.126a4.63 4.63 0 0 1 .346-.075c.021-.004.057.022.071.044.135.213.269.426.396.643.037.064.047.144.072.216.049.14.083.29.154.42.149.271.214.562.212.865 0 .214.07.411.099.616.039.274.054.552.068.829.007.128-.022.258-.022.387Z"/><path d="M3.797 7.038a.13.13 0 0 0-.01.093c.034.1.236.184.333.141.028-.012.056-.023.084-.037.053-.025.089-.02.11.045.01.034.043.06.07.096a.23.23 0 0 1-.216.15c-.173.005-.32.076-.47.146-.01.004-.02.005-.024.007L3.43 7.38c-.012-.015-.024-.037-.041-.044-.151-.063-.172-.211-.2-.34a.726.726 0 0 1 .022-.307c.008-.036.08-.058.122-.086.008.014.023.027.022.04-.007.081-.022.162-.026.243 0 .028.025.057.039.086.017-.025.041-.048.049-.075.017-.063.019-.131.043-.19.012-.028.063-.038.097-.056-.004.031-.002.064-.011.094-.023.068-.053.133-.075.2-.006.023.007.05.012.076.019-.02.043-.036.056-.059.05-.09.086-.19.147-.27.035-.046.109-.063.165-.093l.018.03c-.006.009-.01.022-.02.027-.154.083-.209.23-.244.387-.006.025.013.057.02.086.023-.025.057-.046.068-.076.024-.06.034-.127.055-.19.053-.152.196-.137.315-.156.091-.015.188-.022.24.095.014.032.075.043.114.064l-.006.036c-.089-.008-.18-.01-.267-.025-.163-.026-.269.017-.346.16Z" style="fill:#eac3a7"/><path class="cls-2" d="M5.913 7.24c-.094.012-.158.02-.22.031-.045.008-.091.017-.133.034-.11.046-.124.084-.1.197.019.083.029.17.04.254.001.014-.01.03-.016.045-.013-.005-.03-.007-.038-.017-.077-.078-.156-.153-.226-.237-.064-.078-.117-.076-.166.012-.072.125-.15.247-.225.37-.004.006-.014.006-.039.017.018-.097.03-.185.052-.27.02-.077.054-.152.081-.228.021-.06-.01-.086-.062-.083-.062.003-.123.016-.184.025l-.016-.031c.083-.07.166-.137.248-.208.025-.021.043-.05.064-.077-.031-.01-.062-.03-.094-.032-.088-.005-.176 0-.265-.006a.092.092 0 0 1-.065-.04c-.006-.01.017-.047.035-.06a.751.751 0 0 1 .142-.09c.067-.03.134-.052.143-.14.002-.012.034-.031.049-.029.105.018.189-.015.272-.084.067-.055.154-.085.234-.125.01-.005.038.001.04.008a.087.087 0 0 1-.004.05c-.041.11-.079.22-.128.326-.046.097.015.132.082.161.137.062.277.118.416.177.019.009.037.022.083.05Z"/><path class="cls-3" d="m3.349 15.884.084.192-.034.014-.086-.191.035-.015ZM3.31 11.021c-.002.352-.345.596-.687.406-.166-.092-.207-.318-.124-.535.11-.29.388-.295.612-.164.197.115.2.125.2.293Zm-.75.254c.08.133.251.194.396.157.156-.04.286-.183.29-.338-.174.258-.396.32-.685.181Zm.333-.415c-.075-.005-.116.034-.12.114-.006.102.059.205.134.187.057-.014.13-.067.146-.118.028-.085-.067-.177-.16-.183Zm-.215.093c-.053.066-.1.12-.139.18-.004.007.053.072.08.072.049 0 .097-.03.145-.05.001 0-.001-.014-.004-.021l-.082-.181Zm-.118-.04.406-.183c-.097-.036-.19-.057-.282-.007a.222.222 0 0 0-.124.19Zm.557-.08c-.03.029-.056.047-.053.052.02.043.046.084.07.125.02-.028.06-.057.058-.083-.003-.029-.042-.055-.075-.093ZM3.262 12.218c-.008.027-.013.055-.023.08-.061.146-.082.44.12.535a.693.693 0 0 1 .177.137c-.144-.031-.275-.094-.352-.22-.112-.185-.056-.366.048-.536l.03.004ZM3.907 16.826c-.026-.112.055-.183.148-.243a.085.085 0 0 1 .07-.003c.094.043.166.205.142.306-.029.123-.088.178-.18.169-.142-.015-.18-.06-.18-.23Zm.32.012c0-.018.008-.04 0-.053-.038-.056-.07-.132-.125-.154-.03-.013-.13.058-.141.104-.017.075.014.16.027.24.001.007.017.011.026.015.126.046.216-.017.214-.152ZM3.872 17.426c.028-.05.047-.125.088-.14.044-.017.118.01.164.04.12.082.136.137.096.24-.045.117-.113.14-.22.075-.074-.047-.115-.113-.128-.215Zm.047-.007c.022.12.093.206.177.206.08 0 .085-.066.093-.118.01-.074-.103-.194-.175-.18-.036.007-.064.06-.095.091ZM3.83 19.375c-.002-.018-.004-.036-.003-.054.005-.085.045-.116.122-.08.06.03.126.065.164.117.026.037.032.137.009.152a.315.315 0 0 1-.197.048c-.035-.004-.066-.072-.092-.115-.01-.017-.002-.045-.002-.068H3.83Zm.04-.03c.026.085.012.173.123.173.058 0 .085-.021.083-.081-.003-.074-.084-.163-.151-.152-.023.003-.04.043-.055.06ZM4.112 16.338c-.113.001-.168-.056-.17-.177 0-.116.088-.266.156-.265.092.002.173.095.176.2.003.148-.058.24-.162.241Zm.131-.236c.002-.09-.046-.141-.132-.143-.063 0-.134.092-.138.18a.15.15 0 0 0 .145.156c.067.001.122-.084.125-.193ZM4.056 18.26c-.125 0-.219-.081-.218-.189 0-.102.048-.15.15-.152.1-.001.212.111.213.213.001.084-.047.127-.145.128Zm.023-.05c.014-.014.07-.044.075-.082.014-.086-.072-.158-.163-.161-.069-.002-.098.025-.096.093.002.086.064.15.184.15ZM3.854 18.768c.056-.057.103-.128.17-.167.045-.027.168.091.17.148.001.066-.106.17-.174.167-.074-.002-.148-.067-.166-.148Zm.165.137c.05-.066.095-.104.109-.151.005-.02-.07-.09-.082-.083a.264.264 0 0 0-.112.106c-.009.018.041.065.085.128ZM6.29 8.851l-.07.035-.012-.022c.02-.015.042-.029.064-.043l.017.03ZM6.387 9.968c-.055-.07-.109-.11-.122-.162-.015-.059.037-.094.1-.097.086-.004.11.064.114.124.002.034-.046.07-.092.135ZM3.287 7.825c-.022.1-.035.17-.124.178-.065.006-.13-.063-.13-.134 0-.064.07-.138.137-.124.046.01.084.056.117.08Z"/><path class="cls-3" d="M2.98 11.007c-.034.059-.077.078-.125.038-.017-.014-.008-.058-.012-.089.021.004.043.004.063.011.024.01.047.025.074.04ZM1.969 2.611c.031-.016.044-.02.052-.027.061-.059.121-.12.183-.178.023-.022.046-.043.078-.006.097.115.196.228.308.358l.047-.55c.03.004.052.008.075.01.144.02.289.04.434.056.023.002.048-.016.072-.024-.012-.019-.02-.042-.036-.055-.098-.081-.2-.158-.297-.24-.022-.019-.05-.064-.042-.079.06-.112.13-.22.195-.33.027-.044.052-.09.079-.135-.155.062-.295.131-.436.198-.08.038-.162.075-.246.106-.022.008-.068.004-.079-.012-.084-.118-.162-.24-.241-.362l-.128-.196-.016.006c.006.06.011.119.018.178.01.1.022.199.034.298.005.044-.016.056-.056.064a3.5 3.5 0 0 0-.308.067c-.097.027-.191.064-.286.098-.032.012-.06.029-.092.044.237.188.498.312.776.393l-.088.318Zm-.24-.597a3.683 3.683 0 0 1-.182-.08c-.013-.006-.022-.022-.033-.033.012-.01.02-.026.034-.03.084-.033.166-.07.252-.09.087-.021.177-.025.27-.037l.017-.311.015-.014c.067.096.135.191.201.287.029.041.056.083.083.125.026.039.056.017.082.004.102-.049.203-.1.304-.151.024-.012.043-.033.066-.045.02-.011.045-.016.067-.024l.013.022-.145.188c-.025.031-.032.055.008.086.103.079.201.163.301.246a.09.09 0 0 1 .031.056l-.143-.025c-.11-.02-.219-.044-.329-.062-.048-.008-.072.014-.073.07-.001.061-.016.123-.026.184-.001.009-.012.016-.028.035-.054-.058-.109-.108-.152-.167-.037-.049-.05-.018-.073.008-.06.07-.122.141-.185.21-.011.013-.031.018-.061.034l.109-.319-.422-.167ZM22.985 1.141c.094.053.189.104.288.145.04.016.052.041.057.071a.286.286 0 0 1-.005.1c-.021.108-.047.215-.068.322-.004.02.008.042.015.07.046-.038.081-.065.114-.095.102-.092.202-.187.305-.278.013-.01.047-.015.058-.007.041.032.075.073.114.106.057.048.116.093.174.14l.021-.01-.044-.36.599-.115c-.011-.027-.013-.049-.025-.06-.047-.04-.094-.083-.146-.117-.112-.075-.229-.144-.342-.218-.018-.012-.043-.04-.039-.054.016-.055.041-.107.065-.16.035-.079.074-.156.108-.236.007-.014.003-.033.003-.05-.019 0-.043-.006-.057.003a2.02 2.02 0 0 0-.173.121 6.668 6.668 0 0 0-.245.206c-.04.036-.075.078-.115.114-.01.009-.037.014-.046.007-.035-.028-.067-.061-.1-.093-.084-.085-.168-.171-.253-.255-.012-.011-.034-.013-.05-.02-.003.016-.01.033-.006.048.031.124.066.247.095.372.003.013-.018.045-.028.045-.105 0-.21-.004-.316-.007-.096-.002-.195-.02-.3.039.03.025.05.047.074.063.089.056.177.112.268.163Zm-.127-.206.513.02-.104-.393.014-.01c.02.014.04.027.058.044.053.049.104.1.156.15.025.024.059.044.076.073.032.055.067.048.108.018l.355-.264c.006-.004.016-.004.027-.007-.003.09-.052.154-.099.22-.048.067-.043.1.028.137.113.06.226.118.337.18.058.033.11.073.172.114-.075.016-.153.036-.233.05-.085.014-.17.02-.255.033-.01.002-.023.029-.023.043.004.082.012.163.018.244 0 .01-.005.02-.007.024l-.196-.185c-.06-.056-.074-.058-.135-.004-.107.094-.212.189-.318.284l-.018-.009c.005-.043.008-.087.016-.13.018-.091.042-.181.057-.273.003-.019-.013-.052-.03-.061-.135-.073-.272-.14-.407-.211-.039-.02-.074-.044-.111-.067l.001-.02ZM13.196 6.908c.078.084.155.17.24.245.065.057.075.075.026.149-.042.062-.086.122-.126.185-.008.013-.004.034-.005.05.013.001.025.003.038.001.115-.012.281-.058.384-.112.022.06.032.124.054.184.028.075.063.147.1.234.037-.046.067-.072.083-.105.034-.075.057-.155.092-.229a.178.178 0 0 1 .079-.073c.047-.023.1-.035.15-.053l.354-.129c.011-.004.027-.019.027-.028-.001-.014-.01-.035-.022-.04-.042-.018-.086-.03-.129-.045l-.515-.182c-.03-.01-.051-.028-.04-.066.033-.102.067-.204.096-.307.008-.028.002-.059.002-.105a96.54 96.54 0 0 1-.101.08c-.08.05-.212.13-.245.16a.286.286 0 0 1-.25.077c-.034-.006-.07-.008-.105-.013l-.196-.03-.087-.008-.012.021c.036.046.068.096.108.139Zm.04-.09c.098.007.2-.004.29.024.071.022.107.008.147-.04.01-.012.028-.018.04-.028.049-.038.208-.14.293-.2.03.02.017.05.007.076-.038.1-.08.199-.117.299-.019.05-.007.088.044.117.112.062.238.068.36.09.094.017.187.042.28.063v.024c-.031.015-.062.036-.096.042-.064.012-.129.016-.193.023-.04.004-.078.011-.118.012-.08.002-.095.02-.114.1-.022.093-.055.183-.085.273-.005.014-.025.023-.038.034-.007-.013-.017-.024-.021-.038-.032-.1-.062-.2-.096-.3-.006-.02-.03-.054-.036-.053-.027.01-.052.025-.077.04a1.006 1.006 0 0 0-.092.03c-.056.023-.11.05-.176.082 0-.03-.004-.044 0-.054.032-.07.06-.141.1-.206.03-.046.03-.076-.011-.11a5.447 5.447 0 0 1-.186-.165c-.04-.036-.075-.077-.113-.116l.009-.018ZM21.645 4.505c-.114-.043-.228-.087-.343-.127-.075-.025-.152-.04-.238-.064l.345-.512a.09.09 0 0 0-.063.007c-.03.015-.056.035-.086.048-.132.06-.263.121-.396.178-.017.007-.057.003-.062-.008a1.043 1.043 0 0 1-.057-.149l-.103-.337c-.004-.011-.02-.026-.03-.026-.009 0-.023.015-.027.027-.013.034-.024.069-.033.104-.04.142-.081.282-.116.425-.014.056-.048.053-.09.053-.152-.001-.306-.002-.458.001-.028 0-.055.007-.082.013.079.095.156.193.24.283a.129.129 0 0 1 .036.12c-.01.057-.03.112-.044.168l-.064.271.409-.148c.007.03.015.051.018.074.01.08.015.161.027.242.007.051.02.101.036.15.003.008.046.015.05.01.05-.08.1-.162.142-.246.036-.072.05-.157.118-.221.023.036.04.067.06.095.056.077.113.154.172.229.01.013.036.016.054.023.004-.013.014-.026.013-.039-.007-.102-.02-.204-.021-.306-.002-.153-.028-.117.12-.157.01-.003.022 0 .032-.003.146-.038.292-.077.437-.117.012-.003.026-.02.03-.032.002-.006-.015-.024-.026-.029Zm-.063.029-.584.06c-.04.003-.056.018-.05.053.018.084.039.166.055.25a.161.161 0 0 1-.01.087c-.05-.078-.1-.157-.152-.234-.015-.022-.04-.039-.06-.058-.017.024-.035.047-.05.072l-.142.242c-.005.009-.021.012-.04.021-.016-.093-.034-.182-.045-.272-.007-.061-.021-.073-.081-.05l-.215.08c-.018.007-.038.01-.071.017l.08-.17c.042-.086.035-.106-.037-.165-.093-.077-.183-.158-.273-.238-.007-.005-.007-.018-.014-.042l.208.016c.062.005.124.014.185.022.035.005.071.006.105.015.052.013.072-.007.077-.058.008-.087.022-.173.04-.257.01-.05.03-.097.046-.146l.02-.004.146.35.45-.173.01.017c-.014.016-.03.031-.043.049-.06.082-.118.165-.176.248-.011.016-.025.05-.02.052a.224.224 0 0 0 .084.045c.122.023.246.036.368.061.057.012.11.044.165.069.01.004.018.015.027.022l-.004.018Z"/><path class="cls-2" d="M20.949 4.647c.017.084.038.166.054.25a.161.161 0 0 1-.01.087c-.05-.078-.1-.157-.152-.234-.015-.022-.04-.039-.06-.058-.017.024-.035.047-.05.072l-.142.242c-.005.01-.021.012-.04.022-.016-.094-.034-.183-.045-.273-.007-.06-.021-.073-.081-.05l-.215.08c-.019.007-.038.01-.071.017l.08-.17c.041-.086.034-.106-.037-.165-.094-.076-.183-.158-.273-.237-.007-.006-.007-.02-.014-.043l.208.016c.062.006.124.014.185.022.035.005.071.006.105.015.051.013.072-.006.077-.058.008-.087.022-.172.04-.257.01-.05.03-.097.046-.146.007 0 .013-.002.02-.004l.146.35.45-.173.01.017c-.014.016-.03.031-.043.049-.06.082-.118.165-.176.248-.011.016-.025.05-.02.052a.224.224 0 0 0 .084.045c.122.023.246.036.368.061.057.013.11.045.165.069.01.004.018.015.027.022l-.004.019c-.194.02-.388.041-.583.06-.04.002-.057.017-.05.053Z"/></svg>