<svg xmlns="http://www.w3.org/2000/svg" viewBox="0 0 24.893 30.251" xmlns:v="https://vecta.io/nano"><path d="M8.148 13.043c-.003-.094-.032-.187-.055-.279l-.085-.299c-.01-.04-.003-.085-.008-.127l-.047-.387c-.025-.168-.039-.341-.09-.502-.059-.188-.149-.366-.232-.546l-.203-.389-.358-.563c-.023-.038-.02-.107-.002-.152.04-.102.062-.199.016-.303l-.079-.182c-.05-.136-.125-.227-.289-.189-.012.002-.041-.027-.046-.046-.021-.091.028-.155.09-.214.093-.089.209-.165.274-.272.152-.25.141-.521.033-.787-.029-.072-.1-.114-.181-.086s-.104.098-.08.181c.006.02.009.041.016.077l-.071-.043c-.081-.061-.155-.136-.244-.181-.095-.049-.209-.06-.306-.106-.186-.087-.378-.056-.569-.056-.03 0-.059-.032-.089-.049.023-.023.043-.062.07-.067l.463-.087c.05-.012.092-.062.137-.095-.042-.028-.08-.063-.125-.083l-.486-.202c-.02-.008-.044-.042-.042-.06l.062-.491c.005-.04.01-.082.005-.122-.007-.057-.036-.063-.086-.032l-.353.204c-.017.009-.066-.012-.078-.032l-.208-.364c-.018-.029-.062-.042-.094-.062-.014.033-.039.065-.04.099l-.003.43c-.001.08-.099.167-.169.149l-.352-.103c-.054-.02-.093-.087-.146-.1-.135-.034-.27-.034-.405.025-.067.03-.15.026-.237.04.009-.048.02-.071.015-.092-.009-.044-.015-.109-.042-.122-.039-.019-.107-.015-.146.008s-.073.075-.084.121c-.057.229-.112.461 0 .689.05.1.005.139-.082.164-.015.004-.03.006-.045.012-.168.068-.358.254-.269.43.041.081.006.125-.051.168a.69.69 0 0 1-.099.058l-.4.203c-.144.094-.275.209-.411.315l-.188.154-.348.319c-.079.085-.132.194-.207.282a2.06 2.06 0 0 0-.423.755l-.192.733c-.077.36-.183.718-.145 1.093l.072.639.151.687c.048.197.087.401.164.587.105.252.233.496.369.733l.48.764.37.533c.203.291.425.566.688.806.027.025.04.083.034.122l-.114.659-.056.424a3.9 3.9 0 0 0-.016.39c.001.097.02.194.026.292l.01.345.065.716.019.377.005.11.057.246c.01.031.039.064.034.09l-.085.334c-.062.243-.052.489.018.724.035.119.137.218.203.329.19.319.287.661.242 1.035-.006.053-.018.107-.017.16l.017 1.057-.001.815c-.003.155-.023.31-.036.465l-.067.846c-.01.166-.002.334-.002.5l.001.697c.001.079.015.157.024.235l.033.288c.003.092-.008.184-.017.275l-.03.276c-.001.023.022.064.041.068a2.04 2.04 0 0 0 .291.051c.07.006.104.03.102.102v.215c.005.094-.042.151-.107.214-.081.079-.15.177-.2.279-.096.195-.058.404-.029.609.003.024.024.051.045.065.097.066.206.073.316.048.117-.026.135-.068.107-.189-.009-.038-.002-.079-.002-.113l.504.216a.75.75 0 0 0 .496.012c.083-.029.116-.097.094-.174-.025-.088-.029-.185-.069-.265-.065-.129-.133-.268-.237-.363-.09-.082-.232-.105-.35-.157-.027-.012-.065-.036-.068-.059-.018-.111-.025-.223-.036-.334-.005-.056.006-.093.076-.091.055.001.111-.01.167-.014.132-.009.197-.099.139-.22-.034-.07-.031-.126-.019-.2l.086-.721.117-1.333.048-1.264.001-.674.001-.575a5.88 5.88 0 0 0-.018-.922l-.07-.791c-.005-.264-.051-.516-.119-.768-.014-.051-.002-.109-.002-.164l.027-.01c.02.03.05.056.06.089l.127.437.097.463.122.837c.02.207.01.417.013.626l.021 1.033.002.023a5.14 5.14 0 0 1-.043 1.281l-.125.902-.065 1.197-.014.175-.013.342c-.015.25.026.335.273.326.028-.001.058-.01.084-.003s.064.025.078.049c.024.04.032.09.051.135.031.075.017.117-.061.162-.053.03-.087.103-.115.163-.021.047-.021.105-.025.158-.017.223-.024.443.105.643.061.093.142.152.251.15.097-.002.141-.068.166-.162.019-.068.058-.113.155-.059a.94.94 0 0 0 .621.132c.06-.01.126-.011.179-.038.096-.048.033-.142.043-.215.004-.033-.01-.077-.032-.104-.037-.047-.09-.083-.131-.128-.082-.091-.073-.124-.156-.214-.015-.016-.16-.153-.18-.167-.213-.154-.336-.074-.358-.291-.005-.05.01-.102.005-.152-.008-.072.031-.093.091-.103.125-.02.157-.108.086-.213-.02-.03-.033-.071-.032-.107l.026-.558.026-.336.046-.569.008-.627.027-1.303c.001-.185-.04-.371-.038-.556l.038-.83.001-.223c0-.02.005-.04.006-.061l.01-.555-.046-.23-.164-.791-.146-.553c-.037-.121-.09-.236-.132-.355l-.089-.283c-.003-.012.01-.036.022-.044.164-.116.188-.28.165-.462-.003-.017-.001-.035.001-.052l.034-.476v-.735c0-.047-.022-.094-.022-.141 0-.057.02-.113.022-.17.002-.071-.012-.142-.01-.214l.031-.779c.003-.045.042-.1.08-.129.075-.056.161-.099.244-.145.097-.053.209-.089.293-.157.184-.15.401-.256.564-.433.029-.031.068-.053.096-.085.024-.027.035-.066.059-.092l.248-.252.15-.145c.03-.029.062-.057.085-.091l.205-.303c.076-.114.165-.223.225-.345.085-.174.228-.315.283-.508.032-.112.104-.212.149-.321.027-.064.045-.134.051-.202.012-.126.015-.253.015-.379l-.005-.745zM6.839 9.397l.067.186c.032.077.012.128-.067.156l-.383.143-.05.018c-.025.009-.058.002-.091-.015h0c-.045-.024-.089-.067-.108-.117-.023-.062-.038-.127-.051-.192-.022-.117.082-.152.149-.188.11-.059.236-.087.356-.129.094.011.147.061.178.137zm-1.617 9.157c.018.252-.02.508-.018.761.001.128.035.256.057.384.019.115.015.116-.099.107-.097-.008-.194-.003-.292-.003-.161-.001-.321.002-.481-.003-.025-.001-.068-.038-.069-.059l-.027-.979c-.002-.133.004-.266.018-.398l.098-.881.023-.236.028-.458-.022-.574-.031-.335-.106-.491c-.016-.069-.005-.104.077-.104.102 0 .102-.005.224-.183.066.079.133.144.183.22.105.162.238.318.291.497.078.261.096.539.139.811.021.131.054.261.061.393.01.206.016.414-.004.619-.029.304-.072.605-.05.914zm-1.364-2.88c-.026-.155-.059-.303-.003-.459.025-.068.023-.145.037-.245.143.156.338.233.359.465.01.111.072.217.099.328.028.119.058.24.059.361l-.002 1.164c-.012.258-.074.514-.106.772l-.04.488v1.102c0 .075-.015.11-.101.11-.106-.002-.213.02-.319.02-.028 0-.079-.041-.08-.065l-.022-.709.001-.65.017-1.105a6.81 6.81 0 0 1 .126-1.116c.029-.146.001-.309-.025-.46zm-.191-1.062l-.048-.726a.51.51 0 0 0-.094-.289c-.137-.197-.316-.355-.509-.479-.332-.212-.509-.514-.619-.874-.021-.069-.015-.112.066-.137a.63.63 0 0 0 .172-.097c.106-.077.112-.103.038-.214-.088-.131-.196-.249-.272-.385-.207-.368-.155-.618.083-.965.139-.202.333-.18.532-.169.264.014.371.194.446.413.092.268.198.53.382.752.084.102.077.151-.044.189-.188.06-.216.214-.119.394.027.05.007.067-.032.088l-.219.125c-.099.065-.142.156-.089.253.026.048.114.062.171.091l.271-.075c.026-.006.066-.001.084.015.119.11.169.248.194.41.034.218-.001.424-.088.612-.067.144-.071.281-.061.424.009.129.045.256.06.385.01.086.011.173.008.26-.002.072-.041.122-.118.124-.101.003-.189-.053-.194-.125zm.114.257l-.095.425c-.005.02-.025.046-.042.05s-.041-.016-.054-.033c-.127-.151-.184-.332-.216-.522-.015-.093.05-.173.145-.18.019-.002.042.024.06.041l.157.159c.018.019.032.042.045.059zm-.059-2.569c-.092.033-.186.056-.28.083l-.023-.049.266-.158c.023-.011.072.034.109.053-.024.025-.043.061-.072.071zm.025.141l-.176.04-.009-.041.176-.04.01.04zm.331 2.047c.123 0 .325.14.363.252a1.85 1.85 0 0 1 .073.278c.023.132-.106.237-.216.168-.132-.082-.247-.191-.364-.295-.032-.028-.023-.053.023-.09.058-.047.085-.135.118-.209.012-.027.002-.065.002-.104zm-.319 5.532c.002-.027.042-.068.07-.073a4.63 4.63 0 0 1 .371-.044c.027-.003.062.004.082.02.013.011.012.063.001.07-.023.014-.058.014-.087.013-.058-.003-.122-.027-.173-.011-.042.013-.068.073-.102.112.03.008.06.023.091.025l.259.012c.014.002.031.051.031.078 0 .017-.031.044-.05.046-.048.004-.097-.004-.145-.008v.003c-.044 0-.087.002-.131 0-.187-.009-.232-.056-.216-.243zm1.382-4.267l-.237-.411c-.089-.126-.2-.236-.298-.355-.016-.019-.023-.05-.025-.076-.012-.128-.059-.236-.164-.316-.089-.068-.171-.145-.266-.203-.129-.079-.119-.209-.13-.324a1.3 1.3 0 0 1 .092-.63c.101-.244.071-.493-.051-.726-.044-.083-.11-.155-.159-.235-.02-.033-.036-.079-.028-.114.02-.097-.013-.175-.059-.254a1.25 1.25 0 0 1-.07-.134c-.054-.123-.038-.159.091-.203.087-.03.189-.043.205-.156.008-.052.006-.117-.018-.16-.057-.099-.139-.183-.194-.283-.059-.106-.089-.228-.149-.333-.116-.201-.181-.439-.391-.579-.024-.016-.041-.053-.047-.083-.027-.126-.083-.166-.218-.159l-.541.019c-.212.002-.341.126-.447.289-.027.04-.047.085-.068.129a2.15 2.15 0 0 0-.224 1.012c.009.218.077.431.281.561.179.114.251.291.332.477.148.341.348.642.672.859.176.118.372.241.443.468.008.026.017.054.019.081l.046.479c.007.072.006.131-.08.164-.112.043-.164.141-.162.256.002.089-.031.153-.082.221l-.326.472c-.318-.2-.62-.436-.765-.809l-.319-.942c-.027-.077-.062-.151-.092-.227l-.101-.268-.182-.62c-.016-.058-.012-.122-.025-.181l-.057-.23c-.042-.17-.109-.339-.118-.511-.008-.148.039-.303.081-.449l.188-.546a3.21 3.21 0 0 0 .112-.498c.027-.208.172-.355.242-.541.021-.057.042-.117.076-.166.114-.164.213-.346.355-.482.261-.248.55-.469.828-.7.016-.013.042-.024.062-.022.137.013.247-.042.348-.127l.182-.139c.061-.052.096-.108.038-.191-.044-.063-.038-.129.049-.157l.328-.097c.085-.022.174-.035.26-.052.01-.002.02-.008.03-.006.064.011.127.036.19.034s.122-.031.202-.053l-.022.115-.061.477c-.002.019.011.045.026.059.007.006.04-.006.052-.019l.15-.181.23-.304c.044.048.089.088.122.137.011.016.001.063-.016.079-.093.089-.128.266-.079.395.086.227.241.403.42.557.091.078.21.122.31.19.039.027.067.076.088.12.024.053.039.111.049.169.005.028 0 .07-.019.089-.099.102-.11.204-.037.323a1.32 1.32 0 0 1 .108.226c.037.098.083.124.186.114.039-.004.102.017.118.046l.307.589c.048.107.059.23.094.344.094.306.115.625.1.935l-.059 1.023c-.013.283-.064.566-.122.844-.03.146-.111.283-.17.423l-.131.299-.261.482c-.043.065-.14.09-.204.144l-.685.583c-.063.054-.116.039-.152-.03zM2.02 11.114l.236.524c-.095-.04-.26-.432-.236-.524zm.136.534l-.042.02-.181-.38.048-.025.175.385zm-.066-.995l-.019.288c-.066-.112-.062-.201.019-.288zm2.488-3.297v-.261a2.05 2.05 0 0 1 .214.032l-.116.133c-.027.03-.058.057-.098.095zM5.307 8c.043.019.08.048.12.073l-.003.041c-.027.018-.054.05-.082.053-.09.005-.063-.082-.086-.128-.002-.004.041-.043.051-.039zm.453-.337c.02-.003.045.015.094.033-.047.026-.069.048-.09.046s-.043-.024-.064-.037c.02-.015.039-.039.061-.043zm-.158.365c.011-.042.027-.083.047-.141l.445.117c.092.027.122.162.058.261s-.144.164-.266.143-.203-.094-.255-.203c-.013-.027-.034-.054-.039-.082s.003-.063.011-.094zm-.006.309c.107.198.471.205.588.012.036-.06.077-.127.08-.193.008-.142-.052-.204-.206-.252l-.217-.062c.034-.055.069-.145.092-.142.103.015.223.029.299.091.176.144.245.351.238.578-.001.043-.033.085-.05.127-.008.023-.012.046-.021.084.13-.077.192-.261.141-.393l-.139-.33-.025-.072c.133.022.186.12.233.21.06.117.089.243.031.376-.01.024.008.06.013.092.023-.023.064-.043.067-.068.01-.084.008-.169.007-.253 0-.028-.01-.057-.015-.085l.027-.015c.026.036.049.075.079.107.02.022.049.035.074.051.01-.03.031-.061.027-.089-.011-.075-.036-.147-.049-.221-.006-.032.005-.068.026-.104.011.098.042.169.144.188.011.002.024.028.025.044.019.222.019.442-.136.623-.055.065-.125.119-.193.171-.099.075-.142.175-.156.295-.003.027-.029.059-.054.075-.04.026-.087.043-.132.059-.177.066-.199.055-.253-.131a.32.32 0 0 0-.213-.221c-.314-.109-.536-.308-.628-.62l.212-.129c.022.051.047.127.085.195zM4.584 6.935a.75.75 0 0 1 .142-.088c.067-.03.134-.053.143-.141.001-.012.033-.031.048-.029.106.018.189-.015.272-.084.067-.055.154-.086.234-.125.01-.005.037.001.04.007.004.015.003.035-.003.05l-.129.326c-.046.097.015.132.082.162l.416.177c.019.008.037.021.084.049l-.22.032c-.045.008-.091.017-.133.034-.11.046-.124.084-.099.197.018.083.028.169.039.254.002.014-.01.03-.015.045-.013-.006-.029-.008-.038-.018l-.225-.237c-.064-.078-.118-.076-.167.012l-.225.37c-.003.005-.013.006-.039.017l.052-.27c.021-.078.054-.152.081-.229.021-.059-.01-.085-.062-.083-.062.003-.123.016-.184.025l-.015-.031.247-.208c.025-.022.043-.051.064-.077-.031-.011-.062-.031-.094-.032-.088-.005-.177 0-.265-.005-.024-.001-.054-.02-.065-.04-.006-.011.017-.047.035-.061zm-.053.281c-.052.037-.082.074-.115.078-.02.002-.045-.048-.068-.074.036-.022.07-.049.109-.064.01-.004.034.027.075.061zm-.104-.495c.007 0 .012.036.018.055h-.111l-.004-.043c.032-.005.064-.013.097-.012zm-1.239.276c-.021-.097-.001-.208.022-.308.008-.036.079-.058.122-.085.008.013.023.027.022.04l-.026.243c-.001.028.025.058.038.086.017-.025.042-.048.049-.074.018-.063.019-.132.043-.19.012-.027.063-.038.097-.056-.003.031-.002.064-.011.094l-.074.201c-.007.022.007.05.011.075.019-.02.043-.036.056-.059.05-.09.086-.189.147-.27.035-.047.109-.064.165-.094l.018.03c-.006.01-.01.023-.019.027-.155.083-.209.23-.245.387-.006.026.013.058.02.087.024-.025.057-.046.069-.076.024-.061.033-.128.055-.19.053-.153.196-.137.314-.157.092-.015.189-.022.241.095.014.032.074.043.114.064l-.006.036-.267-.025c-.163-.027-.268.017-.346.159a.13.13 0 0 0-.009.093c.034.1.236.184.333.141l.084-.037c.053-.025.089-.02.109.045.01.033.043.059.071.095-.035.091-.114.148-.216.15-.173.005-.321.076-.471.146-.009.004-.019.006-.023.007l-.245-.297c-.013-.016-.025-.037-.042-.045-.151-.063-.171-.212-.2-.34zm1.154.107c-.141.042-.24.178-.391.097-.044-.024-.105-.084-.099-.118.008-.05.064-.122.109-.129.105-.017.215 0 .356.004-.097.09-.035.112.026.146zm-1.349.506l.199-.106c.045.035.085.06.118.093l.215.227c.118.123.11.206-.033.302-.188.118-.189.119-.335-.043l-.218-.26c-.073-.099-.055-.155.053-.213zm-.612 8.664c-.245-.296-.478-.601-.651-.948-.092-.183-.222-.347-.331-.522l-.323-.536c-.104-.198-.201-.401-.278-.61-.057-.155-.08-.324-.109-.488l-.17-1.015.031-.004c-.055-.233.034-.449.073-.671l.137-.712a3.8 3.8 0 0 1 .268-.779c.062-.13.114-.271.137-.412.025-.156.119-.263.203-.379.246-.344.54-.64.888-.879.149-.102.308-.188.465-.277.139-.078.141-.075.247.051l.016.017c.124.12.129.133-.011.239l-.475.331c-.182.128-.378.238-.523.415-.121.147-.275.27-.382.425-.186.268-.315.567-.343.899-.026.307-.092.606-.189.896-.1.301-.102.591-.031.901.058.248.185.456.278.684l.159.389.142.387c.03.089.048.182.075.272l.169.537.228.566c.1.239.268.406.513.507.322.134.573.348.669.704.034.126.028.311-.102.376-.159.079-.359.047-.47-.073-.096-.104-.219-.183-.309-.291zm.388.908c.001-.004.007-.007.016-.015.104.066.204.042.303-.025.044-.029.097-.045.147-.064.156-.056.233-.184.263-.331.046-.226.082-.456.015-.686-.005-.017-.007-.037-.018-.049s-.034-.024-.051-.035c-.003.02-.009.04-.008.06.005.219.05.438-.013.657-.047.164-.162.269-.304.344-.085.045-.18.074-.273.1-.053.015-.078-.014-.065-.075.014-.07.019-.142.023-.213s.027-.093.1-.087c.291.025.52-.176.436-.488-.039-.145-.101-.275-.204-.387-.067-.074-.089-.155-.02-.254s.112-.216.17-.323c.021-.04.053-.074.08-.111l.233.243c.03.029.082.033.116.059s.087.067.096.108c.049.223.059.445.02.675a7.68 7.68 0 0 0-.089.828l-.02.874c-.003.106-.022.212-.028.318-.002.041.015.084.022.126.004.025.007.051.006.076l-.027.632.013.564c.002.089-.062.148-.15.158l-.667.084c-.037.005-.075.001-.118.001v-.401c0-.038.009-.081-.005-.114-.053-.128-.021-.255-.013-.383.003-.046-.022-.094-.024-.141l-.007-.397a1.12 1.12 0 0 0-.014-.167c-.068-.393-.007-.778.062-1.163zm.857 3.026c0 .022-.03.064-.048.065-.203.014-.427-.008-.665.028a.37.37 0 0 1-.183-.021c-.01-.005-.005-.176-.009-.256l.286-.035.499-.077c.057-.008.093.007.097.075.004.074.022.147.025.22zm.045 9.075c-.115.025-.224-.055-.247-.179.11.025.185.165.317.078l.016.032c-.028.024-.054.062-.086.069zm.094-.323c-.009.061-.044.115-.122.112-.073-.003-.117-.033-.132-.108l-.058-.259c.004-.156.018-.156.177-.145.122.008.145.064.139.166-.005.078.007.158-.005.234zm.323-.475L3.2 28.47c-.03-.001-.06-.017-.09-.026l.001-.024c.08-.017.16-.044.241-.047l.733-.007c.031 0 .062.043.093.067-.03.019-.06.053-.091.053zm1.194.433c-.005.025-.048.05-.077.057-.018.004-.058-.023-.064-.043-.03-.093-.051-.188-.08-.298l.201.003c.016.002.04.036.04.055-.001.076-.004.153-.02.227zm.268-.431c.002.012-.019.04-.03.041-.268.012-.537.061-.803-.009-.012-.003-.024-.009-.034-.015s-.008-.012-.031-.055l.274-.018h.506c.028 0 .058-.003.083.006.017.006.032.032.035.051zm-.233-7.049l.123.598c.023.175.023.354.02.532-.002.171-.02.341-.033.512l-.054.755c-.003.213.015.429.049.639.044.27.096.536.085.812l.003.633-.007.555-.039.873c-.005.147.018.295.004.441s-.054.289-.089.432c-.005.022-.041.049-.064.051l-.683.05v-.267l.014-.314.058-.784c.007-.101-.007-.204.004-.304l.117-.977c.05-.336.067-.672.039-1.011-.012-.144-.003-.29-.004-.436l.001-1.142c.003-.293-.057-.577-.106-.863l-.109-.74c-.03-.152-.088-.3-.14-.448-.029-.082-.064-.163-.109-.236-.023-.037-.075-.08-.112-.078-.063.004-.133.033-.12.125l.062.457c.02.188.014.38.053.563.059.273.028.546.041.819.005.093.029.186.028.279-.002.13-.022.259-.029.388l-.02.567.001.845-.112 1.157c-.028.376-.068.753-.014 1.132.018.124-.014.254-.024.381l-.049.546a.53.53 0 0 1-.099.221c-.023.032-.087.043-.135.048l-.647.058c-.064.005-.088-.013-.084-.085l.015-.628-.023-.757c.002-.19.031-.381.048-.571.001-.01.005-.02.006-.03l.049-.779c.005-.073.02-.146.03-.219l.087-.642c.01-.108-.01-.219-.011-.329l-.004-.85-.057-.746c-.027-.278-.087-.549-.216-.798-.067-.129-.153-.247-.224-.374-.137-.245-.143-.511-.105-.78a2.24 2.24 0 0 1 .074-.311c.007-.022.044-.048.069-.049l.625-.022c.084.001.172.021.249.053.195.081.39.087.591.033.156-.132.319-.02.474-.032.238-.019.244.159.289.308l.214.743zm-.112-1.142c-.027.029-.086.042-.13.04l-.618-.047-.019-.255c-.002-.02-.016-.038-.02-.057-.023-.11-.011-.128.101-.125l.671.032c.034.003.082.055.091.091.027.117.007.232-.077.322zm2.732-6.353c0 .191-.104.339-.191.492-.092.162-.193.321-.303.471-.069.095-.165.171-.245.259-.042.047-.075.102-.112.153l-.362.503c-.092.12-.198.231-.296.346l-.256.296c-.172.166-.374.287-.601.366l-.159.053-.053-.319c-.022-.093-.052-.185-.09-.272s-.035-.331.024-.388c.046-.044.103-.078.157-.115l.702-.498a1.3 1.3 0 0 0 .362-.421l.284-.514c.046-.092.072-.194.101-.293l.092-.363c.035-.228.1-.449.09-.686-.01-.262.021-.525.026-.787l-.006-.706c-.02-.221-.056-.441-.179-.64l-.418-.757c-.028-.052-.041-.107.037-.126l.346-.075c.021-.004.057.022.071.044l.396.643c.037.064.047.144.072.216.049.141.083.291.154.42.149.272.214.562.213.866-.001.214.069.411.099.616.039.274.054.552.068.829.007.128-.022.258-.022.387z" fill="#0f181b"/><path d="M3.797 7.038a.13.13 0 0 0-.009.093c.034.1.236.184.333.141l.084-.037c.053-.025.089-.02.109.045.01.033.043.059.071.095-.035.091-.114.148-.216.15-.173.005-.321.076-.471.146-.009.004-.019.006-.023.007l-.245-.297c-.013-.016-.025-.037-.042-.045-.151-.063-.171-.212-.2-.34-.021-.097-.001-.208.022-.308.008-.036.079-.058.122-.085.008.013.023.027.022.04l-.026.243c-.001.028.025.058.038.086.017-.025.042-.048.049-.074.018-.063.019-.132.043-.19.012-.027.063-.038.097-.056-.003.031-.002.064-.011.094l-.074.201c-.007.022.007.05.011.075.019-.02.043-.036.056-.059.05-.09.086-.189.147-.27.035-.047.109-.064.165-.094l.018.03c-.006.01-.01.023-.019.027-.155.083-.209.23-.245.387-.006.026.013.058.02.087.024-.025.057-.046.069-.076.024-.061.033-.128.055-.19.053-.153.196-.137.314-.157.092-.015.189-.022.241.095.014.032.074.043.114.064l-.006.036-.267-.025c-.163-.027-.268.017-.346.159z" fill="#eac3a7"/><path d="M5.913 7.239l-.22.032c-.045.008-.091.017-.133.034-.11.046-.124.084-.099.197.018.083.028.169.039.254.002.014-.01.03-.015.045-.013-.006-.029-.008-.038-.018l-.225-.237c-.064-.078-.118-.076-.167.012l-.225.37c-.003.005-.013.006-.039.017l.052-.27c.021-.078.054-.152.081-.229.021-.059-.01-.085-.062-.083-.062.003-.123.016-.184.025l-.015-.031.247-.208c.025-.022.043-.051.064-.077-.031-.011-.062-.031-.094-.032-.088-.005-.177 0-.265-.005-.024-.001-.054-.02-.065-.04-.006-.011.017-.047.035-.061a.75.75 0 0 1 .142-.088c.067-.03.134-.053.143-.141.001-.012.033-.031.048-.029.106.018.189-.015.272-.084.067-.055.154-.086.234-.125.01-.005.037.001.04.007.004.015.003.035-.003.05l-.129.326c-.046.097.015.132.082.162l.416.177c.019.008.037.021.084.049z" fill="#fbb040"/><g fill="#0f181b"><path d="M3.349 15.884l.085.192-.034.015-.086-.191.035-.015zm-.039-4.863a.45.45 0 0 1-.687.406c-.167-.092-.207-.319-.125-.535.111-.29.388-.295.612-.164.197.115.199.125.199.293zm-.749.254c.078.133.25.194.395.157.156-.04.286-.183.291-.339a.48.48 0 0 1-.686.181zm.332-.415c-.075-.005-.116.034-.12.114-.006.103.059.205.134.187.057-.014.13-.066.147-.117.027-.085-.067-.177-.161-.184zm-.215.093l-.139.181c-.004.006.052.072.08.072.048 0 .097-.031.144-.05.001-.001-.001-.015-.004-.021l-.082-.181zm-.118-.04l.406-.183c-.097-.036-.19-.057-.282-.008-.074.04-.12.105-.124.19zm.557-.079c-.03.028-.056.046-.054.051.021.043.046.084.07.125.021-.028.06-.057.058-.082s-.042-.056-.074-.094zm.145 1.384c-.007.027-.012.055-.023.08-.061.146-.082.439.121.535.066.031.122.084.176.136-.144-.031-.274-.093-.351-.22-.113-.185-.057-.366.048-.536l.029.005zm.645 4.608c-.026-.112.055-.182.148-.243.017-.011.051-.012.071-.003.093.043.165.205.142.306-.029.123-.088.178-.181.169-.142-.015-.18-.059-.18-.229zm.321.012c0-.018.007-.041-.001-.053-.038-.056-.071-.132-.125-.155-.03-.012-.131.058-.141.105-.017.074.014.16.027.24.001.006.017.011.026.014.126.047.216-.017.214-.152zm-.356.588c.029-.049.047-.125.089-.14s.118.011.164.041c.12.081.136.137.096.239-.045.117-.113.14-.219.075a.27.27 0 0 1-.129-.215zm.047-.007c.022.121.093.206.177.207s.086-.066.093-.118c.01-.075-.103-.194-.175-.18-.036.007-.063.059-.095.091zm-.09 1.956c-.001-.018-.004-.036-.003-.053.006-.085.046-.116.122-.079.06.029.126.065.164.116.027.037.032.137.009.152-.053.036-.132.054-.197.047-.035-.004-.066-.072-.092-.115-.01-.017-.002-.045-.002-.068h-.002zm.041-.029c.026.084.012.172.123.172.058 0 .085-.021.082-.081-.003-.073-.084-.163-.151-.152-.023.004-.04.043-.054.061zm.242-3.008c-.113.001-.168-.056-.169-.177s.087-.266.155-.265c.092.002.173.095.176.2.004.148-.058.24-.162.242zm.132-.235c.002-.09-.046-.141-.132-.143-.063-.001-.134.091-.138.179-.004.082.063.155.145.157.067.001.123-.084.126-.193z"/><path d="M4.056 18.26c-.125.001-.219-.081-.218-.188s.048-.151.15-.152a.24.24 0 0 1 .214.213c.001.084-.048.127-.146.127zm.023-.049c.014-.015.069-.044.075-.082.013-.086-.073-.158-.163-.161-.069-.002-.098.025-.097.093.002.086.064.15.184.15zm-.225.557c.055-.057.103-.128.169-.167.046-.027.169.091.17.148a.22.22 0 0 1-.174.167c-.074-.003-.148-.068-.166-.148zm.165.137c.051-.066.095-.104.109-.151.006-.02-.07-.089-.081-.083-.045.023-.09.062-.112.107-.009.017.041.065.085.128zm2.27-10.053l-.069.034c-.001 0-.014-.022-.013-.022l.064-.043.018.03zm.098 1.116c-.056-.07-.109-.111-.122-.162-.015-.059.037-.094.1-.097.086-.004.111.064.114.124.002.034-.045.07-.091.135zm-3.1-2.143c-.022.099-.035.17-.124.178-.065.006-.13-.063-.13-.134 0-.064.07-.139.137-.124.046.01.084.056.117.08zm-.307 3.182c-.034.059-.077.078-.125.038-.017-.014-.008-.058-.011-.089.021.004.043.004.062.011.025.009.047.025.074.04zM1.969 2.611c.032-.016.044-.019.053-.027l.183-.178c.023-.022.046-.043.078-.006l.308.358.047-.55.075.011.434.055c.023.002.048-.015.072-.024-.012-.019-.02-.042-.036-.055l-.296-.24c-.022-.019-.05-.064-.042-.079l.195-.33.079-.135-.436.198-.245.106c-.023.008-.068.004-.079-.012l-.242-.362-.128-.196a.76.76 0 0 0 .002.185l.034.298c.005.044-.016.056-.056.063l-.308.067c-.097.027-.191.064-.286.098-.031.011-.061.029-.092.044.237.188.498.312.776.393l-.088.318zm-.239-.597l-.182-.08c-.013-.006-.022-.022-.033-.033.011-.011.02-.026.034-.031.083-.032.166-.069.252-.089s.177-.025.27-.036l.017-.312c.082.082.15.178.216.274l.083.124c.025.039.056.017.081.005l.305-.151c.023-.012.042-.033.066-.045s.045-.016.067-.024l.013.022-.145.187c-.024.032-.032.056.008.086l.301.246c.014.012.025.028.031.056l-.143-.025-.329-.062c-.048-.008-.072.014-.073.069-.001.062-.016.123-.026.185-.001.009-.012.015-.028.035l-.152-.167c-.037-.049-.05-.018-.073.008l-.185.21c-.011.013-.031.018-.061.034l.108-.319-.422-.167zm21.255-.872l.288.145c.039.016.052.041.057.071s.002.068-.005.1l-.068.322c-.004.019.008.042.015.07l.113-.095.306-.278c.012-.011.047-.016.058-.007.041.032.075.072.114.106l.174.139.021-.01-.044-.36.598-.115c-.011-.027-.013-.049-.025-.059l-.146-.118L24.1.835c-.018-.012-.043-.04-.039-.054.016-.055.041-.107.065-.16l.108-.236c.006-.015.002-.034.003-.051-.019.001-.043-.006-.057.003l-.173.122-.245.206c-.04.035-.075.078-.115.114-.01.009-.037.014-.046.007-.035-.028-.067-.061-.1-.093l-.254-.254c-.012-.012-.033-.014-.05-.02-.002.016-.009.033-.005.047l.095.372c.003.013-.018.046-.028.046-.105 0-.211-.005-.316-.007-.097-.002-.195-.019-.301.039l.075.063.268.164zm-.126-.207l.513.019-.104-.393c.034.005.055.017.072.034l.156.149c.026.025.059.044.076.074.032.055.067.048.108.018l.355-.264c.006-.004.016-.004.027-.007-.003.089-.052.154-.099.219s-.043.101.027.138l.338.181c.057.032.11.072.172.113l-.234.049-.255.034c-.01.002-.023.028-.022.043l.017.244c.001.009-.005.019-.006.023l-.196-.184c-.059-.057-.074-.058-.135-.005l-.318.284a.31.31 0 0 1-.002-.139l.057-.273c.003-.019-.014-.052-.03-.061l-.407-.211c-.038-.02-.074-.044-.111-.066l.002-.02zm-9.663 5.973l.241.245c.064.057.074.075.025.149l-.126.185c-.008.013-.004.034-.005.051.013 0 .026.002.038 0a1.23 1.23 0 0 0 .384-.112c.022.06.032.124.054.184.028.075.063.147.101.234.036-.046.067-.072.082-.105l.093-.229c.015-.03.047-.057.079-.073.047-.024.1-.035.15-.053l.354-.129c.011-.004.027-.019.027-.029s-.011-.035-.022-.04c-.041-.018-.085-.03-.128-.045l-.515-.182c-.031-.011-.052-.028-.04-.066l.096-.307c.008-.027.001-.059.001-.104l-.102.08-.244.159c-.072.064-.152.094-.249.078l-.105-.013-.197-.029-.086-.008-.012.021.107.138zm.041-.09c.097.007.199-.004.29.024.07.022.106.008.146-.04.01-.012.028-.018.041-.028.048-.038.208-.14.293-.2.03.021.016.05.006.075l-.117.299c-.019.05-.007.089.044.117.112.063.238.069.36.09l.281.063v.024c-.032.014-.063.035-.097.042-.063.012-.128.016-.193.023l-.118.012c-.081.002-.095.019-.114.1-.022.092-.055.182-.085.273-.005.014-.025.023-.037.034-.007-.013-.017-.024-.022-.038l-.095-.3c-.007-.021-.031-.055-.036-.053-.027.01-.052.025-.077.04l-.092.029-.176.082c0-.03-.004-.044.001-.054l.1-.206c.029-.046.028-.076-.012-.11l-.185-.164-.113-.116.009-.019zm8.408-2.313l-.343-.127c-.075-.025-.152-.041-.238-.064l.345-.513c-.026-.005-.045-.001-.062.007l-.087.048-.395.177c-.018.008-.058.004-.063-.007-.024-.047-.04-.099-.057-.15l-.103-.337c-.004-.011-.019-.025-.029-.025s-.023.015-.028.026c-.013.034-.024.069-.033.104l-.116.425c-.014.055-.047.053-.089.053-.153-.001-.306-.002-.459.001-.027 0-.055.007-.082.013l.241.283c.036.039.043.077.035.12-.01.057-.029.112-.043.168l-.064.271.409-.149.018.074.027.243c.008.051.02.101.036.15.003.008.045.015.049.009l.142-.245c.037-.072.05-.157.119-.221l.059.095.172.229c.01.013.035.016.054.023.005-.013.014-.026.013-.039l-.022-.306c-.001-.153-.028-.117.121-.157.01-.003.022 0 .032-.003l.436-.117c.013-.003.026-.019.031-.032.002-.006-.015-.024-.027-.029zm-.063.029l-.584.059c-.04.003-.056.018-.049.054l.054.249c.005.028.001.058-.01.087l-.151-.234c-.015-.022-.04-.039-.06-.058l-.049.072-.142.242c-.005.009-.021.012-.04.021l-.045-.272c-.007-.061-.021-.073-.081-.05l-.215.081c-.018.007-.038.009-.071.017l.08-.17a.1.1 0 0 0-.037-.165l-.273-.238c-.007-.006-.007-.019-.014-.043l.208.016.186.022c.035.005.071.006.105.015.051.013.072-.007.077-.058.008-.087.023-.172.04-.257.01-.05.031-.097.047-.145l.02-.004.146.35.45-.173.011.017-.044.049-.176.248c-.011.016-.025.049-.02.052.025.019.054.039.084.045l.368.062c.057.012.11.044.165.068.01.005.018.015.027.022z"/></g><path d="M20.949 4.648l.054.249c.005.028.001.058-.01.087l-.151-.234c-.015-.022-.04-.039-.06-.058l-.049.072-.142.242c-.005.009-.021.012-.04.021l-.045-.272c-.007-.061-.021-.073-.081-.05l-.215.081c-.018.007-.038.009-.071.017l.08-.17a.1.1 0 0 0-.037-.165l-.273-.238c-.007-.006-.007-.019-.014-.043l.208.016.186.022c.035.005.071.006.105.015.051.013.072-.007.077-.058.008-.087.023-.172.04-.257.01-.05.031-.097.047-.145l.02-.004.146.35.45-.173.011.017-.044.049-.176.248c-.011.016-.025.049-.02.052.025.019.054.039.084.045l.368.062c.057.012.11.044.165.068.01.005.018.015.027.022a5.89 5.89 0 0 1-.587.078c-.04.003-.056.018-.049.054z" fill="#fbb040"/></svg>