<svg id="objects" xmlns="http://www.w3.org/2000/svg" viewBox="0 0 13.675 24.893"><defs><style>.cls-1{fill:#eac3a7}.cls-2{fill:#be1e2d}.cls-3{fill:#234968}.cls-4{fill:#0f181b}.cls-5{fill:#567591}</style></defs><g id="iDyCHW.tif"><path class="cls-4" d="M12.75 2.548c-.004-.203-.163-.382-.18-.575.078-.019.032-.075.02-.099-.115-.213-.206-.444-.414-.594a.62.62 0 0 1-.142-.14c-.069-.196-.16-.391-.353-.493-.124-.074-.263-.036-.394-.034-.192.026-.371-.045-.559-.067a1.47 1.47 0 0 0-.695.196c-.08.033-.16.064-.192.152-.03.08-.087.16-.022.25.01.013.004.038.004.058.008.43.006.859-.074 1.284-.03.162-.075.32-.109.481-.049.124.09.13.18.118.15-.026.221.03.221.181.016.37-.028.748.003 1.113-.058.102-.046.175.05.237.202.144-.492 1.045.341 1.505.362.168.324.497.296.833q-.005.155-.16.19c-.257.114-.338.387-.404.633-.214.209-.418.44-.492.741-.109.44-.184.885-.19 1.34-.003.353-.113.702-.01 1.05.018.063-.008.087-.059.09-.627.046-1.308-.237-1.483-.887-.047-.131-.121-.256-.097-.405.002-.013-.005-.027-.01-.04a.846.846 0 0 1-.052-.398 1.015 1.015 0 0 0-.076-.456c-.067-.289-.194-.1-.226-.263a1.573 1.573 0 0 0-.186-.534c-.114-.253.268-.163.175-.955-.017-.192-.228-.29-.341-.428-.358-.319-.585.027-.596-.645.006-.218-.078-.455.007-.663.04-.076.108-.138.142-.216.157-.444-.596-.622-.816-.298-.123.195-.047.435.146.567a.12.12 0 0 1 .047.08c0 .277.016.554.017.831a.295.295 0 0 1-.163.273c-.456.227-.71.64-.471 1.134.01.024-.012.062-.018.094-.137-.029-.187-.164-.303.002-.143.139-.303.411-.217.615.11.284.393.414.616.598.024.02.029.062.045.093.034.063.106.122.012.193-.053.177.119.322.11.493-.06.298-.151.618-.43.782-.287.174-.591.346-.887.497-.142.011-.286.007-.429.002-.077-.003-.112-.044-.103-.13a3.75 3.75 0 0 0 .017-.41c-.088-.988.018-2.085-.554-2.955-.27-.306.066-.715-.39-.91-.088-.124-.027-.45-.05-.61-.02-.234.347-.182.448-.342.097-.2.109-.41.04-.62-.034-.122-.142-.23-.125-.364.012-.087.08-.17.012-.26.09-.144-.174-.736.075-.7.131-.002.412.05.393-.156-.055-.474-.187-.939-.248-1.41-.014-.239-.004-.478-.002-.717 0-.025.005-.06.021-.075.067-.061.038-.126.007-.184-.146-.27-.492-.221-.75-.277a.782.782 0 0 0-.532.074c-.416.215-.882.437-1.091.884-.282.558-.286 1.322.187 1.781.021.018.032.058.035.09.057.84.009 1.097.678 1.687.154.136.254.307.345.488.096.101.19.666.008.697-.116.038-.187.197-.273.275-.165.091-.269.237-.358.391a6.32 6.32 0 0 0-.46 1.139c-.08.332-.094.68-.108 1.021-.061.554-.106 1.102-.036 1.657.016.392-.016.786.017 1.177.044.397.075.796.154 1.188.11.506.166 1.015.101 1.53-.07.917-.074 1.836-.133 2.753-.028.402.032.8.064 1.198-.002.152-.02.306 0 .456-.08.456-.127.942-.309 1.368-.153.236-.246.503-.378.752-.079.176-.235.306-.288.496-.047.063-.065.146-.097.217l.018.031c.322-.008.644-.014.956-.08.032.41-.032.814.03 1.221.005.095-.08.177-.096.267-.034.179-.05.36-.003.541a.21.21 0 0 0 .193.143c.128-.018.158-.178.17-.296.229.102.911.474 1.102.25.05-.059 0-.108-.034-.154-.23-.255-.538-.43-.824-.617-.281-.174-.023-.13-.086-.659-.022-.24-.063-.48-.093-.72.509-.052 1.006-.198 1.51-.075.059.01.07.053.066.108-.013.16-.037.322-.03.482-.005.269.084.545.05.81-.154.288-.237.472-.122.794.115.227.252-.33.314-.419.029.018.075.031.098.062.195.256.519.296.813.332.177.024.28-.08.221-.224a.204.204 0 0 0-.07-.09c-.296-.193-.604-.402-.938-.515.008-.31-.013-.611-.033-.919a42.32 42.32 0 0 0-.017-.257c-.004-.057.003-.083.077-.068.454.085.917.102 1.377.136.052.003.128 0 .154-.031.044-.055-.036-.093-.061-.139-.122-.22-.249-.437-.368-.659-.15-.26-.209-.553-.281-.84-.103-.266-.146-.55-.211-.827-.133-.457-.28-.912-.345-1.386-.055-.313-.031-.63-.008-.945-.004-.583-.05-1.165-.062-1.747.004-.635.054-1.269.08-1.903a7.44 7.44 0 0 1 .034-1.132c.013-.17.022-.339.038-.508.02-.045.1-.047.147-.036.781-.022 1.46-.336 1.914-.98a.793.793 0 0 0 .143-.303c.182-.316.307-.68.255-1.05-.072-.255.19-.167.172-.432-.074-.376-.542-.18.058-.535.05-.029.092-.095.156-.064-.001.15-.023.292.066.416.053.08.078.184.185.222.038.014.053.042.038.094-.041.162.068.316.092.471.043.486.437.777.738 1.119.376.468 1.015.561 1.584.536.268-.046-.188 1.338.13 1.415-.262.902-.061 1.845-.025 2.764.078.49.027.985.035 1.478.018.587.063 1.174.081 1.76.01.853.107 1.699.2 2.544.014.377.011.756.021 1.133-.013.221.167.166.318.173 0 .122-.006.235.003.347.006.087-.007.144-.097.182-.193.098-.381.21-.58.298-.157.081-.314.163-.467.252-.083.048-.088.257-.006.279.23.068.468.02.695-.045a1.33 1.33 0 0 0 .624-.263c.09.091.13.31.26.326.196-.204.13-.556.056-.804a1.51 1.51 0 0 1-.115-.523c.021-.112.274-.075.368-.102.034-.3-.057-.582-.038-.882a49.288 49.288 0 0 0-.046-1.886c-.11-.589-.059-1.192-.2-1.777a17.71 17.71 0 0 1-.053-1.674c.004-.237-.032-.47-.065-.703a22.476 22.476 0 0 1-.017-1.285c.002-.065.038-.297.127-.168.017.077.03.156.039.235.024.334.082.666.098.998-.005.439-.048.878-.03 1.317.015.462.073.922.135 1.38.112.386.11.788.134 1.186.018.842.132 1.676.251 2.509.026.23.041.463.06.694.006.16.138.116.247.11.022.154.104.292.072.437-.09.198-.284.294-.434.433-.115.107-.233.21-.348.319-.085.115.235.154.314.126.92-.118.517-.567.964-.033.02.02.066.034.09.025.022-.01.04-.051.045-.081.044-.3.03-.62-.156-.866-.065-.087-.208-.382-.059-.43.077-.018.152-.046.229-.056.059-.007.06-.037.053-.078-.068-.486-.197-.961-.2-1.454a14.946 14.946 0 0 1-.119-1.88c-.083-1.337-.087-2.68.065-4.01.04-.574.382-1.064.457-1.633.068-.296-.075-.572-.007-.877.211.072.14-.317.157-.449-.028-.501-.114-.996-.197-1.49-.034-.295-.05-.593-.07-.89-.038-.428-.01-.862-.1-1.284-.067-.325-.158-1.047-.525-1.164-.382-.078-.086-.594-.526-.627-.14-.03-.088-.193-.105-.297-.019-.342.03-.61.252-.881.094-.139.208-.265.285-.412.216-.462.284-.988.258-1.495.038-.112.108-.137.056-.274-.077-.277.293-.46.254-.778-.005-.126-.084-.268-.215-.24v-.202c.18.015.33.159.309.335-.03.236-.056.473-.125.703-.02.12-.076.283.013.386.415.249.475-.355.425-.635-.045-.148.074-.268.094-.408a1.502 1.502 0 0 0-.015-.248ZM11.29.974c-.106-.024-.226-.13-.234-.203l.234.203Zm-.808-.212c.117-.028.236-.108.357-.071v.024c-.067.02-.134.037-.2.06-.057.028-.108.073-.178.067-.041-.018-.003-.07.02-.08Zm-.055-.098-.098.169-.04-.021-.03-.098.168-.05Zm-.434.308c.01.048-.052.084-.078.118l-.019-.02c-.004-.057.03-.172.097-.098Zm.092 3.257c.095-.062.219-.028.326-.03.019 0 .034.042.051.065-.047.052-.103.058-.17.05v.007c-.08-.015-.177.007-.207-.092Zm.04.197c.123-.008.279-.096.373.015-.02.076-.16.131-.226.153-.076.025-.232-.088-.146-.168Zm.556 2.874c.06.095.067.237.106.358-.154.095-.356.163-.463.15.044-.176.146-.492.357-.508Zm-.171 1.107c.084.018.091.065.076.146-.043.19-.041.404-.091.59-.06-.013-.106-.029-.153-.03-.074.09.03.215.145.094-.025.262-.024.457-.026.705-.003.07 0 .149-.097.165.04.09.012.164-.064.177-.02-.205-.06-.41-.023-.603.044.005.079.012.112.01.047-.023-.01-.099-.033-.102-.182.024-.114-.293-.13-.4-.017-.22.053-.425.093-.636.03-.2.065-.43.15-.608.114-.058.21-.168.331-.137-.047.155-.094.3-.135.446-.018.066-.026.072-.088.04-.051-.025-.096-.01-.114.044-.013.041-.014.086.047.1Zm-.82.793c.033-.374.268-.69.385-1.041.146-.334.037-.224.297-.252-.065.319-.143.635-.191.956-.07.343.018.688 0 1.03 0 .18.018.36.03.54.004.08-.034.131-.094.179-.141.13-.255.239-.428.342-.109-.58-.028-1.17.002-1.754ZM5.953 4.96c.004-.094.168-.263.26-.258.187.012.424.102.396.294-.064.48-.622.424-.656-.035Zm-.448 2.087c.107-.27.405-.357.6-.544.036-.038.047-.11.047-.168 0-.27-.008-.542-.015-.813-.003-.113-.006-.112.112-.114.066-.008.114-.021.186-.023.078.275-.089 1.065.252 1.152.153.035.291.1.41.203.11.09.271.198.297.342.003.167.044.34-.044.5-.146.241-.112.346-.38.138-.162-.102-.544-.006-.454.227.08.094.206.16.272.264-.157.165-.513-.073-.55-.283a.95.95 0 0 1-.046-.207c-.007-.097-.084-.135-.143-.18-.044-.034-.079.013-.095.058-.061.13.055.208.027.314a1.684 1.684 0 0 0-.133.484c-.09.02-.03-.264-.035-.356-.036-.028-.086-.073-.142-.11-.271-.191-.295-.601-.166-.884Zm.076 1.389c-.112-.056-.118-.198-.012-.31.232.107.152.156.012.31Zm-.345-.44-.033.378c-.113-.078-.104-.241.033-.378ZM2.492 1.028l.01.028-.19.066-.01-.03.19-.064Zm.072.207-.277.095c.065-.097.197-.142.277-.095Zm-.647.467c-.09.168-.1.358-.147.542-.046-.072.043-.416.147-.542Zm-.324-.024-.184.358c.024-.136.065-.264.184-.358Zm.071 1.442a.683.683 0 0 0-.023.01l-.113-.26.026-.012.11.262Zm-.246-.879v.371c-.006-.122-.098-.24 0-.37Zm-.073-.199-.058.427c-.082-.075-.054-.285.058-.427Zm-.097.625.133.407c-.114-.102-.175-.293-.133-.407Zm1.01 2.883c-.281-.238-.582-.468-.715-.827-.156-.323-.097-.676-.142-1.019.403.054.782.044 1.172-.047.2-.009.09-.058.2-.136-.289-.144-.474-.365-.692-.588.094.12.193.236.283.36l-.018.015c-.114-.099-.197-.226-.29-.344-.002-.003.015-.02.024-.03l-.002-.003.003.002c-.175-.271-.342-.57-.21-.9.06-.177.075-.375.209-.52a.371.371 0 0 1 .272-.137c.148-.035.289-.142.444-.177l.011.025-.03.02c.027.002.049.01.066.004.183-.06.31.065.452.138.073.037.095.107.079.185-.118.661.07 1.327.186 1.975.033.128-.24.066-.32.112-.225.049-.088.285-.12.445-.002.016-.044.04-.069.04-.197.002-.378.05-.548.152-.127.079-.03.12.002.21.005.1.06.172.16.214.13.055.259.09.401.053.023-.006.064.01.079.03.13.162.278.712.08.847-.1.051-.205.091-.31.129-.296.116-.188.664-.14.909.02.08-.067.228-.155.157a.202.202 0 0 1-.062-.147c.02-.188.017-.373-.012-.56a.774.774 0 0 0-.287-.586Zm-.326-2.674.28.383c-.114-.019-.324-.3-.28-.383Zm.307.577c-.01.01-.021.018-.032.027-.123-.08-.171-.223-.276-.318l.03-.026.278.317Zm.285.923c.116-.17.335-.12.51-.161.112-.008.156.045.142.158-.064.145-.519.038-.652.003Zm.64.177c-.023.255-.481.066-.538-.05.096-.047.482-.008.539.05Zm-.845 2.19c.067-.066.103-.053.135.036.05.234.43.263.421-.007.169.04.195.076.217.234.012.088.05.17 0 .263-.05.094-.15.169-.215.123-.042-.03-.06-.093-.087-.142-.021-.036-.003-.112-.068-.1-.053.045-.046.214-.143.243-.043-.058-.02-.117-.013-.18-.05-.174-.151.04-.187.108-.213.212-.271-.429-.06-.577Zm3.75 3.932c-.145.293-.411.51-.602.774-.2.27-.49.412-.816.459-.522.132-.753.157-1.249-.084C2.35 11.39 1.92 10.07 1.85 9.02c.002-.21.035-.42.12-.619.042-.098.162-.125.295-.106a.684.684 0 0 1 .455.267c.14.224.118.52.15.776-.043.204-.12.298-.067.531.025.363.073.73.372.983.3.316.745.47 1.171.345.391-.091.82-.176 1.102-.483.106-.1.203-.206.236-.35.046-.194.126-.382.116-.587-.025-.124.17-.18.25-.096.058.04.149.034.232.049.051.326-.122.637-.214.944Zm.06-1.065c-.065-.033-.104-.142-.167-.193-.088.063-.082.214-.202.165-.074-.022-.097-.079-.08-.17.014-.16.167-.194.327-.18l.001-.008c.071.008.142.021.214.023.303.059.158.43-.093.363Zm-.238-.46c-.234.125-.262-.314-.551-.378-.329-.126-.512-.566-.246-.85.037-.04.056-.106.126-.047-.148.109-.178.262-.153.433.014.191.32.286.241.1-.109-.183.009-.3.045-.492l.164.08c-.146.342-.123.363.13.613.162.273.476.226.748.266-.214.181-.206.283-.504.275Zm.521-.385c-.186-.022-.38-.007-.554-.086-.142-.034-.035-.113-.207-.228.027-.042.052-.06.104-.019.1.061.19.115.3.164-.042-.122-.167-.222-.126-.35.08.114.09.27.248.317-.09-.18-.256-.348-.181-.561h.02c.13.209.202.495.496.522-.027-.034-.041-.065-.065-.08-.255-.179-.503-.494-.353-.814.054.21.125.378.201.574.028.077.088.11.16.124.104.02.204.059.315.024.145-.045.191-.185.082-.295-.068-.082-.235-.037-.262-.158l.056.017c-.003-.045-.021-.094-.005-.116.02-.028.07-.047.107-.046.022.001.042.048.06.07l.007-.103c.454.365.46.253.609.858.003.019-.02.056-.039.06-.161.04-.331.09-.492.118-.163-.082-.32.022-.481.008Zm.436.454c-.086-.172-.116-.308.084-.381.15-.055.636-.259.703-.029l.059.331c-.256.091-.629.325-.846.079Zm3.354 3.573c-.455-.059-.602.127-.53-.432.095-.733-.176-.626.53-.783v1.215Zm.19.01c-.087.012-.112-.044-.112-.106.024-.391-.014-.775.012-1.167l.261-.101c.027.133-.02.237-.02.365.04.312.072.626.083.942.009.12-.155.043-.225.068Zm.182-1.67c-.526.597-2.049.567-2.56-.044-.067-.078-.16-.133-.233-.206-.122-.133-.236-.286-.373-.4-.1-.12-.187-.254-.181-.43-.003-.173-.068-.347-.079-.52-.002-.02.011-.055.022-.057.145-.026.274-.146.426-.124.012.164.052.3.105.452.068.239.109.492.252.702.322.454.92.659 1.463.621.163-.017.304-.079.45-.138.177-.009.32-.133.459-.233.416-.343.411-.937.462-1.435-.008-.182.053-.588.281-.607.132.076.274.153.316.314.117.376-.042.764-.136 1.13-.144.373-.426.671-.674.974ZM11.74 8.05c.47.368.303 1.209.338 1.735.06.955.039 1.898.286 2.836-.296-.008-.58-.05-.874-.052-.215.028-.41.112-.634.145-.09-.44-.154-.862-.146-1.303-.04-.122.02-.194.09-.27.15-.162.269-.343.368-.539.149-.249.275-.511.274-.81.015-.29.1-.606-.03-.88-.465-.706-.66-.053-.766.44-.006.03-.02.061-.014.088.027.12-.048.217-.073.326.003-.546.023-1.09.226-1.607l.069.168c.233-.159.427-.346.603-.58.102.105.188.204.283.303Zm-.516-.804c.138.002.187.178.16.285a.969.969 0 0 1-.34.505c-.042.05-.147.136-.159.02.027-.093.008-.359.104-.39.195-.036.212-.264.235-.42Zm.847-4.543c.064 0 .087.064.074.125-.029.188-.022.397-.181.533-.108.12-.069.261-.05.396.028.153-.144.084-.163-.014-.044.084.025.177.155.19-.029.468-.028.962-.285 1.373-.185.376-.564.683-.556 1.13.012.342.06.694.016 1.034-.169.038-.187.02-.215-.193a1.532 1.532 0 0 1-.006-.373 1.309 1.309 0 0 0-.108-.655c-.207-.337-.708-.314-.675-.878.05-.207.143-.41.199-.616.016-.058.033-.104.1-.112.268-.092.195-.082.171-.323.06-.388-.494-.042-.43-.293.045-.153.05-.307.031-.466-.05-.17.091-.453-.13-.526-.073-.034-.316.033-.266-.1.136-.431.153-.882.154-1.331.02-.145-.079-.348.052-.453.237-.135.492-.237.761-.286.183-.001.337.16.488.25.215.184.413.405.47.688.059.3-.146.571-.143.87.451.076.187-.14.44-.232.056.295-.176.277-.125.532l.025.007c.045-.094.088-.251.197-.278Zm.025-.726-.126-.058.11-.113.039.156a.445.445 0 0 1-.023.015Zm.086-.057-.053-.258.015-.014c.094.052.054.18.078.27l-.04.002Zm.28 1.38c.006.128-.027.233-.119.316-.03-.066.042-.277.119-.317Zm-.018.555-.041-.04c.036-.022.077-.105.111-.047-.022.03-.046.058-.07.087Zm.115-1.462-.105-.128.027-.023c.063.015.096.053.078.15Z"/><path class="cls-3" d="M6.068 10.675c-.144.293-.41.51-.601.773-.2.271-.49.412-.816.46-.522.132-.754.156-1.249-.085C2.35 11.39 1.92 10.07 1.85 9.021c.002-.21.035-.42.12-.62.042-.097.162-.124.295-.105a.684.684 0 0 1 .455.267c.14.224.118.52.15.776-.043.204-.12.298-.067.53.025.364.073.731.372.984.3.316.745.47 1.171.345.391-.091.82-.176 1.102-.484.106-.1.202-.205.236-.349.046-.194.126-.382.116-.588-.025-.123.17-.18.25-.095.058.04.148.033.232.049.05.326-.122.637-.214.944Z"/><path class="cls-2" d="M3.165 4.553c-.024.255-.482.066-.54-.05.097-.047.483-.008.54.05ZM3.176 4.372c-.064.145-.519.039-.652.004.116-.17.335-.12.51-.161.112-.009.156.045.142.157Z"/><path class="cls-3" d="M6.212 4.702c-.092-.005-.256.163-.26.259.034.459.592.514.656.035.028-.193-.21-.282-.396-.294Zm.091.403c-.294.017-.363-.313-.051-.281.165.017.22.25.051.281Z"/><path class="cls-5" d="M7.349 7.582c-.146.241-.112.346-.38.138-.162-.102-.544-.006-.454.227.08.094.206.16.272.263-.157.166-.513-.073-.55-.282a.95.95 0 0 1-.046-.208c-.007-.096-.084-.134-.143-.18-.044-.034-.08.014-.095.058-.061.13.055.209.027.315a1.684 1.684 0 0 0-.133.484c-.09.019-.03-.265-.035-.356-.036-.028-.086-.073-.142-.11-.271-.191-.295-.601-.166-.884.107-.27.405-.357.6-.544.036-.038.047-.11.047-.168 0-.27-.008-.542-.015-.813-.003-.113-.006-.112.112-.114.066-.008.114-.022.186-.024.078.276-.089 1.066.252 1.153.153.035.291.1.41.203.11.09.27.198.297.342.003.167.044.34-.044.5Z"/><path class="cls-1" d="M12.071 2.704c-.109.026-.153.183-.198.278l-.024-.008c-.05-.255.181-.237.124-.531-.252.092.012.307-.44.231-.002-.299.203-.57.143-.87-.056-.283-.254-.504-.47-.687-.15-.09-.304-.252-.487-.251-.269.049-.524.15-.762.286-.13.105-.031.308-.051.453-.002.45-.018.9-.154 1.332-.05.132.193.065.266.099.221.073.08.357.13.526.02.159.013.314-.032.466-.063.251.49-.095.431.293.023.24.097.232-.172.323-.067.008-.083.054-.1.112-.055.207-.148.409-.198.616-.034.564.468.541.675.878.087.207.133.432.108.655-.014.128-.01.249.006.373.028.214.046.231.215.193.044-.34-.004-.692-.016-1.034-.008-.447.37-.754.556-1.13.257-.411.256-.905.284-1.373-.13-.013-.198-.106-.154-.19.018.098.19.167.163.014-.019-.135-.058-.276.05-.396.158-.136.152-.345.18-.533.013-.06-.01-.124-.073-.125Zm-1.893-.392.004-.03c.03.005.065.002.088.017.204.118.458.23.69.14.146-.04.263-.149.422-.134-.223.29-.97.284-1.204.007Zm1.187-.26c-.162.14-.334.279-.564.281-.207.01-.343-.184-.553-.19-.086-.014-.16-.097-.118-.171.155-.11.357-.183.532-.265.166-.066.327-.013.485.046.105.032.235.065.267.183.008.033-.019.093-.049.115ZM3.24 3.658c.08-.046.353.016.32-.112-.116-.648-.304-1.314-.186-1.975.016-.078-.006-.148-.08-.186-.14-.073-.268-.197-.451-.137-.017.005-.039-.003-.066-.005l.03-.019-.011-.025c-.155.035-.296.141-.444.177a.371.371 0 0 0-.272.137c-.134.145-.148.343-.208.52-.133.33.034.629.209.9.218.223.404.444.691.588-.109.078 0 .127-.2.136-.389.09-.768.101-1.17.047.044.343-.015.696.141 1.018.133.36.434.59.716.828a.774.774 0 0 1 .287.587c.03.187.033.372.012.56a.202.202 0 0 0 .062.146c.088.072.176-.077.155-.157-.048-.244-.155-.792.14-.909.105-.037.21-.078.31-.128.198-.136.05-.686-.08-.848-.015-.02-.056-.036-.079-.03-.142.037-.272.002-.4-.052-.101-.042-.155-.114-.16-.214-.033-.09-.13-.132-.003-.21.17-.102.352-.15.549-.152.024 0 .067-.025.068-.04.033-.16-.104-.397.121-.445Zm-.731.356c-.27.206-.181.531-.062.798-.428-.384-.154-.804.2-.98-.026.097-.067.13-.138.182Zm-.02-1.592c-.346-.093-.468-.55-.042-.612l-.136.07a.105.105 0 0 1 .01.01l.442-.084-.114-.042c.151-.058.225.056.305.14.313.273-.177.639-.464.518ZM6.395 8.875c-.214.18-.206.283-.504.275-.234.125-.262-.314-.552-.378-.328-.127-.511-.567-.245-.85.037-.04.056-.106.126-.048-.148.11-.178.263-.154.434.015.19.322.286.242.1-.109-.183.009-.3.045-.492l.164.08c-.146.342-.123.363.13.613.162.272.476.225.748.266Z"/><path class="cls-1" d="M7.424 8.579c.003.019-.02.056-.039.06-.161.04-.331.09-.492.118-.163-.082-.32.022-.481.008-.187-.022-.38-.007-.555-.086-.142-.034-.034-.114-.206-.228.026-.042.051-.06.104-.019.1.061.19.115.3.164-.043-.122-.167-.222-.126-.35.08.114.089.27.248.317-.09-.18-.256-.348-.182-.561h.022c.129.209.2.495.495.522-.027-.034-.042-.065-.066-.08-.255-.18-.503-.495-.352-.814.054.21.125.378.2.574.029.077.09.11.16.124.104.02.205.059.315.024.146-.045.192-.185.082-.295-.068-.082-.234-.037-.262-.158l.056.017c-.003-.045-.02-.094-.004-.116.02-.028.07-.047.106-.046.022 0 .042.048.06.07l.008-.103c.453.365.46.253.609.858Z"/><path class="cls-4" d="M11.414 1.936c-.032-.118-.162-.15-.267-.183-.158-.06-.319-.112-.485-.046-.175.082-.377.155-.532.265-.042.074.032.157.118.17.21.006.346.2.553.191.23-.002.402-.142.564-.282.03-.022.058-.082.05-.115Zm-.978.143c-.044-.037-.103-.064-.103-.092 0-.066.06-.08.124-.08l-.02.172Zm.34.162c-.09-.002-.26-.125-.263-.205-.005-.12.13-.247.265-.248.078 0 .172.126.172.233 0 .086-.105.222-.175.22Zm.253-.047c0-.012-.006-.027 0-.036.057-.119-.012-.222-.056-.331.134 0 .27.087.314.192-.086.053-.154.164-.258.175Z"/><path class="cls-4" d="M11.382 2.305c-.223.29-.97.284-1.204.007l.004-.03c.03.005.065.002.088.017.204.118.458.23.69.14.146-.04.263-.149.422-.134ZM2.954 1.904c-.08-.084-.154-.198-.305-.14l.114.041-.442.084a.118.118 0 0 0-.01-.01l.136-.069c-.426.062-.304.519.043.612.287.12.777-.245.464-.518Zm-.55.075.066.188-.02.016-.173-.134.127-.07Zm-.084.242c.186.06.412.076.566.036-.217.153-.464.134-.566-.036Zm.455-.02v-.104c-.097.152-.419.016-.29-.137.093-.033.275-.117.291.042.025-.013.049-.026.09-.05.112.158.063.16-.091.249ZM2.648 3.833c-.027.096-.068.128-.139.18-.27.207-.181.532-.062.8-.428-.385-.154-.805.2-.98ZM10.51 8.793c-.082.07-.095.086-.164.013.061-.093.065-.095.165-.013ZM7.034 8.962c.08-.01.088.053.094.105.007.063-.03.097-.094.096-.136.008-.143-.216 0-.201ZM10.462 12.515c-.092-.098-.198-.199-.006-.233.064.005.086.063.086.11 0 .034-.041.067-.08.123ZM10.414 11.854c-.073-.088-.117-.11-.024-.192.03.039.063.076.086.118.004.008-.03.037-.062.074ZM6.252 4.824c-.312-.032-.243.298.051.281.169-.03.114-.265-.051-.281Zm-.005.21c-.126.004-.14-.099-.033-.165.131.008.137.132.033.165Z"/><path class="cls-5" d="M6.247 5.034c-.126.004-.14-.099-.033-.165.131.008.137.132.033.165Z"/><path class="cls-4" d="M10.813 1.96c-.065.134-.15.172-.181-.005a.43.43 0 0 1 .155-.016l.026.021ZM2.576 2.099l-.006-.101.098.041-.059.072-.033-.013Z"/></g></svg>