<svg xmlns="http://www.w3.org/2000/svg" viewBox="0 0 13.675 24.893" xmlns:v="https://vecta.io/nano"><path d="M12.75 2.548c-.004-.203-.164-.382-.181-.575.079-.019.033-.075.02-.099-.115-.213-.206-.444-.414-.594a.62.62 0 0 1-.142-.141c-.069-.196-.16-.391-.353-.493-.124-.074-.262-.035-.393-.033-.193.025-.372-.045-.559-.067a1.47 1.47 0 0 0-.695.196c-.081.033-.16.064-.193.152-.03.08-.086.159-.022.25.01.013.004.038.004.058.008.431.006.859-.073 1.285l-.109.481c-.049.124.089.13.179.118.15-.026.222.03.222.182l.002 1.113c-.057.102-.046.175.05.237.202.144-.491 1.045.342 1.505.362.168.323.497.296.833q-.006.155-.161.189c-.256.114-.338.387-.404.634-.214.209-.418.44-.492.741-.109.441-.184.886-.189 1.341-.004.352-.114.701-.01 1.05.018.063-.008.087-.059.089-.628.046-1.308-.237-1.483-.887-.047-.131-.121-.256-.097-.405.002-.012-.005-.027-.009-.04-.043-.13-.073-.259-.053-.398.018-.154-.023-.313-.075-.456-.067-.289-.194-.101-.226-.263-.03-.189-.091-.368-.186-.534-.114-.253.269-.164.175-.955-.017-.193-.229-.291-.341-.428-.358-.319-.585.027-.596-.645.005-.218-.078-.455.007-.663.04-.076.108-.139.142-.216.157-.444-.596-.622-.816-.298-.123.195-.048.435.146.567a.12.12 0 0 1 .047.08l.017.831c-.002.116-.05.212-.162.272-.457.227-.71.641-.472 1.134.01.025-.011.062-.018.094-.136-.029-.186-.164-.303.002-.143.139-.303.411-.217.615.111.284.393.414.616.598.024.02.029.062.045.093.034.063.105.122.012.193-.053.177.119.322.109.493-.059.299-.15.618-.429.782l-.887.497a3.88 3.88 0 0 1-.429.002c-.077-.002-.112-.044-.104-.13a3.75 3.75 0 0 0 .017-.409c-.087-.988.018-2.086-.554-2.956-.27-.305.067-.715-.389-.91-.089-.124-.027-.449-.051-.609-.019-.234.348-.183.449-.342.097-.2.108-.41.039-.62-.034-.123-.142-.231-.125-.365.012-.086.079-.169.012-.26.091-.144-.174-.736.075-.699.131-.003.412.05.393-.156-.055-.474-.187-.939-.248-1.411-.014-.238-.005-.477-.003-.716 0-.025.005-.06.022-.075.067-.061.038-.126.007-.184C3.327.95 2.981 1 2.723.944c-.187-.033-.367-.018-.532.074-.416.215-.882.437-1.091.884-.282.558-.286 1.322.187 1.781.021.018.032.058.035.089.058.841.009 1.098.678 1.688.154.136.253.308.345.488.096.101.191.666.008.697-.116.038-.187.198-.273.276-.165.091-.269.237-.358.391a6.32 6.32 0 0 0-.461 1.139c-.08.332-.093.681-.107 1.021-.061.554-.106 1.102-.035 1.657l.017 1.177.154 1.188c.11.506.165 1.015.101 1.531l-.133 2.753c-.028.402.032.799.064 1.198-.002.152-.02.306 0 .456-.08.456-.127.942-.308 1.368-.153.236-.246.503-.378.751-.078.176-.235.306-.288.496-.047.063-.065.146-.097.217l.018.031c.322-.008.644-.014.956-.081.032.412-.032.815.031 1.222.004.095-.081.177-.097.266-.034.179-.051.36-.003.541.02.075.106.143.193.143.128-.018.158-.178.17-.296.229.102.911.474 1.102.25.049-.059-.001-.108-.035-.154-.231-.255-.538-.431-.824-.617-.281-.174-.023-.13-.086-.659l-.092-.719c.508-.052 1.005-.199 1.51-.075.058.01.07.052.065.107-.013.161-.037.322-.03.482-.005.269.085.545.05.811-.153.288-.236.471-.121.794.115.227.252-.331.314-.419.029.017.075.031.098.062.194.255.518.295.813.332.176.024.279-.081.221-.225-.014-.034-.041-.069-.071-.089-.295-.194-.604-.403-.937-.515.008-.31-.013-.612-.033-.919l-.017-.258c-.004-.057.003-.082.077-.068.454.086.918.102 1.377.136.053.003.129.001.154-.031.044-.055-.036-.093-.061-.139l-.367-.659c-.151-.259-.209-.553-.282-.84-.102-.266-.145-.55-.211-.827-.133-.457-.28-.913-.345-1.386-.055-.314-.031-.631-.008-.945l-.062-1.747.08-1.903a7.44 7.44 0 0 1 .035-1.132l.037-.508c.02-.045.101-.047.148-.036.781-.022 1.46-.336 1.913-.98.072-.089.114-.194.143-.302.183-.316.307-.68.256-1.051-.072-.254.189-.166.172-.431-.075-.376-.542-.18.058-.535.05-.029.092-.095.156-.064-.001.149-.023.292.066.416.053.08.078.184.185.222.037.014.053.042.038.093-.041.162.068.316.092.472.043.486.438.776.738 1.118.376.468 1.015.562 1.585.537.268-.046-.188 1.338.129 1.415-.261.902-.061 1.845-.025 2.764.078.49.027.985.035 1.478l.082 1.76c.009.852.107 1.698.2 2.544l.021 1.133c-.013.221.167.165.318.173l.002.347c.007.087-.007.144-.096.182l-.581.298-.467.252c-.083.048-.088.257-.006.279.231.068.468.02.695-.044a1.33 1.33 0 0 0 .624-.263c.09.091.129.309.261.326.196-.204.13-.556.055-.804a1.51 1.51 0 0 1-.114-.523c.021-.112.274-.075.368-.102.034-.301-.057-.582-.038-.882l-.047-1.886c-.109-.589-.058-1.192-.199-1.777a17.71 17.71 0 0 1-.053-1.674c.004-.237-.032-.47-.065-.703l-.017-1.285c.002-.065.038-.296.127-.168a2.34 2.34 0 0 1 .039.235l.098.998-.03 1.317c.015.462.073.922.134 1.379.112.387.11.788.134 1.187.018.842.132 1.676.252 2.508l.06.695c.006.16.138.115.246.11.023.153.104.291.072.436-.09.199-.284.294-.434.434l-.348.319c-.085.115.234.154.314.126.921-.118.517-.567.964-.033.019.02.066.034.089.025s.041-.051.045-.081c.044-.3.03-.62-.156-.866-.065-.087-.207-.382-.058-.43.077-.019.152-.047.229-.056.059-.007.06-.038.053-.078-.068-.486-.197-.962-.201-1.454-.072-.626-.125-1.25-.118-1.881-.084-1.336-.088-2.679.065-4.01.041-.574.382-1.064.457-1.633.068-.296-.075-.572-.007-.876.211.071.14-.318.157-.449-.028-.501-.114-.996-.197-1.49l-.069-.89c-.038-.428-.01-.861-.1-1.284-.068-.325-.159-1.047-.526-1.164-.382-.078-.086-.594-.526-.627-.139-.03-.087-.192-.105-.297-.018-.342.03-.61.252-.881.094-.138.208-.265.285-.411.216-.462.284-.989.258-1.495.038-.112.108-.137.056-.274-.077-.277.292-.46.254-.778-.005-.126-.084-.268-.215-.241v-.201c.179.015.331.159.309.335-.029.236-.055.473-.124.703-.021.119-.077.283.012.385.415.249.475-.355.425-.635-.044-.148.074-.268.095-.408.004-.082-.005-.166-.015-.248zM11.29.974c-.106-.024-.226-.13-.234-.203l.234.203zm-.809-.212c.117-.027.236-.107.357-.071v.024l-.199.06c-.057.028-.109.072-.178.067-.042-.017-.004-.069.02-.08zm-.055-.098l-.098.169-.039-.021-.03-.098.168-.049zm-.435.309c.01.048-.052.083-.077.118l-.019-.021c-.004-.056.03-.171.096-.097zm.092 3.257c.095-.062.219-.029.326-.031.018.001.034.043.051.066-.047.051-.103.058-.169.05-.082-.008-.178.014-.208-.084zm.041.197c.122-.009.278-.096.372.015-.02.076-.159.132-.226.153-.076.025-.232-.088-.146-.168zm.555 2.874c.061.095.067.237.107.358-.154.095-.356.164-.463.151.044-.176.146-.492.357-.508zm-.171 1.107c.084.018.091.065.076.146-.043.191-.041.405-.091.591-.059-.014-.106-.03-.153-.031-.074.09.031.214.146.094-.025.262-.024.457-.027.705-.002.07 0 .149-.097.165.041.089.012.164-.064.177-.02-.205-.061-.409-.023-.603.044.005.078.012.112.011.047-.024-.01-.1-.034-.102-.181.024-.113-.293-.13-.4-.017-.219.053-.425.093-.636.029-.201.065-.43.151-.608.113-.058.209-.169.331-.137l-.135.446c-.019.066-.026.072-.089.04-.051-.025-.095-.011-.113.044-.014.041-.015.086.047.099zm-.819.793c.033-.374.267-.69.385-1.041.146-.334.036-.224.297-.252l-.191.956c-.07.343.019.688.001 1.029 0 .18.017.36.029.54.005.08-.033.132-.093.179-.141.13-.254.239-.428.343-.109-.579-.028-1.17.001-1.754zM5.952 4.961c.004-.095.167-.264.259-.258.187.012.424.101.396.294-.064.479-.622.424-.656-.035zm-.448 2.087c.107-.271.404-.357.6-.545.036-.037.047-.11.047-.167l-.015-.813c-.003-.113-.006-.112.112-.114.066-.008.114-.021.186-.023.077.276-.089 1.065.252 1.153.153.035.291.1.41.203.11.09.27.198.296.342.003.167.045.341-.044.5-.146.241-.112.346-.38.137-.161-.102-.543-.006-.454.227.081.094.207.16.272.264-.157.165-.513-.073-.55-.283a.95.95 0 0 1-.046-.207c-.007-.097-.084-.135-.143-.18-.044-.034-.079.014-.095.058-.061.13.055.209.027.314-.075.154-.106.316-.133.485-.09.019-.03-.265-.035-.356l-.142-.109c-.271-.192-.295-.602-.165-.885zm.076 1.388c-.112-.056-.118-.198-.012-.309.231.107.152.155.012.309zm-.345-.44l-.033.379c-.113-.078-.104-.242.033-.379zM2.492 1.028l.009.028-.189.066-.01-.031.191-.063zm.072.207l-.277.095c.064-.097.197-.142.277-.095zm-.647.467c-.091.169-.1.358-.148.543-.046-.072.044-.416.148-.542zm-.325-.024l-.184.358c.024-.135.065-.264.184-.358zm.072 1.442l-.023.01-.113-.26.025-.011.111.261zm-.246-.878v.371c-.006-.122-.098-.241 0-.371zm-.073-.199l-.058.427c-.082-.075-.054-.285.058-.427zm-.097.625l.133.407c-.114-.102-.175-.293-.133-.407zm1.01 2.883c-.282-.239-.583-.468-.716-.828-.157-.322-.097-.676-.142-1.019.403.054.782.044 1.172-.047.199-.009.09-.058.199-.136-.288-.144-.473-.365-.691-.588h0l.284.358-.018.015c-.115-.099-.197-.226-.291-.344-.002-.002.016-.02.025-.03h0c-.175-.271-.342-.571-.209-.9.06-.178.074-.376.208-.52.068-.086.157-.125.272-.137.148-.036.289-.143.444-.177l.011.025-.03.019c.027.002.049.01.066.005.183-.06.31.065.452.137.073.038.096.108.079.185-.118.661.07 1.327.187 1.975.032.128-.24.065-.32.112-.226.049-.088.285-.121.445-.001.016-.044.041-.068.041a1.06 1.06 0 0 0-.548.151c-.127.079-.03.12.002.211.005.1.059.172.16.214.129.054.259.089.401.053.023-.006.064.01.079.03.13.162.278.712.08.847-.099.051-.205.091-.31.129-.295.117-.187.664-.14.909.021.08-.067.228-.155.157-.036-.034-.067-.099-.062-.146.02-.188.017-.373-.012-.559 0-.234-.114-.44-.287-.587zm-.326-2.674l.28.382c-.115-.018-.325-.299-.28-.382zm.306.577l-.032.027c-.123-.079-.171-.223-.276-.318l.031-.026.277.317zm.285.923c.116-.169.335-.119.51-.161.112-.008.155.045.142.158-.064.145-.519.038-.652.003zm.641.177c-.023.255-.482.065-.539-.05a.93.93 0 0 1 .539.05zm-.845 2.191c.067-.067.103-.054.135.035.05.234.43.263.421-.007.169.041.195.076.217.234.012.088.051.169.001.263s-.151.169-.216.123c-.042-.03-.059-.093-.087-.141-.021-.037-.002-.112-.067-.099-.053.044-.047.214-.143.243-.043-.058-.02-.117-.014-.18-.05-.174-.151.04-.187.107-.213.212-.271-.429-.06-.577zm3.749 3.931c-.144.293-.41.511-.601.774-.2.271-.49.412-.816.459-.522.132-.753.157-1.248-.084-1.052-.433-1.482-1.753-1.552-2.803a1.59 1.59 0 0 1 .12-.619c.042-.098.161-.125.294-.106.189.027.344.122.455.267.14.224.118.52.15.776-.043.204-.12.298-.067.531.026.363.074.73.373.983.3.316.745.47 1.171.345.391-.091.819-.176 1.102-.483.107-.1.203-.205.237-.349.045-.194.126-.383.116-.588-.025-.124.17-.18.25-.095.058.04.148.033.231.049.051.326-.122.637-.214.944zm.061-1.065c-.066-.033-.104-.142-.168-.193-.087.063-.081.214-.202.165-.073-.022-.097-.079-.079-.17.013-.159.167-.194.326-.18.072.001.143.014.215.015.303.059.158.431-.093.363zm-.238-.46c-.234.126-.262-.313-.552-.378-.328-.127-.512-.567-.246-.85.037-.04.056-.107.126-.048-.148.109-.178.263-.154.434.015.191.321.286.242.1-.109-.184.008-.301.045-.492l.164.08c-.146.342-.123.363.131.612.162.273.475.226.748.266-.214.181-.207.284-.504.275zm.521-.385c-.186-.022-.38-.008-.554-.086-.142-.034-.035-.114-.207-.228.027-.043.052-.059.104-.019.099.061.189.115.3.164-.043-.122-.167-.222-.126-.349.08.113.089.269.247.316-.09-.179-.256-.348-.181-.561h.021c.129.209.201.495.495.522-.027-.034-.042-.065-.066-.081-.255-.178-.503-.494-.353-.814.054.211.125.378.201.574.028.077.088.11.16.124.104.02.204.059.315.024.145-.045.191-.186.082-.296-.068-.082-.234-.037-.262-.158l.056.017c-.003-.045-.021-.093-.004-.116.02-.028.07-.047.106-.045.022.001.042.048.06.069l.008-.102c.453.365.46.253.609.858.003.019-.021.056-.039.06l-.492.117c-.163-.082-.321.023-.481.008zm.436.454c-.086-.172-.116-.308.084-.381.151-.055.636-.259.704-.029l.058.331c-.256.091-.628.325-.846.079zm3.354 3.573c-.455-.059-.602.128-.53-.431.096-.733-.175-.626.53-.784v1.215zm.19.011c-.086.011-.111-.045-.112-.107.024-.391-.014-.775.013-1.167l.261-.101c.026.133-.02.237-.02.365l.083.942c.008.12-.155.044-.225.068zm.183-1.671c-.526.597-2.049.568-2.561-.043-.066-.078-.159-.133-.233-.207-.122-.133-.236-.285-.373-.4-.1-.12-.186-.254-.181-.43-.003-.172-.068-.346-.079-.52-.002-.019.011-.055.022-.056.145-.025.274-.146.427-.124a1.7 1.7 0 0 0 .104.451c.069.239.109.493.253.703.322.454.92.659 1.463.621.164-.017.304-.079.45-.138.177-.008.32-.133.459-.233.417-.343.412-.937.463-1.435-.008-.182.053-.588.281-.607.132.077.274.154.316.314.117.376-.042.764-.136 1.131-.144.372-.426.67-.674.974zm1.166-3.081c.469.368.303 1.209.338 1.735.059.955.038 1.898.285 2.836l-.873-.052c-.215.028-.41.112-.634.145-.089-.441-.154-.862-.146-1.303-.04-.122.021-.195.091-.271.149-.162.268-.343.368-.538.149-.249.274-.512.274-.811.015-.289.1-.606-.03-.88-.465-.705-.66-.053-.766.441-.007.029-.02.061-.014.088.027.12-.048.217-.073.326.002-.546.023-1.09.226-1.607l.069.169c.233-.159.427-.347.603-.581l.283.303zm-.516-.804c.138.002.187.179.16.285-.052.207-.177.37-.339.505-.043.05-.147.136-.159.019.026-.093.008-.358.103-.389.196-.037.212-.265.236-.421zm.847-4.543c.064.001.086.064.073.125-.029.188-.022.397-.181.533-.108.12-.068.261-.049.396.027.153-.145.084-.164-.013-.044.083.025.177.155.189-.029.469-.027.962-.284 1.374-.185.376-.564.683-.556 1.129.012.343.06.694.016 1.034-.169.038-.187.021-.215-.193a1.53 1.53 0 0 1-.006-.373c.025-.223-.021-.447-.108-.654-.207-.337-.708-.314-.674-.878.05-.207.143-.409.198-.616.017-.057.033-.104.1-.112.269-.092.195-.082.172-.323.059-.388-.495-.042-.431-.293a1.13 1.13 0 0 0 .032-.467c-.05-.169.091-.453-.13-.526-.073-.034-.316.033-.266-.099.136-.432.153-.883.154-1.332.02-.145-.079-.348.052-.453.237-.135.493-.237.761-.286.183-.001.337.161.488.251.216.184.413.405.47.687.059.3-.145.571-.143.87.451.076.187-.139.44-.232.057.295-.175.276-.124.532l.025.007c.045-.094.089-.252.198-.278zm.025-.726l-.126-.058.111-.114.038.157-.023.015zm.086-.057l-.053-.258.015-.014c.093.052.054.18.078.27l-.04.002zm.28 1.379a.37.37 0 0 1-.118.317c-.031-.066.042-.277.118-.317zm-.018.555l-.041-.039c.036-.022.077-.106.111-.047l-.07.087zm.115-1.462l-.105-.128.027-.023c.063.015.096.053.078.151z" fill="#0f181b"/><path d="M6.068 10.675c-.144.293-.41.511-.601.774-.2.271-.49.412-.816.459-.522.132-.753.157-1.248-.084C2.35 11.391 1.92 10.07 1.85 9.021a1.59 1.59 0 0 1 .12-.619c.042-.098.161-.125.294-.106.189.027.344.122.455.267.14.224.118.52.15.776-.043.204-.12.298-.067.531.026.363.074.73.373.983.3.316.745.47 1.171.345.391-.091.819-.176 1.102-.483.107-.1.203-.205.237-.349.045-.194.126-.383.116-.588-.025-.124.17-.18.25-.095.058.04.148.033.231.049.051.326-.122.637-.214.944z" fill="#234968"/><path d="M3.165 4.553c-.023.255-.482.065-.539-.05a.93.93 0 0 1 .539.05zm.011-.18c-.064.145-.519.038-.652.003.116-.169.335-.119.51-.161.112-.008.155.045.142.158z" fill="#be1e2d"/><path d="M6.212 4.702c-.092-.005-.255.163-.259.258.034.459.592.515.656.035.028-.193-.209-.282-.396-.294zm.092.403c-.294.017-.363-.314-.051-.281.165.017.22.251.051.281z" fill="#234968"/><path d="M7.349 7.582c-.146.241-.112.346-.38.137-.161-.102-.543-.006-.454.227.081.094.207.16.272.264-.157.165-.513-.073-.55-.283a.95.95 0 0 1-.046-.207c-.007-.097-.084-.135-.143-.18-.044-.034-.079.014-.095.058-.061.13.055.209.027.314-.075.154-.106.316-.133.485-.09.019-.03-.265-.035-.356l-.142-.109c-.271-.192-.295-.602-.165-.885.107-.271.404-.357.6-.545.036-.037.047-.11.047-.167l-.015-.813c-.003-.113-.006-.112.112-.114.066-.008.114-.021.186-.023.077.276-.089 1.065.252 1.153.153.035.291.1.41.203.11.09.27.198.296.342.003.167.045.341-.044.5z" fill="#567591"/><g fill="#eac3a7"><path d="M12.071 2.704c-.109.026-.153.184-.198.278l-.025-.007c-.051-.255.181-.237.124-.532-.252.092.012.307-.44.232-.002-.299.202-.57.143-.87-.056-.283-.254-.504-.47-.687-.151-.09-.305-.252-.488-.251-.268.049-.524.151-.761.286-.13.105-.032.308-.052.453-.001.449-.018.9-.154 1.332-.05.132.193.065.266.099.222.073.08.357.13.526a1.13 1.13 0 0 1-.032.467c-.063.251.49-.095.431.293.023.241.097.231-.172.323-.067.008-.083.054-.1.112l-.198.616c-.034.564.467.542.674.878.087.207.134.431.108.654a1.53 1.53 0 0 0 .006.373c.028.214.046.231.215.193.044-.34-.004-.691-.016-1.034-.008-.446.371-.753.556-1.129.257-.412.256-.905.284-1.374-.13-.012-.199-.106-.155-.189.019.097.191.166.164.013-.019-.135-.059-.276.049-.396.159-.136.152-.345.181-.533.013-.061-.01-.124-.073-.125zm-1.893-.392l.004-.03c.03.005.065.002.087.017.204.118.458.23.689.14.146-.04.264-.149.423-.134-.223.29-.97.284-1.203.007zm1.187-.261c-.162.14-.334.28-.564.282-.207.009-.343-.184-.553-.19-.086-.014-.16-.097-.118-.171.155-.109.358-.183.532-.264.166-.066.327-.013.485.046.105.032.235.065.267.183.008.033-.019.092-.049.115zM3.241 3.658c.08-.047.352.016.32-.112-.117-.649-.305-1.314-.187-1.975.016-.077-.006-.147-.079-.185-.142-.073-.268-.197-.452-.137-.017.005-.039-.002-.066-.005l.03-.019-.011-.025c-.155.035-.296.141-.444.177a.37.37 0 0 0-.272.137c-.134.145-.148.343-.208.52-.133.329.034.628.209.9.218.223.404.443.692.588-.109.078 0 .127-.199.136a3.16 3.16 0 0 1-1.171.047c.045.343-.015.696.142 1.019.133.359.434.589.716.828.173.148.287.354.287.587a2.09 2.09 0 0 1 .012.559.2.2 0 0 0 .062.146c.088.072.176-.077.155-.157-.047-.245-.155-.793.14-.909a2.47 2.47 0 0 0 .31-.129c.198-.136.05-.686-.08-.847-.015-.02-.056-.036-.079-.03-.142.037-.272.002-.401-.053-.101-.042-.155-.113-.16-.214-.033-.09-.13-.132-.002-.211a1.06 1.06 0 0 1 .548-.151c.024 0 .067-.025.068-.041.033-.16-.104-.396.121-.445zm-.732.356c-.271.207-.182.532-.062.798-.428-.384-.155-.804.2-.979-.027.096-.067.128-.139.181zM2.49 2.422c-.346-.093-.468-.55-.043-.612l-.136.07.452-.074-.114-.042c.151-.058.225.057.305.141.313.273-.177.639-.464.518zm3.905 6.453c-.214.181-.207.284-.504.275-.234.126-.262-.313-.552-.378-.328-.127-.512-.567-.246-.85.037-.04.056-.107.126-.048-.148.109-.178.263-.154.434.015.191.321.286.242.1-.109-.184.008-.301.045-.492l.164.08c-.146.342-.123.363.131.612.162.273.475.226.748.266z"/><path d="M7.424 8.579c.003.019-.021.056-.039.06l-.492.117c-.163-.082-.321.023-.481.008-.186-.022-.38-.008-.554-.086-.142-.034-.035-.114-.207-.228.027-.043.052-.059.104-.019.099.061.189.115.3.164-.043-.122-.167-.222-.126-.349.08.113.089.269.247.316-.09-.179-.256-.348-.181-.561h.021c.129.209.201.495.495.522-.027-.034-.042-.065-.066-.081-.255-.178-.503-.494-.353-.814.054.211.125.378.201.574.028.077.088.11.16.124.104.02.204.059.315.024.145-.045.192-.186.082-.296-.068-.082-.234-.037-.262-.158l.056.017c-.003-.045-.021-.093-.004-.116.02-.028.07-.047.106-.045.022.001.042.048.06.069l.008-.102c.453.365.46.253.609.858z"/></g><g fill="#0f181b"><path d="M11.414 1.936c-.033-.118-.162-.151-.267-.183-.158-.059-.319-.112-.485-.046-.174.082-.377.155-.532.264-.042.074.032.157.118.171.21.006.345.199.553.19.23-.002.402-.142.564-.282.03-.022.057-.082.049-.115zm-.978.143c-.044-.038-.103-.064-.103-.092 0-.066.059-.079.124-.08l-.021.173zm.339.162c-.089-.002-.259-.126-.262-.205-.005-.12.13-.247.265-.248.078-.001.172.126.172.233 0 .086-.106.222-.175.22zm.254-.047c0-.012-.006-.027-.001-.036.057-.119-.011-.222-.055-.331.134 0 .271.087.313.192-.085.053-.154.165-.258.175z"/><path d="M11.382 2.305c-.223.29-.97.284-1.203.007l.004-.03c.03.005.065.002.087.017.204.118.458.23.689.14.146-.04.264-.149.423-.134zm-8.428-.401c-.08-.084-.153-.199-.305-.141l.114.042-.442.084c.031-.031.072-.052.126-.079-.425.062-.304.519.043.612.287.121.777-.245.464-.518zm-.55.075l.067.188-.02.016-.173-.134.126-.07zm-.084.242a1.12 1.12 0 0 0 .566.036c-.217.153-.464.134-.566-.036zm.455-.02v-.103c-.097.151-.419.016-.29-.137.093-.034.275-.117.291.042l.09-.05c.112.157.064.16-.091.248zm-.127 1.632c-.027.096-.067.128-.139.181-.271.207-.181.532-.062.798-.428-.384-.155-.804.2-.979zm7.863 4.96c-.083.07-.096.086-.164.013.061-.093.064-.095.164-.013zm-3.477.169c.081-.01.088.053.094.105.008.063-.03.097-.093.097-.136.008-.143-.216-.001-.202zm3.428 3.553c-.093-.098-.198-.199-.006-.233.064.005.086.062.086.11 0 .034-.041.067-.079.123zm-.048-.661c-.073-.088-.117-.111-.024-.192.03.039.063.075.086.118.004.008-.03.037-.062.074zm-4.162-7.03c-.312-.032-.243.298.051.281.169-.031.114-.265-.051-.281zm-.005.21c-.126.004-.141-.099-.033-.165.131.008.137.132.033.165z"/></g><path d="M6.247 5.034c-.126.004-.141-.099-.033-.165.131.008.137.132.033.165z" fill="#567591"/><path d="M10.813 1.96c-.065.134-.149.172-.181-.005a.43.43 0 0 1 .155-.016l.026.021zm-8.237.139l-.006-.101.098.042-.059.072-.034-.013z" fill="#0f181b"/></svg>